# MagicaVoxel @ Ephtracy

# group
g Terrain_SnowGrass_Back-1

# material
mtllib Terrain_SnowGrass_Back-1.mtl
usemtl palette

# normals
vn -1 0 0
vn 1 0 0
vn 0 0 1
vn 0 0 -1
vn 0 -1 0
vn 0 1 0

# texcoords
vt 0.00195313 0.5
vt 0.00585938 0.5
vt 0.00976563 0.5
vt 0.0175781 0.5

# verts
v -5 -5 5
v -5 -5 1
v -5 -5 -0
v -5 -5 -1
v -5 -5 -2
v -5 -5 -3
v -5 -5 -5
v -5 -4 5
v -5 -4 4
v -5 -4 3
v -5 -4 1
v -5 -4 -0
v -5 -4 -1
v -5 -4 -2
v -5 -4 -3
v -5 -4 -4
v -5 -3 4
v -5 -3 3
v -5 -3 2
v -5 -3 1
v -5 -3 -0
v -5 -3 -1
v -5 -3 -2
v -5 -3 -3
v -5 -3 -4
v -5 -3 -5
v -5 -2 4
v -5 -2 2
v -5 -2 1
v -5 -2 -0
v -5 -2 -1
v -5 -2 -2
v -5 -2 -4
v -5 -1 5
v -5 -1 4
v -5 -1 3
v -5 -1 1
v -5 -1 -0
v -5 -1 -1
v -5 -1 -2
v -5 0 5
v -5 0 3
v -5 0 2
v -5 0 1
v -5 0 -0
v -5 0 -2
v -5 0 -3
v -5 0 -4
v -5 1 5
v -5 1 4
v -5 1 3
v -5 1 2
v -5 1 1
v -5 1 -0
v -5 1 -2
v -5 1 -3
v -5 1 -4
v -5 1 -5
v -5 2 4
v -5 2 3
v -5 2 1
v -5 2 -0
v -5 2 -1
v -5 2 -2
v -5 2 -3
v -5 2 -4
v -5 3 -0
v -5 3 -1
v -5 3 -2
v -5 3 -3
v -5 5 5
v -5 5 -5
v 5 -5 5
v 5 -5 4
v 5 -5 2
v 5 -5 1
v 5 -5 -1
v 5 -5 -2
v 5 -5 -3
v 5 -5 -4
v 5 -5 -5
v 5 -4 5
v 5 -4 4
v 5 -4 3
v 5 -4 2
v 5 -4 -0
v 5 -4 -1
v 5 -4 -2
v 5 -4 -3
v 5 -4 -4
v 5 -4 -5
v 5 -3 5
v 5 -3 4
v 5 -3 3
v 5 -3 2
v 5 -3 1
v 5 -3 -0
v 5 -3 -1
v 5 -3 -2
v 5 -3 -3
v 5 -3 -4
v 5 -3 -5
v 5 -2 5
v 5 -2 4
v 5 -2 1
v 5 -2 -0
v 5 -2 -1
v 5 -2 -3
v 5 -2 -4
v 5 -2 -5
v 5 -1 5
v 5 -1 4
v 5 -1 3
v 5 -1 1
v 5 -1 -0
v 5 -1 -1
v 5 -1 -2
v 5 -1 -3
v 5 -1 -5
v 5 0 5
v 5 0 4
v 5 0 3
v 5 0 2
v 5 0 -0
v 5 0 -2
v 5 0 -4
v 5 0 -5
v 5 1 5
v 5 1 4
v 5 1 3
v 5 1 2
v 5 1 1
v 5 1 -0
v 5 1 -2
v 5 1 -3
v 5 1 -4
v 5 1 -5
v 5 2 4
v 5 2 2
v 5 2 1
v 5 2 -0
v 5 2 -2
v 5 2 -3
v 5 3 -3
v 5 3 -4
v 5 5 5
v 5 5 -5
v -5 -5 5
v -5 -4 5
v -5 -1 5
v -5 0 5
v -5 1 5
v -5 5 5
v -4 -4 5
v -4 -1 5
v -4 0 5
v -4 1 5
v -4 2 5
v -3 -5 5
v -3 -3 5
v -3 -2 5
v -3 -1 5
v -3 0 5
v -3 1 5
v -3 2 5
v -2 -5 5
v -2 -3 5
v -2 -2 5
v -2 -1 5
v -2 0 5
v -2 1 5
v -1 0 5
v -1 1 5
v -1 2 5
v 0 -5 5
v 0 -3 5
v 0 -2 5
v 0 -1 5
v 0 0 5
v 0 1 5
v 0 2 5
v 0 3 5
v 1 -5 5
v 1 -4 5
v 1 -3 5
v 1 -2 5
v 1 -1 5
v 1 0 5
v 1 1 5
v 1 2 5
v 1 3 5
v 2 -5 5
v 2 -4 5
v 2 -2 5
v 2 -1 5
v 2 0 5
v 3 -5 5
v 3 -4 5
v 3 -3 5
v 3 -1 5
v 3 1 5
v 3 2 5
v 4 -5 5
v 4 -4 5
v 4 -3 5
v 4 -2 5
v 4 -1 5
v 4 0 5
v 4 1 5
v 5 -5 5
v 5 -4 5
v 5 -3 5
v 5 -2 5
v 5 -1 5
v 5 0 5
v 5 1 5
v 5 5 5
v -5 -5 -5
v -5 -3 -5
v -5 1 -5
v -5 5 -5
v -4 -5 -5
v -4 -4 -5
v -4 -3 -5
v -4 1 -5
v -4 2 -5
v -3 -5 -5
v -3 -4 -5
v -3 -3 -5
v -3 -2 -5
v -3 -1 -5
v -3 0 -5
v -3 1 -5
v -3 2 -5
v -2 -5 -5
v -2 -4 -5
v -2 -3 -5
v -2 -2 -5
v -2 -1 -5
v -2 0 -5
v -2 1 -5
v -2 2 -5
v -2 3 -5
v -1 -5 -5
v -1 -4 -5
v -1 -3 -5
v -1 -2 -5
v -1 -1 -5
v -1 0 -5
v -1 1 -5
v -1 2 -5
v -1 3 -5
v 0 -5 -5
v 0 -4 -5
v 0 -3 -5
v 0 -2 -5
v 0 -1 -5
v 0 0 -5
v 0 1 -5
v 0 2 -5
v 1 -5 -5
v 1 -4 -5
v 1 -2 -5
v 1 -1 -5
v 1 0 -5
v 1 1 -5
v 1 2 -5
v 2 -5 -5
v 2 -4 -5
v 2 -3 -5
v 2 -2 -5
v 2 1 -5
v 2 2 -5
v 3 -3 -5
v 3 -2 -5
v 3 -1 -5
v 3 2 -5
v 3 3 -5
v 4 -5 -5
v 4 -4 -5
v 4 -3 -5
v 4 -2 -5
v 4 -1 -5
v 4 0 -5
v 4 1 -5
v 4 3 -5
v 5 -5 -5
v 5 -4 -5
v 5 -3 -5
v 5 -2 -5
v 5 -1 -5
v 5 0 -5
v 5 1 -5
v 5 5 -5
v -5 -5 5
v -3 -5 5
v -2 -5 5
v 0 -5 5
v 1 -5 5
v 2 -5 5
v 3 -5 5
v 4 -5 5
v 5 -5 5
v -4 -5 4
v -3 -5 4
v -2 -5 4
v -1 -5 4
v 0 -5 4
v 1 -5 4
v 2 -5 4
v 3 -5 4
v 4 -5 4
v 5 -5 4
v -2 -5 3
v -1 -5 3
v 1 -5 3
v 3 -5 3
v 4 -5 3
v -3 -5 2
v -2 -5 2
v -1 -5 2
v 0 -5 2
v 1 -5 2
v 2 -5 2
v 3 -5 2
v 5 -5 2
v -5 -5 1
v -4 -5 1
v -2 -5 1
v -1 -5 1
v 0 -5 1
v 1 -5 1
v 2 -5 1
v 3 -5 1
v 4 -5 1
v 5 -5 1
v -5 -5 -0
v -4 -5 -0
v -3 -5 -0
v -2 -5 -0
v -1 -5 -0
v 0 -5 -0
v 1 -5 -0
v 2 -5 -0
v 3 -5 -0
v 4 -5 -0
v -5 -5 -1
v -4 -5 -1
v -3 -5 -1
v -2 -5 -1
v -1 -5 -1
v 0 -5 -1
v 1 -5 -1
v 2 -5 -1
v 3 -5 -1
v 4 -5 -1
v 5 -5 -1
v -5 -5 -2
v -4 -5 -2
v -3 -5 -2
v -1 -5 -2
v 0 -5 -2
v 1 -5 -2
v 2 -5 -2
v 5 -5 -2
v -5 -5 -3
v -4 -5 -3
v -3 -5 -3
v -2 -5 -3
v -1 -5 -3
v 0 -5 -3
v 1 -5 -3
v 2 -5 -3
v 3 -5 -3
v 4 -5 -3
v 5 -5 -3
v -2 -5 -4
v -1 -5 -4
v 0 -5 -4
v 1 -5 -4
v 3 -5 -4
v 4 -5 -4
v 5 -5 -4
v -5 -5 -5
v -4 -5 -5
v -3 -5 -5
v -2 -5 -5
v -1 -5 -5
v 0 -5 -5
v 1 -5 -5
v 2 -5 -5
v 4 -5 -5
v 5 -5 -5
v -5 5 5
v 5 5 5
v -5 5 -5
v 5 5 -5

# faces
f 8/3/1 2/3/1 1/3/1
f 9/3/1 2/3/1 8/3/1
f 10/3/1 2/3/1 9/3/1
f 11/1/1 3/1/1 2/1/1
f 11/3/1 2/3/1 10/3/1
f 12/3/1 4/3/1 3/3/1
f 12/1/1 3/1/1 11/1/1
f 13/1/1 5/1/1 4/1/1
f 13/3/1 4/3/1 12/3/1
f 14/3/1 6/3/1 5/3/1
f 14/1/1 5/1/1 13/1/1
f 15/2/1 7/2/1 6/2/1
f 15/3/1 6/3/1 14/3/1
f 16/2/1 7/2/1 15/2/1
f 17/2/1 10/2/1 9/2/1
f 17/1/1 9/1/1 8/1/1
f 18/3/1 11/3/1 10/3/1
f 18/2/1 10/2/1 17/2/1
f 19/3/1 11/3/1 18/3/1
f 20/2/1 12/2/1 11/2/1
f 20/3/1 11/3/1 19/3/1
f 21/1/1 13/1/1 12/1/1
f 21/2/1 12/2/1 20/2/1
f 22/2/1 14/2/1 13/2/1
f 22/1/1 13/1/1 21/1/1
f 22/2/1 15/2/1 14/2/1
f 23/2/1 15/2/1 22/2/1
f 24/1/1 16/1/1 15/1/1
f 24/2/1 15/2/1 23/2/1
f 25/2/1 7/2/1 16/2/1
f 25/1/1 16/1/1 24/1/1
f 26/2/1 7/2/1 25/2/1
f 27/1/1 17/1/1 8/1/1
f 27/3/1 19/3/1 18/3/1
f 27/3/1 18/3/1 17/3/1
f 28/2/1 20/2/1 19/2/1
f 28/3/1 19/3/1 27/3/1
f 29/1/1 21/1/1 20/1/1
f 29/2/1 20/2/1 28/2/1
f 30/2/1 22/2/1 21/2/1
f 30/1/1 21/1/1 29/1/1
f 31/3/1 23/3/1 22/3/1
f 31/2/1 22/2/1 30/2/1
f 32/1/1 24/1/1 23/1/1
f 32/3/1 23/3/1 31/3/1
f 32/1/1 26/1/1 25/1/1
f 32/1/1 25/1/1 24/1/1
f 33/1/1 26/1/1 32/1/1
f 34/1/1 27/1/1 8/1/1
f 35/2/1 28/2/1 27/2/1
f 35/1/1 27/1/1 34/1/1
f 35/2/1 29/2/1 28/2/1
f 36/2/1 29/2/1 35/2/1
f 37/3/1 30/3/1 29/3/1
f 37/2/1 29/2/1 36/2/1
f 38/1/1 31/1/1 30/1/1
f 38/3/1 30/3/1 37/3/1
f 39/2/1 33/2/1 32/2/1
f 39/1/1 31/1/1 38/1/1
f 39/2/1 32/2/1 31/2/1
f 40/2/1 33/2/1 39/2/1
f 41/2/1 36/2/1 35/2/1
f 41/2/1 35/2/1 34/2/1
f 42/1/1 37/1/1 36/1/1
f 42/2/1 36/2/1 41/2/1
f 43/1/1 37/1/1 42/1/1
f 44/2/1 38/2/1 37/2/1
f 44/1/1 37/1/1 43/1/1
f 45/1/1 40/1/1 39/1/1
f 45/2/1 38/2/1 44/2/1
f 45/1/1 39/1/1 38/1/1
f 46/2/1 33/2/1 40/2/1
f 46/1/1 40/1/1 45/1/1
f 47/2/1 33/2/1 46/2/1
f 48/1/1 26/1/1 33/1/1
f 48/2/1 33/2/1 47/2/1
f 49/1/1 42/1/1 41/1/1
f 50/1/1 42/1/1 49/1/1
f 51/2/1 43/2/1 42/2/1
f 51/1/1 42/1/1 50/1/1
f 52/1/1 44/1/1 43/1/1
f 52/2/1 43/2/1 51/2/1
f 53/3/1 45/3/1 44/3/1
f 53/1/1 44/1/1 52/1/1
f 54/2/1 46/2/1 45/2/1
f 54/3/1 45/3/1 53/3/1
f 55/1/1 47/1/1 46/1/1
f 55/2/1 46/2/1 54/2/1
f 56/3/1 48/3/1 47/3/1
f 56/1/1 47/1/1 55/1/1
f 57/1/1 26/1/1 48/1/1
f 57/3/1 48/3/1 56/3/1
f 58/1/1 26/1/1 57/1/1
f 59/4/1 50/4/1 49/4/1
f 59/2/1 51/2/1 50/2/1
f 60/4/1 52/4/1 51/4/1
f 60/2/1 51/2/1 59/2/1
f 60/4/1 53/4/1 52/4/1
f 61/2/1 54/2/1 53/2/1
f 61/4/1 53/4/1 60/4/1
f 62/3/1 55/3/1 54/3/1
f 62/2/1 54/2/1 61/2/1
f 63/3/1 55/3/1 62/3/1
f 64/2/1 56/2/1 55/2/1
f 64/3/1 55/3/1 63/3/1
f 65/1/1 57/1/1 56/1/1
f 65/2/1 56/2/1 64/2/1
f 66/4/1 58/4/1 57/4/1
f 66/1/1 57/1/1 65/1/1
f 67/4/1 60/4/1 59/4/1
f 67/2/1 63/2/1 62/2/1
f 67/4/1 61/4/1 60/4/1
f 67/4/1 62/4/1 61/4/1
f 68/4/1 64/4/1 63/4/1
f 68/2/1 63/2/1 67/2/1
f 69/2/1 65/2/1 64/2/1
f 69/4/1 64/4/1 68/4/1
f 70/4/1 66/4/1 65/4/1
f 70/2/1 65/2/1 69/2/1
f 71/4/1 59/4/1 49/4/1
f 71/4/1 68/4/1 67/4/1
f 71/4/1 70/4/1 69/4/1
f 71/4/1 69/4/1 68/4/1
f 71/4/1 67/4/1 59/4/1
f 72/4/1 58/4/1 66/4/1
f 72/4/1 70/4/1 71/4/1
f 72/4/1 66/4/1 70/4/1
f 73/3/2 74/3/2 82/3/2
f 74/1/2 75/1/2 83/1/2
f 82/3/2 74/3/2 83/3/2
f 83/1/2 75/1/2 84/1/2
f 75/2/2 76/2/2 85/2/2
f 84/1/2 75/1/2 85/1/2
f 76/1/2 77/1/2 86/1/2
f 77/2/2 78/2/2 87/2/2
f 86/1/2 77/1/2 87/1/2
f 78/1/2 79/1/2 88/1/2
f 87/2/2 78/2/2 88/2/2
f 79/2/2 80/2/2 89/2/2
f 88/1/2 79/1/2 89/1/2
f 80/3/2 81/3/2 90/3/2
f 89/2/2 80/2/2 90/2/2
f 90/3/2 81/3/2 91/3/2
f 82/2/2 83/2/2 92/2/2
f 83/1/2 84/1/2 93/1/2
f 92/2/2 83/2/2 93/2/2
f 84/3/2 85/3/2 94/3/2
f 93/1/2 84/1/2 94/1/2
f 85/2/2 76/2/2 95/2/2
f 94/3/2 85/3/2 95/3/2
f 76/1/2 86/1/2 96/1/2
f 95/2/2 76/2/2 96/2/2
f 86/2/2 87/2/2 97/2/2
f 96/1/2 86/1/2 97/1/2
f 87/1/2 88/1/2 98/1/2
f 97/2/2 87/2/2 98/2/2
f 88/2/2 89/2/2 99/2/2
f 98/1/2 88/1/2 99/1/2
f 89/1/2 90/1/2 100/1/2
f 99/2/2 89/2/2 100/2/2
f 90/1/2 91/1/2 100/1/2
f 100/1/2 91/1/2 101/1/2
f 101/1/2 91/1/2 102/1/2
f 92/3/2 93/3/2 103/3/2
f 93/2/2 94/2/2 104/2/2
f 103/3/2 93/3/2 104/3/2
f 95/2/2 96/2/2 105/2/2
f 96/3/2 97/3/2 105/3/2
f 97/1/2 98/1/2 106/1/2
f 105/3/2 97/3/2 106/3/2
f 98/2/2 99/2/2 107/2/2
f 106/1/2 98/1/2 107/1/2
f 99/2/2 100/2/2 107/2/2
f 100/3/2 101/3/2 108/3/2
f 107/2/2 100/2/2 108/2/2
f 101/2/2 102/2/2 109/2/2
f 108/3/2 101/3/2 109/3/2
f 109/2/2 102/2/2 110/2/2
f 103/1/2 104/1/2 111/1/2
f 104/2/2 94/2/2 112/2/2
f 111/1/2 104/1/2 112/1/2
f 94/1/2 95/1/2 113/1/2
f 112/2/2 94/2/2 113/2/2
f 95/2/2 105/2/2 114/2/2
f 105/2/2 106/2/2 114/2/2
f 106/3/2 107/3/2 115/3/2
f 114/2/2 106/2/2 115/2/2
f 107/2/2 108/2/2 116/2/2
f 115/3/2 107/3/2 116/3/2
f 116/2/2 108/2/2 117/2/2
f 108/1/2 109/1/2 118/1/2
f 117/2/2 108/2/2 118/2/2
f 109/1/2 110/1/2 118/1/2
f 118/1/2 110/1/2 119/1/2
f 111/2/2 112/2/2 120/2/2
f 112/3/2 113/3/2 121/3/2
f 120/2/2 112/2/2 121/2/2
f 113/1/2 95/1/2 122/1/2
f 121/3/2 113/3/2 122/3/2
f 95/2/2 114/2/2 123/2/2
f 122/1/2 95/1/2 123/1/2
f 114/1/2 115/1/2 124/1/2
f 116/3/2 117/3/2 124/3/2
f 115/3/2 116/3/2 124/3/2
f 117/2/2 118/2/2 125/2/2
f 124/3/2 117/3/2 125/3/2
f 118/3/2 119/3/2 126/3/2
f 126/3/2 119/3/2 127/3/2
f 120/1/2 121/1/2 128/1/2
f 121/2/2 122/2/2 129/2/2
f 128/1/2 121/1/2 129/1/2
f 122/3/2 123/3/2 130/3/2
f 129/2/2 122/2/2 130/2/2
f 123/2/2 114/2/2 131/2/2
f 130/3/2 123/3/2 131/3/2
f 114/1/2 124/1/2 132/1/2
f 131/2/2 114/2/2 132/2/2
f 124/1/2 125/1/2 132/1/2
f 132/1/2 125/1/2 133/1/2
f 125/2/2 118/2/2 134/2/2
f 133/1/2 125/1/2 134/1/2
f 118/3/2 126/3/2 135/3/2
f 134/2/2 118/2/2 135/2/2
f 126/2/2 127/2/2 136/2/2
f 135/3/2 126/3/2 136/3/2
f 136/2/2 127/2/2 137/2/2
f 129/2/2 130/2/2 138/2/2
f 128/4/2 129/4/2 138/4/2
f 130/2/2 131/2/2 138/2/2
f 131/4/2 132/4/2 139/4/2
f 138/2/2 131/2/2 139/2/2
f 132/1/2 133/1/2 140/1/2
f 139/4/2 132/4/2 140/4/2
f 133/4/2 134/4/2 141/4/2
f 140/1/2 133/1/2 141/1/2
f 135/2/2 136/2/2 142/2/2
f 141/4/2 134/4/2 142/4/2
f 134/2/2 135/2/2 142/2/2
f 142/2/2 136/2/2 143/2/2
f 138/4/2 139/4/2 144/4/2
f 143/2/2 136/2/2 144/2/2
f 142/4/2 143/4/2 144/4/2
f 141/4/2 142/4/2 144/4/2
f 139/4/2 140/4/2 144/4/2
f 140/4/2 141/4/2 144/4/2
f 136/4/2 137/4/2 145/4/2
f 144/2/2 136/2/2 145/2/2
f 138/4/2 144/4/2 146/4/2
f 128/4/2 138/4/2 146/4/2
f 144/4/2 145/4/2 146/4/2
f 145/4/2 137/4/2 147/4/2
f 146/4/2 145/4/2 147/4/2
f 154/3/3 149/3/3 148/3/3
f 154/1/3 150/1/3 149/1/3
f 155/2/3 151/2/3 150/2/3
f 155/1/3 150/1/3 154/1/3
f 156/1/3 152/1/3 151/1/3
f 156/2/3 151/2/3 155/2/3
f 157/4/3 153/4/3 152/4/3
f 157/1/3 152/1/3 156/1/3
f 158/4/3 153/4/3 157/4/3
f 159/3/3 156/3/3 155/3/3
f 159/3/3 155/3/3 154/3/3
f 159/3/3 154/3/3 148/3/3
f 160/3/3 156/3/3 159/3/3
f 161/3/3 156/3/3 160/3/3
f 162/3/3 156/3/3 161/3/3
f 163/2/3 157/2/3 156/2/3
f 163/3/3 156/3/3 162/3/3
f 164/3/3 158/3/3 157/3/3
f 164/2/3 157/2/3 163/2/3
f 165/4/3 153/4/3 158/4/3
f 165/3/3 158/3/3 164/3/3
f 166/1/3 160/1/3 159/1/3
f 167/3/3 161/3/3 160/3/3
f 167/1/3 160/1/3 166/1/3
f 168/2/3 162/2/3 161/2/3
f 168/3/3 161/3/3 167/3/3
f 169/3/3 163/3/3 162/3/3
f 169/2/3 162/2/3 168/2/3
f 170/1/3 164/1/3 163/1/3
f 170/3/3 163/3/3 169/3/3
f 171/4/3 165/4/3 164/4/3
f 171/1/3 164/1/3 170/1/3
f 172/1/3 169/1/3 168/1/3
f 172/1/3 170/1/3 169/1/3
f 172/2/3 171/2/3 170/2/3
f 173/4/3 165/4/3 171/4/3
f 173/2/3 171/2/3 172/2/3
f 174/4/3 153/4/3 165/4/3
f 174/4/3 165/4/3 173/4/3
f 175/3/3 167/3/3 166/3/3
f 176/2/3 168/2/3 167/2/3
f 176/3/3 167/3/3 175/3/3
f 177/1/3 172/1/3 168/1/3
f 177/2/3 168/2/3 176/2/3
f 178/1/3 172/1/3 177/1/3
f 179/3/3 173/3/3 172/3/3
f 179/1/3 172/1/3 178/1/3
f 179/3/3 174/3/3 173/3/3
f 180/3/3 174/3/3 179/3/3
f 181/4/3 153/4/3 174/4/3
f 181/3/3 174/3/3 180/3/3
f 182/4/3 153/4/3 181/4/3
f 183/1/3 176/1/3 175/1/3
f 184/1/3 176/1/3 183/1/3
f 185/3/3 178/3/3 177/3/3
f 185/1/3 176/1/3 184/1/3
f 185/3/3 177/3/3 176/3/3
f 186/3/3 178/3/3 185/3/3
f 187/2/3 179/2/3 178/2/3
f 187/3/3 178/3/3 186/3/3
f 188/1/3 180/1/3 179/1/3
f 188/2/3 179/2/3 187/2/3
f 189/2/3 181/2/3 180/2/3
f 189/1/3 180/1/3 188/1/3
f 190/3/3 182/3/3 181/3/3
f 190/2/3 181/2/3 189/2/3
f 191/4/3 153/4/3 182/4/3
f 191/3/3 182/3/3 190/3/3
f 192/2/3 184/2/3 183/2/3
f 193/1/3 186/1/3 185/1/3
f 193/2/3 184/2/3 192/2/3
f 193/1/3 185/1/3 184/1/3
f 194/2/3 187/2/3 186/2/3
f 194/1/3 186/1/3 193/1/3
f 195/1/3 188/1/3 187/1/3
f 195/2/3 187/2/3 194/2/3
f 196/2/3 190/2/3 189/2/3
f 196/1/3 188/1/3 195/1/3
f 196/2/3 189/2/3 188/2/3
f 197/3/3 195/3/3 194/3/3
f 197/3/3 193/3/3 192/3/3
f 197/3/3 194/3/3 193/3/3
f 198/3/3 195/3/3 197/3/3
f 199/3/3 195/3/3 198/3/3
f 200/2/3 196/2/3 195/2/3
f 200/3/3 195/3/3 199/3/3
f 201/2/3 190/2/3 196/2/3
f 201/2/3 196/2/3 200/2/3
f 202/4/3 191/4/3 190/4/3
f 202/2/3 190/2/3 201/2/3
f 203/2/3 198/2/3 197/2/3
f 204/1/3 199/1/3 198/1/3
f 204/2/3 198/2/3 203/2/3
f 205/2/3 200/2/3 199/2/3
f 205/1/3 199/1/3 204/1/3
f 205/2/3 201/2/3 200/2/3
f 206/2/3 201/2/3 205/2/3
f 207/2/3 201/2/3 206/2/3
f 208/2/3 201/2/3 207/2/3
f 209/4/3 202/4/3 201/4/3
f 209/2/3 201/2/3 208/2/3
f 210/3/3 204/3/3 203/3/3
f 211/2/3 205/2/3 204/2/3
f 211/3/3 204/3/3 210/3/3
f 212/3/3 206/3/3 205/3/3
f 212/2/3 205/2/3 211/2/3
f 213/1/3 207/1/3 206/1/3
f 213/3/3 206/3/3 212/3/3
f 214/2/3 208/2/3 207/2/3
f 214/1/3 207/1/3 213/1/3
f 215/1/3 209/1/3 208/1/3
f 215/2/3 208/2/3 214/2/3
f 216/4/3 202/4/3 209/4/3
f 216/1/3 209/1/3 215/1/3
f 217/4/3 153/4/3 191/4/3
f 217/4/3 202/4/3 216/4/3
f 217/4/3 191/4/3 202/4/3
f 218/2/4 219/2/4 222/2/4
f 222/2/4 219/2/4 223/2/4
f 219/1/4 220/1/4 224/1/4
f 223/2/4 219/2/4 224/2/4
f 220/4/4 221/4/4 225/4/4
f 224/1/4 220/1/4 225/1/4
f 225/4/4 221/4/4 226/4/4
f 222/1/4 223/1/4 227/1/4
f 223/3/4 224/3/4 228/3/4
f 227/1/4 223/1/4 228/1/4
f 224/3/4 225/3/4 228/3/4
f 228/3/4 225/3/4 229/3/4
f 229/3/4 225/3/4 230/3/4
f 230/3/4 225/3/4 231/3/4
f 231/3/4 225/3/4 232/3/4
f 225/2/4 226/2/4 233/2/4
f 232/3/4 225/3/4 233/3/4
f 226/4/4 221/4/4 234/4/4
f 233/2/4 226/2/4 234/2/4
f 227/2/4 228/2/4 235/2/4
f 228/3/4 229/3/4 236/3/4
f 235/2/4 228/2/4 236/2/4
f 229/1/4 230/1/4 237/1/4
f 236/3/4 229/3/4 237/3/4
f 230/3/4 231/3/4 238/3/4
f 237/1/4 230/1/4 238/1/4
f 231/2/4 232/2/4 239/2/4
f 238/3/4 231/3/4 239/3/4
f 232/3/4 233/3/4 240/3/4
f 239/2/4 232/2/4 240/2/4
f 233/1/4 234/1/4 241/1/4
f 240/3/4 233/3/4 241/3/4
f 234/4/4 221/4/4 242/4/4
f 241/1/4 234/1/4 242/1/4
f 242/4/4 221/4/4 243/4/4
f 235/3/4 236/3/4 244/3/4
f 236/3/4 237/3/4 244/3/4
f 244/3/4 237/3/4 245/3/4
f 237/2/4 238/2/4 246/2/4
f 245/3/4 237/3/4 246/3/4
f 238/1/4 239/1/4 247/1/4
f 246/2/4 238/2/4 247/2/4
f 239/3/4 240/3/4 248/3/4
f 247/1/4 239/1/4 248/1/4
f 240/1/4 241/1/4 249/1/4
f 248/3/4 240/3/4 249/3/4
f 241/2/4 242/2/4 250/2/4
f 249/1/4 241/1/4 250/1/4
f 242/1/4 243/1/4 251/1/4
f 250/2/4 242/2/4 251/2/4
f 243/4/4 221/4/4 252/4/4
f 251/1/4 243/1/4 252/1/4
f 244/1/4 245/1/4 253/1/4
f 245/2/4 246/2/4 254/2/4
f 253/1/4 245/1/4 254/1/4
f 247/1/4 248/1/4 255/1/4
f 254/2/4 246/2/4 255/2/4
f 246/1/4 247/1/4 255/1/4
f 255/1/4 248/1/4 256/1/4
f 249/2/4 250/2/4 257/2/4
f 256/1/4 248/1/4 257/1/4
f 248/2/4 249/2/4 257/2/4
f 257/2/4 250/2/4 258/2/4
f 250/3/4 251/3/4 259/3/4
f 258/2/4 250/2/4 259/2/4
f 251/4/4 252/4/4 260/4/4
f 259/3/4 251/3/4 260/3/4
f 253/3/4 254/3/4 261/3/4
f 255/2/4 256/2/4 262/2/4
f 261/3/4 254/3/4 262/3/4
f 254/2/4 255/2/4 262/2/4
f 256/3/4 257/3/4 263/3/4
f 262/2/4 256/2/4 263/2/4
f 257/1/4 258/1/4 264/1/4
f 263/3/4 257/3/4 264/3/4
f 258/2/4 259/2/4 265/2/4
f 264/1/4 258/1/4 265/1/4
f 259/2/4 260/2/4 265/2/4
f 265/2/4 260/2/4 266/2/4
f 260/4/4 252/4/4 267/4/4
f 266/2/4 260/2/4 267/2/4
f 261/1/4 262/1/4 268/1/4
f 262/2/4 263/2/4 269/2/4
f 268/1/4 262/1/4 269/1/4
f 269/2/4 263/2/4 270/2/4
f 263/1/4 264/1/4 271/1/4
f 270/2/4 263/2/4 271/2/4
f 265/3/4 266/3/4 272/3/4
f 264/3/4 265/3/4 272/3/4
f 266/4/4 267/4/4 272/4/4
f 267/4/4 252/4/4 273/4/4
f 272/4/4 267/4/4 273/4/4
f 269/2/4 270/2/4 274/2/4
f 270/3/4 271/3/4 274/3/4
f 268/2/4 269/2/4 274/2/4
f 271/1/4 264/1/4 275/1/4
f 274/3/4 271/3/4 275/3/4
f 264/3/4 272/3/4 276/3/4
f 275/1/4 264/1/4 276/1/4
f 272/3/4 273/3/4 276/3/4
f 273/4/4 252/4/4 277/4/4
f 276/3/4 273/3/4 277/3/4
f 252/4/4 221/4/4 278/4/4
f 277/4/4 252/4/4 278/4/4
f 276/2/4 277/2/4 279/2/4
f 268/2/4 274/2/4 279/2/4
f 277/2/4 278/2/4 279/2/4
f 275/2/4 276/2/4 279/2/4
f 274/2/4 275/2/4 279/2/4
f 279/2/4 278/2/4 280/2/4
f 280/2/4 278/2/4 281/2/4
f 281/2/4 278/2/4 282/2/4
f 282/2/4 278/2/4 283/2/4
f 283/2/4 278/2/4 284/2/4
f 284/2/4 278/2/4 285/2/4
f 278/4/4 221/4/4 286/4/4
f 285/2/4 278/2/4 286/2/4
f 279/3/4 280/3/4 287/3/4
f 280/1/4 281/1/4 288/1/4
f 287/3/4 280/3/4 288/3/4
f 281/2/4 282/2/4 289/2/4
f 288/1/4 281/1/4 289/1/4
f 282/1/4 283/1/4 290/1/4
f 289/2/4 282/2/4 290/2/4
f 283/3/4 284/3/4 291/3/4
f 290/1/4 283/1/4 291/1/4
f 284/2/4 285/2/4 292/2/4
f 291/3/4 284/3/4 292/3/4
f 285/4/4 286/4/4 293/4/4
f 292/2/4 285/2/4 293/2/4
f 286/4/4 221/4/4 294/4/4
f 293/4/4 286/4/4 294/4/4
f 304/3/5 296/3/5 295/3/5
f 305/1/5 297/1/5 296/1/5
f 305/3/5 296/3/5 304/3/5
f 306/3/5 298/3/5 297/3/5
f 306/1/5 297/1/5 305/1/5
f 307/3/5 298/3/5 306/3/5
f 308/1/5 299/1/5 298/1/5
f 308/3/5 298/3/5 307/3/5
f 309/2/5 300/2/5 299/2/5
f 309/1/5 299/1/5 308/1/5
f 310/3/5 301/3/5 300/3/5
f 310/2/5 300/2/5 309/2/5
f 311/2/5 302/2/5 301/2/5
f 311/3/5 301/3/5 310/3/5
f 312/3/5 303/3/5 302/3/5
f 312/2/5 302/2/5 311/2/5
f 313/3/5 303/3/5 312/3/5
f 314/2/5 307/2/5 306/2/5
f 314/1/5 306/1/5 305/1/5
f 315/3/5 308/3/5 307/3/5
f 315/2/5 307/2/5 314/2/5
f 315/3/5 309/3/5 308/3/5
f 316/2/5 311/2/5 310/2/5
f 316/3/5 309/3/5 315/3/5
f 316/2/5 312/2/5 311/2/5
f 316/2/5 310/2/5 309/2/5
f 317/2/5 312/2/5 316/2/5
f 318/1/5 313/1/5 312/1/5
f 318/2/5 312/2/5 317/2/5
f 319/2/5 305/2/5 304/2/5
f 319/1/5 314/1/5 305/1/5
f 320/3/5 315/3/5 314/3/5
f 320/1/5 314/1/5 319/1/5
f 321/1/5 316/1/5 315/1/5
f 321/3/5 315/3/5 320/3/5
f 322/1/5 316/1/5 321/1/5
f 323/2/5 317/2/5 316/2/5
f 323/1/5 316/1/5 322/1/5
f 324/2/5 317/2/5 323/2/5
f 325/1/5 318/1/5 317/1/5
f 325/2/5 317/2/5 324/2/5
f 326/1/5 313/1/5 318/1/5
f 326/1/5 318/1/5 325/1/5
f 327/3/5 304/3/5 295/3/5
f 328/2/5 319/2/5 304/2/5
f 328/3/5 304/3/5 327/3/5
f 328/2/5 320/2/5 319/2/5
f 329/3/5 321/3/5 320/3/5
f 329/2/5 320/2/5 328/2/5
f 330/2/5 322/2/5 321/2/5
f 330/3/5 321/3/5 329/3/5
f 331/3/5 323/3/5 322/3/5
f 331/2/5 322/2/5 330/2/5
f 332/1/5 324/1/5 323/1/5
f 332/3/5 323/3/5 331/3/5
f 333/2/5 325/2/5 324/2/5
f 333/1/5 324/1/5 332/1/5
f 333/2/5 326/2/5 325/2/5
f 334/2/5 326/2/5 333/2/5
f 335/2/5 326/2/5 334/2/5
f 336/2/5 326/2/5 335/2/5
f 337/1/5 328/1/5 327/1/5
f 338/3/5 329/3/5 328/3/5
f 338/1/5 328/1/5 337/1/5
f 339/3/5 329/3/5 338/3/5
f 340/1/5 330/1/5 329/1/5
f 340/3/5 329/3/5 339/3/5
f 341/2/5 331/2/5 330/2/5
f 341/1/5 330/1/5 340/1/5
f 342/1/5 332/1/5 331/1/5
f 342/2/5 331/2/5 341/2/5
f 343/3/5 333/3/5 332/3/5
f 343/1/5 332/1/5 342/1/5
f 343/3/5 334/3/5 333/3/5
f 344/3/5 334/3/5 343/3/5
f 345/2/5 335/2/5 334/2/5
f 345/3/5 334/3/5 344/3/5
f 346/1/5 336/1/5 335/1/5
f 346/2/5 335/2/5 345/2/5
f 347/3/5 339/3/5 338/3/5
f 347/3/5 338/3/5 337/3/5
f 348/3/5 339/3/5 347/3/5
f 349/1/5 340/1/5 339/1/5
f 349/3/5 339/3/5 348/3/5
f 350/2/5 341/2/5 340/2/5
f 350/1/5 340/1/5 349/1/5
f 350/2/5 342/2/5 341/2/5
f 350/2/5 343/2/5 342/2/5
f 351/2/5 343/2/5 350/2/5
f 352/2/5 343/2/5 351/2/5
f 353/3/5 344/3/5 343/3/5
f 353/2/5 343/2/5 352/2/5
f 354/2/5 345/2/5 344/2/5
f 354/3/5 344/3/5 353/3/5
f 355/3/5 346/3/5 345/3/5
f 355/2/5 345/2/5 354/2/5
f 356/1/5 336/1/5 346/1/5
f 356/3/5 346/3/5 355/3/5
f 357/1/5 336/1/5 356/1/5
f 358/1/5 348/1/5 347/1/5
f 359/3/5 349/3/5 348/3/5
f 359/1/5 348/1/5 358/1/5
f 360/2/5 350/2/5 349/2/5
f 360/3/5 349/3/5 359/3/5
f 360/2/5 351/2/5 350/2/5
f 361/1/5 352/1/5 351/1/5
f 361/2/5 351/2/5 360/2/5
f 362/3/5 353/3/5 352/3/5
f 362/1/5 352/1/5 361/1/5
f 363/1/5 354/1/5 353/1/5
f 363/3/5 353/3/5 362/3/5
f 364/2/5 355/2/5 354/2/5
f 364/1/5 354/1/5 363/1/5
f 364/2/5 357/2/5 356/2/5
f 364/2/5 356/2/5 355/2/5
f 365/2/5 357/2/5 364/2/5
f 366/3/5 359/3/5 358/3/5
f 367/2/5 360/2/5 359/2/5
f 367/3/5 359/3/5 366/3/5
f 367/2/5 361/2/5 360/2/5
f 368/2/5 361/2/5 367/2/5
f 369/2/5 361/2/5 368/2/5
f 370/3/5 363/3/5 362/3/5
f 370/2/5 361/2/5 369/2/5
f 370/3/5 362/3/5 361/3/5
f 371/3/5 363/3/5 370/3/5
f 372/2/5 364/2/5 363/2/5
f 372/3/5 363/3/5 371/3/5
f 373/1/5 365/1/5 364/1/5
f 373/2/5 364/2/5 372/2/5
f 374/1/5 365/1/5 373/1/5
f 375/1/5 365/1/5 374/1/5
f 376/1/5 365/1/5 375/1/5
f 377/2/5 369/2/5 368/2/5
f 377/1/5 370/1/5 369/1/5
f 378/3/5 371/3/5 370/3/5
f 378/1/5 370/1/5 377/1/5
f 379/2/5 372/2/5 371/2/5
f 379/3/5 371/3/5 378/3/5
f 380/1/5 373/1/5 372/1/5
f 380/2/5 372/2/5 379/2/5
f 381/2/5 374/2/5 373/2/5
f 381/1/5 375/1/5 374/1/5
f 382/2/5 376/2/5 375/2/5
f 382/1/5 375/1/5 381/1/5
f 383/2/5 376/2/5 382/2/5
f 384/2/5 367/2/5 366/2/5
f 385/1/5 368/1/5 367/1/5
f 385/2/5 367/2/5 384/2/5
f 386/2/5 377/2/5 368/2/5
f 386/1/5 368/1/5 385/1/5
f 387/3/5 378/3/5 377/3/5
f 387/2/5 377/2/5 386/2/5
f 388/1/5 379/1/5 378/1/5
f 388/3/5 378/3/5 387/3/5
f 389/3/5 380/3/5 379/3/5
f 389/1/5 379/1/5 388/1/5
f 390/1/5 373/1/5 380/1/5
f 390/3/5 380/3/5 389/3/5
f 391/2/5 381/2/5 373/2/5
f 391/1/5 373/1/5 390/1/5
f 391/2/5 382/2/5 381/2/5
f 392/3/5 383/3/5 382/3/5
f 392/2/5 382/2/5 391/2/5
f 393/3/5 383/3/5 392/3/5
f 394/4/6 395/4/6 396/4/6
f 396/4/6 395/4/6 397/4/6
