# MagicaVoxel @ Ephtracy

# group
g breakobject-2

# material
mtllib breakobject-2.mtl
usemtl palette

# normals
vn -1 0 0
vn 1 0 0
vn 0 0 1
vn 0 0 -1
vn 0 -1 0
vn 0 1 0

# texcoords
vt 0.283203 0.5
vt 0.818359 0.5
vt 0.826172 0.5

# verts
v -0.4 0.7 0.5
v -0.4 0.7 0.2
v -0.4 0.8 0.5
v -0.4 0.8 0.2
v -0.3 0.7 0.6
v -0.3 0.7 0.5
v -0.3 0.7 0.2
v -0.3 0.7 0.1
v -0.3 0.8 0.6
v -0.3 0.8 0.5
v -0.3 0.8 0.2
v -0.3 0.8 0.1
v -0.2 0.7 0.1
v -0.2 0.7 -0.1
v -0.2 0.8 0.1
v -0.2 0.8 -0.1
v -0.1 0.7 0.7
v -0.1 0.7 0.6
v -0.1 0.7 -0.1
v -0.1 0.7 -0.3
v -0.1 0.8 0.7
v -0.1 0.8 0.6
v -0.1 0.8 -0.1
v -0.1 0.8 -0.3
v 0 0.6 0.8
v 0 0.6 0.7
v 0 0.7 0.8
v 0 0.7 0.7
v 0 0.8 0.8
v 0 0.8 0.7
v 0 0.9 0.8
v 0 0.9 0.7
v 0.1 0 0.8
v 0.1 0 0.7
v 0.1 0.6 0.8
v 0.1 0.6 0.7
v 0.2 0.7 0.9
v 0.2 0.7 0.8
v 0.2 0.9 0.9
v 0.2 0.9 0.8
v 0.5 -0.1 0.8
v 0.5 -0.1 0.7
v 0.5 0 0.8
v 0.5 0 0.7
v 0.6 0.6 1
v 0.6 0.6 0.8
v 0.6 0.6 0.7
v 0.6 0.6 0.6
v 0.6 0.7 0.9
v 0.6 0.7 0.8
v 0.6 0.7 0.7
v 0.6 0.7 0.6
v 0.6 0.8 0.7
v 0.6 0.8 0.6
v 0.6 0.9 0.9
v 0.6 0.9 0.8
v 0.6 0.9 0.7
v 0.6 1 1
v 0.6 1 0.6
v 0.7 -0.6 0.7
v 0.7 -0.6 0.6
v 0.7 -0.5 0.6
v 0.7 -0.5 0.5
v 0.7 -0.3 0.5
v 0.7 -0.3 0.4
v 0.7 -0.1 0.9
v 0.7 -0.1 0.8
v 0.7 -0.1 0.7
v 0.7 0 0.4
v 0.7 0 0.3
v 0.7 0.1 0.9
v 0.7 0.1 0.8
v 0.7 0.2 0.3
v 0.7 0.2 0.2
v 0.7 0.5 0.2
v 0.7 0.5 0.1
v 0.7 0.6 0.9
v 0.7 0.6 0.8
v 0.7 0.6 0.7
v 0.7 0.6 0.6
v 0.7 0.7 0.6
v 0.7 0.7 0.1
v 0.7 0.8 0.6
v 0.7 0.8 -0
v 0.7 0.9 0.6
v 0.7 0.9 -0
v 0.8 -0.7 0.7
v 0.8 -0.7 0.6
v 0.8 -0.6 0.7
v 0.8 -0.6 0.6
v 0.9 -0.8 0.8
v 0.9 -0.8 0.7
v 0.9 -0.7 0.8
v 0.9 -0.7 0.7
v 0.9 -0.6 0.8
v 0.9 -0.6 0.7
v 0.9 0.6 0.9
v 0.9 0.6 0.8
v 0.9 0.6 0.7
v 0.9 0.7 0.9
v 0.9 0.7 0.7
v 0.9 0.7 0.6
v 0.9 0.9 0.9
v 0.9 0.9 0.7
v 0.9 0.9 0.6
v 0 0.7 -0.2
v 0 0.7 -0.3
v 0 0.8 -0.2
v 0 0.8 -0.3
v 0.2 0.7 -0.1
v 0.2 0.7 -0.2
v 0.2 0.8 -0.1
v 0.2 0.8 -0.2
v 0.5 0.7 -0
v 0.5 0.7 -0.1
v 0.5 0.8 -0
v 0.5 0.8 -0.1
v 0.6 0.7 0.9
v 0.6 0.7 0.7
v 0.6 0.8 0.8
v 0.6 0.8 0.7
v 0.6 0.9 0.9
v 0.6 0.9 0.8
v 0.6 0.9 0.7
v 0.7 0.6 0.9
v 0.7 0.6 0.7
v 0.7 0.7 0.9
v 0.7 0.7 0.7
v 0.7 0.7 0.6
v 0.7 0.8 0.6
v 0.7 0.9 0.7
v 0.7 0.9 0.6
v 0.8 -0.6 0.7
v 0.8 -0.6 0.6
v 0.8 -0.5 0.6
v 0.8 -0.5 0.5
v 0.8 -0.3 0.5
v 0.8 -0.3 0.4
v 0.8 -0.1 0.7
v 0.8 0 0.7
v 0.8 0 0.4
v 0.8 0 0.3
v 0.8 0.1 0.7
v 0.8 0.2 0.3
v 0.8 0.2 0.2
v 0.8 0.5 0.2
v 0.8 0.5 0.1
v 0.8 0.6 0.7
v 0.8 0.6 0.6
v 0.8 0.7 0.6
v 0.8 0.7 0.1
v 0.8 0.7 -0
v 0.8 0.8 0.1
v 0.8 0.8 -0
v 0.9 -0.7 0.7
v 0.9 -0.7 0.6
v 0.9 -0.6 0.7
v 0.9 -0.6 0.6
v 0.9 -0.1 0.9
v 0.9 -0.1 0.7
v 0.9 0 0.9
v 0.9 0 0.7
v 0.9 0.1 0.8
v 0.9 0.1 0.7
v 0.9 0.6 0.9
v 0.9 0.6 0.8
v 0.9 0.6 0.7
v 0.9 0.7 0.6
v 0.9 0.7 0.1
v 0.9 0.8 0.1
v 0.9 0.8 -0
v 0.9 0.9 0.6
v 0.9 0.9 0.1
v 0.9 0.9 -0
v 1 -0.8 0.8
v 1 -0.8 0.7
v 1 -0.7 0.8
v 1 -0.7 0.7
v 1 -0.6 0.8
v 1 -0.6 0.7
v 1 0.6 1
v 1 0.6 0.6
v 1 0.7 0.9
v 1 0.7 0.7
v 1 0.9 0.9
v 1 0.9 0.7
v 1 1 1
v 1 1 0.6
v 0.6 0.6 1
v 0.6 1 1
v 0.7 0.7 1
v 0.7 0.9 1
v 0.9 0.7 1
v 0.9 0.9 1
v 1 0.6 1
v 1 1 1
v 0.2 0.7 0.9
v 0.2 0.9 0.9
v 0.6 0.7 0.9
v 0.6 0.9 0.9
v 0.7 -0.1 0.9
v 0.7 0.1 0.9
v 0.7 0.6 0.9
v 0.8 -0.1 0.9
v 0.8 0 0.9
v 0.8 0.1 0.9
v 0.8 0.6 0.9
v 0.9 -0.1 0.9
v 0.9 0 0.9
v 0.9 0.6 0.9
v 0 0.6 0.8
v 0 0.7 0.8
v 0 0.8 0.8
v 0 0.9 0.8
v 0.1 0 0.8
v 0.1 0.6 0.8
v 0.1 0.8 0.8
v 0.1 0.9 0.8
v 0.2 0.7 0.8
v 0.2 0.9 0.8
v 0.5 -0.1 0.8
v 0.5 0 0.8
v 0.6 0.6 0.8
v 0.6 0.7 0.8
v 0.7 -0.1 0.8
v 0.7 0.1 0.8
v 0.7 0.6 0.8
v 0.9 -0.8 0.8
v 0.9 -0.7 0.8
v 0.9 -0.6 0.8
v 1 -0.8 0.8
v 1 -0.7 0.8
v 1 -0.6 0.8
v -0.1 0.7 0.7
v -0.1 0.8 0.7
v 0 0.7 0.7
v 0 0.8 0.7
v 0.6 0.7 0.7
v 0.6 0.8 0.7
v 0.6 0.9 0.7
v 0.7 -0.6 0.7
v 0.7 -0.1 0.7
v 0.7 0.6 0.7
v 0.7 0.7 0.7
v 0.7 0.9 0.7
v 0.8 -0.7 0.7
v 0.8 -0.6 0.7
v 0.8 -0.1 0.7
v 0.9 -0.7 0.7
v 0.9 -0.6 0.7
v 0.9 0.6 0.7
v 0.9 0.7 0.7
v -0.3 0.7 0.6
v -0.3 0.8 0.6
v -0.1 0.7 0.6
v -0.1 0.8 0.6
v 0.7 0.7 0.6
v 0.7 0.8 0.6
v 0.7 0.9 0.6
v 0.8 0.8 0.6
v 0.8 0.9 0.6
v 0.9 0.7 0.6
v 0.9 0.9 0.6
v -0.4 0.7 0.5
v -0.4 0.8 0.5
v -0.3 0.7 0.5
v -0.3 0.8 0.5
v 0.6 0.7 0.9
v 0.6 0.9 0.9
v 0.7 0.6 0.9
v 0.7 0.7 0.9
v 0.7 0.9 0.9
v 0.8 0.6 0.9
v 0.9 0.6 0.9
v 0.9 0.7 0.9
v 0.9 0.9 0.9
v 0 0.6 0.7
v 0 0.7 0.7
v 0 0.8 0.7
v 0 0.9 0.7
v 0.1 0 0.7
v 0.1 0.6 0.7
v 0.1 0.8 0.7
v 0.1 0.9 0.7
v 0.5 -0.1 0.7
v 0.5 0 0.7
v 0.6 0.6 0.7
v 0.6 0.7 0.7
v 0.6 0.8 0.7
v 0.6 0.9 0.7
v 0.7 -0.1 0.7
v 0.7 0.6 0.7
v 0.8 -0.1 0.7
v 0.8 0 0.7
v 0.8 0.1 0.7
v 0.8 0.6 0.7
v 0.9 -0.8 0.7
v 0.9 -0.7 0.7
v 0.9 -0.6 0.7
v 0.9 -0.1 0.7
v 0.9 0 0.7
v 0.9 0.1 0.7
v 0.9 0.6 0.7
v 1 -0.8 0.7
v 1 -0.7 0.7
v 1 -0.6 0.7
v 0.6 0.6 0.6
v 0.6 0.7 0.6
v 0.6 0.8 0.6
v 0.6 1 0.6
v 0.7 -0.6 0.6
v 0.7 -0.5 0.6
v 0.7 0.6 0.6
v 0.7 0.7 0.6
v 0.7 0.8 0.6
v 0.7 0.9 0.6
v 0.8 -0.7 0.6
v 0.8 -0.6 0.6
v 0.8 -0.5 0.6
v 0.8 0.6 0.6
v 0.8 0.7 0.6
v 0.8 0.9 0.6
v 0.9 -0.7 0.6
v 0.9 -0.6 0.6
v 0.9 0.7 0.6
v 0.9 0.9 0.6
v 1 0.6 0.6
v 1 1 0.6
v 0.7 -0.5 0.5
v 0.7 -0.3 0.5
v 0.8 -0.5 0.5
v 0.8 -0.3 0.5
v 0.7 -0.3 0.4
v 0.7 0 0.4
v 0.8 -0.3 0.4
v 0.8 0 0.4
v 0.7 0 0.3
v 0.7 0.2 0.3
v 0.8 0 0.3
v 0.8 0.2 0.3
v -0.4 0.7 0.2
v -0.4 0.8 0.2
v -0.3 0.7 0.2
v -0.3 0.8 0.2
v 0.7 0.2 0.2
v 0.7 0.5 0.2
v 0.8 0.2 0.2
v 0.8 0.5 0.2
v -0.3 0.7 0.1
v -0.3 0.8 0.1
v -0.2 0.7 0.1
v -0.2 0.8 0.1
v 0.7 0.5 0.1
v 0.7 0.7 0.1
v 0.8 0.5 0.1
v 0.8 0.7 0.1
v 0.8 0.8 0.1
v 0.9 0.7 0.1
v 0.9 0.8 0.1
v 0.5 0.7 -0
v 0.5 0.8 -0
v 0.7 0.7 -0
v 0.7 0.8 -0
v 0.7 0.9 -0
v 0.8 0.7 -0
v 0.8 0.8 -0
v 0.9 0.8 -0
v 0.9 0.9 -0
v -0.2 0.7 -0.1
v -0.2 0.8 -0.1
v -0.1 0.7 -0.1
v -0.1 0.8 -0.1
v 0.2 0.7 -0.1
v 0.2 0.8 -0.1
v 0.5 0.7 -0.1
v 0.5 0.8 -0.1
v 0 0.7 -0.2
v 0 0.8 -0.2
v 0.2 0.7 -0.2
v 0.2 0.8 -0.2
v -0.1 0.7 -0.3
v -0.1 0.8 -0.3
v 0 0.7 -0.3
v 0 0.8 -0.3
v 0.9 -0.8 0.8
v 1 -0.8 0.8
v 0.9 -0.8 0.7
v 1 -0.8 0.7
v 0.8 -0.7 0.7
v 0.9 -0.7 0.7
v 0.8 -0.7 0.6
v 0.9 -0.7 0.6
v 0.7 -0.6 0.7
v 0.8 -0.6 0.7
v 0.7 -0.6 0.6
v 0.8 -0.6 0.6
v 0.7 -0.5 0.6
v 0.8 -0.5 0.6
v 0.7 -0.5 0.5
v 0.8 -0.5 0.5
v 0.7 -0.3 0.5
v 0.8 -0.3 0.5
v 0.7 -0.3 0.4
v 0.8 -0.3 0.4
v 0.7 -0.1 0.9
v 0.8 -0.1 0.9
v 0.9 -0.1 0.9
v 0.5 -0.1 0.8
v 0.7 -0.1 0.8
v 0.8 -0.1 0.8
v 0.5 -0.1 0.7
v 0.7 -0.1 0.7
v 0.8 -0.1 0.7
v 0.9 -0.1 0.7
v 0.1 0 0.8
v 0.5 0 0.8
v 0.1 0 0.7
v 0.5 0 0.7
v 0.7 0 0.4
v 0.8 0 0.4
v 0.7 0 0.3
v 0.8 0 0.3
v 0.7 0.2 0.3
v 0.8 0.2 0.3
v 0.7 0.2 0.2
v 0.8 0.2 0.2
v 0.7 0.5 0.2
v 0.8 0.5 0.2
v 0.7 0.5 0.1
v 0.8 0.5 0.1
v 0.6 0.6 1
v 1 0.6 1
v 0.7 0.6 0.9
v 0.8 0.6 0.9
v 0.9 0.6 0.9
v 0 0.6 0.8
v 0.1 0.6 0.8
v 0.6 0.6 0.8
v 0.7 0.6 0.8
v 0.9 0.6 0.8
v 0 0.6 0.7
v 0.1 0.6 0.7
v 0.6 0.6 0.7
v 0.7 0.6 0.7
v 0.8 0.6 0.7
v 0.9 0.6 0.7
v 0.6 0.6 0.6
v 0.7 0.6 0.6
v 0.8 0.6 0.6
v 1 0.6 0.6
v 0.2 0.7 0.9
v 0.6 0.7 0.9
v 0.2 0.7 0.8
v 0.6 0.7 0.8
v -0.1 0.7 0.7
v 0 0.7 0.7
v 0.6 0.7 0.7
v -0.3 0.7 0.6
v -0.1 0.7 0.6
v 0.6 0.7 0.6
v 0.7 0.7 0.6
v 0.8 0.7 0.6
v 0.9 0.7 0.6
v -0.4 0.7 0.5
v -0.3 0.7 0.5
v -0.4 0.7 0.2
v -0.3 0.7 0.2
v -0.3 0.7 0.1
v -0.2 0.7 0.1
v 0.7 0.7 0.1
v 0.8 0.7 0.1
v 0.9 0.7 0.1
v 0.5 0.7 -0
v 0.7 0.7 -0
v 0.8 0.7 -0
v -0.2 0.7 -0.1
v -0.1 0.7 -0.1
v 0.2 0.7 -0.1
v 0.5 0.7 -0.1
v 0 0.7 -0.2
v 0.2 0.7 -0.2
v -0.1 0.7 -0.3
v 0 0.7 -0.3
v 0.8 0.8 0.1
v 0.9 0.8 0.1
v 0.8 0.8 -0
v 0.9 0.8 -0
v 0.6 0.9 0.9
v 0.7 0.9 0.9
v 0.9 0.9 0.9
v 0.6 0.9 0.8
v 0.6 0.9 0.7
v 0.7 0.9 0.7
v 0.9 0.9 0.7
v 0.7 0.9 0.6
v 0.8 0.9 0.6
v 0.9 0.9 0.6
v 0.9 -0.6 0.8
v 1 -0.6 0.8
v 0.8 -0.6 0.7
v 0.9 -0.6 0.7
v 1 -0.6 0.7
v 0.8 -0.6 0.6
v 0.9 -0.6 0.6
v 0.7 0.6 0.9
v 0.8 0.6 0.9
v 0.9 0.6 0.9
v 0.8 0.6 0.8
v 0.9 0.6 0.8
v 0.7 0.6 0.7
v 0.9 0.6 0.7
v 0.6 0.7 0.9
v 0.7 0.7 0.9
v 0.6 0.7 0.7
v 0.7 0.7 0.7
v 0.9 0.7 0.7
v 0.7 0.7 0.6
v 0.9 0.7 0.6
v -0.1 0.8 0.7
v 0 0.8 0.7
v 0.1 0.8 0.7
v 0.6 0.8 0.7
v -0.3 0.8 0.6
v -0.1 0.8 0.6
v 0.6 0.8 0.6
v 0.7 0.8 0.6
v -0.4 0.8 0.5
v -0.3 0.8 0.5
v -0.4 0.8 0.2
v -0.3 0.8 0.2
v -0.3 0.8 0.1
v -0.2 0.8 0.1
v 0.5 0.8 -0
v 0.7 0.8 -0
v -0.2 0.8 -0.1
v -0.1 0.8 -0.1
v 0.2 0.8 -0.1
v 0.5 0.8 -0.1
v 0 0.8 -0.2
v 0.2 0.8 -0.2
v -0.1 0.8 -0.3
v 0 0.8 -0.3
v 0.2 0.9 0.9
v 0.6 0.9 0.9
v 0 0.9 0.8
v 0.1 0.9 0.8
v 0.2 0.9 0.8
v 0.6 0.9 0.8
v 0 0.9 0.7
v 0.1 0.9 0.7
v 0.6 0.9 0.7
v 0.7 0.9 0.6
v 0.8 0.9 0.6
v 0.9 0.9 0.6
v 0.8 0.9 0.1
v 0.9 0.9 0.1
v 0.7 0.9 -0
v 0.9 0.9 -0
v 0.6 1 1
v 1 1 1
v 0.7 1 0.9
v 0.9 1 0.9
v 0.7 1 0.7
v 0.9 1 0.7
v 0.6 1 0.6
v 1 1 0.6

# faces
f 3/1/1 2/1/1 1/1/1
f 4/1/1 2/1/1 3/1/1
f 9/1/1 6/1/1 5/1/1
f 10/1/1 6/1/1 9/1/1
f 11/1/1 8/1/1 7/1/1
f 12/1/1 8/1/1 11/1/1
f 15/1/1 14/1/1 13/1/1
f 16/1/1 14/1/1 15/1/1
f 21/1/1 18/1/1 17/1/1
f 22/1/1 18/1/1 21/1/1
f 23/1/1 20/1/1 19/1/1
f 24/1/1 20/1/1 23/1/1
f 27/1/1 26/1/1 25/1/1
f 28/1/1 26/1/1 27/1/1
f 29/3/1 28/3/1 27/3/1
f 30/3/1 28/3/1 29/3/1
f 31/2/1 30/2/1 29/2/1
f 32/2/1 30/2/1 31/2/1
f 35/1/1 34/1/1 33/1/1
f 36/1/1 34/1/1 35/1/1
f 39/2/1 38/2/1 37/2/1
f 40/2/1 38/2/1 39/2/1
f 43/1/1 42/1/1 41/1/1
f 44/1/1 42/1/1 43/1/1
f 49/2/1 46/2/1 45/2/1
f 50/2/1 46/2/1 49/2/1
f 51/2/1 48/2/1 47/2/1
f 52/2/1 48/2/1 51/2/1
f 55/2/1 49/2/1 45/2/1
f 57/2/1 54/2/1 53/2/1
f 58/2/1 56/2/1 55/2/1
f 58/2/1 57/2/1 56/2/1
f 58/2/1 55/2/1 45/2/1
f 59/2/1 54/2/1 57/2/1
f 59/2/1 57/2/1 58/2/1
f 62/1/1 61/1/1 60/1/1
f 64/1/1 63/1/1 62/1/1
f 68/1/1 62/1/1 60/1/1
f 68/1/1 64/1/1 62/1/1
f 68/1/1 65/1/1 64/1/1
f 69/1/1 65/1/1 68/1/1
f 71/3/1 67/3/1 66/3/1
f 72/3/1 67/3/1 71/3/1
f 73/1/1 70/1/1 69/1/1
f 75/1/1 74/1/1 73/1/1
f 77/2/1 72/2/1 71/2/1
f 78/2/1 72/2/1 77/2/1
f 79/1/1 76/1/1 75/1/1
f 79/1/1 69/1/1 68/1/1
f 79/1/1 73/1/1 69/1/1
f 79/1/1 75/1/1 73/1/1
f 80/1/1 76/1/1 79/1/1
f 81/1/1 76/1/1 80/1/1
f 82/1/1 76/1/1 81/1/1
f 85/3/1 84/3/1 83/3/1
f 86/3/1 84/3/1 85/3/1
f 89/2/1 88/2/1 87/2/1
f 90/2/1 88/2/1 89/2/1
f 93/3/1 92/3/1 91/3/1
f 94/3/1 92/3/1 93/3/1
f 95/2/1 94/2/1 93/2/1
f 96/2/1 94/2/1 95/2/1
f 100/2/1 98/2/1 97/2/1
f 100/2/1 99/2/1 98/2/1
f 101/2/1 99/2/1 100/2/1
f 103/3/1 101/3/1 100/3/1
f 104/2/1 102/2/1 101/2/1
f 104/3/1 101/3/1 103/3/1
f 105/2/1 102/2/1 104/2/1
f 106/1/2 107/1/2 108/1/2
f 108/1/2 107/1/2 109/1/2
f 110/1/2 111/1/2 112/1/2
f 112/1/2 111/1/2 113/1/2
f 114/1/2 115/1/2 116/1/2
f 116/1/2 115/1/2 117/1/2
f 118/2/2 119/2/2 120/2/2
f 120/2/2 119/2/2 121/2/2
f 118/2/2 120/2/2 122/2/2
f 120/3/2 121/3/2 123/3/2
f 122/2/2 120/2/2 123/2/2
f 123/3/2 121/3/2 124/3/2
f 125/2/2 126/2/2 127/2/2
f 127/2/2 126/2/2 128/2/2
f 128/2/2 129/2/2 130/2/2
f 128/2/2 130/2/2 131/2/2
f 131/2/2 130/2/2 132/2/2
f 133/1/2 134/1/2 135/1/2
f 135/1/2 136/1/2 137/1/2
f 133/1/2 135/1/2 139/1/2
f 137/1/2 138/1/2 139/1/2
f 135/1/2 137/1/2 139/1/2
f 139/1/2 138/1/2 140/1/2
f 140/1/2 138/1/2 141/1/2
f 140/1/2 141/1/2 143/1/2
f 141/1/2 142/1/2 143/1/2
f 143/1/2 142/1/2 144/1/2
f 144/1/2 145/1/2 146/1/2
f 143/1/2 144/1/2 148/1/2
f 146/1/2 147/1/2 148/1/2
f 144/1/2 146/1/2 148/1/2
f 148/1/2 147/1/2 149/1/2
f 149/1/2 147/1/2 150/1/2
f 150/1/2 147/1/2 151/1/2
f 151/2/2 152/2/2 153/2/2
f 153/2/2 152/2/2 154/2/2
f 155/2/2 156/2/2 157/2/2
f 157/2/2 156/2/2 158/2/2
f 159/2/2 160/2/2 161/2/2
f 161/2/2 160/2/2 162/2/2
f 161/3/2 162/3/2 163/3/2
f 163/3/2 162/3/2 164/3/2
f 161/3/2 163/3/2 165/3/2
f 163/2/2 164/2/2 166/2/2
f 165/3/2 163/3/2 166/3/2
f 166/2/2 164/2/2 167/2/2
f 168/2/2 169/2/2 170/2/2
f 168/2/2 170/2/2 172/2/2
f 170/3/2 171/3/2 173/3/2
f 172/2/2 170/2/2 173/2/2
f 173/3/2 171/3/2 174/3/2
f 175/3/2 176/3/2 177/3/2
f 177/3/2 176/3/2 178/3/2
f 177/2/2 178/2/2 179/2/2
f 179/2/2 178/2/2 180/2/2
f 181/2/2 182/2/2 183/2/2
f 183/2/2 182/2/2 184/2/2
f 181/2/2 183/2/2 185/2/2
f 183/3/2 184/3/2 185/3/2
f 184/2/2 182/2/2 186/2/2
f 185/3/2 184/3/2 186/3/2
f 181/2/2 185/2/2 187/2/2
f 185/2/2 186/2/2 187/2/2
f 186/2/2 182/2/2 188/2/2
f 187/2/2 186/2/2 188/2/2
f 191/2/3 190/2/3 189/2/3
f 192/2/3 190/2/3 191/2/3
f 193/2/3 191/2/3 189/2/3
f 193/3/3 192/3/3 191/3/3
f 194/2/3 190/2/3 192/2/3
f 194/3/3 192/3/3 193/3/3
f 195/2/3 193/2/3 189/2/3
f 195/2/3 194/2/3 193/2/3
f 196/2/3 190/2/3 194/2/3
f 196/2/3 194/2/3 195/2/3
f 199/2/3 198/2/3 197/2/3
f 200/2/3 198/2/3 199/2/3
f 204/3/3 202/3/3 201/3/3
f 205/3/3 202/3/3 204/3/3
f 206/2/3 203/2/3 202/2/3
f 206/3/3 202/3/3 205/3/3
f 207/2/3 203/2/3 206/2/3
f 208/2/3 205/2/3 204/2/3
f 209/3/3 206/3/3 205/3/3
f 209/2/3 205/2/3 208/2/3
f 209/3/3 207/3/3 206/3/3
f 210/3/3 207/3/3 209/3/3
f 216/1/3 212/1/3 211/1/3
f 217/2/3 214/2/3 213/2/3
f 217/3/3 213/3/3 212/3/3
f 218/2/3 214/2/3 217/2/3
f 219/1/3 216/1/3 215/1/3
f 219/1/3 212/1/3 216/1/3
f 219/3/3 218/3/3 217/3/3
f 219/3/3 217/3/3 212/3/3
f 220/3/3 218/3/3 219/3/3
f 222/1/3 219/1/3 215/1/3
f 223/1/3 219/1/3 222/1/3
f 223/1/3 222/1/3 221/1/3
f 224/1/3 219/1/3 223/1/3
f 225/1/3 223/1/3 221/1/3
f 226/1/3 223/1/3 225/1/3
f 227/1/3 223/1/3 226/1/3
f 231/3/3 229/3/3 228/3/3
f 232/2/3 230/2/3 229/2/3
f 232/3/3 229/3/3 231/3/3
f 233/2/3 230/2/3 232/2/3
f 236/1/3 235/1/3 234/1/3
f 237/1/3 235/1/3 236/1/3
f 244/2/3 239/2/3 238/2/3
f 244/2/3 240/2/3 239/2/3
f 245/2/3 240/2/3 244/2/3
f 247/1/3 242/1/3 241/1/3
f 248/1/3 242/1/3 247/1/3
f 249/2/3 247/2/3 246/2/3
f 250/2/3 247/2/3 249/2/3
f 251/2/3 244/2/3 243/2/3
f 252/2/3 244/2/3 251/2/3
f 255/1/3 254/1/3 253/1/3
f 256/1/3 254/1/3 255/1/3
f 260/2/3 258/2/3 257/2/3
f 260/3/3 259/3/3 258/3/3
f 261/3/3 259/3/3 260/3/3
f 262/2/3 260/2/3 257/2/3
f 262/2/3 261/2/3 260/2/3
f 263/2/3 261/2/3 262/2/3
f 266/1/3 265/1/3 264/1/3
f 267/1/3 265/1/3 266/1/3
f 268/2/4 269/2/4 271/2/4
f 271/2/4 269/2/4 272/2/4
f 270/2/4 271/2/4 273/2/4
f 273/2/4 271/2/4 274/2/4
f 271/3/4 272/3/4 275/3/4
f 274/2/4 271/2/4 275/2/4
f 275/3/4 272/3/4 276/3/4
f 277/1/4 278/1/4 282/1/4
f 279/2/4 280/2/4 283/2/4
f 283/2/4 280/2/4 284/2/4
f 281/1/4 282/1/4 286/1/4
f 282/1/4 278/1/4 287/1/4
f 285/1/4 286/1/4 287/1/4
f 286/1/4 282/1/4 287/1/4
f 287/1/4 278/1/4 288/1/4
f 283/3/4 284/3/4 289/3/4
f 289/3/4 284/3/4 290/3/4
f 285/1/4 287/1/4 291/1/4
f 291/1/4 287/1/4 292/1/4
f 293/2/4 294/2/4 300/2/4
f 294/3/4 295/3/4 301/3/4
f 300/2/4 294/2/4 301/2/4
f 295/2/4 296/2/4 302/2/4
f 301/3/4 295/3/4 302/3/4
f 302/2/4 296/2/4 303/2/4
f 297/3/4 298/3/4 304/3/4
f 298/2/4 299/2/4 305/2/4
f 304/3/4 298/3/4 305/3/4
f 305/2/4 299/2/4 306/2/4
f 307/2/4 308/2/4 313/2/4
f 313/2/4 308/2/4 314/2/4
f 309/2/4 310/2/4 315/2/4
f 315/2/4 310/2/4 316/2/4
f 311/1/4 312/1/4 318/1/4
f 318/1/4 312/1/4 319/1/4
f 316/2/4 310/2/4 322/2/4
f 317/2/4 318/2/4 323/2/4
f 323/2/4 318/2/4 324/2/4
f 320/2/4 321/2/4 325/2/4
f 322/2/4 310/2/4 326/2/4
f 325/2/4 326/2/4 327/2/4
f 320/2/4 325/2/4 327/2/4
f 326/2/4 310/2/4 328/2/4
f 327/2/4 326/2/4 328/2/4
f 329/1/4 330/1/4 331/1/4
f 331/1/4 330/1/4 332/1/4
f 333/1/4 334/1/4 335/1/4
f 335/1/4 334/1/4 336/1/4
f 337/1/4 338/1/4 339/1/4
f 339/1/4 338/1/4 340/1/4
f 341/1/4 342/1/4 343/1/4
f 343/1/4 342/1/4 344/1/4
f 345/1/4 346/1/4 347/1/4
f 347/1/4 346/1/4 348/1/4
f 349/1/4 350/1/4 351/1/4
f 351/1/4 350/1/4 352/1/4
f 353/1/4 354/1/4 355/1/4
f 355/1/4 354/1/4 356/1/4
f 356/2/4 357/2/4 358/2/4
f 358/2/4 357/2/4 359/2/4
f 360/1/4 361/1/4 362/1/4
f 362/1/4 361/1/4 363/1/4
f 362/2/4 363/2/4 365/2/4
f 363/3/4 364/3/4 366/3/4
f 365/2/4 363/2/4 366/2/4
f 366/3/4 364/3/4 367/3/4
f 367/3/4 364/3/4 368/3/4
f 369/1/4 370/1/4 371/1/4
f 371/1/4 370/1/4 372/1/4
f 373/1/4 374/1/4 375/1/4
f 375/1/4 374/1/4 376/1/4
f 377/1/4 378/1/4 379/1/4
f 379/1/4 378/1/4 380/1/4
f 381/1/4 382/1/4 383/1/4
f 383/1/4 382/1/4 384/1/4
f 387/3/5 386/3/5 385/3/5
f 388/3/5 386/3/5 387/3/5
f 391/2/5 390/2/5 389/2/5
f 392/2/5 390/2/5 391/2/5
f 395/1/5 394/1/5 393/1/5
f 396/1/5 394/1/5 395/1/5
f 399/1/5 398/1/5 397/1/5
f 400/1/5 398/1/5 399/1/5
f 403/1/5 402/1/5 401/1/5
f 404/1/5 402/1/5 403/1/5
f 409/3/5 406/3/5 405/3/5
f 410/2/5 407/2/5 406/2/5
f 410/3/5 406/3/5 409/3/5
f 411/1/5 409/1/5 408/1/5
f 412/2/5 410/2/5 409/2/5
f 412/1/5 409/1/5 411/1/5
f 413/2/5 407/2/5 410/2/5
f 413/2/5 410/2/5 412/2/5
f 414/2/5 407/2/5 413/2/5
f 417/1/5 416/1/5 415/1/5
f 418/1/5 416/1/5 417/1/5
f 421/1/5 420/1/5 419/1/5
f 422/1/5 420/1/5 421/1/5
f 425/1/5 424/1/5 423/1/5
f 426/1/5 424/1/5 425/1/5
f 429/1/5 428/1/5 427/1/5
f 430/1/5 428/1/5 429/1/5
f 433/2/5 432/2/5 431/2/5
f 434/2/5 432/2/5 433/2/5
f 435/2/5 432/2/5 434/2/5
f 438/2/5 433/2/5 431/2/5
f 439/2/5 433/2/5 438/2/5
f 440/2/5 432/2/5 435/2/5
f 441/1/5 437/1/5 436/1/5
f 442/1/5 437/1/5 441/1/5
f 446/2/5 432/2/5 440/2/5
f 447/2/5 444/2/5 443/2/5
f 448/2/5 444/2/5 447/2/5
f 449/2/5 446/2/5 445/2/5
f 450/2/5 432/2/5 446/2/5
f 450/2/5 446/2/5 449/2/5
f 453/2/5 452/2/5 451/2/5
f 454/2/5 452/2/5 453/2/5
f 459/1/5 456/1/5 455/1/5
f 459/1/5 457/1/5 456/1/5
f 460/1/5 457/1/5 459/1/5
f 465/1/5 460/1/5 459/1/5
f 465/1/5 459/1/5 458/1/5
f 465/1/5 461/1/5 460/1/5
f 466/1/5 465/1/5 464/1/5
f 467/1/5 461/1/5 465/1/5
f 467/1/5 465/1/5 466/1/5
f 468/1/5 461/1/5 467/1/5
f 469/1/5 461/1/5 468/1/5
f 470/1/5 461/1/5 469/1/5
f 471/2/5 463/2/5 462/2/5
f 472/2/5 463/2/5 471/2/5
f 473/1/5 470/1/5 469/1/5
f 474/2/5 471/2/5 470/2/5
f 474/1/5 470/1/5 473/1/5
f 475/2/5 471/2/5 474/2/5
f 476/1/5 473/1/5 469/1/5
f 477/1/5 473/1/5 476/1/5
f 478/1/5 473/1/5 477/1/5
f 479/1/5 473/1/5 478/1/5
f 480/1/5 478/1/5 477/1/5
f 481/1/5 478/1/5 480/1/5
f 482/1/5 480/1/5 477/1/5
f 483/1/5 480/1/5 482/1/5
f 486/3/5 485/3/5 484/3/5
f 487/3/5 485/3/5 486/3/5
f 491/2/5 489/2/5 488/2/5
f 492/2/5 489/2/5 491/2/5
f 493/3/5 490/3/5 489/3/5
f 493/2/5 489/2/5 492/2/5
f 494/3/5 490/3/5 493/3/5
f 495/2/5 494/2/5 493/2/5
f 496/2/5 494/2/5 495/2/5
f 497/2/5 494/2/5 496/2/5
f 498/2/6 499/2/6 501/2/6
f 501/2/6 499/2/6 502/2/6
f 500/2/6 501/2/6 503/2/6
f 503/2/6 501/2/6 504/2/6
f 505/2/6 506/2/6 508/2/6
f 506/3/6 507/3/6 508/3/6
f 508/3/6 507/3/6 509/3/6
f 505/2/6 508/2/6 510/2/6
f 508/2/6 509/2/6 510/2/6
f 510/2/6 509/2/6 511/2/6
f 512/2/6 513/2/6 514/2/6
f 514/2/6 513/2/6 515/2/6
f 515/2/6 516/2/6 517/2/6
f 517/2/6 516/2/6 518/2/6
f 519/1/6 520/1/6 524/1/6
f 521/1/6 522/1/6 524/1/6
f 520/1/6 521/1/6 524/1/6
f 524/1/6 522/1/6 525/1/6
f 523/1/6 524/1/6 528/1/6
f 525/1/6 526/1/6 528/1/6
f 524/1/6 525/1/6 528/1/6
f 527/1/6 528/1/6 529/1/6
f 528/1/6 526/1/6 530/1/6
f 529/1/6 528/1/6 530/1/6
f 530/1/6 526/1/6 531/1/6
f 531/1/6 526/1/6 532/1/6
f 532/1/6 526/1/6 533/1/6
f 533/1/6 526/1/6 534/1/6
f 532/1/6 533/1/6 535/1/6
f 535/1/6 533/1/6 536/1/6
f 536/1/6 533/1/6 537/1/6
f 537/1/6 533/1/6 538/1/6
f 536/1/6 537/1/6 539/1/6
f 539/1/6 537/1/6 540/1/6
f 536/1/6 539/1/6 541/1/6
f 541/1/6 539/1/6 542/1/6
f 543/2/6 544/2/6 547/2/6
f 547/2/6 544/2/6 548/2/6
f 545/2/6 546/2/6 549/2/6
f 546/3/6 547/3/6 550/3/6
f 549/2/6 546/2/6 550/2/6
f 547/3/6 548/3/6 550/3/6
f 550/3/6 548/3/6 551/3/6
f 552/3/6 553/3/6 555/3/6
f 553/2/6 554/2/6 555/2/6
f 555/2/6 554/2/6 556/2/6
f 552/3/6 555/3/6 557/3/6
f 555/3/6 556/3/6 557/3/6
f 557/3/6 556/3/6 558/3/6
f 559/2/6 560/2/6 561/2/6
f 561/2/6 560/2/6 562/2/6
f 559/2/6 561/2/6 563/2/6
f 561/3/6 562/3/6 563/3/6
f 562/2/6 560/2/6 564/2/6
f 563/3/6 562/3/6 564/3/6
f 559/2/6 563/2/6 565/2/6
f 563/2/6 564/2/6 565/2/6
f 564/2/6 560/2/6 566/2/6
f 565/2/6 564/2/6 566/2/6
