# MagicaVoxel @ Ephtracy

# group
g box_2

# material
mtllib box_2.mtl
usemtl palette

# normals
vn -1 0 0
vn 1 0 0
vn 0 0 1
vn 0 0 -1
vn 0 -1 0
vn 0 1 0

# texcoords
vt 0.0488281 0.5
vt 0.189453 0.5
vt 0.193359 0.5

# verts
v -5 -5 5
v -5 -5 3
v -5 -5 -3
v -5 -5 -5
v -5 -4 4
v -5 -4 3
v -5 -4 2
v -5 -4 -3
v -5 -4 -4
v -5 -3 5
v -5 -3 4
v -5 -3 2
v -5 -3 1
v -5 -3 -4
v -5 -3 -5
v -5 -2 4
v -5 -2 3
v -5 -2 1
v -5 -2 -0
v -5 -1 3
v -5 -1 2
v -5 -1 -0
v -5 -1 -1
v -5 0 3
v -5 0 2
v -5 0 1
v -5 0 -1
v -5 0 -2
v -5 1 4
v -5 1 3
v -5 1 2
v -5 1 1
v -5 1 -0
v -5 1 -2
v -5 1 -4
v -5 2 5
v -5 2 4
v -5 2 1
v -5 2 -0
v -5 2 -2
v -5 2 -4
v -5 2 -5
v -5 5 5
v -5 5 -5
v -4 -4 2
v -4 -4 -3
v -4 -4 -4
v -4 -3 2
v -4 -3 1
v -4 -3 -4
v -4 -2 4
v -4 -2 3
v -4 -2 1
v -4 -2 -0
v -4 -1 3
v -4 -1 2
v -4 -1 -0
v -4 -1 -1
v -4 0 3
v -4 0 2
v -4 0 1
v -4 0 -1
v -4 0 -2
v -4 1 4
v -4 1 3
v -4 1 2
v -4 1 1
v -4 1 -0
v -4 1 -2
v -4 1 -4
v -4 2 1
v -4 2 -0
v -3 -2 5
v -3 -2 4
v -3 -1 5
v -3 -1 4
v -2 -1 5
v -2 -1 4
v -2 0 5
v -2 0 4
v -2 0 -4
v -2 0 -5
v -2 1 -4
v -2 1 -5
v -1 -1 -4
v -1 -1 -5
v -1 0 5
v -1 0 4
v -1 0 -4
v -1 0 -5
v -1 1 5
v -1 1 4
v -1 2 5
v -1 2 4
v 0 -2 -4
v 0 -2 -5
v 0 -1 -4
v 0 -1 -5
v 1 -3 -4
v 1 -3 -5
v 1 -2 -4
v 1 -2 -5
v 2 -4 -4
v 2 -4 -5
v 2 -3 -4
v 2 -3 -5
v 3 0 5
v 3 0 4
v 3 1 5
v 3 1 4
v 4 -4 5
v 4 -4 4
v 4 -3 5
v 4 -3 4
v 4 -2 -4
v 4 -2 -5
v 4 0 5
v 4 0 4
v 4 1 -4
v 4 1 -5
v -4 -4 -4
v -4 -4 -5
v -4 -3 -4
v -4 -3 -5
v -4 -2 5
v -4 -2 4
v -4 1 5
v -4 1 4
v -4 1 -4
v -4 1 -5
v -2 -4 5
v -2 -4 4
v -2 -3 5
v -2 -3 4
v -2 1 5
v -2 1 4
v -2 2 5
v -2 2 4
v -1 -3 5
v -1 -3 4
v -1 -2 5
v -1 -2 4
v 0 -2 5
v 0 -2 4
v 0 -1 5
v 0 -1 4
v 1 -1 5
v 1 -1 4
v 1 0 5
v 1 0 4
v 2 -1 -4
v 2 -1 -5
v 2 0 5
v 2 0 4
v 2 0 -4
v 2 0 -5
v 2 1 5
v 2 1 4
v 2 1 -4
v 2 1 -5
v 3 -2 -4
v 3 -2 -5
v 3 -1 -4
v 3 -1 -5
v 4 -4 4
v 4 -4 3
v 4 -4 -2
v 4 -3 4
v 4 -3 -1
v 4 -3 -2
v 4 -2 -0
v 4 -2 -1
v 4 -2 -3
v 4 -2 -4
v 4 -1 1
v 4 -1 -0
v 4 -1 -2
v 4 -1 -3
v 4 0 3
v 4 0 2
v 4 0 1
v 4 0 -1
v 4 0 -2
v 4 1 4
v 4 1 3
v 4 1 -0
v 4 1 -1
v 4 1 -3
v 4 2 -0
v 4 2 -1
v 4 2 -3
v 4 2 -4
v 5 -5 5
v 5 -5 3
v 5 -5 -3
v 5 -5 -5
v 5 -4 4
v 5 -4 3
v 5 -4 -2
v 5 -4 -3
v 5 -4 -4
v 5 -3 5
v 5 -3 4
v 5 -3 -1
v 5 -3 -2
v 5 -3 -4
v 5 -3 -5
v 5 -2 -0
v 5 -2 -1
v 5 -2 -3
v 5 -2 -4
v 5 -1 1
v 5 -1 -0
v 5 -1 -2
v 5 -1 -3
v 5 0 3
v 5 0 2
v 5 0 1
v 5 0 -1
v 5 0 -2
v 5 1 4
v 5 1 3
v 5 1 1
v 5 1 -0
v 5 1 -1
v 5 1 -3
v 5 2 5
v 5 2 4
v 5 2 2
v 5 2 1
v 5 2 -0
v 5 2 -1
v 5 2 -3
v 5 2 -4
v 5 2 -5
v 5 5 5
v 5 5 -5
v -5 -5 5
v -5 -3 5
v -5 2 5
v -5 5 5
v -4 -4 5
v -4 -3 5
v -4 -2 5
v -4 1 5
v -4 2 5
v -3 -5 5
v -3 -4 5
v -3 -2 5
v -3 -1 5
v -2 -4 5
v -2 -3 5
v -2 -1 5
v -2 0 5
v -2 1 5
v -2 2 5
v -1 -3 5
v -1 -2 5
v -1 0 5
v -1 1 5
v -1 2 5
v 0 -2 5
v 0 -1 5
v 0 1 5
v 0 2 5
v 1 -1 5
v 1 0 5
v 2 0 5
v 2 1 5
v 3 -5 5
v 3 -4 5
v 3 0 5
v 3 1 5
v 3 2 5
v 4 -4 5
v 4 -3 5
v 4 0 5
v 4 2 5
v 5 -5 5
v 5 -3 5
v 5 2 5
v 5 5 5
v -4 -2 4
v -4 1 4
v -3 -2 4
v -3 -1 4
v -2 -4 4
v -2 -3 4
v -2 -1 4
v -2 0 4
v -2 1 4
v -2 2 4
v -1 -3 4
v -1 -2 4
v -1 0 4
v -1 1 4
v -1 2 4
v 0 -2 4
v 0 -1 4
v 1 -1 4
v 1 0 4
v 2 0 4
v 2 1 4
v 3 -4 4
v 3 0 4
v 3 1 4
v 4 -4 4
v 4 -3 4
v 4 0 4
v -5 -2 3
v -5 -1 3
v -5 0 3
v -5 1 3
v -4 -2 3
v -4 -1 3
v -4 0 3
v -4 1 3
v 4 0 3
v 4 1 3
v 5 0 3
v 5 1 3
v -5 -1 2
v -5 0 2
v -4 -1 2
v -4 0 2
v -5 0 1
v -5 1 1
v -4 0 1
v -4 1 1
v 4 -1 1
v 4 0 1
v 5 -1 1
v 5 0 1
v -5 1 -0
v -5 2 -0
v -4 1 -0
v -4 2 -0
v 4 -2 -0
v 4 -1 -0
v 5 -2 -0
v 5 -1 -0
v 4 -3 -1
v 4 -2 -1
v 4 1 -1
v 4 2 -1
v 5 -3 -1
v 5 -2 -1
v 5 1 -1
v 5 2 -1
v 4 -4 -2
v 4 -3 -2
v 5 -4 -2
v 5 -3 -2
v -5 -4 -4
v -5 -3 -4
v -5 1 -4
v -4 -4 -4
v -4 -3 -4
v -4 1 -4
v 4 -2 -4
v 4 2 -4
v 5 -2 -4
v 5 2 -4
v -5 -2 4
v -5 1 4
v -4 -2 4
v -4 1 4
v 4 -4 4
v 4 -3 4
v 4 1 4
v 5 -4 4
v 5 -3 4
v 5 1 4
v -5 -4 2
v -5 -3 2
v -5 0 2
v -5 1 2
v -4 -4 2
v -4 -3 2
v -4 0 2
v -4 1 2
v -5 -3 1
v -5 -2 1
v -5 1 1
v -5 2 1
v -4 -3 1
v -4 -2 1
v -4 1 1
v -4 2 1
v -5 -2 -0
v -5 -1 -0
v -4 -2 -0
v -4 -1 -0
v 4 1 -0
v 4 2 -0
v 5 1 -0
v 5 2 -0
v -5 -1 -1
v -5 0 -1
v -4 -1 -1
v -4 0 -1
v 4 0 -1
v 4 1 -1
v 5 0 -1
v 5 1 -1
v -5 0 -2
v -5 1 -2
v -4 0 -2
v -4 1 -2
v 4 -1 -2
v 4 0 -2
v 5 -1 -2
v 5 0 -2
v 4 -2 -3
v 4 -1 -3
v 4 1 -3
v 4 2 -3
v 5 -2 -3
v 5 -1 -3
v 5 1 -3
v 5 2 -3
v -4 -4 -4
v -4 -3 -4
v -4 1 -4
v -3 -4 -4
v -2 0 -4
v -2 1 -4
v -1 -1 -4
v -1 0 -4
v 0 -2 -4
v 0 -1 -4
v 1 -3 -4
v 1 -2 -4
v 2 -4 -4
v 2 -3 -4
v 2 -1 -4
v 2 0 -4
v 2 1 -4
v 3 -2 -4
v 3 -1 -4
v 4 -2 -4
v 4 1 -4
v -5 -5 -5
v -5 -3 -5
v -5 2 -5
v -5 5 -5
v -4 -4 -5
v -4 -3 -5
v -4 1 -5
v -4 2 -5
v -3 -5 -5
v -3 -4 -5
v -2 0 -5
v -2 1 -5
v -2 2 -5
v -1 -1 -5
v -1 0 -5
v 0 -2 -5
v 0 -1 -5
v 0 1 -5
v 0 2 -5
v 1 -3 -5
v 1 -2 -5
v 1 0 -5
v 1 1 -5
v 2 -4 -5
v 2 -3 -5
v 2 -1 -5
v 2 0 -5
v 2 1 -5
v 3 -5 -5
v 3 -4 -5
v 3 -2 -5
v 3 -1 -5
v 4 -4 -5
v 4 -3 -5
v 4 -2 -5
v 4 1 -5
v 4 2 -5
v 5 -5 -5
v 5 -3 -5
v 5 2 -5
v 5 5 -5
v -5 -5 5
v -3 -5 5
v 3 -5 5
v 5 -5 5
v -4 -5 4
v -3 -5 4
v 3 -5 4
v 4 -5 4
v -5 -5 3
v -4 -5 3
v 4 -5 3
v 5 -5 3
v -5 -5 -3
v -4 -5 -3
v 4 -5 -3
v 5 -5 -3
v -4 -5 -4
v -3 -5 -4
v 3 -5 -4
v 4 -5 -4
v -5 -5 -5
v -3 -5 -5
v 3 -5 -5
v 5 -5 -5
v -2 -3 5
v -1 -3 5
v -2 -3 4
v -1 -3 4
v -5 -3 2
v -4 -3 2
v -5 -3 1
v -4 -3 1
v 4 -3 -1
v 5 -3 -1
v 4 -3 -2
v 5 -3 -2
v 1 -3 -4
v 2 -3 -4
v 1 -3 -5
v 2 -3 -5
v -1 -2 5
v 0 -2 5
v -1 -2 4
v 0 -2 4
v -5 -2 1
v -4 -2 1
v -5 -2 -0
v -4 -2 -0
v 4 -2 -0
v 5 -2 -0
v 4 -2 -1
v 5 -2 -1
v 0 -2 -4
v 1 -2 -4
v 0 -2 -5
v 1 -2 -5
v 0 -1 5
v 1 -1 5
v 0 -1 4
v 1 -1 4
v 4 -1 1
v 5 -1 1
v -5 -1 -0
v -4 -1 -0
v 4 -1 -0
v 5 -1 -0
v -5 -1 -1
v -4 -1 -1
v -1 -1 -4
v 0 -1 -4
v -1 -1 -5
v 0 -1 -5
v 1 0 5
v 2 0 5
v 3 0 5
v 4 0 5
v 1 0 4
v 2 0 4
v 3 0 4
v 4 0 4
v -5 0 3
v -4 0 3
v 4 0 3
v 5 0 3
v -5 0 2
v -4 0 2
v 4 0 2
v 5 0 2
v 4 0 1
v 5 0 1
v -5 0 -1
v -4 0 -1
v -5 0 -2
v -4 0 -2
v -2 0 -4
v -1 0 -4
v -2 0 -5
v -1 0 -5
v -4 1 5
v -2 1 5
v 2 1 5
v 3 1 5
v -5 1 4
v -4 1 4
v -2 1 4
v 2 1 4
v 3 1 4
v 4 1 4
v 5 1 4
v -5 1 3
v -4 1 3
v 4 1 3
v 5 1 3
v -5 1 2
v -4 1 2
v -5 1 1
v -4 1 1
v 4 1 -1
v 5 1 -1
v -5 1 -2
v -4 1 -2
v 4 1 -3
v 5 1 -3
v -5 1 -4
v -4 1 -4
v -2 1 -4
v 2 1 -4
v 4 1 -4
v -4 1 -5
v -2 1 -5
v 2 1 -5
v 4 1 -5
v -2 2 5
v -1 2 5
v -2 2 4
v -1 2 4
v -5 2 1
v -4 2 1
v -5 2 -0
v -4 2 -0
v 4 2 -0
v 5 2 -0
v 4 2 -1
v 5 2 -1
v 4 2 -3
v 5 2 -3
v 4 2 -4
v 5 2 -4
v -2 -4 5
v 3 -4 5
v 4 -4 5
v -2 -4 4
v 3 -4 4
v 4 -4 4
v 5 -4 4
v 4 -4 3
v 5 -4 3
v -5 -4 2
v -4 -4 2
v 4 -4 -2
v 5 -4 -2
v -5 -4 -3
v -4 -4 -3
v -5 -4 -4
v -4 -4 -4
v -3 -4 -4
v 2 -4 -4
v -4 -4 -5
v -3 -4 -5
v 2 -4 -5
v -4 -2 5
v -3 -2 5
v -5 -2 4
v -4 -2 4
v -3 -2 4
v -5 -2 3
v -4 -2 3
v 4 -2 -3
v 5 -2 -3
v 3 -2 -4
v 4 -2 -4
v 5 -2 -4
v 3 -2 -5
v 4 -2 -5
v -3 -1 5
v -2 -1 5
v -3 -1 4
v -2 -1 4
v -5 -1 3
v -4 -1 3
v -5 -1 2
v -4 -1 2
v 4 -1 -2
v 5 -1 -2
v 4 -1 -3
v 5 -1 -3
v 2 -1 -4
v 3 -1 -4
v 2 -1 -5
v 3 -1 -5
v -2 0 5
v -1 0 5
v -2 0 4
v -1 0 4
v -5 0 2
v -4 0 2
v -5 0 1
v -4 0 1
v 4 0 -1
v 5 0 -1
v 4 0 -2
v 5 0 -2
v -5 1 1
v -4 1 1
v -5 1 -0
v -4 1 -0
v 4 1 -0
v 5 1 -0
v 4 1 -1
v 5 1 -1
v -5 5 5
v 5 5 5
v -5 5 -5
v 5 5 -5

# faces
f 5/3/1 2/3/1 1/3/1
f 6/2/1 3/2/1 2/2/1
f 6/3/1 2/3/1 5/3/1
f 7/2/1 3/2/1 6/2/1
f 8/3/1 4/3/1 3/3/1
f 8/2/1 3/2/1 7/2/1
f 9/3/1 4/3/1 8/3/1
f 10/3/1 5/3/1 1/3/1
f 11/2/1 7/2/1 6/2/1
f 11/3/1 5/3/1 10/3/1
f 11/2/1 6/2/1 5/2/1
f 12/2/1 7/2/1 11/2/1
f 14/3/1 4/3/1 9/3/1
f 15/3/1 4/3/1 14/3/1
f 16/2/1 13/2/1 12/2/1
f 16/2/1 11/2/1 10/2/1
f 16/2/1 12/2/1 11/2/1
f 17/2/1 13/2/1 16/2/1
f 18/2/1 13/2/1 17/2/1
f 20/2/1 19/2/1 18/2/1
f 20/2/1 18/2/1 17/2/1
f 21/2/1 19/2/1 20/2/1
f 22/2/1 19/2/1 21/2/1
f 25/2/1 23/2/1 22/2/1
f 25/2/1 22/2/1 21/2/1
f 26/2/1 23/2/1 25/2/1
f 27/2/1 23/2/1 26/2/1
f 29/2/1 16/2/1 10/2/1
f 30/1/1 25/1/1 24/1/1
f 31/1/1 25/1/1 30/1/1
f 32/2/1 28/2/1 27/2/1
f 32/2/1 27/2/1 26/2/1
f 33/2/1 28/2/1 32/2/1
f 34/2/1 28/2/1 33/2/1
f 35/2/1 15/2/1 14/2/1
f 36/2/1 29/2/1 10/2/1
f 37/1/1 31/1/1 30/1/1
f 37/2/1 29/2/1 36/2/1
f 37/1/1 30/1/1 29/1/1
f 37/1/1 32/1/1 31/1/1
f 38/1/1 32/1/1 37/1/1
f 39/2/1 34/2/1 33/2/1
f 40/1/1 35/1/1 34/1/1
f 40/2/1 34/2/1 39/2/1
f 41/2/1 15/2/1 35/2/1
f 41/1/1 35/1/1 40/1/1
f 42/2/1 15/2/1 41/2/1
f 43/1/1 38/1/1 37/1/1
f 43/1/1 39/1/1 38/1/1
f 43/1/1 42/1/1 41/1/1
f 43/1/1 41/1/1 40/1/1
f 43/1/1 40/1/1 39/1/1
f 43/1/1 37/1/1 36/1/1
f 44/1/1 42/1/1 43/1/1
f 48/2/1 46/2/1 45/2/1
f 48/2/1 47/2/1 46/2/1
f 49/2/1 47/2/1 48/2/1
f 50/2/1 47/2/1 49/2/1
f 53/2/1 50/2/1 49/2/1
f 54/2/1 50/2/1 53/2/1
f 55/2/1 52/2/1 51/2/1
f 57/2/1 50/2/1 54/2/1
f 58/2/1 50/2/1 57/2/1
f 59/2/1 56/2/1 55/2/1
f 59/2/1 55/2/1 51/2/1
f 60/2/1 56/2/1 59/2/1
f 62/2/1 50/2/1 58/2/1
f 63/2/1 50/2/1 62/2/1
f 64/2/1 59/2/1 51/2/1
f 65/2/1 59/2/1 64/2/1
f 66/2/1 61/2/1 60/2/1
f 67/2/1 61/2/1 66/2/1
f 69/2/1 50/2/1 63/2/1
f 70/2/1 50/2/1 69/2/1
f 71/2/1 68/2/1 67/2/1
f 72/2/1 68/2/1 71/2/1
f 75/2/1 74/2/1 73/2/1
f 76/2/1 74/2/1 75/2/1
f 79/2/1 78/2/1 77/2/1
f 80/2/1 78/2/1 79/2/1
f 83/2/1 82/2/1 81/2/1
f 84/2/1 82/2/1 83/2/1
f 89/2/1 86/2/1 85/2/1
f 90/2/1 86/2/1 89/2/1
f 91/2/1 88/2/1 87/2/1
f 92/2/1 88/2/1 91/2/1
f 93/1/1 92/1/1 91/1/1
f 94/1/1 92/1/1 93/1/1
f 97/2/1 96/2/1 95/2/1
f 98/2/1 96/2/1 97/2/1
f 101/2/1 100/2/1 99/2/1
f 102/2/1 100/2/1 101/2/1
f 105/2/1 104/2/1 103/2/1
f 106/2/1 104/2/1 105/2/1
f 109/1/1 108/1/1 107/1/1
f 110/1/1 108/1/1 109/1/1
f 113/3/1 112/3/1 111/3/1
f 114/3/1 112/3/1 113/3/1
f 117/2/1 114/2/1 113/2/1
f 118/2/1 114/2/1 117/2/1
f 119/2/1 116/2/1 115/2/1
f 120/2/1 116/2/1 119/2/1
f 121/3/2 122/3/2 123/3/2
f 123/3/2 122/3/2 124/3/2
f 125/2/2 126/2/2 127/2/2
f 127/2/2 126/2/2 128/2/2
f 123/2/2 124/2/2 129/2/2
f 129/2/2 124/2/2 130/2/2
f 131/2/2 132/2/2 133/2/2
f 133/2/2 132/2/2 134/2/2
f 135/1/2 136/1/2 137/1/2
f 137/1/2 136/1/2 138/1/2
f 139/2/2 140/2/2 141/2/2
f 141/2/2 140/2/2 142/2/2
f 143/2/2 144/2/2 145/2/2
f 145/2/2 144/2/2 146/2/2
f 147/2/2 148/2/2 149/2/2
f 149/2/2 148/2/2 150/2/2
f 151/2/2 152/2/2 155/2/2
f 155/2/2 152/2/2 156/2/2
f 153/2/2 154/2/2 157/2/2
f 157/2/2 154/2/2 158/2/2
f 155/1/2 156/1/2 159/1/2
f 159/1/2 156/1/2 160/1/2
f 161/2/2 162/2/2 163/2/2
f 163/2/2 162/2/2 164/2/2
f 165/2/2 166/2/2 168/2/2
f 166/2/2 167/2/2 168/2/2
f 168/2/2 167/2/2 169/2/2
f 169/2/2 167/2/2 170/2/2
f 168/2/2 169/2/2 171/2/2
f 171/2/2 169/2/2 172/2/2
f 168/2/2 171/2/2 175/2/2
f 175/2/2 171/2/2 176/2/2
f 173/2/2 174/2/2 178/2/2
f 168/2/2 175/2/2 179/2/2
f 179/2/2 175/2/2 180/2/2
f 180/2/2 175/2/2 181/2/2
f 177/2/2 178/2/2 183/2/2
f 168/2/2 179/2/2 184/2/2
f 184/2/2 179/2/2 185/2/2
f 182/2/2 183/2/2 187/2/2
f 178/2/2 174/2/2 188/2/2
f 183/2/2 178/2/2 188/2/2
f 187/2/2 183/2/2 188/2/2
f 186/2/2 187/2/2 189/2/2
f 189/2/2 187/2/2 190/2/2
f 188/2/2 174/2/2 191/2/2
f 191/2/2 174/2/2 192/2/2
f 193/3/2 194/3/2 197/3/2
f 194/2/2 195/2/2 198/2/2
f 197/3/2 194/3/2 198/3/2
f 198/2/2 195/2/2 199/2/2
f 195/3/2 196/3/2 200/3/2
f 199/2/2 195/2/2 200/2/2
f 200/3/2 196/3/2 201/3/2
f 193/3/2 197/3/2 202/3/2
f 202/3/2 197/3/2 203/3/2
f 200/2/2 201/2/2 205/2/2
f 199/2/2 200/2/2 205/2/2
f 201/3/2 196/3/2 206/3/2
f 205/2/2 201/2/2 206/2/2
f 206/3/2 196/3/2 207/3/2
f 204/2/2 205/2/2 209/2/2
f 205/2/2 206/2/2 209/2/2
f 206/2/2 207/2/2 209/2/2
f 209/2/2 207/2/2 210/2/2
f 210/2/2 207/2/2 211/2/2
f 208/2/2 209/2/2 213/2/2
f 209/2/2 210/2/2 213/2/2
f 213/2/2 210/2/2 214/2/2
f 214/2/2 210/2/2 215/2/2
f 212/2/2 213/2/2 218/2/2
f 213/2/2 214/2/2 218/2/2
f 218/2/2 214/2/2 219/2/2
f 219/2/2 214/2/2 220/2/2
f 202/2/2 203/2/2 221/2/2
f 216/1/2 217/1/2 222/1/2
f 217/2/2 218/2/2 223/2/2
f 218/2/2 219/2/2 223/2/2
f 223/2/2 219/2/2 224/2/2
f 224/2/2 219/2/2 225/2/2
f 202/2/2 221/2/2 227/2/2
f 221/1/2 222/1/2 228/1/2
f 227/2/2 221/2/2 228/2/2
f 222/1/2 217/1/2 229/1/2
f 228/1/2 222/1/2 229/1/2
f 217/2/2 223/2/2 229/2/2
f 223/1/2 224/1/2 230/1/2
f 229/2/2 223/2/2 230/2/2
f 230/1/2 224/1/2 231/1/2
f 225/1/2 226/1/2 232/1/2
f 232/1/2 226/1/2 233/1/2
f 211/2/2 207/2/2 234/2/2
f 234/2/2 207/2/2 235/2/2
f 230/1/2 231/1/2 236/1/2
f 232/1/2 233/1/2 236/1/2
f 234/1/2 235/1/2 236/1/2
f 233/1/2 234/1/2 236/1/2
f 228/1/2 229/1/2 236/1/2
f 231/1/2 232/1/2 236/1/2
f 229/1/2 230/1/2 236/1/2
f 227/1/2 228/1/2 236/1/2
f 236/1/2 235/1/2 237/1/2
f 242/3/3 239/3/3 238/3/3
f 243/2/3 240/2/3 239/2/3
f 243/3/3 239/3/3 242/3/3
f 244/2/3 240/2/3 243/2/3
f 245/2/3 240/2/3 244/2/3
f 246/1/3 241/1/3 240/1/3
f 246/2/3 240/2/3 245/2/3
f 247/3/3 242/3/3 238/3/3
f 248/2/3 243/2/3 242/2/3
f 248/3/3 242/3/3 247/3/3
f 248/2/3 244/2/3 243/2/3
f 249/2/3 244/2/3 248/2/3
f 251/2/3 248/2/3 247/2/3
f 251/2/3 250/2/3 249/2/3
f 251/2/3 249/2/3 248/2/3
f 252/2/3 250/2/3 251/2/3
f 253/2/3 250/2/3 252/2/3
f 255/1/3 246/1/3 245/1/3
f 256/1/3 241/1/3 246/1/3
f 256/1/3 246/1/3 255/1/3
f 257/2/3 254/2/3 253/2/3
f 257/2/3 253/2/3 252/2/3
f 258/2/3 254/2/3 257/2/3
f 259/2/3 254/2/3 258/2/3
f 261/1/3 241/1/3 256/1/3
f 262/2/3 260/2/3 259/2/3
f 262/2/3 259/2/3 258/2/3
f 263/2/3 260/2/3 262/2/3
f 264/1/3 261/1/3 260/1/3
f 264/2/3 260/2/3 263/2/3
f 265/1/3 241/1/3 261/1/3
f 265/1/3 261/1/3 264/1/3
f 266/2/3 264/2/3 263/2/3
f 266/2/3 265/2/3 264/2/3
f 267/2/3 265/2/3 266/2/3
f 268/2/3 265/2/3 267/2/3
f 269/2/3 265/2/3 268/2/3
f 270/2/3 251/2/3 247/2/3
f 271/2/3 251/2/3 270/2/3
f 273/2/3 265/2/3 269/2/3
f 274/1/3 241/1/3 265/1/3
f 274/2/3 265/2/3 273/2/3
f 275/3/3 271/3/3 270/3/3
f 277/1/3 273/1/3 272/1/3
f 277/1/3 274/1/3 273/1/3
f 278/1/3 241/1/3 274/1/3
f 278/1/3 274/1/3 277/1/3
f 279/3/3 276/3/3 275/3/3
f 279/3/3 275/3/3 270/3/3
f 280/2/3 277/2/3 276/2/3
f 280/3/3 276/3/3 279/3/3
f 280/2/3 278/2/3 277/2/3
f 281/1/3 241/1/3 278/1/3
f 281/2/3 278/2/3 280/2/3
f 282/1/3 241/1/3 281/1/3
f 285/2/3 284/2/3 283/2/3
f 286/2/3 284/2/3 285/2/3
f 289/2/3 284/2/3 286/2/3
f 290/2/3 284/2/3 289/2/3
f 291/2/3 284/2/3 290/2/3
f 293/2/3 288/2/3 287/2/3
f 295/2/3 292/2/3 291/2/3
f 295/2/3 291/2/3 290/2/3
f 296/2/3 292/2/3 295/2/3
f 297/2/3 292/2/3 296/2/3
f 298/2/3 294/2/3 293/2/3
f 300/2/3 299/2/3 298/2/3
f 302/2/3 301/2/3 300/2/3
f 304/2/3 293/2/3 287/2/3
f 304/2/3 303/2/3 302/2/3
f 304/2/3 302/2/3 300/2/3
f 304/2/3 300/2/3 298/2/3
f 304/2/3 298/2/3 293/2/3
f 305/2/3 303/2/3 304/2/3
f 306/2/3 303/2/3 305/2/3
f 307/2/3 305/2/3 304/2/3
f 308/2/3 305/2/3 307/2/3
f 309/2/3 305/2/3 308/2/3
f 314/2/3 311/2/3 310/2/3
f 315/2/3 311/2/3 314/2/3
f 316/1/3 313/1/3 312/1/3
f 317/1/3 313/1/3 316/1/3
f 320/1/3 319/1/3 318/1/3
f 321/1/3 319/1/3 320/1/3
f 324/2/3 323/2/3 322/2/3
f 325/2/3 323/2/3 324/2/3
f 328/2/3 327/2/3 326/2/3
f 329/2/3 327/2/3 328/2/3
f 332/2/3 331/2/3 330/2/3
f 333/2/3 331/2/3 332/2/3
f 336/2/3 335/2/3 334/2/3
f 337/2/3 335/2/3 336/2/3
f 340/2/3 339/2/3 338/2/3
f 341/2/3 339/2/3 340/2/3
f 346/2/3 343/2/3 342/2/3
f 347/2/3 343/2/3 346/2/3
f 348/1/3 345/1/3 344/1/3
f 349/1/3 345/1/3 348/1/3
f 352/2/3 351/2/3 350/2/3
f 353/2/3 351/2/3 352/2/3
f 357/3/3 355/3/3 354/3/3
f 358/2/3 356/2/3 355/2/3
f 358/3/3 355/3/3 357/3/3
f 359/2/3 356/2/3 358/2/3
f 362/2/3 361/2/3 360/2/3
f 363/2/3 361/2/3 362/2/3
f 364/2/4 365/2/4 366/2/4
f 366/2/4 365/2/4 367/2/4
f 368/3/4 369/3/4 371/3/4
f 369/2/4 370/2/4 372/2/4
f 371/3/4 369/3/4 372/3/4
f 372/2/4 370/2/4 373/2/4
f 374/2/4 375/2/4 378/2/4
f 378/2/4 375/2/4 379/2/4
f 376/1/4 377/1/4 380/1/4
f 380/1/4 377/1/4 381/1/4
f 382/2/4 383/2/4 386/2/4
f 386/2/4 383/2/4 387/2/4
f 384/1/4 385/1/4 388/1/4
f 388/1/4 385/1/4 389/1/4
f 390/2/4 391/2/4 392/2/4
f 392/2/4 391/2/4 393/2/4
f 394/1/4 395/1/4 396/1/4
f 396/1/4 395/1/4 397/1/4
f 398/2/4 399/2/4 400/2/4
f 400/2/4 399/2/4 401/2/4
f 402/2/4 403/2/4 404/2/4
f 404/2/4 403/2/4 405/2/4
f 406/2/4 407/2/4 408/2/4
f 408/2/4 407/2/4 409/2/4
f 410/2/4 411/2/4 412/2/4
f 412/2/4 411/2/4 413/2/4
f 414/2/4 415/2/4 418/2/4
f 418/2/4 415/2/4 419/2/4
f 416/1/4 417/1/4 420/1/4
f 420/1/4 417/1/4 421/1/4
f 422/2/4 423/2/4 425/2/4
f 423/2/4 424/2/4 425/2/4
f 425/2/4 424/2/4 426/2/4
f 426/2/4 424/2/4 427/2/4
f 425/2/4 426/2/4 428/2/4
f 428/2/4 426/2/4 429/2/4
f 425/2/4 428/2/4 430/2/4
f 430/2/4 428/2/4 431/2/4
f 425/2/4 430/2/4 432/2/4
f 432/2/4 430/2/4 433/2/4
f 425/2/4 432/2/4 434/2/4
f 434/2/4 432/2/4 435/2/4
f 436/2/4 437/2/4 440/2/4
f 437/2/4 438/2/4 440/2/4
f 439/2/4 440/2/4 441/2/4
f 440/2/4 438/2/4 442/2/4
f 441/2/4 440/2/4 442/2/4
f 443/3/4 444/3/4 447/3/4
f 444/2/4 445/2/4 448/2/4
f 447/3/4 444/3/4 448/3/4
f 448/2/4 445/2/4 449/2/4
f 445/1/4 446/1/4 450/1/4
f 449/2/4 445/2/4 450/2/4
f 443/3/4 447/3/4 451/3/4
f 451/3/4 447/3/4 452/3/4
f 449/1/4 450/1/4 454/1/4
f 450/1/4 446/1/4 455/1/4
f 454/1/4 450/1/4 455/1/4
f 453/2/4 454/2/4 457/2/4
f 454/2/4 455/2/4 457/2/4
f 456/2/4 457/2/4 459/2/4
f 457/2/4 455/2/4 460/2/4
f 459/2/4 457/2/4 460/2/4
f 455/1/4 446/1/4 461/1/4
f 460/2/4 455/2/4 461/2/4
f 459/2/4 460/2/4 463/2/4
f 458/2/4 459/2/4 463/2/4
f 463/2/4 460/2/4 464/2/4
f 460/1/4 461/1/4 465/1/4
f 464/2/4 460/2/4 465/2/4
f 451/2/4 452/2/4 466/2/4
f 463/2/4 464/2/4 467/2/4
f 462/2/4 463/2/4 467/2/4
f 467/2/4 464/2/4 468/2/4
f 464/1/4 465/1/4 469/1/4
f 468/2/4 464/2/4 469/2/4
f 465/1/4 461/1/4 470/1/4
f 469/1/4 465/1/4 470/1/4
f 451/2/4 466/2/4 471/2/4
f 466/2/4 467/2/4 471/2/4
f 467/2/4 468/2/4 471/2/4
f 471/2/4 468/2/4 472/2/4
f 472/2/4 468/2/4 473/2/4
f 473/2/4 468/2/4 474/2/4
f 471/3/4 472/3/4 475/3/4
f 472/2/4 473/2/4 475/2/4
f 475/2/4 473/2/4 476/2/4
f 476/2/4 473/2/4 477/2/4
f 470/1/4 461/1/4 478/1/4
f 461/1/4 446/1/4 479/1/4
f 478/1/4 461/1/4 479/1/4
f 475/3/4 476/3/4 480/3/4
f 471/3/4 475/3/4 480/3/4
f 477/2/4 478/2/4 481/2/4
f 480/3/4 476/3/4 481/3/4
f 476/2/4 477/2/4 481/2/4
f 478/2/4 479/2/4 481/2/4
f 479/1/4 446/1/4 482/1/4
f 481/2/4 479/2/4 482/2/4
f 482/1/4 446/1/4 483/1/4
f 488/3/5 485/3/5 484/3/5
f 489/2/5 486/2/5 485/2/5
f 489/3/5 485/3/5 488/3/5
f 490/3/5 487/3/5 486/3/5
f 490/2/5 486/2/5 489/2/5
f 491/3/5 487/3/5 490/3/5
f 492/3/5 488/3/5 484/3/5
f 493/2/5 489/2/5 488/2/5
f 493/3/5 488/3/5 492/3/5
f 493/2/5 490/2/5 489/2/5
f 493/2/5 491/2/5 490/2/5
f 494/3/5 487/3/5 491/3/5
f 494/2/5 491/2/5 493/2/5
f 495/3/5 487/3/5 494/3/5
f 496/2/5 493/2/5 492/2/5
f 496/2/5 494/2/5 493/2/5
f 496/2/5 495/2/5 494/2/5
f 497/2/5 495/2/5 496/2/5
f 498/2/5 495/2/5 497/2/5
f 499/2/5 495/2/5 498/2/5
f 500/3/5 497/3/5 496/3/5
f 500/2/5 498/2/5 497/2/5
f 501/2/5 498/2/5 500/2/5
f 502/2/5 498/2/5 501/2/5
f 503/3/5 499/3/5 498/3/5
f 503/2/5 498/2/5 502/2/5
f 504/3/5 500/3/5 496/3/5
f 504/3/5 501/3/5 500/3/5
f 505/2/5 502/2/5 501/2/5
f 505/3/5 501/3/5 504/3/5
f 506/3/5 503/3/5 502/3/5
f 506/2/5 502/2/5 505/2/5
f 507/3/5 499/3/5 503/3/5
f 507/3/5 503/3/5 506/3/5
f 510/2/5 509/2/5 508/2/5
f 511/2/5 509/2/5 510/2/5
f 514/2/5 513/2/5 512/2/5
f 515/2/5 513/2/5 514/2/5
f 518/2/5 517/2/5 516/2/5
f 519/2/5 517/2/5 518/2/5
f 522/2/5 521/2/5 520/2/5
f 523/2/5 521/2/5 522/2/5
f 526/2/5 525/2/5 524/2/5
f 527/2/5 525/2/5 526/2/5
f 530/2/5 529/2/5 528/2/5
f 531/2/5 529/2/5 530/2/5
f 534/2/5 533/2/5 532/2/5
f 535/2/5 533/2/5 534/2/5
f 538/2/5 537/2/5 536/2/5
f 539/2/5 537/2/5 538/2/5
f 542/2/5 541/2/5 540/2/5
f 543/2/5 541/2/5 542/2/5
f 548/2/5 545/2/5 544/2/5
f 549/2/5 545/2/5 548/2/5
f 550/2/5 547/2/5 546/2/5
f 551/2/5 547/2/5 550/2/5
f 554/2/5 553/2/5 552/2/5
f 555/2/5 553/2/5 554/2/5
f 560/2/5 557/2/5 556/2/5
f 561/2/5 557/2/5 560/2/5
f 562/1/5 559/1/5 558/1/5
f 563/1/5 559/1/5 562/1/5
f 568/1/5 565/1/5 564/1/5
f 569/1/5 565/1/5 568/1/5
f 570/1/5 567/1/5 566/1/5
f 571/1/5 567/1/5 570/1/5
f 572/2/5 571/2/5 570/2/5
f 573/2/5 571/2/5 572/2/5
f 576/2/5 575/2/5 574/2/5
f 577/2/5 575/2/5 576/2/5
f 580/2/5 579/2/5 578/2/5
f 581/2/5 579/2/5 580/2/5
f 587/1/5 583/1/5 582/1/5
f 588/1/5 583/1/5 587/1/5
f 589/2/5 585/2/5 584/2/5
f 590/2/5 585/2/5 589/2/5
f 593/1/5 587/1/5 586/1/5
f 594/1/5 587/1/5 593/1/5
f 595/1/5 592/1/5 591/1/5
f 596/1/5 592/1/5 595/1/5
f 599/1/5 598/1/5 597/1/5
f 600/1/5 598/1/5 599/1/5
f 605/1/5 602/1/5 601/1/5
f 606/1/5 602/1/5 605/1/5
f 607/1/5 604/1/5 603/1/5
f 608/1/5 604/1/5 607/1/5
f 612/1/5 609/1/5 608/1/5
f 613/1/5 609/1/5 612/1/5
f 614/1/5 611/1/5 610/1/5
f 615/1/5 611/1/5 614/1/5
f 618/1/5 617/1/5 616/1/5
f 619/1/5 617/1/5 618/1/5
f 622/1/5 621/1/5 620/1/5
f 623/1/5 621/1/5 622/1/5
f 626/1/5 625/1/5 624/1/5
f 627/1/5 625/1/5 626/1/5
f 630/1/5 629/1/5 628/1/5
f 631/1/5 629/1/5 630/1/5
f 632/2/6 633/2/6 635/2/6
f 633/3/6 634/3/6 636/3/6
f 635/2/6 633/2/6 636/2/6
f 636/3/6 634/3/6 637/3/6
f 637/3/6 638/3/6 639/3/6
f 639/3/6 638/3/6 640/3/6
f 639/2/6 640/2/6 643/2/6
f 643/2/6 640/2/6 644/2/6
f 641/2/6 642/2/6 645/2/6
f 645/2/6 642/2/6 646/2/6
f 645/3/6 646/3/6 647/3/6
f 647/3/6 646/3/6 648/3/6
f 648/3/6 649/3/6 651/3/6
f 649/2/6 650/2/6 652/2/6
f 651/3/6 649/3/6 652/3/6
f 652/2/6 650/2/6 653/2/6
f 654/2/6 655/2/6 657/2/6
f 657/2/6 655/2/6 658/2/6
f 656/2/6 657/2/6 659/2/6
f 659/2/6 657/2/6 660/2/6
f 661/2/6 662/2/6 664/2/6
f 664/2/6 662/2/6 665/2/6
f 663/2/6 664/2/6 666/2/6
f 666/2/6 664/2/6 667/2/6
f 668/2/6 669/2/6 670/2/6
f 670/2/6 669/2/6 671/2/6
f 672/2/6 673/2/6 674/2/6
f 674/2/6 673/2/6 675/2/6
f 676/2/6 677/2/6 678/2/6
f 678/2/6 677/2/6 679/2/6
f 680/2/6 681/2/6 682/2/6
f 682/2/6 681/2/6 683/2/6
f 684/2/6 685/2/6 686/2/6
f 686/2/6 685/2/6 687/2/6
f 688/2/6 689/2/6 690/2/6
f 690/2/6 689/2/6 691/2/6
f 692/2/6 693/2/6 694/2/6
f 694/2/6 693/2/6 695/2/6
f 696/2/6 697/2/6 698/2/6
f 698/2/6 697/2/6 699/2/6
f 700/2/6 701/2/6 702/2/6
f 702/2/6 701/2/6 703/2/6
f 704/1/6 705/1/6 706/1/6
f 706/1/6 705/1/6 707/1/6
