# MagicaVoxel @ Ephtracy

# group
g FuctionObject_Item_Story

# material
mtllib FuctionObject_Item_Story.mtl
usemtl palette

# normals
vn -1 0 0
vn 1 0 0
vn 0 0 1
vn 0 0 -1
vn 0 -1 0
vn 0 1 0

# texcoords
vt 0.380859 0.5
vt 0.388672 0.5
vt 0.396484 0.5

# verts
v -3.5 -4 1
v -3.5 -4 -1
v -3.5 -3 1
v -3.5 -3 -1
v -3.5 -2 1
v -3.5 -2 -1
v -3.5 -1 1
v -3.5 -1 -1
v -3.5 0 1
v -3.5 0 -1
v -3.5 1 1
v -3.5 1 -1
v -3.5 2 1
v -3.5 2 -1
v -3.5 3 1
v -3.5 3 -1
v -3.5 4 1
v -3.5 4 -1
v 3.5 -4 1
v 3.5 -4 -1
v 3.5 4 1
v 3.5 4 -1
v -3.5 -4 1
v -3.5 -3 1
v -3.5 -2 1
v -3.5 -1 1
v -3.5 0 1
v -3.5 1 1
v -3.5 2 1
v -3.5 3 1
v -3.5 4 1
v -2.5 -3 1
v -2.5 -2 1
v -2.5 -1 1
v -2.5 0 1
v -2.5 1 1
v -2.5 2 1
v -2.5 3 1
v -2.5 4 1
v -1.5 -1 1
v -1.5 3 1
v -0.5 -1 1
v -0.5 1 1
v -0.5 2 1
v -0.5 3 1
v 0.5 0 1
v 0.5 1 1
v 0.5 2 1
v 1.5 -1 1
v 1.5 0 1
v 1.5 1 1
v 1.5 3 1
v 2.5 -1 1
v 2.5 3 1
v 3.5 -4 1
v 3.5 4 1
v -3.5 -4 -1
v -3.5 -3 -1
v -3.5 -2 -1
v -3.5 -1 -1
v -3.5 0 -1
v -3.5 1 -1
v -3.5 2 -1
v -3.5 3 -1
v -3.5 4 -1
v -2.5 -3 -1
v -2.5 -2 -1
v -2.5 -1 -1
v -2.5 0 -1
v -2.5 1 -1
v -2.5 2 -1
v -2.5 3 -1
v -2.5 4 -1
v -1.5 -1 -1
v -1.5 3 -1
v -0.5 -1 -1
v -0.5 1 -1
v -0.5 2 -1
v -0.5 3 -1
v 0.5 0 -1
v 0.5 1 -1
v 0.5 2 -1
v 1.5 -1 -1
v 1.5 0 -1
v 1.5 1 -1
v 1.5 3 -1
v 2.5 -1 -1
v 2.5 3 -1
v 3.5 -4 -1
v 3.5 4 -1
v -3.5 -4 1
v 3.5 -4 1
v -3.5 -4 -1
v 3.5 -4 -1
v -3.5 4 1
v -2.5 4 1
v 3.5 4 1
v -3.5 4 -1
v -2.5 4 -1
v 3.5 4 -1

# faces
f 3/2/1 2/2/1 1/2/1
f 4/2/1 2/2/1 3/2/1
f 5/3/1 4/3/1 3/3/1
f 6/3/1 4/3/1 5/3/1
f 7/2/1 6/2/1 5/2/1
f 8/2/1 6/2/1 7/2/1
f 9/3/1 8/3/1 7/3/1
f 10/3/1 8/3/1 9/3/1
f 11/2/1 10/2/1 9/2/1
f 12/2/1 10/2/1 11/2/1
f 13/3/1 12/3/1 11/3/1
f 14/3/1 12/3/1 13/3/1
f 15/2/1 14/2/1 13/2/1
f 16/2/1 14/2/1 15/2/1
f 17/3/1 16/3/1 15/3/1
f 18/3/1 16/3/1 17/3/1
f 19/2/2 20/2/2 21/2/2
f 21/2/2 20/2/2 22/2/2
f 32/2/3 24/2/3 23/2/3
f 32/3/3 25/3/3 24/3/3
f 33/2/3 26/2/3 25/2/3
f 33/3/3 25/3/3 32/3/3
f 34/3/3 27/3/3 26/3/3
f 34/2/3 26/2/3 33/2/3
f 35/2/3 28/2/3 27/2/3
f 35/3/3 27/3/3 34/3/3
f 36/3/3 29/3/3 28/3/3
f 36/2/3 28/2/3 35/2/3
f 37/2/3 30/2/3 29/2/3
f 37/3/3 29/3/3 36/3/3
f 38/3/3 31/3/3 30/3/3
f 38/2/3 30/2/3 37/2/3
f 39/3/3 31/3/3 38/3/3
f 40/2/3 37/2/3 36/2/3
f 40/2/3 36/2/3 35/2/3
f 40/2/3 39/2/3 38/2/3
f 40/2/3 38/2/3 37/2/3
f 40/2/3 35/2/3 34/2/3
f 40/2/3 34/2/3 33/2/3
f 40/2/3 33/2/3 32/2/3
f 41/2/3 39/2/3 40/2/3
f 42/2/3 40/2/3 32/2/3
f 42/3/3 41/3/3 40/3/3
f 43/3/3 41/3/3 42/3/3
f 44/3/3 41/3/3 43/3/3
f 45/2/3 39/2/3 41/2/3
f 45/3/3 41/3/3 44/3/3
f 46/2/3 43/2/3 42/2/3
f 47/3/3 44/3/3 43/3/3
f 47/2/3 43/2/3 46/2/3
f 48/2/3 45/2/3 44/2/3
f 48/3/3 44/3/3 47/3/3
f 49/2/3 46/2/3 42/2/3
f 49/2/3 42/2/3 32/2/3
f 50/3/3 47/3/3 46/3/3
f 50/2/3 46/2/3 49/2/3
f 51/2/3 48/2/3 47/2/3
f 51/3/3 47/3/3 50/3/3
f 52/2/3 45/2/3 48/2/3
f 52/2/3 48/2/3 51/2/3
f 52/2/3 39/2/3 45/2/3
f 53/3/3 51/3/3 50/3/3
f 53/3/3 50/3/3 49/3/3
f 53/3/3 52/3/3 51/3/3
f 53/2/3 49/2/3 32/2/3
f 54/2/3 39/2/3 52/2/3
f 54/3/3 52/3/3 53/3/3
f 55/2/3 32/2/3 23/2/3
f 55/2/3 53/2/3 32/2/3
f 55/2/3 54/2/3 53/2/3
f 56/2/3 39/2/3 54/2/3
f 56/2/3 54/2/3 55/2/3
f 57/2/4 58/2/4 66/2/4
f 58/3/4 59/3/4 66/3/4
f 59/2/4 60/2/4 67/2/4
f 66/3/4 59/3/4 67/3/4
f 60/3/4 61/3/4 68/3/4
f 67/2/4 60/2/4 68/2/4
f 61/2/4 62/2/4 69/2/4
f 68/3/4 61/3/4 69/3/4
f 62/3/4 63/3/4 70/3/4
f 69/2/4 62/2/4 70/2/4
f 63/2/4 64/2/4 71/2/4
f 70/3/4 63/3/4 71/3/4
f 64/3/4 65/3/4 72/3/4
f 71/2/4 64/2/4 72/2/4
f 72/3/4 65/3/4 73/3/4
f 70/2/4 71/2/4 74/2/4
f 69/2/4 70/2/4 74/2/4
f 72/2/4 73/2/4 74/2/4
f 71/2/4 72/2/4 74/2/4
f 68/2/4 69/2/4 74/2/4
f 67/2/4 68/2/4 74/2/4
f 66/2/4 67/2/4 74/2/4
f 74/2/4 73/2/4 75/2/4
f 66/2/4 74/2/4 76/2/4
f 74/1/4 75/1/4 76/1/4
f 76/1/4 75/1/4 77/1/4
f 77/1/4 75/1/4 78/1/4
f 75/2/4 73/2/4 79/2/4
f 78/1/4 75/1/4 79/1/4
f 76/2/4 77/2/4 80/2/4
f 77/1/4 78/1/4 81/1/4
f 80/2/4 77/2/4 81/2/4
f 78/2/4 79/2/4 82/2/4
f 81/1/4 78/1/4 82/1/4
f 76/2/4 80/2/4 83/2/4
f 66/2/4 76/2/4 83/2/4
f 80/1/4 81/1/4 84/1/4
f 83/2/4 80/2/4 84/2/4
f 81/2/4 82/2/4 85/2/4
f 84/1/4 81/1/4 85/1/4
f 82/2/4 79/2/4 86/2/4
f 85/2/4 82/2/4 86/2/4
f 79/2/4 73/2/4 86/2/4
f 84/1/4 85/1/4 87/1/4
f 83/1/4 84/1/4 87/1/4
f 85/1/4 86/1/4 87/1/4
f 66/2/4 83/2/4 87/2/4
f 86/2/4 73/2/4 88/2/4
f 87/1/4 86/1/4 88/1/4
f 57/2/4 66/2/4 89/2/4
f 66/2/4 87/2/4 89/2/4
f 87/2/4 88/2/4 89/2/4
f 88/2/4 73/2/4 90/2/4
f 89/2/4 88/2/4 90/2/4
f 93/2/5 92/2/5 91/2/5
f 94/2/5 92/2/5 93/2/5
f 95/3/6 96/3/6 98/3/6
f 96/2/6 97/2/6 99/2/6
f 98/3/6 96/3/6 99/3/6
f 99/2/6 97/2/6 100/2/6
