# MagicaVoxel @ Ephtracy

# group
g Terrain_Snow_Tile-0

# material
mtllib Terrain_Snow_Tile-0.mtl
usemtl palette

# normals
vn -1 0 0
vn 1 0 0
vn 0 0 1
vn 0 0 -1
vn 0 -1 0
vn 0 1 0

# texcoords
vt 0.0332031 0.5
vt 0.0410156 0.5
vt 0.0488281 0.5

# verts
v -5 -5 5
v -5 -5 -5
v -5 -4 1
v -5 -4 -1
v -5 -3 3
v -5 -3 1
v -5 -3 -1
v -5 -3 -3
v -5 -2 4
v -5 -2 3
v -5 -2 -3
v -5 -2 -4
v -5 -1 5
v -5 -1 4
v -5 -1 1
v -5 -1 -1
v -5 -1 -4
v -5 -1 -5
v -5 0 2
v -5 0 1
v -5 0 -1
v -5 0 -2
v -5 1 3
v -5 1 2
v -5 1 -2
v -5 1 -3
v -5 2 5
v -5 2 4
v -5 2 3
v -5 2 2
v -5 2 -2
v -5 2 -3
v -5 2 -5
v -5 3 4
v -5 3 2
v -5 3 -2
v -5 3 -3
v -5 5 5
v -5 5 -5
v 5 -5 5
v 5 -5 -5
v 5 -4 1
v 5 -4 -1
v 5 -3 3
v 5 -3 1
v 5 -3 -1
v 5 -3 -3
v 5 -2 4
v 5 -2 3
v 5 -2 -3
v 5 -2 -4
v 5 -1 5
v 5 -1 4
v 5 -1 1
v 5 -1 -1
v 5 -1 -4
v 5 -1 -5
v 5 0 2
v 5 0 1
v 5 0 -1
v 5 0 -2
v 5 1 3
v 5 1 2
v 5 1 -2
v 5 1 -3
v 5 2 5
v 5 2 3
v 5 2 1
v 5 2 -3
v 5 2 -4
v 5 3 3
v 5 3 1
v 5 3 -4
v 5 3 -5
v 5 5 5
v 5 5 -5
v -5 -5 5
v -5 -1 5
v -5 2 5
v -5 5 5
v -4 -2 5
v -4 -1 5
v -4 1 5
v -4 2 5
v -3 -3 5
v -3 -2 5
v -2 0 5
v -2 1 5
v -2 2 5
v -1 -4 5
v -1 -3 5
v -1 -1 5
v -1 0 5
v -1 1 5
v -1 2 5
v 1 -4 5
v 1 -3 5
v 1 -1 5
v 1 0 5
v 1 1 5
v 1 2 5
v 2 0 5
v 2 1 5
v 2 2 5
v 2 3 5
v 3 -3 5
v 3 -2 5
v 3 1 5
v 3 2 5
v 4 -2 5
v 4 -1 5
v 4 2 5
v 4 3 5
v 5 -5 5
v 5 -1 5
v 5 2 5
v 5 5 5
v -5 -5 -5
v -5 -1 -5
v -5 2 -5
v -5 5 -5
v -4 -2 -5
v -4 -1 -5
v -4 2 -5
v -4 3 -5
v -3 -3 -5
v -3 -2 -5
v -3 1 -5
v -3 2 -5
v -2 0 -5
v -2 1 -5
v -2 2 -5
v -2 3 -5
v -1 -4 -5
v -1 -3 -5
v -1 -1 -5
v -1 0 -5
v 0 1 -5
v 0 2 -5
v 1 -4 -5
v 1 -3 -5
v 1 -1 -5
v 1 0 -5
v 2 0 -5
v 2 1 -5
v 2 2 -5
v 3 -3 -5
v 3 -2 -5
v 3 1 -5
v 3 2 -5
v 4 -2 -5
v 4 -1 -5
v 4 2 -5
v 4 3 -5
v 5 -5 -5
v 5 -1 -5
v 5 3 -5
v 5 5 -5
v -5 -5 5
v 5 -5 5
v -5 -5 -5
v 5 -5 -5
v -5 5 5
v 5 5 5
v -5 5 -5
v 5 5 -5

# faces
f 3/1/1 2/1/1 1/1/1
f 4/1/1 2/1/1 3/1/1
f 5/1/1 3/1/1 1/1/1
f 6/2/1 4/2/1 3/2/1
f 6/1/1 3/1/1 5/1/1
f 7/1/1 2/1/1 4/1/1
f 7/2/1 4/2/1 6/2/1
f 8/1/1 2/1/1 7/1/1
f 9/1/1 5/1/1 1/1/1
f 10/2/1 6/2/1 5/2/1
f 10/1/1 5/1/1 9/1/1
f 10/2/1 7/2/1 6/2/1
f 10/2/1 8/2/1 7/2/1
f 11/1/1 2/1/1 8/1/1
f 11/2/1 8/2/1 10/2/1
f 12/1/1 2/1/1 11/1/1
f 13/1/1 9/1/1 1/1/1
f 14/2/1 10/2/1 9/2/1
f 14/1/1 9/1/1 13/1/1
f 14/2/1 11/2/1 10/2/1
f 14/2/1 12/2/1 11/2/1
f 15/2/1 12/2/1 14/2/1
f 16/2/1 12/2/1 15/2/1
f 17/1/1 2/1/1 12/1/1
f 17/2/1 12/2/1 16/2/1
f 18/1/1 2/1/1 17/1/1
f 19/2/1 14/2/1 13/2/1
f 19/2/1 15/2/1 14/2/1
f 20/1/1 16/1/1 15/1/1
f 20/2/1 15/2/1 19/2/1
f 21/2/1 18/2/1 17/2/1
f 21/1/1 16/1/1 20/1/1
f 21/2/1 17/2/1 16/2/1
f 22/2/1 18/2/1 21/2/1
f 23/2/1 19/2/1 13/2/1
f 24/1/1 20/1/1 19/1/1
f 24/2/1 19/2/1 23/2/1
f 24/1/1 21/1/1 20/1/1
f 24/1/1 22/1/1 21/1/1
f 25/2/1 18/2/1 22/2/1
f 25/1/1 22/1/1 24/1/1
f 26/2/1 18/2/1 25/2/1
f 27/2/1 23/2/1 13/2/1
f 28/2/1 23/2/1 27/2/1
f 29/1/1 24/1/1 23/1/1
f 29/2/1 23/2/1 28/2/1
f 29/1/1 25/1/1 24/1/1
f 29/1/1 26/1/1 25/1/1
f 30/1/1 26/1/1 29/1/1
f 31/1/1 26/1/1 30/1/1
f 32/2/1 18/2/1 26/2/1
f 32/1/1 26/1/1 31/1/1
f 33/2/1 18/2/1 32/2/1
f 34/3/1 28/3/1 27/3/1
f 34/1/1 29/1/1 28/1/1
f 34/1/1 30/1/1 29/1/1
f 35/3/1 31/3/1 30/3/1
f 35/1/1 30/1/1 34/1/1
f 36/1/1 32/1/1 31/1/1
f 36/3/1 31/3/1 35/3/1
f 37/3/1 33/3/1 32/3/1
f 37/1/1 32/1/1 36/1/1
f 38/3/1 34/3/1 27/3/1
f 38/3/1 36/3/1 35/3/1
f 38/3/1 37/3/1 36/3/1
f 38/3/1 35/3/1 34/3/1
f 39/3/1 33/3/1 37/3/1
f 39/3/1 37/3/1 38/3/1
f 40/1/2 41/1/2 42/1/2
f 42/1/2 41/1/2 43/1/2
f 40/1/2 42/1/2 44/1/2
f 42/2/2 43/2/2 45/2/2
f 44/1/2 42/1/2 45/1/2
f 43/1/2 41/1/2 46/1/2
f 45/2/2 43/2/2 46/2/2
f 46/1/2 41/1/2 47/1/2
f 40/1/2 44/1/2 48/1/2
f 44/2/2 45/2/2 49/2/2
f 48/1/2 44/1/2 49/1/2
f 45/2/2 46/2/2 49/2/2
f 46/2/2 47/2/2 49/2/2
f 47/1/2 41/1/2 50/1/2
f 49/2/2 47/2/2 50/2/2
f 50/1/2 41/1/2 51/1/2
f 40/1/2 48/1/2 52/1/2
f 48/2/2 49/2/2 53/2/2
f 52/1/2 48/1/2 53/1/2
f 49/2/2 50/2/2 53/2/2
f 50/2/2 51/2/2 53/2/2
f 53/2/2 51/2/2 54/2/2
f 54/2/2 51/2/2 55/2/2
f 51/1/2 41/1/2 56/1/2
f 55/2/2 51/2/2 56/2/2
f 56/1/2 41/1/2 57/1/2
f 52/2/2 53/2/2 58/2/2
f 53/2/2 54/2/2 58/2/2
f 54/1/2 55/1/2 59/1/2
f 58/2/2 54/2/2 59/2/2
f 56/2/2 57/2/2 60/2/2
f 59/1/2 55/1/2 60/1/2
f 55/2/2 56/2/2 60/2/2
f 60/2/2 57/2/2 61/2/2
f 52/2/2 58/2/2 62/2/2
f 58/1/2 59/1/2 63/1/2
f 62/2/2 58/2/2 63/2/2
f 59/1/2 60/1/2 63/1/2
f 60/1/2 61/1/2 63/1/2
f 61/2/2 57/2/2 64/2/2
f 63/1/2 61/1/2 64/1/2
f 64/2/2 57/2/2 65/2/2
f 52/2/2 62/2/2 66/2/2
f 62/1/2 63/1/2 67/1/2
f 66/2/2 62/2/2 67/2/2
f 63/1/2 64/1/2 67/1/2
f 64/1/2 65/1/2 67/1/2
f 67/1/2 65/1/2 68/1/2
f 65/2/2 57/2/2 69/2/2
f 68/1/2 65/1/2 69/1/2
f 69/2/2 57/2/2 70/2/2
f 67/1/2 68/1/2 71/1/2
f 66/3/2 67/3/2 71/3/2
f 69/3/2 70/3/2 72/3/2
f 71/1/2 68/1/2 72/1/2
f 68/3/2 69/3/2 72/3/2
f 70/2/2 57/2/2 73/2/2
f 72/3/2 70/3/2 73/3/2
f 73/2/2 57/2/2 74/2/2
f 71/3/2 72/3/2 75/3/2
f 66/3/2 71/3/2 75/3/2
f 73/3/2 74/3/2 75/3/2
f 72/3/2 73/3/2 75/3/2
f 75/3/2 74/3/2 76/3/2
f 81/1/3 78/1/3 77/1/3
f 82/2/3 79/2/3 78/2/3
f 82/1/3 78/1/3 81/1/3
f 83/2/3 79/2/3 82/2/3
f 84/3/3 80/3/3 79/3/3
f 84/2/3 79/2/3 83/2/3
f 85/1/3 81/1/3 77/1/3
f 86/2/3 83/2/3 82/2/3
f 86/1/3 81/1/3 85/1/3
f 86/2/3 82/2/3 81/2/3
f 87/2/3 86/2/3 85/2/3
f 87/2/3 83/2/3 86/2/3
f 88/3/3 84/3/3 83/3/3
f 88/2/3 83/2/3 87/2/3
f 89/3/3 80/3/3 84/3/3
f 89/3/3 84/3/3 88/3/3
f 90/1/3 85/1/3 77/1/3
f 91/2/3 87/2/3 85/2/3
f 91/1/3 85/1/3 90/1/3
f 92/2/3 87/2/3 91/2/3
f 93/1/3 88/1/3 87/1/3
f 93/2/3 87/2/3 92/2/3
f 93/1/3 89/1/3 88/1/3
f 94/1/3 89/1/3 93/1/3
f 95/3/3 80/3/3 89/3/3
f 95/1/3 89/1/3 94/1/3
f 96/2/3 92/2/3 91/2/3
f 96/1/3 90/1/3 77/1/3
f 96/2/3 91/2/3 90/2/3
f 97/2/3 92/2/3 96/2/3
f 98/1/3 94/1/3 93/1/3
f 98/2/3 92/2/3 97/2/3
f 98/1/3 93/1/3 92/1/3
f 99/1/3 94/1/3 98/1/3
f 100/3/3 95/3/3 94/3/3
f 100/1/3 94/1/3 99/1/3
f 101/3/3 80/3/3 95/3/3
f 101/3/3 95/3/3 100/3/3
f 102/1/3 100/1/3 99/1/3
f 102/2/3 99/2/3 98/2/3
f 102/1/3 101/1/3 100/1/3
f 102/2/3 98/2/3 97/2/3
f 103/1/3 101/1/3 102/1/3
f 104/3/3 80/3/3 101/3/3
f 104/1/3 101/1/3 103/1/3
f 105/3/3 80/3/3 104/3/3
f 106/1/3 97/1/3 96/1/3
f 106/2/3 103/2/3 102/2/3
f 106/2/3 102/2/3 97/2/3
f 107/2/3 103/2/3 106/2/3
f 108/1/3 105/1/3 104/1/3
f 108/2/3 103/2/3 107/2/3
f 108/1/3 104/1/3 103/1/3
f 109/1/3 105/1/3 108/1/3
f 110/1/3 107/1/3 106/1/3
f 110/2/3 108/2/3 107/2/3
f 110/2/3 109/2/3 108/2/3
f 111/2/3 109/2/3 110/2/3
f 112/1/3 105/1/3 109/1/3
f 112/2/3 109/2/3 111/2/3
f 113/3/3 80/3/3 105/3/3
f 113/1/3 105/1/3 112/1/3
f 114/1/3 111/1/3 110/1/3
f 114/1/3 96/1/3 77/1/3
f 114/1/3 106/1/3 96/1/3
f 114/1/3 110/1/3 106/1/3
f 115/2/3 112/2/3 111/2/3
f 115/1/3 111/1/3 114/1/3
f 116/3/3 113/3/3 112/3/3
f 116/2/3 112/2/3 115/2/3
f 117/3/3 80/3/3 113/3/3
f 117/3/3 113/3/3 116/3/3
f 118/1/4 119/1/4 122/1/4
f 119/2/4 120/2/4 123/2/4
f 122/1/4 119/1/4 123/1/4
f 120/3/4 121/3/4 124/3/4
f 123/2/4 120/2/4 124/2/4
f 124/3/4 121/3/4 125/3/4
f 118/1/4 122/1/4 126/1/4
f 122/2/4 123/2/4 127/2/4
f 126/1/4 122/1/4 127/1/4
f 123/2/4 124/2/4 127/2/4
f 127/2/4 124/2/4 128/2/4
f 124/1/4 125/1/4 129/1/4
f 128/2/4 124/2/4 129/2/4
f 127/2/4 128/2/4 130/2/4
f 126/2/4 127/2/4 130/2/4
f 128/1/4 129/1/4 131/1/4
f 130/2/4 128/2/4 131/2/4
f 129/1/4 125/1/4 132/1/4
f 131/1/4 129/1/4 132/1/4
f 125/3/4 121/3/4 133/3/4
f 132/1/4 125/1/4 133/1/4
f 118/1/4 126/1/4 134/1/4
f 126/2/4 130/2/4 135/2/4
f 134/1/4 126/1/4 135/1/4
f 135/2/4 130/2/4 136/2/4
f 131/1/4 132/1/4 137/1/4
f 136/2/4 130/2/4 137/2/4
f 130/1/4 131/1/4 137/1/4
f 136/1/4 137/1/4 138/1/4
f 137/1/4 132/1/4 138/1/4
f 132/3/4 133/3/4 139/3/4
f 138/1/4 132/1/4 139/1/4
f 135/2/4 136/2/4 140/2/4
f 134/2/4 135/2/4 140/2/4
f 118/1/4 134/1/4 140/1/4
f 140/2/4 136/2/4 141/2/4
f 136/1/4 138/1/4 142/1/4
f 141/2/4 136/2/4 142/2/4
f 142/1/4 138/1/4 143/1/4
f 141/2/4 142/2/4 144/2/4
f 143/1/4 138/1/4 144/1/4
f 142/2/4 143/2/4 144/2/4
f 138/3/4 139/3/4 145/3/4
f 144/1/4 138/1/4 145/1/4
f 139/3/4 133/3/4 146/3/4
f 145/3/4 139/3/4 146/3/4
f 144/2/4 145/2/4 147/2/4
f 141/2/4 144/2/4 147/2/4
f 140/1/4 141/1/4 147/1/4
f 147/2/4 145/2/4 148/2/4
f 145/1/4 146/1/4 149/1/4
f 148/2/4 145/2/4 149/2/4
f 146/3/4 133/3/4 150/3/4
f 149/1/4 146/1/4 150/1/4
f 148/2/4 149/2/4 151/2/4
f 147/1/4 148/1/4 151/1/4
f 149/2/4 150/2/4 151/2/4
f 151/2/4 150/2/4 152/2/4
f 150/3/4 133/3/4 153/3/4
f 152/2/4 150/2/4 153/2/4
f 133/3/4 121/3/4 154/3/4
f 153/3/4 133/3/4 154/3/4
f 151/1/4 152/1/4 155/1/4
f 140/1/4 147/1/4 155/1/4
f 118/1/4 140/1/4 155/1/4
f 147/1/4 151/1/4 155/1/4
f 152/2/4 153/2/4 156/2/4
f 155/1/4 152/1/4 156/1/4
f 153/2/4 154/2/4 156/2/4
f 154/3/4 121/3/4 157/3/4
f 156/2/4 154/2/4 157/2/4
f 157/3/4 121/3/4 158/3/4
f 161/1/5 160/1/5 159/1/5
f 162/1/5 160/1/5 161/1/5
f 163/3/6 164/3/6 165/3/6
f 165/3/6 164/3/6 166/3/6
