# MagicaVoxel @ Ephtracy

# group
g Terrain_Snow_Tile-14

# material
mtllib Terrain_Snow_Tile-14.mtl
usemtl palette

# normals
vn -1 0 0
vn 1 0 0
vn 0 0 1
vn 0 0 -1
vn 0 -1 0
vn 0 1 0

# texcoords
vt 0.0332031 0.5
vt 0.0410156 0.5
vt 0.0488281 0.5
vt 0.0566406 0.5

# verts
v -5 -5 5
v -5 -5 -5
v -5 -4 1
v -5 -4 -1
v -5 -3 3
v -5 -3 1
v -5 -3 -1
v -5 -3 -3
v -5 -2 4
v -5 -2 3
v -5 -2 -3
v -5 -2 -4
v -5 -1 5
v -5 -1 4
v -5 -1 1
v -5 -1 -1
v -5 -1 -4
v -5 -1 -5
v -5 0 2
v -5 0 1
v -5 0 -1
v -5 0 -2
v -5 1 3
v -5 1 2
v -5 1 -2
v -5 1 -3
v -5 2 4
v -5 2 3
v -5 2 -3
v -5 2 -4
v -5 3 5
v -5 3 4
v -5 3 -4
v -5 3 -5
v -5 5 5
v -5 5 -5
v 5 -5 5
v 5 -5 -5
v 5 -4 1
v 5 -4 -1
v 5 -3 3
v 5 -3 1
v 5 -3 -1
v 5 -3 -3
v 5 -2 4
v 5 -2 3
v 5 -2 -3
v 5 -2 -4
v 5 -1 5
v 5 -1 4
v 5 -1 1
v 5 -1 -1
v 5 -1 -4
v 5 -1 -5
v 5 0 2
v 5 0 1
v 5 0 -1
v 5 0 -2
v 5 1 3
v 5 1 2
v 5 1 -2
v 5 1 -3
v 5 2 4
v 5 2 3
v 5 2 -3
v 5 2 -4
v 5 3 5
v 5 3 4
v 5 3 -4
v 5 3 -5
v 5 5 5
v 5 5 -5
v -5 -5 5
v -5 -1 5
v -5 3 5
v -5 5 5
v -4 -2 5
v -4 -1 5
v -4 2 5
v -4 3 5
v -3 -3 5
v -3 -2 5
v -3 1 5
v -3 2 5
v -2 0 5
v -2 1 5
v -1 -4 5
v -1 -3 5
v -1 -1 5
v -1 0 5
v -1 4 5
v -1 5 5
v 1 -4 5
v 1 -3 5
v 1 -1 5
v 1 0 5
v 1 4 5
v 1 5 5
v 2 0 5
v 2 1 5
v 3 -3 5
v 3 -2 5
v 3 1 5
v 3 2 5
v 4 -2 5
v 4 -1 5
v 4 2 5
v 4 3 5
v 5 -5 5
v 5 -1 5
v 5 3 5
v 5 5 5
v -5 -5 -5
v -5 -1 -5
v -5 3 -5
v -5 5 -5
v -4 -2 -5
v -4 -1 -5
v -4 2 -5
v -4 3 -5
v -3 -3 -5
v -3 -2 -5
v -3 1 -5
v -3 2 -5
v -2 0 -5
v -2 1 -5
v -1 -4 -5
v -1 -3 -5
v -1 -1 -5
v -1 0 -5
v 1 -4 -5
v 1 -3 -5
v 1 -1 -5
v 1 0 -5
v 2 0 -5
v 2 1 -5
v 3 -3 -5
v 3 -2 -5
v 3 1 -5
v 3 2 -5
v 4 -2 -5
v 4 -1 -5
v 4 2 -5
v 4 3 -5
v 5 -5 -5
v 5 -1 -5
v 5 3 -5
v 5 5 -5
v -5 -5 5
v 5 -5 5
v -5 -5 -5
v 5 -5 -5
v -5 5 5
v -1 5 5
v 1 5 5
v 5 5 5
v -2 5 4
v -1 5 4
v 1 5 4
v 2 5 4
v -3 5 3
v -2 5 3
v -4 5 2
v -3 5 2
v 1 5 2
v 2 5 2
v -4 5 1
v -3 5 1
v 0 5 1
v 1 5 1
v -3 5 -0
v 0 5 -0
v -5 5 -5
v 5 5 -5

# faces
f 3/1/1 2/1/1 1/1/1
f 4/1/1 2/1/1 3/1/1
f 5/1/1 3/1/1 1/1/1
f 6/2/1 4/2/1 3/2/1
f 6/1/1 3/1/1 5/1/1
f 7/1/1 2/1/1 4/1/1
f 7/2/1 4/2/1 6/2/1
f 8/1/1 2/1/1 7/1/1
f 9/1/1 5/1/1 1/1/1
f 10/2/1 6/2/1 5/2/1
f 10/1/1 5/1/1 9/1/1
f 10/2/1 7/2/1 6/2/1
f 10/2/1 8/2/1 7/2/1
f 11/1/1 2/1/1 8/1/1
f 11/2/1 8/2/1 10/2/1
f 12/1/1 2/1/1 11/1/1
f 13/1/1 9/1/1 1/1/1
f 14/2/1 10/2/1 9/2/1
f 14/1/1 9/1/1 13/1/1
f 14/2/1 11/2/1 10/2/1
f 14/2/1 12/2/1 11/2/1
f 15/2/1 12/2/1 14/2/1
f 16/2/1 12/2/1 15/2/1
f 17/1/1 2/1/1 12/1/1
f 17/2/1 12/2/1 16/2/1
f 18/1/1 2/1/1 17/1/1
f 19/2/1 14/2/1 13/2/1
f 19/2/1 15/2/1 14/2/1
f 20/1/1 16/1/1 15/1/1
f 20/2/1 15/2/1 19/2/1
f 21/2/1 18/2/1 17/2/1
f 21/1/1 16/1/1 20/1/1
f 21/2/1 17/2/1 16/2/1
f 22/2/1 18/2/1 21/2/1
f 23/2/1 19/2/1 13/2/1
f 24/1/1 20/1/1 19/1/1
f 24/2/1 19/2/1 23/2/1
f 24/1/1 21/1/1 20/1/1
f 24/1/1 22/1/1 21/1/1
f 25/2/1 18/2/1 22/2/1
f 25/1/1 22/1/1 24/1/1
f 26/2/1 18/2/1 25/2/1
f 27/2/1 23/2/1 13/2/1
f 28/1/1 24/1/1 23/1/1
f 28/2/1 23/2/1 27/2/1
f 28/1/1 25/1/1 24/1/1
f 28/1/1 26/1/1 25/1/1
f 29/2/1 18/2/1 26/2/1
f 29/1/1 26/1/1 28/1/1
f 30/2/1 18/2/1 29/2/1
f 31/2/1 27/2/1 13/2/1
f 32/1/1 28/1/1 27/1/1
f 32/2/1 27/2/1 31/2/1
f 32/1/1 29/1/1 28/1/1
f 32/1/1 30/1/1 29/1/1
f 33/2/1 18/2/1 30/2/1
f 33/1/1 30/1/1 32/1/1
f 34/2/1 18/2/1 33/2/1
f 35/4/1 32/4/1 31/4/1
f 35/4/1 33/4/1 32/4/1
f 35/4/1 34/4/1 33/4/1
f 36/4/1 34/4/1 35/4/1
f 37/1/2 38/1/2 39/1/2
f 39/1/2 38/1/2 40/1/2
f 37/1/2 39/1/2 41/1/2
f 39/2/2 40/2/2 42/2/2
f 41/1/2 39/1/2 42/1/2
f 40/1/2 38/1/2 43/1/2
f 42/2/2 40/2/2 43/2/2
f 43/1/2 38/1/2 44/1/2
f 37/1/2 41/1/2 45/1/2
f 41/2/2 42/2/2 46/2/2
f 45/1/2 41/1/2 46/1/2
f 42/2/2 43/2/2 46/2/2
f 43/2/2 44/2/2 46/2/2
f 44/1/2 38/1/2 47/1/2
f 46/2/2 44/2/2 47/2/2
f 47/1/2 38/1/2 48/1/2
f 37/1/2 45/1/2 49/1/2
f 45/2/2 46/2/2 50/2/2
f 49/1/2 45/1/2 50/1/2
f 46/2/2 47/2/2 50/2/2
f 47/2/2 48/2/2 50/2/2
f 50/2/2 48/2/2 51/2/2
f 51/2/2 48/2/2 52/2/2
f 48/1/2 38/1/2 53/1/2
f 52/2/2 48/2/2 53/2/2
f 53/1/2 38/1/2 54/1/2
f 49/2/2 50/2/2 55/2/2
f 50/2/2 51/2/2 55/2/2
f 51/1/2 52/1/2 56/1/2
f 55/2/2 51/2/2 56/2/2
f 53/2/2 54/2/2 57/2/2
f 56/1/2 52/1/2 57/1/2
f 52/2/2 53/2/2 57/2/2
f 57/2/2 54/2/2 58/2/2
f 49/2/2 55/2/2 59/2/2
f 55/1/2 56/1/2 60/1/2
f 59/2/2 55/2/2 60/2/2
f 56/1/2 57/1/2 60/1/2
f 57/1/2 58/1/2 60/1/2
f 58/2/2 54/2/2 61/2/2
f 60/1/2 58/1/2 61/1/2
f 61/2/2 54/2/2 62/2/2
f 49/2/2 59/2/2 63/2/2
f 59/1/2 60/1/2 64/1/2
f 63/2/2 59/2/2 64/2/2
f 60/1/2 61/1/2 64/1/2
f 61/1/2 62/1/2 64/1/2
f 62/2/2 54/2/2 65/2/2
f 64/1/2 62/1/2 65/1/2
f 65/2/2 54/2/2 66/2/2
f 49/2/2 63/2/2 67/2/2
f 63/1/2 64/1/2 68/1/2
f 67/2/2 63/2/2 68/2/2
f 64/1/2 65/1/2 68/1/2
f 65/1/2 66/1/2 68/1/2
f 66/2/2 54/2/2 69/2/2
f 68/1/2 66/1/2 69/1/2
f 69/2/2 54/2/2 70/2/2
f 67/4/2 68/4/2 71/4/2
f 68/4/2 69/4/2 71/4/2
f 69/4/2 70/4/2 71/4/2
f 71/4/2 70/4/2 72/4/2
f 77/1/3 74/1/3 73/1/3
f 78/2/3 75/2/3 74/2/3
f 78/1/3 74/1/3 77/1/3
f 79/2/3 75/2/3 78/2/3
f 80/4/3 76/4/3 75/4/3
f 80/2/3 75/2/3 79/2/3
f 81/1/3 77/1/3 73/1/3
f 82/2/3 79/2/3 78/2/3
f 82/1/3 77/1/3 81/1/3
f 82/2/3 78/2/3 77/2/3
f 83/2/3 79/2/3 82/2/3
f 84/1/3 80/1/3 79/1/3
f 84/2/3 79/2/3 83/2/3
f 85/2/3 83/2/3 82/2/3
f 85/2/3 82/2/3 81/2/3
f 86/1/3 84/1/3 83/1/3
f 86/2/3 83/2/3 85/2/3
f 87/1/3 81/1/3 73/1/3
f 88/2/3 85/2/3 81/2/3
f 88/1/3 81/1/3 87/1/3
f 89/2/3 85/2/3 88/2/3
f 90/1/3 86/1/3 85/1/3
f 90/2/3 85/2/3 89/2/3
f 91/4/3 76/4/3 80/4/3
f 92/4/3 76/4/3 91/4/3
f 93/1/3 87/1/3 73/1/3
f 93/2/3 89/2/3 88/2/3
f 93/2/3 88/2/3 87/2/3
f 94/2/3 89/2/3 93/2/3
f 95/1/3 90/1/3 89/1/3
f 95/2/3 89/2/3 94/2/3
f 96/1/3 86/1/3 90/1/3
f 96/1/3 90/1/3 95/1/3
f 97/3/3 92/3/3 91/3/3
f 97/4/3 91/4/3 80/4/3
f 98/3/3 92/3/3 97/3/3
f 99/2/3 95/2/3 94/2/3
f 99/1/3 86/1/3 96/1/3
f 99/2/3 96/2/3 95/2/3
f 100/1/3 84/1/3 86/1/3
f 100/1/3 86/1/3 99/1/3
f 101/2/3 99/2/3 94/2/3
f 101/1/3 94/1/3 93/1/3
f 101/2/3 100/2/3 99/2/3
f 102/2/3 100/2/3 101/2/3
f 103/1/3 84/1/3 100/1/3
f 103/2/3 100/2/3 102/2/3
f 104/1/3 80/1/3 84/1/3
f 104/1/3 84/1/3 103/1/3
f 105/1/3 102/1/3 101/1/3
f 105/2/3 103/2/3 102/2/3
f 105/2/3 104/2/3 103/2/3
f 106/2/3 104/2/3 105/2/3
f 107/1/3 80/1/3 104/1/3
f 107/2/3 104/2/3 106/2/3
f 108/4/3 98/4/3 97/4/3
f 108/1/3 80/1/3 107/1/3
f 108/4/3 97/4/3 80/4/3
f 109/1/3 106/1/3 105/1/3
f 109/1/3 101/1/3 93/1/3
f 109/1/3 105/1/3 101/1/3
f 109/1/3 93/1/3 73/1/3
f 110/2/3 108/2/3 107/2/3
f 110/1/3 106/1/3 109/1/3
f 110/2/3 107/2/3 106/2/3
f 111/4/3 98/4/3 108/4/3
f 111/2/3 108/2/3 110/2/3
f 112/4/3 98/4/3 111/4/3
f 113/1/4 114/1/4 117/1/4
f 114/2/4 115/2/4 118/2/4
f 117/1/4 114/1/4 118/1/4
f 118/2/4 115/2/4 119/2/4
f 115/4/4 116/4/4 120/4/4
f 119/2/4 115/2/4 120/2/4
f 113/1/4 117/1/4 121/1/4
f 118/2/4 119/2/4 122/2/4
f 121/1/4 117/1/4 122/1/4
f 117/2/4 118/2/4 122/2/4
f 122/2/4 119/2/4 123/2/4
f 119/1/4 120/1/4 124/1/4
f 123/2/4 119/2/4 124/2/4
f 122/2/4 123/2/4 125/2/4
f 121/2/4 122/2/4 125/2/4
f 123/1/4 124/1/4 126/1/4
f 125/2/4 123/2/4 126/2/4
f 113/1/4 121/1/4 127/1/4
f 121/2/4 125/2/4 128/2/4
f 127/1/4 121/1/4 128/1/4
f 128/2/4 125/2/4 129/2/4
f 125/1/4 126/1/4 130/1/4
f 129/2/4 125/2/4 130/2/4
f 113/1/4 127/1/4 131/1/4
f 128/2/4 129/2/4 131/2/4
f 127/2/4 128/2/4 131/2/4
f 131/2/4 129/2/4 132/2/4
f 129/1/4 130/1/4 133/1/4
f 132/2/4 129/2/4 133/2/4
f 130/1/4 126/1/4 134/1/4
f 133/1/4 130/1/4 134/1/4
f 132/2/4 133/2/4 135/2/4
f 134/1/4 126/1/4 135/1/4
f 133/2/4 134/2/4 135/2/4
f 126/1/4 124/1/4 136/1/4
f 135/1/4 126/1/4 136/1/4
f 132/2/4 135/2/4 137/2/4
f 131/1/4 132/1/4 137/1/4
f 135/2/4 136/2/4 137/2/4
f 137/2/4 136/2/4 138/2/4
f 136/1/4 124/1/4 139/1/4
f 138/2/4 136/2/4 139/2/4
f 124/1/4 120/1/4 140/1/4
f 139/1/4 124/1/4 140/1/4
f 137/1/4 138/1/4 141/1/4
f 138/2/4 139/2/4 141/2/4
f 139/2/4 140/2/4 141/2/4
f 141/2/4 140/2/4 142/2/4
f 140/1/4 120/1/4 143/1/4
f 142/2/4 140/2/4 143/2/4
f 120/4/4 116/4/4 144/4/4
f 143/1/4 120/1/4 144/1/4
f 141/1/4 142/1/4 145/1/4
f 131/1/4 137/1/4 145/1/4
f 113/1/4 131/1/4 145/1/4
f 137/1/4 141/1/4 145/1/4
f 142/2/4 143/2/4 146/2/4
f 145/1/4 142/1/4 146/1/4
f 143/2/4 144/2/4 146/2/4
f 144/4/4 116/4/4 147/4/4
f 146/2/4 144/2/4 147/2/4
f 147/4/4 116/4/4 148/4/4
f 151/1/5 150/1/5 149/1/5
f 152/1/5 150/1/5 151/1/5
f 153/4/6 154/4/6 157/4/6
f 154/3/6 155/3/6 158/3/6
f 157/4/6 154/4/6 158/4/6
f 155/4/6 156/4/6 159/4/6
f 158/3/6 155/3/6 159/3/6
f 159/4/6 156/4/6 160/4/6
f 153/4/6 157/4/6 161/4/6
f 157/3/6 158/3/6 162/3/6
f 161/4/6 157/4/6 162/4/6
f 158/3/6 159/3/6 162/3/6
f 159/3/6 160/3/6 162/3/6
f 153/4/6 161/4/6 163/4/6
f 161/3/6 162/3/6 164/3/6
f 163/4/6 161/4/6 164/4/6
f 162/3/6 160/3/6 165/3/6
f 164/3/6 162/3/6 165/3/6
f 160/4/6 156/4/6 166/4/6
f 165/3/6 160/3/6 166/3/6
f 163/3/6 164/3/6 167/3/6
f 164/3/6 165/3/6 167/3/6
f 153/4/6 163/4/6 167/4/6
f 167/3/6 165/3/6 168/3/6
f 168/3/6 165/3/6 169/3/6
f 165/4/6 166/4/6 170/4/6
f 169/3/6 165/3/6 170/3/6
f 168/3/6 169/3/6 171/3/6
f 167/4/6 168/4/6 171/4/6
f 169/4/6 170/4/6 172/4/6
f 171/3/6 169/3/6 172/3/6
f 153/4/6 167/4/6 173/4/6
f 167/4/6 171/4/6 173/4/6
f 171/4/6 172/4/6 173/4/6
f 166/4/6 156/4/6 174/4/6
f 173/4/6 172/4/6 174/4/6
f 170/4/6 166/4/6 174/4/6
f 172/4/6 170/4/6 174/4/6
