# MagicaVoxel @ Ephtracy

# group
g Terrain_Snow_Tile-2

# material
mtllib Terrain_Snow_Tile-2.mtl
usemtl palette

# normals
vn -1 0 0
vn 1 0 0
vn 0 0 1
vn 0 0 -1
vn 0 -1 0
vn 0 1 0

# texcoords
vt 0.0332031 0.5
vt 0.0371094 0.5
vt 0.0410156 0.5
vt 0.0488281 0.5
vt 0.0566406 0.5

# verts
v -5 -5 5
v -5 -5 -5
v -5 -4 1
v -5 -4 -1
v -5 -3 3
v -5 -3 1
v -5 -3 -1
v -5 -3 -3
v -5 -2 4
v -5 -2 3
v -5 -2 -3
v -5 -2 -4
v -5 -1 5
v -5 -1 4
v -5 -1 1
v -5 -1 -1
v -5 -1 -4
v -5 -1 -5
v -5 0 2
v -5 0 1
v -5 0 -1
v -5 0 -2
v -5 1 5
v -5 1 4
v -5 1 3
v -5 1 2
v -5 1 1
v -5 1 -2
v -5 1 -3
v -5 2 4
v -5 2 3
v -5 2 1
v -5 2 -0
v -5 2 -3
v -5 2 -4
v -5 3 -0
v -5 3 -4
v -5 3 -5
v -5 5 5
v -5 5 -0
v -5 5 -5
v 5 -5 5
v 5 -5 -5
v 5 -4 1
v 5 -4 -1
v 5 -3 3
v 5 -3 1
v 5 -3 -1
v 5 -3 -3
v 5 -2 4
v 5 -2 3
v 5 -2 -3
v 5 -2 -4
v 5 -1 5
v 5 -1 4
v 5 -1 1
v 5 -1 -1
v 5 -1 -4
v 5 -1 -5
v 5 0 2
v 5 0 1
v 5 0 -1
v 5 0 -2
v 5 1 5
v 5 1 4
v 5 1 3
v 5 1 2
v 5 1 1
v 5 1 -0
v 5 1 -2
v 5 1 -3
v 5 1 -4
v 5 1 -5
v 5 2 4
v 5 2 3
v 5 2 2
v 5 2 1
v 5 2 -0
v 5 2 -2
v 5 2 -3
v 5 2 -4
v 5 3 -3
v 5 3 -4
v 5 5 5
v 5 5 -5
v -5 -5 5
v -5 -1 5
v -5 1 5
v -5 5 5
v -4 -2 5
v -4 -1 5
v -4 1 5
v -4 2 5
v -3 -3 5
v -3 -2 5
v -3 1 5
v -3 2 5
v -2 0 5
v -2 1 5
v -1 -4 5
v -1 -3 5
v -1 -1 5
v -1 0 5
v -1 1 5
v -1 2 5
v 0 2 5
v 0 3 5
v 1 -4 5
v 1 -3 5
v 1 -1 5
v 1 0 5
v 1 2 5
v 1 3 5
v 2 0 5
v 2 1 5
v 3 -3 5
v 3 -2 5
v 3 1 5
v 3 2 5
v 4 -2 5
v 4 -1 5
v 5 -5 5
v 5 -1 5
v 5 1 5
v 5 5 5
v -5 -5 -5
v -5 -1 -5
v -5 3 -5
v -5 5 -5
v -4 -2 -5
v -4 -1 -5
v -4 2 -5
v -4 3 -5
v -3 -3 -5
v -3 -2 -5
v -3 1 -5
v -3 2 -5
v -2 0 -5
v -2 1 -5
v -1 -4 -5
v -1 -3 -5
v -1 -1 -5
v -1 0 -5
v -1 3 -5
v -1 5 -5
v 0 2 -5
v 0 3 -5
v 1 -4 -5
v 1 -3 -5
v 1 -1 -5
v 1 0 -5
v 1 1 -5
v 1 2 -5
v 2 0 -5
v 2 1 -5
v 2 2 -5
v 3 -3 -5
v 3 -2 -5
v 3 1 -5
v 3 2 -5
v 3 3 -5
v 4 -2 -5
v 4 -1 -5
v 4 1 -5
v 4 2 -5
v 4 3 -5
v 5 -5 -5
v 5 -1 -5
v 5 1 -5
v 5 5 -5
v -5 -5 5
v 5 -5 5
v -5 -5 -5
v 5 -5 -5
v -5 5 5
v 5 5 5
v -5 5 -0
v -4 5 -0
v -4 5 -1
v -2 5 -1
v -2 5 -3
v -1 5 -3
v -5 5 -5
v -1 5 -5
v 5 5 -5

# faces
f 3/1/1 2/1/1 1/1/1
f 4/1/1 2/1/1 3/1/1
f 5/1/1 3/1/1 1/1/1
f 6/3/1 4/3/1 3/3/1
f 6/1/1 3/1/1 5/1/1
f 7/1/1 2/1/1 4/1/1
f 7/3/1 4/3/1 6/3/1
f 8/1/1 2/1/1 7/1/1
f 9/1/1 5/1/1 1/1/1
f 10/3/1 6/3/1 5/3/1
f 10/1/1 5/1/1 9/1/1
f 10/3/1 7/3/1 6/3/1
f 10/3/1 8/3/1 7/3/1
f 11/1/1 2/1/1 8/1/1
f 11/3/1 8/3/1 10/3/1
f 12/1/1 2/1/1 11/1/1
f 13/1/1 9/1/1 1/1/1
f 14/3/1 10/3/1 9/3/1
f 14/1/1 9/1/1 13/1/1
f 14/3/1 11/3/1 10/3/1
f 14/3/1 12/3/1 11/3/1
f 15/3/1 12/3/1 14/3/1
f 16/3/1 12/3/1 15/3/1
f 17/1/1 2/1/1 12/1/1
f 17/3/1 12/3/1 16/3/1
f 18/1/1 2/1/1 17/1/1
f 19/3/1 14/3/1 13/3/1
f 19/3/1 15/3/1 14/3/1
f 20/1/1 16/1/1 15/1/1
f 20/3/1 15/3/1 19/3/1
f 21/3/1 18/3/1 17/3/1
f 21/1/1 16/1/1 20/1/1
f 21/3/1 17/3/1 16/3/1
f 22/3/1 18/3/1 21/3/1
f 23/3/1 19/3/1 13/3/1
f 24/3/1 19/3/1 23/3/1
f 25/3/1 19/3/1 24/3/1
f 26/1/1 20/1/1 19/1/1
f 26/3/1 19/3/1 25/3/1
f 26/1/1 21/1/1 20/1/1
f 26/1/1 22/1/1 21/1/1
f 27/1/1 22/1/1 26/1/1
f 28/3/1 18/3/1 22/3/1
f 28/1/1 22/1/1 27/1/1
f 29/3/1 18/3/1 28/3/1
f 30/3/1 25/3/1 24/3/1
f 30/4/1 24/4/1 23/4/1
f 31/4/1 27/4/1 26/4/1
f 31/3/1 25/3/1 30/3/1
f 31/4/1 26/4/1 25/4/1
f 32/1/1 29/1/1 28/1/1
f 32/4/1 27/4/1 31/4/1
f 32/1/1 28/1/1 27/1/1
f 33/1/1 29/1/1 32/1/1
f 34/3/1 18/3/1 29/3/1
f 34/1/1 29/1/1 33/1/1
f 35/3/1 18/3/1 34/3/1
f 36/4/1 33/4/1 32/4/1
f 36/4/1 31/4/1 30/4/1
f 36/1/1 35/1/1 34/1/1
f 36/1/1 34/1/1 33/1/1
f 36/4/1 32/4/1 31/4/1
f 37/3/1 18/3/1 35/3/1
f 37/1/1 35/1/1 36/1/1
f 38/3/1 18/3/1 37/3/1
f 39/4/1 30/4/1 23/4/1
f 39/4/1 36/4/1 30/4/1
f 40/5/1 38/5/1 37/5/1
f 40/4/1 36/4/1 39/4/1
f 40/5/1 37/5/1 36/5/1
f 41/5/1 38/5/1 40/5/1
f 42/1/2 43/1/2 44/1/2
f 44/1/2 43/1/2 45/1/2
f 42/1/2 44/1/2 46/1/2
f 44/3/2 45/3/2 47/3/2
f 46/1/2 44/1/2 47/1/2
f 45/1/2 43/1/2 48/1/2
f 47/3/2 45/3/2 48/3/2
f 48/1/2 43/1/2 49/1/2
f 42/1/2 46/1/2 50/1/2
f 46/3/2 47/3/2 51/3/2
f 50/1/2 46/1/2 51/1/2
f 47/3/2 48/3/2 51/3/2
f 48/3/2 49/3/2 51/3/2
f 49/1/2 43/1/2 52/1/2
f 51/3/2 49/3/2 52/3/2
f 52/1/2 43/1/2 53/1/2
f 42/1/2 50/1/2 54/1/2
f 50/3/2 51/3/2 55/3/2
f 54/1/2 50/1/2 55/1/2
f 51/3/2 52/3/2 55/3/2
f 52/3/2 53/3/2 55/3/2
f 55/3/2 53/3/2 56/3/2
f 56/3/2 53/3/2 57/3/2
f 53/1/2 43/1/2 58/1/2
f 57/3/2 53/3/2 58/3/2
f 58/1/2 43/1/2 59/1/2
f 54/3/2 55/3/2 60/3/2
f 55/3/2 56/3/2 60/3/2
f 56/1/2 57/1/2 61/1/2
f 60/3/2 56/3/2 61/3/2
f 58/3/2 59/3/2 62/3/2
f 61/1/2 57/1/2 62/1/2
f 57/3/2 58/3/2 62/3/2
f 62/3/2 59/3/2 63/3/2
f 54/3/2 60/3/2 64/3/2
f 64/3/2 60/3/2 65/3/2
f 65/3/2 60/3/2 66/3/2
f 60/1/2 61/1/2 67/1/2
f 66/3/2 60/3/2 67/3/2
f 61/1/2 62/1/2 67/1/2
f 62/1/2 63/1/2 67/1/2
f 67/1/2 63/1/2 68/1/2
f 68/1/2 63/1/2 69/1/2
f 63/3/2 59/3/2 70/3/2
f 69/1/2 63/1/2 70/1/2
f 70/3/2 59/3/2 71/3/2
f 71/3/2 59/3/2 72/3/2
f 72/3/2 59/3/2 73/3/2
f 65/3/2 66/3/2 74/3/2
f 64/4/2 65/4/2 74/4/2
f 66/1/2 67/1/2 75/1/2
f 74/3/2 66/3/2 75/3/2
f 67/4/2 68/4/2 76/4/2
f 75/1/2 67/1/2 76/1/2
f 68/1/2 69/1/2 77/1/2
f 76/4/2 68/4/2 77/4/2
f 69/4/2 70/4/2 78/4/2
f 77/1/2 69/1/2 78/1/2
f 70/1/2 71/1/2 79/1/2
f 78/4/2 70/4/2 79/4/2
f 71/3/2 72/3/2 80/3/2
f 79/1/2 71/1/2 80/1/2
f 72/4/2 73/4/2 81/4/2
f 80/3/2 72/3/2 81/3/2
f 75/4/2 76/4/2 82/4/2
f 79/4/2 80/4/2 82/4/2
f 80/1/2 81/1/2 82/1/2
f 78/4/2 79/4/2 82/4/2
f 77/4/2 78/4/2 82/4/2
f 76/4/2 77/4/2 82/4/2
f 74/4/2 75/4/2 82/4/2
f 81/4/2 73/4/2 83/4/2
f 82/1/2 81/1/2 83/1/2
f 74/4/2 82/4/2 84/4/2
f 64/4/2 74/4/2 84/4/2
f 82/4/2 83/4/2 84/4/2
f 83/4/2 73/4/2 85/4/2
f 84/4/2 83/4/2 85/4/2
f 90/1/3 87/1/3 86/1/3
f 91/3/3 88/3/3 87/3/3
f 91/1/3 87/1/3 90/1/3
f 92/4/3 89/4/3 88/4/3
f 92/3/3 88/3/3 91/3/3
f 93/4/3 89/4/3 92/4/3
f 94/1/3 90/1/3 86/1/3
f 95/3/3 91/3/3 90/3/3
f 95/1/3 90/1/3 94/1/3
f 95/3/3 92/3/3 91/3/3
f 95/3/3 93/3/3 92/3/3
f 96/3/3 93/3/3 95/3/3
f 97/4/3 89/4/3 93/4/3
f 97/3/3 93/3/3 96/3/3
f 98/3/3 96/3/3 95/3/3
f 98/3/3 95/3/3 94/3/3
f 99/4/3 97/4/3 96/4/3
f 99/3/3 96/3/3 98/3/3
f 100/1/3 94/1/3 86/1/3
f 101/3/3 98/3/3 94/3/3
f 101/1/3 94/1/3 100/1/3
f 102/3/3 98/3/3 101/3/3
f 103/1/3 99/1/3 98/1/3
f 103/3/3 98/3/3 102/3/3
f 104/4/3 97/4/3 99/4/3
f 104/1/3 99/1/3 103/1/3
f 105/4/3 89/4/3 97/4/3
f 105/4/3 97/4/3 104/4/3
f 106/1/3 103/1/3 102/1/3
f 106/4/3 89/4/3 105/4/3
f 106/1/3 105/1/3 104/1/3
f 106/1/3 104/1/3 103/1/3
f 107/4/3 89/4/3 106/4/3
f 108/3/3 101/3/3 100/3/3
f 108/3/3 102/3/3 101/3/3
f 108/1/3 100/1/3 86/1/3
f 109/3/3 102/3/3 108/3/3
f 110/1/3 107/1/3 106/1/3
f 110/3/3 102/3/3 109/3/3
f 110/1/3 106/1/3 102/1/3
f 111/1/3 107/1/3 110/1/3
f 112/1/3 107/1/3 111/1/3
f 113/4/3 89/4/3 107/4/3
f 113/1/3 107/1/3 112/1/3
f 114/1/3 112/1/3 111/1/3
f 114/3/3 110/3/3 109/3/3
f 114/3/3 111/3/3 110/3/3
f 115/1/3 112/1/3 114/1/3
f 116/1/3 109/1/3 108/1/3
f 116/3/3 114/3/3 109/3/3
f 116/3/3 115/3/3 114/3/3
f 117/3/3 115/3/3 116/3/3
f 118/1/3 112/1/3 115/1/3
f 118/3/3 115/3/3 117/3/3
f 119/4/3 113/4/3 112/4/3
f 119/1/3 112/1/3 118/1/3
f 120/1/3 117/1/3 116/1/3
f 120/3/3 118/3/3 117/3/3
f 121/3/3 118/3/3 120/3/3
f 122/1/3 108/1/3 86/1/3
f 122/1/3 116/1/3 108/1/3
f 122/1/3 121/1/3 120/1/3
f 122/1/3 120/1/3 116/1/3
f 123/3/3 118/3/3 121/3/3
f 123/1/3 121/1/3 122/1/3
f 124/4/3 119/4/3 118/4/3
f 124/3/3 118/3/3 123/3/3
f 125/4/3 89/4/3 113/4/3
f 125/4/3 119/4/3 124/4/3
f 125/4/3 113/4/3 119/4/3
f 126/1/4 127/1/4 130/1/4
f 127/3/4 128/3/4 131/3/4
f 130/1/4 127/1/4 131/1/4
f 131/3/4 128/3/4 132/3/4
f 128/5/4 129/5/4 133/5/4
f 132/3/4 128/3/4 133/3/4
f 126/1/4 130/1/4 134/1/4
f 131/3/4 132/3/4 135/3/4
f 134/1/4 130/1/4 135/1/4
f 130/3/4 131/3/4 135/3/4
f 135/3/4 132/3/4 136/3/4
f 132/1/4 133/1/4 137/1/4
f 136/3/4 132/3/4 137/3/4
f 135/3/4 136/3/4 138/3/4
f 134/3/4 135/3/4 138/3/4
f 136/1/4 137/1/4 139/1/4
f 138/3/4 136/3/4 139/3/4
f 126/1/4 134/1/4 140/1/4
f 134/3/4 138/3/4 141/3/4
f 140/1/4 134/1/4 141/1/4
f 141/3/4 138/3/4 142/3/4
f 138/1/4 139/1/4 143/1/4
f 142/3/4 138/3/4 143/3/4
f 139/1/4 137/1/4 144/1/4
f 143/1/4 139/1/4 144/1/4
f 133/5/4 129/5/4 144/5/4
f 137/1/4 133/1/4 144/1/4
f 144/5/4 129/5/4 145/5/4
f 142/1/4 143/1/4 146/1/4
f 143/1/4 144/1/4 146/1/4
f 144/4/4 145/4/4 147/4/4
f 146/1/4 144/1/4 147/1/4
f 140/3/4 141/3/4 148/3/4
f 141/3/4 142/3/4 148/3/4
f 126/1/4 140/1/4 148/1/4
f 148/3/4 142/3/4 149/3/4
f 142/1/4 146/1/4 150/1/4
f 149/3/4 142/3/4 150/3/4
f 150/1/4 146/1/4 151/1/4
f 151/1/4 146/1/4 152/1/4
f 146/4/4 147/4/4 153/4/4
f 152/1/4 146/1/4 153/1/4
f 151/1/4 152/1/4 154/1/4
f 149/3/4 150/3/4 154/3/4
f 150/3/4 151/3/4 154/3/4
f 152/4/4 153/4/4 155/4/4
f 154/1/4 152/1/4 155/1/4
f 153/4/4 147/4/4 156/4/4
f 155/4/4 153/4/4 156/4/4
f 154/3/4 155/3/4 157/3/4
f 148/1/4 149/1/4 157/1/4
f 149/3/4 154/3/4 157/3/4
f 157/3/4 155/3/4 158/3/4
f 155/1/4 156/1/4 159/1/4
f 158/3/4 155/3/4 159/3/4
f 156/4/4 147/4/4 160/4/4
f 159/1/4 156/1/4 160/1/4
f 147/4/4 145/4/4 161/4/4
f 160/4/4 147/4/4 161/4/4
f 159/3/4 160/3/4 162/3/4
f 158/3/4 159/3/4 162/3/4
f 157/1/4 158/1/4 162/1/4
f 162/3/4 160/3/4 163/3/4
f 163/3/4 160/3/4 164/3/4
f 160/1/4 161/1/4 165/1/4
f 164/3/4 160/3/4 165/3/4
f 161/4/4 145/4/4 166/4/4
f 165/1/4 161/1/4 166/1/4
f 148/1/4 157/1/4 167/1/4
f 126/1/4 148/1/4 167/1/4
f 157/1/4 162/1/4 167/1/4
f 162/1/4 163/1/4 167/1/4
f 163/3/4 164/3/4 168/3/4
f 167/1/4 163/1/4 168/1/4
f 164/4/4 165/4/4 169/4/4
f 168/3/4 164/3/4 169/3/4
f 165/4/4 166/4/4 169/4/4
f 166/4/4 145/4/4 170/4/4
f 169/4/4 166/4/4 170/4/4
f 173/1/5 172/1/5 171/1/5
f 174/1/5 172/1/5 173/1/5
f 175/4/6 176/4/6 177/4/6
f 177/4/6 176/4/6 178/4/6
f 177/5/6 178/5/6 179/5/6
f 178/4/6 176/4/6 179/4/6
f 179/4/6 176/4/6 180/4/6
f 179/5/6 180/5/6 181/5/6
f 180/4/6 176/4/6 181/4/6
f 181/4/6 176/4/6 182/4/6
f 177/5/6 179/5/6 183/5/6
f 179/5/6 181/5/6 183/5/6
f 181/5/6 182/5/6 183/5/6
f 182/4/6 176/4/6 184/4/6
f 183/5/6 182/5/6 184/5/6
f 184/4/6 176/4/6 185/4/6
