# MagicaVoxel @ Ephtracy

# group
g Terrain_Snow_Tile-42

# material
mtllib Terrain_Snow_Tile-42.mtl
usemtl palette

# normals
vn -1 0 0
vn 1 0 0
vn 0 0 1
vn 0 0 -1
vn 0 -1 0
vn 0 1 0

# texcoords
vt 0.0332031 0.5
vt 0.0371094 0.5
vt 0.0410156 0.5
vt 0.603516 0.5
vt 0.626953 0.5
vt 0.634766 0.5

# verts
v -5 -5 5
v -5 -5 -5
v -5 -3 -4
v -5 -3 -5
v -5 -1 -4
v -5 -1 -5
v -5 0 1
v -5 0 -1
v -5 1 3
v -5 1 1
v -5 1 -1
v -5 1 -3
v -5 2 4
v -5 2 3
v -5 2 -3
v -5 2 -4
v -5 3 5
v -5 3 4
v -5 3 -4
v -5 3 -5
v -5 5 5
v -5 5 -5
v 5 -5 5
v 5 -5 -5
v 5 0 1
v 5 0 -1
v 5 1 3
v 5 1 1
v 5 1 -1
v 5 1 -3
v 5 2 4
v 5 2 3
v 5 2 -3
v 5 2 -4
v 5 3 5
v 5 3 4
v 5 3 -4
v 5 3 -5
v 5 5 5
v 5 5 -5
v -5 -5 5
v -5 3 5
v -5 5 5
v -4 2 5
v -4 3 5
v -3 1 5
v -3 2 5
v -1 0 5
v -1 1 5
v 1 0 5
v 1 1 5
v 3 1 5
v 3 2 5
v 4 2 5
v 4 3 5
v 5 -5 5
v 5 3 5
v 5 5 5
v -5 -5 -5
v -5 -3 -5
v -5 -1 -5
v -5 3 -5
v -5 5 -5
v -4 -4 -5
v -4 -3 -5
v -4 -1 -5
v -4 0 -5
v -4 2 -5
v -4 3 -5
v -3 -5 -5
v -3 -4 -5
v -3 -3 -5
v -3 -2 -5
v -3 -1 -5
v -3 0 -5
v -3 2 -5
v -2 -3 -5
v -2 -2 -5
v -2 -1 -5
v -2 0 -5
v -2 1 -5
v -2 2 -5
v -1 -3 -5
v -1 -2 -5
v -1 0 -5
v -1 1 -5
v 0 -3 -5
v 0 -2 -5
v 0 0 -5
v 0 1 -5
v 1 -5 -5
v 1 -4 -5
v 1 -3 -5
v 1 -2 -5
v 1 0 -5
v 1 1 -5
v 1 2 -5
v 2 -4 -5
v 2 -3 -5
v 2 -1 -5
v 2 0 -5
v 2 1 -5
v 2 2 -5
v 3 -3 -5
v 3 -2 -5
v 3 -1 -5
v 4 2 -5
v 4 3 -5
v 5 -5 -5
v 5 3 -5
v 5 5 -5
v -5 -5 5
v 5 -5 5
v -3 -5 -4
v 1 -5 -4
v -5 -5 -5
v -3 -5 -5
v 1 -5 -5
v 5 -5 -5
v -5 5 5
v 5 5 5
v -5 5 -5
v 5 5 -5

# faces
f 3/3/1 2/3/1 1/3/1
f 4/3/1 2/3/1 3/3/1
f 5/3/1 3/3/1 1/3/1
f 5/5/1 4/5/1 3/5/1
f 6/5/1 4/5/1 5/5/1
f 7/3/1 5/3/1 1/3/1
f 7/3/1 6/3/1 5/3/1
f 8/3/1 6/3/1 7/3/1
f 9/3/1 7/3/1 1/3/1
f 10/1/1 8/1/1 7/1/1
f 10/3/1 7/3/1 9/3/1
f 11/3/1 6/3/1 8/3/1
f 11/1/1 8/1/1 10/1/1
f 12/3/1 6/3/1 11/3/1
f 13/3/1 9/3/1 1/3/1
f 14/1/1 10/1/1 9/1/1
f 14/3/1 9/3/1 13/3/1
f 14/1/1 11/1/1 10/1/1
f 14/1/1 12/1/1 11/1/1
f 15/3/1 6/3/1 12/3/1
f 15/1/1 12/1/1 14/1/1
f 16/3/1 6/3/1 15/3/1
f 17/3/1 13/3/1 1/3/1
f 18/1/1 14/1/1 13/1/1
f 18/3/1 13/3/1 17/3/1
f 18/1/1 15/1/1 14/1/1
f 18/1/1 16/1/1 15/1/1
f 19/3/1 6/3/1 16/3/1
f 19/1/1 16/1/1 18/1/1
f 20/3/1 6/3/1 19/3/1
f 21/1/1 18/1/1 17/1/1
f 21/1/1 19/1/1 18/1/1
f 21/1/1 20/1/1 19/1/1
f 22/1/1 20/1/1 21/1/1
f 23/3/2 24/3/2 25/3/2
f 25/3/2 24/3/2 26/3/2
f 23/3/2 25/3/2 27/3/2
f 25/1/2 26/1/2 28/1/2
f 27/3/2 25/3/2 28/3/2
f 26/3/2 24/3/2 29/3/2
f 28/1/2 26/1/2 29/1/2
f 29/3/2 24/3/2 30/3/2
f 23/3/2 27/3/2 31/3/2
f 27/1/2 28/1/2 32/1/2
f 31/3/2 27/3/2 32/3/2
f 28/1/2 29/1/2 32/1/2
f 29/1/2 30/1/2 32/1/2
f 30/3/2 24/3/2 33/3/2
f 32/1/2 30/1/2 33/1/2
f 33/3/2 24/3/2 34/3/2
f 23/3/2 31/3/2 35/3/2
f 31/1/2 32/1/2 36/1/2
f 35/3/2 31/3/2 36/3/2
f 32/1/2 33/1/2 36/1/2
f 33/1/2 34/1/2 36/1/2
f 34/3/2 24/3/2 37/3/2
f 36/1/2 34/1/2 37/1/2
f 37/3/2 24/3/2 38/3/2
f 35/1/2 36/1/2 39/1/2
f 36/1/2 37/1/2 39/1/2
f 37/1/2 38/1/2 39/1/2
f 39/1/2 38/1/2 40/1/2
f 44/3/3 42/3/3 41/3/3
f 45/1/3 43/1/3 42/1/3
f 45/3/3 42/3/3 44/3/3
f 46/3/3 44/3/3 41/3/3
f 47/1/3 45/1/3 44/1/3
f 47/3/3 44/3/3 46/3/3
f 48/3/3 46/3/3 41/3/3
f 49/1/3 47/1/3 46/1/3
f 49/3/3 46/3/3 48/3/3
f 50/3/3 48/3/3 41/3/3
f 50/1/3 49/1/3 48/1/3
f 51/1/3 47/1/3 49/1/3
f 51/1/3 49/1/3 50/1/3
f 52/3/3 51/3/3 50/3/3
f 52/1/3 47/1/3 51/1/3
f 53/1/3 45/1/3 47/1/3
f 53/1/3 47/1/3 52/1/3
f 54/3/3 53/3/3 52/3/3
f 54/1/3 45/1/3 53/1/3
f 55/1/3 43/1/3 45/1/3
f 55/1/3 45/1/3 54/1/3
f 56/3/3 54/3/3 52/3/3
f 56/3/3 52/3/3 50/3/3
f 56/3/3 55/3/3 54/3/3
f 56/3/3 50/3/3 41/3/3
f 57/1/3 43/1/3 55/1/3
f 57/3/3 55/3/3 56/3/3
f 58/1/3 43/1/3 57/1/3
f 59/3/4 60/3/4 64/3/4
f 60/5/4 61/5/4 65/5/4
f 64/3/4 60/3/4 65/3/4
f 61/3/4 62/3/4 66/3/4
f 65/5/4 61/5/4 66/5/4
f 66/3/4 62/3/4 67/3/4
f 67/3/4 62/3/4 68/3/4
f 62/1/4 63/1/4 69/1/4
f 68/3/4 62/3/4 69/3/4
f 59/3/4 64/3/4 70/3/4
f 64/5/4 65/5/4 71/5/4
f 70/3/4 64/3/4 71/3/4
f 65/6/4 66/6/4 72/6/4
f 71/5/4 65/5/4 72/5/4
f 72/6/4 66/6/4 73/6/4
f 66/5/4 67/5/4 74/5/4
f 73/6/4 66/6/4 74/6/4
f 67/3/4 68/3/4 75/3/4
f 74/5/4 67/5/4 75/5/4
f 68/1/4 69/1/4 76/1/4
f 75/3/4 68/3/4 76/3/4
f 72/6/4 73/6/4 77/6/4
f 71/6/4 72/6/4 77/6/4
f 73/4/4 74/4/4 78/4/4
f 77/6/4 73/6/4 78/6/4
f 74/6/4 75/6/4 79/6/4
f 78/4/4 74/4/4 79/4/4
f 75/5/4 76/5/4 80/5/4
f 79/6/4 75/6/4 80/6/4
f 80/5/4 76/5/4 81/5/4
f 76/1/4 69/1/4 82/1/4
f 81/5/4 76/5/4 82/5/4
f 71/6/4 77/6/4 83/6/4
f 77/4/4 78/4/4 83/4/4
f 78/4/4 79/4/4 83/4/4
f 79/4/4 80/4/4 83/4/4
f 83/4/4 80/4/4 84/4/4
f 80/6/4 81/6/4 85/6/4
f 84/4/4 80/4/4 85/4/4
f 81/4/4 82/4/4 86/4/4
f 85/6/4 81/6/4 86/6/4
f 83/6/4 84/6/4 87/6/4
f 71/6/4 83/6/4 87/6/4
f 84/4/4 85/4/4 88/4/4
f 87/6/4 84/6/4 88/6/4
f 85/4/4 86/4/4 88/4/4
f 88/4/4 86/4/4 89/4/4
f 86/4/4 82/4/4 90/4/4
f 89/4/4 86/4/4 90/4/4
f 70/5/4 71/5/4 91/5/4
f 71/6/4 87/6/4 92/6/4
f 91/5/4 71/5/4 92/5/4
f 88/4/4 89/4/4 93/4/4
f 92/6/4 87/6/4 93/6/4
f 87/4/4 88/4/4 93/4/4
f 93/4/4 89/4/4 94/4/4
f 89/6/4 90/6/4 95/6/4
f 94/4/4 89/4/4 95/4/4
f 90/4/4 82/4/4 96/4/4
f 95/6/4 90/6/4 96/6/4
f 82/1/4 69/1/4 97/1/4
f 96/4/4 82/4/4 97/4/4
f 91/3/4 92/3/4 98/3/4
f 93/6/4 94/6/4 98/6/4
f 92/6/4 93/6/4 98/6/4
f 98/6/4 94/6/4 99/6/4
f 94/4/4 95/4/4 100/4/4
f 95/3/4 96/3/4 101/3/4
f 100/4/4 95/4/4 101/4/4
f 96/1/4 97/1/4 102/1/4
f 101/3/4 96/3/4 102/3/4
f 97/1/4 69/1/4 103/1/4
f 102/1/4 97/1/4 103/1/4
f 99/6/4 94/6/4 104/6/4
f 98/3/4 99/3/4 104/3/4
f 94/4/4 100/4/4 105/4/4
f 104/6/4 94/6/4 105/6/4
f 101/3/4 102/3/4 106/3/4
f 105/4/4 100/4/4 106/4/4
f 100/3/4 101/3/4 106/3/4
f 102/3/4 103/3/4 106/3/4
f 103/1/4 69/1/4 107/1/4
f 106/3/4 103/3/4 107/3/4
f 105/3/4 106/3/4 107/3/4
f 104/3/4 105/3/4 107/3/4
f 69/1/4 63/1/4 108/1/4
f 107/1/4 69/1/4 108/1/4
f 98/3/4 104/3/4 109/3/4
f 104/3/4 107/3/4 109/3/4
f 107/3/4 108/3/4 109/3/4
f 91/3/4 98/3/4 109/3/4
f 108/1/4 63/1/4 110/1/4
f 109/3/4 108/3/4 110/3/4
f 110/1/4 63/1/4 111/1/4
f 114/3/5 113/3/5 112/3/5
f 115/3/5 113/3/5 114/3/5
f 116/3/5 114/3/5 112/3/5
f 117/5/5 115/5/5 114/5/5
f 117/3/5 114/3/5 116/3/5
f 118/3/5 113/3/5 115/3/5
f 118/5/5 115/5/5 117/5/5
f 119/3/5 113/3/5 118/3/5
f 120/1/6 121/1/6 122/1/6
f 122/1/6 121/1/6 123/1/6
