# MagicaVoxel @ Ephtracy

# group
g Terrain_Snow_Decoration-2

# material
mtllib Terrain_Snow_Decoration-2.mtl
usemtl palette

# normals
vn -1 0 0
vn 1 0 0
vn 0 0 1
vn 0 0 -1
vn 0 -1 0
vn 0 1 0

# texcoords
vt 0.0332031 0.5
vt 0.0410156 0.5
vt 0.587891 0.5
vt 0.626953 0.5
vt 0.654297 0.5

# verts
v -5 -10 5
v -5 -10 -4
v -5 -10 -5
v -5 -6 -4
v -5 -6 -5
v -5 -1 -2
v -5 -1 -5
v -5 0 -2
v -5 0 -4
v -5 2 -4
v -5 2 -5
v -5 4 -4
v -5 4 -5
v -5 8 -4
v -5 8 -5
v -5 10 5
v -5 10 -5
v 5 -10 5
v 5 -10 1
v 5 -10 -1
v 5 -10 -5
v 5 -9 2
v 5 -9 1
v 5 -9 -1
v 5 -9 -2
v 5 -8 3
v 5 -8 2
v 5 -8 -2
v 5 -8 -3
v 5 -7 3
v 5 -7 2
v 5 -7 -2
v 5 -7 -3
v 5 -6 2
v 5 -6 1
v 5 -6 -1
v 5 -6 -2
v 5 -5 1
v 5 -5 -1
v 5 -5 -4
v 5 -5 -5
v 5 -4 5
v 5 -4 3
v 5 -4 -3
v 5 -4 -4
v 5 -3 3
v 5 -3 2
v 5 -3 -3
v 5 -3 -4
v 5 -2 -4
v 5 -2 -5
v 5 -1 3
v 5 -1 2
v 5 0 5
v 5 0 3
v 5 5 1
v 5 5 -1
v 5 6 3
v 5 6 1
v 5 6 -1
v 5 6 -3
v 5 7 4
v 5 7 3
v 5 7 -3
v 5 7 -4
v 5 8 5
v 5 8 4
v 5 8 -4
v 5 8 -5
v 5 10 5
v 5 10 -5
v -5 -10 5
v -5 10 5
v 4 -10 5
v 4 -4 5
v 4 0 5
v 4 8 5
v 5 -10 5
v 5 -4 5
v 5 0 5
v 5 8 5
v 5 10 5
v -5 -10 -5
v -5 -6 -5
v -5 -1 -5
v -5 2 -5
v -5 4 -5
v -5 8 -5
v -5 10 -5
v -4 -7 -5
v -4 -6 -5
v -4 -1 -5
v -4 0 -5
v -4 1 -5
v -4 2 -5
v -4 4 -5
v -4 7 -5
v -4 8 -5
v -3 0 -5
v -3 1 -5
v -3 2 -5
v -3 4 -5
v -3 5 -5
v -2 -7 -5
v -2 -6 -5
v -2 -2 -5
v -2 0 -5
v -2 1 -5
v -2 5 -5
v -2 6 -5
v -2 7 -5
v -1 -6 -5
v -1 -5 -5
v -1 -4 -5
v -1 -2 -5
v -1 0 -5
v 0 -6 -5
v 0 -5 -5
v 0 -4 -5
v 0 -2 -5
v 0 -1 -5
v 0 0 -5
v 0 1 -5
v 0 4 -5
v 0 5 -5
v 0 6 -5
v 1 -9 -5
v 1 -8 -5
v 1 -7 -5
v 1 -6 -5
v 1 -4 -5
v 1 -1 -5
v 1 0 -5
v 1 1 -5
v 1 4 -5
v 1 5 -5
v 1 6 -5
v 2 -10 -5
v 2 -9 -5
v 2 -8 -5
v 2 -7 -5
v 2 0 -5
v 2 1 -5
v 2 6 -5
v 2 7 -5
v 3 -10 -5
v 3 -9 -5
v 3 -8 -5
v 3 -7 -5
v 3 -6 -5
v 3 -5 -5
v 3 -1 -5
v 3 0 -5
v 4 -9 -5
v 4 -8 -5
v 4 -6 -5
v 4 -5 -5
v 4 -2 -5
v 4 -1 -5
v 4 7 -5
v 4 8 -5
v 5 -10 -5
v 5 -5 -5
v 5 -2 -5
v 5 8 -5
v 5 10 -5
v -5 -10 5
v 4 -10 5
v 5 -10 5
v 4 -10 1
v 5 -10 1
v 4 -10 -1
v 5 -10 -1
v -5 -10 -4
v 2 -10 -4
v 3 -10 -4
v 4 -10 -4
v -5 -10 -5
v 2 -10 -5
v 3 -10 -5
v 5 -10 -5
v -5 10 5
v 5 10 5
v -5 10 -5
v 5 10 -5

# faces
f 4/1/1 2/1/1 1/1/1
f 4/2/1 3/2/1 2/2/1
f 5/2/1 3/2/1 4/2/1
f 6/1/1 4/1/1 1/1/1
f 6/1/1 5/1/1 4/1/1
f 7/1/1 5/1/1 6/1/1
f 8/1/1 6/1/1 1/1/1
f 8/2/1 7/2/1 6/2/1
f 9/2/1 7/2/1 8/2/1
f 10/1/1 9/1/1 8/1/1
f 10/2/1 7/2/1 9/2/1
f 11/2/1 7/2/1 10/2/1
f 12/1/1 10/1/1 8/1/1
f 12/4/1 11/4/1 10/4/1
f 13/4/1 11/4/1 12/4/1
f 14/1/1 12/1/1 8/1/1
f 14/2/1 13/2/1 12/2/1
f 15/2/1 13/2/1 14/2/1
f 16/1/1 8/1/1 1/1/1
f 16/1/1 14/1/1 8/1/1
f 16/1/1 15/1/1 14/1/1
f 17/1/1 15/1/1 16/1/1
f 18/2/2 19/2/2 22/2/2
f 19/1/2 20/1/2 23/1/2
f 22/2/2 19/2/2 23/2/2
f 20/2/2 21/2/2 24/2/2
f 23/1/2 20/1/2 24/1/2
f 24/2/2 21/2/2 25/2/2
f 18/2/2 22/2/2 26/2/2
f 22/1/2 23/1/2 27/1/2
f 26/2/2 22/2/2 27/2/2
f 23/1/2 24/1/2 27/1/2
f 24/1/2 25/1/2 27/1/2
f 25/2/2 21/2/2 28/2/2
f 27/1/2 25/1/2 28/1/2
f 28/2/2 21/2/2 29/2/2
f 18/2/2 26/2/2 30/2/2
f 26/1/2 27/1/2 30/1/2
f 28/1/2 29/1/2 30/1/2
f 27/1/2 28/1/2 30/1/2
f 30/1/2 29/1/2 31/1/2
f 31/1/2 29/1/2 32/1/2
f 29/2/2 21/2/2 33/2/2
f 32/1/2 29/1/2 33/1/2
f 31/1/2 32/1/2 34/1/2
f 30/2/2 31/2/2 34/2/2
f 34/1/2 32/1/2 35/1/2
f 35/1/2 32/1/2 36/1/2
f 32/2/2 33/2/2 37/2/2
f 36/1/2 32/1/2 37/1/2
f 35/1/2 36/1/2 38/1/2
f 34/2/2 35/2/2 38/2/2
f 36/2/2 37/2/2 39/2/2
f 38/1/2 36/1/2 39/1/2
f 33/2/2 21/2/2 40/2/2
f 39/2/2 37/2/2 40/2/2
f 37/2/2 33/2/2 40/2/2
f 40/2/2 21/2/2 41/2/2
f 38/2/2 39/2/2 42/2/2
f 18/2/2 30/2/2 42/2/2
f 34/2/2 38/2/2 42/2/2
f 39/2/2 40/2/2 42/2/2
f 30/2/2 34/2/2 42/2/2
f 42/2/2 40/2/2 43/2/2
f 43/2/2 40/2/2 44/2/2
f 40/1/2 41/1/2 45/1/2
f 44/2/2 40/2/2 45/2/2
f 43/2/2 44/2/2 46/2/2
f 42/1/2 43/1/2 46/1/2
f 46/2/2 44/2/2 47/2/2
f 44/1/2 45/1/2 48/1/2
f 47/2/2 44/2/2 48/2/2
f 45/1/2 41/1/2 49/1/2
f 48/1/2 45/1/2 49/1/2
f 47/2/2 48/2/2 50/2/2
f 49/1/2 41/1/2 50/1/2
f 48/2/2 49/2/2 50/2/2
f 50/1/2 41/1/2 51/1/2
f 42/1/2 46/1/2 52/1/2
f 46/1/2 47/1/2 52/1/2
f 50/2/2 51/2/2 53/2/2
f 52/1/2 47/1/2 53/1/2
f 47/2/2 50/2/2 53/2/2
f 42/1/2 52/1/2 54/1/2
f 52/2/2 53/2/2 55/2/2
f 54/1/2 52/1/2 55/1/2
f 53/2/2 51/2/2 56/2/2
f 55/2/2 53/2/2 56/2/2
f 54/2/2 55/2/2 56/2/2
f 56/2/2 51/2/2 57/2/2
f 54/2/2 56/2/2 58/2/2
f 56/1/2 57/1/2 59/1/2
f 58/2/2 56/2/2 59/2/2
f 57/2/2 51/2/2 60/2/2
f 59/1/2 57/1/2 60/1/2
f 60/2/2 51/2/2 61/2/2
f 54/2/2 58/2/2 62/2/2
f 58/1/2 59/1/2 63/1/2
f 62/2/2 58/2/2 63/2/2
f 59/1/2 60/1/2 63/1/2
f 60/1/2 61/1/2 63/1/2
f 61/2/2 51/2/2 64/2/2
f 63/1/2 61/1/2 64/1/2
f 64/2/2 51/2/2 65/2/2
f 54/2/2 62/2/2 66/2/2
f 62/1/2 63/1/2 67/1/2
f 66/2/2 62/2/2 67/2/2
f 63/1/2 64/1/2 67/1/2
f 64/1/2 65/1/2 67/1/2
f 65/2/2 51/2/2 68/2/2
f 67/1/2 65/1/2 68/1/2
f 68/2/2 51/2/2 69/2/2
f 66/1/2 67/1/2 70/1/2
f 67/1/2 68/1/2 70/1/2
f 68/1/2 69/1/2 70/1/2
f 70/1/2 69/1/2 71/1/2
f 74/1/3 73/1/3 72/1/3
f 75/1/3 73/1/3 74/1/3
f 76/1/3 73/1/3 75/1/3
f 77/1/3 73/1/3 76/1/3
f 78/2/3 75/2/3 74/2/3
f 79/1/3 76/1/3 75/1/3
f 79/2/3 75/2/3 78/2/3
f 80/2/3 77/2/3 76/2/3
f 80/1/3 76/1/3 79/1/3
f 81/1/3 73/1/3 77/1/3
f 81/2/3 77/2/3 80/2/3
f 82/1/3 73/1/3 81/1/3
f 83/2/4 84/2/4 90/2/4
f 84/1/4 85/1/4 91/1/4
f 90/2/4 84/2/4 91/2/4
f 85/2/4 86/2/4 92/2/4
f 91/1/4 85/1/4 92/1/4
f 92/2/4 86/2/4 93/2/4
f 93/2/4 86/2/4 94/2/4
f 86/4/4 87/4/4 95/4/4
f 94/2/4 86/2/4 95/2/4
f 87/2/4 88/2/4 96/2/4
f 95/4/4 87/4/4 96/4/4
f 96/2/4 88/2/4 97/2/4
f 88/1/4 89/1/4 98/1/4
f 97/2/4 88/2/4 98/2/4
f 90/1/4 91/1/4 99/1/4
f 93/2/4 94/2/4 99/2/4
f 91/1/4 92/1/4 99/1/4
f 92/1/4 93/1/4 99/1/4
f 94/4/4 95/4/4 100/4/4
f 99/2/4 94/2/4 100/2/4
f 95/3/4 96/3/4 101/3/4
f 100/4/4 95/4/4 101/4/4
f 96/2/4 97/2/4 102/2/4
f 101/3/4 96/3/4 102/3/4
f 102/2/4 97/2/4 103/2/4
f 83/2/4 90/2/4 104/2/4
f 90/1/4 99/1/4 104/1/4
f 104/1/4 99/1/4 105/1/4
f 105/1/4 99/1/4 106/1/4
f 99/4/4 100/4/4 107/4/4
f 106/1/4 99/1/4 107/1/4
f 100/3/4 101/3/4 108/3/4
f 107/4/4 100/4/4 108/4/4
f 102/3/4 103/3/4 108/3/4
f 101/3/4 102/3/4 108/3/4
f 103/2/4 97/2/4 109/2/4
f 108/3/4 103/3/4 109/3/4
f 109/2/4 97/2/4 110/2/4
f 97/1/4 98/1/4 111/1/4
f 110/2/4 97/2/4 111/2/4
f 104/2/4 105/2/4 112/2/4
f 105/1/4 106/1/4 112/1/4
f 112/1/4 106/1/4 113/1/4
f 113/1/4 106/1/4 114/1/4
f 106/4/4 107/4/4 115/4/4
f 114/1/4 106/1/4 115/1/4
f 107/3/4 108/3/4 116/3/4
f 115/4/4 107/4/4 116/4/4
f 109/3/4 110/3/4 116/3/4
f 108/3/4 109/3/4 116/3/4
f 112/2/4 113/2/4 117/2/4
f 104/2/4 112/2/4 117/2/4
f 113/1/4 114/1/4 118/1/4
f 117/2/4 113/2/4 118/2/4
f 114/4/4 115/4/4 119/4/4
f 118/1/4 114/1/4 119/1/4
f 115/5/4 116/5/4 120/5/4
f 119/4/4 115/4/4 120/4/4
f 120/5/4 116/5/4 121/5/4
f 116/3/4 110/3/4 122/3/4
f 121/5/4 116/5/4 122/5/4
f 122/3/4 110/3/4 123/3/4
f 123/3/4 110/3/4 124/3/4
f 124/3/4 110/3/4 125/3/4
f 110/1/4 111/1/4 126/1/4
f 125/3/4 110/3/4 126/3/4
f 104/2/4 117/2/4 127/2/4
f 83/2/4 104/2/4 127/2/4
f 127/2/4 117/2/4 128/2/4
f 128/2/4 117/2/4 129/2/4
f 117/4/4 118/4/4 130/4/4
f 129/2/4 117/2/4 130/2/4
f 118/4/4 119/4/4 130/4/4
f 120/3/4 121/3/4 131/3/4
f 130/4/4 119/4/4 131/4/4
f 119/3/4 120/3/4 131/3/4
f 121/5/4 122/5/4 132/5/4
f 131/3/4 121/3/4 132/3/4
f 122/5/4 123/5/4 132/5/4
f 132/5/4 123/5/4 133/5/4
f 123/3/4 124/3/4 134/3/4
f 133/5/4 123/5/4 134/5/4
f 124/2/4 125/2/4 135/2/4
f 134/3/4 124/3/4 135/3/4
f 125/1/4 126/1/4 136/1/4
f 135/2/4 125/2/4 136/2/4
f 126/1/4 111/1/4 137/1/4
f 136/1/4 126/1/4 137/1/4
f 83/2/4 127/2/4 138/2/4
f 127/1/4 128/1/4 139/1/4
f 138/2/4 127/2/4 139/2/4
f 128/2/4 129/2/4 140/2/4
f 139/1/4 128/1/4 140/1/4
f 129/4/4 130/4/4 141/4/4
f 140/2/4 129/2/4 141/2/4
f 133/5/4 134/5/4 142/5/4
f 130/3/4 131/3/4 142/3/4
f 132/3/4 133/3/4 142/3/4
f 131/3/4 132/3/4 142/3/4
f 135/2/4 136/2/4 143/2/4
f 142/5/4 134/5/4 143/5/4
f 134/2/4 135/2/4 143/2/4
f 136/2/4 137/2/4 143/2/4
f 137/1/4 111/1/4 144/1/4
f 143/2/4 137/2/4 144/2/4
f 111/1/4 98/1/4 145/1/4
f 144/1/4 111/1/4 145/1/4
f 138/1/4 139/1/4 146/1/4
f 139/1/4 140/1/4 146/1/4
f 140/1/4 141/1/4 146/1/4
f 146/1/4 141/1/4 147/1/4
f 147/1/4 141/1/4 148/1/4
f 141/4/4 130/4/4 149/4/4
f 148/1/4 141/1/4 149/1/4
f 130/3/4 142/3/4 150/3/4
f 149/4/4 130/4/4 150/4/4
f 150/3/4 142/3/4 151/3/4
f 151/3/4 142/3/4 152/3/4
f 144/2/4 145/2/4 153/2/4
f 152/3/4 142/3/4 153/3/4
f 143/2/4 144/2/4 153/2/4
f 142/2/4 143/2/4 153/2/4
f 147/1/4 148/1/4 154/1/4
f 146/2/4 147/2/4 154/2/4
f 148/2/4 149/2/4 155/2/4
f 154/1/4 148/1/4 155/1/4
f 149/2/4 150/2/4 155/2/4
f 150/4/4 151/4/4 156/4/4
f 155/2/4 150/2/4 156/2/4
f 151/3/4 152/3/4 157/3/4
f 156/4/4 151/4/4 157/4/4
f 157/3/4 152/3/4 158/3/4
f 152/2/4 153/2/4 159/2/4
f 158/3/4 152/3/4 159/3/4
f 145/1/4 98/1/4 160/1/4
f 159/2/4 153/2/4 160/2/4
f 153/2/4 145/2/4 160/2/4
f 98/1/4 89/1/4 161/1/4
f 160/1/4 98/1/4 161/1/4
f 146/2/4 154/2/4 162/2/4
f 155/2/4 156/2/4 162/2/4
f 154/2/4 155/2/4 162/2/4
f 156/2/4 157/2/4 162/2/4
f 157/1/4 158/1/4 163/1/4
f 162/2/4 157/2/4 163/2/4
f 158/2/4 159/2/4 164/2/4
f 163/1/4 158/1/4 164/1/4
f 159/2/4 160/2/4 164/2/4
f 160/2/4 161/2/4 164/2/4
f 161/1/4 89/1/4 165/1/4
f 164/2/4 161/2/4 165/2/4
f 165/1/4 89/1/4 166/1/4
f 170/1/5 168/1/5 167/1/5
f 170/2/5 169/2/5 168/2/5
f 171/2/5 169/2/5 170/2/5
f 172/1/5 170/1/5 167/1/5
f 172/1/5 171/1/5 170/1/5
f 173/1/5 171/1/5 172/1/5
f 174/1/5 172/1/5 167/1/5
f 175/1/5 172/1/5 174/1/5
f 176/1/5 172/1/5 175/1/5
f 177/2/5 173/2/5 172/2/5
f 177/1/5 172/1/5 176/1/5
f 178/2/5 175/2/5 174/2/5
f 179/1/5 176/1/5 175/1/5
f 179/2/5 175/2/5 178/2/5
f 180/2/5 177/2/5 176/2/5
f 180/1/5 176/1/5 179/1/5
f 181/2/5 173/2/5 177/2/5
f 181/2/5 177/2/5 180/2/5
f 182/1/6 183/1/6 184/1/6
f 184/1/6 183/1/6 185/1/6
