# MagicaVoxel @ Ephtracy

# group
g Terrain_Snow_Decoration-0

# material
mtllib Terrain_Snow_Decoration-0.mtl
usemtl palette

# normals
vn -1 0 0
vn 1 0 0
vn 0 0 1
vn 0 0 -1
vn 0 -1 0
vn 0 1 0

# texcoords
vt 0.0332031 0.5
vt 0.0410156 0.5
vt 0.400391 0.5
vt 0.611328 0.5
vt 0.626953 0.5
vt 0.642578 0.5

# verts
v -10 -10 5
v -10 -10 -4
v -10 -10 -5
v -10 -6 -4
v -10 -6 -5
v -10 -1 -4
v -10 -1 -5
v -10 8 -4
v -10 8 -5
v -10 10 5
v -10 10 -5
v 10 -10 5
v 10 -10 1
v 10 -10 -1
v 10 -10 -5
v 10 -9 2
v 10 -9 1
v 10 -9 -1
v 10 -9 -2
v 10 -8 3
v 10 -8 2
v 10 -8 -2
v 10 -8 -3
v 10 -7 3
v 10 -7 2
v 10 -7 -2
v 10 -7 -3
v 10 -6 2
v 10 -6 1
v 10 -6 -1
v 10 -6 -2
v 10 -5 1
v 10 -5 -1
v 10 -5 -4
v 10 -5 -5
v 10 -4 5
v 10 -4 3
v 10 -4 -3
v 10 -4 -4
v 10 -3 3
v 10 -3 2
v 10 -3 -3
v 10 -3 -4
v 10 -2 -4
v 10 -2 -5
v 10 -1 3
v 10 -1 2
v 10 0 5
v 10 0 3
v 10 5 1
v 10 5 -1
v 10 6 3
v 10 6 1
v 10 6 -1
v 10 6 -3
v 10 7 4
v 10 7 3
v 10 7 -3
v 10 7 -4
v 10 8 5
v 10 8 4
v 10 8 -4
v 10 8 -5
v 10 10 5
v 10 10 -5
v -10 -10 5
v -10 10 5
v 9 -10 5
v 9 -4 5
v 9 0 5
v 9 8 5
v 10 -10 5
v 10 -4 5
v 10 0 5
v 10 8 5
v 10 10 5
v -10 -10 -5
v -10 -6 -5
v -10 -1 -5
v -10 8 -5
v -10 10 -5
v -9 -7 -5
v -9 -6 -5
v -9 -1 -5
v -9 0 -5
v -9 7 -5
v -9 8 -5
v -7 -7 -5
v -7 -6 -5
v -7 -5 -5
v -7 -2 -5
v -7 -1 -5
v -7 0 -5
v -7 5 -5
v -7 6 -5
v -7 7 -5
v -6 -6 -5
v -6 -5 -5
v -6 -3 -5
v -6 -2 -5
v -6 -1 -5
v -6 0 -5
v -6 5 -5
v -6 6 -5
v -5 -7 -5
v -5 -6 -5
v -5 -5 -5
v -5 -4 -5
v -5 -3 -5
v -5 -2 -5
v -5 0 -5
v -5 4 -5
v -5 5 -5
v -5 6 -5
v -4 -9 -5
v -4 -8 -5
v -4 -7 -5
v -4 -6 -5
v -4 -3 -5
v -4 -2 -5
v -4 0 -5
v -4 1 -5
v -4 3 -5
v -4 4 -5
v -4 5 -5
v -4 6 -5
v -3 -10 -5
v -3 -9 -5
v -3 -4 -5
v -3 -3 -5
v -3 0 -5
v -3 1 -5
v -3 3 -5
v -3 4 -5
v -3 5 -5
v -3 6 -5
v -3 7 -5
v -2 -10 -5
v -2 -9 -5
v -2 -8 -5
v -2 -7 -5
v -2 -5 -5
v -1 -9 -5
v -1 -8 -5
v -1 -6 -5
v -1 -5 -5
v -1 1 -5
v -1 2 -5
v -1 3 -5
v -1 4 -5
v -1 7 -5
v -1 8 -5
v 0 -8 -5
v 0 -7 -5
v 0 -6 -5
v 0 1 -5
v 0 2 -5
v 0 3 -5
v 1 -1 -5
v 1 1 -5
v 1 6 -5
v 1 7 -5
v 1 8 -5
v 2 -8 -5
v 2 -7 -5
v 2 -3 -5
v 2 -1 -5
v 2 0 -5
v 2 6 -5
v 2 7 -5
v 3 -9 -5
v 3 -8 -5
v 3 -7 -5
v 3 -6 -5
v 3 -4 -5
v 3 -3 -5
v 3 -2 -5
v 3 0 -5
v 3 4 -5
v 3 6 -5
v 3 7 -5
v 4 -10 -5
v 4 -9 -5
v 4 -6 -5
v 4 -5 -5
v 4 -3 -5
v 4 -2 -5
v 4 2 -5
v 4 4 -5
v 4 5 -5
v 4 6 -5
v 5 -4 -5
v 5 -3 -5
v 5 2 -5
v 5 3 -5
v 5 4 -5
v 5 5 -5
v 6 -10 -5
v 6 -9 -5
v 6 -6 -5
v 6 -5 -5
v 6 -3 -5
v 6 3 -5
v 6 4 -5
v 6 5 -5
v 6 6 -5
v 7 -9 -5
v 7 -8 -5
v 7 -7 -5
v 7 -6 -5
v 7 6 -5
v 7 7 -5
v 8 -8 -5
v 8 -7 -5
v 8 -4 -5
v 8 -3 -5
v 9 -5 -5
v 9 -4 -5
v 9 -3 -5
v 9 -2 -5
v 9 7 -5
v 9 8 -5
v 10 -10 -5
v 10 -5 -5
v 10 -2 -5
v 10 8 -5
v 10 10 -5
v -10 -10 5
v 9 -10 5
v 10 -10 5
v 9 -10 1
v 10 -10 1
v 9 -10 -1
v 10 -10 -1
v -10 -10 -4
v -3 -10 -4
v -2 -10 -4
v 4 -10 -4
v 6 -10 -4
v 9 -10 -4
v -10 -10 -5
v -3 -10 -5
v -2 -10 -5
v 4 -10 -5
v 6 -10 -5
v 10 -10 -5
v -10 10 5
v 10 10 5
v -10 10 -5
v 10 10 -5

# faces
f 4/1/1 2/1/1 1/1/1
f 4/2/1 3/2/1 2/2/1
f 5/2/1 3/2/1 4/2/1
f 6/1/1 4/1/1 1/1/1
f 6/1/1 5/1/1 4/1/1
f 7/1/1 5/1/1 6/1/1
f 8/1/1 6/1/1 1/1/1
f 8/2/1 7/2/1 6/2/1
f 9/2/1 7/2/1 8/2/1
f 10/1/1 8/1/1 1/1/1
f 10/1/1 9/1/1 8/1/1
f 11/1/1 9/1/1 10/1/1
f 12/2/2 13/2/2 16/2/2
f 13/1/2 14/1/2 17/1/2
f 16/2/2 13/2/2 17/2/2
f 14/2/2 15/2/2 18/2/2
f 17/1/2 14/1/2 18/1/2
f 18/2/2 15/2/2 19/2/2
f 12/2/2 16/2/2 20/2/2
f 16/1/2 17/1/2 21/1/2
f 20/2/2 16/2/2 21/2/2
f 17/1/2 18/1/2 21/1/2
f 18/1/2 19/1/2 21/1/2
f 19/2/2 15/2/2 22/2/2
f 21/1/2 19/1/2 22/1/2
f 22/2/2 15/2/2 23/2/2
f 12/2/2 20/2/2 24/2/2
f 20/1/2 21/1/2 24/1/2
f 22/1/2 23/1/2 24/1/2
f 21/1/2 22/1/2 24/1/2
f 24/1/2 23/1/2 25/1/2
f 25/1/2 23/1/2 26/1/2
f 23/2/2 15/2/2 27/2/2
f 26/1/2 23/1/2 27/1/2
f 25/1/2 26/1/2 28/1/2
f 24/2/2 25/2/2 28/2/2
f 28/1/2 26/1/2 29/1/2
f 29/1/2 26/1/2 30/1/2
f 26/2/2 27/2/2 31/2/2
f 30/1/2 26/1/2 31/1/2
f 29/1/2 30/1/2 32/1/2
f 28/2/2 29/2/2 32/2/2
f 30/2/2 31/2/2 33/2/2
f 32/1/2 30/1/2 33/1/2
f 27/2/2 15/2/2 34/2/2
f 33/2/2 31/2/2 34/2/2
f 31/2/2 27/2/2 34/2/2
f 34/2/2 15/2/2 35/2/2
f 32/2/2 33/2/2 36/2/2
f 12/2/2 24/2/2 36/2/2
f 28/2/2 32/2/2 36/2/2
f 33/2/2 34/2/2 36/2/2
f 24/2/2 28/2/2 36/2/2
f 36/2/2 34/2/2 37/2/2
f 37/2/2 34/2/2 38/2/2
f 34/1/2 35/1/2 39/1/2
f 38/2/2 34/2/2 39/2/2
f 37/2/2 38/2/2 40/2/2
f 36/1/2 37/1/2 40/1/2
f 40/2/2 38/2/2 41/2/2
f 38/1/2 39/1/2 42/1/2
f 41/2/2 38/2/2 42/2/2
f 39/1/2 35/1/2 43/1/2
f 42/1/2 39/1/2 43/1/2
f 41/2/2 42/2/2 44/2/2
f 43/1/2 35/1/2 44/1/2
f 42/2/2 43/2/2 44/2/2
f 44/1/2 35/1/2 45/1/2
f 36/1/2 40/1/2 46/1/2
f 40/1/2 41/1/2 46/1/2
f 44/2/2 45/2/2 47/2/2
f 46/1/2 41/1/2 47/1/2
f 41/2/2 44/2/2 47/2/2
f 36/1/2 46/1/2 48/1/2
f 46/2/2 47/2/2 49/2/2
f 48/1/2 46/1/2 49/1/2
f 47/2/2 45/2/2 50/2/2
f 49/2/2 47/2/2 50/2/2
f 48/2/2 49/2/2 50/2/2
f 50/2/2 45/2/2 51/2/2
f 48/2/2 50/2/2 52/2/2
f 50/1/2 51/1/2 53/1/2
f 52/2/2 50/2/2 53/2/2
f 51/2/2 45/2/2 54/2/2
f 53/1/2 51/1/2 54/1/2
f 54/2/2 45/2/2 55/2/2
f 48/2/2 52/2/2 56/2/2
f 52/1/2 53/1/2 57/1/2
f 56/2/2 52/2/2 57/2/2
f 53/1/2 54/1/2 57/1/2
f 54/1/2 55/1/2 57/1/2
f 55/2/2 45/2/2 58/2/2
f 57/1/2 55/1/2 58/1/2
f 58/2/2 45/2/2 59/2/2
f 48/2/2 56/2/2 60/2/2
f 56/1/2 57/1/2 61/1/2
f 60/2/2 56/2/2 61/2/2
f 57/1/2 58/1/2 61/1/2
f 58/1/2 59/1/2 61/1/2
f 59/2/2 45/2/2 62/2/2
f 61/1/2 59/1/2 62/1/2
f 62/2/2 45/2/2 63/2/2
f 60/1/2 61/1/2 64/1/2
f 61/1/2 62/1/2 64/1/2
f 62/1/2 63/1/2 64/1/2
f 64/1/2 63/1/2 65/1/2
f 68/1/3 67/1/3 66/1/3
f 69/1/3 67/1/3 68/1/3
f 70/1/3 67/1/3 69/1/3
f 71/1/3 67/1/3 70/1/3
f 72/2/3 69/2/3 68/2/3
f 73/1/3 70/1/3 69/1/3
f 73/2/3 69/2/3 72/2/3
f 74/2/3 71/2/3 70/2/3
f 74/1/3 70/1/3 73/1/3
f 75/1/3 67/1/3 71/1/3
f 75/2/3 71/2/3 74/2/3
f 76/1/3 67/1/3 75/1/3
f 77/2/4 78/2/4 82/2/4
f 78/1/4 79/1/4 83/1/4
f 82/2/4 78/2/4 83/2/4
f 79/2/4 80/2/4 84/2/4
f 83/1/4 79/1/4 84/1/4
f 84/2/4 80/2/4 85/2/4
f 85/2/4 80/2/4 86/2/4
f 80/1/4 81/1/4 87/1/4
f 86/2/4 80/2/4 87/2/4
f 77/2/4 82/2/4 88/2/4
f 82/1/4 83/1/4 88/1/4
f 83/1/4 84/1/4 88/1/4
f 84/1/4 85/1/4 88/1/4
f 88/1/4 85/1/4 89/1/4
f 89/1/4 85/1/4 90/1/4
f 90/1/4 85/1/4 91/1/4
f 91/1/4 85/1/4 92/1/4
f 85/2/4 86/2/4 93/2/4
f 92/1/4 85/1/4 93/1/4
f 93/2/4 86/2/4 94/2/4
f 94/2/4 86/2/4 95/2/4
f 86/1/4 87/1/4 96/1/4
f 95/2/4 86/2/4 96/2/4
f 88/2/4 89/2/4 97/2/4
f 89/1/4 90/1/4 97/1/4
f 90/5/4 91/5/4 98/5/4
f 97/1/4 90/1/4 98/1/4
f 98/5/4 91/5/4 99/5/4
f 91/1/4 92/1/4 100/1/4
f 99/5/4 91/5/4 100/5/4
f 92/2/4 93/2/4 101/2/4
f 100/1/4 92/1/4 101/1/4
f 93/5/4 94/5/4 102/5/4
f 101/2/4 93/2/4 102/2/4
f 94/2/4 95/2/4 103/2/4
f 102/5/4 94/5/4 103/5/4
f 95/1/4 96/1/4 104/1/4
f 103/2/4 95/2/4 104/2/4
f 77/2/4 88/2/4 105/2/4
f 88/2/4 97/2/4 105/2/4
f 97/5/4 98/5/4 106/5/4
f 105/2/4 97/2/4 106/2/4
f 98/4/4 99/4/4 107/4/4
f 106/5/4 98/5/4 107/5/4
f 107/4/4 99/4/4 108/4/4
f 99/6/4 100/6/4 109/6/4
f 108/4/4 99/4/4 109/4/4
f 101/5/4 102/5/4 110/5/4
f 109/6/4 100/6/4 110/6/4
f 100/5/4 101/5/4 110/5/4
f 102/4/4 103/4/4 111/4/4
f 110/5/4 102/5/4 111/5/4
f 111/4/4 103/4/4 112/4/4
f 103/6/4 104/6/4 113/6/4
f 112/4/4 103/4/4 113/4/4
f 104/1/4 96/1/4 114/1/4
f 113/6/4 104/6/4 114/6/4
f 77/2/4 105/2/4 115/2/4
f 115/2/4 105/2/4 116/2/4
f 105/5/4 106/5/4 117/5/4
f 116/2/4 105/2/4 117/2/4
f 107/4/4 108/4/4 118/4/4
f 117/5/4 106/5/4 118/5/4
f 106/4/4 107/4/4 118/4/4
f 108/6/4 109/6/4 119/6/4
f 109/6/4 110/6/4 119/6/4
f 111/4/4 112/4/4 120/4/4
f 119/6/4 110/6/4 120/6/4
f 110/4/4 111/4/4 120/4/4
f 120/4/4 112/4/4 121/4/4
f 121/4/4 112/4/4 122/4/4
f 122/4/4 112/4/4 123/4/4
f 112/6/4 113/6/4 124/6/4
f 123/4/4 112/4/4 124/4/4
f 113/1/4 114/1/4 125/1/4
f 124/6/4 113/6/4 125/6/4
f 114/1/4 96/1/4 126/1/4
f 125/1/4 114/1/4 126/1/4
f 77/2/4 115/2/4 127/2/4
f 115/1/4 116/1/4 128/1/4
f 127/2/4 115/2/4 128/2/4
f 118/4/4 108/4/4 129/4/4
f 117/4/4 118/4/4 129/4/4
f 108/6/4 119/6/4 129/6/4
f 119/4/4 120/4/4 130/4/4
f 129/6/4 119/6/4 130/6/4
f 120/4/4 121/4/4 130/4/4
f 121/6/4 122/6/4 131/6/4
f 130/4/4 121/4/4 131/4/4
f 122/4/4 123/4/4 132/4/4
f 131/6/4 122/6/4 132/6/4
f 124/6/4 125/6/4 133/6/4
f 132/4/4 123/4/4 133/4/4
f 123/6/4 124/6/4 133/6/4
f 133/6/4 125/6/4 134/6/4
f 125/2/4 126/2/4 135/2/4
f 134/6/4 125/6/4 135/6/4
f 126/1/4 96/1/4 136/1/4
f 135/2/4 126/2/4 136/2/4
f 96/1/4 87/1/4 137/1/4
f 136/1/4 96/1/4 137/1/4
f 127/1/4 128/1/4 138/1/4
f 128/1/4 116/1/4 139/1/4
f 138/1/4 128/1/4 139/1/4
f 116/5/4 117/5/4 140/5/4
f 139/1/4 116/1/4 140/1/4
f 130/4/4 131/4/4 141/4/4
f 140/5/4 117/5/4 141/5/4
f 131/4/4 132/4/4 141/4/4
f 129/4/4 130/4/4 141/4/4
f 117/4/4 129/4/4 141/4/4
f 141/4/4 132/4/4 142/4/4
f 139/1/4 140/1/4 143/1/4
f 138/2/4 139/2/4 143/2/4
f 140/2/4 141/2/4 144/2/4
f 143/1/4 140/1/4 144/1/4
f 141/5/4 142/5/4 145/5/4
f 142/4/4 132/4/4 146/4/4
f 145/5/4 142/5/4 146/5/4
f 133/6/4 134/6/4 147/6/4
f 146/4/4 132/4/4 147/4/4
f 132/6/4 133/6/4 147/6/4
f 147/6/4 134/6/4 148/6/4
f 148/6/4 134/6/4 149/6/4
f 135/2/4 136/2/4 150/2/4
f 149/6/4 134/6/4 150/6/4
f 134/2/4 135/2/4 150/2/4
f 136/2/4 137/2/4 150/2/4
f 137/1/4 87/1/4 151/1/4
f 150/2/4 137/2/4 151/2/4
f 87/1/4 81/1/4 152/1/4
f 151/1/4 87/1/4 152/1/4
f 144/2/4 141/2/4 153/2/4
f 143/2/4 144/2/4 153/2/4
f 141/5/4 145/5/4 154/5/4
f 153/2/4 141/2/4 154/2/4
f 145/4/4 146/4/4 155/4/4
f 154/5/4 145/5/4 155/5/4
f 147/4/4 148/4/4 155/4/4
f 146/4/4 147/4/4 155/4/4
f 155/4/4 148/4/4 156/4/4
f 148/6/4 149/6/4 157/6/4
f 156/4/4 148/4/4 157/4/4
f 150/2/4 151/2/4 158/2/4
f 157/6/4 149/6/4 158/6/4
f 149/2/4 150/2/4 158/2/4
f 151/2/4 152/2/4 158/2/4
f 155/4/4 156/4/4 159/4/4
f 154/4/4 155/4/4 159/4/4
f 156/2/4 157/2/4 160/2/4
f 159/4/4 156/4/4 160/4/4
f 157/2/4 158/2/4 160/2/4
f 158/2/4 152/2/4 161/2/4
f 160/2/4 158/2/4 161/2/4
f 161/2/4 152/2/4 162/2/4
f 152/1/4 81/1/4 163/1/4
f 162/2/4 152/2/4 163/2/4
f 143/2/4 153/2/4 164/2/4
f 153/5/4 154/5/4 164/5/4
f 154/4/4 159/4/4 165/4/4
f 164/5/4 154/5/4 165/5/4
f 165/4/4 159/4/4 166/4/4
f 159/5/4 160/5/4 167/5/4
f 166/4/4 159/4/4 167/4/4
f 160/5/4 161/5/4 167/5/4
f 167/5/4 161/5/4 168/5/4
f 161/2/4 162/2/4 169/2/4
f 168/5/4 161/5/4 169/5/4
f 162/1/4 163/1/4 170/1/4
f 169/2/4 162/2/4 170/2/4
f 143/2/4 164/2/4 171/2/4
f 138/2/4 143/2/4 171/2/4
f 164/1/4 165/1/4 172/1/4
f 171/2/4 164/2/4 172/2/4
f 165/4/4 166/4/4 173/4/4
f 172/1/4 165/1/4 173/1/4
f 173/4/4 166/4/4 174/4/4
f 174/4/4 166/4/4 175/4/4
f 167/5/4 168/5/4 176/5/4
f 175/4/4 166/4/4 176/4/4
f 166/5/4 167/5/4 176/5/4
f 176/5/4 168/5/4 177/5/4
f 168/4/4 169/4/4 178/4/4
f 177/5/4 168/5/4 178/5/4
f 178/4/4 169/4/4 179/4/4
f 169/6/4 170/6/4 180/6/4
f 179/4/4 169/4/4 180/4/4
f 170/1/4 163/1/4 181/1/4
f 180/6/4 170/6/4 181/6/4
f 138/2/4 171/2/4 182/2/4
f 171/1/4 172/1/4 183/1/4
f 182/2/4 171/2/4 183/2/4
f 173/1/4 174/1/4 183/1/4
f 172/1/4 173/1/4 183/1/4
f 174/2/4 175/2/4 184/2/4
f 183/1/4 174/1/4 184/1/4
f 184/2/4 175/2/4 185/2/4
f 176/5/4 177/5/4 186/5/4
f 175/5/4 176/5/4 186/5/4
f 178/4/4 179/4/4 187/4/4
f 186/5/4 177/5/4 187/5/4
f 177/4/4 178/4/4 187/4/4
f 187/4/4 179/4/4 188/4/4
f 179/6/4 180/6/4 189/6/4
f 188/4/4 179/4/4 189/4/4
f 189/6/4 180/6/4 190/6/4
f 180/1/4 181/1/4 191/1/4
f 190/6/4 180/6/4 191/6/4
f 175/5/4 186/5/4 192/5/4
f 185/2/4 175/2/4 192/2/4
f 187/4/4 188/4/4 193/4/4
f 192/5/4 186/5/4 193/5/4
f 186/4/4 187/4/4 193/4/4
f 189/6/4 190/6/4 194/6/4
f 193/4/4 188/4/4 194/4/4
f 188/6/4 189/6/4 194/6/4
f 194/6/4 190/6/4 195/6/4
f 195/6/4 190/6/4 196/6/4
f 190/1/4 191/1/4 197/1/4
f 196/6/4 190/6/4 197/6/4
f 182/1/4 183/1/4 198/1/4
f 183/1/4 184/1/4 198/1/4
f 184/1/4 185/1/4 198/1/4
f 198/1/4 185/1/4 199/1/4
f 199/1/4 185/1/4 200/1/4
f 185/2/4 192/2/4 201/2/4
f 200/1/4 185/1/4 201/1/4
f 192/2/4 193/2/4 201/2/4
f 194/4/4 195/4/4 202/4/4
f 201/2/4 193/2/4 202/2/4
f 193/4/4 194/4/4 202/4/4
f 195/6/4 196/6/4 203/6/4
f 202/4/4 195/4/4 203/4/4
f 196/2/4 197/2/4 204/2/4
f 203/6/4 196/6/4 204/6/4
f 197/1/4 191/1/4 205/1/4
f 204/2/4 197/2/4 205/2/4
f 191/1/4 181/1/4 206/1/4
f 205/1/4 191/1/4 206/1/4
f 199/1/4 200/1/4 207/1/4
f 198/2/4 199/2/4 207/2/4
f 207/1/4 200/1/4 208/1/4
f 208/1/4 200/1/4 209/1/4
f 204/2/4 205/2/4 210/2/4
f 209/1/4 200/1/4 210/1/4
f 201/2/4 202/2/4 210/2/4
f 203/2/4 204/2/4 210/2/4
f 205/2/4 206/2/4 210/2/4
f 202/2/4 203/2/4 210/2/4
f 200/2/4 201/2/4 210/2/4
f 206/1/4 181/1/4 211/1/4
f 210/2/4 206/2/4 211/2/4
f 181/1/4 163/1/4 212/1/4
f 211/1/4 181/1/4 212/1/4
f 208/1/4 209/1/4 213/1/4
f 207/2/4 208/2/4 213/2/4
f 209/2/4 210/2/4 214/2/4
f 213/1/4 209/1/4 214/1/4
f 211/2/4 212/2/4 214/2/4
f 210/2/4 211/2/4 214/2/4
f 214/2/4 212/2/4 215/2/4
f 215/2/4 212/2/4 216/2/4
f 213/2/4 214/2/4 217/2/4
f 214/2/4 215/2/4 217/2/4
f 215/1/4 216/1/4 218/1/4
f 217/2/4 215/2/4 218/2/4
f 216/2/4 212/2/4 219/2/4
f 218/1/4 216/1/4 219/1/4
f 219/2/4 212/2/4 220/2/4
f 212/1/4 163/1/4 221/1/4
f 220/2/4 212/2/4 221/2/4
f 163/1/4 81/1/4 222/1/4
f 221/1/4 163/1/4 222/1/4
f 207/2/4 213/2/4 223/2/4
f 198/2/4 207/2/4 223/2/4
f 213/2/4 217/2/4 223/2/4
f 219/1/4 220/1/4 224/1/4
f 223/2/4 217/2/4 224/2/4
f 217/1/4 218/1/4 224/1/4
f 218/1/4 219/1/4 224/1/4
f 220/2/4 221/2/4 225/2/4
f 224/1/4 220/1/4 225/1/4
f 221/2/4 222/2/4 225/2/4
f 222/1/4 81/1/4 226/1/4
f 225/2/4 222/2/4 226/2/4
f 226/1/4 81/1/4 227/1/4
f 231/1/5 229/1/5 228/1/5
f 231/2/5 230/2/5 229/2/5
f 232/2/5 230/2/5 231/2/5
f 233/1/5 231/1/5 228/1/5
f 233/1/5 232/1/5 231/1/5
f 234/1/5 232/1/5 233/1/5
f 235/1/5 233/1/5 228/1/5
f 236/1/5 233/1/5 235/1/5
f 237/1/5 233/1/5 236/1/5
f 238/1/5 233/1/5 237/1/5
f 239/1/5 233/1/5 238/1/5
f 240/2/5 234/2/5 233/2/5
f 240/1/5 233/1/5 239/1/5
f 241/2/5 236/2/5 235/2/5
f 242/1/5 237/1/5 236/1/5
f 242/2/5 236/2/5 241/2/5
f 243/2/5 238/2/5 237/2/5
f 243/1/5 237/1/5 242/1/5
f 244/1/5 239/1/5 238/1/5
f 244/2/5 238/2/5 243/2/5
f 245/2/5 240/2/5 239/2/5
f 245/1/5 239/1/5 244/1/5
f 246/2/5 234/2/5 240/2/5
f 246/2/5 240/2/5 245/2/5
f 247/1/6 248/1/6 249/1/6
f 249/1/6 248/1/6 250/1/6
