# MagicaVoxel @ Ephtracy

# group
g Terrain_SnowGrass-11

# material
mtllib Terrain_SnowGrass-11.mtl
usemtl palette

# normals
vn -1 0 0
vn 1 0 0
vn 0 0 1
vn 0 0 -1
vn 0 -1 0
vn 0 1 0

# texcoords
vt 0.0332031 0.5
vt 0.0371094 0.5
vt 0.0410156 0.5
vt 0.0488281 0.5
vt 0.0527344 0.5
vt 0.0566406 0.5

# verts
v -5 -5 5
v -5 -5 1
v -5 -5 -0
v -5 -5 -1
v -5 -5 -2
v -5 -5 -3
v -5 -5 -5
v -5 -4 5
v -5 -4 4
v -5 -4 3
v -5 -4 1
v -5 -4 -0
v -5 -4 -1
v -5 -4 -2
v -5 -4 -3
v -5 -4 -4
v -5 -3 4
v -5 -3 3
v -5 -3 2
v -5 -3 1
v -5 -3 -0
v -5 -3 -1
v -5 -3 -2
v -5 -3 -3
v -5 -3 -4
v -5 -3 -5
v -5 -2 4
v -5 -2 2
v -5 -2 -0
v -5 -2 -1
v -5 -2 -2
v -5 -2 -4
v -5 -1 5
v -5 -1 4
v -5 -1 3
v -5 -1 1
v -5 -1 -0
v -5 -1 -1
v -5 -1 -2
v -5 0 5
v -5 0 3
v -5 0 2
v -5 0 1
v -5 0 -0
v -5 0 -2
v -5 0 -3
v -5 0 -4
v -5 0 -5
v -5 1 5
v -5 1 4
v -5 1 3
v -5 1 2
v -5 1 1
v -5 1 -0
v -5 1 -1
v -5 1 -2
v -5 1 -3
v -5 1 -4
v -5 1 -5
v -5 2 5
v -5 2 4
v -5 2 3
v -5 2 2
v -5 2 1
v -5 2 -0
v -5 2 -1
v -5 2 -2
v -5 2 -3
v -5 2 -4
v -5 2 -5
v -5 3 5
v -5 3 4
v -5 3 1
v -5 3 -0
v -5 3 -2
v -5 3 -4
v -5 4 5
v -5 4 4
v -5 4 -1
v -5 4 -2
v -5 5 5
v -5 5 4
v -5 5 3
v -5 5 -0
v -5 5 -1
v -5 5 -5
v 5 -5 5
v 5 -5 4
v 5 -5 2
v 5 -5 1
v 5 -5 -1
v 5 -5 -2
v 5 -5 -3
v 5 -5 -4
v 5 -5 -5
v 5 -4 5
v 5 -4 4
v 5 -4 3
v 5 -4 2
v 5 -4 -0
v 5 -4 -1
v 5 -4 -2
v 5 -4 -3
v 5 -4 -4
v 5 -4 -5
v 5 -3 5
v 5 -3 4
v 5 -3 3
v 5 -3 2
v 5 -3 1
v 5 -3 -0
v 5 -3 -1
v 5 -3 -2
v 5 -3 -3
v 5 -3 -4
v 5 -3 -5
v 5 -2 5
v 5 -2 4
v 5 -2 1
v 5 -2 -0
v 5 -2 -1
v 5 -2 -3
v 5 -2 -4
v 5 -2 -5
v 5 -1 5
v 5 -1 4
v 5 -1 3
v 5 -1 1
v 5 -1 -0
v 5 -1 -1
v 5 -1 -2
v 5 -1 -3
v 5 -1 -5
v 5 0 3
v 5 0 2
v 5 0 1
v 5 0 -0
v 5 0 -2
v 5 0 -3
v 5 0 -5
v 5 1 4
v 5 1 3
v 5 1 1
v 5 1 -2
v 5 1 -4
v 5 2 5
v 5 2 4
v 5 2 2
v 5 2 1
v 5 2 -0
v 5 2 -2
v 5 2 -3
v 5 2 -4
v 5 3 5
v 5 3 4
v 5 3 2
v 5 3 1
v 5 3 -0
v 5 3 -2
v 5 3 -3
v 5 3 -4
v 5 3 -5
v 5 5 5
v 5 5 -5
v -5 -5 5
v -5 -4 5
v -5 -1 5
v -5 0 5
v -5 1 5
v -5 2 5
v -5 3 5
v -5 4 5
v -5 5 5
v -4 -4 5
v -4 -2 5
v -4 -1 5
v -4 0 5
v -4 1 5
v -4 2 5
v -4 3 5
v -3 -5 5
v -3 -3 5
v -3 1 5
v -3 2 5
v -2 -5 5
v -2 -3 5
v -2 -2 5
v -2 -1 5
v -2 0 5
v -2 1 5
v -2 2 5
v -1 1 5
v -1 2 5
v 0 -5 5
v 0 -3 5
v 0 -2 5
v 0 -1 5
v 0 0 5
v 0 1 5
v 0 2 5
v 0 4 5
v 1 -5 5
v 1 -4 5
v 1 -3 5
v 1 -2 5
v 1 -1 5
v 1 0 5
v 1 1 5
v 1 2 5
v 1 3 5
v 2 -5 5
v 2 -4 5
v 2 -2 5
v 2 -1 5
v 2 0 5
v 2 1 5
v 2 2 5
v 2 3 5
v 2 4 5
v 2 5 5
v 3 -5 5
v 3 -4 5
v 3 -3 5
v 3 -1 5
v 3 1 5
v 3 2 5
v 3 3 5
v 3 4 5
v 4 -5 5
v 4 -4 5
v 4 -3 5
v 4 -2 5
v 4 -1 5
v 4 0 5
v 4 1 5
v 5 -5 5
v 5 -4 5
v 5 -3 5
v 5 -2 5
v 5 -1 5
v 5 2 5
v 5 3 5
v 5 5 5
v -5 -5 -5
v -5 -3 -5
v -5 0 -5
v -5 1 -5
v -5 2 -5
v -5 5 -5
v -4 -5 -5
v -4 -4 -5
v -4 -3 -5
v -4 -2 -5
v -4 -1 -5
v -4 0 -5
v -4 1 -5
v -4 2 -5
v -4 3 -5
v -4 4 -5
v -3 -5 -5
v -3 -4 -5
v -3 -3 -5
v -3 -2 -5
v -3 -1 -5
v -3 0 -5
v -3 1 -5
v -3 2 -5
v -3 3 -5
v -3 4 -5
v -2 -5 -5
v -2 -4 -5
v -2 -3 -5
v -2 -2 -5
v -2 -1 -5
v -2 0 -5
v -2 1 -5
v -2 3 -5
v -1 -5 -5
v -1 -4 -5
v -1 -3 -5
v -1 -2 -5
v -1 -1 -5
v -1 1 -5
v -1 2 -5
v -1 3 -5
v -1 4 -5
v -1 5 -5
v 0 -5 -5
v 0 -4 -5
v 0 -3 -5
v 0 -2 -5
v 0 -1 -5
v 0 0 -5
v 0 1 -5
v 0 2 -5
v 0 3 -5
v 1 -5 -5
v 1 -4 -5
v 1 -2 -5
v 1 -1 -5
v 1 0 -5
v 1 1 -5
v 1 2 -5
v 1 3 -5
v 1 4 -5
v 2 -5 -5
v 2 -4 -5
v 2 -3 -5
v 2 -2 -5
v 2 0 -5
v 2 1 -5
v 2 2 -5
v 2 4 -5
v 3 -3 -5
v 3 -2 -5
v 3 -1 -5
v 3 0 -5
v 3 1 -5
v 3 2 -5
v 3 3 -5
v 3 4 -5
v 4 -5 -5
v 4 -4 -5
v 4 -3 -5
v 4 -2 -5
v 4 -1 -5
v 4 0 -5
v 4 2 -5
v 4 3 -5
v 5 -5 -5
v 5 -4 -5
v 5 -3 -5
v 5 -2 -5
v 5 -1 -5
v 5 0 -5
v 5 3 -5
v 5 5 -5
v -5 -5 5
v -3 -5 5
v -2 -5 5
v 0 -5 5
v 1 -5 5
v 2 -5 5
v 3 -5 5
v 4 -5 5
v 5 -5 5
v -4 -5 4
v -3 -5 4
v -2 -5 4
v -1 -5 4
v 0 -5 4
v 1 -5 4
v 2 -5 4
v 3 -5 4
v 4 -5 4
v 5 -5 4
v -2 -5 3
v -1 -5 3
v 1 -5 3
v 3 -5 3
v 4 -5 3
v -3 -5 2
v -2 -5 2
v -1 -5 2
v 0 -5 2
v 1 -5 2
v 2 -5 2
v 3 -5 2
v 5 -5 2
v -5 -5 1
v -4 -5 1
v -2 -5 1
v -1 -5 1
v 0 -5 1
v 1 -5 1
v 2 -5 1
v 3 -5 1
v 4 -5 1
v 5 -5 1
v -5 -5 -0
v -4 -5 -0
v -3 -5 -0
v -2 -5 -0
v -1 -5 -0
v 0 -5 -0
v 1 -5 -0
v 2 -5 -0
v 3 -5 -0
v 4 -5 -0
v -5 -5 -1
v -4 -5 -1
v -3 -5 -1
v -2 -5 -1
v -1 -5 -1
v 0 -5 -1
v 1 -5 -1
v 2 -5 -1
v 3 -5 -1
v 4 -5 -1
v 5 -5 -1
v -5 -5 -2
v -4 -5 -2
v -3 -5 -2
v -1 -5 -2
v 0 -5 -2
v 1 -5 -2
v 2 -5 -2
v 5 -5 -2
v -5 -5 -3
v -4 -5 -3
v -3 -5 -3
v -2 -5 -3
v -1 -5 -3
v 0 -5 -3
v 1 -5 -3
v 2 -5 -3
v 3 -5 -3
v 4 -5 -3
v 5 -5 -3
v -2 -5 -4
v -1 -5 -4
v 0 -5 -4
v 1 -5 -4
v 3 -5 -4
v 4 -5 -4
v 5 -5 -4
v -5 -5 -5
v -4 -5 -5
v -3 -5 -5
v -2 -5 -5
v -1 -5 -5
v 0 -5 -5
v 1 -5 -5
v 2 -5 -5
v 4 -5 -5
v 5 -5 -5
v -5 5 5
v 2 5 5
v 5 5 5
v -5 5 4
v 0 5 4
v 2 5 4
v -5 5 3
v -2 5 3
v 0 5 3
v -2 5 2
v -1 5 2
v -2 5 1
v -1 5 1
v 0 5 1
v -5 5 -0
v -4 5 -0
v -3 5 -0
v -2 5 -0
v -1 5 -0
v 0 5 -0
v -5 5 -1
v -4 5 -1
v -4 5 -2
v -3 5 -2
v -4 5 -3
v -3 5 -3
v -2 5 -3
v -4 5 -4
v -3 5 -4
v -2 5 -4
v -1 5 -4
v -5 5 -5
v -1 5 -5
v 5 5 -5

# faces
f 8/3/1 2/3/1 1/3/1
f 9/3/1 2/3/1 8/3/1
f 10/3/1 2/3/1 9/3/1
f 11/1/1 3/1/1 2/1/1
f 11/3/1 2/3/1 10/3/1
f 12/3/1 4/3/1 3/3/1
f 12/1/1 3/1/1 11/1/1
f 13/1/1 5/1/1 4/1/1
f 13/3/1 4/3/1 12/3/1
f 14/3/1 6/3/1 5/3/1
f 14/1/1 5/1/1 13/1/1
f 15/2/1 7/2/1 6/2/1
f 15/3/1 6/3/1 14/3/1
f 16/2/1 7/2/1 15/2/1
f 17/2/1 10/2/1 9/2/1
f 17/1/1 9/1/1 8/1/1
f 18/3/1 11/3/1 10/3/1
f 18/2/1 10/2/1 17/2/1
f 19/3/1 11/3/1 18/3/1
f 20/2/1 12/2/1 11/2/1
f 20/3/1 11/3/1 19/3/1
f 21/1/1 13/1/1 12/1/1
f 21/2/1 12/2/1 20/2/1
f 22/2/1 14/2/1 13/2/1
f 22/1/1 13/1/1 21/1/1
f 22/2/1 15/2/1 14/2/1
f 23/2/1 15/2/1 22/2/1
f 24/1/1 16/1/1 15/1/1
f 24/2/1 15/2/1 23/2/1
f 25/2/1 7/2/1 16/2/1
f 25/1/1 16/1/1 24/1/1
f 26/2/1 7/2/1 25/2/1
f 27/1/1 17/1/1 8/1/1
f 27/3/1 19/3/1 18/3/1
f 27/3/1 18/3/1 17/3/1
f 28/2/1 20/2/1 19/2/1
f 28/3/1 19/3/1 27/3/1
f 29/1/1 21/1/1 20/1/1
f 29/2/1 22/2/1 21/2/1
f 30/3/1 23/3/1 22/3/1
f 30/2/1 22/2/1 29/2/1
f 31/1/1 24/1/1 23/1/1
f 31/3/1 23/3/1 30/3/1
f 31/1/1 26/1/1 25/1/1
f 31/1/1 25/1/1 24/1/1
f 32/1/1 26/1/1 31/1/1
f 33/1/1 27/1/1 8/1/1
f 34/2/1 28/2/1 27/2/1
f 34/1/1 27/1/1 33/1/1
f 35/2/1 28/2/1 34/2/1
f 36/2/1 20/2/1 28/2/1
f 36/2/1 28/2/1 35/2/1
f 36/1/1 30/1/1 29/1/1
f 36/1/1 29/1/1 20/1/1
f 37/1/1 30/1/1 36/1/1
f 38/2/1 32/2/1 31/2/1
f 38/1/1 30/1/1 37/1/1
f 38/2/1 31/2/1 30/2/1
f 39/2/1 32/2/1 38/2/1
f 40/2/1 35/2/1 34/2/1
f 40/2/1 34/2/1 33/2/1
f 41/1/1 36/1/1 35/1/1
f 41/2/1 35/2/1 40/2/1
f 42/1/1 36/1/1 41/1/1
f 43/2/1 37/2/1 36/2/1
f 43/1/1 36/1/1 42/1/1
f 44/1/1 39/1/1 38/1/1
f 44/2/1 37/2/1 43/2/1
f 44/1/1 38/1/1 37/1/1
f 45/2/1 32/2/1 39/2/1
f 45/1/1 39/1/1 44/1/1
f 46/2/1 32/2/1 45/2/1
f 47/1/1 26/1/1 32/1/1
f 47/2/1 32/2/1 46/2/1
f 48/1/1 26/1/1 47/1/1
f 49/1/1 41/1/1 40/1/1
f 50/1/1 41/1/1 49/1/1
f 51/2/1 42/2/1 41/2/1
f 51/1/1 41/1/1 50/1/1
f 52/1/1 43/1/1 42/1/1
f 52/2/1 42/2/1 51/2/1
f 53/3/1 44/3/1 43/3/1
f 53/1/1 43/1/1 52/1/1
f 54/2/1 45/2/1 44/2/1
f 54/3/1 44/3/1 53/3/1
f 55/2/1 45/2/1 54/2/1
f 56/1/1 46/1/1 45/1/1
f 56/2/1 45/2/1 55/2/1
f 57/3/1 47/3/1 46/3/1
f 57/1/1 46/1/1 56/1/1
f 58/2/1 48/2/1 47/2/1
f 58/3/1 47/3/1 57/3/1
f 59/2/1 48/2/1 58/2/1
f 60/4/1 50/4/1 49/4/1
f 61/5/1 51/5/1 50/5/1
f 61/4/1 50/4/1 60/4/1
f 62/3/1 52/3/1 51/3/1
f 62/5/1 51/5/1 61/5/1
f 63/4/1 53/4/1 52/4/1
f 63/3/1 52/3/1 62/3/1
f 63/4/1 54/4/1 53/4/1
f 64/4/1 54/4/1 63/4/1
f 65/1/1 55/1/1 54/1/1
f 65/4/1 54/4/1 64/4/1
f 66/5/1 56/5/1 55/5/1
f 66/1/1 55/1/1 65/1/1
f 67/1/1 57/1/1 56/1/1
f 67/5/1 56/5/1 66/5/1
f 68/4/1 58/4/1 57/4/1
f 68/1/1 57/1/1 67/1/1
f 69/1/1 59/1/1 58/1/1
f 69/4/1 58/4/1 68/4/1
f 70/1/1 59/1/1 69/1/1
f 71/5/1 61/5/1 60/5/1
f 72/4/1 62/4/1 61/4/1
f 72/5/1 61/5/1 71/5/1
f 73/5/1 64/5/1 63/5/1
f 73/4/1 65/4/1 64/4/1
f 73/5/1 63/5/1 62/5/1
f 74/5/1 66/5/1 65/5/1
f 74/4/1 65/4/1 73/4/1
f 74/5/1 67/5/1 66/5/1
f 75/4/1 68/4/1 67/4/1
f 75/5/1 67/5/1 74/5/1
f 75/4/1 69/4/1 68/4/1
f 76/5/1 70/5/1 69/5/1
f 76/4/1 69/4/1 75/4/1
f 77/4/1 72/4/1 71/4/1
f 78/4/1 62/4/1 72/4/1
f 78/4/1 72/4/1 77/4/1
f 79/4/1 75/4/1 74/4/1
f 80/5/1 76/5/1 75/5/1
f 80/4/1 75/4/1 79/4/1
f 81/5/1 78/5/1 77/5/1
f 82/4/1 62/4/1 78/4/1
f 82/5/1 78/5/1 81/5/1
f 83/5/1 73/5/1 62/5/1
f 83/4/1 62/4/1 82/4/1
f 83/5/1 74/5/1 73/5/1
f 84/4/1 79/4/1 74/4/1
f 84/5/1 74/5/1 83/5/1
f 85/5/1 80/5/1 79/5/1
f 85/4/1 79/4/1 84/4/1
f 86/5/1 70/5/1 76/5/1
f 86/5/1 80/5/1 85/5/1
f 86/5/1 76/5/1 80/5/1
f 87/3/2 88/3/2 96/3/2
f 88/1/2 89/1/2 97/1/2
f 96/3/2 88/3/2 97/3/2
f 97/1/2 89/1/2 98/1/2
f 89/2/2 90/2/2 99/2/2
f 98/1/2 89/1/2 99/1/2
f 90/1/2 91/1/2 100/1/2
f 91/2/2 92/2/2 101/2/2
f 100/1/2 91/1/2 101/1/2
f 92/1/2 93/1/2 102/1/2
f 101/2/2 92/2/2 102/2/2
f 93/2/2 94/2/2 103/2/2
f 102/1/2 93/1/2 103/1/2
f 94/3/2 95/3/2 104/3/2
f 103/2/2 94/2/2 104/2/2
f 104/3/2 95/3/2 105/3/2
f 96/2/2 97/2/2 106/2/2
f 97/1/2 98/1/2 107/1/2
f 106/2/2 97/2/2 107/2/2
f 98/3/2 99/3/2 108/3/2
f 107/1/2 98/1/2 108/1/2
f 99/2/2 90/2/2 109/2/2
f 108/3/2 99/3/2 109/3/2
f 90/1/2 100/1/2 110/1/2
f 109/2/2 90/2/2 110/2/2
f 100/2/2 101/2/2 111/2/2
f 110/1/2 100/1/2 111/1/2
f 101/1/2 102/1/2 112/1/2
f 111/2/2 101/2/2 112/2/2
f 102/2/2 103/2/2 113/2/2
f 112/1/2 102/1/2 113/1/2
f 103/1/2 104/1/2 114/1/2
f 113/2/2 103/2/2 114/2/2
f 104/1/2 105/1/2 114/1/2
f 114/1/2 105/1/2 115/1/2
f 115/1/2 105/1/2 116/1/2
f 106/3/2 107/3/2 117/3/2
f 107/2/2 108/2/2 118/2/2
f 117/3/2 107/3/2 118/3/2
f 109/2/2 110/2/2 119/2/2
f 110/3/2 111/3/2 119/3/2
f 111/1/2 112/1/2 120/1/2
f 119/3/2 111/3/2 120/3/2
f 112/2/2 113/2/2 121/2/2
f 120/1/2 112/1/2 121/1/2
f 113/2/2 114/2/2 121/2/2
f 114/3/2 115/3/2 122/3/2
f 121/2/2 114/2/2 122/2/2
f 115/2/2 116/2/2 123/2/2
f 122/3/2 115/3/2 123/3/2
f 123/2/2 116/2/2 124/2/2
f 117/1/2 118/1/2 125/1/2
f 118/2/2 108/2/2 126/2/2
f 125/1/2 118/1/2 126/1/2
f 108/1/2 109/1/2 127/1/2
f 126/2/2 108/2/2 127/2/2
f 109/2/2 119/2/2 128/2/2
f 119/2/2 120/2/2 128/2/2
f 120/3/2 121/3/2 129/3/2
f 128/2/2 120/2/2 129/2/2
f 121/2/2 122/2/2 130/2/2
f 129/3/2 121/3/2 130/3/2
f 130/2/2 122/2/2 131/2/2
f 122/1/2 123/1/2 132/1/2
f 131/2/2 122/2/2 132/2/2
f 123/1/2 124/1/2 132/1/2
f 132/1/2 124/1/2 133/1/2
f 127/1/2 109/1/2 134/1/2
f 126/3/2 127/3/2 134/3/2
f 109/2/2 128/2/2 135/2/2
f 134/1/2 109/1/2 135/1/2
f 128/1/2 129/1/2 136/1/2
f 135/2/2 128/2/2 136/2/2
f 130/3/2 131/3/2 137/3/2
f 136/1/2 129/1/2 137/1/2
f 129/3/2 130/3/2 137/3/2
f 131/2/2 132/2/2 138/2/2
f 137/3/2 131/3/2 138/3/2
f 132/3/2 133/3/2 139/3/2
f 138/2/2 132/2/2 139/2/2
f 139/3/2 133/3/2 140/3/2
f 125/2/2 126/2/2 141/2/2
f 126/3/2 134/3/2 141/3/2
f 137/2/2 138/2/2 142/2/2
f 141/3/2 134/3/2 142/3/2
f 134/2/2 135/2/2 142/2/2
f 138/2/2 139/2/2 142/2/2
f 136/2/2 137/2/2 142/2/2
f 135/2/2 136/2/2 142/2/2
f 139/2/2 140/2/2 142/2/2
f 142/2/2 140/2/2 143/2/2
f 143/2/2 140/2/2 144/2/2
f 144/2/2 140/2/2 145/2/2
f 125/2/2 141/2/2 146/2/2
f 141/1/2 142/1/2 147/1/2
f 146/2/2 141/2/2 147/2/2
f 142/1/2 143/1/2 147/1/2
f 147/1/2 143/1/2 148/1/2
f 143/2/2 144/2/2 149/2/2
f 148/1/2 143/1/2 149/1/2
f 149/2/2 144/2/2 150/2/2
f 144/3/2 145/3/2 151/3/2
f 150/2/2 144/2/2 151/2/2
f 151/3/2 145/3/2 152/3/2
f 145/2/2 140/2/2 153/2/2
f 152/3/2 145/3/2 153/3/2
f 146/1/2 147/1/2 154/1/2
f 147/2/2 148/2/2 155/2/2
f 154/1/2 147/1/2 155/1/2
f 148/3/2 149/3/2 156/3/2
f 155/2/2 148/2/2 156/2/2
f 149/2/2 150/2/2 157/2/2
f 156/3/2 149/3/2 157/3/2
f 150/1/2 151/1/2 158/1/2
f 157/2/2 150/2/2 158/2/2
f 151/2/2 152/2/2 159/2/2
f 158/1/2 151/1/2 159/1/2
f 152/1/2 153/1/2 160/1/2
f 159/2/2 152/2/2 160/2/2
f 153/2/2 140/2/2 161/2/2
f 160/1/2 153/1/2 161/1/2
f 161/2/2 140/2/2 162/2/2
f 157/6/2 158/6/2 163/6/2
f 155/6/2 156/6/2 163/6/2
f 161/6/2 162/6/2 163/6/2
f 160/6/2 161/6/2 163/6/2
f 158/6/2 159/6/2 163/6/2
f 156/6/2 157/6/2 163/6/2
f 154/6/2 155/6/2 163/6/2
f 159/6/2 160/6/2 163/6/2
f 163/6/2 162/6/2 164/6/2
f 174/3/3 166/3/3 165/3/3
f 174/1/3 167/1/3 166/1/3
f 175/1/3 167/1/3 174/1/3
f 176/2/3 168/2/3 167/2/3
f 176/1/3 167/1/3 175/1/3
f 177/1/3 169/1/3 168/1/3
f 177/2/3 168/2/3 176/2/3
f 178/4/3 170/4/3 169/4/3
f 178/1/3 169/1/3 177/1/3
f 179/5/3 171/5/3 170/5/3
f 179/4/3 170/4/3 178/4/3
f 180/4/3 172/4/3 171/4/3
f 180/5/3 171/5/3 179/5/3
f 181/3/3 175/3/3 174/3/3
f 181/3/3 174/3/3 165/3/3
f 182/3/3 175/3/3 181/3/3
f 183/1/3 179/1/3 178/1/3
f 183/2/3 178/2/3 177/2/3
f 184/4/3 180/4/3 179/4/3
f 184/1/3 179/1/3 183/1/3
f 185/1/3 182/1/3 181/1/3
f 186/3/3 175/3/3 182/3/3
f 186/1/3 182/1/3 185/1/3
f 187/2/3 176/2/3 175/2/3
f 187/3/3 175/3/3 186/3/3
f 188/3/3 177/3/3 176/3/3
f 188/2/3 176/2/3 187/2/3
f 189/2/3 183/2/3 177/2/3
f 189/3/3 177/3/3 188/3/3
f 190/4/3 184/4/3 183/4/3
f 190/2/3 183/2/3 189/2/3
f 191/4/3 180/4/3 184/4/3
f 191/4/3 184/4/3 190/4/3
f 192/3/3 190/3/3 189/3/3
f 192/1/3 191/1/3 190/1/3
f 193/4/3 180/4/3 191/4/3
f 193/1/3 191/1/3 192/1/3
f 194/3/3 186/3/3 185/3/3
f 195/2/3 187/2/3 186/2/3
f 195/3/3 186/3/3 194/3/3
f 196/1/3 188/1/3 187/1/3
f 196/2/3 187/2/3 195/2/3
f 196/1/3 189/1/3 188/1/3
f 197/1/3 189/1/3 196/1/3
f 198/3/3 192/3/3 189/3/3
f 198/1/3 189/1/3 197/1/3
f 199/5/3 193/5/3 192/5/3
f 199/3/3 192/3/3 198/3/3
f 200/4/3 180/4/3 193/4/3
f 200/5/3 193/5/3 199/5/3
f 201/5/3 173/5/3 172/5/3
f 201/4/3 180/4/3 200/4/3
f 201/4/3 172/4/3 180/4/3
f 202/1/3 195/1/3 194/1/3
f 203/1/3 195/1/3 202/1/3
f 204/3/3 196/3/3 195/3/3
f 204/1/3 195/1/3 203/1/3
f 204/3/3 197/3/3 196/3/3
f 205/3/3 197/3/3 204/3/3
f 206/2/3 198/2/3 197/2/3
f 206/3/3 197/3/3 205/3/3
f 207/1/3 199/1/3 198/1/3
f 207/2/3 198/2/3 206/2/3
f 208/5/3 200/5/3 199/5/3
f 208/1/3 199/1/3 207/1/3
f 208/5/3 201/5/3 200/5/3
f 209/5/3 201/5/3 208/5/3
f 210/5/3 201/5/3 209/5/3
f 211/2/3 203/2/3 202/2/3
f 212/1/3 205/1/3 204/1/3
f 212/2/3 203/2/3 211/2/3
f 212/1/3 204/1/3 203/1/3
f 213/2/3 206/2/3 205/2/3
f 213/1/3 205/1/3 212/1/3
f 214/1/3 207/1/3 206/1/3
f 214/2/3 206/2/3 213/2/3
f 215/2/3 208/2/3 207/2/3
f 215/1/3 207/1/3 214/1/3
f 215/2/3 209/2/3 208/2/3
f 216/2/3 209/2/3 215/2/3
f 217/4/3 210/4/3 209/4/3
f 217/2/3 209/2/3 216/2/3
f 218/5/3 201/5/3 210/5/3
f 218/4/3 210/4/3 217/4/3
f 219/5/3 173/5/3 201/5/3
f 219/5/3 201/5/3 218/5/3
f 220/5/3 173/5/3 219/5/3
f 221/3/3 213/3/3 212/3/3
f 221/3/3 212/3/3 211/3/3
f 221/3/3 214/3/3 213/3/3
f 222/3/3 214/3/3 221/3/3
f 223/3/3 214/3/3 222/3/3
f 224/2/3 215/2/3 214/2/3
f 224/3/3 214/3/3 223/3/3
f 225/5/3 217/5/3 216/5/3
f 225/5/3 218/5/3 217/5/3
f 225/1/3 216/1/3 215/1/3
f 226/5/3 218/5/3 225/5/3
f 227/4/3 219/4/3 218/4/3
f 227/5/3 218/5/3 226/5/3
f 228/6/3 220/6/3 219/6/3
f 228/4/3 219/4/3 227/4/3
f 229/2/3 222/2/3 221/2/3
f 230/1/3 223/1/3 222/1/3
f 230/2/3 222/2/3 229/2/3
f 231/2/3 224/2/3 223/2/3
f 231/1/3 223/1/3 230/1/3
f 232/2/3 224/2/3 231/2/3
f 233/2/3 215/2/3 224/2/3
f 233/2/3 224/2/3 232/2/3
f 234/1/3 225/1/3 215/1/3
f 234/2/3 215/2/3 233/2/3
f 235/2/3 226/2/3 225/2/3
f 235/1/3 225/1/3 234/1/3
f 236/3/3 230/3/3 229/3/3
f 237/2/3 231/2/3 230/2/3
f 237/3/3 230/3/3 236/3/3
f 238/3/3 232/3/3 231/3/3
f 238/2/3 231/2/3 237/2/3
f 239/1/3 233/1/3 232/1/3
f 239/3/3 232/3/3 238/3/3
f 240/2/3 234/2/3 233/2/3
f 240/1/3 233/1/3 239/1/3
f 240/2/3 235/2/3 234/2/3
f 241/1/3 227/1/3 226/1/3
f 241/2/3 235/2/3 240/2/3
f 241/2/3 226/2/3 235/2/3
f 242/6/3 228/6/3 227/6/3
f 242/1/3 227/1/3 241/1/3
f 243/6/3 220/6/3 228/6/3
f 243/6/3 228/6/3 242/6/3
f 244/2/4 245/2/4 250/2/4
f 250/2/4 245/2/4 251/2/4
f 245/1/4 246/1/4 252/1/4
f 251/2/4 245/2/4 252/2/4
f 252/1/4 246/1/4 253/1/4
f 253/1/4 246/1/4 254/1/4
f 246/2/4 247/2/4 255/2/4
f 254/1/4 246/1/4 255/1/4
f 247/1/4 248/1/4 256/1/4
f 255/2/4 247/2/4 256/2/4
f 248/5/4 249/5/4 257/5/4
f 256/1/4 248/1/4 257/1/4
f 257/5/4 249/5/4 258/5/4
f 258/5/4 249/5/4 259/5/4
f 250/1/4 251/1/4 260/1/4
f 251/3/4 252/3/4 261/3/4
f 260/1/4 251/1/4 261/1/4
f 252/3/4 253/3/4 261/3/4
f 261/3/4 253/3/4 262/3/4
f 253/1/4 254/1/4 263/1/4
f 262/3/4 253/3/4 263/3/4
f 255/3/4 256/3/4 264/3/4
f 263/1/4 254/1/4 264/1/4
f 254/3/4 255/3/4 264/3/4
f 264/3/4 256/3/4 265/3/4
f 256/4/4 257/4/4 266/4/4
f 265/3/4 256/3/4 266/3/4
f 257/5/4 258/5/4 267/5/4
f 266/4/4 257/4/4 267/4/4
f 258/4/4 259/4/4 268/4/4
f 267/5/4 258/5/4 268/5/4
f 259/5/4 249/5/4 269/5/4
f 268/4/4 259/4/4 269/4/4
f 260/2/4 261/2/4 270/2/4
f 261/3/4 262/3/4 271/3/4
f 270/2/4 261/2/4 271/2/4
f 262/1/4 263/1/4 272/1/4
f 271/3/4 262/3/4 272/3/4
f 263/3/4 264/3/4 273/3/4
f 272/1/4 263/1/4 273/1/4
f 264/2/4 265/2/4 274/2/4
f 273/3/4 264/3/4 274/3/4
f 265/3/4 266/3/4 275/3/4
f 274/2/4 265/2/4 275/2/4
f 267/5/4 268/5/4 276/5/4
f 275/3/4 266/3/4 276/3/4
f 266/5/4 267/5/4 276/5/4
f 268/5/4 269/5/4 276/5/4
f 276/5/4 269/5/4 277/5/4
f 270/3/4 271/3/4 278/3/4
f 271/3/4 272/3/4 278/3/4
f 278/3/4 272/3/4 279/3/4
f 272/2/4 273/2/4 280/2/4
f 279/3/4 272/3/4 280/3/4
f 274/1/4 275/1/4 281/1/4
f 280/2/4 273/2/4 281/2/4
f 273/1/4 274/1/4 281/1/4
f 275/1/4 276/1/4 281/1/4
f 281/1/4 276/1/4 282/1/4
f 276/4/4 277/4/4 283/4/4
f 282/1/4 276/1/4 283/1/4
f 283/4/4 277/4/4 284/4/4
f 277/5/4 269/5/4 285/5/4
f 284/4/4 277/4/4 285/4/4
f 269/5/4 249/5/4 286/5/4
f 285/5/4 269/5/4 286/5/4
f 286/5/4 249/5/4 287/5/4
f 278/1/4 279/1/4 288/1/4
f 279/2/4 280/2/4 289/2/4
f 288/1/4 279/1/4 289/1/4
f 281/1/4 282/1/4 290/1/4
f 289/2/4 280/2/4 290/2/4
f 280/1/4 281/1/4 290/1/4
f 290/1/4 282/1/4 291/1/4
f 282/2/4 283/2/4 292/2/4
f 291/1/4 282/1/4 292/1/4
f 292/2/4 283/2/4 293/2/4
f 283/4/4 284/4/4 294/4/4
f 293/2/4 283/2/4 294/2/4
f 284/5/4 285/5/4 295/5/4
f 294/4/4 284/4/4 295/4/4
f 285/5/4 286/5/4 295/5/4
f 295/5/4 286/5/4 296/5/4
f 288/3/4 289/3/4 297/3/4
f 290/2/4 291/2/4 298/2/4
f 297/3/4 289/3/4 298/3/4
f 289/2/4 290/2/4 298/2/4
f 291/3/4 292/3/4 299/3/4
f 298/2/4 291/2/4 299/2/4
f 292/1/4 293/1/4 300/1/4
f 299/3/4 292/3/4 300/3/4
f 293/2/4 294/2/4 301/2/4
f 300/1/4 293/1/4 301/1/4
f 294/1/4 295/1/4 302/1/4
f 301/2/4 294/2/4 302/2/4
f 295/4/4 296/4/4 303/4/4
f 302/1/4 295/1/4 303/1/4
f 296/5/4 286/5/4 304/5/4
f 303/4/4 296/4/4 304/4/4
f 286/6/4 287/6/4 305/6/4
f 304/5/4 286/5/4 305/5/4
f 297/1/4 298/1/4 306/1/4
f 298/2/4 299/2/4 307/2/4
f 306/1/4 298/1/4 307/1/4
f 307/2/4 299/2/4 308/2/4
f 299/1/4 300/1/4 309/1/4
f 308/2/4 299/2/4 309/2/4
f 301/1/4 302/1/4 310/1/4
f 300/3/4 301/3/4 310/3/4
f 302/2/4 303/2/4 311/2/4
f 310/1/4 302/1/4 311/1/4
f 303/4/4 304/4/4 312/4/4
f 311/2/4 303/2/4 312/2/4
f 304/4/4 305/4/4 312/4/4
f 305/6/4 287/6/4 313/6/4
f 312/4/4 305/4/4 313/4/4
f 307/2/4 308/2/4 314/2/4
f 308/3/4 309/3/4 314/3/4
f 306/2/4 307/2/4 314/2/4
f 309/1/4 300/1/4 315/1/4
f 314/3/4 309/3/4 315/3/4
f 300/3/4 310/3/4 316/3/4
f 315/1/4 300/1/4 316/1/4
f 310/2/4 311/2/4 317/2/4
f 316/3/4 310/3/4 317/3/4
f 311/5/4 312/5/4 318/5/4
f 317/2/4 311/2/4 318/2/4
f 312/5/4 313/5/4 318/5/4
f 318/5/4 313/5/4 319/5/4
f 319/5/4 313/5/4 320/5/4
f 313/6/4 287/6/4 321/6/4
f 320/5/4 313/5/4 321/5/4
f 314/2/4 315/2/4 322/2/4
f 315/2/4 316/2/4 322/2/4
f 316/2/4 317/2/4 322/2/4
f 318/2/4 319/2/4 322/2/4
f 317/2/4 318/2/4 322/2/4
f 306/2/4 314/2/4 322/2/4
f 322/2/4 319/2/4 323/2/4
f 323/2/4 319/2/4 324/2/4
f 324/2/4 319/2/4 325/2/4
f 325/2/4 319/2/4 326/2/4
f 326/2/4 319/2/4 327/2/4
f 319/3/4 320/3/4 328/3/4
f 327/2/4 319/2/4 328/2/4
f 320/6/4 321/6/4 329/6/4
f 328/3/4 320/3/4 329/3/4
f 322/3/4 323/3/4 330/3/4
f 323/1/4 324/1/4 331/1/4
f 330/3/4 323/3/4 331/3/4
f 324/2/4 325/2/4 332/2/4
f 331/1/4 324/1/4 332/1/4
f 325/1/4 326/1/4 333/1/4
f 332/2/4 325/2/4 333/2/4
f 326/3/4 327/3/4 334/3/4
f 333/1/4 326/1/4 334/1/4
f 327/2/4 328/2/4 335/2/4
f 334/3/4 327/3/4 335/3/4
f 328/2/4 329/2/4 335/2/4
f 329/6/4 321/6/4 336/6/4
f 335/2/4 329/2/4 336/2/4
f 321/6/4 287/6/4 337/6/4
f 336/6/4 321/6/4 337/6/4
f 347/3/5 339/3/5 338/3/5
f 348/1/5 340/1/5 339/1/5
f 348/3/5 339/3/5 347/3/5
f 349/3/5 341/3/5 340/3/5
f 349/1/5 340/1/5 348/1/5
f 350/3/5 341/3/5 349/3/5
f 351/1/5 342/1/5 341/1/5
f 351/3/5 341/3/5 350/3/5
f 352/2/5 343/2/5 342/2/5
f 352/1/5 342/1/5 351/1/5
f 353/3/5 344/3/5 343/3/5
f 353/2/5 343/2/5 352/2/5
f 354/2/5 345/2/5 344/2/5
f 354/3/5 344/3/5 353/3/5
f 355/3/5 346/3/5 345/3/5
f 355/2/5 345/2/5 354/2/5
f 356/3/5 346/3/5 355/3/5
f 357/2/5 350/2/5 349/2/5
f 357/1/5 349/1/5 348/1/5
f 358/3/5 351/3/5 350/3/5
f 358/2/5 350/2/5 357/2/5
f 358/3/5 352/3/5 351/3/5
f 359/2/5 354/2/5 353/2/5
f 359/3/5 352/3/5 358/3/5
f 359/2/5 355/2/5 354/2/5
f 359/2/5 353/2/5 352/2/5
f 360/2/5 355/2/5 359/2/5
f 361/1/5 356/1/5 355/1/5
f 361/2/5 355/2/5 360/2/5
f 362/2/5 348/2/5 347/2/5
f 362/1/5 357/1/5 348/1/5
f 363/3/5 358/3/5 357/3/5
f 363/1/5 357/1/5 362/1/5
f 364/1/5 359/1/5 358/1/5
f 364/3/5 358/3/5 363/3/5
f 365/1/5 359/1/5 364/1/5
f 366/2/5 360/2/5 359/2/5
f 366/1/5 359/1/5 365/1/5
f 367/2/5 360/2/5 366/2/5
f 368/1/5 361/1/5 360/1/5
f 368/2/5 360/2/5 367/2/5
f 369/1/5 356/1/5 361/1/5
f 369/1/5 361/1/5 368/1/5
f 370/3/5 347/3/5 338/3/5
f 371/2/5 362/2/5 347/2/5
f 371/3/5 347/3/5 370/3/5
f 371/2/5 363/2/5 362/2/5
f 372/3/5 364/3/5 363/3/5
f 372/2/5 363/2/5 371/2/5
f 373/2/5 365/2/5 364/2/5
f 373/3/5 364/3/5 372/3/5
f 374/3/5 366/3/5 365/3/5
f 374/2/5 365/2/5 373/2/5
f 375/1/5 367/1/5 366/1/5
f 375/3/5 366/3/5 374/3/5
f 376/2/5 368/2/5 367/2/5
f 376/1/5 367/1/5 375/1/5
f 376/2/5 369/2/5 368/2/5
f 377/2/5 369/2/5 376/2/5
f 378/2/5 369/2/5 377/2/5
f 379/2/5 369/2/5 378/2/5
f 380/1/5 371/1/5 370/1/5
f 381/3/5 372/3/5 371/3/5
f 381/1/5 371/1/5 380/1/5
f 382/3/5 372/3/5 381/3/5
f 383/1/5 373/1/5 372/1/5
f 383/3/5 372/3/5 382/3/5
f 384/2/5 374/2/5 373/2/5
f 384/1/5 373/1/5 383/1/5
f 385/1/5 375/1/5 374/1/5
f 385/2/5 374/2/5 384/2/5
f 386/3/5 376/3/5 375/3/5
f 386/1/5 375/1/5 385/1/5
f 386/3/5 377/3/5 376/3/5
f 387/3/5 377/3/5 386/3/5
f 388/2/5 378/2/5 377/2/5
f 388/3/5 377/3/5 387/3/5
f 389/1/5 379/1/5 378/1/5
f 389/2/5 378/2/5 388/2/5
f 390/3/5 382/3/5 381/3/5
f 390/3/5 381/3/5 380/3/5
f 391/3/5 382/3/5 390/3/5
f 392/1/5 383/1/5 382/1/5
f 392/3/5 382/3/5 391/3/5
f 393/2/5 384/2/5 383/2/5
f 393/1/5 383/1/5 392/1/5
f 393/2/5 385/2/5 384/2/5
f 393/2/5 386/2/5 385/2/5
f 394/2/5 386/2/5 393/2/5
f 395/2/5 386/2/5 394/2/5
f 396/3/5 387/3/5 386/3/5
f 396/2/5 386/2/5 395/2/5
f 397/2/5 388/2/5 387/2/5
f 397/3/5 387/3/5 396/3/5
f 398/3/5 389/3/5 388/3/5
f 398/2/5 388/2/5 397/2/5
f 399/1/5 379/1/5 389/1/5
f 399/3/5 389/3/5 398/3/5
f 400/1/5 379/1/5 399/1/5
f 401/1/5 391/1/5 390/1/5
f 402/3/5 392/3/5 391/3/5
f 402/1/5 391/1/5 401/1/5
f 403/2/5 393/2/5 392/2/5
f 403/3/5 392/3/5 402/3/5
f 403/2/5 394/2/5 393/2/5
f 404/1/5 395/1/5 394/1/5
f 404/2/5 394/2/5 403/2/5
f 405/3/5 396/3/5 395/3/5
f 405/1/5 395/1/5 404/1/5
f 406/1/5 397/1/5 396/1/5
f 406/3/5 396/3/5 405/3/5
f 407/2/5 398/2/5 397/2/5
f 407/1/5 397/1/5 406/1/5
f 407/2/5 400/2/5 399/2/5
f 407/2/5 399/2/5 398/2/5
f 408/2/5 400/2/5 407/2/5
f 409/3/5 402/3/5 401/3/5
f 410/2/5 403/2/5 402/2/5
f 410/3/5 402/3/5 409/3/5
f 410/2/5 404/2/5 403/2/5
f 411/2/5 404/2/5 410/2/5
f 412/2/5 404/2/5 411/2/5
f 413/3/5 406/3/5 405/3/5
f 413/2/5 404/2/5 412/2/5
f 413/3/5 405/3/5 404/3/5
f 414/3/5 406/3/5 413/3/5
f 415/2/5 407/2/5 406/2/5
f 415/3/5 406/3/5 414/3/5
f 416/1/5 408/1/5 407/1/5
f 416/2/5 407/2/5 415/2/5
f 417/1/5 408/1/5 416/1/5
f 418/1/5 408/1/5 417/1/5
f 419/1/5 408/1/5 418/1/5
f 420/2/5 412/2/5 411/2/5
f 420/1/5 413/1/5 412/1/5
f 421/3/5 414/3/5 413/3/5
f 421/1/5 413/1/5 420/1/5
f 422/2/5 415/2/5 414/2/5
f 422/3/5 414/3/5 421/3/5
f 423/1/5 416/1/5 415/1/5
f 423/2/5 415/2/5 422/2/5
f 424/2/5 417/2/5 416/2/5
f 424/1/5 418/1/5 417/1/5
f 425/2/5 419/2/5 418/2/5
f 425/1/5 418/1/5 424/1/5
f 426/2/5 419/2/5 425/2/5
f 427/2/5 410/2/5 409/2/5
f 428/1/5 411/1/5 410/1/5
f 428/2/5 410/2/5 427/2/5
f 429/2/5 420/2/5 411/2/5
f 429/1/5 411/1/5 428/1/5
f 430/3/5 421/3/5 420/3/5
f 430/2/5 420/2/5 429/2/5
f 431/1/5 422/1/5 421/1/5
f 431/3/5 421/3/5 430/3/5
f 432/3/5 423/3/5 422/3/5
f 432/1/5 422/1/5 431/1/5
f 433/1/5 416/1/5 423/1/5
f 433/3/5 423/3/5 432/3/5
f 434/2/5 424/2/5 416/2/5
f 434/1/5 416/1/5 433/1/5
f 434/2/5 425/2/5 424/2/5
f 435/3/5 426/3/5 425/3/5
f 435/2/5 425/2/5 434/2/5
f 436/3/5 426/3/5 435/3/5
f 437/5/6 438/5/6 440/5/6
f 440/5/6 438/5/6 441/5/6
f 438/6/6 439/6/6 442/6/6
f 441/5/6 438/5/6 442/5/6
f 440/4/6 441/4/6 443/4/6
f 443/4/6 441/4/6 444/4/6
f 441/6/6 442/6/6 445/6/6
f 444/4/6 441/4/6 445/4/6
f 443/5/6 444/5/6 446/5/6
f 444/6/6 445/6/6 446/6/6
f 446/6/6 445/6/6 447/6/6
f 443/5/6 446/5/6 448/5/6
f 446/5/6 447/5/6 448/5/6
f 447/6/6 445/6/6 449/6/6
f 448/5/6 447/5/6 449/5/6
f 445/6/6 442/6/6 450/6/6
f 449/6/6 445/6/6 450/6/6
f 443/5/6 448/5/6 451/5/6
f 451/5/6 448/5/6 452/5/6
f 452/5/6 448/5/6 453/5/6
f 448/4/6 449/4/6 454/4/6
f 453/5/6 448/5/6 454/5/6
f 449/5/6 450/5/6 455/5/6
f 454/4/6 449/4/6 455/4/6
f 450/6/6 442/6/6 456/6/6
f 455/5/6 450/5/6 456/5/6
f 451/4/6 452/4/6 457/4/6
f 452/5/6 453/5/6 458/5/6
f 457/4/6 452/4/6 458/4/6
f 457/5/6 458/5/6 459/5/6
f 458/5/6 453/5/6 459/5/6
f 454/6/6 455/6/6 460/6/6
f 459/5/6 453/5/6 460/5/6
f 453/6/6 454/6/6 460/6/6
f 455/6/6 456/6/6 460/6/6
f 457/5/6 459/5/6 461/5/6
f 459/6/6 460/6/6 461/6/6
f 460/6/6 456/6/6 462/6/6
f 461/6/6 460/6/6 462/6/6
f 462/6/6 456/6/6 463/6/6
f 457/5/6 461/5/6 464/5/6
f 461/4/6 462/4/6 464/4/6
f 462/5/6 463/5/6 465/5/6
f 464/4/6 462/4/6 465/4/6
f 463/6/6 456/6/6 466/6/6
f 465/5/6 463/5/6 466/5/6
f 466/6/6 456/6/6 467/6/6
f 464/5/6 465/5/6 468/5/6
f 457/5/6 464/5/6 468/5/6
f 466/5/6 467/5/6 468/5/6
f 465/5/6 466/5/6 468/5/6
f 467/6/6 456/6/6 469/6/6
f 468/5/6 467/5/6 469/5/6
f 442/6/6 439/6/6 470/6/6
f 469/6/6 456/6/6 470/6/6
f 456/6/6 442/6/6 470/6/6
