# MagicaVoxel @ Ephtracy

# group
g object_export_0116-16

# material
mtllib object_export_0116-16.mtl
usemtl palette

# normals
vn -1 0 0
vn 1 0 0
vn 0 0 1
vn 0 0 -1
vn 0 -1 0
vn 0 1 0

# texcoords
vt 0.919922 0.5
vt 0.927734 0.5

# verts
v -0.8 -1 0.4
v -0.8 -1 0.3
v -0.8 -1 -0
v -0.8 -1 -0.1
v -0.8 -1 -0.4
v -0.8 -1 -0.5
v -0.8 -0.9 0.4
v -0.8 -0.9 0.3
v -0.8 -0.6 -0.1
v -0.8 -0.6 -0.2
v -0.8 -0.6 -0.4
v -0.8 -0.6 -0.5
v -0.8 -0.5 -0
v -0.8 -0.5 -0.2
v -0.6 -1 0.9
v -0.6 -1 0.8
v -0.6 -1 -0.8
v -0.6 -1 -1
v -0.6 -0.9 -0.9
v -0.6 -0.9 -1
v -0.6 -0.8 -0.8
v -0.6 -0.8 -0.9
v -0.6 -0.7 1
v -0.6 -0.7 0.9
v -0.6 -0.6 1
v -0.6 -0.6 0.8
v -0.5 -1 0.2
v -0.5 -1 0.1
v -0.5 -0.7 0.2
v -0.5 -0.7 0.1
v -0.4 -1 -0.5
v -0.4 -1 -0.6
v -0.4 -0.5 -0.5
v -0.4 -0.5 -0.6
v -0.3 -1 0.6
v -0.3 -1 0.4
v -0.3 -0.9 0.5
v -0.3 -0.9 0.4
v -0.3 -0.8 0.6
v -0.3 -0.8 0.5
v -0.2 -1 0.1
v -0.2 -1 -0
v -0.2 -1 -0.3
v -0.2 -1 -0.4
v -0.2 -0.8 -0.3
v -0.2 -0.8 -0.4
v -0.2 -0.6 0.1
v -0.2 -0.6 -0
v 0 -1 0.8
v 0 -1 0.7
v 0 -1 0.3
v 0 -1 0.2
v 0 -1 -0.7
v 0 -1 -0.8
v 0 -0.8 0.3
v 0 -0.8 0.2
v 0 -0.7 0.8
v 0 -0.7 0.7
v 0 -0.7 -0.8
v 0 -0.7 -0.9
v 0 -0.6 -0.7
v 0 -0.6 -0.9
v 0.1 -1 -0.1
v 0.1 -1 -0.3
v 0.1 -0.9 -0.2
v 0.1 -0.9 -0.3
v 0.1 -0.8 -0.1
v 0.1 -0.8 -0.2
v 0.2 -1 0.6
v 0.2 -1 0.5
v 0.2 -1 -0.4
v 0.2 -1 -0.6
v 0.2 -0.9 0.6
v 0.2 -0.9 0.5
v 0.2 -0.9 -0.4
v 0.2 -0.9 -0.5
v 0.2 -0.8 -0.5
v 0.2 -0.8 -0.6
v 0.3 -1 -0
v 0.3 -1 -0.1
v 0.3 -0.8 0.1
v 0.3 -0.8 -0
v 0.3 -0.7 0.1
v 0.3 -0.7 -0.1
v 0.4 -1 0.9
v 0.4 -1 0.8
v 0.4 -1 -0.8
v 0.4 -1 -0.9
v 0.4 -0.9 -0.8
v 0.4 -0.9 -0.9
v 0.4 -0.8 0.9
v 0.4 -0.8 0.8
v 0.6 -1 0.7
v 0.6 -1 0.6
v 0.6 -1 0.1
v 0.6 -1 -0
v 0.6 -1 -0.6
v 0.6 -1 -0.7
v 0.6 -0.9 0.1
v 0.6 -0.9 -0
v 0.6 -0.7 0.6
v 0.6 -0.7 0.5
v 0.6 -0.7 -0.6
v 0.6 -0.7 -0.7
v 0.6 -0.6 0.7
v 0.6 -0.6 0.5
v 0.8 -1 1
v 0.8 -1 0.9
v 0.8 -0.9 1
v 0.8 -0.9 0.9
v -0.7 -1 0.4
v -0.7 -1 0.3
v -0.7 -1 -0
v -0.7 -1 -0.1
v -0.7 -1 -0.4
v -0.7 -1 -0.5
v -0.7 -0.9 0.4
v -0.7 -0.9 0.3
v -0.7 -0.6 -0.1
v -0.7 -0.6 -0.2
v -0.7 -0.6 -0.4
v -0.7 -0.6 -0.5
v -0.7 -0.5 -0
v -0.7 -0.5 -0.2
v -0.5 -1 0.9
v -0.5 -1 0.8
v -0.5 -1 -0.8
v -0.5 -1 -1
v -0.5 -0.9 -0.9
v -0.5 -0.9 -1
v -0.5 -0.8 -0.8
v -0.5 -0.8 -0.9
v -0.5 -0.7 1
v -0.5 -0.7 0.9
v -0.5 -0.6 1
v -0.5 -0.6 0.8
v -0.4 -1 0.2
v -0.4 -1 0.1
v -0.4 -0.7 0.2
v -0.4 -0.7 0.1
v -0.3 -1 -0.5
v -0.3 -1 -0.6
v -0.3 -0.5 -0.5
v -0.3 -0.5 -0.6
v -0.2 -1 0.6
v -0.2 -1 0.4
v -0.2 -0.9 0.5
v -0.2 -0.9 0.4
v -0.2 -0.8 0.6
v -0.2 -0.8 0.5
v -0.1 -1 0.1
v -0.1 -1 -0
v -0.1 -1 -0.3
v -0.1 -1 -0.4
v -0.1 -0.8 -0.3
v -0.1 -0.8 -0.4
v -0.1 -0.6 0.1
v -0.1 -0.6 -0
v 0.1 -1 0.8
v 0.1 -1 0.7
v 0.1 -1 0.3
v 0.1 -1 0.2
v 0.1 -1 -0.7
v 0.1 -1 -0.8
v 0.1 -0.8 0.3
v 0.1 -0.8 0.2
v 0.1 -0.7 0.8
v 0.1 -0.7 0.7
v 0.1 -0.7 -0.8
v 0.1 -0.7 -0.9
v 0.1 -0.6 -0.7
v 0.1 -0.6 -0.9
v 0.2 -1 -0.1
v 0.2 -1 -0.3
v 0.2 -0.9 -0.2
v 0.2 -0.9 -0.3
v 0.2 -0.8 -0.1
v 0.2 -0.8 -0.2
v 0.3 -1 0.6
v 0.3 -1 0.5
v 0.3 -1 -0.4
v 0.3 -1 -0.6
v 0.3 -0.9 0.6
v 0.3 -0.9 0.5
v 0.3 -0.9 -0.4
v 0.3 -0.9 -0.5
v 0.3 -0.8 -0.5
v 0.3 -0.8 -0.6
v 0.4 -1 -0
v 0.4 -1 -0.1
v 0.4 -0.8 0.1
v 0.4 -0.8 -0
v 0.4 -0.7 0.1
v 0.4 -0.7 -0.1
v 0.5 -1 0.9
v 0.5 -1 0.8
v 0.5 -1 -0.8
v 0.5 -1 -0.9
v 0.5 -0.9 -0.8
v 0.5 -0.9 -0.9
v 0.5 -0.8 0.9
v 0.5 -0.8 0.8
v 0.7 -1 0.7
v 0.7 -1 0.6
v 0.7 -1 0.1
v 0.7 -1 -0
v 0.7 -1 -0.6
v 0.7 -1 -0.7
v 0.7 -0.9 0.1
v 0.7 -0.9 -0
v 0.7 -0.7 0.6
v 0.7 -0.7 0.5
v 0.7 -0.7 -0.6
v 0.7 -0.7 -0.7
v 0.7 -0.6 0.7
v 0.7 -0.6 0.5
v 0.9 -1 1
v 0.9 -1 0.9
v 0.9 -0.9 1
v 0.9 -0.9 0.9
v -0.6 -0.7 1
v -0.6 -0.6 1
v -0.5 -0.7 1
v -0.5 -0.6 1
v 0.8 -1 1
v 0.8 -0.9 1
v 0.9 -1 1
v 0.9 -0.9 1
v -0.6 -1 0.9
v -0.6 -0.7 0.9
v -0.5 -1 0.9
v -0.5 -0.7 0.9
v 0.4 -1 0.9
v 0.4 -0.8 0.9
v 0.5 -1 0.9
v 0.5 -0.8 0.9
v 0 -1 0.8
v 0 -0.7 0.8
v 0.1 -1 0.8
v 0.1 -0.7 0.8
v 0.6 -1 0.7
v 0.6 -0.6 0.7
v 0.7 -1 0.7
v 0.7 -0.6 0.7
v -0.3 -1 0.6
v -0.3 -0.8 0.6
v -0.2 -1 0.6
v -0.2 -0.8 0.6
v 0.2 -1 0.6
v 0.2 -0.9 0.6
v 0.3 -1 0.6
v 0.3 -0.9 0.6
v -0.8 -1 0.4
v -0.8 -0.9 0.4
v -0.7 -1 0.4
v -0.7 -0.9 0.4
v 0 -1 0.3
v 0 -0.8 0.3
v 0.1 -1 0.3
v 0.1 -0.8 0.3
v -0.5 -1 0.2
v -0.5 -0.7 0.2
v -0.4 -1 0.2
v -0.4 -0.7 0.2
v -0.2 -1 0.1
v -0.2 -0.6 0.1
v -0.1 -1 0.1
v -0.1 -0.6 0.1
v 0.3 -0.8 0.1
v 0.3 -0.7 0.1
v 0.4 -0.8 0.1
v 0.4 -0.7 0.1
v 0.6 -1 0.1
v 0.6 -0.9 0.1
v 0.7 -1 0.1
v 0.7 -0.9 0.1
v -0.8 -1 -0
v -0.8 -0.5 -0
v -0.7 -1 -0
v -0.7 -0.5 -0
v 0.3 -1 -0
v 0.3 -0.8 -0
v 0.4 -1 -0
v 0.4 -0.8 -0
v 0.1 -1 -0.1
v 0.1 -0.8 -0.1
v 0.2 -1 -0.1
v 0.2 -0.8 -0.1
v -0.2 -1 -0.3
v -0.2 -0.8 -0.3
v -0.1 -1 -0.3
v -0.1 -0.8 -0.3
v -0.8 -1 -0.4
v -0.8 -0.6 -0.4
v -0.7 -1 -0.4
v -0.7 -0.6 -0.4
v 0.2 -1 -0.4
v 0.2 -0.9 -0.4
v 0.3 -1 -0.4
v 0.3 -0.9 -0.4
v -0.4 -1 -0.5
v -0.4 -0.5 -0.5
v -0.3 -1 -0.5
v -0.3 -0.5 -0.5
v 0.2 -0.9 -0.5
v 0.2 -0.8 -0.5
v 0.3 -0.9 -0.5
v 0.3 -0.8 -0.5
v 0.6 -1 -0.6
v 0.6 -0.7 -0.6
v 0.7 -1 -0.6
v 0.7 -0.7 -0.6
v 0 -1 -0.7
v 0 -0.6 -0.7
v 0.1 -1 -0.7
v 0.1 -0.6 -0.7
v -0.6 -1 -0.8
v -0.6 -0.8 -0.8
v -0.5 -1 -0.8
v -0.5 -0.8 -0.8
v 0.4 -1 -0.8
v 0.4 -0.9 -0.8
v 0.5 -1 -0.8
v 0.5 -0.9 -0.8
v 0.8 -1 0.9
v 0.8 -0.9 0.9
v 0.9 -1 0.9
v 0.9 -0.9 0.9
v -0.6 -1 0.8
v -0.6 -0.6 0.8
v -0.5 -1 0.8
v -0.5 -0.6 0.8
v 0.4 -1 0.8
v 0.4 -0.8 0.8
v 0.5 -1 0.8
v 0.5 -0.8 0.8
v 0 -1 0.7
v 0 -0.7 0.7
v 0.1 -1 0.7
v 0.1 -0.7 0.7
v 0.6 -1 0.6
v 0.6 -0.7 0.6
v 0.7 -1 0.6
v 0.7 -0.7 0.6
v -0.3 -0.9 0.5
v -0.3 -0.8 0.5
v -0.2 -0.9 0.5
v -0.2 -0.8 0.5
v 0.2 -1 0.5
v 0.2 -0.9 0.5
v 0.3 -1 0.5
v 0.3 -0.9 0.5
v 0.6 -0.7 0.5
v 0.6 -0.6 0.5
v 0.7 -0.7 0.5
v 0.7 -0.6 0.5
v -0.3 -1 0.4
v -0.3 -0.9 0.4
v -0.2 -1 0.4
v -0.2 -0.9 0.4
v -0.8 -1 0.3
v -0.8 -0.9 0.3
v -0.7 -1 0.3
v -0.7 -0.9 0.3
v 0 -1 0.2
v 0 -0.8 0.2
v 0.1 -1 0.2
v 0.1 -0.8 0.2
v -0.5 -1 0.1
v -0.5 -0.7 0.1
v -0.4 -1 0.1
v -0.4 -0.7 0.1
v -0.2 -1 -0
v -0.2 -0.6 -0
v -0.1 -1 -0
v -0.1 -0.6 -0
v 0.6 -1 -0
v 0.6 -0.9 -0
v 0.7 -1 -0
v 0.7 -0.9 -0
v -0.8 -1 -0.1
v -0.8 -0.6 -0.1
v -0.7 -1 -0.1
v -0.7 -0.6 -0.1
v 0.3 -1 -0.1
v 0.3 -0.7 -0.1
v 0.4 -1 -0.1
v 0.4 -0.7 -0.1
v -0.8 -0.6 -0.2
v -0.8 -0.5 -0.2
v -0.7 -0.6 -0.2
v -0.7 -0.5 -0.2
v 0.1 -0.9 -0.2
v 0.1 -0.8 -0.2
v 0.2 -0.9 -0.2
v 0.2 -0.8 -0.2
v 0.1 -1 -0.3
v 0.1 -0.9 -0.3
v 0.2 -1 -0.3
v 0.2 -0.9 -0.3
v -0.2 -1 -0.4
v -0.2 -0.8 -0.4
v -0.1 -1 -0.4
v -0.1 -0.8 -0.4
v -0.8 -1 -0.5
v -0.8 -0.6 -0.5
v -0.7 -1 -0.5
v -0.7 -0.6 -0.5
v -0.4 -1 -0.6
v -0.4 -0.5 -0.6
v -0.3 -1 -0.6
v -0.3 -0.5 -0.6
v 0.2 -1 -0.6
v 0.2 -0.8 -0.6
v 0.3 -1 -0.6
v 0.3 -0.8 -0.6
v 0.6 -1 -0.7
v 0.6 -0.7 -0.7
v 0.7 -1 -0.7
v 0.7 -0.7 -0.7
v 0 -1 -0.8
v 0 -0.7 -0.8
v 0.1 -1 -0.8
v 0.1 -0.7 -0.8
v -0.6 -0.9 -0.9
v -0.6 -0.8 -0.9
v -0.5 -0.9 -0.9
v -0.5 -0.8 -0.9
v 0 -0.7 -0.9
v 0 -0.6 -0.9
v 0.1 -0.7 -0.9
v 0.1 -0.6 -0.9
v 0.4 -1 -0.9
v 0.4 -0.9 -0.9
v 0.5 -1 -0.9
v 0.5 -0.9 -0.9
v -0.6 -1 -1
v -0.6 -0.9 -1
v -0.5 -1 -1
v -0.5 -0.9 -1
v 0.8 -1 1
v 0.9 -1 1
v -0.6 -1 0.9
v -0.5 -1 0.9
v 0.4 -1 0.9
v 0.5 -1 0.9
v 0.8 -1 0.9
v 0.9 -1 0.9
v -0.6 -1 0.8
v -0.5 -1 0.8
v 0 -1 0.8
v 0.1 -1 0.8
v 0.4 -1 0.8
v 0.5 -1 0.8
v 0 -1 0.7
v 0.1 -1 0.7
v 0.6 -1 0.7
v 0.7 -1 0.7
v -0.3 -1 0.6
v -0.2 -1 0.6
v 0.2 -1 0.6
v 0.3 -1 0.6
v 0.6 -1 0.6
v 0.7 -1 0.6
v 0.2 -1 0.5
v 0.3 -1 0.5
v -0.8 -1 0.4
v -0.7 -1 0.4
v -0.3 -1 0.4
v -0.2 -1 0.4
v -0.8 -1 0.3
v -0.7 -1 0.3
v 0 -1 0.3
v 0.1 -1 0.3
v -0.5 -1 0.2
v -0.4 -1 0.2
v 0 -1 0.2
v 0.1 -1 0.2
v -0.5 -1 0.1
v -0.4 -1 0.1
v -0.2 -1 0.1
v -0.1 -1 0.1
v 0.6 -1 0.1
v 0.7 -1 0.1
v -0.8 -1 -0
v -0.7 -1 -0
v -0.2 -1 -0
v -0.1 -1 -0
v 0.3 -1 -0
v 0.4 -1 -0
v 0.6 -1 -0
v 0.7 -1 -0
v -0.8 -1 -0.1
v -0.7 -1 -0.1
v 0.1 -1 -0.1
v 0.2 -1 -0.1
v 0.3 -1 -0.1
v 0.4 -1 -0.1
v -0.2 -1 -0.3
v -0.1 -1 -0.3
v 0.1 -1 -0.3
v 0.2 -1 -0.3
v -0.8 -1 -0.4
v -0.7 -1 -0.4
v -0.2 -1 -0.4
v -0.1 -1 -0.4
v 0.2 -1 -0.4
v 0.3 -1 -0.4
v -0.8 -1 -0.5
v -0.7 -1 -0.5
v -0.4 -1 -0.5
v -0.3 -1 -0.5
v -0.4 -1 -0.6
v -0.3 -1 -0.6
v 0.2 -1 -0.6
v 0.3 -1 -0.6
v 0.6 -1 -0.6
v 0.7 -1 -0.6
v 0 -1 -0.7
v 0.1 -1 -0.7
v 0.6 -1 -0.7
v 0.7 -1 -0.7
v -0.6 -1 -0.8
v -0.5 -1 -0.8
v 0 -1 -0.8
v 0.1 -1 -0.8
v 0.4 -1 -0.8
v 0.5 -1 -0.8
v 0.4 -1 -0.9
v 0.5 -1 -0.9
v -0.6 -1 -1
v -0.5 -1 -1
v 0.3 -0.8 0.1
v 0.4 -0.8 0.1
v 0.3 -0.8 -0
v 0.4 -0.8 -0
v -0.6 -0.7 1
v -0.5 -0.7 1
v -0.6 -0.7 0.9
v -0.5 -0.7 0.9
v 0.6 -0.7 0.6
v 0.7 -0.7 0.6
v 0.6 -0.7 0.5
v 0.7 -0.7 0.5
v 0 -0.7 -0.8
v 0.1 -0.7 -0.8
v 0 -0.7 -0.9
v 0.1 -0.7 -0.9
v -0.8 -0.6 -0.1
v -0.7 -0.6 -0.1
v -0.8 -0.6 -0.2
v -0.7 -0.6 -0.2
v 0.8 -0.9 1
v 0.9 -0.9 1
v 0.8 -0.9 0.9
v 0.9 -0.9 0.9
v 0.2 -0.9 0.6
v 0.3 -0.9 0.6
v -0.3 -0.9 0.5
v -0.2 -0.9 0.5
v 0.2 -0.9 0.5
v 0.3 -0.9 0.5
v -0.8 -0.9 0.4
v -0.7 -0.9 0.4
v -0.3 -0.9 0.4
v -0.2 -0.9 0.4
v -0.8 -0.9 0.3
v -0.7 -0.9 0.3
v 0.6 -0.9 0.1
v 0.7 -0.9 0.1
v 0.6 -0.9 -0
v 0.7 -0.9 -0
v 0.1 -0.9 -0.2
v 0.2 -0.9 -0.2
v 0.1 -0.9 -0.3
v 0.2 -0.9 -0.3
v 0.2 -0.9 -0.4
v 0.3 -0.9 -0.4
v 0.2 -0.9 -0.5
v 0.3 -0.9 -0.5
v 0.4 -0.9 -0.8
v 0.5 -0.9 -0.8
v -0.6 -0.9 -0.9
v -0.5 -0.9 -0.9
v 0.4 -0.9 -0.9
v 0.5 -0.9 -0.9
v -0.6 -0.9 -1
v -0.5 -0.9 -1
v 0.4 -0.8 0.9
v 0.5 -0.8 0.9
v 0.4 -0.8 0.8
v 0.5 -0.8 0.8
v -0.3 -0.8 0.6
v -0.2 -0.8 0.6
v -0.3 -0.8 0.5
v -0.2 -0.8 0.5
v 0 -0.8 0.3
v 0.1 -0.8 0.3
v 0 -0.8 0.2
v 0.1 -0.8 0.2
v 0.1 -0.8 -0.1
v 0.2 -0.8 -0.1
v 0.1 -0.8 -0.2
v 0.2 -0.8 -0.2
v -0.2 -0.8 -0.3
v -0.1 -0.8 -0.3
v -0.2 -0.8 -0.4
v -0.1 -0.8 -0.4
v 0.2 -0.8 -0.5
v 0.3 -0.8 -0.5
v 0.2 -0.8 -0.6
v 0.3 -0.8 -0.6
v -0.6 -0.8 -0.8
v -0.5 -0.8 -0.8
v -0.6 -0.8 -0.9
v -0.5 -0.8 -0.9
v 0 -0.7 0.8
v 0.1 -0.7 0.8
v 0 -0.7 0.7
v 0.1 -0.7 0.7
v -0.5 -0.7 0.2
v -0.4 -0.7 0.2
v -0.5 -0.7 0.1
v -0.4 -0.7 0.1
v 0.3 -0.7 0.1
v 0.4 -0.7 0.1
v 0.3 -0.7 -0.1
v 0.4 -0.7 -0.1
v 0.6 -0.7 -0.6
v 0.7 -0.7 -0.6
v 0.6 -0.7 -0.7
v 0.7 -0.7 -0.7
v -0.6 -0.6 1
v -0.5 -0.6 1
v -0.6 -0.6 0.8
v -0.5 -0.6 0.8
v 0.6 -0.6 0.7
v 0.7 -0.6 0.7
v 0.6 -0.6 0.5
v 0.7 -0.6 0.5
v -0.2 -0.6 0.1
v -0.1 -0.6 0.1
v -0.2 -0.6 -0
v -0.1 -0.6 -0
v -0.8 -0.6 -0.4
v -0.7 -0.6 -0.4
v -0.8 -0.6 -0.5
v -0.7 -0.6 -0.5
v 0 -0.6 -0.7
v 0.1 -0.6 -0.7
v 0 -0.6 -0.9
v 0.1 -0.6 -0.9
v -0.8 -0.5 -0
v -0.7 -0.5 -0
v -0.8 -0.5 -0.2
v -0.7 -0.5 -0.2
v -0.4 -0.5 -0.5
v -0.3 -0.5 -0.5
v -0.4 -0.5 -0.6
v -0.3 -0.5 -0.6

# faces
f 7/1/1 2/1/1 1/1/1
f 8/1/1 2/1/1 7/1/1
f 9/1/1 4/1/1 3/1/1
f 11/1/1 6/1/1 5/1/1
f 12/1/1 6/1/1 11/1/1
f 13/1/1 10/1/1 9/1/1
f 13/1/1 9/1/1 3/1/1
f 14/1/1 10/1/1 13/1/1
f 19/1/1 18/1/1 17/1/1
f 20/1/1 18/1/1 19/1/1
f 21/1/1 19/1/1 17/1/1
f 22/1/1 19/1/1 21/1/1
f 24/1/1 16/1/1 15/1/1
f 25/1/1 24/1/1 23/1/1
f 26/1/1 16/1/1 24/1/1
f 26/1/1 24/1/1 25/1/1
f 29/1/1 28/1/1 27/1/1
f 30/1/1 28/1/1 29/1/1
f 33/1/1 32/1/1 31/1/1
f 34/1/1 32/1/1 33/1/1
f 37/1/1 36/1/1 35/1/1
f 38/1/1 36/1/1 37/1/1
f 39/1/1 37/1/1 35/1/1
f 40/1/1 37/1/1 39/1/1
f 45/1/1 44/1/1 43/1/1
f 46/1/1 44/1/1 45/1/1
f 47/1/1 42/1/1 41/1/1
f 48/1/1 42/1/1 47/1/1
f 55/1/1 52/1/1 51/1/1
f 56/1/1 52/1/1 55/1/1
f 57/2/1 50/2/1 49/2/1
f 58/2/1 50/2/1 57/2/1
f 59/2/1 54/2/1 53/2/1
f 61/2/1 60/2/1 59/2/1
f 61/2/1 59/2/1 53/2/1
f 62/2/1 60/2/1 61/2/1
f 65/2/1 64/2/1 63/2/1
f 66/2/1 64/2/1 65/2/1
f 67/2/1 65/2/1 63/2/1
f 68/2/1 65/2/1 67/2/1
f 73/2/1 70/2/1 69/2/1
f 74/2/1 70/2/1 73/2/1
f 75/2/1 72/2/1 71/2/1
f 76/2/1 72/2/1 75/2/1
f 77/2/1 72/2/1 76/2/1
f 78/2/1 72/2/1 77/2/1
f 82/2/1 80/2/1 79/2/1
f 83/2/1 82/2/1 81/2/1
f 84/2/1 80/2/1 82/2/1
f 84/2/1 82/2/1 83/2/1
f 89/2/1 88/2/1 87/2/1
f 90/2/1 88/2/1 89/2/1
f 91/2/1 86/2/1 85/2/1
f 92/2/1 86/2/1 91/2/1
f 99/2/1 96/2/1 95/2/1
f 100/2/1 96/2/1 99/2/1
f 101/2/1 94/2/1 93/2/1
f 103/2/1 98/2/1 97/2/1
f 104/2/1 98/2/1 103/2/1
f 105/2/1 102/2/1 101/2/1
f 105/2/1 101/2/1 93/2/1
f 106/2/1 102/2/1 105/2/1
f 109/2/1 108/2/1 107/2/1
f 110/2/1 108/2/1 109/2/1
f 111/1/2 112/1/2 117/1/2
f 117/1/2 112/1/2 118/1/2
f 113/1/2 114/1/2 119/1/2
f 115/1/2 116/1/2 121/1/2
f 121/1/2 116/1/2 122/1/2
f 119/1/2 120/1/2 123/1/2
f 113/1/2 119/1/2 123/1/2
f 123/1/2 120/1/2 124/1/2
f 127/1/2 128/1/2 129/1/2
f 129/1/2 128/1/2 130/1/2
f 127/1/2 129/1/2 131/1/2
f 131/1/2 129/1/2 132/1/2
f 125/1/2 126/1/2 134/1/2
f 133/1/2 134/1/2 135/1/2
f 134/1/2 126/1/2 136/1/2
f 135/1/2 134/1/2 136/1/2
f 137/1/2 138/1/2 139/1/2
f 139/1/2 138/1/2 140/1/2
f 141/1/2 142/1/2 143/1/2
f 143/1/2 142/1/2 144/1/2
f 145/1/2 146/1/2 147/1/2
f 147/1/2 146/1/2 148/1/2
f 145/1/2 147/1/2 149/1/2
f 149/1/2 147/1/2 150/1/2
f 153/1/2 154/1/2 155/1/2
f 155/1/2 154/1/2 156/1/2
f 151/1/2 152/1/2 157/1/2
f 157/1/2 152/1/2 158/1/2
f 161/1/2 162/1/2 165/1/2
f 165/1/2 162/1/2 166/1/2
f 159/2/2 160/2/2 167/2/2
f 167/2/2 160/2/2 168/2/2
f 163/2/2 164/2/2 169/2/2
f 169/2/2 170/2/2 171/2/2
f 163/2/2 169/2/2 171/2/2
f 171/2/2 170/2/2 172/2/2
f 173/2/2 174/2/2 175/2/2
f 175/2/2 174/2/2 176/2/2
f 173/2/2 175/2/2 177/2/2
f 177/2/2 175/2/2 178/2/2
f 179/2/2 180/2/2 183/2/2
f 183/2/2 180/2/2 184/2/2
f 181/2/2 182/2/2 185/2/2
f 185/2/2 182/2/2 186/2/2
f 186/2/2 182/2/2 187/2/2
f 187/2/2 182/2/2 188/2/2
f 189/2/2 190/2/2 192/2/2
f 191/2/2 192/2/2 193/2/2
f 192/2/2 190/2/2 194/2/2
f 193/2/2 192/2/2 194/2/2
f 197/2/2 198/2/2 199/2/2
f 199/2/2 198/2/2 200/2/2
f 195/2/2 196/2/2 201/2/2
f 201/2/2 196/2/2 202/2/2
f 205/2/2 206/2/2 209/2/2
f 209/2/2 206/2/2 210/2/2
f 203/2/2 204/2/2 211/2/2
f 207/2/2 208/2/2 213/2/2
f 213/2/2 208/2/2 214/2/2
f 211/2/2 212/2/2 215/2/2
f 203/2/2 211/2/2 215/2/2
f 215/2/2 212/2/2 216/2/2
f 217/2/2 218/2/2 219/2/2
f 219/2/2 218/2/2 220/2/2
f 223/1/3 222/1/3 221/1/3
f 224/1/3 222/1/3 223/1/3
f 227/2/3 226/2/3 225/2/3
f 228/2/3 226/2/3 227/2/3
f 231/1/3 230/1/3 229/1/3
f 232/1/3 230/1/3 231/1/3
f 235/2/3 234/2/3 233/2/3
f 236/2/3 234/2/3 235/2/3
f 239/2/3 238/2/3 237/2/3
f 240/2/3 238/2/3 239/2/3
f 243/2/3 242/2/3 241/2/3
f 244/2/3 242/2/3 243/2/3
f 247/1/3 246/1/3 245/1/3
f 248/1/3 246/1/3 247/1/3
f 251/2/3 250/2/3 249/2/3
f 252/2/3 250/2/3 251/2/3
f 255/1/3 254/1/3 253/1/3
f 256/1/3 254/1/3 255/1/3
f 259/1/3 258/1/3 257/1/3
f 260/1/3 258/1/3 259/1/3
f 263/1/3 262/1/3 261/1/3
f 264/1/3 262/1/3 263/1/3
f 267/1/3 266/1/3 265/1/3
f 268/1/3 266/1/3 267/1/3
f 271/2/3 270/2/3 269/2/3
f 272/2/3 270/2/3 271/2/3
f 275/2/3 274/2/3 273/2/3
f 276/2/3 274/2/3 275/2/3
f 279/1/3 278/1/3 277/1/3
f 280/1/3 278/1/3 279/1/3
f 283/2/3 282/2/3 281/2/3
f 284/2/3 282/2/3 283/2/3
f 287/2/3 286/2/3 285/2/3
f 288/2/3 286/2/3 287/2/3
f 291/1/3 290/1/3 289/1/3
f 292/1/3 290/1/3 291/1/3
f 295/1/3 294/1/3 293/1/3
f 296/1/3 294/1/3 295/1/3
f 299/2/3 298/2/3 297/2/3
f 300/2/3 298/2/3 299/2/3
f 303/1/3 302/1/3 301/1/3
f 304/1/3 302/1/3 303/1/3
f 307/2/3 306/2/3 305/2/3
f 308/2/3 306/2/3 307/2/3
f 311/2/3 310/2/3 309/2/3
f 312/2/3 310/2/3 311/2/3
f 315/2/3 314/2/3 313/2/3
f 316/2/3 314/2/3 315/2/3
f 319/1/3 318/1/3 317/1/3
f 320/1/3 318/1/3 319/1/3
f 323/2/3 322/2/3 321/2/3
f 324/2/3 322/2/3 323/2/3
f 325/2/4 326/2/4 327/2/4
f 327/2/4 326/2/4 328/2/4
f 329/1/4 330/1/4 331/1/4
f 331/1/4 330/1/4 332/1/4
f 333/2/4 334/2/4 335/2/4
f 335/2/4 334/2/4 336/2/4
f 337/2/4 338/2/4 339/2/4
f 339/2/4 338/2/4 340/2/4
f 341/2/4 342/2/4 343/2/4
f 343/2/4 342/2/4 344/2/4
f 345/1/4 346/1/4 347/1/4
f 347/1/4 346/1/4 348/1/4
f 349/2/4 350/2/4 351/2/4
f 351/2/4 350/2/4 352/2/4
f 353/2/4 354/2/4 355/2/4
f 355/2/4 354/2/4 356/2/4
f 357/1/4 358/1/4 359/1/4
f 359/1/4 358/1/4 360/1/4
f 361/1/4 362/1/4 363/1/4
f 363/1/4 362/1/4 364/1/4
f 365/1/4 366/1/4 367/1/4
f 367/1/4 366/1/4 368/1/4
f 369/1/4 370/1/4 371/1/4
f 371/1/4 370/1/4 372/1/4
f 373/1/4 374/1/4 375/1/4
f 375/1/4 374/1/4 376/1/4
f 377/2/4 378/2/4 379/2/4
f 379/2/4 378/2/4 380/2/4
f 381/1/4 382/1/4 383/1/4
f 383/1/4 382/1/4 384/1/4
f 385/2/4 386/2/4 387/2/4
f 387/2/4 386/2/4 388/2/4
f 389/1/4 390/1/4 391/1/4
f 391/1/4 390/1/4 392/1/4
f 393/2/4 394/2/4 395/2/4
f 395/2/4 394/2/4 396/2/4
f 397/2/4 398/2/4 399/2/4
f 399/2/4 398/2/4 400/2/4
f 401/1/4 402/1/4 403/1/4
f 403/1/4 402/1/4 404/1/4
f 405/1/4 406/1/4 407/1/4
f 407/1/4 406/1/4 408/1/4
f 409/1/4 410/1/4 411/1/4
f 411/1/4 410/1/4 412/1/4
f 413/2/4 414/2/4 415/2/4
f 415/2/4 414/2/4 416/2/4
f 417/2/4 418/2/4 419/2/4
f 419/2/4 418/2/4 420/2/4
f 421/2/4 422/2/4 423/2/4
f 423/2/4 422/2/4 424/2/4
f 425/1/4 426/1/4 427/1/4
f 427/1/4 426/1/4 428/1/4
f 429/2/4 430/2/4 431/2/4
f 431/2/4 430/2/4 432/2/4
f 433/2/4 434/2/4 435/2/4
f 435/2/4 434/2/4 436/2/4
f 437/1/4 438/1/4 439/1/4
f 439/1/4 438/1/4 440/1/4
f 447/2/5 442/2/5 441/2/5
f 448/2/5 442/2/5 447/2/5
f 449/1/5 444/1/5 443/1/5
f 450/1/5 444/1/5 449/1/5
f 453/2/5 446/2/5 445/2/5
f 454/2/5 446/2/5 453/2/5
f 455/2/5 452/2/5 451/2/5
f 456/2/5 452/2/5 455/2/5
f 463/2/5 458/2/5 457/2/5
f 464/2/5 458/2/5 463/2/5
f 465/2/5 462/2/5 461/2/5
f 466/2/5 462/2/5 465/2/5
f 469/1/5 460/1/5 459/1/5
f 470/1/5 460/1/5 469/1/5
f 471/1/5 468/1/5 467/1/5
f 472/1/5 468/1/5 471/1/5
f 477/1/5 474/1/5 473/1/5
f 478/1/5 474/1/5 477/1/5
f 479/1/5 476/1/5 475/1/5
f 480/1/5 476/1/5 479/1/5
f 487/1/5 482/1/5 481/1/5
f 488/1/5 482/1/5 487/1/5
f 491/2/5 484/2/5 483/2/5
f 492/2/5 484/2/5 491/2/5
f 493/1/5 486/1/5 485/1/5
f 494/1/5 486/1/5 493/1/5
f 497/2/5 490/2/5 489/2/5
f 498/2/5 490/2/5 497/2/5
f 501/2/5 496/2/5 495/2/5
f 502/2/5 496/2/5 501/2/5
f 505/1/5 500/1/5 499/1/5
f 506/1/5 500/1/5 505/1/5
f 509/1/5 504/1/5 503/1/5
f 510/1/5 504/1/5 509/1/5
f 513/1/5 512/1/5 511/1/5
f 514/1/5 512/1/5 513/1/5
f 515/2/5 508/2/5 507/2/5
f 516/2/5 508/2/5 515/2/5
f 521/2/5 518/2/5 517/2/5
f 522/2/5 518/2/5 521/2/5
f 525/2/5 520/2/5 519/2/5
f 526/2/5 520/2/5 525/2/5
f 529/2/5 528/2/5 527/2/5
f 530/2/5 528/2/5 529/2/5
f 531/1/5 524/1/5 523/1/5
f 532/1/5 524/1/5 531/1/5
f 535/2/5 534/2/5 533/2/5
f 536/2/5 534/2/5 535/2/5
f 539/1/5 538/1/5 537/1/5
f 540/1/5 538/1/5 539/1/5
f 543/2/5 542/2/5 541/2/5
f 544/2/5 542/2/5 543/2/5
f 547/2/5 546/2/5 545/2/5
f 548/2/5 546/2/5 547/2/5
f 551/1/5 550/1/5 549/1/5
f 552/1/5 550/1/5 551/1/5
f 553/2/6 554/2/6 555/2/6
f 555/2/6 554/2/6 556/2/6
f 557/2/6 558/2/6 561/2/6
f 561/2/6 558/2/6 562/2/6
f 559/1/6 560/1/6 565/1/6
f 565/1/6 560/1/6 566/1/6
f 563/1/6 564/1/6 567/1/6
f 567/1/6 564/1/6 568/1/6
f 569/2/6 570/2/6 571/2/6
f 571/2/6 570/2/6 572/2/6
f 573/2/6 574/2/6 575/2/6
f 575/2/6 574/2/6 576/2/6
f 577/2/6 578/2/6 579/2/6
f 579/2/6 578/2/6 580/2/6
f 581/2/6 582/2/6 585/2/6
f 585/2/6 582/2/6 586/2/6
f 583/1/6 584/1/6 587/1/6
f 587/1/6 584/1/6 588/1/6
f 589/2/6 590/2/6 591/2/6
f 591/2/6 590/2/6 592/2/6
f 593/1/6 594/1/6 595/1/6
f 595/1/6 594/1/6 596/1/6
f 597/1/6 598/1/6 599/1/6
f 599/1/6 598/1/6 600/1/6
f 601/2/6 602/2/6 603/2/6
f 603/2/6 602/2/6 604/2/6
f 605/1/6 606/1/6 607/1/6
f 607/1/6 606/1/6 608/1/6
f 609/2/6 610/2/6 611/2/6
f 611/2/6 610/2/6 612/2/6
f 613/1/6 614/1/6 615/1/6
f 615/1/6 614/1/6 616/1/6
f 617/2/6 618/2/6 619/2/6
f 619/2/6 618/2/6 620/2/6
f 621/1/6 622/1/6 623/1/6
f 623/1/6 622/1/6 624/1/6
f 625/2/6 626/2/6 627/2/6
f 627/2/6 626/2/6 628/2/6
f 629/2/6 630/2/6 631/2/6
f 631/2/6 630/2/6 632/2/6
f 633/1/6 634/1/6 635/1/6
f 635/1/6 634/1/6 636/1/6
f 637/2/6 638/2/6 639/2/6
f 639/2/6 638/2/6 640/2/6
f 641/1/6 642/1/6 643/1/6
f 643/1/6 642/1/6 644/1/6
f 645/1/6 646/1/6 647/1/6
f 647/1/6 646/1/6 648/1/6
f 649/2/6 650/2/6 651/2/6
f 651/2/6 650/2/6 652/2/6
f 653/1/6 654/1/6 655/1/6
f 655/1/6 654/1/6 656/1/6
f 657/1/6 658/1/6 659/1/6
f 659/1/6 658/1/6 660/1/6
