# MagicaVoxel @ Ephtracy

# group
g Interaction_Bomb

# material
mtllib Interaction_Bomb.mtl
usemtl palette

# normals
vn -1 0 0
vn 1 0 0
vn 0 0 1
vn 0 0 -1
vn 0 -1 0
vn 0 1 0

# texcoords
vt 0.220703 0.5
vt 0.228516 0.5
vt 0.232422 0.5

# verts
v -3.5 -4 3.5
v -3.5 -4 0.5
v -3.5 -4 -0.5
v -3.5 -4 -3.5
v -3.5 -3 3.5
v -3.5 -3 0.5
v -3.5 -3 -0.5
v -3.5 -3 -3.5
v -3.5 -1 3.5
v -3.5 -1 0.5
v -3.5 -1 -0.5
v -3.5 -1 -3.5
v -3.5 0 3.5
v -3.5 0 0.5
v -3.5 0 -0.5
v -3.5 0 -3.5
v -3.5 2 3.5
v -3.5 2 0.5
v -3.5 2 -0.5
v -3.5 2 -3.5
v -3.5 3 3.5
v -3.5 3 0.5
v -3.5 3 -0.5
v -3.5 3 -3.5
v -2.5 -4 0.5
v -2.5 -4 -0.5
v -2.5 -3 0.5
v -2.5 -3 -0.5
v -2.5 -1 0.5
v -2.5 -1 -0.5
v -2.5 0 0.5
v -2.5 0 -0.5
v -2.5 3 2.5
v -2.5 3 1.5
v -2.5 3 -1.5
v -2.5 3 -2.5
v -2.5 4 2.5
v -2.5 4 1.5
v -2.5 4 -1.5
v -2.5 4 -2.5
v 0.5 -4 3.5
v 0.5 -4 2.5
v 0.5 -4 -2.5
v 0.5 -4 -3.5
v 0.5 -3 3.5
v 0.5 -3 2.5
v 0.5 -3 -2.5
v 0.5 -3 -3.5
v 0.5 -1 3.5
v 0.5 -1 2.5
v 0.5 -1 -2.5
v 0.5 -1 -3.5
v 0.5 0 3.5
v 0.5 0 2.5
v 0.5 0 -2.5
v 0.5 0 -3.5
v 0.5 2 3.5
v 0.5 2 0.5
v 0.5 2 -0.5
v 0.5 2 -3.5
v 0.5 3 3.5
v 0.5 3 0.5
v 0.5 3 -0.5
v 0.5 3 -3.5
v 1.5 3 2.5
v 1.5 3 1.5
v 1.5 3 -1.5
v 1.5 3 -2.5
v 1.5 4 2.5
v 1.5 4 1.5
v 1.5 4 -1.5
v 1.5 4 -2.5
v -1.5 3 2.5
v -1.5 3 1.5
v -1.5 3 -1.5
v -1.5 3 -2.5
v -1.5 4 2.5
v -1.5 4 1.5
v -1.5 4 -1.5
v -1.5 4 -2.5
v -0.5 -4 3.5
v -0.5 -4 2.5
v -0.5 -4 -2.5
v -0.5 -4 -3.5
v -0.5 -3 3.5
v -0.5 -3 2.5
v -0.5 -3 -2.5
v -0.5 -3 -3.5
v -0.5 -1 3.5
v -0.5 -1 2.5
v -0.5 -1 -2.5
v -0.5 -1 -3.5
v -0.5 0 3.5
v -0.5 0 2.5
v -0.5 0 -2.5
v -0.5 0 -3.5
v -0.5 2 3.5
v -0.5 2 0.5
v -0.5 2 -0.5
v -0.5 2 -3.5
v -0.5 3 3.5
v -0.5 3 0.5
v -0.5 3 -0.5
v -0.5 3 -3.5
v 2.5 -4 0.5
v 2.5 -4 -0.5
v 2.5 -3 0.5
v 2.5 -3 -0.5
v 2.5 -1 0.5
v 2.5 -1 -0.5
v 2.5 0 0.5
v 2.5 0 -0.5
v 2.5 3 2.5
v 2.5 3 1.5
v 2.5 3 -1.5
v 2.5 3 -2.5
v 2.5 4 2.5
v 2.5 4 1.5
v 2.5 4 -1.5
v 2.5 4 -2.5
v 3.5 -4 3.5
v 3.5 -4 0.5
v 3.5 -4 -0.5
v 3.5 -4 -3.5
v 3.5 -3 3.5
v 3.5 -3 0.5
v 3.5 -3 -0.5
v 3.5 -3 -3.5
v 3.5 -1 3.5
v 3.5 -1 0.5
v 3.5 -1 -0.5
v 3.5 -1 -3.5
v 3.5 0 3.5
v 3.5 0 0.5
v 3.5 0 -0.5
v 3.5 0 -3.5
v 3.5 2 3.5
v 3.5 2 0.5
v 3.5 2 -0.5
v 3.5 2 -3.5
v 3.5 3 3.5
v 3.5 3 0.5
v 3.5 3 -0.5
v 3.5 3 -3.5
v -3.5 -4 3.5
v -3.5 -3 3.5
v -3.5 -1 3.5
v -3.5 0 3.5
v -3.5 2 3.5
v -3.5 3 3.5
v -0.5 -4 3.5
v -0.5 -3 3.5
v -0.5 -1 3.5
v -0.5 0 3.5
v -0.5 2 3.5
v -0.5 3 3.5
v 0.5 -4 3.5
v 0.5 -3 3.5
v 0.5 -1 3.5
v 0.5 0 3.5
v 0.5 2 3.5
v 0.5 3 3.5
v 3.5 -4 3.5
v 3.5 -3 3.5
v 3.5 -1 3.5
v 3.5 0 3.5
v 3.5 2 3.5
v 3.5 3 3.5
v -2.5 3 2.5
v -2.5 4 2.5
v -1.5 3 2.5
v -1.5 4 2.5
v -0.5 -4 2.5
v -0.5 -3 2.5
v -0.5 -1 2.5
v -0.5 0 2.5
v 0.5 -4 2.5
v 0.5 -3 2.5
v 0.5 -1 2.5
v 0.5 0 2.5
v 1.5 3 2.5
v 1.5 4 2.5
v 2.5 3 2.5
v 2.5 4 2.5
v -3.5 -4 -0.5
v -3.5 -3 -0.5
v -3.5 -1 -0.5
v -3.5 0 -0.5
v -3.5 2 -0.5
v -3.5 3 -0.5
v -2.5 -4 -0.5
v -2.5 -3 -0.5
v -2.5 -1 -0.5
v -2.5 0 -0.5
v -0.5 2 -0.5
v -0.5 3 -0.5
v 0.5 2 -0.5
v 0.5 3 -0.5
v 2.5 -4 -0.5
v 2.5 -3 -0.5
v 2.5 -1 -0.5
v 2.5 0 -0.5
v 3.5 -4 -0.5
v 3.5 -3 -0.5
v 3.5 -1 -0.5
v 3.5 0 -0.5
v 3.5 2 -0.5
v 3.5 3 -0.5
v -2.5 3 -1.5
v -2.5 4 -1.5
v -1.5 3 -1.5
v -1.5 4 -1.5
v 1.5 3 -1.5
v 1.5 4 -1.5
v 2.5 3 -1.5
v 2.5 4 -1.5
v -2.5 3 1.5
v -2.5 4 1.5
v -1.5 3 1.5
v -1.5 4 1.5
v 1.5 3 1.5
v 1.5 4 1.5
v 2.5 3 1.5
v 2.5 4 1.5
v -3.5 -4 0.5
v -3.5 -3 0.5
v -3.5 -1 0.5
v -3.5 0 0.5
v -3.5 2 0.5
v -3.5 3 0.5
v -2.5 -4 0.5
v -2.5 -3 0.5
v -2.5 -1 0.5
v -2.5 0 0.5
v -0.5 2 0.5
v -0.5 3 0.5
v 0.5 2 0.5
v 0.5 3 0.5
v 2.5 -4 0.5
v 2.5 -3 0.5
v 2.5 -1 0.5
v 2.5 0 0.5
v 3.5 -4 0.5
v 3.5 -3 0.5
v 3.5 -1 0.5
v 3.5 0 0.5
v 3.5 2 0.5
v 3.5 3 0.5
v -2.5 3 -2.5
v -2.5 4 -2.5
v -1.5 3 -2.5
v -1.5 4 -2.5
v -0.5 -4 -2.5
v -0.5 -3 -2.5
v -0.5 -1 -2.5
v -0.5 0 -2.5
v 0.5 -4 -2.5
v 0.5 -3 -2.5
v 0.5 -1 -2.5
v 0.5 0 -2.5
v 1.5 3 -2.5
v 1.5 4 -2.5
v 2.5 3 -2.5
v 2.5 4 -2.5
v -3.5 -4 -3.5
v -3.5 -3 -3.5
v -3.5 -1 -3.5
v -3.5 0 -3.5
v -3.5 2 -3.5
v -3.5 3 -3.5
v -0.5 -4 -3.5
v -0.5 -3 -3.5
v -0.5 -1 -3.5
v -0.5 0 -3.5
v -0.5 2 -3.5
v -0.5 3 -3.5
v 0.5 -4 -3.5
v 0.5 -3 -3.5
v 0.5 -1 -3.5
v 0.5 0 -3.5
v 0.5 2 -3.5
v 0.5 3 -3.5
v 3.5 -4 -3.5
v 3.5 -3 -3.5
v 3.5 -1 -3.5
v 3.5 0 -3.5
v 3.5 2 -3.5
v 3.5 3 -3.5
v -3.5 -4 3.5
v -0.5 -4 3.5
v 0.5 -4 3.5
v 3.5 -4 3.5
v -0.5 -4 2.5
v 0.5 -4 2.5
v -3.5 -4 0.5
v -2.5 -4 0.5
v 2.5 -4 0.5
v 3.5 -4 0.5
v -3.5 -4 -0.5
v -2.5 -4 -0.5
v 2.5 -4 -0.5
v 3.5 -4 -0.5
v -0.5 -4 -2.5
v 0.5 -4 -2.5
v -3.5 -4 -3.5
v -0.5 -4 -3.5
v 0.5 -4 -3.5
v 3.5 -4 -3.5
v -0.5 -3 3.5
v 0.5 -3 3.5
v -0.5 -3 2.5
v 0.5 -3 2.5
v -3.5 -3 0.5
v -2.5 -3 0.5
v 2.5 -3 0.5
v 3.5 -3 0.5
v -3.5 -3 -0.5
v -2.5 -3 -0.5
v 2.5 -3 -0.5
v 3.5 -3 -0.5
v -0.5 -3 -2.5
v 0.5 -3 -2.5
v -0.5 -3 -3.5
v 0.5 -3 -3.5
v -0.5 0 3.5
v 0.5 0 3.5
v -0.5 0 2.5
v 0.5 0 2.5
v -3.5 0 0.5
v -2.5 0 0.5
v 2.5 0 0.5
v 3.5 0 0.5
v -3.5 0 -0.5
v -2.5 0 -0.5
v 2.5 0 -0.5
v 3.5 0 -0.5
v -0.5 0 -2.5
v 0.5 0 -2.5
v -0.5 0 -3.5
v 0.5 0 -3.5
v -0.5 -1 3.5
v 0.5 -1 3.5
v -0.5 -1 2.5
v 0.5 -1 2.5
v -3.5 -1 0.5
v -2.5 -1 0.5
v 2.5 -1 0.5
v 3.5 -1 0.5
v -3.5 -1 -0.5
v -2.5 -1 -0.5
v 2.5 -1 -0.5
v 3.5 -1 -0.5
v -0.5 -1 -2.5
v 0.5 -1 -2.5
v -0.5 -1 -3.5
v 0.5 -1 -3.5
v -0.5 2 3.5
v 0.5 2 3.5
v -3.5 2 0.5
v -0.5 2 0.5
v 0.5 2 0.5
v 3.5 2 0.5
v -3.5 2 -0.5
v -0.5 2 -0.5
v 0.5 2 -0.5
v 3.5 2 -0.5
v -0.5 2 -3.5
v 0.5 2 -3.5
v -3.5 3 3.5
v -0.5 3 3.5
v 0.5 3 3.5
v 3.5 3 3.5
v -2.5 3 2.5
v -1.5 3 2.5
v 1.5 3 2.5
v 2.5 3 2.5
v -2.5 3 1.5
v -1.5 3 1.5
v 1.5 3 1.5
v 2.5 3 1.5
v -3.5 3 0.5
v -0.5 3 0.5
v 0.5 3 0.5
v 3.5 3 0.5
v -3.5 3 -0.5
v -0.5 3 -0.5
v 0.5 3 -0.5
v 3.5 3 -0.5
v -2.5 3 -1.5
v -1.5 3 -1.5
v 1.5 3 -1.5
v 2.5 3 -1.5
v -2.5 3 -2.5
v -1.5 3 -2.5
v 1.5 3 -2.5
v 2.5 3 -2.5
v -3.5 3 -3.5
v -0.5 3 -3.5
v 0.5 3 -3.5
v 3.5 3 -3.5
v -2.5 4 2.5
v -1.5 4 2.5
v 1.5 4 2.5
v 2.5 4 2.5
v -2.5 4 1.5
v -1.5 4 1.5
v 1.5 4 1.5
v 2.5 4 1.5
v -2.5 4 -1.5
v -1.5 4 -1.5
v 1.5 4 -1.5
v 2.5 4 -1.5
v -2.5 4 -2.5
v -1.5 4 -2.5
v 1.5 4 -2.5
v 2.5 4 -2.5

# faces
f 5/3/1 2/3/1 1/3/1
f 6/3/1 2/3/1 5/3/1
f 7/3/1 4/3/1 3/3/1
f 8/3/1 4/3/1 7/3/1
f 9/1/1 6/1/1 5/1/1
f 9/1/1 7/1/1 6/1/1
f 9/1/1 8/1/1 7/1/1
f 10/1/1 8/1/1 9/1/1
f 11/1/1 8/1/1 10/1/1
f 12/1/1 8/1/1 11/1/1
f 13/3/1 10/3/1 9/3/1
f 14/3/1 10/3/1 13/3/1
f 15/3/1 12/3/1 11/3/1
f 16/3/1 12/3/1 15/3/1
f 17/1/1 14/1/1 13/1/1
f 17/1/1 15/1/1 14/1/1
f 17/1/1 16/1/1 15/1/1
f 18/1/1 16/1/1 17/1/1
f 19/1/1 16/1/1 18/1/1
f 20/1/1 16/1/1 19/1/1
f 21/3/1 18/3/1 17/3/1
f 22/3/1 18/3/1 21/3/1
f 23/3/1 20/3/1 19/3/1
f 24/3/1 20/3/1 23/3/1
f 27/3/1 26/3/1 25/3/1
f 28/3/1 26/3/1 27/3/1
f 31/1/1 30/1/1 29/1/1
f 32/1/1 30/1/1 31/1/1
f 37/2/1 34/2/1 33/2/1
f 38/2/1 34/2/1 37/2/1
f 39/2/1 36/2/1 35/2/1
f 40/2/1 36/2/1 39/2/1
f 45/3/1 42/3/1 41/3/1
f 46/3/1 42/3/1 45/3/1
f 47/3/1 44/3/1 43/3/1
f 48/3/1 44/3/1 47/3/1
f 53/3/1 50/3/1 49/3/1
f 54/3/1 50/3/1 53/3/1
f 55/3/1 52/3/1 51/3/1
f 56/3/1 52/3/1 55/3/1
f 61/3/1 58/3/1 57/3/1
f 62/3/1 58/3/1 61/3/1
f 63/3/1 60/3/1 59/3/1
f 64/3/1 60/3/1 63/3/1
f 69/2/1 66/2/1 65/2/1
f 70/2/1 66/2/1 69/2/1
f 71/2/1 68/2/1 67/2/1
f 72/2/1 68/2/1 71/2/1
f 73/2/2 74/2/2 77/2/2
f 77/2/2 74/2/2 78/2/2
f 75/2/2 76/2/2 79/2/2
f 79/2/2 76/2/2 80/2/2
f 81/3/2 82/3/2 85/3/2
f 85/3/2 82/3/2 86/3/2
f 83/3/2 84/3/2 87/3/2
f 87/3/2 84/3/2 88/3/2
f 89/3/2 90/3/2 93/3/2
f 93/3/2 90/3/2 94/3/2
f 91/3/2 92/3/2 95/3/2
f 95/3/2 92/3/2 96/3/2
f 97/3/2 98/3/2 101/3/2
f 101/3/2 98/3/2 102/3/2
f 99/3/2 100/3/2 103/3/2
f 103/3/2 100/3/2 104/3/2
f 105/3/2 106/3/2 107/3/2
f 107/3/2 106/3/2 108/3/2
f 109/1/2 110/1/2 111/1/2
f 111/1/2 110/1/2 112/1/2
f 113/2/2 114/2/2 117/2/2
f 117/2/2 114/2/2 118/2/2
f 115/2/2 116/2/2 119/2/2
f 119/2/2 116/2/2 120/2/2
f 121/3/2 122/3/2 125/3/2
f 125/3/2 122/3/2 126/3/2
f 123/3/2 124/3/2 127/3/2
f 127/3/2 124/3/2 128/3/2
f 125/1/2 126/1/2 129/1/2
f 126/1/2 127/1/2 129/1/2
f 127/1/2 128/1/2 129/1/2
f 129/1/2 128/1/2 130/1/2
f 130/1/2 128/1/2 131/1/2
f 131/1/2 128/1/2 132/1/2
f 129/3/2 130/3/2 133/3/2
f 133/3/2 130/3/2 134/3/2
f 131/3/2 132/3/2 135/3/2
f 135/3/2 132/3/2 136/3/2
f 133/1/2 134/1/2 137/1/2
f 134/1/2 135/1/2 137/1/2
f 135/1/2 136/1/2 137/1/2
f 137/1/2 136/1/2 138/1/2
f 138/1/2 136/1/2 139/1/2
f 139/1/2 136/1/2 140/1/2
f 137/3/2 138/3/2 141/3/2
f 141/3/2 138/3/2 142/3/2
f 139/3/2 140/3/2 143/3/2
f 143/3/2 140/3/2 144/3/2
f 151/3/3 146/3/3 145/3/3
f 152/1/3 147/1/3 146/1/3
f 152/3/3 146/3/3 151/3/3
f 153/3/3 148/3/3 147/3/3
f 153/1/3 147/1/3 152/1/3
f 154/1/3 149/1/3 148/1/3
f 154/3/3 148/3/3 153/3/3
f 155/3/3 150/3/3 149/3/3
f 155/1/3 149/1/3 154/1/3
f 156/3/3 150/3/3 155/3/3
f 158/1/3 153/1/3 152/1/3
f 159/1/3 153/1/3 158/1/3
f 160/1/3 155/1/3 154/1/3
f 161/1/3 155/1/3 160/1/3
f 163/3/3 158/3/3 157/3/3
f 164/1/3 159/1/3 158/1/3
f 164/3/3 158/3/3 163/3/3
f 165/3/3 160/3/3 159/3/3
f 165/1/3 159/1/3 164/1/3
f 166/1/3 161/1/3 160/1/3
f 166/3/3 160/3/3 165/3/3
f 167/3/3 162/3/3 161/3/3
f 167/1/3 161/1/3 166/1/3
f 168/3/3 162/3/3 167/3/3
f 171/2/3 170/2/3 169/2/3
f 172/2/3 170/2/3 171/2/3
f 177/3/3 174/3/3 173/3/3
f 178/3/3 174/3/3 177/3/3
f 179/1/3 176/1/3 175/1/3
f 180/1/3 176/1/3 179/1/3
f 183/2/3 182/2/3 181/2/3
f 184/2/3 182/2/3 183/2/3
f 191/3/3 186/3/3 185/3/3
f 192/3/3 186/3/3 191/3/3
f 193/3/3 188/3/3 187/3/3
f 194/3/3 188/3/3 193/3/3
f 195/3/3 190/3/3 189/3/3
f 196/3/3 190/3/3 195/3/3
f 203/3/3 200/3/3 199/3/3
f 204/3/3 200/3/3 203/3/3
f 205/3/3 202/3/3 201/3/3
f 206/3/3 202/3/3 205/3/3
f 207/3/3 198/3/3 197/3/3
f 208/3/3 198/3/3 207/3/3
f 211/2/3 210/2/3 209/2/3
f 212/2/3 210/2/3 211/2/3
f 215/2/3 214/2/3 213/2/3
f 216/2/3 214/2/3 215/2/3
f 217/2/4 218/2/4 219/2/4
f 219/2/4 218/2/4 220/2/4
f 221/2/4 222/2/4 223/2/4
f 223/2/4 222/2/4 224/2/4
f 225/3/4 226/3/4 231/3/4
f 231/3/4 226/3/4 232/3/4
f 227/3/4 228/3/4 233/3/4
f 233/3/4 228/3/4 234/3/4
f 229/3/4 230/3/4 235/3/4
f 235/3/4 230/3/4 236/3/4
f 239/3/4 240/3/4 243/3/4
f 243/3/4 240/3/4 244/3/4
f 241/3/4 242/3/4 245/3/4
f 245/3/4 242/3/4 246/3/4
f 237/3/4 238/3/4 247/3/4
f 247/3/4 238/3/4 248/3/4
f 249/2/4 250/2/4 251/2/4
f 251/2/4 250/2/4 252/2/4
f 253/3/4 254/3/4 257/3/4
f 257/3/4 254/3/4 258/3/4
f 255/1/4 256/1/4 259/1/4
f 259/1/4 256/1/4 260/1/4
f 261/2/4 262/2/4 263/2/4
f 263/2/4 262/2/4 264/2/4
f 265/3/4 266/3/4 271/3/4
f 266/1/4 267/1/4 272/1/4
f 271/3/4 266/3/4 272/3/4
f 267/3/4 268/3/4 273/3/4
f 272/1/4 267/1/4 273/1/4
f 268/1/4 269/1/4 274/1/4
f 273/3/4 268/3/4 274/3/4
f 269/3/4 270/3/4 275/3/4
f 274/1/4 269/1/4 275/1/4
f 275/3/4 270/3/4 276/3/4
f 272/1/4 273/1/4 278/1/4
f 278/1/4 273/1/4 279/1/4
f 274/1/4 275/1/4 280/1/4
f 280/1/4 275/1/4 281/1/4
f 277/3/4 278/3/4 283/3/4
f 278/1/4 279/1/4 284/1/4
f 283/3/4 278/3/4 284/3/4
f 279/3/4 280/3/4 285/3/4
f 284/1/4 279/1/4 285/1/4
f 280/1/4 281/1/4 286/1/4
f 285/3/4 280/3/4 286/3/4
f 281/3/4 282/3/4 287/3/4
f 286/1/4 281/1/4 287/1/4
f 287/3/4 282/3/4 288/3/4
f 293/3/5 290/3/5 289/3/5
f 294/3/5 292/3/5 291/3/5
f 295/3/5 293/3/5 289/3/5
f 295/3/5 294/3/5 293/3/5
f 296/3/5 294/3/5 295/3/5
f 297/3/5 292/3/5 294/3/5
f 297/3/5 294/3/5 296/3/5
f 298/3/5 292/3/5 297/3/5
f 300/3/5 297/3/5 296/3/5
f 301/3/5 297/3/5 300/3/5
f 303/3/5 300/3/5 299/3/5
f 303/3/5 302/3/5 301/3/5
f 303/3/5 301/3/5 300/3/5
f 304/3/5 302/3/5 303/3/5
f 305/3/5 303/3/5 299/3/5
f 306/3/5 303/3/5 305/3/5
f 307/3/5 302/3/5 304/3/5
f 308/3/5 302/3/5 307/3/5
f 311/1/5 310/1/5 309/1/5
f 312/1/5 310/1/5 311/1/5
f 317/1/5 314/1/5 313/1/5
f 318/1/5 314/1/5 317/1/5
f 319/1/5 316/1/5 315/1/5
f 320/1/5 316/1/5 319/1/5
f 323/1/5 322/1/5 321/1/5
f 324/1/5 322/1/5 323/1/5
f 327/1/5 326/1/5 325/1/5
f 328/1/5 326/1/5 327/1/5
f 333/1/5 330/1/5 329/1/5
f 334/1/5 330/1/5 333/1/5
f 335/1/5 332/1/5 331/1/5
f 336/1/5 332/1/5 335/1/5
f 339/1/5 338/1/5 337/1/5
f 340/1/5 338/1/5 339/1/5
f 341/1/6 342/1/6 343/1/6
f 343/1/6 342/1/6 344/1/6
f 345/1/6 346/1/6 349/1/6
f 349/1/6 346/1/6 350/1/6
f 347/1/6 348/1/6 351/1/6
f 351/1/6 348/1/6 352/1/6
f 353/1/6 354/1/6 355/1/6
f 355/1/6 354/1/6 356/1/6
f 357/1/6 358/1/6 360/1/6
f 360/1/6 358/1/6 361/1/6
f 359/1/6 360/1/6 363/1/6
f 361/1/6 362/1/6 363/1/6
f 360/1/6 361/1/6 363/1/6
f 363/1/6 362/1/6 364/1/6
f 364/1/6 362/1/6 365/1/6
f 365/1/6 362/1/6 366/1/6
f 364/1/6 365/1/6 367/1/6
f 367/1/6 365/1/6 368/1/6
f 369/3/6 370/3/6 373/3/6
f 373/3/6 370/3/6 374/3/6
f 371/3/6 372/3/6 375/3/6
f 375/3/6 372/3/6 376/3/6
f 369/3/6 373/3/6 377/3/6
f 374/3/6 370/3/6 378/3/6
f 371/3/6 375/3/6 379/3/6
f 376/3/6 372/3/6 380/3/6
f 369/3/6 377/3/6 381/3/6
f 377/3/6 378/3/6 381/3/6
f 378/3/6 370/3/6 382/3/6
f 381/3/6 378/3/6 382/3/6
f 379/3/6 380/3/6 383/3/6
f 371/3/6 379/3/6 383/3/6
f 380/3/6 372/3/6 384/3/6
f 383/3/6 380/3/6 384/3/6
f 385/3/6 386/3/6 389/3/6
f 389/3/6 386/3/6 390/3/6
f 387/3/6 388/3/6 391/3/6
f 391/3/6 388/3/6 392/3/6
f 385/3/6 389/3/6 393/3/6
f 390/3/6 386/3/6 394/3/6
f 387/3/6 391/3/6 395/3/6
f 392/3/6 388/3/6 396/3/6
f 385/3/6 393/3/6 397/3/6
f 393/3/6 394/3/6 397/3/6
f 394/3/6 386/3/6 398/3/6
f 397/3/6 394/3/6 398/3/6
f 395/3/6 396/3/6 399/3/6
f 387/3/6 395/3/6 399/3/6
f 396/3/6 388/3/6 400/3/6
f 399/3/6 396/3/6 400/3/6
f 401/2/6 402/2/6 405/2/6
f 405/2/6 402/2/6 406/2/6
f 403/2/6 404/2/6 407/2/6
f 407/2/6 404/2/6 408/2/6
f 409/2/6 410/2/6 413/2/6
f 413/2/6 410/2/6 414/2/6
f 411/2/6 412/2/6 415/2/6
f 415/2/6 412/2/6 416/2/6
