# MagicaVoxel @ Ephtracy

# group
g Terrain_SnowGrass-13

# material
mtllib Terrain_SnowGrass-13.mtl
usemtl palette

# normals
vn -1 0 0
vn 1 0 0
vn 0 0 1
vn 0 0 -1
vn 0 -1 0
vn 0 1 0

# texcoords
vt 0.0332031 0.5
vt 0.0371094 0.5
vt 0.0410156 0.5
vt 0.0488281 0.5
vt 0.0527344 0.5
vt 0.0566406 0.5

# verts
v -5 -5 5
v -5 -5 1
v -5 -5 -0
v -5 -5 -1
v -5 -5 -2
v -5 -5 -3
v -5 -5 -5
v -5 -4 5
v -5 -4 4
v -5 -4 3
v -5 -4 1
v -5 -4 -0
v -5 -4 -1
v -5 -4 -2
v -5 -4 -3
v -5 -4 -4
v -5 -3 4
v -5 -3 3
v -5 -3 2
v -5 -3 1
v -5 -3 -0
v -5 -3 -1
v -5 -3 -2
v -5 -3 -3
v -5 -3 -4
v -5 -3 -5
v -5 -2 4
v -5 -2 2
v -5 -2 1
v -5 -2 -0
v -5 -2 -1
v -5 -2 -2
v -5 -2 -4
v -5 -1 5
v -5 -1 4
v -5 -1 3
v -5 -1 1
v -5 -1 -0
v -5 -1 -1
v -5 -1 -2
v -5 0 5
v -5 0 3
v -5 0 2
v -5 0 1
v -5 0 -0
v -5 0 -2
v -5 0 -3
v -5 0 -4
v -5 1 5
v -5 1 4
v -5 1 2
v -5 1 1
v -5 1 -0
v -5 1 -1
v -5 1 -3
v -5 1 -4
v -5 1 -5
v -5 2 2
v -5 2 1
v -5 2 -0
v -5 2 -1
v -5 2 -2
v -5 2 -3
v -5 2 -4
v -5 3 5
v -5 3 4
v -5 3 3
v -5 3 2
v -5 3 1
v -5 3 -0
v -5 3 -4
v -5 3 -5
v -5 5 5
v -5 5 -5
v 5 -5 5
v 5 -5 4
v 5 -5 2
v 5 -5 1
v 5 -5 -1
v 5 -5 -2
v 5 -5 -3
v 5 -5 -4
v 5 -5 -5
v 5 -4 5
v 5 -4 4
v 5 -4 3
v 5 -4 2
v 5 -4 -0
v 5 -4 -1
v 5 -4 -2
v 5 -4 -3
v 5 -4 -4
v 5 -4 -5
v 5 -3 5
v 5 -3 4
v 5 -3 3
v 5 -3 2
v 5 -3 1
v 5 -3 -0
v 5 -3 -1
v 5 -3 -2
v 5 -3 -3
v 5 -3 -4
v 5 -3 -5
v 5 -2 5
v 5 -2 4
v 5 -2 1
v 5 -2 -0
v 5 -2 -1
v 5 -2 -3
v 5 -2 -4
v 5 -2 -5
v 5 -1 5
v 5 -1 4
v 5 -1 3
v 5 -1 1
v 5 -1 -0
v 5 -1 -1
v 5 -1 -2
v 5 -1 -3
v 5 -1 -5
v 5 0 5
v 5 0 4
v 5 0 3
v 5 0 2
v 5 0 -0
v 5 0 -2
v 5 0 -4
v 5 0 -5
v 5 1 4
v 5 1 3
v 5 1 2
v 5 1 1
v 5 1 -0
v 5 1 -1
v 5 1 -2
v 5 1 -4
v 5 1 -5
v 5 2 5
v 5 2 4
v 5 2 3
v 5 2 2
v 5 2 1
v 5 2 -0
v 5 2 -1
v 5 2 -2
v 5 2 -3
v 5 2 -5
v 5 3 5
v 5 3 4
v 5 3 2
v 5 3 1
v 5 3 -0
v 5 3 -2
v 5 3 -3
v 5 3 -5
v 5 5 5
v 5 5 -5
v -5 -5 5
v -5 -4 5
v -5 -1 5
v -5 0 5
v -5 1 5
v -5 3 5
v -5 5 5
v -4 -4 5
v -4 -1 5
v -4 0 5
v -4 1 5
v -4 3 5
v -3 -5 5
v -3 -3 5
v -3 -2 5
v -3 -1 5
v -3 0 5
v -3 1 5
v -3 3 5
v -2 -5 5
v -2 -3 5
v -2 -2 5
v -2 -1 5
v -2 0 5
v -2 1 5
v -1 0 5
v -1 1 5
v -1 2 5
v 0 -5 5
v 0 -3 5
v 0 -2 5
v 0 -1 5
v 0 0 5
v 0 1 5
v 1 -5 5
v 1 -4 5
v 1 -3 5
v 1 -2 5
v 1 -1 5
v 1 0 5
v 1 2 5
v 2 -5 5
v 2 -4 5
v 2 -2 5
v 2 -1 5
v 2 0 5
v 2 1 5
v 2 2 5
v 3 -5 5
v 3 -4 5
v 3 -3 5
v 3 -1 5
v 3 1 5
v 3 3 5
v 4 -5 5
v 4 -4 5
v 4 -3 5
v 4 -2 5
v 4 -1 5
v 4 0 5
v 4 2 5
v 5 -5 5
v 5 -4 5
v 5 -3 5
v 5 -2 5
v 5 -1 5
v 5 0 5
v 5 2 5
v 5 3 5
v 5 5 5
v -5 -5 -5
v -5 -3 -5
v -5 1 -5
v -5 3 -5
v -5 5 -5
v -4 -5 -5
v -4 -4 -5
v -4 -3 -5
v -4 1 -5
v -4 3 -5
v -3 -5 -5
v -3 -4 -5
v -3 -3 -5
v -3 -2 -5
v -3 -1 -5
v -3 0 -5
v -3 1 -5
v -3 2 -5
v -2 -5 -5
v -2 -4 -5
v -2 -3 -5
v -2 -2 -5
v -2 -1 -5
v -2 0 -5
v -2 1 -5
v -2 2 -5
v -2 3 -5
v -1 -5 -5
v -1 -4 -5
v -1 -3 -5
v -1 -2 -5
v -1 -1 -5
v -1 0 -5
v -1 1 -5
v -1 2 -5
v 0 -5 -5
v 0 -4 -5
v 0 -3 -5
v 0 -2 -5
v 0 -1 -5
v 0 0 -5
v 0 1 -5
v 0 2 -5
v 1 -5 -5
v 1 -4 -5
v 1 -2 -5
v 1 -1 -5
v 1 0 -5
v 1 2 -5
v 1 3 -5
v 2 -5 -5
v 2 -4 -5
v 2 -3 -5
v 2 -2 -5
v 2 2 -5
v 2 3 -5
v 3 -3 -5
v 3 -2 -5
v 3 -1 -5
v 3 2 -5
v 3 3 -5
v 4 -5 -5
v 4 -4 -5
v 4 -3 -5
v 4 -2 -5
v 4 -1 -5
v 4 0 -5
v 4 1 -5
v 4 2 -5
v 4 3 -5
v 5 -5 -5
v 5 -4 -5
v 5 -3 -5
v 5 -2 -5
v 5 -1 -5
v 5 0 -5
v 5 1 -5
v 5 2 -5
v 5 3 -5
v 5 5 -5
v -5 -5 5
v -3 -5 5
v -2 -5 5
v 0 -5 5
v 1 -5 5
v 2 -5 5
v 3 -5 5
v 4 -5 5
v 5 -5 5
v -4 -5 4
v -3 -5 4
v -2 -5 4
v -1 -5 4
v 0 -5 4
v 1 -5 4
v 2 -5 4
v 3 -5 4
v 4 -5 4
v 5 -5 4
v -2 -5 3
v -1 -5 3
v 1 -5 3
v 3 -5 3
v 4 -5 3
v -3 -5 2
v -2 -5 2
v -1 -5 2
v 0 -5 2
v 1 -5 2
v 2 -5 2
v 3 -5 2
v 5 -5 2
v -5 -5 1
v -4 -5 1
v -2 -5 1
v -1 -5 1
v 0 -5 1
v 1 -5 1
v 2 -5 1
v 3 -5 1
v 4 -5 1
v 5 -5 1
v -5 -5 -0
v -4 -5 -0
v -3 -5 -0
v -2 -5 -0
v -1 -5 -0
v 0 -5 -0
v 1 -5 -0
v 2 -5 -0
v 3 -5 -0
v 4 -5 -0
v -5 -5 -1
v -4 -5 -1
v -3 -5 -1
v -2 -5 -1
v -1 -5 -1
v 0 -5 -1
v 1 -5 -1
v 2 -5 -1
v 3 -5 -1
v 4 -5 -1
v 5 -5 -1
v -5 -5 -2
v -4 -5 -2
v -3 -5 -2
v -1 -5 -2
v 0 -5 -2
v 1 -5 -2
v 2 -5 -2
v 5 -5 -2
v -5 -5 -3
v -4 -5 -3
v -3 -5 -3
v -2 -5 -3
v -1 -5 -3
v 0 -5 -3
v 1 -5 -3
v 2 -5 -3
v 3 -5 -3
v 4 -5 -3
v 5 -5 -3
v -2 -5 -4
v -1 -5 -4
v 0 -5 -4
v 1 -5 -4
v 3 -5 -4
v 4 -5 -4
v 5 -5 -4
v -5 -5 -5
v -4 -5 -5
v -3 -5 -5
v -2 -5 -5
v -1 -5 -5
v 0 -5 -5
v 1 -5 -5
v 2 -5 -5
v 4 -5 -5
v 5 -5 -5
v -5 5 5
v 5 5 5
v 2 5 4
v 3 5 4
v 1 5 3
v 2 5 3
v 3 5 3
v 4 5 3
v 1 5 2
v 2 5 2
v 3 5 2
v 4 5 2
v 1 5 1
v 2 5 1
v 3 5 1
v 4 5 1
v 1 5 -0
v 2 5 -0
v 2 5 -1
v 3 5 -1
v -5 5 -5
v 5 5 -5

# faces
f 8/3/1 2/3/1 1/3/1
f 9/3/1 2/3/1 8/3/1
f 10/3/1 2/3/1 9/3/1
f 11/1/1 3/1/1 2/1/1
f 11/3/1 2/3/1 10/3/1
f 12/3/1 4/3/1 3/3/1
f 12/1/1 3/1/1 11/1/1
f 13/1/1 5/1/1 4/1/1
f 13/3/1 4/3/1 12/3/1
f 14/3/1 6/3/1 5/3/1
f 14/1/1 5/1/1 13/1/1
f 15/2/1 7/2/1 6/2/1
f 15/3/1 6/3/1 14/3/1
f 16/2/1 7/2/1 15/2/1
f 17/2/1 10/2/1 9/2/1
f 17/1/1 9/1/1 8/1/1
f 18/3/1 11/3/1 10/3/1
f 18/2/1 10/2/1 17/2/1
f 19/3/1 11/3/1 18/3/1
f 20/2/1 12/2/1 11/2/1
f 20/3/1 11/3/1 19/3/1
f 21/1/1 13/1/1 12/1/1
f 21/2/1 12/2/1 20/2/1
f 22/2/1 14/2/1 13/2/1
f 22/1/1 13/1/1 21/1/1
f 22/2/1 15/2/1 14/2/1
f 23/2/1 15/2/1 22/2/1
f 24/1/1 16/1/1 15/1/1
f 24/2/1 15/2/1 23/2/1
f 25/2/1 7/2/1 16/2/1
f 25/1/1 16/1/1 24/1/1
f 26/2/1 7/2/1 25/2/1
f 27/1/1 17/1/1 8/1/1
f 27/3/1 19/3/1 18/3/1
f 27/3/1 18/3/1 17/3/1
f 28/2/1 20/2/1 19/2/1
f 28/3/1 19/3/1 27/3/1
f 29/1/1 21/1/1 20/1/1
f 29/2/1 20/2/1 28/2/1
f 30/2/1 22/2/1 21/2/1
f 30/1/1 21/1/1 29/1/1
f 31/3/1 23/3/1 22/3/1
f 31/2/1 22/2/1 30/2/1
f 32/1/1 24/1/1 23/1/1
f 32/3/1 23/3/1 31/3/1
f 32/1/1 26/1/1 25/1/1
f 32/1/1 25/1/1 24/1/1
f 33/1/1 26/1/1 32/1/1
f 34/1/1 27/1/1 8/1/1
f 35/2/1 28/2/1 27/2/1
f 35/1/1 27/1/1 34/1/1
f 35/2/1 29/2/1 28/2/1
f 36/2/1 29/2/1 35/2/1
f 37/3/1 30/3/1 29/3/1
f 37/2/1 29/2/1 36/2/1
f 38/1/1 31/1/1 30/1/1
f 38/3/1 30/3/1 37/3/1
f 39/2/1 33/2/1 32/2/1
f 39/1/1 31/1/1 38/1/1
f 39/2/1 32/2/1 31/2/1
f 40/2/1 33/2/1 39/2/1
f 41/2/1 36/2/1 35/2/1
f 41/2/1 35/2/1 34/2/1
f 42/1/1 37/1/1 36/1/1
f 42/2/1 36/2/1 41/2/1
f 43/1/1 37/1/1 42/1/1
f 44/2/1 38/2/1 37/2/1
f 44/1/1 37/1/1 43/1/1
f 45/1/1 40/1/1 39/1/1
f 45/2/1 38/2/1 44/2/1
f 45/1/1 39/1/1 38/1/1
f 46/2/1 33/2/1 40/2/1
f 46/1/1 40/1/1 45/1/1
f 47/2/1 33/2/1 46/2/1
f 48/1/1 26/1/1 33/1/1
f 48/2/1 33/2/1 47/2/1
f 49/1/1 42/1/1 41/1/1
f 50/1/1 42/1/1 49/1/1
f 51/2/1 43/2/1 42/2/1
f 51/1/1 44/1/1 43/1/1
f 52/3/1 45/3/1 44/3/1
f 52/1/1 44/1/1 51/1/1
f 53/2/1 46/2/1 45/2/1
f 53/3/1 45/3/1 52/3/1
f 54/2/1 46/2/1 53/2/1
f 55/1/1 47/1/1 46/1/1
f 55/3/1 48/3/1 47/3/1
f 56/1/1 26/1/1 48/1/1
f 56/3/1 48/3/1 55/3/1
f 57/1/1 26/1/1 56/1/1
f 58/2/1 51/2/1 42/2/1
f 58/2/1 52/2/1 51/2/1
f 58/2/1 53/2/1 52/2/1
f 59/2/1 53/2/1 58/2/1
f 60/3/1 54/3/1 53/3/1
f 60/2/1 53/2/1 59/2/1
f 61/2/1 46/2/1 54/2/1
f 61/3/1 54/3/1 60/3/1
f 62/1/1 55/1/1 46/1/1
f 62/2/1 46/2/1 61/2/1
f 63/2/1 56/2/1 55/2/1
f 63/1/1 55/1/1 62/1/1
f 64/3/1 57/3/1 56/3/1
f 64/2/1 56/2/1 63/2/1
f 65/3/1 50/3/1 49/3/1
f 66/1/1 42/1/1 50/1/1
f 66/3/1 50/3/1 65/3/1
f 67/2/1 58/2/1 42/2/1
f 67/1/1 42/1/1 66/1/1
f 68/1/1 59/1/1 58/1/1
f 68/2/1 58/2/1 67/2/1
f 69/2/1 60/2/1 59/2/1
f 69/1/1 59/1/1 68/1/1
f 70/1/1 61/1/1 60/1/1
f 70/2/1 60/2/1 69/2/1
f 70/1/1 63/1/1 62/1/1
f 70/1/1 64/1/1 63/1/1
f 70/1/1 62/1/1 61/1/1
f 71/3/1 57/3/1 64/3/1
f 71/1/1 64/1/1 70/1/1
f 72/3/1 57/3/1 71/3/1
f 73/6/1 68/6/1 67/6/1
f 73/6/1 70/6/1 69/6/1
f 73/6/1 72/6/1 71/6/1
f 73/6/1 71/6/1 70/6/1
f 73/6/1 69/6/1 68/6/1
f 73/6/1 67/6/1 66/6/1
f 73/6/1 66/6/1 65/6/1
f 74/6/1 72/6/1 73/6/1
f 75/3/2 76/3/2 84/3/2
f 76/1/2 77/1/2 85/1/2
f 84/3/2 76/3/2 85/3/2
f 85/1/2 77/1/2 86/1/2
f 77/2/2 78/2/2 87/2/2
f 86/1/2 77/1/2 87/1/2
f 78/1/2 79/1/2 88/1/2
f 79/2/2 80/2/2 89/2/2
f 88/1/2 79/1/2 89/1/2
f 80/1/2 81/1/2 90/1/2
f 89/2/2 80/2/2 90/2/2
f 81/2/2 82/2/2 91/2/2
f 90/1/2 81/1/2 91/1/2
f 82/3/2 83/3/2 92/3/2
f 91/2/2 82/2/2 92/2/2
f 92/3/2 83/3/2 93/3/2
f 84/2/2 85/2/2 94/2/2
f 85/1/2 86/1/2 95/1/2
f 94/2/2 85/2/2 95/2/2
f 86/3/2 87/3/2 96/3/2
f 95/1/2 86/1/2 96/1/2
f 87/2/2 78/2/2 97/2/2
f 96/3/2 87/3/2 97/3/2
f 78/1/2 88/1/2 98/1/2
f 97/2/2 78/2/2 98/2/2
f 88/2/2 89/2/2 99/2/2
f 98/1/2 88/1/2 99/1/2
f 89/1/2 90/1/2 100/1/2
f 99/2/2 89/2/2 100/2/2
f 90/2/2 91/2/2 101/2/2
f 100/1/2 90/1/2 101/1/2
f 91/1/2 92/1/2 102/1/2
f 101/2/2 91/2/2 102/2/2
f 92/1/2 93/1/2 102/1/2
f 102/1/2 93/1/2 103/1/2
f 103/1/2 93/1/2 104/1/2
f 94/3/2 95/3/2 105/3/2
f 95/2/2 96/2/2 106/2/2
f 105/3/2 95/3/2 106/3/2
f 97/2/2 98/2/2 107/2/2
f 98/3/2 99/3/2 107/3/2
f 99/1/2 100/1/2 108/1/2
f 107/3/2 99/3/2 108/3/2
f 100/2/2 101/2/2 109/2/2
f 108/1/2 100/1/2 109/1/2
f 101/2/2 102/2/2 109/2/2
f 102/3/2 103/3/2 110/3/2
f 109/2/2 102/2/2 110/2/2
f 103/2/2 104/2/2 111/2/2
f 110/3/2 103/3/2 111/3/2
f 111/2/2 104/2/2 112/2/2
f 105/1/2 106/1/2 113/1/2
f 106/2/2 96/2/2 114/2/2
f 113/1/2 106/1/2 114/1/2
f 96/1/2 97/1/2 115/1/2
f 114/2/2 96/2/2 115/2/2
f 97/2/2 107/2/2 116/2/2
f 107/2/2 108/2/2 116/2/2
f 108/3/2 109/3/2 117/3/2
f 116/2/2 108/2/2 117/2/2
f 109/2/2 110/2/2 118/2/2
f 117/3/2 109/3/2 118/3/2
f 118/2/2 110/2/2 119/2/2
f 110/1/2 111/1/2 120/1/2
f 119/2/2 110/2/2 120/2/2
f 111/1/2 112/1/2 120/1/2
f 120/1/2 112/1/2 121/1/2
f 113/2/2 114/2/2 122/2/2
f 114/3/2 115/3/2 123/3/2
f 122/2/2 114/2/2 123/2/2
f 115/1/2 97/1/2 124/1/2
f 123/3/2 115/3/2 124/3/2
f 97/2/2 116/2/2 125/2/2
f 124/1/2 97/1/2 125/1/2
f 116/1/2 117/1/2 126/1/2
f 118/3/2 119/3/2 126/3/2
f 117/3/2 118/3/2 126/3/2
f 119/2/2 120/2/2 127/2/2
f 126/3/2 119/3/2 127/3/2
f 120/3/2 121/3/2 128/3/2
f 128/3/2 121/3/2 129/3/2
f 122/1/2 123/1/2 130/1/2
f 123/2/2 124/2/2 130/2/2
f 124/3/2 125/3/2 131/3/2
f 130/2/2 124/2/2 131/2/2
f 125/2/2 116/2/2 132/2/2
f 131/3/2 125/3/2 132/3/2
f 116/1/2 126/1/2 133/1/2
f 132/2/2 116/2/2 133/2/2
f 126/1/2 127/1/2 133/1/2
f 133/1/2 127/1/2 134/1/2
f 134/1/2 127/1/2 135/1/2
f 127/2/2 120/2/2 136/2/2
f 135/1/2 127/1/2 136/1/2
f 128/2/2 129/2/2 137/2/2
f 120/3/2 128/3/2 137/3/2
f 137/2/2 129/2/2 138/2/2
f 130/1/2 131/1/2 139/1/2
f 122/1/2 130/1/2 139/1/2
f 139/1/2 131/1/2 140/1/2
f 131/2/2 132/2/2 141/2/2
f 140/1/2 131/1/2 141/1/2
f 132/1/2 133/1/2 142/1/2
f 141/2/2 132/2/2 142/2/2
f 133/2/2 134/2/2 143/2/2
f 142/1/2 133/1/2 143/1/2
f 134/1/2 135/1/2 144/1/2
f 143/2/2 134/2/2 144/2/2
f 135/2/2 136/2/2 145/2/2
f 144/1/2 135/1/2 145/1/2
f 136/2/2 120/2/2 146/2/2
f 145/2/2 136/2/2 146/2/2
f 137/3/2 138/3/2 147/3/2
f 146/2/2 120/2/2 147/2/2
f 120/3/2 137/3/2 147/3/2
f 147/3/2 138/3/2 148/3/2
f 139/2/2 140/2/2 149/2/2
f 140/1/2 141/1/2 150/1/2
f 149/2/2 140/2/2 150/2/2
f 141/1/2 142/1/2 150/1/2
f 142/3/2 143/3/2 151/3/2
f 150/1/2 142/1/2 151/1/2
f 143/2/2 144/2/2 152/2/2
f 151/3/2 143/3/2 152/3/2
f 144/3/2 145/3/2 153/3/2
f 152/2/2 144/2/2 153/2/2
f 145/3/2 146/3/2 153/3/2
f 146/1/2 147/1/2 154/1/2
f 153/3/2 146/3/2 154/3/2
f 147/2/2 148/2/2 155/2/2
f 154/1/2 147/1/2 155/1/2
f 155/2/2 148/2/2 156/2/2
f 151/6/2 152/6/2 157/6/2
f 152/6/2 153/6/2 157/6/2
f 155/6/2 156/6/2 157/6/2
f 154/6/2 155/6/2 157/6/2
f 149/6/2 150/6/2 157/6/2
f 153/6/2 154/6/2 157/6/2
f 150/6/2 151/6/2 157/6/2
f 157/6/2 156/6/2 158/6/2
f 166/3/3 160/3/3 159/3/3
f 166/1/3 161/1/3 160/1/3
f 167/2/3 162/2/3 161/2/3
f 167/1/3 161/1/3 166/1/3
f 168/1/3 163/1/3 162/1/3
f 168/2/3 162/2/3 167/2/3
f 169/3/3 164/3/3 163/3/3
f 169/1/3 163/1/3 168/1/3
f 170/6/3 165/6/3 164/6/3
f 170/3/3 164/3/3 169/3/3
f 171/3/3 168/3/3 167/3/3
f 171/3/3 166/3/3 159/3/3
f 171/3/3 167/3/3 166/3/3
f 172/3/3 168/3/3 171/3/3
f 173/3/3 168/3/3 172/3/3
f 174/3/3 168/3/3 173/3/3
f 175/2/3 169/2/3 168/2/3
f 175/3/3 168/3/3 174/3/3
f 175/2/3 170/2/3 169/2/3
f 176/2/3 170/2/3 175/2/3
f 177/6/3 165/6/3 170/6/3
f 177/2/3 170/2/3 176/2/3
f 178/1/3 172/1/3 171/1/3
f 179/3/3 173/3/3 172/3/3
f 179/1/3 172/1/3 178/1/3
f 180/2/3 174/2/3 173/2/3
f 180/3/3 173/3/3 179/3/3
f 181/3/3 175/3/3 174/3/3
f 181/2/3 174/2/3 180/2/3
f 182/1/3 176/1/3 175/1/3
f 182/3/3 175/3/3 181/3/3
f 183/3/3 177/3/3 176/3/3
f 183/1/3 176/1/3 182/1/3
f 184/1/3 181/1/3 180/1/3
f 184/1/3 182/1/3 181/1/3
f 184/2/3 183/2/3 182/2/3
f 185/3/3 177/3/3 183/3/3
f 185/2/3 183/2/3 184/2/3
f 186/3/3 177/3/3 185/3/3
f 187/3/3 179/3/3 178/3/3
f 188/2/3 180/2/3 179/2/3
f 188/3/3 179/3/3 187/3/3
f 189/1/3 184/1/3 180/1/3
f 189/2/3 180/2/3 188/2/3
f 190/1/3 184/1/3 189/1/3
f 191/3/3 185/3/3 184/3/3
f 191/1/3 184/1/3 190/1/3
f 192/1/3 186/1/3 185/1/3
f 192/3/3 185/3/3 191/3/3
f 193/1/3 188/1/3 187/1/3
f 194/1/3 188/1/3 193/1/3
f 195/3/3 190/3/3 189/3/3
f 195/1/3 188/1/3 194/1/3
f 195/3/3 189/3/3 188/3/3
f 196/3/3 190/3/3 195/3/3
f 197/2/3 191/2/3 190/2/3
f 197/3/3 190/3/3 196/3/3
f 198/1/3 192/1/3 191/1/3
f 198/2/3 191/2/3 197/2/3
f 199/3/3 177/3/3 186/3/3
f 199/1/3 192/1/3 198/1/3
f 199/1/3 186/1/3 192/1/3
f 200/2/3 194/2/3 193/2/3
f 201/1/3 195/1/3 194/1/3
f 201/2/3 194/2/3 200/2/3
f 201/1/3 196/1/3 195/1/3
f 202/2/3 197/2/3 196/2/3
f 202/1/3 196/1/3 201/1/3
f 203/1/3 198/1/3 197/1/3
f 203/2/3 197/2/3 202/2/3
f 204/2/3 199/2/3 198/2/3
f 204/1/3 198/1/3 203/1/3
f 205/2/3 199/2/3 204/2/3
f 206/3/3 177/3/3 199/3/3
f 206/2/3 199/2/3 205/2/3
f 207/3/3 202/3/3 201/3/3
f 207/3/3 203/3/3 202/3/3
f 207/3/3 201/3/3 200/3/3
f 208/3/3 203/3/3 207/3/3
f 209/3/3 203/3/3 208/3/3
f 210/2/3 205/2/3 204/2/3
f 210/3/3 203/3/3 209/3/3
f 210/2/3 204/2/3 203/2/3
f 211/3/3 206/3/3 205/3/3
f 211/2/3 205/2/3 210/2/3
f 212/3/3 177/3/3 206/3/3
f 212/3/3 206/3/3 211/3/3
f 212/6/3 165/6/3 177/6/3
f 213/2/3 208/2/3 207/2/3
f 214/1/3 209/1/3 208/1/3
f 214/2/3 208/2/3 213/2/3
f 215/2/3 211/2/3 210/2/3
f 215/1/3 209/1/3 214/1/3
f 215/2/3 210/2/3 209/2/3
f 215/2/3 212/2/3 211/2/3
f 216/2/3 212/2/3 215/2/3
f 217/2/3 212/2/3 216/2/3
f 218/2/3 212/2/3 217/2/3
f 219/2/3 212/2/3 218/2/3
f 220/3/3 214/3/3 213/3/3
f 221/2/3 215/2/3 214/2/3
f 221/3/3 214/3/3 220/3/3
f 222/3/3 216/3/3 215/3/3
f 222/2/3 215/2/3 221/2/3
f 223/1/3 217/1/3 216/1/3
f 223/3/3 216/3/3 222/3/3
f 224/2/3 218/2/3 217/2/3
f 224/1/3 217/1/3 223/1/3
f 225/1/3 219/1/3 218/1/3
f 225/2/3 218/2/3 224/2/3
f 226/2/3 212/2/3 219/2/3
f 226/1/3 219/1/3 225/1/3
f 227/6/3 165/6/3 212/6/3
f 227/2/3 212/2/3 226/2/3
f 228/6/3 165/6/3 227/6/3
f 229/2/4 230/2/4 234/2/4
f 234/2/4 230/2/4 235/2/4
f 230/1/4 231/1/4 236/1/4
f 235/2/4 230/2/4 236/2/4
f 231/3/4 232/3/4 237/3/4
f 236/1/4 231/1/4 237/1/4
f 232/6/4 233/6/4 238/6/4
f 237/3/4 232/3/4 238/3/4
f 234/1/4 235/1/4 239/1/4
f 236/3/4 237/3/4 240/3/4
f 239/1/4 235/1/4 240/1/4
f 235/3/4 236/3/4 240/3/4
f 240/3/4 237/3/4 241/3/4
f 241/3/4 237/3/4 242/3/4
f 242/3/4 237/3/4 243/3/4
f 243/3/4 237/3/4 244/3/4
f 237/2/4 238/2/4 245/2/4
f 244/3/4 237/3/4 245/3/4
f 245/2/4 238/2/4 246/2/4
f 239/2/4 240/2/4 247/2/4
f 240/3/4 241/3/4 248/3/4
f 247/2/4 240/2/4 248/2/4
f 241/1/4 242/1/4 249/1/4
f 248/3/4 241/3/4 249/3/4
f 242/3/4 243/3/4 250/3/4
f 249/1/4 242/1/4 250/1/4
f 243/2/4 244/2/4 251/2/4
f 250/3/4 243/3/4 251/3/4
f 244/3/4 245/3/4 252/3/4
f 251/2/4 244/2/4 252/2/4
f 245/3/4 246/3/4 252/3/4
f 252/3/4 246/3/4 253/3/4
f 246/2/4 238/2/4 254/2/4
f 253/3/4 246/3/4 254/3/4
f 238/6/4 233/6/4 255/6/4
f 254/2/4 238/2/4 255/2/4
f 247/3/4 248/3/4 256/3/4
f 248/3/4 249/3/4 256/3/4
f 256/3/4 249/3/4 257/3/4
f 249/2/4 250/2/4 258/2/4
f 257/3/4 249/3/4 258/3/4
f 250/1/4 251/1/4 259/1/4
f 258/2/4 250/2/4 259/2/4
f 251/3/4 252/3/4 260/3/4
f 259/1/4 251/1/4 260/1/4
f 252/1/4 253/1/4 261/1/4
f 260/3/4 252/3/4 261/3/4
f 253/2/4 254/2/4 262/2/4
f 261/1/4 253/1/4 262/1/4
f 254/1/4 255/1/4 263/1/4
f 262/2/4 254/2/4 263/2/4
f 256/1/4 257/1/4 264/1/4
f 257/2/4 258/2/4 265/2/4
f 264/1/4 257/1/4 265/1/4
f 259/1/4 260/1/4 266/1/4
f 265/2/4 258/2/4 266/2/4
f 258/1/4 259/1/4 266/1/4
f 266/1/4 260/1/4 267/1/4
f 260/2/4 261/2/4 268/2/4
f 267/1/4 260/1/4 268/1/4
f 261/2/4 262/2/4 268/2/4
f 268/2/4 262/2/4 269/2/4
f 262/3/4 263/3/4 270/3/4
f 269/2/4 262/2/4 270/2/4
f 263/1/4 255/1/4 271/1/4
f 270/3/4 263/3/4 271/3/4
f 264/3/4 265/3/4 272/3/4
f 266/2/4 267/2/4 273/2/4
f 272/3/4 265/3/4 273/3/4
f 265/2/4 266/2/4 273/2/4
f 267/3/4 268/3/4 274/3/4
f 273/2/4 267/2/4 274/2/4
f 268/1/4 269/1/4 275/1/4
f 274/3/4 268/3/4 275/3/4
f 269/2/4 270/2/4 276/2/4
f 275/1/4 269/1/4 276/1/4
f 270/2/4 271/2/4 276/2/4
f 271/1/4 255/1/4 277/1/4
f 276/2/4 271/2/4 277/2/4
f 255/6/4 233/6/4 278/6/4
f 277/1/4 255/1/4 278/1/4
f 272/1/4 273/1/4 279/1/4
f 273/2/4 274/2/4 280/2/4
f 279/1/4 273/1/4 280/1/4
f 280/2/4 274/2/4 281/2/4
f 274/1/4 275/1/4 282/1/4
f 281/2/4 274/2/4 282/2/4
f 275/3/4 276/3/4 283/3/4
f 276/3/4 277/3/4 283/3/4
f 277/2/4 278/2/4 283/2/4
f 278/6/4 233/6/4 284/6/4
f 283/2/4 278/2/4 284/2/4
f 280/2/4 281/2/4 285/2/4
f 281/3/4 282/3/4 285/3/4
f 279/2/4 280/2/4 285/2/4
f 282/1/4 275/1/4 286/1/4
f 285/3/4 282/3/4 286/3/4
f 283/3/4 284/3/4 287/3/4
f 286/1/4 275/1/4 287/1/4
f 275/3/4 283/3/4 287/3/4
f 287/3/4 284/3/4 288/3/4
f 284/6/4 233/6/4 289/6/4
f 288/3/4 284/3/4 289/3/4
f 287/2/4 288/2/4 290/2/4
f 279/2/4 285/2/4 290/2/4
f 285/2/4 286/2/4 290/2/4
f 286/2/4 287/2/4 290/2/4
f 290/2/4 288/2/4 291/2/4
f 291/2/4 288/2/4 292/2/4
f 292/2/4 288/2/4 293/2/4
f 293/2/4 288/2/4 294/2/4
f 294/2/4 288/2/4 295/2/4
f 295/2/4 288/2/4 296/2/4
f 288/1/4 289/1/4 297/1/4
f 296/2/4 288/2/4 297/2/4
f 289/6/4 233/6/4 298/6/4
f 297/1/4 289/1/4 298/1/4
f 290/3/4 291/3/4 299/3/4
f 291/1/4 292/1/4 300/1/4
f 299/3/4 291/3/4 300/3/4
f 292/2/4 293/2/4 301/2/4
f 300/1/4 292/1/4 301/1/4
f 293/1/4 294/1/4 302/1/4
f 301/2/4 293/2/4 302/2/4
f 294/3/4 295/3/4 303/3/4
f 302/1/4 294/1/4 303/1/4
f 295/2/4 296/2/4 304/2/4
f 303/3/4 295/3/4 304/3/4
f 296/3/4 297/3/4 305/3/4
f 304/2/4 296/2/4 305/2/4
f 297/2/4 298/2/4 306/2/4
f 305/3/4 297/3/4 306/3/4
f 298/6/4 233/6/4 307/6/4
f 306/2/4 298/2/4 307/2/4
f 307/6/4 233/6/4 308/6/4
f 318/3/5 310/3/5 309/3/5
f 319/1/5 311/1/5 310/1/5
f 319/3/5 310/3/5 318/3/5
f 320/3/5 312/3/5 311/3/5
f 320/1/5 311/1/5 319/1/5
f 321/3/5 312/3/5 320/3/5
f 322/1/5 313/1/5 312/1/5
f 322/3/5 312/3/5 321/3/5
f 323/2/5 314/2/5 313/2/5
f 323/1/5 313/1/5 322/1/5
f 324/3/5 315/3/5 314/3/5
f 324/2/5 314/2/5 323/2/5
f 325/2/5 316/2/5 315/2/5
f 325/3/5 315/3/5 324/3/5
f 326/3/5 317/3/5 316/3/5
f 326/2/5 316/2/5 325/2/5
f 327/3/5 317/3/5 326/3/5
f 328/2/5 321/2/5 320/2/5
f 328/1/5 320/1/5 319/1/5
f 329/3/5 322/3/5 321/3/5
f 329/2/5 321/2/5 328/2/5
f 329/3/5 323/3/5 322/3/5
f 330/2/5 325/2/5 324/2/5
f 330/3/5 323/3/5 329/3/5
f 330/2/5 326/2/5 325/2/5
f 330/2/5 324/2/5 323/2/5
f 331/2/5 326/2/5 330/2/5
f 332/1/5 327/1/5 326/1/5
f 332/2/5 326/2/5 331/2/5
f 333/2/5 319/2/5 318/2/5
f 333/1/5 328/1/5 319/1/5
f 334/3/5 329/3/5 328/3/5
f 334/1/5 328/1/5 333/1/5
f 335/1/5 330/1/5 329/1/5
f 335/3/5 329/3/5 334/3/5
f 336/1/5 330/1/5 335/1/5
f 337/2/5 331/2/5 330/2/5
f 337/1/5 330/1/5 336/1/5
f 338/2/5 331/2/5 337/2/5
f 339/1/5 332/1/5 331/1/5
f 339/2/5 331/2/5 338/2/5
f 340/1/5 327/1/5 332/1/5
f 340/1/5 332/1/5 339/1/5
f 341/3/5 318/3/5 309/3/5
f 342/2/5 333/2/5 318/2/5
f 342/3/5 318/3/5 341/3/5
f 342/2/5 334/2/5 333/2/5
f 343/3/5 335/3/5 334/3/5
f 343/2/5 334/2/5 342/2/5
f 344/2/5 336/2/5 335/2/5
f 344/3/5 335/3/5 343/3/5
f 345/3/5 337/3/5 336/3/5
f 345/2/5 336/2/5 344/2/5
f 346/1/5 338/1/5 337/1/5
f 346/3/5 337/3/5 345/3/5
f 347/2/5 339/2/5 338/2/5
f 347/1/5 338/1/5 346/1/5
f 347/2/5 340/2/5 339/2/5
f 348/2/5 340/2/5 347/2/5
f 349/2/5 340/2/5 348/2/5
f 350/2/5 340/2/5 349/2/5
f 351/1/5 342/1/5 341/1/5
f 352/3/5 343/3/5 342/3/5
f 352/1/5 342/1/5 351/1/5
f 353/3/5 343/3/5 352/3/5
f 354/1/5 344/1/5 343/1/5
f 354/3/5 343/3/5 353/3/5
f 355/2/5 345/2/5 344/2/5
f 355/1/5 344/1/5 354/1/5
f 356/1/5 346/1/5 345/1/5
f 356/2/5 345/2/5 355/2/5
f 357/3/5 347/3/5 346/3/5
f 357/1/5 346/1/5 356/1/5
f 357/3/5 348/3/5 347/3/5
f 358/3/5 348/3/5 357/3/5
f 359/2/5 349/2/5 348/2/5
f 359/3/5 348/3/5 358/3/5
f 360/1/5 350/1/5 349/1/5
f 360/2/5 349/2/5 359/2/5
f 361/3/5 353/3/5 352/3/5
f 361/3/5 352/3/5 351/3/5
f 362/3/5 353/3/5 361/3/5
f 363/1/5 354/1/5 353/1/5
f 363/3/5 353/3/5 362/3/5
f 364/2/5 355/2/5 354/2/5
f 364/1/5 354/1/5 363/1/5
f 364/2/5 356/2/5 355/2/5
f 364/2/5 357/2/5 356/2/5
f 365/2/5 357/2/5 364/2/5
f 366/2/5 357/2/5 365/2/5
f 367/3/5 358/3/5 357/3/5
f 367/2/5 357/2/5 366/2/5
f 368/2/5 359/2/5 358/2/5
f 368/3/5 358/3/5 367/3/5
f 369/3/5 360/3/5 359/3/5
f 369/2/5 359/2/5 368/2/5
f 370/1/5 350/1/5 360/1/5
f 370/3/5 360/3/5 369/3/5
f 371/1/5 350/1/5 370/1/5
f 372/1/5 362/1/5 361/1/5
f 373/3/5 363/3/5 362/3/5
f 373/1/5 362/1/5 372/1/5
f 374/2/5 364/2/5 363/2/5
f 374/3/5 363/3/5 373/3/5
f 374/2/5 365/2/5 364/2/5
f 375/1/5 366/1/5 365/1/5
f 375/2/5 365/2/5 374/2/5
f 376/3/5 367/3/5 366/3/5
f 376/1/5 366/1/5 375/1/5
f 377/1/5 368/1/5 367/1/5
f 377/3/5 367/3/5 376/3/5
f 378/2/5 369/2/5 368/2/5
f 378/1/5 368/1/5 377/1/5
f 378/2/5 371/2/5 370/2/5
f 378/2/5 370/2/5 369/2/5
f 379/2/5 371/2/5 378/2/5
f 380/3/5 373/3/5 372/3/5
f 381/2/5 374/2/5 373/2/5
f 381/3/5 373/3/5 380/3/5
f 381/2/5 375/2/5 374/2/5
f 382/2/5 375/2/5 381/2/5
f 383/2/5 375/2/5 382/2/5
f 384/3/5 377/3/5 376/3/5
f 384/2/5 375/2/5 383/2/5
f 384/3/5 376/3/5 375/3/5
f 385/3/5 377/3/5 384/3/5
f 386/2/5 378/2/5 377/2/5
f 386/3/5 377/3/5 385/3/5
f 387/1/5 379/1/5 378/1/5
f 387/2/5 378/2/5 386/2/5
f 388/1/5 379/1/5 387/1/5
f 389/1/5 379/1/5 388/1/5
f 390/1/5 379/1/5 389/1/5
f 391/2/5 383/2/5 382/2/5
f 391/1/5 384/1/5 383/1/5
f 392/3/5 385/3/5 384/3/5
f 392/1/5 384/1/5 391/1/5
f 393/2/5 386/2/5 385/2/5
f 393/3/5 385/3/5 392/3/5
f 394/1/5 387/1/5 386/1/5
f 394/2/5 386/2/5 393/2/5
f 395/2/5 388/2/5 387/2/5
f 395/1/5 389/1/5 388/1/5
f 396/2/5 390/2/5 389/2/5
f 396/1/5 389/1/5 395/1/5
f 397/2/5 390/2/5 396/2/5
f 398/2/5 381/2/5 380/2/5
f 399/1/5 382/1/5 381/1/5
f 399/2/5 381/2/5 398/2/5
f 400/2/5 391/2/5 382/2/5
f 400/1/5 382/1/5 399/1/5
f 401/3/5 392/3/5 391/3/5
f 401/2/5 391/2/5 400/2/5
f 402/1/5 393/1/5 392/1/5
f 402/3/5 392/3/5 401/3/5
f 403/3/5 394/3/5 393/3/5
f 403/1/5 393/1/5 402/1/5
f 404/1/5 387/1/5 394/1/5
f 404/3/5 394/3/5 403/3/5
f 405/2/5 395/2/5 387/2/5
f 405/1/5 387/1/5 404/1/5
f 405/2/5 396/2/5 395/2/5
f 406/3/5 397/3/5 396/3/5
f 406/2/5 396/2/5 405/2/5
f 407/3/5 397/3/5 406/3/5
f 408/6/6 409/6/6 410/6/6
f 410/6/6 409/6/6 411/6/6
f 408/6/6 410/6/6 412/6/6
f 410/5/6 411/5/6 413/5/6
f 412/6/6 410/6/6 413/6/6
f 411/6/6 409/6/6 414/6/6
f 413/5/6 411/5/6 414/5/6
f 414/6/6 409/6/6 415/6/6
f 412/4/6 413/4/6 416/4/6
f 408/6/6 412/6/6 416/6/6
f 413/4/6 414/4/6 416/4/6
f 416/4/6 414/4/6 417/4/6
f 414/5/6 415/5/6 418/5/6
f 417/4/6 414/4/6 418/4/6
f 415/6/6 409/6/6 419/6/6
f 418/5/6 415/5/6 419/5/6
f 416/5/6 417/5/6 420/5/6
f 408/6/6 416/6/6 420/6/6
f 417/4/6 418/4/6 421/4/6
f 420/5/6 417/5/6 421/5/6
f 418/4/6 419/4/6 421/4/6
f 421/4/6 419/4/6 422/4/6
f 419/6/6 409/6/6 423/6/6
f 422/4/6 419/4/6 423/4/6
f 408/6/6 420/6/6 424/6/6
f 420/4/6 421/4/6 424/4/6
f 421/5/6 422/5/6 425/5/6
f 424/4/6 421/4/6 425/4/6
f 424/6/6 425/6/6 426/6/6
f 425/5/6 422/5/6 426/5/6
f 422/6/6 423/6/6 427/6/6
f 426/5/6 422/5/6 427/5/6
f 408/6/6 424/6/6 428/6/6
f 424/6/6 426/6/6 428/6/6
f 426/6/6 427/6/6 428/6/6
f 423/6/6 409/6/6 429/6/6
f 428/6/6 427/6/6 429/6/6
f 427/6/6 423/6/6 429/6/6
