# MagicaVoxel @ Ephtracy

# group
g Terrain_SnowGrass-4

# material
mtllib Terrain_SnowGrass-4.mtl
usemtl palette

# normals
vn -1 0 0
vn 1 0 0
vn 0 0 1
vn 0 0 -1
vn 0 -1 0
vn 0 1 0

# texcoords
vt 0.0332031 0.5
vt 0.0371094 0.5
vt 0.0410156 0.5
vt 0.0488281 0.5
vt 0.0527344 0.5
vt 0.0566406 0.5

# verts
v -5 -5 5
v -5 -5 1
v -5 -5 -0
v -5 -5 -1
v -5 -5 -2
v -5 -5 -3
v -5 -5 -5
v -5 -4 5
v -5 -4 4
v -5 -4 3
v -5 -4 1
v -5 -4 -0
v -5 -4 -1
v -5 -4 -2
v -5 -4 -3
v -5 -4 -4
v -5 -3 4
v -5 -3 3
v -5 -3 2
v -5 -3 1
v -5 -3 -0
v -5 -3 -1
v -5 -3 -2
v -5 -3 -3
v -5 -3 -4
v -5 -3 -5
v -5 -2 4
v -5 -2 2
v -5 -2 1
v -5 -2 -0
v -5 -2 -1
v -5 -2 -2
v -5 -2 -4
v -5 -1 5
v -5 -1 4
v -5 -1 3
v -5 -1 1
v -5 -1 -0
v -5 -1 -1
v -5 -1 -2
v -5 0 4
v -5 0 3
v -5 0 2
v -5 0 1
v -5 0 -0
v -5 0 -2
v -5 0 -3
v -5 0 -4
v -5 1 4
v -5 1 3
v -5 1 2
v -5 1 1
v -5 1 -0
v -5 1 -1
v -5 1 -2
v -5 1 -3
v -5 1 -4
v -5 1 -5
v -5 2 5
v -5 2 4
v -5 2 3
v -5 2 1
v -5 2 -0
v -5 2 -1
v -5 2 -3
v -5 2 -4
v -5 2 -5
v -5 3 5
v -5 3 4
v -5 3 3
v -5 3 1
v -5 3 -0
v -5 3 -1
v -5 3 -2
v -5 3 -4
v -5 4 1
v -5 4 -0
v -5 4 -1
v -5 4 -2
v -5 5 5
v -5 5 1
v -5 5 -4
v -5 5 -5
v 5 -5 5
v 5 -5 4
v 5 -5 2
v 5 -5 1
v 5 -5 -1
v 5 -5 -2
v 5 -5 -3
v 5 -5 -4
v 5 -5 -5
v 5 -4 5
v 5 -4 4
v 5 -4 3
v 5 -4 2
v 5 -4 -0
v 5 -4 -1
v 5 -4 -2
v 5 -4 -3
v 5 -4 -4
v 5 -4 -5
v 5 -3 5
v 5 -3 4
v 5 -3 3
v 5 -3 2
v 5 -3 1
v 5 -3 -0
v 5 -3 -1
v 5 -3 -2
v 5 -3 -3
v 5 -3 -4
v 5 -3 -5
v 5 -2 5
v 5 -2 4
v 5 -2 1
v 5 -2 -0
v 5 -2 -1
v 5 -2 -3
v 5 -2 -4
v 5 -2 -5
v 5 -1 5
v 5 -1 4
v 5 -1 3
v 5 -1 1
v 5 -1 -0
v 5 -1 -1
v 5 -1 -2
v 5 -1 -3
v 5 -1 -5
v 5 0 5
v 5 0 4
v 5 0 3
v 5 0 2
v 5 0 -0
v 5 0 -2
v 5 0 -4
v 5 0 -5
v 5 1 5
v 5 1 4
v 5 1 3
v 5 1 2
v 5 1 1
v 5 1 -2
v 5 1 -3
v 5 1 -4
v 5 2 5
v 5 2 3
v 5 2 1
v 5 2 -0
v 5 2 -1
v 5 2 -4
v 5 2 -5
v 5 3 5
v 5 3 3
v 5 3 1
v 5 3 -0
v 5 3 -1
v 5 3 -4
v 5 3 -5
v 5 5 5
v 5 5 -5
v -5 -5 5
v -5 -4 5
v -5 -1 5
v -5 2 5
v -5 3 5
v -5 5 5
v -4 -4 5
v -4 -1 5
v -4 0 5
v -4 1 5
v -4 2 5
v -3 -5 5
v -3 -3 5
v -3 -2 5
v -3 -1 5
v -3 0 5
v -3 1 5
v -3 2 5
v -3 3 5
v -2 -5 5
v -2 -3 5
v -2 -2 5
v -2 -1 5
v -2 0 5
v -2 1 5
v -1 0 5
v -1 2 5
v 0 -5 5
v 0 -3 5
v 0 -2 5
v 0 -1 5
v 0 0 5
v 0 1 5
v 0 2 5
v 1 -5 5
v 1 -4 5
v 1 -3 5
v 1 -2 5
v 1 -1 5
v 1 0 5
v 1 1 5
v 1 2 5
v 1 3 5
v 2 -5 5
v 2 -4 5
v 2 -2 5
v 2 -1 5
v 2 0 5
v 2 1 5
v 2 3 5
v 3 -5 5
v 3 -4 5
v 3 -3 5
v 3 -1 5
v 3 2 5
v 3 3 5
v 4 -5 5
v 4 -4 5
v 4 -3 5
v 4 -2 5
v 4 -1 5
v 4 0 5
v 4 1 5
v 4 2 5
v 4 3 5
v 5 -5 5
v 5 -4 5
v 5 -3 5
v 5 -2 5
v 5 -1 5
v 5 0 5
v 5 1 5
v 5 2 5
v 5 3 5
v 5 5 5
v -5 -5 -5
v -5 -3 -5
v -5 1 -5
v -5 2 -5
v -5 5 -5
v -4 -5 -5
v -4 -4 -5
v -4 -3 -5
v -4 1 -5
v -4 2 -5
v -3 -5 -5
v -3 -4 -5
v -3 -3 -5
v -3 -2 -5
v -3 -1 -5
v -3 0 -5
v -3 2 -5
v -3 3 -5
v -2 -5 -5
v -2 -4 -5
v -2 -3 -5
v -2 -2 -5
v -2 -1 -5
v -2 0 -5
v -2 1 -5
v -2 2 -5
v -2 3 -5
v -2 4 -5
v -1 -5 -5
v -1 -4 -5
v -1 -3 -5
v -1 -2 -5
v -1 -1 -5
v -1 0 -5
v -1 1 -5
v -1 2 -5
v -1 3 -5
v -1 4 -5
v -1 5 -5
v 0 -5 -5
v 0 -4 -5
v 0 -3 -5
v 0 -2 -5
v 0 -1 -5
v 0 0 -5
v 0 1 -5
v 0 2 -5
v 0 3 -5
v 0 4 -5
v 0 5 -5
v 1 -5 -5
v 1 -4 -5
v 1 -2 -5
v 1 -1 -5
v 1 0 -5
v 1 1 -5
v 1 2 -5
v 1 3 -5
v 2 -5 -5
v 2 -4 -5
v 2 -3 -5
v 2 -2 -5
v 2 1 -5
v 2 2 -5
v 2 3 -5
v 3 -3 -5
v 3 -2 -5
v 3 -1 -5
v 3 2 -5
v 4 -5 -5
v 4 -4 -5
v 4 -3 -5
v 4 -2 -5
v 4 -1 -5
v 4 0 -5
v 5 -5 -5
v 5 -4 -5
v 5 -3 -5
v 5 -2 -5
v 5 -1 -5
v 5 0 -5
v 5 2 -5
v 5 3 -5
v 5 5 -5
v -5 -5 5
v -3 -5 5
v -2 -5 5
v 0 -5 5
v 1 -5 5
v 2 -5 5
v 3 -5 5
v 4 -5 5
v 5 -5 5
v -4 -5 4
v -3 -5 4
v -2 -5 4
v -1 -5 4
v 0 -5 4
v 1 -5 4
v 2 -5 4
v 3 -5 4
v 4 -5 4
v 5 -5 4
v -2 -5 3
v -1 -5 3
v 1 -5 3
v 3 -5 3
v 4 -5 3
v -3 -5 2
v -2 -5 2
v -1 -5 2
v 0 -5 2
v 1 -5 2
v 2 -5 2
v 3 -5 2
v 5 -5 2
v -5 -5 1
v -4 -5 1
v -2 -5 1
v -1 -5 1
v 0 -5 1
v 1 -5 1
v 2 -5 1
v 3 -5 1
v 4 -5 1
v 5 -5 1
v -5 -5 -0
v -4 -5 -0
v -3 -5 -0
v -2 -5 -0
v -1 -5 -0
v 0 -5 -0
v 1 -5 -0
v 2 -5 -0
v 3 -5 -0
v 4 -5 -0
v -5 -5 -1
v -4 -5 -1
v -3 -5 -1
v -2 -5 -1
v -1 -5 -1
v 0 -5 -1
v 1 -5 -1
v 2 -5 -1
v 3 -5 -1
v 4 -5 -1
v 5 -5 -1
v -5 -5 -2
v -4 -5 -2
v -3 -5 -2
v -1 -5 -2
v 0 -5 -2
v 1 -5 -2
v 2 -5 -2
v 5 -5 -2
v -5 -5 -3
v -4 -5 -3
v -3 -5 -3
v -2 -5 -3
v -1 -5 -3
v 0 -5 -3
v 1 -5 -3
v 2 -5 -3
v 3 -5 -3
v 4 -5 -3
v 5 -5 -3
v -2 -5 -4
v -1 -5 -4
v 0 -5 -4
v 1 -5 -4
v 3 -5 -4
v 4 -5 -4
v 5 -5 -4
v -5 -5 -5
v -4 -5 -5
v -3 -5 -5
v -2 -5 -5
v -1 -5 -5
v 0 -5 -5
v 1 -5 -5
v 2 -5 -5
v 4 -5 -5
v 5 -5 -5
v -5 5 5
v 5 5 5
v -5 5 1
v -4 5 1
v -4 5 -0
v -2 5 -0
v -4 5 -1
v -3 5 -1
v -2 5 -1
v -1 5 -1
v -4 5 -2
v -3 5 -2
v -2 5 -2
v -4 5 -3
v -3 5 -3
v -2 5 -3
v -1 5 -3
v 0 5 -3
v -5 5 -4
v -3 5 -4
v -2 5 -4
v -1 5 -4
v 0 5 -4
v -5 5 -5
v -1 5 -5
v 0 5 -5
v 5 5 -5

# faces
f 8/3/1 2/3/1 1/3/1
f 9/3/1 2/3/1 8/3/1
f 10/3/1 2/3/1 9/3/1
f 11/1/1 3/1/1 2/1/1
f 11/3/1 2/3/1 10/3/1
f 12/3/1 4/3/1 3/3/1
f 12/1/1 3/1/1 11/1/1
f 13/1/1 5/1/1 4/1/1
f 13/3/1 4/3/1 12/3/1
f 14/3/1 6/3/1 5/3/1
f 14/1/1 5/1/1 13/1/1
f 15/2/1 7/2/1 6/2/1
f 15/3/1 6/3/1 14/3/1
f 16/2/1 7/2/1 15/2/1
f 17/2/1 10/2/1 9/2/1
f 17/1/1 9/1/1 8/1/1
f 18/3/1 11/3/1 10/3/1
f 18/2/1 10/2/1 17/2/1
f 19/3/1 11/3/1 18/3/1
f 20/2/1 12/2/1 11/2/1
f 20/3/1 11/3/1 19/3/1
f 21/1/1 13/1/1 12/1/1
f 21/2/1 12/2/1 20/2/1
f 22/2/1 14/2/1 13/2/1
f 22/1/1 13/1/1 21/1/1
f 22/2/1 15/2/1 14/2/1
f 23/2/1 15/2/1 22/2/1
f 24/1/1 16/1/1 15/1/1
f 24/2/1 15/2/1 23/2/1
f 25/2/1 7/2/1 16/2/1
f 25/1/1 16/1/1 24/1/1
f 26/2/1 7/2/1 25/2/1
f 27/1/1 17/1/1 8/1/1
f 27/3/1 19/3/1 18/3/1
f 27/3/1 18/3/1 17/3/1
f 28/2/1 20/2/1 19/2/1
f 28/3/1 19/3/1 27/3/1
f 29/1/1 21/1/1 20/1/1
f 29/2/1 20/2/1 28/2/1
f 30/2/1 22/2/1 21/2/1
f 30/1/1 21/1/1 29/1/1
f 31/3/1 23/3/1 22/3/1
f 31/2/1 22/2/1 30/2/1
f 32/1/1 24/1/1 23/1/1
f 32/3/1 23/3/1 31/3/1
f 32/1/1 26/1/1 25/1/1
f 32/1/1 25/1/1 24/1/1
f 33/1/1 26/1/1 32/1/1
f 34/1/1 27/1/1 8/1/1
f 35/2/1 28/2/1 27/2/1
f 35/1/1 27/1/1 34/1/1
f 35/2/1 29/2/1 28/2/1
f 36/2/1 29/2/1 35/2/1
f 37/3/1 30/3/1 29/3/1
f 37/2/1 29/2/1 36/2/1
f 38/1/1 31/1/1 30/1/1
f 38/3/1 30/3/1 37/3/1
f 39/2/1 33/2/1 32/2/1
f 39/1/1 31/1/1 38/1/1
f 39/2/1 32/2/1 31/2/1
f 40/2/1 33/2/1 39/2/1
f 41/2/1 36/2/1 35/2/1
f 41/2/1 35/2/1 34/2/1
f 42/1/1 37/1/1 36/1/1
f 42/2/1 36/2/1 41/2/1
f 43/1/1 37/1/1 42/1/1
f 44/2/1 38/2/1 37/2/1
f 44/1/1 37/1/1 43/1/1
f 45/1/1 40/1/1 39/1/1
f 45/2/1 38/2/1 44/2/1
f 45/1/1 39/1/1 38/1/1
f 46/2/1 33/2/1 40/2/1
f 46/1/1 40/1/1 45/1/1
f 47/2/1 33/2/1 46/2/1
f 48/1/1 26/1/1 33/1/1
f 48/2/1 33/2/1 47/2/1
f 49/2/1 41/2/1 34/2/1
f 49/1/1 42/1/1 41/1/1
f 50/2/1 43/2/1 42/2/1
f 50/1/1 42/1/1 49/1/1
f 51/1/1 44/1/1 43/1/1
f 51/2/1 43/2/1 50/2/1
f 52/3/1 45/3/1 44/3/1
f 52/1/1 44/1/1 51/1/1
f 53/2/1 46/2/1 45/2/1
f 53/3/1 45/3/1 52/3/1
f 54/2/1 46/2/1 53/2/1
f 55/1/1 47/1/1 46/1/1
f 55/2/1 46/2/1 54/2/1
f 56/3/1 48/3/1 47/3/1
f 56/1/1 47/1/1 55/1/1
f 57/1/1 26/1/1 48/1/1
f 57/3/1 48/3/1 56/3/1
f 58/1/1 26/1/1 57/1/1
f 59/2/1 49/2/1 34/2/1
f 59/2/1 50/2/1 49/2/1
f 60/2/1 50/2/1 59/2/1
f 61/1/1 51/1/1 50/1/1
f 61/2/1 50/2/1 60/2/1
f 61/1/1 52/1/1 51/1/1
f 62/2/1 53/2/1 52/2/1
f 62/1/1 52/1/1 61/1/1
f 63/3/1 54/3/1 53/3/1
f 63/2/1 53/2/1 62/2/1
f 64/4/1 55/4/1 54/4/1
f 64/3/1 54/3/1 63/3/1
f 65/5/1 56/5/1 55/5/1
f 65/4/1 57/4/1 56/4/1
f 66/3/1 58/3/1 57/3/1
f 66/4/1 57/4/1 65/4/1
f 67/3/1 58/3/1 66/3/1
f 68/3/1 60/3/1 59/3/1
f 69/2/1 61/2/1 60/2/1
f 69/3/1 60/3/1 68/3/1
f 70/3/1 62/3/1 61/3/1
f 70/2/1 61/2/1 69/2/1
f 71/2/1 63/2/1 62/2/1
f 71/3/1 62/3/1 70/3/1
f 72/5/1 64/5/1 63/5/1
f 72/2/1 63/2/1 71/2/1
f 73/4/1 55/4/1 64/4/1
f 73/5/1 64/5/1 72/5/1
f 74/5/1 65/5/1 55/5/1
f 74/4/1 55/4/1 73/4/1
f 74/5/1 66/5/1 65/5/1
f 74/5/1 67/5/1 66/5/1
f 75/5/1 67/5/1 74/5/1
f 76/5/1 72/5/1 71/5/1
f 76/6/1 69/6/1 68/6/1
f 76/6/1 70/6/1 69/6/1
f 76/6/1 71/6/1 70/6/1
f 77/4/1 73/4/1 72/4/1
f 77/5/1 72/5/1 76/5/1
f 78/5/1 74/5/1 73/5/1
f 78/4/1 73/4/1 77/4/1
f 79/4/1 75/4/1 74/4/1
f 79/5/1 74/5/1 78/5/1
f 80/6/1 76/6/1 68/6/1
f 81/4/1 78/4/1 77/4/1
f 81/6/1 76/6/1 80/6/1
f 81/4/1 77/4/1 76/4/1
f 81/4/1 79/4/1 78/4/1
f 82/5/1 67/5/1 75/5/1
f 82/4/1 79/4/1 81/4/1
f 82/4/1 75/4/1 79/4/1
f 83/5/1 67/5/1 82/5/1
f 84/3/2 85/3/2 93/3/2
f 85/1/2 86/1/2 94/1/2
f 93/3/2 85/3/2 94/3/2
f 94/1/2 86/1/2 95/1/2
f 86/2/2 87/2/2 96/2/2
f 95/1/2 86/1/2 96/1/2
f 87/1/2 88/1/2 97/1/2
f 88/2/2 89/2/2 98/2/2
f 97/1/2 88/1/2 98/1/2
f 89/1/2 90/1/2 99/1/2
f 98/2/2 89/2/2 99/2/2
f 90/2/2 91/2/2 100/2/2
f 99/1/2 90/1/2 100/1/2
f 91/3/2 92/3/2 101/3/2
f 100/2/2 91/2/2 101/2/2
f 101/3/2 92/3/2 102/3/2
f 93/2/2 94/2/2 103/2/2
f 94/1/2 95/1/2 104/1/2
f 103/2/2 94/2/2 104/2/2
f 95/3/2 96/3/2 105/3/2
f 104/1/2 95/1/2 105/1/2
f 96/2/2 87/2/2 106/2/2
f 105/3/2 96/3/2 106/3/2
f 87/1/2 97/1/2 107/1/2
f 106/2/2 87/2/2 107/2/2
f 97/2/2 98/2/2 108/2/2
f 107/1/2 97/1/2 108/1/2
f 98/1/2 99/1/2 109/1/2
f 108/2/2 98/2/2 109/2/2
f 99/2/2 100/2/2 110/2/2
f 109/1/2 99/1/2 110/1/2
f 100/1/2 101/1/2 111/1/2
f 110/2/2 100/2/2 111/2/2
f 101/1/2 102/1/2 111/1/2
f 111/1/2 102/1/2 112/1/2
f 112/1/2 102/1/2 113/1/2
f 103/3/2 104/3/2 114/3/2
f 104/2/2 105/2/2 115/2/2
f 114/3/2 104/3/2 115/3/2
f 106/2/2 107/2/2 116/2/2
f 107/3/2 108/3/2 116/3/2
f 108/1/2 109/1/2 117/1/2
f 116/3/2 108/3/2 117/3/2
f 109/2/2 110/2/2 118/2/2
f 117/1/2 109/1/2 118/1/2
f 110/2/2 111/2/2 118/2/2
f 111/3/2 112/3/2 119/3/2
f 118/2/2 111/2/2 119/2/2
f 112/2/2 113/2/2 120/2/2
f 119/3/2 112/3/2 120/3/2
f 120/2/2 113/2/2 121/2/2
f 114/1/2 115/1/2 122/1/2
f 115/2/2 105/2/2 123/2/2
f 122/1/2 115/1/2 123/1/2
f 105/1/2 106/1/2 124/1/2
f 123/2/2 105/2/2 124/2/2
f 106/2/2 116/2/2 125/2/2
f 116/2/2 117/2/2 125/2/2
f 117/3/2 118/3/2 126/3/2
f 125/2/2 117/2/2 126/2/2
f 118/2/2 119/2/2 127/2/2
f 126/3/2 118/3/2 127/3/2
f 127/2/2 119/2/2 128/2/2
f 119/1/2 120/1/2 129/1/2
f 128/2/2 119/2/2 129/2/2
f 120/1/2 121/1/2 129/1/2
f 129/1/2 121/1/2 130/1/2
f 122/2/2 123/2/2 131/2/2
f 123/3/2 124/3/2 132/3/2
f 131/2/2 123/2/2 132/2/2
f 124/1/2 106/1/2 133/1/2
f 132/3/2 124/3/2 133/3/2
f 106/2/2 125/2/2 134/2/2
f 133/1/2 106/1/2 134/1/2
f 125/1/2 126/1/2 135/1/2
f 127/3/2 128/3/2 135/3/2
f 126/3/2 127/3/2 135/3/2
f 128/2/2 129/2/2 136/2/2
f 135/3/2 128/3/2 136/3/2
f 129/3/2 130/3/2 137/3/2
f 137/3/2 130/3/2 138/3/2
f 131/1/2 132/1/2 139/1/2
f 132/2/2 133/2/2 140/2/2
f 139/1/2 132/1/2 140/1/2
f 133/3/2 134/3/2 141/3/2
f 140/2/2 133/2/2 141/2/2
f 134/2/2 125/2/2 142/2/2
f 141/3/2 134/3/2 142/3/2
f 125/1/2 135/1/2 143/1/2
f 142/2/2 125/2/2 143/2/2
f 135/1/2 136/1/2 143/1/2
f 136/2/2 129/2/2 144/2/2
f 143/1/2 136/1/2 144/1/2
f 129/3/2 137/3/2 145/3/2
f 144/2/2 129/2/2 145/2/2
f 137/2/2 138/2/2 146/2/2
f 145/3/2 137/3/2 146/3/2
f 140/2/2 141/2/2 147/2/2
f 139/2/2 140/2/2 147/2/2
f 145/2/2 146/2/2 147/2/2
f 143/2/2 144/2/2 147/2/2
f 144/2/2 145/2/2 147/2/2
f 141/2/2 142/2/2 147/2/2
f 142/2/2 143/2/2 147/2/2
f 147/2/2 146/2/2 148/2/2
f 148/2/2 146/2/2 149/2/2
f 149/2/2 146/2/2 150/2/2
f 150/2/2 146/2/2 151/2/2
f 146/2/2 138/2/2 152/2/2
f 151/2/2 146/2/2 152/2/2
f 152/2/2 138/2/2 153/2/2
f 147/1/2 148/1/2 154/1/2
f 148/3/2 149/3/2 155/3/2
f 154/1/2 148/1/2 155/1/2
f 149/1/2 150/1/2 156/1/2
f 155/3/2 149/3/2 156/3/2
f 150/3/2 151/3/2 157/3/2
f 156/1/2 150/1/2 157/1/2
f 151/2/2 152/2/2 158/2/2
f 157/3/2 151/3/2 158/3/2
f 152/1/2 153/1/2 159/1/2
f 158/2/2 152/2/2 159/2/2
f 159/1/2 153/1/2 160/1/2
f 155/6/2 156/6/2 161/6/2
f 154/6/2 155/6/2 161/6/2
f 159/6/2 160/6/2 161/6/2
f 158/6/2 159/6/2 161/6/2
f 157/6/2 158/6/2 161/6/2
f 156/6/2 157/6/2 161/6/2
f 161/6/2 160/6/2 162/6/2
f 169/3/3 164/3/3 163/3/3
f 169/1/3 165/1/3 164/1/3
f 170/2/3 166/2/3 165/2/3
f 170/1/3 165/1/3 169/1/3
f 171/2/3 166/2/3 170/2/3
f 172/2/3 166/2/3 171/2/3
f 173/3/3 167/3/3 166/3/3
f 173/2/3 166/2/3 172/2/3
f 174/3/3 169/3/3 163/3/3
f 174/3/3 170/3/3 169/3/3
f 174/3/3 171/3/3 170/3/3
f 175/3/3 171/3/3 174/3/3
f 176/3/3 171/3/3 175/3/3
f 177/3/3 171/3/3 176/3/3
f 178/2/3 172/2/3 171/2/3
f 178/3/3 171/3/3 177/3/3
f 179/3/3 173/3/3 172/3/3
f 179/2/3 172/2/3 178/2/3
f 180/3/3 167/3/3 173/3/3
f 180/3/3 173/3/3 179/3/3
f 181/6/3 168/6/3 167/6/3
f 181/3/3 167/3/3 180/3/3
f 182/1/3 175/1/3 174/1/3
f 183/3/3 176/3/3 175/3/3
f 183/1/3 175/1/3 182/1/3
f 184/2/3 177/2/3 176/2/3
f 184/3/3 176/3/3 183/3/3
f 185/3/3 178/3/3 177/3/3
f 185/2/3 177/2/3 184/2/3
f 186/1/3 179/1/3 178/1/3
f 186/3/3 178/3/3 185/3/3
f 187/2/3 180/2/3 179/2/3
f 187/1/3 179/1/3 186/1/3
f 188/1/3 186/1/3 185/1/3
f 188/1/3 185/1/3 184/1/3
f 188/2/3 187/2/3 186/2/3
f 189/2/3 180/2/3 187/2/3
f 189/2/3 187/2/3 188/2/3
f 189/1/3 181/1/3 180/1/3
f 190/3/3 183/3/3 182/3/3
f 191/2/3 184/2/3 183/2/3
f 191/3/3 183/3/3 190/3/3
f 192/1/3 188/1/3 184/1/3
f 192/2/3 184/2/3 191/2/3
f 193/1/3 188/1/3 192/1/3
f 194/3/3 189/3/3 188/3/3
f 194/1/3 188/1/3 193/1/3
f 195/3/3 189/3/3 194/3/3
f 196/1/3 181/1/3 189/1/3
f 196/3/3 189/3/3 195/3/3
f 197/1/3 191/1/3 190/1/3
f 198/1/3 191/1/3 197/1/3
f 199/3/3 193/3/3 192/3/3
f 199/1/3 191/1/3 198/1/3
f 199/3/3 192/3/3 191/3/3
f 200/3/3 193/3/3 199/3/3
f 201/2/3 194/2/3 193/2/3
f 201/3/3 193/3/3 200/3/3
f 202/1/3 195/1/3 194/1/3
f 202/2/3 194/2/3 201/2/3
f 203/2/3 196/2/3 195/2/3
f 203/1/3 195/1/3 202/1/3
f 204/1/3 181/1/3 196/1/3
f 204/2/3 196/2/3 203/2/3
f 205/6/3 168/6/3 181/6/3
f 205/1/3 181/1/3 204/1/3
f 206/2/3 198/2/3 197/2/3
f 207/1/3 200/1/3 199/1/3
f 207/2/3 198/2/3 206/2/3
f 207/1/3 199/1/3 198/1/3
f 208/2/3 201/2/3 200/2/3
f 208/1/3 200/1/3 207/1/3
f 209/1/3 202/1/3 201/1/3
f 209/2/3 201/2/3 208/2/3
f 210/2/3 203/2/3 202/2/3
f 210/1/3 202/1/3 209/1/3
f 210/2/3 204/2/3 203/2/3
f 210/2/3 205/2/3 204/2/3
f 211/2/3 205/2/3 210/2/3
f 212/6/3 168/6/3 205/6/3
f 212/2/3 205/2/3 211/2/3
f 213/3/3 209/3/3 208/3/3
f 213/3/3 207/3/3 206/3/3
f 213/3/3 208/3/3 207/3/3
f 214/3/3 209/3/3 213/3/3
f 215/3/3 209/3/3 214/3/3
f 216/2/3 210/2/3 209/2/3
f 216/3/3 209/3/3 215/3/3
f 216/2/3 211/2/3 210/2/3
f 217/1/3 212/1/3 211/1/3
f 218/6/3 168/6/3 212/6/3
f 218/1/3 212/1/3 217/1/3
f 219/2/3 214/2/3 213/2/3
f 220/1/3 215/1/3 214/1/3
f 220/2/3 214/2/3 219/2/3
f 221/2/3 216/2/3 215/2/3
f 221/1/3 215/1/3 220/1/3
f 222/2/3 216/2/3 221/2/3
f 223/2/3 211/2/3 216/2/3
f 223/2/3 216/2/3 222/2/3
f 224/2/3 211/2/3 223/2/3
f 225/1/3 217/1/3 211/1/3
f 225/2/3 211/2/3 224/2/3
f 226/2/3 218/2/3 217/2/3
f 226/1/3 217/1/3 225/1/3
f 227/6/3 168/6/3 218/6/3
f 227/2/3 218/2/3 226/2/3
f 228/3/3 220/3/3 219/3/3
f 229/2/3 221/2/3 220/2/3
f 229/3/3 220/3/3 228/3/3
f 230/3/3 222/3/3 221/3/3
f 230/2/3 221/2/3 229/2/3
f 231/1/3 223/1/3 222/1/3
f 231/3/3 222/3/3 230/3/3
f 232/2/3 224/2/3 223/2/3
f 232/1/3 223/1/3 231/1/3
f 233/1/3 225/1/3 224/1/3
f 233/2/3 224/2/3 232/2/3
f 234/2/3 226/2/3 225/2/3
f 234/1/3 225/1/3 233/1/3
f 235/1/3 227/1/3 226/1/3
f 235/2/3 226/2/3 234/2/3
f 236/6/3 168/6/3 227/6/3
f 236/1/3 227/1/3 235/1/3
f 237/6/3 168/6/3 236/6/3
f 238/2/4 239/2/4 243/2/4
f 243/2/4 239/2/4 244/2/4
f 239/1/4 240/1/4 245/1/4
f 244/2/4 239/2/4 245/2/4
f 240/3/4 241/3/4 246/3/4
f 245/1/4 240/1/4 246/1/4
f 241/5/4 242/5/4 247/5/4
f 246/3/4 241/3/4 247/3/4
f 243/1/4 244/1/4 248/1/4
f 245/3/4 246/3/4 249/3/4
f 248/1/4 244/1/4 249/1/4
f 244/3/4 245/3/4 249/3/4
f 249/3/4 246/3/4 250/3/4
f 250/3/4 246/3/4 251/3/4
f 251/3/4 246/3/4 252/3/4
f 252/3/4 246/3/4 253/3/4
f 247/5/4 242/5/4 254/5/4
f 246/5/4 247/5/4 254/5/4
f 254/5/4 242/5/4 255/5/4
f 248/2/4 249/2/4 256/2/4
f 249/3/4 250/3/4 257/3/4
f 256/2/4 249/2/4 257/2/4
f 250/1/4 251/1/4 258/1/4
f 257/3/4 250/3/4 258/3/4
f 251/3/4 252/3/4 259/3/4
f 258/1/4 251/1/4 259/1/4
f 252/2/4 253/2/4 260/2/4
f 259/3/4 252/3/4 260/3/4
f 253/3/4 246/3/4 261/3/4
f 260/2/4 253/2/4 261/2/4
f 246/5/4 254/5/4 262/5/4
f 261/3/4 246/3/4 262/3/4
f 254/4/4 255/4/4 263/4/4
f 262/5/4 254/5/4 263/5/4
f 255/5/4 242/5/4 264/5/4
f 263/4/4 255/4/4 264/4/4
f 264/5/4 242/5/4 265/5/4
f 256/3/4 257/3/4 266/3/4
f 257/3/4 258/3/4 266/3/4
f 266/3/4 258/3/4 267/3/4
f 258/2/4 259/2/4 268/2/4
f 267/3/4 258/3/4 268/3/4
f 259/1/4 260/1/4 269/1/4
f 268/2/4 259/2/4 269/2/4
f 260/3/4 261/3/4 270/3/4
f 269/1/4 260/1/4 270/1/4
f 261/1/4 262/1/4 271/1/4
f 270/3/4 261/3/4 271/3/4
f 262/4/4 263/4/4 272/4/4
f 271/1/4 262/1/4 272/1/4
f 263/5/4 264/5/4 273/5/4
f 272/4/4 263/4/4 273/4/4
f 264/4/4 265/4/4 274/4/4
f 273/5/4 264/5/4 274/5/4
f 265/5/4 242/5/4 275/5/4
f 274/4/4 265/4/4 275/4/4
f 275/5/4 242/5/4 276/5/4
f 266/1/4 267/1/4 277/1/4
f 267/2/4 268/2/4 278/2/4
f 277/1/4 267/1/4 278/1/4
f 268/1/4 269/1/4 279/1/4
f 278/2/4 268/2/4 279/2/4
f 269/1/4 270/1/4 279/1/4
f 279/1/4 270/1/4 280/1/4
f 270/2/4 271/2/4 281/2/4
f 280/1/4 270/1/4 281/1/4
f 271/2/4 272/2/4 281/2/4
f 281/2/4 272/2/4 282/2/4
f 272/3/4 273/3/4 283/3/4
f 282/2/4 272/2/4 283/2/4
f 273/5/4 274/5/4 284/5/4
f 283/3/4 273/3/4 284/3/4
f 274/5/4 275/5/4 284/5/4
f 284/5/4 275/5/4 285/5/4
f 275/4/4 276/4/4 286/4/4
f 285/5/4 275/5/4 286/5/4
f 286/4/4 276/4/4 287/4/4
f 277/3/4 278/3/4 288/3/4
f 279/2/4 280/2/4 289/2/4
f 288/3/4 278/3/4 289/3/4
f 278/2/4 279/2/4 289/2/4
f 280/3/4 281/3/4 290/3/4
f 289/2/4 280/2/4 290/2/4
f 281/1/4 282/1/4 291/1/4
f 290/3/4 281/3/4 291/3/4
f 282/2/4 283/2/4 292/2/4
f 291/1/4 282/1/4 292/1/4
f 284/2/4 285/2/4 292/2/4
f 283/2/4 284/2/4 292/2/4
f 292/2/4 285/2/4 293/2/4
f 293/2/4 285/2/4 294/2/4
f 285/6/4 286/6/4 295/6/4
f 294/2/4 285/2/4 295/2/4
f 286/6/4 287/6/4 295/6/4
f 288/1/4 289/1/4 296/1/4
f 289/2/4 290/2/4 297/2/4
f 296/1/4 289/1/4 297/1/4
f 297/2/4 290/2/4 298/2/4
f 290/1/4 291/1/4 299/1/4
f 298/2/4 290/2/4 299/2/4
f 293/2/4 294/2/4 300/2/4
f 292/3/4 293/3/4 300/3/4
f 291/3/4 292/3/4 300/3/4
f 294/3/4 295/3/4 301/3/4
f 300/2/4 294/2/4 301/2/4
f 295/6/4 287/6/4 302/6/4
f 301/3/4 295/3/4 302/3/4
f 297/2/4 298/2/4 303/2/4
f 298/3/4 299/3/4 303/3/4
f 296/2/4 297/2/4 303/2/4
f 299/1/4 291/1/4 304/1/4
f 303/3/4 299/3/4 304/3/4
f 300/3/4 301/3/4 305/3/4
f 304/1/4 291/1/4 305/1/4
f 291/3/4 300/3/4 305/3/4
f 301/1/4 302/1/4 306/1/4
f 305/3/4 301/3/4 306/3/4
f 296/2/4 303/2/4 307/2/4
f 304/2/4 305/2/4 307/2/4
f 305/2/4 306/2/4 307/2/4
f 303/2/4 304/2/4 307/2/4
f 307/2/4 306/2/4 308/2/4
f 308/2/4 306/2/4 309/2/4
f 309/2/4 306/2/4 310/2/4
f 310/2/4 306/2/4 311/2/4
f 311/2/4 306/2/4 312/2/4
f 307/3/4 308/3/4 313/3/4
f 308/1/4 309/1/4 314/1/4
f 313/3/4 308/3/4 314/3/4
f 309/2/4 310/2/4 315/2/4
f 314/1/4 309/1/4 315/1/4
f 310/1/4 311/1/4 316/1/4
f 315/2/4 310/2/4 316/2/4
f 311/3/4 312/3/4 317/3/4
f 316/1/4 311/1/4 317/1/4
f 312/2/4 306/2/4 318/2/4
f 317/3/4 312/3/4 318/3/4
f 306/1/4 302/1/4 319/1/4
f 318/2/4 306/2/4 319/2/4
f 302/6/4 287/6/4 320/6/4
f 319/1/4 302/1/4 320/1/4
f 320/6/4 287/6/4 321/6/4
f 331/3/5 323/3/5 322/3/5
f 332/1/5 324/1/5 323/1/5
f 332/3/5 323/3/5 331/3/5
f 333/3/5 325/3/5 324/3/5
f 333/1/5 324/1/5 332/1/5
f 334/3/5 325/3/5 333/3/5
f 335/1/5 326/1/5 325/1/5
f 335/3/5 325/3/5 334/3/5
f 336/2/5 327/2/5 326/2/5
f 336/1/5 326/1/5 335/1/5
f 337/3/5 328/3/5 327/3/5
f 337/2/5 327/2/5 336/2/5
f 338/2/5 329/2/5 328/2/5
f 338/3/5 328/3/5 337/3/5
f 339/3/5 330/3/5 329/3/5
f 339/2/5 329/2/5 338/2/5
f 340/3/5 330/3/5 339/3/5
f 341/2/5 334/2/5 333/2/5
f 341/1/5 333/1/5 332/1/5
f 342/3/5 335/3/5 334/3/5
f 342/2/5 334/2/5 341/2/5
f 342/3/5 336/3/5 335/3/5
f 343/2/5 338/2/5 337/2/5
f 343/3/5 336/3/5 342/3/5
f 343/2/5 339/2/5 338/2/5
f 343/2/5 337/2/5 336/2/5
f 344/2/5 339/2/5 343/2/5
f 345/1/5 340/1/5 339/1/5
f 345/2/5 339/2/5 344/2/5
f 346/2/5 332/2/5 331/2/5
f 346/1/5 341/1/5 332/1/5
f 347/3/5 342/3/5 341/3/5
f 347/1/5 341/1/5 346/1/5
f 348/1/5 343/1/5 342/1/5
f 348/3/5 342/3/5 347/3/5
f 349/1/5 343/1/5 348/1/5
f 350/2/5 344/2/5 343/2/5
f 350/1/5 343/1/5 349/1/5
f 351/2/5 344/2/5 350/2/5
f 352/1/5 345/1/5 344/1/5
f 352/2/5 344/2/5 351/2/5
f 353/1/5 340/1/5 345/1/5
f 353/1/5 345/1/5 352/1/5
f 354/3/5 331/3/5 322/3/5
f 355/2/5 346/2/5 331/2/5
f 355/3/5 331/3/5 354/3/5
f 355/2/5 347/2/5 346/2/5
f 356/3/5 348/3/5 347/3/5
f 356/2/5 347/2/5 355/2/5
f 357/2/5 349/2/5 348/2/5
f 357/3/5 348/3/5 356/3/5
f 358/3/5 350/3/5 349/3/5
f 358/2/5 349/2/5 357/2/5
f 359/1/5 351/1/5 350/1/5
f 359/3/5 350/3/5 358/3/5
f 360/2/5 352/2/5 351/2/5
f 360/1/5 351/1/5 359/1/5
f 360/2/5 353/2/5 352/2/5
f 361/2/5 353/2/5 360/2/5
f 362/2/5 353/2/5 361/2/5
f 363/2/5 353/2/5 362/2/5
f 364/1/5 355/1/5 354/1/5
f 365/3/5 356/3/5 355/3/5
f 365/1/5 355/1/5 364/1/5
f 366/3/5 356/3/5 365/3/5
f 367/1/5 357/1/5 356/1/5
f 367/3/5 356/3/5 366/3/5
f 368/2/5 358/2/5 357/2/5
f 368/1/5 357/1/5 367/1/5
f 369/1/5 359/1/5 358/1/5
f 369/2/5 358/2/5 368/2/5
f 370/3/5 360/3/5 359/3/5
f 370/1/5 359/1/5 369/1/5
f 370/3/5 361/3/5 360/3/5
f 371/3/5 361/3/5 370/3/5
f 372/2/5 362/2/5 361/2/5
f 372/3/5 361/3/5 371/3/5
f 373/1/5 363/1/5 362/1/5
f 373/2/5 362/2/5 372/2/5
f 374/3/5 366/3/5 365/3/5
f 374/3/5 365/3/5 364/3/5
f 375/3/5 366/3/5 374/3/5
f 376/1/5 367/1/5 366/1/5
f 376/3/5 366/3/5 375/3/5
f 377/2/5 368/2/5 367/2/5
f 377/1/5 367/1/5 376/1/5
f 377/2/5 369/2/5 368/2/5
f 377/2/5 370/2/5 369/2/5
f 378/2/5 370/2/5 377/2/5
f 379/2/5 370/2/5 378/2/5
f 380/3/5 371/3/5 370/3/5
f 380/2/5 370/2/5 379/2/5
f 381/2/5 372/2/5 371/2/5
f 381/3/5 371/3/5 380/3/5
f 382/3/5 373/3/5 372/3/5
f 382/2/5 372/2/5 381/2/5
f 383/1/5 363/1/5 373/1/5
f 383/3/5 373/3/5 382/3/5
f 384/1/5 363/1/5 383/1/5
f 385/1/5 375/1/5 374/1/5
f 386/3/5 376/3/5 375/3/5
f 386/1/5 375/1/5 385/1/5
f 387/2/5 377/2/5 376/2/5
f 387/3/5 376/3/5 386/3/5
f 387/2/5 378/2/5 377/2/5
f 388/1/5 379/1/5 378/1/5
f 388/2/5 378/2/5 387/2/5
f 389/3/5 380/3/5 379/3/5
f 389/1/5 379/1/5 388/1/5
f 390/1/5 381/1/5 380/1/5
f 390/3/5 380/3/5 389/3/5
f 391/2/5 382/2/5 381/2/5
f 391/1/5 381/1/5 390/1/5
f 391/2/5 384/2/5 383/2/5
f 391/2/5 383/2/5 382/2/5
f 392/2/5 384/2/5 391/2/5
f 393/3/5 386/3/5 385/3/5
f 394/2/5 387/2/5 386/2/5
f 394/3/5 386/3/5 393/3/5
f 394/2/5 388/2/5 387/2/5
f 395/2/5 388/2/5 394/2/5
f 396/2/5 388/2/5 395/2/5
f 397/3/5 390/3/5 389/3/5
f 397/2/5 388/2/5 396/2/5
f 397/3/5 389/3/5 388/3/5
f 398/3/5 390/3/5 397/3/5
f 399/2/5 391/2/5 390/2/5
f 399/3/5 390/3/5 398/3/5
f 400/1/5 392/1/5 391/1/5
f 400/2/5 391/2/5 399/2/5
f 401/1/5 392/1/5 400/1/5
f 402/1/5 392/1/5 401/1/5
f 403/1/5 392/1/5 402/1/5
f 404/2/5 396/2/5 395/2/5
f 404/1/5 397/1/5 396/1/5
f 405/3/5 398/3/5 397/3/5
f 405/1/5 397/1/5 404/1/5
f 406/2/5 399/2/5 398/2/5
f 406/3/5 398/3/5 405/3/5
f 407/1/5 400/1/5 399/1/5
f 407/2/5 399/2/5 406/2/5
f 408/2/5 401/2/5 400/2/5
f 408/1/5 402/1/5 401/1/5
f 409/2/5 403/2/5 402/2/5
f 409/1/5 402/1/5 408/1/5
f 410/2/5 403/2/5 409/2/5
f 411/2/5 394/2/5 393/2/5
f 412/1/5 395/1/5 394/1/5
f 412/2/5 394/2/5 411/2/5
f 413/2/5 404/2/5 395/2/5
f 413/1/5 395/1/5 412/1/5
f 414/3/5 405/3/5 404/3/5
f 414/2/5 404/2/5 413/2/5
f 415/1/5 406/1/5 405/1/5
f 415/3/5 405/3/5 414/3/5
f 416/3/5 407/3/5 406/3/5
f 416/1/5 406/1/5 415/1/5
f 417/1/5 400/1/5 407/1/5
f 417/3/5 407/3/5 416/3/5
f 418/2/5 408/2/5 400/2/5
f 418/1/5 400/1/5 417/1/5
f 418/2/5 409/2/5 408/2/5
f 419/3/5 410/3/5 409/3/5
f 419/2/5 409/2/5 418/2/5
f 420/3/5 410/3/5 419/3/5
f 421/6/6 422/6/6 423/6/6
f 423/6/6 422/6/6 424/6/6
f 423/4/6 424/4/6 425/4/6
f 424/6/6 422/6/6 425/6/6
f 425/6/6 422/6/6 426/6/6
f 423/4/6 425/4/6 427/4/6
f 425/5/6 426/5/6 427/5/6
f 427/5/6 426/5/6 428/5/6
f 426/6/6 422/6/6 429/6/6
f 428/5/6 426/5/6 429/5/6
f 429/6/6 422/6/6 430/6/6
f 427/4/6 428/4/6 431/4/6
f 423/4/6 427/4/6 431/4/6
f 429/5/6 430/5/6 432/5/6
f 431/4/6 428/4/6 432/4/6
f 428/5/6 429/5/6 432/5/6
f 432/5/6 430/5/6 433/5/6
f 423/4/6 431/4/6 434/4/6
f 431/5/6 432/5/6 434/5/6
f 432/4/6 433/4/6 435/4/6
f 434/5/6 432/5/6 435/5/6
f 433/5/6 430/5/6 436/5/6
f 435/4/6 433/4/6 436/4/6
f 430/6/6 422/6/6 437/6/6
f 436/5/6 430/5/6 437/5/6
f 437/6/6 422/6/6 438/6/6
f 434/4/6 435/4/6 439/4/6
f 423/4/6 434/4/6 439/4/6
f 435/5/6 436/5/6 440/5/6
f 439/4/6 435/4/6 440/4/6
f 436/4/6 437/4/6 441/4/6
f 440/5/6 436/5/6 441/5/6
f 437/5/6 438/5/6 442/5/6
f 441/4/6 437/4/6 442/4/6
f 438/6/6 422/6/6 443/6/6
f 442/5/6 438/5/6 443/5/6
f 441/5/6 442/5/6 444/5/6
f 440/5/6 441/5/6 444/5/6
f 439/5/6 440/5/6 444/5/6
f 442/4/6 443/4/6 445/4/6
f 444/5/6 442/5/6 445/5/6
f 443/6/6 422/6/6 446/6/6
f 445/4/6 443/4/6 446/4/6
f 446/6/6 422/6/6 447/6/6
