# MagicaVoxel @ Ephtracy

# group
g object_export_0122-6

# material
mtllib object_export_0122-6.mtl
usemtl palette

# normals
vn -1 0 0
vn 1 0 0
vn 0 0 1
vn 0 0 -1
vn 0 -1 0
vn 0 1 0

# texcoords
vt 0.720703 0.5
vt 0.751953 0.5
vt 0.755859 0.5

# verts
v -1 -1 1
v -1 -1 -1
v -1 -0.9 0.2
v -1 -0.9 -0.2
v -1 -0.8 0.1
v -1 -0.8 -0.1
v -1 -0.6 0.1
v -1 -0.6 -0.1
v -1 -0.5 0.1
v -1 -0.5 -0.1
v -1 -0.3 0.5
v -1 -0.3 0.2
v -1 -0.2 0.4
v -1 -0.2 0.1
v -1 0 0.2
v -1 0 -0.1
v -1 0 -0.2
v -1 0 -0.5
v -1 0.1 0.1
v -1 0.1 -0.1
v -1 0.1 -0.2
v -1 0.1 -0.4
v -1 0.4 0.1
v -1 0.4 -0.1
v -1 0.5 0.2
v -1 0.5 -0.2
v -1 0.7 0.4
v -1 0.7 -0.4
v -1 0.8 0.5
v -1 0.8 -0.5
v -1 1 1
v -1 1 -1
v 0.9 -0.9 0.9
v 0.9 -0.9 0.2
v 0.9 -0.9 -0.2
v 0.9 -0.9 -0.9
v 0.9 -0.8 0.1
v 0.9 -0.8 -0.1
v 0.9 -0.6 0.1
v 0.9 -0.6 -0.1
v 0.9 -0.5 0.1
v 0.9 -0.5 -0.1
v 0.9 -0.3 -0.2
v 0.9 -0.3 -0.5
v 0.9 -0.2 -0.1
v 0.9 -0.2 -0.4
v 0.9 0 0.5
v 0.9 0 0.2
v 0.9 0 0.1
v 0.9 0 -0.2
v 0.9 0.1 0.4
v 0.9 0.1 0.2
v 0.9 0.1 0.1
v 0.9 0.1 -0.1
v 0.9 0.4 0.1
v 0.9 0.4 -0.1
v 0.9 0.5 0.2
v 0.9 0.5 -0.2
v 0.9 0.7 0.4
v 0.9 0.7 -0.4
v 0.9 0.8 0.5
v 0.9 0.8 -0.5
v 0.9 0.9 0.9
v 0.9 0.9 -0.9
v -0.9 -0.9 0.9
v -0.9 -0.9 0.2
v -0.9 -0.9 -0.2
v -0.9 -0.9 -0.9
v -0.9 -0.8 0.1
v -0.9 -0.8 -0.1
v -0.9 -0.6 0.1
v -0.9 -0.6 -0.1
v -0.9 -0.5 0.1
v -0.9 -0.5 -0.1
v -0.9 -0.3 0.5
v -0.9 -0.3 0.2
v -0.9 -0.2 0.4
v -0.9 -0.2 0.1
v -0.9 0 0.2
v -0.9 0 -0.1
v -0.9 0 -0.2
v -0.9 0 -0.5
v -0.9 0.1 0.1
v -0.9 0.1 -0.1
v -0.9 0.1 -0.2
v -0.9 0.1 -0.4
v -0.9 0.4 0.1
v -0.9 0.4 -0.1
v -0.9 0.5 0.2
v -0.9 0.5 -0.2
v -0.9 0.7 0.4
v -0.9 0.7 -0.4
v -0.9 0.8 0.5
v -0.9 0.8 -0.5
v -0.9 0.9 0.9
v -0.9 0.9 -0.9
v 1 -1 1
v 1 -1 -1
v 1 -0.9 0.2
v 1 -0.9 -0.2
v 1 -0.8 0.1
v 1 -0.8 -0.1
v 1 -0.6 0.1
v 1 -0.6 -0.1
v 1 -0.5 0.1
v 1 -0.5 -0.1
v 1 -0.3 -0.2
v 1 -0.3 -0.5
v 1 -0.2 -0.1
v 1 -0.2 -0.4
v 1 0 0.5
v 1 0 0.2
v 1 0 0.1
v 1 0 -0.2
v 1 0.1 0.4
v 1 0.1 0.2
v 1 0.1 0.1
v 1 0.1 -0.1
v 1 0.4 0.1
v 1 0.4 -0.1
v 1 0.5 0.2
v 1 0.5 -0.2
v 1 0.7 0.4
v 1 0.7 -0.4
v 1 0.8 0.5
v 1 0.8 -0.5
v 1 1 1
v 1 1 -1
v -1 -1 1
v -1 1 1
v -0.5 0 1
v -0.5 0.8 1
v -0.4 0.1 1
v -0.4 0.7 1
v -0.2 -0.9 1
v -0.2 0 1
v -0.2 0.1 1
v -0.2 0.5 1
v -0.1 -0.8 1
v -0.1 -0.6 1
v -0.1 -0.5 1
v -0.1 0 1
v -0.1 0.1 1
v -0.1 0.4 1
v 0.1 -0.8 1
v 0.1 -0.6 1
v 0.1 -0.5 1
v 0.1 -0.2 1
v 0.1 0.1 1
v 0.1 0.4 1
v 0.2 -0.9 1
v 0.2 -0.3 1
v 0.2 0 1
v 0.2 0.5 1
v 0.4 -0.2 1
v 0.4 0.7 1
v 0.5 -0.3 1
v 0.5 0.8 1
v 1 -1 1
v 1 1 1
v -0.9 -0.9 -0.9
v -0.9 0.9 -0.9
v -0.5 -0.3 -0.9
v -0.5 0.8 -0.9
v -0.4 -0.2 -0.9
v -0.4 0.7 -0.9
v -0.2 -0.9 -0.9
v -0.2 -0.3 -0.9
v -0.2 0 -0.9
v -0.2 0.5 -0.9
v -0.1 -0.8 -0.9
v -0.1 -0.6 -0.9
v -0.1 -0.5 -0.9
v -0.1 -0.2 -0.9
v -0.1 0.1 -0.9
v -0.1 0.4 -0.9
v 0.1 -0.8 -0.9
v 0.1 -0.6 -0.9
v 0.1 -0.5 -0.9
v 0.1 0 -0.9
v 0.1 0.1 -0.9
v 0.1 0.4 -0.9
v 0.2 -0.9 -0.9
v 0.2 0 -0.9
v 0.2 0.1 -0.9
v 0.2 0.5 -0.9
v 0.4 0.1 -0.9
v 0.4 0.7 -0.9
v 0.5 0 -0.9
v 0.5 0.8 -0.9
v 0.9 -0.9 -0.9
v 0.9 0.9 -0.9
v -0.9 -0.9 0.9
v -0.9 0.9 0.9
v -0.5 0 0.9
v -0.5 0.8 0.9
v -0.4 0.1 0.9
v -0.4 0.7 0.9
v -0.2 -0.9 0.9
v -0.2 0 0.9
v -0.2 0.1 0.9
v -0.2 0.5 0.9
v -0.1 -0.8 0.9
v -0.1 -0.6 0.9
v -0.1 -0.5 0.9
v -0.1 0 0.9
v -0.1 0.1 0.9
v -0.1 0.4 0.9
v 0.1 -0.8 0.9
v 0.1 -0.6 0.9
v 0.1 -0.5 0.9
v 0.1 -0.2 0.9
v 0.1 0.1 0.9
v 0.1 0.4 0.9
v 0.2 -0.9 0.9
v 0.2 -0.3 0.9
v 0.2 0 0.9
v 0.2 0.5 0.9
v 0.4 -0.2 0.9
v 0.4 0.7 0.9
v 0.5 -0.3 0.9
v 0.5 0.8 0.9
v 0.9 -0.9 0.9
v 0.9 0.9 0.9
v -1 -1 -1
v -1 1 -1
v -0.5 -0.3 -1
v -0.5 0.8 -1
v -0.4 -0.2 -1
v -0.4 0.7 -1
v -0.2 -0.9 -1
v -0.2 -0.3 -1
v -0.2 0 -1
v -0.2 0.5 -1
v -0.1 -0.8 -1
v -0.1 -0.6 -1
v -0.1 -0.5 -1
v -0.1 -0.2 -1
v -0.1 0.1 -1
v -0.1 0.4 -1
v 0.1 -0.8 -1
v 0.1 -0.6 -1
v 0.1 -0.5 -1
v 0.1 0 -1
v 0.1 0.1 -1
v 0.1 0.4 -1
v 0.2 -0.9 -1
v 0.2 0 -1
v 0.2 0.1 -1
v 0.2 0.5 -1
v 0.4 0.1 -1
v 0.4 0.7 -1
v 0.5 0 -1
v 0.5 0.8 -1
v 1 -1 -1
v 1 1 -1
v -1 -1 1
v 1 -1 1
v -1 -1 -1
v 1 -1 -1
v -0.9 0.9 0.9
v 0.9 0.9 0.9
v -0.9 0.9 -0.9
v 0.9 0.9 -0.9
v -0.9 -0.9 0.9
v -0.2 -0.9 0.9
v 0.2 -0.9 0.9
v 0.9 -0.9 0.9
v -0.9 -0.9 0.2
v 0.9 -0.9 0.2
v -0.9 -0.9 -0.2
v 0.9 -0.9 -0.2
v -0.9 -0.9 -0.9
v -0.2 -0.9 -0.9
v 0.2 -0.9 -0.9
v 0.9 -0.9 -0.9
v -1 1 1
v 1 1 1
v -1 1 -1
v 1 1 -1

# faces
f 3/3/1 2/3/1 1/3/1
f 4/3/1 2/3/1 3/3/1
f 5/2/1 4/2/1 3/2/1
f 6/2/1 4/2/1 5/2/1
f 7/2/1 5/2/1 3/2/1
f 7/1/1 6/1/1 5/1/1
f 8/2/1 4/2/1 6/2/1
f 8/1/1 6/1/1 7/1/1
f 9/2/1 7/2/1 3/2/1
f 9/2/1 8/2/1 7/2/1
f 10/2/1 4/2/1 8/2/1
f 10/2/1 8/2/1 9/2/1
f 11/3/1 3/3/1 1/3/1
f 12/2/1 9/2/1 3/2/1
f 12/3/1 3/3/1 11/3/1
f 13/2/1 12/2/1 11/2/1
f 14/1/1 10/1/1 9/1/1
f 14/2/1 12/2/1 13/2/1
f 14/2/1 9/2/1 12/2/1
f 15/1/1 14/1/1 13/1/1
f 16/2/1 4/2/1 10/2/1
f 16/1/1 14/1/1 15/1/1
f 16/1/1 10/1/1 14/1/1
f 17/3/1 2/3/1 4/3/1
f 17/2/1 4/2/1 16/2/1
f 18/3/1 2/3/1 17/3/1
f 19/2/1 16/2/1 15/2/1
f 19/2/1 17/2/1 16/2/1
f 19/2/1 18/2/1 17/2/1
f 20/2/1 18/2/1 19/2/1
f 21/2/1 18/2/1 20/2/1
f 22/2/1 18/2/1 21/2/1
f 23/2/1 19/2/1 15/2/1
f 23/3/1 20/3/1 19/3/1
f 24/2/1 21/2/1 20/2/1
f 24/3/1 20/3/1 23/3/1
f 25/1/1 15/1/1 13/1/1
f 25/2/1 23/2/1 15/2/1
f 25/2/1 24/2/1 23/2/1
f 26/2/1 21/2/1 24/2/1
f 26/2/1 24/2/1 25/2/1
f 26/1/1 22/1/1 21/1/1
f 27/1/1 25/1/1 13/1/1
f 27/2/1 13/2/1 11/2/1
f 27/1/1 26/1/1 25/1/1
f 28/1/1 22/1/1 26/1/1
f 28/1/1 26/1/1 27/1/1
f 28/2/1 18/2/1 22/2/1
f 29/2/1 27/2/1 11/2/1
f 29/3/1 11/3/1 1/3/1
f 29/2/1 28/2/1 27/2/1
f 30/2/1 18/2/1 28/2/1
f 30/2/1 28/2/1 29/2/1
f 30/3/1 2/3/1 18/3/1
f 31/3/1 29/3/1 1/3/1
f 31/3/1 30/3/1 29/3/1
f 32/3/1 2/3/1 30/3/1
f 32/3/1 30/3/1 31/3/1
f 37/2/1 35/2/1 34/2/1
f 38/2/1 35/2/1 37/2/1
f 39/2/1 37/2/1 34/2/1
f 39/1/1 38/1/1 37/1/1
f 40/2/1 35/2/1 38/2/1
f 40/1/1 38/1/1 39/1/1
f 41/2/1 39/2/1 34/2/1
f 41/2/1 40/2/1 39/2/1
f 42/2/1 35/2/1 40/2/1
f 42/2/1 40/2/1 41/2/1
f 43/3/1 36/3/1 35/3/1
f 43/2/1 35/2/1 42/2/1
f 44/3/1 36/3/1 43/3/1
f 45/1/1 42/1/1 41/1/1
f 45/2/1 43/2/1 42/2/1
f 45/2/1 44/2/1 43/2/1
f 46/2/1 44/2/1 45/2/1
f 47/3/1 34/3/1 33/3/1
f 48/2/1 41/2/1 34/2/1
f 48/3/1 34/3/1 47/3/1
f 49/1/1 45/1/1 41/1/1
f 49/2/1 41/2/1 48/2/1
f 49/1/1 46/1/1 45/1/1
f 50/1/1 46/1/1 49/1/1
f 51/2/1 48/2/1 47/2/1
f 51/2/1 49/2/1 48/2/1
f 51/2/1 50/2/1 49/2/1
f 52/2/1 50/2/1 51/2/1
f 53/2/1 50/2/1 52/2/1
f 54/2/1 50/2/1 53/2/1
f 55/2/1 53/2/1 52/2/1
f 55/3/1 54/3/1 53/3/1
f 56/2/1 50/2/1 54/2/1
f 56/3/1 54/3/1 55/3/1
f 57/1/1 52/1/1 51/1/1
f 57/2/1 55/2/1 52/2/1
f 57/2/1 56/2/1 55/2/1
f 58/1/1 46/1/1 50/1/1
f 58/2/1 56/2/1 57/2/1
f 58/2/1 50/2/1 56/2/1
f 59/1/1 57/1/1 51/1/1
f 59/2/1 51/2/1 47/2/1
f 59/1/1 58/1/1 57/1/1
f 60/2/1 44/2/1 46/2/1
f 60/1/1 58/1/1 59/1/1
f 60/1/1 46/1/1 58/1/1
f 61/2/1 59/2/1 47/2/1
f 61/3/1 47/3/1 33/3/1
f 61/2/1 60/2/1 59/2/1
f 62/2/1 44/2/1 60/2/1
f 62/2/1 60/2/1 61/2/1
f 62/3/1 36/3/1 44/3/1
f 63/3/1 61/3/1 33/3/1
f 63/3/1 62/3/1 61/3/1
f 64/3/1 36/3/1 62/3/1
f 64/3/1 62/3/1 63/3/1
f 66/2/2 67/2/2 69/2/2
f 69/2/2 67/2/2 70/2/2
f 66/2/2 69/2/2 71/2/2
f 69/1/2 70/1/2 71/1/2
f 70/2/2 67/2/2 72/2/2
f 71/1/2 70/1/2 72/1/2
f 66/2/2 71/2/2 73/2/2
f 71/2/2 72/2/2 73/2/2
f 72/2/2 67/2/2 74/2/2
f 73/2/2 72/2/2 74/2/2
f 65/3/2 66/3/2 75/3/2
f 66/2/2 73/2/2 76/2/2
f 75/3/2 66/3/2 76/3/2
f 75/2/2 76/2/2 77/2/2
f 73/1/2 74/1/2 78/1/2
f 77/2/2 76/2/2 78/2/2
f 76/2/2 73/2/2 78/2/2
f 77/1/2 78/1/2 79/1/2
f 74/2/2 67/2/2 80/2/2
f 79/1/2 78/1/2 80/1/2
f 78/1/2 74/1/2 80/1/2
f 67/3/2 68/3/2 81/3/2
f 80/2/2 67/2/2 81/2/2
f 81/3/2 68/3/2 82/3/2
f 79/2/2 80/2/2 83/2/2
f 80/2/2 81/2/2 83/2/2
f 81/2/2 82/2/2 83/2/2
f 83/2/2 82/2/2 84/2/2
f 84/2/2 82/2/2 85/2/2
f 85/2/2 82/2/2 86/2/2
f 79/2/2 83/2/2 87/2/2
f 83/3/2 84/3/2 87/3/2
f 84/2/2 85/2/2 88/2/2
f 87/3/2 84/3/2 88/3/2
f 77/1/2 79/1/2 89/1/2
f 79/2/2 87/2/2 89/2/2
f 87/2/2 88/2/2 89/2/2
f 88/2/2 85/2/2 90/2/2
f 89/2/2 88/2/2 90/2/2
f 85/1/2 86/1/2 90/1/2
f 77/1/2 89/1/2 91/1/2
f 75/2/2 77/2/2 91/2/2
f 89/1/2 90/1/2 91/1/2
f 90/1/2 86/1/2 92/1/2
f 91/1/2 90/1/2 92/1/2
f 86/2/2 82/2/2 92/2/2
f 75/2/2 91/2/2 93/2/2
f 65/3/2 75/3/2 93/3/2
f 91/2/2 92/2/2 93/2/2
f 92/2/2 82/2/2 94/2/2
f 93/2/2 92/2/2 94/2/2
f 82/3/2 68/3/2 94/3/2
f 65/3/2 93/3/2 95/3/2
f 93/3/2 94/3/2 95/3/2
f 94/3/2 68/3/2 96/3/2
f 95/3/2 94/3/2 96/3/2
f 97/3/2 98/3/2 99/3/2
f 99/3/2 98/3/2 100/3/2
f 99/2/2 100/2/2 101/2/2
f 101/2/2 100/2/2 102/2/2
f 99/2/2 101/2/2 103/2/2
f 101/1/2 102/1/2 103/1/2
f 102/2/2 100/2/2 104/2/2
f 103/1/2 102/1/2 104/1/2
f 99/2/2 103/2/2 105/2/2
f 103/2/2 104/2/2 105/2/2
f 104/2/2 100/2/2 106/2/2
f 105/2/2 104/2/2 106/2/2
f 100/3/2 98/3/2 107/3/2
f 106/2/2 100/2/2 107/2/2
f 107/3/2 98/3/2 108/3/2
f 105/1/2 106/1/2 109/1/2
f 106/2/2 107/2/2 109/2/2
f 107/2/2 108/2/2 109/2/2
f 109/2/2 108/2/2 110/2/2
f 97/3/2 99/3/2 111/3/2
f 99/2/2 105/2/2 112/2/2
f 111/3/2 99/3/2 112/3/2
f 105/1/2 109/1/2 113/1/2
f 112/2/2 105/2/2 113/2/2
f 109/1/2 110/1/2 113/1/2
f 113/1/2 110/1/2 114/1/2
f 111/2/2 112/2/2 115/2/2
f 112/2/2 113/2/2 115/2/2
f 113/2/2 114/2/2 115/2/2
f 115/2/2 114/2/2 116/2/2
f 116/2/2 114/2/2 117/2/2
f 117/2/2 114/2/2 118/2/2
f 116/2/2 117/2/2 119/2/2
f 117/3/2 118/3/2 119/3/2
f 118/2/2 114/2/2 120/2/2
f 119/3/2 118/3/2 120/3/2
f 115/1/2 116/1/2 121/1/2
f 116/2/2 119/2/2 121/2/2
f 119/2/2 120/2/2 121/2/2
f 114/1/2 110/1/2 122/1/2
f 121/2/2 120/2/2 122/2/2
f 120/2/2 114/2/2 122/2/2
f 115/1/2 121/1/2 123/1/2
f 111/2/2 115/2/2 123/2/2
f 121/1/2 122/1/2 123/1/2
f 110/2/2 108/2/2 124/2/2
f 123/1/2 122/1/2 124/1/2
f 122/1/2 110/1/2 124/1/2
f 111/2/2 123/2/2 125/2/2
f 97/3/2 111/3/2 125/3/2
f 123/2/2 124/2/2 125/2/2
f 124/2/2 108/2/2 126/2/2
f 125/2/2 124/2/2 126/2/2
f 108/3/2 98/3/2 126/3/2
f 97/3/2 125/3/2 127/3/2
f 125/3/2 126/3/2 127/3/2
f 126/3/2 98/3/2 128/3/2
f 127/3/2 126/3/2 128/3/2
f 131/3/3 130/3/3 129/3/3
f 132/3/3 130/3/3 131/3/3
f 133/2/3 132/2/3 131/2/3
f 134/2/3 132/2/3 133/2/3
f 135/3/3 131/3/3 129/3/3
f 136/2/3 133/2/3 131/2/3
f 136/3/3 131/3/3 135/3/3
f 137/1/3 134/1/3 133/1/3
f 137/2/3 133/2/3 136/2/3
f 138/1/3 134/1/3 137/1/3
f 139/2/3 136/2/3 135/2/3
f 139/2/3 137/2/3 136/2/3
f 139/2/3 138/2/3 137/2/3
f 140/2/3 138/2/3 139/2/3
f 141/2/3 138/2/3 140/2/3
f 142/2/3 138/2/3 141/2/3
f 143/2/3 138/2/3 142/2/3
f 144/2/3 138/2/3 143/2/3
f 145/2/3 139/2/3 135/2/3
f 145/1/3 140/1/3 139/1/3
f 146/2/3 141/2/3 140/2/3
f 146/1/3 140/1/3 145/1/3
f 147/1/3 142/1/3 141/1/3
f 147/2/3 141/2/3 146/2/3
f 148/1/3 142/1/3 147/1/3
f 149/3/3 144/3/3 143/3/3
f 149/2/3 143/2/3 142/2/3
f 150/2/3 138/2/3 144/2/3
f 150/3/3 144/3/3 149/3/3
f 151/3/3 135/3/3 129/3/3
f 151/2/3 145/2/3 135/2/3
f 151/2/3 146/2/3 145/2/3
f 151/2/3 147/2/3 146/2/3
f 151/2/3 148/2/3 147/2/3
f 152/2/3 148/2/3 151/2/3
f 153/2/3 149/2/3 142/2/3
f 153/1/3 142/1/3 148/1/3
f 153/2/3 150/2/3 149/2/3
f 154/2/3 138/2/3 150/2/3
f 154/2/3 150/2/3 153/2/3
f 154/1/3 134/1/3 138/1/3
f 155/1/3 153/1/3 148/1/3
f 155/2/3 148/2/3 152/2/3
f 155/1/3 154/1/3 153/1/3
f 156/2/3 132/2/3 134/2/3
f 156/1/3 154/1/3 155/1/3
f 156/1/3 134/1/3 154/1/3
f 157/2/3 155/2/3 152/2/3
f 157/3/3 152/3/3 151/3/3
f 157/2/3 156/2/3 155/2/3
f 158/2/3 132/2/3 156/2/3
f 158/2/3 156/2/3 157/2/3
f 158/3/3 130/3/3 132/3/3
f 159/3/3 157/3/3 151/3/3
f 159/3/3 151/3/3 129/3/3
f 159/3/3 158/3/3 157/3/3
f 160/3/3 130/3/3 158/3/3
f 160/3/3 158/3/3 159/3/3
f 163/3/3 162/3/3 161/3/3
f 164/3/3 162/3/3 163/3/3
f 165/2/3 164/2/3 163/2/3
f 166/2/3 164/2/3 165/2/3
f 167/3/3 163/3/3 161/3/3
f 168/2/3 165/2/3 163/2/3
f 168/3/3 163/3/3 167/3/3
f 169/1/3 166/1/3 165/1/3
f 170/1/3 166/1/3 169/1/3
f 171/2/3 168/2/3 167/2/3
f 172/2/3 168/2/3 171/2/3
f 173/2/3 168/2/3 172/2/3
f 174/2/3 165/2/3 168/2/3
f 174/2/3 168/2/3 173/2/3
f 174/1/3 169/1/3 165/1/3
f 175/2/3 170/2/3 169/2/3
f 176/2/3 170/2/3 175/2/3
f 177/1/3 172/1/3 171/1/3
f 177/2/3 171/2/3 167/2/3
f 178/2/3 173/2/3 172/2/3
f 178/1/3 172/1/3 177/1/3
f 179/1/3 174/1/3 173/1/3
f 179/2/3 173/2/3 178/2/3
f 180/1/3 169/1/3 174/1/3
f 180/1/3 174/1/3 179/1/3
f 180/2/3 175/2/3 169/2/3
f 181/3/3 176/3/3 175/3/3
f 181/2/3 175/2/3 180/2/3
f 182/2/3 170/2/3 176/2/3
f 182/3/3 176/3/3 181/3/3
f 183/2/3 177/2/3 167/2/3
f 183/2/3 181/2/3 180/2/3
f 183/2/3 182/2/3 181/2/3
f 183/2/3 178/2/3 177/2/3
f 183/2/3 180/2/3 179/2/3
f 183/2/3 179/2/3 178/2/3
f 184/2/3 182/2/3 183/2/3
f 185/2/3 182/2/3 184/2/3
f 186/2/3 170/2/3 182/2/3
f 186/2/3 182/2/3 185/2/3
f 186/1/3 166/1/3 170/1/3
f 187/2/3 185/2/3 184/2/3
f 187/1/3 186/1/3 185/1/3
f 188/2/3 164/2/3 166/2/3
f 188/1/3 186/1/3 187/1/3
f 188/1/3 166/1/3 186/1/3
f 189/2/3 187/2/3 184/2/3
f 189/3/3 184/3/3 183/3/3
f 189/2/3 188/2/3 187/2/3
f 190/2/3 164/2/3 188/2/3
f 190/2/3 188/2/3 189/2/3
f 190/3/3 162/3/3 164/3/3
f 191/3/3 189/3/3 183/3/3
f 191/3/3 190/3/3 189/3/3
f 192/3/3 162/3/3 190/3/3
f 192/3/3 190/3/3 191/3/3
f 193/3/4 194/3/4 195/3/4
f 195/3/4 194/3/4 196/3/4
f 195/2/4 196/2/4 197/2/4
f 197/2/4 196/2/4 198/2/4
f 193/3/4 195/3/4 199/3/4
f 195/2/4 197/2/4 200/2/4
f 199/3/4 195/3/4 200/3/4
f 197/1/4 198/1/4 201/1/4
f 200/2/4 197/2/4 201/2/4
f 201/1/4 198/1/4 202/1/4
f 199/2/4 200/2/4 203/2/4
f 200/2/4 201/2/4 203/2/4
f 201/2/4 202/2/4 203/2/4
f 203/2/4 202/2/4 204/2/4
f 204/2/4 202/2/4 205/2/4
f 205/2/4 202/2/4 206/2/4
f 206/2/4 202/2/4 207/2/4
f 207/2/4 202/2/4 208/2/4
f 199/2/4 203/2/4 209/2/4
f 203/1/4 204/1/4 209/1/4
f 204/2/4 205/2/4 210/2/4
f 209/1/4 204/1/4 210/1/4
f 205/1/4 206/1/4 211/1/4
f 210/2/4 205/2/4 211/2/4
f 211/1/4 206/1/4 212/1/4
f 207/3/4 208/3/4 213/3/4
f 206/2/4 207/2/4 213/2/4
f 208/2/4 202/2/4 214/2/4
f 213/3/4 208/3/4 214/3/4
f 199/2/4 209/2/4 215/2/4
f 209/2/4 210/2/4 215/2/4
f 211/2/4 212/2/4 215/2/4
f 210/2/4 211/2/4 215/2/4
f 215/2/4 212/2/4 216/2/4
f 206/2/4 213/2/4 217/2/4
f 212/1/4 206/1/4 217/1/4
f 213/2/4 214/2/4 217/2/4
f 202/1/4 198/1/4 218/1/4
f 217/2/4 214/2/4 218/2/4
f 214/2/4 202/2/4 218/2/4
f 212/1/4 217/1/4 219/1/4
f 216/2/4 212/2/4 219/2/4
f 217/1/4 218/1/4 219/1/4
f 198/2/4 196/2/4 220/2/4
f 219/1/4 218/1/4 220/1/4
f 218/1/4 198/1/4 220/1/4
f 216/2/4 219/2/4 221/2/4
f 215/3/4 216/3/4 221/3/4
f 219/2/4 220/2/4 221/2/4
f 220/2/4 196/2/4 222/2/4
f 221/2/4 220/2/4 222/2/4
f 196/3/4 194/3/4 222/3/4
f 215/3/4 221/3/4 223/3/4
f 221/3/4 222/3/4 223/3/4
f 222/3/4 194/3/4 224/3/4
f 223/3/4 222/3/4 224/3/4
f 225/3/4 226/3/4 227/3/4
f 227/3/4 226/3/4 228/3/4
f 227/2/4 228/2/4 229/2/4
f 229/2/4 228/2/4 230/2/4
f 225/3/4 227/3/4 231/3/4
f 227/2/4 229/2/4 232/2/4
f 231/3/4 227/3/4 232/3/4
f 229/1/4 230/1/4 233/1/4
f 233/1/4 230/1/4 234/1/4
f 231/2/4 232/2/4 235/2/4
f 235/2/4 232/2/4 236/2/4
f 236/2/4 232/2/4 237/2/4
f 232/2/4 229/2/4 238/2/4
f 237/2/4 232/2/4 238/2/4
f 229/1/4 233/1/4 238/1/4
f 233/2/4 234/2/4 239/2/4
f 239/2/4 234/2/4 240/2/4
f 235/1/4 236/1/4 241/1/4
f 231/2/4 235/2/4 241/2/4
f 236/2/4 237/2/4 242/2/4
f 241/1/4 236/1/4 242/1/4
f 237/1/4 238/1/4 243/1/4
f 242/2/4 237/2/4 243/2/4
f 238/1/4 233/1/4 244/1/4
f 243/1/4 238/1/4 244/1/4
f 233/2/4 239/2/4 244/2/4
f 239/3/4 240/3/4 245/3/4
f 244/2/4 239/2/4 245/2/4
f 240/2/4 234/2/4 246/2/4
f 245/3/4 240/3/4 246/3/4
f 225/3/4 231/3/4 247/3/4
f 231/2/4 241/2/4 247/2/4
f 245/2/4 246/2/4 247/2/4
f 241/2/4 242/2/4 247/2/4
f 243/2/4 244/2/4 247/2/4
f 242/2/4 243/2/4 247/2/4
f 244/2/4 245/2/4 247/2/4
f 247/2/4 246/2/4 248/2/4
f 248/2/4 246/2/4 249/2/4
f 246/2/4 234/2/4 250/2/4
f 249/2/4 246/2/4 250/2/4
f 234/1/4 230/1/4 250/1/4
f 248/2/4 249/2/4 251/2/4
f 249/1/4 250/1/4 251/1/4
f 230/2/4 228/2/4 252/2/4
f 251/1/4 250/1/4 252/1/4
f 250/1/4 230/1/4 252/1/4
f 248/2/4 251/2/4 253/2/4
f 247/3/4 248/3/4 253/3/4
f 251/2/4 252/2/4 253/2/4
f 252/2/4 228/2/4 254/2/4
f 253/2/4 252/2/4 254/2/4
f 228/3/4 226/3/4 254/3/4
f 247/3/4 253/3/4 255/3/4
f 225/3/4 247/3/4 255/3/4
f 253/3/4 254/3/4 255/3/4
f 254/3/4 226/3/4 256/3/4
f 255/3/4 254/3/4 256/3/4
f 259/3/5 258/3/5 257/3/5
f 260/3/5 258/3/5 259/3/5
f 263/3/5 262/3/5 261/3/5
f 264/3/5 262/3/5 263/3/5
f 265/3/6 266/3/6 269/3/6
f 267/3/6 268/3/6 269/3/6
f 266/3/6 267/3/6 269/3/6
f 269/3/6 268/3/6 270/3/6
f 269/3/6 270/3/6 271/3/6
f 271/3/6 270/3/6 272/3/6
f 271/3/6 272/3/6 273/3/6
f 273/3/6 272/3/6 274/3/6
f 274/3/6 272/3/6 275/3/6
f 275/3/6 272/3/6 276/3/6
f 277/3/6 278/3/6 279/3/6
f 279/3/6 278/3/6 280/3/6
