# MagicaVoxel @ Ephtracy

# group
g BackGround_Snow_Box-4

# material
mtllib BackGround_Snow_Box-4.mtl
usemtl palette

# normals
vn -1 0 0
vn 1 0 0
vn 0 0 1
vn 0 0 -1
vn 0 -1 0
vn 0 1 0

# texcoords
vt 0.236328 0.5
vt 0.291016 0.5
vt 0.302734 0.5
vt 0.306641 0.5

# verts
v -5 -5 5
v -5 -5 -4
v -5 -5 -5
v -5 -4 4
v -5 -4 3
v -5 -4 2
v -5 -4 -0
v -5 -4 -1
v -5 -4 -4
v -5 -3 5
v -5 -3 4
v -5 -3 3
v -5 -3 -4
v -5 -3 -5
v -5 -2 4
v -5 -2 2
v -5 -2 -0
v -5 -2 -1
v -5 -1 -1
v -5 -1 -4
v -5 0 5
v -5 0 4
v -5 0 1
v -5 0 -0
v -5 0 -4
v -5 0 -5
v -5 1 4
v -5 1 1
v -5 2 -2
v -5 2 -4
v -5 2 -5
v -5 3 5
v -5 3 4
v -5 3 1
v -5 3 -0
v -5 3 -2
v -5 3 -3
v -5 3 -4
v -5 4 4
v -5 4 3
v -5 4 1
v -5 4 -0
v -5 4 -2
v -5 4 -3
v -5 4 -4
v -5 5 5
v -5 5 3
v -5 5 -2
v -5 5 -3
v -5 5 -5
v -4 -4 4
v -4 -4 3
v -4 -4 2
v -4 -4 1
v -4 -4 -0
v -4 -4 -1
v -4 -4 -4
v -4 -3 4
v -4 -3 3
v -4 -3 -3
v -4 -3 -4
v -4 -2 4
v -4 -2 3
v -4 -2 2
v -4 -2 1
v -4 -2 -0
v -4 -2 -1
v -4 -1 -1
v -4 -1 -3
v -4 -1 -4
v -4 0 4
v -4 0 3
v -4 0 2
v -4 0 1
v -4 0 -0
v -4 0 -1
v -4 0 -2
v -4 0 -4
v -4 1 4
v -4 1 1
v -4 2 4
v -4 2 3
v -4 2 2
v -4 2 1
v -4 2 -2
v -4 2 -4
v -4 3 4
v -4 3 3
v -4 3 1
v -4 3 -0
v -4 3 -1
v -4 3 -2
v -4 3 -3
v -4 3 -4
v -4 4 4
v -4 4 3
v -4 4 2
v -4 4 1
v -4 4 -0
v -4 4 -2
v -4 4 -3
v -4 4 -4
v 4 -4 4
v 4 -4 3
v 4 -4 2
v 4 -4 1
v 4 -4 -0
v 4 -4 -2
v 4 -4 -3
v 4 -4 -4
v 4 -3 4
v 4 -3 3
v 4 -3 -3
v 4 -3 -4
v 4 -2 1
v 4 -2 -0
v 4 -2 -1
v 4 -2 -2
v 4 -2 -4
v 4 -1 4
v 4 -1 3
v 4 -1 2
v 4 -1 1
v 4 -1 -4
v 4 0 4
v 4 0 3
v 4 0 2
v 4 0 -0
v 4 0 -1
v 4 0 -2
v 4 0 -3
v 4 0 -4
v 4 1 4
v 4 1 3
v 4 1 -1
v 4 1 -2
v 4 1 -3
v 4 1 -4
v 4 2 4
v 4 2 3
v 4 2 2
v 4 3 4
v 4 3 3
v 4 3 -0
v 4 3 -1
v 4 3 -2
v 4 3 -3
v 4 3 -4
v 4 4 4
v 4 4 3
v 4 4 2
v 4 4 -0
v 4 4 -1
v 4 4 -4
v 5 -5 5
v 5 -5 4
v 5 -5 2
v 5 -5 1
v 5 -5 -5
v 5 -4 4
v 5 -4 2
v 5 -4 1
v 5 -4 -0
v 5 -4 -2
v 5 -4 -3
v 5 -4 -4
v 5 -4 -5
v 5 -3 5
v 5 -3 4
v 5 -3 -3
v 5 -3 -4
v 5 -2 1
v 5 -2 -0
v 5 -2 -2
v 5 -2 -4
v 5 -1 4
v 5 -1 3
v 5 -1 2
v 5 -1 1
v 5 -1 -4
v 5 -1 -5
v 5 0 4
v 5 0 3
v 5 0 2
v 5 0 -0
v 5 0 -1
v 5 0 -3
v 5 0 -4
v 5 1 -1
v 5 1 -3
v 5 1 -4
v 5 2 4
v 5 2 3
v 5 2 2
v 5 3 4
v 5 3 3
v 5 3 -0
v 5 3 -1
v 5 3 -4
v 5 3 -5
v 5 4 4
v 5 4 3
v 5 4 2
v 5 4 -0
v 5 4 -1
v 5 4 -4
v 5 5 5
v 5 5 3
v 5 5 2
v 5 5 -4
v 5 5 -5
v -5 -5 5
v -5 -3 5
v -5 0 5
v -5 3 5
v -5 5 5
v -4 -3 5
v -4 0 5
v -4 3 5
v -4 5 5
v 4 -5 5
v 4 -3 5
v 5 -5 5
v 5 -3 5
v 5 5 5
v -5 -4 3
v -5 -3 3
v -4 -4 3
v -4 -3 3
v 4 3 3
v 4 4 3
v 5 3 3
v 5 4 3
v -5 1 1
v -5 3 1
v -5 4 1
v -4 1 1
v -4 2 1
v -4 3 1
v -4 4 1
v 4 -4 1
v 4 -2 1
v 4 -1 1
v 5 -4 1
v 5 -2 1
v 5 -1 1
v -5 -4 -0
v -5 -2 -0
v -5 0 -0
v -4 -4 -0
v -4 -2 -0
v -4 0 -0
v 4 0 -0
v 4 3 -0
v 4 4 -0
v 5 0 -0
v 5 3 -0
v 5 4 -0
v -5 2 -2
v -5 3 -2
v -5 4 -2
v -4 2 -2
v -4 3 -2
v -4 4 -2
v 4 -4 -2
v 4 -2 -2
v 5 -4 -2
v 5 -2 -2
v -5 -4 -4
v -5 -3 -4
v -5 -1 -4
v -5 0 -4
v -5 2 -4
v -5 3 -4
v -5 4 -4
v -4 -4 -4
v -4 -3 -4
v -4 -1 -4
v -4 0 -4
v -4 2 -4
v -4 3 -4
v -4 4 -4
v 4 -4 -4
v 4 -3 -4
v 4 -2 -4
v 4 -1 -4
v 4 0 -4
v 4 1 -4
v 4 3 -4
v 4 4 -4
v 5 -4 -4
v 5 -3 -4
v 5 -2 -4
v 5 -1 -4
v 5 0 -4
v 5 1 -4
v 5 3 -4
v 5 4 -4
v -5 -4 4
v -5 -3 4
v -5 -2 4
v -5 0 4
v -5 1 4
v -5 3 4
v -5 4 4
v -4 -4 4
v -4 -3 4
v -4 -2 4
v -4 0 4
v -4 1 4
v -4 2 4
v -4 3 4
v -4 4 4
v 4 -4 4
v 4 -3 4
v 4 -1 4
v 4 0 4
v 4 1 4
v 4 2 4
v 4 3 4
v 4 4 4
v 5 -4 4
v 5 -3 4
v 5 -1 4
v 5 0 4
v 5 2 4
v 5 3 4
v 5 4 4
v -5 -4 2
v -5 -2 2
v -4 -4 2
v -4 -2 2
v 4 2 2
v 4 4 2
v 5 2 2
v 5 4 2
v -5 0 -0
v -5 3 -0
v -5 4 -0
v -4 0 -0
v -4 3 -0
v -4 4 -0
v 4 -4 -0
v 4 -2 -0
v 4 0 -0
v 5 -4 -0
v 5 -2 -0
v 5 0 -0
v -5 -4 -1
v -5 -2 -1
v -5 -1 -1
v -4 -4 -1
v -4 -2 -1
v -4 -1 -1
v 4 1 -1
v 4 3 -1
v 4 4 -1
v 5 1 -1
v 5 3 -1
v 5 4 -1
v -5 3 -3
v -5 4 -3
v -4 3 -3
v -4 4 -3
v 4 -4 -3
v 4 -3 -3
v 5 -4 -3
v 5 -3 -3
v -5 -5 -5
v -5 -3 -5
v -5 0 -5
v -5 2 -5
v -5 5 -5
v -4 -5 -5
v -4 -3 -5
v -4 0 -5
v -4 2 -5
v 4 -4 -5
v 4 -1 -5
v 4 3 -5
v 4 5 -5
v 5 -5 -5
v 5 -4 -5
v 5 -1 -5
v 5 3 -5
v 5 5 -5
v -5 -5 5
v 4 -5 5
v 5 -5 5
v 4 -5 4
v 5 -5 4
v 4 -5 2
v 5 -5 2
v 4 -5 1
v 5 -5 1
v -5 -5 -4
v -4 -5 -4
v -5 -5 -5
v -4 -5 -5
v 5 -5 -5
v -5 -3 4
v -4 -3 4
v -5 -3 3
v -4 -3 3
v 4 -3 -3
v 5 -3 -3
v 4 -3 -4
v 5 -3 -4
v 4 -1 4
v 5 -1 4
v 4 -1 3
v 5 -1 3
v 4 -1 2
v 5 -1 2
v 4 -1 1
v 5 -1 1
v -5 -1 -1
v -4 -1 -1
v -4 -1 -3
v -5 -1 -4
v -4 -1 -4
v -5 0 4
v -4 0 4
v -4 0 3
v -4 0 2
v -5 0 1
v -4 0 1
v -5 0 -0
v -4 0 -0
v 4 0 -0
v 5 0 -0
v 4 0 -1
v 5 0 -1
v 4 0 -2
v 4 0 -3
v 5 0 -3
v 4 0 -4
v 5 0 -4
v 4 2 4
v 5 2 4
v 4 2 3
v 5 2 3
v 4 2 2
v 5 2 2
v -5 2 -2
v -4 2 -2
v -5 2 -4
v -4 2 -4
v -5 4 4
v -4 4 4
v 4 4 4
v 5 4 4
v -5 4 3
v -4 4 3
v 4 4 3
v 5 4 3
v -4 4 2
v 4 4 2
v 5 4 2
v -5 4 1
v -4 4 1
v -5 4 -0
v -4 4 -0
v 4 4 -0
v 5 4 -0
v 4 4 -1
v 5 4 -1
v -5 4 -2
v -4 4 -2
v -5 4 -3
v -4 4 -3
v -5 4 -4
v -4 4 -4
v 4 4 -4
v 5 4 -4
v -5 -4 4
v -4 -4 4
v 4 -4 4
v 5 -4 4
v -5 -4 3
v -4 -4 3
v 4 -4 3
v -5 -4 2
v -4 -4 2
v 4 -4 2
v 5 -4 2
v -4 -4 1
v 4 -4 1
v 5 -4 1
v -5 -4 -0
v -4 -4 -0
v 4 -4 -0
v 5 -4 -0
v -5 -4 -1
v -4 -4 -1
v 4 -4 -2
v 5 -4 -2
v 4 -4 -3
v 5 -4 -3
v -5 -4 -4
v -4 -4 -4
v 4 -4 -4
v 5 -4 -4
v -5 -2 4
v -4 -2 4
v -4 -2 3
v -5 -2 2
v -4 -2 2
v 4 -2 -2
v 5 -2 -2
v 4 -2 -4
v 5 -2 -4
v 4 0 4
v 5 0 4
v 4 0 3
v 5 0 3
v 4 0 2
v 5 0 2
v -5 0 -0
v -4 0 -0
v 4 0 -0
v 5 0 -0
v -4 0 -1
v -4 0 -2
v -5 0 -4
v -4 0 -4
v -5 1 4
v -4 1 4
v -5 1 1
v -4 1 1
v 4 1 -1
v 5 1 -1
v 4 1 -2
v 4 1 -3
v 5 1 -3
v 4 1 -4
v 5 1 -4
v 4 3 4
v 5 3 4
v 4 3 3
v 5 3 3
v -5 3 -3
v -4 3 -3
v -5 3 -4
v -4 3 -4
v -5 5 5
v -4 5 5
v 5 5 5
v -5 5 3
v -4 5 3
v 4 5 3
v 5 5 3
v 4 5 2
v 5 5 2
v -5 5 -2
v -4 5 -2
v -5 5 -3
v -4 5 -3
v 4 5 -4
v 5 5 -4
v -5 5 -5
v 4 5 -5
v 5 5 -5

# faces
f 4/1/1 2/1/1 1/1/1
f 5/1/1 2/1/1 4/1/1
f 6/1/1 2/1/1 5/1/1
f 7/1/1 2/1/1 6/1/1
f 8/1/1 2/1/1 7/1/1
f 9/2/1 3/2/1 2/2/1
f 9/1/1 2/1/1 8/1/1
f 10/1/1 4/1/1 1/1/1
f 11/1/1 4/1/1 10/1/1
f 12/1/1 6/1/1 5/1/1
f 13/2/1 3/2/1 9/2/1
f 14/2/1 3/2/1 13/2/1
f 15/1/1 12/1/1 11/1/1
f 15/2/1 11/2/1 10/2/1
f 16/1/1 6/1/1 12/1/1
f 16/1/1 12/1/1 15/1/1
f 17/2/1 8/2/1 7/2/1
f 18/2/1 8/2/1 17/2/1
f 19/1/1 18/1/1 17/1/1
f 20/1/1 14/1/1 13/1/1
f 21/2/1 15/2/1 10/2/1
f 22/2/1 15/2/1 21/2/1
f 24/1/1 19/1/1 17/1/1
f 24/1/1 20/1/1 19/1/1
f 25/1/1 14/1/1 20/1/1
f 25/1/1 20/1/1 24/1/1
f 26/1/1 14/1/1 25/1/1
f 27/1/1 23/1/1 22/1/1
f 27/1/1 22/1/1 21/1/1
f 28/2/1 24/2/1 23/2/1
f 28/1/1 23/1/1 27/1/1
f 30/2/1 26/2/1 25/2/1
f 31/2/1 26/2/1 30/2/1
f 32/1/1 27/1/1 21/1/1
f 33/1/1 27/1/1 32/1/1
f 34/2/1 24/2/1 28/2/1
f 35/2/1 24/2/1 34/2/1
f 36/1/1 30/1/1 29/1/1
f 36/1/1 31/1/1 30/1/1
f 37/1/1 31/1/1 36/1/1
f 38/1/1 31/1/1 37/1/1
f 39/2/1 33/2/1 32/2/1
f 41/1/1 35/1/1 34/1/1
f 42/1/1 35/1/1 41/1/1
f 43/2/1 37/2/1 36/2/1
f 44/2/1 37/2/1 43/2/1
f 45/1/1 31/1/1 38/1/1
f 46/2/1 40/2/1 39/2/1
f 46/2/1 39/2/1 32/2/1
f 47/1/1 42/1/1 41/1/1
f 47/2/1 40/2/1 46/2/1
f 47/1/1 41/1/1 40/1/1
f 47/1/1 43/1/1 42/1/1
f 48/2/1 44/2/1 43/2/1
f 48/1/1 43/1/1 47/1/1
f 49/1/1 45/1/1 44/1/1
f 49/2/1 44/2/1 48/2/1
f 50/1/1 31/1/1 45/1/1
f 50/1/1 45/1/1 49/1/1
f 58/3/1 52/3/1 51/3/1
f 59/3/1 52/3/1 58/3/1
f 60/3/1 57/3/1 56/3/1
f 61/3/1 57/3/1 60/3/1
f 64/3/1 54/3/1 53/3/1
f 65/4/1 55/4/1 54/4/1
f 65/3/1 54/3/1 64/3/1
f 66/4/1 55/4/1 65/4/1
f 67/3/1 60/3/1 56/3/1
f 68/3/1 60/3/1 67/3/1
f 69/4/1 61/4/1 60/4/1
f 69/3/1 60/3/1 68/3/1
f 70/4/1 61/4/1 69/4/1
f 71/3/1 63/3/1 62/3/1
f 72/4/1 64/4/1 63/4/1
f 72/3/1 63/3/1 71/3/1
f 73/3/1 66/3/1 65/3/1
f 73/4/1 64/4/1 72/4/1
f 73/3/1 65/3/1 64/3/1
f 74/3/1 66/3/1 73/3/1
f 75/3/1 66/3/1 74/3/1
f 81/3/1 80/3/1 79/3/1
f 82/3/1 80/3/1 81/3/1
f 83/3/1 80/3/1 82/3/1
f 84/3/1 80/3/1 83/3/1
f 85/3/1 78/3/1 77/3/1
f 85/4/1 77/4/1 76/4/1
f 86/3/1 78/3/1 85/3/1
f 87/4/1 82/4/1 81/4/1
f 88/3/1 83/3/1 82/3/1
f 88/4/1 82/4/1 87/4/1
f 89/4/1 84/4/1 83/4/1
f 90/3/1 76/3/1 75/3/1
f 91/4/1 85/4/1 76/4/1
f 91/3/1 76/3/1 90/3/1
f 92/4/1 85/4/1 91/4/1
f 95/3/1 88/3/1 87/3/1
f 96/3/1 83/3/1 88/3/1
f 96/3/1 88/3/1 95/3/1
f 97/4/1 89/4/1 83/4/1
f 97/3/1 83/3/1 96/3/1
f 98/4/1 89/4/1 97/4/1
f 99/3/1 91/3/1 90/3/1
f 99/3/1 92/3/1 91/3/1
f 100/3/1 92/3/1 99/3/1
f 101/3/1 94/3/1 93/3/1
f 102/3/1 94/3/1 101/3/1
f 103/4/2 104/4/2 111/4/2
f 104/3/2 105/3/2 112/3/2
f 111/4/2 104/4/2 112/4/2
f 109/3/2 110/3/2 113/3/2
f 113/3/2 110/3/2 114/3/2
f 105/4/2 106/4/2 115/4/2
f 107/3/2 108/3/2 116/3/2
f 116/3/2 108/3/2 117/3/2
f 117/3/2 108/3/2 118/3/2
f 111/3/2 112/3/2 120/3/2
f 112/3/2 105/3/2 121/3/2
f 120/3/2 112/3/2 121/3/2
f 105/4/2 115/4/2 122/4/2
f 121/3/2 105/3/2 122/3/2
f 122/4/2 115/4/2 123/4/2
f 118/3/2 119/3/2 124/3/2
f 116/3/2 117/3/2 128/3/2
f 117/4/2 118/4/2 129/4/2
f 128/3/2 117/3/2 129/3/2
f 118/3/2 124/3/2 130/3/2
f 129/4/2 118/4/2 130/4/2
f 130/3/2 124/3/2 131/3/2
f 131/3/2 124/3/2 132/3/2
f 126/3/2 127/3/2 133/3/2
f 127/3/2 128/3/2 133/3/2
f 125/3/2 126/3/2 133/3/2
f 133/3/2 128/3/2 134/3/2
f 133/4/2 134/4/2 139/4/2
f 134/3/2 128/3/2 140/3/2
f 139/4/2 134/4/2 140/4/2
f 140/3/2 128/3/2 141/3/2
f 141/3/2 128/3/2 144/3/2
f 135/3/2 136/3/2 145/3/2
f 136/4/2 137/4/2 146/4/2
f 145/3/2 136/3/2 146/3/2
f 137/3/2 138/3/2 147/3/2
f 146/4/2 137/4/2 147/4/2
f 147/3/2 138/3/2 148/3/2
f 142/3/2 143/3/2 149/3/2
f 149/3/2 143/3/2 150/3/2
f 141/3/2 144/3/2 151/3/2
f 151/3/2 144/3/2 152/3/2
f 145/3/2 146/3/2 153/3/2
f 146/3/2 147/3/2 153/3/2
f 147/3/2 148/3/2 153/3/2
f 153/3/2 148/3/2 154/3/2
f 155/2/2 156/2/2 160/2/2
f 156/1/2 157/1/2 160/1/2
f 157/2/2 158/2/2 161/2/2
f 160/1/2 157/1/2 161/1/2
f 158/1/2 159/1/2 162/1/2
f 161/2/2 158/2/2 162/2/2
f 162/1/2 159/1/2 163/1/2
f 163/1/2 159/1/2 164/1/2
f 164/1/2 159/1/2 165/1/2
f 165/1/2 159/1/2 166/1/2
f 166/1/2 159/1/2 167/1/2
f 155/2/2 160/2/2 168/2/2
f 168/2/2 160/2/2 169/2/2
f 164/1/2 165/1/2 170/1/2
f 166/2/2 167/2/2 171/2/2
f 162/2/2 163/2/2 172/2/2
f 172/2/2 163/2/2 173/2/2
f 164/1/2 170/1/2 174/1/2
f 170/1/2 171/1/2 174/1/2
f 171/2/2 167/2/2 175/2/2
f 174/1/2 171/1/2 175/1/2
f 168/1/2 169/1/2 176/1/2
f 172/1/2 173/1/2 179/1/2
f 175/2/2 167/2/2 180/2/2
f 180/2/2 167/2/2 181/2/2
f 168/1/2 176/1/2 182/1/2
f 176/1/2 177/1/2 182/1/2
f 177/2/2 178/2/2 183/2/2
f 182/1/2 177/1/2 183/1/2
f 178/1/2 179/1/2 184/1/2
f 183/2/2 178/2/2 184/2/2
f 179/1/2 173/1/2 185/1/2
f 184/1/2 179/1/2 185/1/2
f 180/1/2 181/1/2 188/1/2
f 186/1/2 187/1/2 189/1/2
f 185/2/2 186/2/2 189/2/2
f 187/2/2 188/2/2 190/2/2
f 189/1/2 187/1/2 190/1/2
f 188/1/2 181/1/2 191/1/2
f 190/2/2 188/2/2 191/2/2
f 168/1/2 182/1/2 192/1/2
f 168/1/2 192/1/2 195/1/2
f 192/1/2 193/1/2 195/1/2
f 193/2/2 194/2/2 196/2/2
f 195/1/2 193/1/2 196/1/2
f 185/2/2 189/2/2 197/2/2
f 197/2/2 189/2/2 198/2/2
f 191/1/2 181/1/2 199/1/2
f 199/1/2 181/1/2 200/1/2
f 168/1/2 195/1/2 201/1/2
f 196/2/2 194/2/2 202/2/2
f 202/2/2 194/2/2 203/2/2
f 197/1/2 198/1/2 204/1/2
f 204/1/2 198/1/2 205/1/2
f 199/2/2 200/2/2 206/2/2
f 168/1/2 201/1/2 207/1/2
f 201/1/2 202/1/2 207/1/2
f 202/2/2 203/2/2 208/2/2
f 207/1/2 202/1/2 208/1/2
f 205/1/2 206/1/2 209/1/2
f 208/2/2 203/2/2 209/2/2
f 204/1/2 205/1/2 209/1/2
f 203/1/2 204/1/2 209/1/2
f 206/2/2 200/2/2 210/2/2
f 209/1/2 206/1/2 210/1/2
f 210/2/2 200/2/2 211/2/2
f 217/1/3 213/1/3 212/1/3
f 217/2/3 214/2/3 213/2/3
f 218/1/3 215/1/3 214/1/3
f 218/2/3 214/2/3 217/2/3
f 219/2/3 216/2/3 215/2/3
f 219/1/3 215/1/3 218/1/3
f 220/2/3 216/2/3 219/2/3
f 221/1/3 218/1/3 217/1/3
f 221/1/3 217/1/3 212/1/3
f 221/1/3 220/1/3 219/1/3
f 221/1/3 219/1/3 218/1/3
f 222/1/3 220/1/3 221/1/3
f 223/2/3 222/2/3 221/2/3
f 224/1/3 220/1/3 222/1/3
f 224/2/3 222/2/3 223/2/3
f 225/1/3 220/1/3 224/1/3
f 228/1/3 227/1/3 226/1/3
f 229/1/3 227/1/3 228/1/3
f 232/2/3 231/2/3 230/2/3
f 233/2/3 231/2/3 232/2/3
f 237/2/3 235/2/3 234/2/3
f 238/2/3 235/2/3 237/2/3
f 239/1/3 236/1/3 235/1/3
f 239/2/3 235/2/3 238/2/3
f 240/1/3 236/1/3 239/1/3
f 244/2/3 242/2/3 241/2/3
f 245/1/3 243/1/3 242/1/3
f 245/2/3 242/2/3 244/2/3
f 246/1/3 243/1/3 245/1/3
f 250/2/3 248/2/3 247/2/3
f 251/1/3 249/1/3 248/1/3
f 251/2/3 248/2/3 250/2/3
f 252/1/3 249/1/3 251/1/3
f 256/2/3 254/2/3 253/2/3
f 257/1/3 255/1/3 254/1/3
f 257/2/3 254/2/3 256/2/3
f 258/1/3 255/1/3 257/1/3
f 262/1/3 260/1/3 259/1/3
f 263/2/3 261/2/3 260/2/3
f 263/1/3 260/1/3 262/1/3
f 264/2/3 261/2/3 263/2/3
f 267/1/3 266/1/3 265/1/3
f 268/1/3 266/1/3 267/1/3
f 276/2/3 270/2/3 269/2/3
f 277/1/3 271/1/3 270/1/3
f 277/2/3 270/2/3 276/2/3
f 278/1/3 271/1/3 277/1/3
f 279/2/3 273/2/3 272/2/3
f 280/2/3 273/2/3 279/2/3
f 281/1/3 275/1/3 274/1/3
f 282/1/3 275/1/3 281/1/3
f 291/2/3 284/2/3 283/2/3
f 292/2/3 284/2/3 291/2/3
f 293/2/3 286/2/3 285/2/3
f 294/1/3 287/1/3 286/1/3
f 294/2/3 286/2/3 293/2/3
f 295/1/3 287/1/3 294/1/3
f 296/1/3 289/1/3 288/1/3
f 297/2/3 290/2/3 289/2/3
f 297/1/3 289/1/3 296/1/3
f 298/2/3 290/2/3 297/2/3
f 299/1/4 300/1/4 306/1/4
f 306/1/4 300/1/4 307/1/4
f 301/2/4 302/2/4 308/2/4
f 308/2/4 302/2/4 309/2/4
f 303/1/4 304/1/4 310/1/4
f 310/1/4 304/1/4 311/1/4
f 304/2/4 305/2/4 312/2/4
f 311/1/4 304/1/4 312/1/4
f 312/2/4 305/2/4 313/2/4
f 314/2/4 315/2/4 322/2/4
f 315/1/4 316/1/4 323/1/4
f 322/2/4 315/2/4 323/2/4
f 323/1/4 316/1/4 324/1/4
f 317/1/4 318/1/4 325/1/4
f 318/1/4 319/1/4 325/1/4
f 325/1/4 319/1/4 326/1/4
f 320/1/4 321/1/4 327/1/4
f 327/1/4 321/1/4 328/1/4
f 329/1/4 330/1/4 331/1/4
f 331/1/4 330/1/4 332/1/4
f 333/2/4 334/2/4 335/2/4
f 335/2/4 334/2/4 336/2/4
f 337/2/4 338/2/4 340/2/4
f 338/1/4 339/1/4 341/1/4
f 340/2/4 338/2/4 341/2/4
f 341/1/4 339/1/4 342/1/4
f 343/2/4 344/2/4 346/2/4
f 344/1/4 345/1/4 347/1/4
f 346/2/4 344/2/4 347/2/4
f 347/1/4 345/1/4 348/1/4
f 349/2/4 350/2/4 352/2/4
f 350/1/4 351/1/4 353/1/4
f 352/2/4 350/2/4 353/2/4
f 353/1/4 351/1/4 354/1/4
f 355/2/4 356/2/4 358/2/4
f 356/1/4 357/1/4 359/1/4
f 358/2/4 356/2/4 359/2/4
f 359/1/4 357/1/4 360/1/4
f 361/2/4 362/2/4 363/2/4
f 363/2/4 362/2/4 364/2/4
f 365/1/4 366/1/4 367/1/4
f 367/1/4 366/1/4 368/1/4
f 369/2/4 370/2/4 374/2/4
f 370/1/4 371/1/4 375/1/4
f 374/2/4 370/2/4 375/2/4
f 371/2/4 372/2/4 376/2/4
f 375/1/4 371/1/4 376/1/4
f 372/1/4 373/1/4 377/1/4
f 376/2/4 372/2/4 377/2/4
f 375/1/4 376/1/4 378/1/4
f 374/1/4 375/1/4 378/1/4
f 376/1/4 377/1/4 378/1/4
f 378/1/4 377/1/4 379/1/4
f 377/1/4 373/1/4 380/1/4
f 379/1/4 377/1/4 380/1/4
f 380/1/4 373/1/4 381/1/4
f 374/1/4 378/1/4 382/1/4
f 378/2/4 379/2/4 383/2/4
f 382/1/4 378/1/4 383/1/4
f 379/1/4 380/1/4 384/1/4
f 383/2/4 379/2/4 384/2/4
f 380/2/4 381/2/4 385/2/4
f 384/1/4 380/1/4 385/1/4
f 385/2/4 381/2/4 386/2/4
f 390/1/5 388/1/5 387/1/5
f 390/2/5 389/2/5 388/2/5
f 391/2/5 389/2/5 390/2/5
f 392/1/5 390/1/5 387/1/5
f 392/1/5 391/1/5 390/1/5
f 393/1/5 391/1/5 392/1/5
f 394/1/5 392/1/5 387/1/5
f 394/2/5 393/2/5 392/2/5
f 395/2/5 393/2/5 394/2/5
f 396/1/5 394/1/5 387/1/5
f 396/1/5 395/1/5 394/1/5
f 397/1/5 395/1/5 396/1/5
f 398/2/5 397/2/5 396/2/5
f 399/1/5 395/1/5 397/1/5
f 399/2/5 397/2/5 398/2/5
f 400/1/5 395/1/5 399/1/5
f 403/1/5 402/1/5 401/1/5
f 404/1/5 402/1/5 403/1/5
f 407/1/5 406/1/5 405/1/5
f 408/1/5 406/1/5 407/1/5
f 411/1/5 410/1/5 409/1/5
f 412/1/5 410/1/5 411/1/5
f 413/2/5 412/2/5 411/2/5
f 414/2/5 412/2/5 413/2/5
f 415/1/5 414/1/5 413/1/5
f 416/1/5 414/1/5 415/1/5
f 419/1/5 418/1/5 417/1/5
f 420/1/5 419/1/5 417/1/5
f 421/1/5 419/1/5 420/1/5
f 424/1/5 423/1/5 422/1/5
f 425/1/5 424/1/5 422/1/5
f 426/1/5 425/1/5 422/1/5
f 427/1/5 425/1/5 426/1/5
f 428/2/5 427/2/5 426/2/5
f 429/2/5 427/2/5 428/2/5
f 432/2/5 431/2/5 430/2/5
f 433/2/5 431/2/5 432/2/5
f 434/1/5 433/1/5 432/1/5
f 435/1/5 433/1/5 434/1/5
f 436/1/5 433/1/5 435/1/5
f 437/2/5 436/2/5 435/2/5
f 438/2/5 436/2/5 437/2/5
f 441/1/5 440/1/5 439/1/5
f 442/1/5 440/1/5 441/1/5
f 443/2/5 442/2/5 441/2/5
f 444/2/5 442/2/5 443/2/5
f 447/1/5 446/1/5 445/1/5
f 448/1/5 446/1/5 447/1/5
f 453/2/5 450/2/5 449/2/5
f 454/2/5 450/2/5 453/2/5
f 455/1/5 452/1/5 451/1/5
f 456/1/5 452/1/5 455/1/5
f 457/1/5 454/1/5 453/1/5
f 460/1/5 457/1/5 453/1/5
f 461/1/5 457/1/5 460/1/5
f 464/1/5 459/1/5 458/1/5
f 465/1/5 459/1/5 464/1/5
f 468/1/5 463/1/5 462/1/5
f 469/1/5 463/1/5 468/1/5
f 472/1/5 471/1/5 470/1/5
f 473/1/5 471/1/5 472/1/5
f 474/1/5 467/1/5 466/1/5
f 475/1/5 467/1/5 474/1/5
f 476/1/6 477/1/6 480/1/6
f 480/1/6 477/1/6 481/1/6
f 478/1/6 479/1/6 482/1/6
f 482/1/6 479/1/6 485/1/6
f 485/1/6 479/1/6 486/1/6
f 483/1/6 484/1/6 487/1/6
f 485/2/6 486/2/6 488/2/6
f 488/2/6 486/2/6 489/2/6
f 483/1/6 487/1/6 490/1/6
f 490/1/6 487/1/6 491/1/6
f 492/1/6 493/1/6 496/1/6
f 496/1/6 493/1/6 497/1/6
f 494/1/6 495/1/6 500/1/6
f 500/1/6 495/1/6 501/1/6
f 498/1/6 499/1/6 502/1/6
f 502/1/6 499/1/6 503/1/6
f 504/1/6 505/1/6 506/1/6
f 504/1/6 506/1/6 507/1/6
f 507/1/6 506/1/6 508/1/6
f 509/1/6 510/1/6 511/1/6
f 511/1/6 510/1/6 512/1/6
f 513/1/6 514/1/6 515/1/6
f 515/1/6 514/1/6 516/1/6
f 515/2/6 516/2/6 517/2/6
f 517/2/6 516/2/6 518/2/6
f 517/1/6 518/1/6 521/1/6
f 521/1/6 518/1/6 522/1/6
f 519/1/6 520/1/6 523/1/6
f 519/1/6 523/1/6 524/1/6
f 519/1/6 524/1/6 525/1/6
f 525/1/6 524/1/6 526/1/6
f 527/1/6 528/1/6 529/1/6
f 529/1/6 528/1/6 530/1/6
f 531/1/6 532/1/6 533/1/6
f 533/1/6 532/1/6 534/1/6
f 534/1/6 532/1/6 535/1/6
f 534/2/6 535/2/6 536/2/6
f 536/2/6 535/2/6 537/2/6
f 538/1/6 539/1/6 540/1/6
f 540/1/6 539/1/6 541/1/6
f 542/1/6 543/1/6 544/1/6
f 544/1/6 543/1/6 545/1/6
f 546/2/6 547/2/6 549/2/6
f 547/1/6 548/1/6 550/1/6
f 549/2/6 547/2/6 550/2/6
f 550/1/6 548/1/6 551/1/6
f 551/1/6 548/1/6 552/1/6
f 549/1/6 550/1/6 553/1/6
f 550/1/6 551/1/6 553/1/6
f 551/2/6 552/2/6 553/2/6
f 553/2/6 552/2/6 554/2/6
f 549/1/6 553/1/6 555/1/6
f 553/1/6 554/1/6 555/1/6
f 555/1/6 554/1/6 556/1/6
f 555/2/6 556/2/6 557/2/6
f 556/1/6 554/1/6 558/1/6
f 557/2/6 556/2/6 558/2/6
f 557/1/6 558/1/6 559/1/6
f 558/1/6 554/1/6 559/1/6
f 559/1/6 554/1/6 560/1/6
f 557/1/6 559/1/6 561/1/6
f 559/2/6 560/2/6 562/2/6
f 561/1/6 559/1/6 562/1/6
f 562/2/6 560/2/6 563/2/6
