# MagicaVoxel @ Ephtracy

# group
g BackGround_Snow_Box-2

# material
mtllib BackGround_Snow_Box-2.mtl
usemtl palette

# normals
vn -1 0 0
vn 1 0 0
vn 0 0 1
vn 0 0 -1
vn 0 -1 0
vn 0 1 0

# texcoords
vt 0.236328 0.5
vt 0.291016 0.5
vt 0.302734 0.5
vt 0.306641 0.5

# verts
v -5 -5 5
v -5 -5 -5
v -5 -4 -4
v -5 -4 -5
v -5 -3 5
v -5 -3 4
v -5 -3 -4
v -5 -3 -5
v -5 -1 5
v -5 -1 4
v -5 -1 3
v -5 -1 -3
v -5 -1 -4
v -5 -1 -5
v -5 0 4
v -5 0 3
v -5 0 -3
v -5 0 -4
v -5 2 5
v -5 2 4
v -5 2 3
v -5 2 -3
v -5 2 -4
v -5 2 -5
v -5 4 5
v -5 4 4
v -5 4 -4
v -5 4 -5
v -5 5 5
v -5 5 4
v -5 5 -4
v -5 5 -5
v -3 -3 5
v -3 -3 4
v -3 -3 -4
v -3 -3 -5
v -3 -2 4
v -3 -1 5
v -3 -1 4
v -3 -1 -4
v -3 -1 -5
v -3 1 5
v -3 1 4
v -3 1 -4
v -3 1 -5
v -3 2 -4
v -3 3 5
v -3 3 4
v -3 3 -4
v -3 3 -5
v -2 -4 5
v -2 -4 4
v -2 -4 -4
v -2 -4 -5
v -2 -3 5
v -2 -3 4
v -2 -3 -4
v -2 -3 -5
v -2 -1 5
v -2 -1 4
v -2 -1 -4
v -2 -1 -5
v -2 0 5
v -2 0 4
v -2 0 -4
v -2 0 -5
v -2 3 5
v -2 3 4
v -2 3 -4
v -2 3 -5
v -2 4 5
v -2 4 4
v -2 4 -4
v -2 4 -5
v -1 -2 5
v -1 -2 4
v -1 -2 -4
v -1 -2 -5
v -1 -1 5
v -1 -1 4
v -1 -1 -4
v -1 -1 -5
v 1 -3 5
v 1 -3 4
v 1 -3 -4
v 1 -3 -5
v 1 -2 5
v 1 -2 4
v 1 -2 -4
v 1 -2 -5
v 1 1 5
v 1 1 4
v 1 1 -4
v 1 1 -5
v 1 2 4
v 1 3 5
v 1 3 4
v 1 3 -4
v 1 3 -5
v 2 -2 5
v 2 -2 4
v 2 -2 -4
v 2 -2 -5
v 2 -1 5
v 2 -1 4
v 2 -1 -4
v 2 -1 -5
v 3 -4 5
v 3 -4 4
v 3 -4 -4
v 3 -4 -5
v 3 -3 5
v 3 -3 4
v 3 -3 -4
v 3 -3 -5
v 3 3 5
v 3 3 4
v 3 3 -4
v 3 3 -5
v 3 4 5
v 3 4 4
v 3 4 -4
v 3 4 -5
v 4 -3 5
v 4 -3 4
v 4 -3 -4
v 4 -3 -5
v 4 -2 -4
v 4 -1 5
v 4 -1 4
v 4 -1 -4
v 4 -1 -5
v 4 2 5
v 4 2 4
v 4 2 -4
v 4 2 -5
v 4 3 5
v 4 3 4
v 4 3 -4
v 4 3 -5
v -4 -3 5
v -4 -3 4
v -4 -3 -4
v -4 -3 -5
v -4 -2 4
v -4 -1 5
v -4 -1 4
v -4 -1 -4
v -4 -1 -5
v -4 2 5
v -4 2 4
v -4 2 -4
v -4 2 -5
v -4 3 5
v -4 3 4
v -4 3 -4
v -4 3 -5
v -3 -4 5
v -3 -4 4
v -3 -4 -4
v -3 -4 -5
v -3 -3 5
v -3 -3 4
v -3 -3 -4
v -3 -3 -5
v -3 3 5
v -3 3 4
v -3 3 -4
v -3 3 -5
v -3 4 5
v -3 4 4
v -3 4 -4
v -3 4 -5
v -2 -2 5
v -2 -2 4
v -2 -2 -4
v -2 -2 -5
v -2 -1 5
v -2 -1 4
v -2 -1 -4
v -2 -1 -5
v -1 -3 5
v -1 -3 4
v -1 -3 -4
v -1 -3 -5
v -1 -2 5
v -1 -2 4
v -1 -2 -4
v -1 -2 -5
v -1 1 5
v -1 1 4
v -1 1 -4
v -1 1 -5
v -1 3 5
v -1 3 4
v -1 3 -4
v -1 3 -5
v 1 -2 5
v 1 -2 4
v 1 -2 -4
v 1 -2 -5
v 1 -1 5
v 1 -1 4
v 1 -1 -4
v 1 -1 -5
v 2 -4 5
v 2 -4 4
v 2 -4 -4
v 2 -4 -5
v 2 -3 5
v 2 -3 4
v 2 -3 -4
v 2 -3 -5
v 2 -1 5
v 2 -1 4
v 2 -1 -4
v 2 -1 -5
v 2 0 5
v 2 0 4
v 2 0 -4
v 2 0 -5
v 2 3 5
v 2 3 4
v 2 3 -4
v 2 3 -5
v 2 4 5
v 2 4 4
v 2 4 -4
v 2 4 -5
v 3 -3 5
v 3 -3 4
v 3 -3 -4
v 3 -3 -5
v 3 -2 -4
v 3 -1 5
v 3 -1 4
v 3 -1 -4
v 3 -1 -5
v 3 1 5
v 3 1 4
v 3 1 -4
v 3 1 -5
v 3 2 5
v 3 2 4
v 3 3 5
v 3 3 4
v 3 3 -4
v 3 3 -5
v 5 -5 5
v 5 -5 -4
v 5 -5 -5
v 5 -3 -4
v 5 -3 -5
v 5 -1 5
v 5 -1 4
v 5 -1 3
v 5 -1 -3
v 5 -1 -4
v 5 -1 -5
v 5 1 -3
v 5 1 -4
v 5 2 5
v 5 2 4
v 5 2 3
v 5 2 -3
v 5 2 -4
v 5 2 -5
v 5 3 -4
v 5 3 -5
v 5 4 5
v 5 4 4
v 5 5 5
v 5 5 4
v 5 5 -4
v 5 5 -5
v -5 -5 5
v -5 -3 5
v -5 -1 5
v -5 2 5
v -5 4 5
v -5 5 5
v -4 -5 5
v -4 -3 5
v -4 -1 5
v -4 2 5
v -4 3 5
v -4 4 5
v -4 5 5
v -3 -5 5
v -3 -4 5
v -3 -3 5
v -3 -1 5
v -3 1 5
v -3 3 5
v -3 4 5
v -2 -4 5
v -2 -3 5
v -2 -2 5
v -2 -1 5
v -2 0 5
v -2 1 5
v -2 3 5
v -2 4 5
v -1 -3 5
v -1 -2 5
v -1 -1 5
v -1 1 5
v -1 3 5
v -1 4 5
v 0 3 5
v 0 5 5
v 1 -5 5
v 1 -3 5
v 1 -2 5
v 1 -1 5
v 1 1 5
v 1 3 5
v 1 5 5
v 2 -5 5
v 2 -4 5
v 2 -3 5
v 2 -2 5
v 2 -1 5
v 2 0 5
v 2 1 5
v 2 2 5
v 2 3 5
v 2 4 5
v 3 -4 5
v 3 -3 5
v 3 -1 5
v 3 1 5
v 3 2 5
v 3 3 5
v 3 4 5
v 4 -4 5
v 4 -3 5
v 4 -1 5
v 4 2 5
v 4 3 5
v 4 4 5
v 4 5 5
v 5 -5 5
v 5 -1 5
v 5 2 5
v 5 4 5
v 5 5 5
v -5 -1 4
v -5 0 4
v -5 2 4
v -4 -3 4
v -4 -2 4
v -4 -1 4
v -4 0 4
v -4 2 4
v -4 3 4
v -3 -4 4
v -3 -3 4
v -3 -2 4
v -3 -1 4
v -3 0 4
v -3 1 4
v -3 3 4
v -3 4 4
v -2 -4 4
v -2 -3 4
v -2 -2 4
v -2 -1 4
v -2 0 4
v -2 1 4
v -2 3 4
v -2 4 4
v -1 -3 4
v -1 -2 4
v -1 -1 4
v -1 1 4
v -1 3 4
v 0 -3 4
v 0 -2 4
v 0 0 4
v 0 2 4
v 0 3 4
v 1 -3 4
v 1 -2 4
v 1 -1 4
v 1 0 4
v 1 1 4
v 1 2 4
v 1 3 4
v 2 -4 4
v 2 -3 4
v 2 -2 4
v 2 -1 4
v 2 0 4
v 2 1 4
v 2 3 4
v 2 4 4
v 3 -4 4
v 3 -3 4
v 3 -1 4
v 3 1 4
v 3 2 4
v 3 3 4
v 3 4 4
v 4 -3 4
v 4 -1 4
v 4 1 4
v 4 2 4
v 4 3 4
v 5 -1 4
v 5 2 4
v -5 -1 -4
v -5 0 -4
v -5 2 -4
v -4 -3 -4
v -4 -1 -4
v -4 0 -4
v -4 2 -4
v -4 3 -4
v -3 -4 -4
v -3 -3 -4
v -3 -1 -4
v -3 0 -4
v -3 1 -4
v -3 2 -4
v -3 3 -4
v -3 4 -4
v -2 -4 -4
v -2 -3 -4
v -2 -2 -4
v -2 -1 -4
v -2 0 -4
v -2 3 -4
v -2 4 -4
v -1 -3 -4
v -1 -2 -4
v -1 -1 -4
v -1 1 -4
v -1 3 -4
v 0 -3 -4
v 0 3 -4
v 1 -3 -4
v 1 -2 -4
v 1 -1 -4
v 1 1 -4
v 1 3 -4
v 2 -4 -4
v 2 -3 -4
v 2 -2 -4
v 2 -1 -4
v 2 0 -4
v 2 1 -4
v 2 3 -4
v 2 4 -4
v 3 -4 -4
v 3 -3 -4
v 3 -2 -4
v 3 -1 -4
v 3 1 -4
v 3 3 -4
v 3 4 -4
v 4 -3 -4
v 4 -2 -4
v 4 -1 -4
v 4 1 -4
v 4 2 -4
v 4 3 -4
v 5 -1 -4
v 5 1 -4
v 5 2 -4
v -5 -5 -5
v -5 -4 -5
v -5 -3 -5
v -5 -1 -5
v -5 2 -5
v -5 4 -5
v -5 5 -5
v -4 -4 -5
v -4 -3 -5
v -4 -1 -5
v -4 2 -5
v -4 3 -5
v -4 4 -5
v -4 5 -5
v -3 -5 -5
v -3 -4 -5
v -3 -3 -5
v -3 -1 -5
v -3 1 -5
v -3 3 -5
v -3 4 -5
v -2 -5 -5
v -2 -4 -5
v -2 -3 -5
v -2 -2 -5
v -2 -1 -5
v -2 0 -5
v -2 3 -5
v -2 4 -5
v -1 -5 -5
v -1 -3 -5
v -1 -2 -5
v -1 -1 -5
v -1 1 -5
v -1 3 -5
v -1 5 -5
v 0 -5 -5
v 0 -3 -5
v 0 3 -5
v 0 5 -5
v 1 -3 -5
v 1 -2 -5
v 1 -1 -5
v 1 1 -5
v 1 3 -5
v 1 4 -5
v 2 -4 -5
v 2 -3 -5
v 2 -2 -5
v 2 -1 -5
v 2 0 -5
v 2 1 -5
v 2 3 -5
v 2 4 -5
v 3 -4 -5
v 3 -3 -5
v 3 -1 -5
v 3 1 -5
v 3 3 -5
v 3 4 -5
v 4 -5 -5
v 4 -3 -5
v 4 -1 -5
v 4 2 -5
v 4 3 -5
v 4 5 -5
v 5 -5 -5
v 5 -3 -5
v 5 -1 -5
v 5 2 -5
v 5 3 -5
v 5 5 -5
v -5 -5 5
v -4 -5 5
v -3 -5 5
v 1 -5 5
v 2 -5 5
v 5 -5 5
v -4 -5 4
v -3 -5 4
v 1 -5 4
v 2 -5 4
v -3 -5 -4
v -2 -5 -4
v -1 -5 -4
v 0 -5 -4
v 4 -5 -4
v 5 -5 -4
v -5 -5 -5
v -3 -5 -5
v -2 -5 -5
v -1 -5 -5
v 0 -5 -5
v 4 -5 -5
v 5 -5 -5
v -3 -3 5
v -2 -3 5
v 2 -3 5
v 3 -3 5
v -3 -3 4
v -2 -3 4
v 2 -3 4
v 3 -3 4
v -3 -3 -4
v -2 -3 -4
v 2 -3 -4
v 3 -3 -4
v -3 -3 -5
v -2 -3 -5
v 2 -3 -5
v 3 -3 -5
v -1 -2 5
v 1 -2 5
v -1 -2 4
v 0 -2 4
v 1 -2 4
v -1 -2 -4
v 1 -2 -4
v -1 -2 -5
v 1 -2 -5
v -2 -1 5
v -1 -1 5
v 1 -1 5
v 2 -1 5
v -2 -1 4
v -1 -1 4
v 1 -1 4
v 2 -1 4
v -2 -1 -4
v -1 -1 -4
v 1 -1 -4
v 2 -1 -4
v -2 -1 -5
v -1 -1 -5
v 1 -1 -5
v 2 -1 -5
v -3 1 5
v -2 1 5
v -1 1 5
v 1 1 5
v 2 1 5
v 3 1 5
v -3 1 4
v -2 1 4
v -1 1 4
v 1 1 4
v 2 1 4
v 3 1 4
v -3 1 -4
v -1 1 -4
v 1 1 -4
v 2 1 -4
v 3 1 -4
v -3 1 -5
v -1 1 -5
v 1 1 -5
v 2 1 -5
v 3 1 -5
v -5 2 5
v -4 2 5
v 4 2 5
v 5 2 5
v -5 2 4
v -4 2 4
v 4 2 4
v 5 2 4
v -5 2 -4
v -4 2 -4
v 4 2 -4
v 5 2 -4
v -5 2 -5
v -4 2 -5
v 4 2 -5
v 5 2 -5
v -4 3 5
v -3 3 5
v -1 3 5
v 0 3 5
v 1 3 5
v 3 3 5
v 4 3 5
v -4 3 4
v -3 3 4
v -1 3 4
v 0 3 4
v 1 3 4
v 3 3 4
v 4 3 4
v -4 3 -4
v -3 3 -4
v -1 3 -4
v 0 3 -4
v 1 3 -4
v 3 3 -4
v 4 3 -4
v -4 3 -5
v -3 3 -5
v -1 3 -5
v 0 3 -5
v 1 3 -5
v 3 3 -5
v 4 3 -5
v -3 4 5
v -2 4 5
v 2 4 5
v 3 4 5
v -3 4 4
v -2 4 4
v 2 4 4
v 3 4 4
v -3 4 -4
v -2 4 -4
v 2 4 -4
v 3 4 -4
v -3 4 -5
v -2 4 -5
v 2 4 -5
v 3 4 -5
v -3 -4 5
v -2 -4 5
v 2 -4 5
v 3 -4 5
v -3 -4 4
v -2 -4 4
v 2 -4 4
v 3 -4 4
v -3 -4 -4
v -2 -4 -4
v 2 -4 -4
v 3 -4 -4
v -3 -4 -5
v -2 -4 -5
v 2 -4 -5
v 3 -4 -5
v -4 -3 5
v -3 -3 5
v -1 -3 5
v 1 -3 5
v 3 -3 5
v 4 -3 5
v -4 -3 4
v -3 -3 4
v -1 -3 4
v 0 -3 4
v 1 -3 4
v 3 -3 4
v 4 -3 4
v -4 -3 -4
v -3 -3 -4
v -1 -3 -4
v 0 -3 -4
v 1 -3 -4
v 3 -3 -4
v 4 -3 -4
v -4 -3 -5
v -3 -3 -5
v -1 -3 -5
v 0 -3 -5
v 1 -3 -5
v 3 -3 -5
v 4 -3 -5
v -2 -2 5
v -1 -2 5
v 1 -2 5
v 2 -2 5
v -2 -2 4
v -1 -2 4
v 1 -2 4
v 2 -2 4
v -2 -2 -4
v -1 -2 -4
v 1 -2 -4
v 2 -2 -4
v -2 -2 -5
v -1 -2 -5
v 1 -2 -5
v 2 -2 -5
v -5 -1 5
v -4 -1 5
v -3 -1 5
v -2 -1 5
v 2 -1 5
v 3 -1 5
v 4 -1 5
v 5 -1 5
v -5 -1 4
v -4 -1 4
v -3 -1 4
v -2 -1 4
v 2 -1 4
v 3 -1 4
v 4 -1 4
v 5 -1 4
v -5 -1 -4
v -4 -1 -4
v -3 -1 -4
v -2 -1 -4
v 2 -1 -4
v 3 -1 -4
v 4 -1 -4
v 5 -1 -4
v -5 -1 -5
v -4 -1 -5
v -3 -1 -5
v -2 -1 -5
v 2 -1 -5
v 3 -1 -5
v 4 -1 -5
v 5 -1 -5
v -2 0 5
v 2 0 5
v -2 0 4
v 0 0 4
v 1 0 4
v 2 0 4
v -2 0 -4
v 2 0 -4
v -2 0 -5
v 2 0 -5
v -3 3 5
v -2 3 5
v 2 3 5
v 3 3 5
v -3 3 4
v -2 3 4
v 2 3 4
v 3 3 4
v -3 3 -4
v -2 3 -4
v 2 3 -4
v 3 3 -4
v -3 3 -5
v -2 3 -5
v 2 3 -5
v 3 3 -5
v -5 5 5
v -4 5 5
v 0 5 5
v 1 5 5
v 4 5 5
v 5 5 5
v -5 5 4
v -4 5 4
v 0 5 4
v 1 5 4
v 4 5 4
v 5 5 4
v -5 5 -4
v -4 5 -4
v -1 5 -4
v 0 5 -4
v 4 5 -4
v 5 5 -4
v -5 5 -5
v -4 5 -5
v -1 5 -5
v 0 5 -5
v 4 5 -5
v 5 5 -5

# faces
f 3/1/1 2/1/1 1/1/1
f 4/1/1 2/1/1 3/1/1
f 5/1/1 3/1/1 1/1/1
f 6/1/1 3/1/1 5/1/1
f 7/2/1 4/2/1 3/2/1
f 7/1/1 3/1/1 6/1/1
f 8/2/1 4/2/1 7/2/1
f 9/2/1 6/2/1 5/2/1
f 10/1/1 7/1/1 6/1/1
f 10/2/1 6/2/1 9/2/1
f 10/1/1 8/1/1 7/1/1
f 11/1/1 8/1/1 10/1/1
f 12/1/1 8/1/1 11/1/1
f 13/1/1 8/1/1 12/1/1
f 14/1/1 8/1/1 13/1/1
f 15/3/1 11/3/1 10/3/1
f 16/1/1 12/1/1 11/1/1
f 16/3/1 11/3/1 15/3/1
f 17/4/1 13/4/1 12/4/1
f 17/1/1 12/1/1 16/1/1
f 18/4/1 13/4/1 17/4/1
f 20/4/1 16/4/1 15/4/1
f 21/1/1 17/1/1 16/1/1
f 21/4/1 16/4/1 20/4/1
f 22/3/1 18/3/1 17/3/1
f 22/1/1 17/1/1 21/1/1
f 23/3/1 18/3/1 22/3/1
f 25/1/1 23/1/1 22/1/1
f 25/1/1 24/1/1 23/1/1
f 25/1/1 22/1/1 21/1/1
f 25/1/1 20/1/1 19/1/1
f 25/1/1 21/1/1 20/1/1
f 26/1/1 24/1/1 25/1/1
f 27/1/1 24/1/1 26/1/1
f 28/1/1 24/1/1 27/1/1
f 29/2/1 26/2/1 25/2/1
f 30/1/1 27/1/1 26/1/1
f 30/2/1 26/2/1 29/2/1
f 31/2/1 28/2/1 27/2/1
f 31/1/1 27/1/1 30/1/1
f 32/2/1 28/2/1 31/2/1
f 37/1/1 34/1/1 33/1/1
f 38/1/1 37/1/1 33/1/1
f 39/1/1 37/1/1 38/1/1
f 40/1/1 36/1/1 35/1/1
f 41/1/1 36/1/1 40/1/1
f 46/1/1 45/1/1 44/1/1
f 47/1/1 43/1/1 42/1/1
f 48/1/1 43/1/1 47/1/1
f 49/1/1 45/1/1 46/1/1
f 50/1/1 45/1/1 49/1/1
f 55/1/1 52/1/1 51/1/1
f 56/1/1 52/1/1 55/1/1
f 57/1/1 54/1/1 53/1/1
f 58/1/1 54/1/1 57/1/1
f 63/1/1 60/1/1 59/1/1
f 64/1/1 60/1/1 63/1/1
f 65/1/1 62/1/1 61/1/1
f 66/1/1 62/1/1 65/1/1
f 71/2/1 68/2/1 67/2/1
f 72/2/1 68/2/1 71/2/1
f 73/1/1 70/1/1 69/1/1
f 74/1/1 70/1/1 73/1/1
f 79/1/1 76/1/1 75/1/1
f 80/1/1 76/1/1 79/1/1
f 81/1/1 78/1/1 77/1/1
f 82/1/1 78/1/1 81/1/1
f 87/2/1 84/2/1 83/2/1
f 88/2/1 84/2/1 87/2/1
f 89/1/1 86/1/1 85/1/1
f 90/1/1 86/1/1 89/1/1
f 95/1/1 92/1/1 91/1/1
f 96/1/1 95/1/1 91/1/1
f 97/1/1 95/1/1 96/1/1
f 98/2/1 94/2/1 93/2/1
f 99/2/1 94/2/1 98/2/1
f 104/1/1 101/1/1 100/1/1
f 105/1/1 101/1/1 104/1/1
f 106/1/1 103/1/1 102/1/1
f 107/1/1 103/1/1 106/1/1
f 112/2/1 109/2/1 108/2/1
f 113/2/1 109/2/1 112/2/1
f 114/1/1 111/1/1 110/1/1
f 115/1/1 111/1/1 114/1/1
f 120/1/1 117/1/1 116/1/1
f 121/1/1 117/1/1 120/1/1
f 122/1/1 119/1/1 118/1/1
f 123/1/1 119/1/1 122/1/1
f 128/1/1 127/1/1 126/1/1
f 129/1/1 125/1/1 124/1/1
f 130/1/1 125/1/1 129/1/1
f 131/1/1 127/1/1 128/1/1
f 132/1/1 127/1/1 131/1/1
f 137/1/1 134/1/1 133/1/1
f 138/1/1 134/1/1 137/1/1
f 139/1/1 136/1/1 135/1/1
f 140/1/1 136/1/1 139/1/1
f 141/2/2 142/2/2 145/2/2
f 141/2/2 145/2/2 146/2/2
f 146/2/2 145/2/2 147/2/2
f 143/1/2 144/1/2 148/1/2
f 148/1/2 144/1/2 149/1/2
f 150/1/2 151/1/2 154/1/2
f 154/1/2 151/1/2 155/1/2
f 152/1/2 153/1/2 156/1/2
f 156/1/2 153/1/2 157/1/2
f 158/2/2 159/2/2 162/2/2
f 162/2/2 159/2/2 163/2/2
f 160/1/2 161/1/2 164/1/2
f 164/1/2 161/1/2 165/1/2
f 166/1/2 167/1/2 170/1/2
f 170/1/2 167/1/2 171/1/2
f 168/1/2 169/1/2 172/1/2
f 172/1/2 169/1/2 173/1/2
f 174/1/2 175/1/2 178/1/2
f 178/1/2 175/1/2 179/1/2
f 176/1/2 177/1/2 180/1/2
f 180/1/2 177/1/2 181/1/2
f 182/1/2 183/1/2 186/1/2
f 186/1/2 183/1/2 187/1/2
f 184/1/2 185/1/2 188/1/2
f 188/1/2 185/1/2 189/1/2
f 190/2/2 191/2/2 194/2/2
f 194/2/2 191/2/2 195/2/2
f 192/1/2 193/1/2 196/1/2
f 196/1/2 193/1/2 197/1/2
f 198/1/2 199/1/2 202/1/2
f 202/1/2 199/1/2 203/1/2
f 200/1/2 201/1/2 204/1/2
f 204/1/2 201/1/2 205/1/2
f 206/2/2 207/2/2 210/2/2
f 210/2/2 207/2/2 211/2/2
f 208/1/2 209/1/2 212/1/2
f 212/1/2 209/1/2 213/1/2
f 214/1/2 215/1/2 218/1/2
f 218/1/2 215/1/2 219/1/2
f 216/1/2 217/1/2 220/1/2
f 220/1/2 217/1/2 221/1/2
f 222/1/2 223/1/2 226/1/2
f 226/1/2 223/1/2 227/1/2
f 224/2/2 225/2/2 228/2/2
f 228/2/2 225/2/2 229/2/2
f 232/1/2 233/1/2 234/1/2
f 230/1/2 231/1/2 235/1/2
f 235/1/2 231/1/2 236/1/2
f 234/1/2 233/1/2 237/1/2
f 237/1/2 233/1/2 238/1/2
f 239/2/2 240/2/2 243/2/2
f 243/2/2 240/2/2 244/2/2
f 243/1/2 244/1/2 245/1/2
f 245/1/2 244/1/2 246/1/2
f 241/1/2 242/1/2 247/1/2
f 247/1/2 242/1/2 248/1/2
f 249/1/2 250/1/2 252/1/2
f 250/2/2 251/2/2 252/2/2
f 252/2/2 251/2/2 253/2/2
f 249/1/2 252/1/2 254/1/2
f 252/1/2 253/1/2 254/1/2
f 254/1/2 253/1/2 255/1/2
f 255/1/2 253/1/2 256/1/2
f 256/1/2 253/1/2 257/1/2
f 257/1/2 253/1/2 258/1/2
f 258/1/2 253/1/2 259/1/2
f 256/1/2 257/1/2 260/1/2
f 257/3/2 258/3/2 260/3/2
f 260/3/2 258/3/2 261/3/2
f 255/3/2 256/3/2 263/3/2
f 256/1/2 260/1/2 264/1/2
f 263/3/2 256/3/2 264/3/2
f 260/4/2 261/4/2 265/4/2
f 264/1/2 260/1/2 265/1/2
f 265/4/2 261/4/2 266/4/2
f 265/1/2 266/1/2 268/1/2
f 266/1/2 267/1/2 268/1/2
f 264/1/2 265/1/2 268/1/2
f 262/1/2 263/1/2 268/1/2
f 263/1/2 264/1/2 268/1/2
f 268/1/2 267/1/2 269/1/2
f 262/1/2 268/1/2 270/1/2
f 270/1/2 268/1/2 271/1/2
f 270/2/2 271/2/2 272/2/2
f 271/1/2 268/1/2 273/1/2
f 272/2/2 271/2/2 273/2/2
f 268/2/2 269/2/2 274/2/2
f 273/1/2 268/1/2 274/1/2
f 274/2/2 269/2/2 275/2/2
f 282/1/3 277/1/3 276/1/3
f 283/2/3 278/2/3 277/2/3
f 283/1/3 277/1/3 282/1/3
f 284/2/3 278/2/3 283/2/3
f 285/1/3 280/1/3 279/1/3
f 286/1/3 280/1/3 285/1/3
f 287/2/3 281/2/3 280/2/3
f 287/1/3 280/1/3 286/1/3
f 288/2/3 281/2/3 287/2/3
f 289/2/3 283/2/3 282/2/3
f 290/2/3 283/2/3 289/2/3
f 291/2/3 283/2/3 290/2/3
f 294/1/3 288/1/3 287/1/3
f 294/1/3 287/1/3 286/1/3
f 295/1/3 288/1/3 294/1/3
f 296/1/3 290/1/3 289/1/3
f 297/1/3 292/1/3 291/1/3
f 298/1/3 292/1/3 297/1/3
f 299/1/3 292/1/3 298/1/3
f 301/1/3 294/1/3 293/1/3
f 302/1/3 294/1/3 301/1/3
f 303/1/3 288/1/3 295/1/3
f 304/1/3 297/1/3 296/1/3
f 304/1/3 298/1/3 297/1/3
f 305/1/3 298/1/3 304/1/3
f 306/1/3 300/1/3 299/1/3
f 307/2/3 302/2/3 301/2/3
f 307/2/3 303/2/3 302/2/3
f 308/2/3 303/2/3 307/2/3
f 309/1/3 288/1/3 303/1/3
f 309/2/3 303/2/3 308/2/3
f 310/1/3 309/1/3 308/1/3
f 311/1/3 288/1/3 309/1/3
f 311/1/3 309/1/3 310/1/3
f 312/1/3 296/1/3 289/1/3
f 312/1/3 304/1/3 296/1/3
f 313/1/3 304/1/3 312/1/3
f 314/1/3 306/1/3 305/1/3
f 315/1/3 300/1/3 306/1/3
f 315/1/3 306/1/3 314/1/3
f 317/2/3 311/2/3 310/2/3
f 318/2/3 311/2/3 317/2/3
f 319/2/3 313/2/3 312/2/3
f 319/2/3 314/2/3 313/2/3
f 320/2/3 314/2/3 319/2/3
f 321/2/3 314/2/3 320/2/3
f 322/2/3 314/2/3 321/2/3
f 323/1/3 300/1/3 315/1/3
f 324/1/3 300/1/3 323/1/3
f 325/1/3 318/1/3 317/1/3
f 325/1/3 317/1/3 316/1/3
f 326/1/3 318/1/3 325/1/3
f 327/1/3 318/1/3 326/1/3
f 328/1/3 318/1/3 327/1/3
f 329/1/3 320/1/3 319/1/3
f 330/1/3 322/1/3 321/1/3
f 330/1/3 323/1/3 322/1/3
f 331/1/3 323/1/3 330/1/3
f 332/2/3 326/2/3 325/2/3
f 333/1/3 327/1/3 326/1/3
f 333/2/3 326/2/3 332/2/3
f 334/1/3 327/1/3 333/1/3
f 335/1/3 318/1/3 328/1/3
f 336/1/3 329/1/3 319/1/3
f 336/2/3 330/2/3 329/2/3
f 337/2/3 330/2/3 336/2/3
f 340/1/3 335/1/3 334/1/3
f 341/1/3 318/1/3 335/1/3
f 341/1/3 335/1/3 340/1/3
f 342/1/3 318/1/3 341/1/3
f 343/1/3 338/1/3 337/1/3
f 343/1/3 336/1/3 319/1/3
f 343/1/3 337/1/3 336/1/3
f 344/1/3 338/1/3 343/1/3
f 345/1/3 340/1/3 339/1/3
f 345/1/3 341/1/3 340/1/3
f 346/2/3 342/2/3 341/2/3
f 346/1/3 341/1/3 345/1/3
f 347/2/3 342/2/3 346/2/3
f 353/3/3 349/3/3 348/3/3
f 354/4/3 350/4/3 349/4/3
f 354/3/3 349/3/3 353/3/3
f 355/4/3 350/4/3 354/4/3
f 358/3/3 352/3/3 351/3/3
f 359/4/3 353/4/3 352/4/3
f 359/4/3 354/4/3 353/4/3
f 359/3/3 352/3/3 358/3/3
f 360/4/3 354/4/3 359/4/3
f 361/3/3 356/3/3 355/3/3
f 361/4/3 354/4/3 360/4/3
f 361/3/3 355/3/3 354/3/3
f 362/3/3 356/3/3 361/3/3
f 363/3/3 356/3/3 362/3/3
f 365/3/3 358/3/3 357/3/3
f 366/3/3 358/3/3 365/3/3
f 368/3/3 362/3/3 361/3/3
f 368/3/3 361/3/3 360/3/3
f 369/3/3 362/3/3 368/3/3
f 370/3/3 362/3/3 369/3/3
f 371/3/3 364/3/3 363/3/3
f 372/3/3 364/3/3 371/3/3
f 374/3/3 368/3/3 367/3/3
f 375/3/3 368/3/3 374/3/3
f 376/3/3 370/3/3 369/3/3
f 378/3/3 374/3/3 373/3/3
f 379/3/3 374/3/3 378/3/3
f 380/3/3 377/3/3 376/3/3
f 380/3/3 376/3/3 369/3/3
f 381/3/3 377/3/3 380/3/3
f 382/3/3 377/3/3 381/3/3
f 383/4/3 379/4/3 378/4/3
f 384/4/3 379/4/3 383/4/3
f 386/4/3 381/4/3 380/4/3
f 387/4/3 381/4/3 386/4/3
f 388/3/3 382/3/3 381/3/3
f 388/4/3 381/4/3 387/4/3
f 389/3/3 382/3/3 388/3/3
f 392/3/3 385/3/3 384/3/3
f 393/3/3 385/3/3 392/3/3
f 394/3/3 387/3/3 386/3/3
f 395/3/3 387/3/3 394/3/3
f 398/3/3 391/3/3 390/3/3
f 399/3/3 391/3/3 398/3/3
f 400/3/3 395/3/3 394/3/3
f 400/3/3 394/3/3 393/3/3
f 401/3/3 395/3/3 400/3/3
f 403/3/3 397/3/3 396/3/3
f 404/3/3 397/3/3 403/3/3
f 405/3/3 400/3/3 399/3/3
f 406/4/3 401/4/3 400/4/3
f 406/3/3 400/3/3 405/3/3
f 407/3/3 402/3/3 401/3/3
f 407/4/3 401/4/3 406/4/3
f 407/3/3 403/3/3 402/3/3
f 408/3/3 403/3/3 407/3/3
f 409/3/3 403/3/3 408/3/3
f 410/3/3 407/3/3 406/3/3
f 410/3/3 408/3/3 407/3/3
f 411/3/3 408/3/3 410/3/3
f 412/4/4 413/4/4 416/4/4
f 413/3/4 414/3/4 417/3/4
f 416/4/4 413/4/4 417/4/4
f 417/3/4 414/3/4 418/3/4
f 415/3/4 416/3/4 421/3/4
f 416/3/4 417/3/4 421/3/4
f 421/3/4 417/3/4 422/3/4
f 417/4/4 418/4/4 423/4/4
f 422/3/4 417/3/4 423/3/4
f 423/4/4 418/4/4 424/4/4
f 418/3/4 419/3/4 425/3/4
f 424/4/4 418/4/4 425/4/4
f 425/3/4 419/3/4 426/3/4
f 420/3/4 421/3/4 428/3/4
f 428/3/4 421/3/4 429/3/4
f 423/3/4 424/3/4 431/3/4
f 422/3/4 423/3/4 431/3/4
f 431/3/4 424/3/4 432/3/4
f 426/3/4 427/3/4 433/3/4
f 433/3/4 427/3/4 434/3/4
f 430/3/4 431/3/4 436/3/4
f 436/3/4 431/3/4 437/3/4
f 432/3/4 424/3/4 438/3/4
f 435/3/4 436/3/4 440/3/4
f 438/3/4 439/3/4 441/3/4
f 440/3/4 436/3/4 442/3/4
f 442/3/4 436/3/4 443/3/4
f 432/3/4 438/3/4 445/3/4
f 438/3/4 441/3/4 445/3/4
f 445/3/4 441/3/4 446/3/4
f 443/3/4 444/3/4 449/3/4
f 449/3/4 444/3/4 450/3/4
f 432/3/4 445/3/4 451/3/4
f 451/3/4 445/3/4 452/3/4
f 447/3/4 448/3/4 455/3/4
f 455/3/4 448/3/4 456/3/4
f 451/3/4 452/3/4 458/3/4
f 450/3/4 451/3/4 458/3/4
f 458/3/4 452/3/4 459/3/4
f 453/3/4 454/3/4 460/3/4
f 460/3/4 454/3/4 461/3/4
f 456/3/4 457/3/4 462/3/4
f 458/4/4 459/4/4 463/4/4
f 462/3/4 457/3/4 463/3/4
f 457/4/4 458/4/4 463/4/4
f 463/4/4 459/4/4 464/4/4
f 459/3/4 460/3/4 465/3/4
f 464/4/4 459/4/4 465/4/4
f 465/3/4 460/3/4 466/3/4
f 466/3/4 460/3/4 467/3/4
f 464/3/4 465/3/4 468/3/4
f 465/4/4 466/4/4 469/4/4
f 468/3/4 465/3/4 469/3/4
f 469/4/4 466/4/4 470/4/4
f 471/1/4 472/1/4 478/1/4
f 472/2/4 473/2/4 478/2/4
f 473/1/4 474/1/4 479/1/4
f 478/2/4 473/2/4 479/2/4
f 479/1/4 474/1/4 480/1/4
f 475/1/4 476/1/4 481/1/4
f 481/1/4 476/1/4 482/1/4
f 476/2/4 477/2/4 483/2/4
f 482/1/4 476/1/4 483/1/4
f 483/2/4 477/2/4 484/2/4
f 471/1/4 478/1/4 485/1/4
f 478/1/4 479/1/4 485/1/4
f 485/1/4 479/1/4 486/1/4
f 486/1/4 479/1/4 487/1/4
f 483/1/4 484/1/4 490/1/4
f 482/1/4 483/1/4 490/1/4
f 490/1/4 484/1/4 491/1/4
f 485/2/4 486/2/4 492/2/4
f 492/2/4 486/2/4 493/2/4
f 487/1/4 488/1/4 494/1/4
f 494/1/4 488/1/4 495/1/4
f 495/1/4 488/1/4 496/1/4
f 489/1/4 490/1/4 498/1/4
f 491/1/4 484/1/4 499/1/4
f 492/1/4 493/1/4 500/1/4
f 493/1/4 494/1/4 500/1/4
f 494/1/4 495/1/4 500/1/4
f 500/1/4 495/1/4 501/1/4
f 501/1/4 495/1/4 502/1/4
f 496/1/4 497/1/4 503/1/4
f 498/1/4 499/1/4 504/1/4
f 489/1/4 498/1/4 504/1/4
f 504/1/4 499/1/4 505/1/4
f 499/1/4 484/1/4 506/1/4
f 505/1/4 499/1/4 506/1/4
f 500/2/4 501/2/4 507/2/4
f 507/2/4 501/2/4 508/2/4
f 505/2/4 506/2/4 509/2/4
f 509/2/4 506/2/4 510/2/4
f 507/1/4 508/1/4 511/1/4
f 502/1/4 503/1/4 512/1/4
f 503/1/4 497/1/4 513/1/4
f 512/1/4 503/1/4 513/1/4
f 509/1/4 510/1/4 515/1/4
f 515/1/4 510/1/4 516/1/4
f 507/1/4 511/1/4 517/1/4
f 511/1/4 512/1/4 517/1/4
f 517/1/4 512/1/4 518/1/4
f 518/1/4 512/1/4 519/1/4
f 513/1/4 497/1/4 520/1/4
f 520/1/4 497/1/4 521/1/4
f 515/2/4 516/2/4 522/2/4
f 514/2/4 515/2/4 522/2/4
f 522/2/4 516/2/4 523/2/4
f 516/1/4 510/1/4 524/1/4
f 523/2/4 516/2/4 524/2/4
f 507/1/4 517/1/4 525/1/4
f 518/1/4 519/1/4 526/1/4
f 519/1/4 520/1/4 526/1/4
f 526/1/4 520/1/4 527/1/4
f 522/1/4 523/1/4 528/1/4
f 528/1/4 523/1/4 529/1/4
f 524/1/4 510/1/4 530/1/4
f 507/1/4 525/1/4 531/1/4
f 525/1/4 526/1/4 531/1/4
f 531/1/4 526/1/4 532/1/4
f 529/1/4 530/1/4 535/1/4
f 530/1/4 510/1/4 536/1/4
f 535/1/4 530/1/4 536/1/4
f 531/2/4 532/2/4 537/2/4
f 532/1/4 533/1/4 538/1/4
f 537/2/4 532/2/4 538/2/4
f 538/1/4 533/1/4 539/1/4
f 534/1/4 535/1/4 540/1/4
f 535/2/4 536/2/4 541/2/4
f 540/1/4 535/1/4 541/1/4
f 541/2/4 536/2/4 542/2/4
f 549/1/5 544/1/5 543/1/5
f 549/2/5 545/2/5 544/2/5
f 550/1/5 546/1/5 545/1/5
f 550/2/5 545/2/5 549/2/5
f 551/2/5 547/2/5 546/2/5
f 551/1/5 546/1/5 550/1/5
f 552/1/5 548/1/5 547/1/5
f 552/2/5 547/2/5 551/2/5
f 553/1/5 551/1/5 550/1/5
f 553/1/5 550/1/5 549/1/5
f 553/1/5 552/1/5 551/1/5
f 554/1/5 552/1/5 553/1/5
f 555/1/5 552/1/5 554/1/5
f 556/1/5 552/1/5 555/1/5
f 557/1/5 548/1/5 552/1/5
f 557/1/5 552/1/5 556/1/5
f 558/1/5 548/1/5 557/1/5
f 559/1/5 549/1/5 543/1/5
f 559/1/5 553/1/5 549/1/5
f 560/2/5 554/2/5 553/2/5
f 560/1/5 553/1/5 559/1/5
f 561/1/5 555/1/5 554/1/5
f 561/2/5 554/2/5 560/2/5
f 562/2/5 556/2/5 555/2/5
f 562/1/5 555/1/5 561/1/5
f 563/1/5 557/1/5 556/1/5
f 563/2/5 556/2/5 562/2/5
f 564/2/5 558/2/5 557/2/5
f 564/1/5 557/1/5 563/1/5
f 565/2/5 558/2/5 564/2/5
f 570/1/5 567/1/5 566/1/5
f 571/1/5 567/1/5 570/1/5
f 572/1/5 569/1/5 568/1/5
f 573/1/5 569/1/5 572/1/5
f 578/1/5 575/1/5 574/1/5
f 579/1/5 575/1/5 578/1/5
f 580/1/5 577/1/5 576/1/5
f 581/1/5 577/1/5 580/1/5
f 584/1/5 583/1/5 582/1/5
f 585/1/5 583/1/5 584/1/5
f 586/1/5 583/1/5 585/1/5
f 589/1/5 588/1/5 587/1/5
f 590/1/5 588/1/5 589/1/5
f 595/1/5 592/1/5 591/1/5
f 596/1/5 592/1/5 595/1/5
f 597/1/5 594/1/5 593/1/5
f 598/1/5 594/1/5 597/1/5
f 603/1/5 600/1/5 599/1/5
f 604/1/5 600/1/5 603/1/5
f 605/1/5 602/1/5 601/1/5
f 606/1/5 602/1/5 605/1/5
f 613/1/5 608/1/5 607/1/5
f 614/2/5 609/2/5 608/2/5
f 614/1/5 608/1/5 613/1/5
f 615/2/5 609/2/5 614/2/5
f 616/1/5 611/1/5 610/1/5
f 617/2/5 612/2/5 611/2/5
f 617/1/5 611/1/5 616/1/5
f 618/2/5 612/2/5 617/2/5
f 624/1/5 620/1/5 619/1/5
f 625/1/5 620/1/5 624/1/5
f 626/2/5 622/2/5 621/2/5
f 627/1/5 623/1/5 622/1/5
f 627/2/5 622/2/5 626/2/5
f 628/1/5 623/1/5 627/1/5
f 633/1/5 630/1/5 629/1/5
f 634/1/5 630/1/5 633/1/5
f 635/1/5 632/1/5 631/1/5
f 636/1/5 632/1/5 635/1/5
f 641/1/5 638/1/5 637/1/5
f 642/1/5 638/1/5 641/1/5
f 643/1/5 640/1/5 639/1/5
f 644/1/5 640/1/5 643/1/5
f 652/1/5 646/1/5 645/1/5
f 653/1/5 646/1/5 652/1/5
f 654/1/5 648/1/5 647/1/5
f 655/2/5 649/2/5 648/2/5
f 655/1/5 648/1/5 654/1/5
f 656/2/5 649/2/5 655/2/5
f 657/1/5 651/1/5 650/1/5
f 658/1/5 651/1/5 657/1/5
f 666/1/5 660/1/5 659/1/5
f 667/1/5 660/1/5 666/1/5
f 668/2/5 662/2/5 661/2/5
f 669/1/5 663/1/5 662/1/5
f 669/2/5 662/2/5 668/2/5
f 670/1/5 663/1/5 669/1/5
f 671/1/5 665/1/5 664/1/5
f 672/1/5 665/1/5 671/1/5
f 677/1/5 674/1/5 673/1/5
f 678/1/5 674/1/5 677/1/5
f 679/1/5 676/1/5 675/1/5
f 680/1/5 676/1/5 679/1/5
f 685/1/5 682/1/5 681/1/5
f 686/1/5 682/1/5 685/1/5
f 687/1/5 684/1/5 683/1/5
f 688/1/5 684/1/5 687/1/5
f 689/1/6 690/1/6 693/1/6
f 693/1/6 690/1/6 694/1/6
f 691/1/6 692/1/6 695/1/6
f 695/1/6 692/1/6 696/1/6
f 697/2/6 698/2/6 701/2/6
f 701/2/6 698/2/6 702/2/6
f 699/1/6 700/1/6 703/1/6
f 703/1/6 700/1/6 704/1/6
f 705/2/6 706/2/6 711/2/6
f 711/2/6 706/2/6 712/2/6
f 707/1/6 708/1/6 713/1/6
f 713/1/6 708/1/6 714/1/6
f 714/1/6 708/1/6 715/1/6
f 709/2/6 710/2/6 716/2/6
f 716/2/6 710/2/6 717/2/6
f 718/1/6 719/1/6 725/1/6
f 725/1/6 719/1/6 726/1/6
f 720/2/6 721/2/6 727/2/6
f 721/1/6 722/1/6 728/1/6
f 727/2/6 721/2/6 728/2/6
f 728/1/6 722/1/6 729/1/6
f 723/1/6 724/1/6 730/1/6
f 730/1/6 724/1/6 731/1/6
f 732/1/6 733/1/6 736/1/6
f 736/1/6 733/1/6 737/1/6
f 734/2/6 735/2/6 738/2/6
f 738/2/6 735/2/6 739/2/6
f 740/1/6 741/1/6 744/1/6
f 744/1/6 741/1/6 745/1/6
f 742/1/6 743/1/6 746/1/6
f 746/1/6 743/1/6 747/1/6
f 748/2/6 749/2/6 756/2/6
f 756/2/6 749/2/6 757/2/6
f 750/1/6 751/1/6 758/1/6
f 758/1/6 751/1/6 759/1/6
f 752/1/6 753/1/6 760/1/6
f 760/1/6 753/1/6 761/1/6
f 754/1/6 755/1/6 762/1/6
f 762/1/6 755/1/6 763/1/6
f 764/1/6 765/1/6 772/1/6
f 772/1/6 765/1/6 773/1/6
f 766/1/6 767/1/6 774/1/6
f 774/1/6 767/1/6 775/1/6
f 768/1/6 769/1/6 776/1/6
f 776/1/6 769/1/6 777/1/6
f 770/1/6 771/1/6 778/1/6
f 778/1/6 771/1/6 779/1/6
f 780/1/6 781/1/6 782/1/6
f 782/1/6 781/1/6 783/1/6
f 783/1/6 781/1/6 784/1/6
f 784/1/6 781/1/6 785/1/6
f 786/1/6 787/1/6 788/1/6
f 788/1/6 787/1/6 789/1/6
f 790/1/6 791/1/6 794/1/6
f 794/1/6 791/1/6 795/1/6
f 792/1/6 793/1/6 796/1/6
f 796/1/6 793/1/6 797/1/6
f 798/1/6 799/1/6 802/1/6
f 802/1/6 799/1/6 803/1/6
f 800/1/6 801/1/6 804/1/6
f 804/1/6 801/1/6 805/1/6
f 806/2/6 807/2/6 812/2/6
f 807/1/6 808/1/6 813/1/6
f 812/2/6 807/2/6 813/2/6
f 808/2/6 809/2/6 814/2/6
f 813/1/6 808/1/6 814/1/6
f 809/1/6 810/1/6 815/1/6
f 814/2/6 809/2/6 815/2/6
f 810/2/6 811/2/6 816/2/6
f 815/1/6 810/1/6 816/1/6
f 816/2/6 811/2/6 817/2/6
f 814/1/6 815/1/6 818/1/6
f 812/1/6 813/1/6 818/1/6
f 816/1/6 817/1/6 818/1/6
f 815/1/6 816/1/6 818/1/6
f 813/1/6 814/1/6 818/1/6
f 818/1/6 817/1/6 819/1/6
f 819/1/6 817/1/6 820/1/6
f 820/1/6 817/1/6 821/1/6
f 821/1/6 817/1/6 822/1/6
f 822/1/6 817/1/6 823/1/6
f 818/2/6 819/2/6 824/2/6
f 819/1/6 820/1/6 825/1/6
f 824/2/6 819/2/6 825/2/6
f 820/2/6 821/2/6 826/2/6
f 825/1/6 820/1/6 826/1/6
f 821/1/6 822/1/6 827/1/6
f 826/2/6 821/2/6 827/2/6
f 822/2/6 823/2/6 828/2/6
f 827/1/6 822/1/6 828/1/6
f 828/2/6 823/2/6 829/2/6
