# MagicaVoxel @ Ephtracy

# group
g BackGround_Snow_BossTemple-3

# material
mtllib BackGround_Snow_BossTemple-3.mtl
usemtl palette

# normals
vn -1 0 0
vn 1 0 0
vn 0 0 1
vn 0 0 -1
vn 0 -1 0
vn 0 1 0

# texcoords
vt 0.0488281 0.5
vt 0.314453 0.5
vt 0.318359 0.5

# verts
v -61.5 -47 -42.5
v -61.5 -47 -53.5
v -61.5 -42 -50.5
v -61.5 -42 -53.5
v -61.5 -35 -42.5
v -61.5 -35 -50.5
v -61.5 -11 -44.5
v -61.5 -11 -53.5
v -61.5 -1 58.5
v -61.5 -1 -44.5
v -61.5 -1 -53.5
v -61.5 -1 -58.5
v -61.5 9 -30.5
v -61.5 9 -58.5
v -61.5 10 -30.5
v -61.5 10 -58.5
v -61.5 12 -29.5
v -61.5 12 -30.5
v -61.5 13 -28.5
v -61.5 13 -29.5
v -61.5 13 -30.5
v -61.5 47 58.5
v -61.5 47 -28.5
v -61.5 47 -29.5
v -41.5 -16 -46.5
v -41.5 -16 -56.5
v -41.5 -11 -46.5
v -41.5 -11 -53.5
v -41.5 -1 -53.5
v -41.5 -1 -56.5
v -38.5 -42 -39.5
v -38.5 -42 -42.5
v -38.5 -42 -50.5
v -38.5 -42 -53.5
v -38.5 -35 -42.5
v -38.5 -35 -50.5
v -38.5 -33 -39.5
v -38.5 -33 -53.5
v -36.5 -33 -41.5
v -36.5 -33 -51.5
v -36.5 -16 -41.5
v -36.5 -16 -46.5
v -36.5 -16 -51.5
v -32.5 10 -10.5
v -32.5 10 -30.5
v -32.5 12 -10.5
v -32.5 12 -30.5
v -32.5 13 -10.5
v -32.5 13 -30.5
v -31.5 13 -10.5
v -31.5 13 -29.5
v -31.5 47 -10.5
v -31.5 47 -29.5
v -17.5 -11 -44.5
v -17.5 -11 -46.5
v -17.5 -1 -44.5
v -17.5 -1 -46.5
v 7.5 10 -10.5
v 7.5 10 -30.5
v 7.5 12 -10.5
v 7.5 12 -30.5
v 7.5 13 -10.5
v 7.5 13 -30.5
v 8.5 13 -10.5
v 8.5 13 -29.5
v 8.5 47 -10.5
v 8.5 47 -29.5
v 13.5 -16 -46.5
v 13.5 -16 -56.5
v 13.5 -11 -46.5
v 13.5 -11 -53.5
v 13.5 -1 -53.5
v 13.5 -1 -56.5
v 16.5 -42 -39.5
v 16.5 -42 -41.5
v 16.5 -42 -50.5
v 16.5 -42 -53.5
v 16.5 -36 -41.5
v 16.5 -36 -50.5
v 16.5 -33 -39.5
v 16.5 -33 -53.5
v 19.5 -33 -41.5
v 19.5 -33 -51.5
v 19.5 -16 -41.5
v 19.5 -16 -46.5
v 19.5 -16 -51.5
v 47.5 10 -10.5
v 47.5 10 -30.5
v 47.5 12 -10.5
v 47.5 12 -30.5
v 47.5 13 -10.5
v 47.5 13 -30.5
v 48.5 13 -10.5
v 48.5 13 -29.5
v 48.5 47 -10.5
v 48.5 47 -29.5
v -57.5 13 -10.5
v -57.5 13 -29.5
v -57.5 47 -10.5
v -57.5 47 -29.5
v -56.5 10 -10.5
v -56.5 10 -30.5
v -56.5 12 -10.5
v -56.5 12 -30.5
v -56.5 13 -10.5
v -56.5 13 -30.5
v -29.5 -11 -44.5
v -29.5 -11 -46.5
v -29.5 -1 -44.5
v -29.5 -1 -46.5
v -19.5 13 -10.5
v -19.5 13 -29.5
v -19.5 47 -10.5
v -19.5 47 -29.5
v -18.5 10 -10.5
v -18.5 10 -30.5
v -18.5 12 -10.5
v -18.5 12 -30.5
v -18.5 13 -10.5
v -18.5 13 -30.5
v -17.5 -33 -41.5
v -17.5 -33 -51.5
v -17.5 -16 -41.5
v -17.5 -16 -46.5
v -17.5 -16 -51.5
v -15.5 -42 -39.5
v -15.5 -42 -41.5
v -15.5 -42 -50.5
v -15.5 -42 -53.5
v -15.5 -36 -41.5
v -15.5 -36 -50.5
v -15.5 -33 -39.5
v -15.5 -33 -53.5
v -12.5 -16 -46.5
v -12.5 -16 -56.5
v -12.5 -11 -46.5
v -12.5 -11 -53.5
v -12.5 -1 -53.5
v -12.5 -1 -56.5
v 20.5 13 -10.5
v 20.5 13 -29.5
v 20.5 47 -10.5
v 20.5 47 -29.5
v 21.5 10 -10.5
v 21.5 10 -30.5
v 21.5 12 -10.5
v 21.5 12 -30.5
v 21.5 13 -10.5
v 21.5 13 -30.5
v 25.5 -11 -44.5
v 25.5 -11 -46.5
v 25.5 -1 -44.5
v 25.5 -1 -46.5
v 37.5 -33 -41.5
v 37.5 -33 -51.5
v 37.5 -16 -41.5
v 37.5 -16 -46.5
v 37.5 -16 -51.5
v 39.5 -47 -42.5
v 39.5 -47 -53.5
v 39.5 -42 -39.5
v 39.5 -42 -42.5
v 39.5 -33 -39.5
v 39.5 -33 -53.5
v 42.5 -16 -46.5
v 42.5 -16 -56.5
v 42.5 -1 -46.5
v 42.5 -1 -56.5
v 58.5 13 58.5
v 58.5 13 -29.5
v 58.5 47 58.5
v 58.5 47 -29.5
v 59.5 10 58.5
v 59.5 10 -30.5
v 59.5 12 58.5
v 59.5 12 -30.5
v 59.5 13 58.5
v 59.5 13 -30.5
v 61.5 -1 58.5
v 61.5 -1 -58.5
v 61.5 9 58.5
v 61.5 9 -58.5
v 61.5 10 58.5
v 61.5 10 -58.5
v -61.5 -1 58.5
v -61.5 47 58.5
v 57.5 13 58.5
v 57.5 47 58.5
v 58.5 12 58.5
v 58.5 13 58.5
v 58.5 47 58.5
v 59.5 9 58.5
v 59.5 10 58.5
v 59.5 12 58.5
v 59.5 13 58.5
v 61.5 -1 58.5
v 61.5 9 58.5
v 61.5 10 58.5
v -38.5 -42 -39.5
v -38.5 -33 -39.5
v -15.5 -42 -39.5
v -15.5 -33 -39.5
v 16.5 -42 -39.5
v 16.5 -33 -39.5
v 39.5 -42 -39.5
v 39.5 -33 -39.5
v -36.5 -33 -41.5
v -36.5 -16 -41.5
v -17.5 -33 -41.5
v -17.5 -16 -41.5
v -15.5 -42 -41.5
v -15.5 -36 -41.5
v 16.5 -42 -41.5
v 16.5 -36 -41.5
v 19.5 -33 -41.5
v 19.5 -16 -41.5
v 37.5 -33 -41.5
v 37.5 -16 -41.5
v -61.5 -47 -42.5
v -61.5 -35 -42.5
v -38.5 -42 -42.5
v -38.5 -35 -42.5
v 39.5 -47 -42.5
v 39.5 -42 -42.5
v -61.5 -11 -44.5
v -61.5 -1 -44.5
v -29.5 -11 -44.5
v -29.5 -1 -44.5
v -17.5 -11 -44.5
v -17.5 -1 -44.5
v 25.5 -11 -44.5
v 25.5 -1 -44.5
v -41.5 -16 -46.5
v -41.5 -11 -46.5
v -36.5 -16 -46.5
v -29.5 -11 -46.5
v -29.5 -1 -46.5
v -17.5 -16 -46.5
v -17.5 -11 -46.5
v -17.5 -1 -46.5
v -12.5 -16 -46.5
v -12.5 -11 -46.5
v 13.5 -16 -46.5
v 13.5 -11 -46.5
v 19.5 -16 -46.5
v 25.5 -11 -46.5
v 25.5 -1 -46.5
v 37.5 -16 -46.5
v 42.5 -16 -46.5
v 42.5 -1 -46.5
v -57.5 13 -10.5
v -57.5 47 -10.5
v -56.5 10 -10.5
v -56.5 12 -10.5
v -56.5 13 -10.5
v -32.5 10 -10.5
v -32.5 12 -10.5
v -32.5 13 -10.5
v -31.5 13 -10.5
v -31.5 47 -10.5
v -19.5 13 -10.5
v -19.5 47 -10.5
v -18.5 10 -10.5
v -18.5 12 -10.5
v -18.5 13 -10.5
v 7.5 10 -10.5
v 7.5 12 -10.5
v 7.5 13 -10.5
v 8.5 13 -10.5
v 8.5 47 -10.5
v 20.5 13 -10.5
v 20.5 47 -10.5
v 21.5 10 -10.5
v 21.5 12 -10.5
v 21.5 13 -10.5
v 47.5 10 -10.5
v 47.5 12 -10.5
v 47.5 13 -10.5
v 48.5 13 -10.5
v 48.5 47 -10.5
v -61.5 13 -29.5
v -61.5 47 -29.5
v -57.5 13 -29.5
v -57.5 47 -29.5
v -31.5 13 -29.5
v -31.5 47 -29.5
v -19.5 13 -29.5
v -19.5 47 -29.5
v 8.5 13 -29.5
v 8.5 47 -29.5
v 20.5 13 -29.5
v 20.5 47 -29.5
v 48.5 13 -29.5
v 48.5 47 -29.5
v 58.5 13 -29.5
v 58.5 47 -29.5
v -61.5 10 -30.5
v -61.5 12 -30.5
v -61.5 13 -30.5
v -56.5 10 -30.5
v -56.5 12 -30.5
v -56.5 13 -30.5
v -32.5 10 -30.5
v -32.5 12 -30.5
v -32.5 13 -30.5
v -18.5 10 -30.5
v -18.5 12 -30.5
v -18.5 13 -30.5
v 7.5 10 -30.5
v 7.5 12 -30.5
v 7.5 13 -30.5
v 21.5 10 -30.5
v 21.5 12 -30.5
v 21.5 13 -30.5
v 47.5 10 -30.5
v 47.5 12 -30.5
v 47.5 13 -30.5
v 59.5 10 -30.5
v 59.5 12 -30.5
v 59.5 13 -30.5
v -61.5 -42 -50.5
v -61.5 -35 -50.5
v -38.5 -42 -50.5
v -38.5 -35 -50.5
v -15.5 -42 -50.5
v -15.5 -36 -50.5
v 16.5 -42 -50.5
v 16.5 -36 -50.5
v -36.5 -33 -51.5
v -36.5 -16 -51.5
v -17.5 -33 -51.5
v -17.5 -16 -51.5
v 19.5 -33 -51.5
v 19.5 -16 -51.5
v 37.5 -33 -51.5
v 37.5 -16 -51.5
v -61.5 -47 -53.5
v -61.5 -42 -53.5
v -61.5 -11 -53.5
v -61.5 -1 -53.5
v -41.5 -11 -53.5
v -41.5 -1 -53.5
v -38.5 -42 -53.5
v -38.5 -33 -53.5
v -15.5 -42 -53.5
v -15.5 -33 -53.5
v -12.5 -11 -53.5
v -12.5 -1 -53.5
v 13.5 -11 -53.5
v 13.5 -1 -53.5
v 16.5 -42 -53.5
v 16.5 -33 -53.5
v 39.5 -47 -53.5
v 39.5 -33 -53.5
v -41.5 -16 -56.5
v -41.5 -1 -56.5
v -12.5 -16 -56.5
v -12.5 -1 -56.5
v 13.5 -16 -56.5
v 13.5 -1 -56.5
v 42.5 -16 -56.5
v 42.5 -1 -56.5
v -61.5 -1 -58.5
v -61.5 9 -58.5
v -61.5 10 -58.5
v 61.5 -1 -58.5
v 61.5 9 -58.5
v 61.5 10 -58.5
v -61.5 -47 -42.5
v 39.5 -47 -42.5
v -61.5 -47 -53.5
v 39.5 -47 -53.5
v -38.5 -42 -39.5
v -15.5 -42 -39.5
v 16.5 -42 -39.5
v 39.5 -42 -39.5
v -15.5 -42 -41.5
v 16.5 -42 -41.5
v -38.5 -42 -42.5
v 39.5 -42 -42.5
v -41.5 -16 -46.5
v -36.5 -16 -46.5
v -17.5 -16 -46.5
v -12.5 -16 -46.5
v 13.5 -16 -46.5
v 19.5 -16 -46.5
v 37.5 -16 -46.5
v 42.5 -16 -46.5
v -36.5 -16 -51.5
v -17.5 -16 -51.5
v 19.5 -16 -51.5
v 37.5 -16 -51.5
v -41.5 -16 -56.5
v -12.5 -16 -56.5
v 13.5 -16 -56.5
v 42.5 -16 -56.5
v -61.5 -11 -44.5
v -29.5 -11 -44.5
v -17.5 -11 -44.5
v 25.5 -11 -44.5
v -41.5 -11 -46.5
v -29.5 -11 -46.5
v -17.5 -11 -46.5
v -12.5 -11 -46.5
v 13.5 -11 -46.5
v 25.5 -11 -46.5
v -61.5 -11 -53.5
v -41.5 -11 -53.5
v -12.5 -11 -53.5
v 13.5 -11 -53.5
v -61.5 -1 58.5
v 61.5 -1 58.5
v -61.5 -1 -44.5
v -29.5 -1 -44.5
v -17.5 -1 -44.5
v 25.5 -1 -44.5
v -29.5 -1 -46.5
v -17.5 -1 -46.5
v 25.5 -1 -46.5
v 42.5 -1 -46.5
v -61.5 -1 -53.5
v -41.5 -1 -53.5
v -12.5 -1 -53.5
v 13.5 -1 -53.5
v -41.5 -1 -56.5
v -12.5 -1 -56.5
v 13.5 -1 -56.5
v 42.5 -1 -56.5
v -61.5 -1 -58.5
v 61.5 -1 -58.5
v -61.5 -42 -50.5
v -38.5 -42 -50.5
v -15.5 -42 -50.5
v 16.5 -42 -50.5
v -61.5 -42 -53.5
v -38.5 -42 -53.5
v -15.5 -42 -53.5
v 16.5 -42 -53.5
v -15.5 -36 -41.5
v 16.5 -36 -41.5
v -15.5 -36 -50.5
v 16.5 -36 -50.5
v -61.5 -35 -42.5
v -38.5 -35 -42.5
v -61.5 -35 -50.5
v -38.5 -35 -50.5
v -38.5 -33 -39.5
v -15.5 -33 -39.5
v 16.5 -33 -39.5
v 39.5 -33 -39.5
v -36.5 -33 -41.5
v -17.5 -33 -41.5
v 19.5 -33 -41.5
v 37.5 -33 -41.5
v -36.5 -33 -51.5
v -17.5 -33 -51.5
v 19.5 -33 -51.5
v 37.5 -33 -51.5
v -38.5 -33 -53.5
v -15.5 -33 -53.5
v 16.5 -33 -53.5
v 39.5 -33 -53.5
v -36.5 -16 -41.5
v -17.5 -16 -41.5
v 19.5 -16 -41.5
v 37.5 -16 -41.5
v -36.5 -16 -46.5
v -17.5 -16 -46.5
v 19.5 -16 -46.5
v 37.5 -16 -46.5
v 59.5 10 58.5
v 61.5 10 58.5
v -56.5 10 -10.5
v -32.5 10 -10.5
v -18.5 10 -10.5
v 7.5 10 -10.5
v 21.5 10 -10.5
v 47.5 10 -10.5
v -61.5 10 -30.5
v -56.5 10 -30.5
v -32.5 10 -30.5
v -18.5 10 -30.5
v 7.5 10 -30.5
v 21.5 10 -30.5
v 47.5 10 -30.5
v 59.5 10 -30.5
v -61.5 10 -58.5
v 61.5 10 -58.5
v 58.5 13 58.5
v 59.5 13 58.5
v -57.5 13 -10.5
v -56.5 13 -10.5
v -32.5 13 -10.5
v -31.5 13 -10.5
v -19.5 13 -10.5
v -18.5 13 -10.5
v 7.5 13 -10.5
v 8.5 13 -10.5
v 20.5 13 -10.5
v 21.5 13 -10.5
v 47.5 13 -10.5
v 48.5 13 -10.5
v -61.5 13 -29.5
v -57.5 13 -29.5
v -31.5 13 -29.5
v -19.5 13 -29.5
v 8.5 13 -29.5
v 20.5 13 -29.5
v 48.5 13 -29.5
v 58.5 13 -29.5
v -61.5 13 -30.5
v -56.5 13 -30.5
v -32.5 13 -30.5
v -18.5 13 -30.5
v 7.5 13 -30.5
v 21.5 13 -30.5
v 47.5 13 -30.5
v 59.5 13 -30.5
v -61.5 47 58.5
v 57.5 47 58.5
v 58.5 47 58.5
v -57.5 47 -9.5
v -31.5 47 -9.5
v -19.5 47 -9.5
v 8.5 47 -9.5
v 20.5 47 -9.5
v 48.5 47 -9.5
v -58.5 47 -10.5
v -57.5 47 -10.5
v -31.5 47 -10.5
v -30.5 47 -10.5
v -20.5 47 -10.5
v -19.5 47 -10.5
v 8.5 47 -10.5
v 9.5 47 -10.5
v 19.5 47 -10.5
v 20.5 47 -10.5
v 48.5 47 -10.5
v 49.5 47 -10.5
v -61.5 47 -28.5
v -58.5 47 -28.5
v -30.5 47 -28.5
v -20.5 47 -28.5
v 9.5 47 -28.5
v 19.5 47 -28.5
v 49.5 47 -28.5
v 57.5 47 -28.5
v -61.5 47 -29.5
v -57.5 47 -29.5
v -31.5 47 -29.5
v -19.5 47 -29.5
v 8.5 47 -29.5
v 20.5 47 -29.5
v 48.5 47 -29.5
v 58.5 47 -29.5

# faces
f 3/2/1 2/2/1 1/2/1
f 4/2/1 2/2/1 3/2/1
f 5/2/1 3/2/1 1/2/1
f 6/2/1 3/2/1 5/2/1
f 10/2/1 8/2/1 7/2/1
f 11/2/1 8/2/1 10/2/1
f 13/2/1 11/2/1 10/2/1
f 13/2/1 12/2/1 11/2/1
f 13/2/1 10/2/1 9/2/1
f 14/2/1 12/2/1 13/2/1
f 15/2/1 13/2/1 9/2/1
f 15/1/1 14/1/1 13/1/1
f 16/1/1 14/1/1 15/1/1
f 17/2/1 15/2/1 9/2/1
f 18/2/1 15/2/1 17/2/1
f 19/2/1 17/2/1 9/2/1
f 20/1/1 18/1/1 17/1/1
f 20/2/1 17/2/1 19/2/1
f 21/1/1 18/1/1 20/1/1
f 22/2/1 19/2/1 9/2/1
f 23/3/1 20/3/1 19/3/1
f 23/2/1 19/2/1 22/2/1
f 24/3/1 20/3/1 23/3/1
f 27/2/1 26/2/1 25/2/1
f 28/2/1 26/2/1 27/2/1
f 29/2/1 26/2/1 28/2/1
f 30/2/1 26/2/1 29/2/1
f 35/2/1 32/2/1 31/2/1
f 36/2/1 34/2/1 33/2/1
f 37/2/1 35/2/1 31/2/1
f 37/2/1 36/2/1 35/2/1
f 38/2/1 34/2/1 36/2/1
f 38/2/1 36/2/1 37/2/1
f 41/2/1 40/2/1 39/2/1
f 42/2/1 40/2/1 41/2/1
f 43/2/1 40/2/1 42/2/1
f 46/2/1 45/2/1 44/2/1
f 47/2/1 45/2/1 46/2/1
f 48/1/1 47/1/1 46/1/1
f 49/1/1 47/1/1 48/1/1
f 52/3/1 51/3/1 50/3/1
f 53/3/1 51/3/1 52/3/1
f 56/2/1 55/2/1 54/2/1
f 57/2/1 55/2/1 56/2/1
f 60/2/1 59/2/1 58/2/1
f 61/2/1 59/2/1 60/2/1
f 62/1/1 61/1/1 60/1/1
f 63/1/1 61/1/1 62/1/1
f 66/3/1 65/3/1 64/3/1
f 67/3/1 65/3/1 66/3/1
f 70/2/1 69/2/1 68/2/1
f 71/2/1 69/2/1 70/2/1
f 72/2/1 69/2/1 71/2/1
f 73/2/1 69/2/1 72/2/1
f 78/2/1 75/2/1 74/2/1
f 79/2/1 77/2/1 76/2/1
f 80/2/1 78/2/1 74/2/1
f 80/2/1 79/2/1 78/2/1
f 81/2/1 77/2/1 79/2/1
f 81/2/1 79/2/1 80/2/1
f 84/2/1 83/2/1 82/2/1
f 85/2/1 83/2/1 84/2/1
f 86/2/1 83/2/1 85/2/1
f 89/2/1 88/2/1 87/2/1
f 90/2/1 88/2/1 89/2/1
f 91/1/1 90/1/1 89/1/1
f 92/1/1 90/1/1 91/1/1
f 95/3/1 94/3/1 93/3/1
f 96/3/1 94/3/1 95/3/1
f 97/3/2 98/3/2 99/3/2
f 99/3/2 98/3/2 100/3/2
f 101/2/2 102/2/2 103/2/2
f 103/2/2 102/2/2 104/2/2
f 103/1/2 104/1/2 105/1/2
f 105/1/2 104/1/2 106/1/2
f 107/2/2 108/2/2 109/2/2
f 109/2/2 108/2/2 110/2/2
f 111/3/2 112/3/2 113/3/2
f 113/3/2 112/3/2 114/3/2
f 115/2/2 116/2/2 117/2/2
f 117/2/2 116/2/2 118/2/2
f 117/1/2 118/1/2 119/1/2
f 119/1/2 118/1/2 120/1/2
f 121/2/2 122/2/2 123/2/2
f 123/2/2 122/2/2 124/2/2
f 124/2/2 122/2/2 125/2/2
f 126/2/2 127/2/2 130/2/2
f 128/2/2 129/2/2 131/2/2
f 126/2/2 130/2/2 132/2/2
f 130/2/2 131/2/2 132/2/2
f 131/2/2 129/2/2 133/2/2
f 132/2/2 131/2/2 133/2/2
f 134/2/2 135/2/2 136/2/2
f 136/2/2 135/2/2 137/2/2
f 137/2/2 135/2/2 138/2/2
f 138/2/2 135/2/2 139/2/2
f 140/3/2 141/3/2 142/3/2
f 142/3/2 141/3/2 143/3/2
f 144/2/2 145/2/2 146/2/2
f 146/2/2 145/2/2 147/2/2
f 146/1/2 147/1/2 148/1/2
f 148/1/2 147/1/2 149/1/2
f 150/2/2 151/2/2 152/2/2
f 152/2/2 151/2/2 153/2/2
f 154/2/2 155/2/2 156/2/2
f 156/2/2 155/2/2 157/2/2
f 157/2/2 155/2/2 158/2/2
f 159/2/2 160/2/2 162/2/2
f 161/2/2 162/2/2 163/2/2
f 162/2/2 160/2/2 164/2/2
f 163/2/2 162/2/2 164/2/2
f 165/2/2 166/2/2 167/2/2
f 167/2/2 166/2/2 168/2/2
f 169/3/2 170/3/2 171/3/2
f 171/3/2 170/3/2 172/3/2
f 173/2/2 174/2/2 175/2/2
f 175/2/2 174/2/2 176/2/2
f 175/1/2 176/1/2 177/1/2
f 177/1/2 176/1/2 178/1/2
f 179/2/2 180/2/2 181/2/2
f 181/2/2 180/2/2 182/2/2
f 181/1/2 182/1/2 183/1/2
f 183/1/2 182/1/2 184/1/2
f 187/2/3 186/2/3 185/2/3
f 188/2/3 186/2/3 187/2/3
f 189/2/3 187/2/3 185/2/3
f 190/3/3 188/3/3 187/3/3
f 190/2/3 187/2/3 189/2/3
f 191/3/3 188/3/3 190/3/3
f 192/2/3 189/2/3 185/2/3
f 193/2/3 189/2/3 192/2/3
f 194/1/3 190/1/3 189/1/3
f 194/2/3 189/2/3 193/2/3
f 195/1/3 190/1/3 194/1/3
f 196/2/3 192/2/3 185/2/3
f 197/1/3 193/1/3 192/1/3
f 197/2/3 192/2/3 196/2/3
f 198/1/3 193/1/3 197/1/3
f 201/2/3 200/2/3 199/2/3
f 202/2/3 200/2/3 201/2/3
f 205/2/3 204/2/3 203/2/3
f 206/2/3 204/2/3 205/2/3
f 209/2/3 208/2/3 207/2/3
f 210/2/3 208/2/3 209/2/3
f 213/2/3 212/2/3 211/2/3
f 214/2/3 212/2/3 213/2/3
f 217/2/3 216/2/3 215/2/3
f 218/2/3 216/2/3 217/2/3
f 221/2/3 220/2/3 219/2/3
f 222/2/3 220/2/3 221/2/3
f 223/2/3 221/2/3 219/2/3
f 224/2/3 221/2/3 223/2/3
f 227/2/3 226/2/3 225/2/3
f 228/2/3 226/2/3 227/2/3
f 231/2/3 230/2/3 229/2/3
f 232/2/3 230/2/3 231/2/3
f 235/2/3 234/2/3 233/2/3
f 236/2/3 234/2/3 235/2/3
f 238/2/3 236/2/3 235/2/3
f 238/2/3 237/2/3 236/2/3
f 239/2/3 237/2/3 238/2/3
f 240/2/3 237/2/3 239/2/3
f 241/2/3 239/2/3 238/2/3
f 242/2/3 239/2/3 241/2/3
f 245/2/3 244/2/3 243/2/3
f 246/2/3 244/2/3 245/2/3
f 248/2/3 246/2/3 245/2/3
f 248/2/3 247/2/3 246/2/3
f 249/2/3 247/2/3 248/2/3
f 250/2/3 247/2/3 249/2/3
f 251/3/4 252/3/4 255/3/4
f 253/3/4 254/3/4 256/3/4
f 254/3/4 255/3/4 256/3/4
f 256/3/4 255/3/4 257/3/4
f 255/3/4 252/3/4 258/3/4
f 257/3/4 255/3/4 258/3/4
f 258/3/4 252/3/4 259/3/4
f 259/3/4 252/3/4 260/3/4
f 261/3/4 262/3/4 265/3/4
f 263/3/4 264/3/4 266/3/4
f 264/3/4 265/3/4 266/3/4
f 266/3/4 265/3/4 267/3/4
f 265/3/4 262/3/4 268/3/4
f 267/3/4 265/3/4 268/3/4
f 268/3/4 262/3/4 269/3/4
f 269/3/4 262/3/4 270/3/4
f 271/3/4 272/3/4 275/3/4
f 273/3/4 274/3/4 276/3/4
f 274/3/4 275/3/4 276/3/4
f 276/3/4 275/3/4 277/3/4
f 275/3/4 272/3/4 278/3/4
f 277/3/4 275/3/4 278/3/4
f 278/3/4 272/3/4 279/3/4
f 279/3/4 272/3/4 280/3/4
f 281/3/4 282/3/4 283/3/4
f 283/3/4 282/3/4 284/3/4
f 285/3/4 286/3/4 287/3/4
f 287/3/4 286/3/4 288/3/4
f 289/3/4 290/3/4 291/3/4
f 291/3/4 290/3/4 292/3/4
f 293/3/4 294/3/4 295/3/4
f 295/3/4 294/3/4 296/3/4
f 297/2/4 298/2/4 300/2/4
f 298/1/4 299/1/4 301/1/4
f 300/2/4 298/2/4 301/2/4
f 301/1/4 299/1/4 302/1/4
f 303/2/4 304/2/4 306/2/4
f 304/1/4 305/1/4 307/1/4
f 306/2/4 304/2/4 307/2/4
f 307/1/4 305/1/4 308/1/4
f 309/2/4 310/2/4 312/2/4
f 310/1/4 311/1/4 313/1/4
f 312/2/4 310/2/4 313/2/4
f 313/1/4 311/1/4 314/1/4
f 315/2/4 316/2/4 318/2/4
f 316/1/4 317/1/4 319/1/4
f 318/2/4 316/2/4 319/2/4
f 319/1/4 317/1/4 320/1/4
f 321/2/4 322/2/4 323/2/4
f 323/2/4 322/2/4 324/2/4
f 325/2/4 326/2/4 327/2/4
f 327/2/4 326/2/4 328/2/4
f 329/2/4 330/2/4 331/2/4
f 331/2/4 330/2/4 332/2/4
f 333/2/4 334/2/4 335/2/4
f 335/2/4 334/2/4 336/2/4
f 339/2/4 340/2/4 341/2/4
f 341/2/4 340/2/4 342/2/4
f 337/2/4 338/2/4 343/2/4
f 337/2/4 343/2/4 345/2/4
f 343/2/4 344/2/4 345/2/4
f 345/2/4 344/2/4 346/2/4
f 347/2/4 348/2/4 349/2/4
f 349/2/4 348/2/4 350/2/4
f 337/2/4 345/2/4 351/2/4
f 337/2/4 351/2/4 353/2/4
f 351/2/4 352/2/4 353/2/4
f 353/2/4 352/2/4 354/2/4
f 355/2/4 356/2/4 357/2/4
f 357/2/4 356/2/4 358/2/4
f 359/2/4 360/2/4 361/2/4
f 361/2/4 360/2/4 362/2/4
f 363/2/4 364/2/4 366/2/4
f 364/1/4 365/1/4 367/1/4
f 366/2/4 364/2/4 367/2/4
f 367/1/4 365/1/4 368/1/4
f 371/2/5 370/2/5 369/2/5
f 372/2/5 370/2/5 371/2/5
f 377/2/5 374/2/5 373/2/5
f 378/2/5 376/2/5 375/2/5
f 379/2/5 377/2/5 373/2/5
f 379/2/5 378/2/5 377/2/5
f 380/2/5 376/2/5 378/2/5
f 380/2/5 378/2/5 379/2/5
f 389/2/5 382/2/5 381/2/5
f 390/2/5 384/2/5 383/2/5
f 391/2/5 386/2/5 385/2/5
f 392/2/5 388/2/5 387/2/5
f 393/2/5 389/2/5 381/2/5
f 393/2/5 390/2/5 389/2/5
f 394/2/5 384/2/5 390/2/5
f 394/2/5 390/2/5 393/2/5
f 395/2/5 391/2/5 385/2/5
f 395/2/5 392/2/5 391/2/5
f 396/2/5 388/2/5 392/2/5
f 396/2/5 392/2/5 395/2/5
f 401/2/5 398/2/5 397/2/5
f 402/2/5 398/2/5 401/2/5
f 403/2/5 400/2/5 399/2/5
f 404/2/5 400/2/5 403/2/5
f 405/2/5 400/2/5 404/2/5
f 406/2/5 400/2/5 405/2/5
f 407/2/5 401/2/5 397/2/5
f 408/2/5 401/2/5 407/2/5
f 409/2/5 405/2/5 404/2/5
f 410/2/5 405/2/5 409/2/5
f 413/2/5 412/2/5 411/2/5
f 414/2/5 412/2/5 413/2/5
f 415/2/5 412/2/5 414/2/5
f 416/2/5 412/2/5 415/2/5
f 417/2/5 415/2/5 414/2/5
f 418/2/5 415/2/5 417/2/5
f 419/2/5 412/2/5 416/2/5
f 420/2/5 412/2/5 419/2/5
f 425/2/5 422/2/5 421/2/5
f 426/2/5 424/2/5 423/2/5
f 427/2/5 424/2/5 426/2/5
f 428/2/5 412/2/5 420/2/5
f 429/2/5 427/2/5 426/2/5
f 429/2/5 428/2/5 427/2/5
f 429/2/5 425/2/5 421/2/5
f 429/2/5 426/2/5 425/2/5
f 430/2/5 412/2/5 428/2/5
f 430/2/5 428/2/5 429/2/5
f 431/2/6 432/2/6 435/2/6
f 435/2/6 432/2/6 436/2/6
f 433/2/6 434/2/6 437/2/6
f 437/2/6 434/2/6 438/2/6
f 439/2/6 440/2/6 441/2/6
f 441/2/6 440/2/6 442/2/6
f 443/2/6 444/2/6 445/2/6
f 445/2/6 444/2/6 446/2/6
f 447/2/6 448/2/6 451/2/6
f 451/2/6 448/2/6 452/2/6
f 449/2/6 450/2/6 453/2/6
f 453/2/6 450/2/6 454/2/6
f 447/2/6 451/2/6 455/2/6
f 452/2/6 448/2/6 456/2/6
f 449/2/6 453/2/6 457/2/6
f 454/2/6 450/2/6 458/2/6
f 447/2/6 455/2/6 459/2/6
f 455/2/6 456/2/6 459/2/6
f 456/2/6 448/2/6 460/2/6
f 459/2/6 456/2/6 460/2/6
f 457/2/6 458/2/6 461/2/6
f 449/2/6 457/2/6 461/2/6
f 458/2/6 450/2/6 462/2/6
f 461/2/6 458/2/6 462/2/6
f 463/2/6 464/2/6 467/2/6
f 467/2/6 464/2/6 468/2/6
f 465/2/6 466/2/6 469/2/6
f 469/2/6 466/2/6 470/2/6
f 473/1/6 474/1/6 480/1/6
f 480/1/6 474/1/6 481/1/6
f 475/1/6 476/1/6 482/1/6
f 482/1/6 476/1/6 483/1/6
f 477/1/6 478/1/6 484/1/6
f 484/1/6 478/1/6 485/1/6
f 471/1/6 472/1/6 486/1/6
f 484/1/6 485/1/6 487/1/6
f 485/1/6 486/1/6 487/1/6
f 482/1/6 483/1/6 487/1/6
f 480/1/6 481/1/6 487/1/6
f 483/1/6 484/1/6 487/1/6
f 479/1/6 480/1/6 487/1/6
f 481/1/6 482/1/6 487/1/6
f 486/1/6 472/1/6 488/1/6
f 487/1/6 486/1/6 488/1/6
f 491/1/6 492/1/6 504/1/6
f 493/1/6 494/1/6 505/1/6
f 495/1/6 496/1/6 506/1/6
f 497/1/6 498/1/6 507/1/6
f 499/1/6 500/1/6 508/1/6
f 501/1/6 502/1/6 509/1/6
f 489/1/6 490/1/6 510/1/6
f 503/1/6 504/1/6 511/1/6
f 504/1/6 492/1/6 512/1/6
f 511/1/6 504/1/6 512/1/6
f 493/1/6 505/1/6 513/1/6
f 505/1/6 506/1/6 513/1/6
f 506/1/6 496/1/6 514/1/6
f 513/1/6 506/1/6 514/1/6
f 507/1/6 508/1/6 515/1/6
f 497/1/6 507/1/6 515/1/6
f 508/1/6 500/1/6 516/1/6
f 515/1/6 508/1/6 516/1/6
f 501/1/6 509/1/6 517/1/6
f 509/1/6 510/1/6 517/1/6
f 510/1/6 490/1/6 518/1/6
f 517/1/6 510/1/6 518/1/6
f 519/2/6 520/2/6 522/2/6
f 522/2/6 520/2/6 523/2/6
f 523/2/6 520/2/6 524/2/6
f 524/2/6 520/2/6 525/2/6
f 525/2/6 520/2/6 526/2/6
f 526/2/6 520/2/6 527/2/6
f 519/2/6 522/2/6 528/2/6
f 522/3/6 523/3/6 529/3/6
f 528/2/6 522/2/6 529/2/6
f 523/2/6 524/2/6 530/2/6
f 529/3/6 523/3/6 530/3/6
f 530/2/6 524/2/6 531/2/6
f 531/2/6 524/2/6 532/2/6
f 524/3/6 525/3/6 533/3/6
f 532/2/6 524/2/6 533/2/6
f 525/2/6 526/2/6 534/2/6
f 533/3/6 525/3/6 534/3/6
f 534/2/6 526/2/6 535/2/6
f 535/2/6 526/2/6 536/2/6
f 526/3/6 527/3/6 537/3/6
f 536/2/6 526/2/6 537/2/6
f 527/2/6 520/2/6 538/2/6
f 537/3/6 527/3/6 538/3/6
f 538/2/6 520/2/6 539/2/6
f 519/2/6 528/2/6 540/2/6
f 528/3/6 529/3/6 541/3/6
f 540/2/6 528/2/6 541/2/6
f 531/2/6 532/2/6 542/2/6
f 530/3/6 531/3/6 542/3/6
f 532/3/6 533/3/6 543/3/6
f 542/2/6 532/2/6 543/2/6
f 535/2/6 536/2/6 544/2/6
f 534/3/6 535/3/6 544/3/6
f 536/3/6 537/3/6 545/3/6
f 544/2/6 536/2/6 545/2/6
f 539/2/6 520/2/6 546/2/6
f 538/3/6 539/3/6 546/3/6
f 520/3/6 521/3/6 547/3/6
f 546/2/6 520/2/6 547/2/6
f 540/3/6 541/3/6 548/3/6
f 541/3/6 529/3/6 549/3/6
f 548/3/6 541/3/6 549/3/6
f 530/3/6 542/3/6 550/3/6
f 542/3/6 543/3/6 550/3/6
f 543/3/6 533/3/6 551/3/6
f 550/3/6 543/3/6 551/3/6
f 534/3/6 544/3/6 552/3/6
f 544/3/6 545/3/6 552/3/6
f 545/3/6 537/3/6 553/3/6
f 552/3/6 545/3/6 553/3/6
f 538/3/6 546/3/6 554/3/6
f 546/3/6 547/3/6 554/3/6
f 547/3/6 521/3/6 555/3/6
f 554/3/6 547/3/6 555/3/6
