# MagicaVoxel @ Ephtracy

# group
g gr_4

# material
mtllib gr_4.mtl
usemtl palette

# normals
vn -1 0 0
vn 1 0 0
vn 0 0 1
vn 0 0 -1
vn 0 -1 0
vn 0 1 0

# texcoords
vt 0.0332031 0.5
vt 0.0371094 0.5
vt 0.0410156 0.5
vt 0.0488281 0.5
vt 0.0527344 0.5
vt 0.0566406 0.5

# verts
v -5 -5 5
v -5 -5 -5
v -5 -1 3
v -5 -1 -0
v -5 -1 -3
v -5 -1 -4
v -5 -1 -5
v -5 0 5
v -5 0 3
v -5 0 -0
v -5 0 -1
v -5 0 -3
v -5 0 -4
v -5 0 -5
v -5 1 2
v -5 1 1
v -5 1 -0
v -5 1 -1
v -5 1 -4
v -5 1 -5
v -5 2 4
v -5 2 3
v -5 2 2
v -5 2 1
v -5 3 -0
v -5 3 -2
v -5 3 -3
v -5 3 -4
v -5 4 5
v -5 4 4
v -5 4 3
v -5 4 -1
v -5 4 -2
v -5 4 -3
v -5 5 5
v -5 5 4
v -5 5 -0
v -5 5 -1
v -5 5 -2
v -5 5 -3
v -5 5 -4
v -5 5 -5
v 5 -5 5
v 5 -5 4
v 5 -5 2
v 5 -5 1
v 5 -5 -1
v 5 -5 -2
v 5 -5 -3
v 5 -5 -4
v 5 -5 -5
v 5 -4 5
v 5 -4 4
v 5 -4 3
v 5 -4 2
v 5 -4 -0
v 5 -4 -1
v 5 -4 -2
v 5 -4 -3
v 5 -4 -4
v 5 -4 -5
v 5 -3 5
v 5 -3 4
v 5 -3 3
v 5 -3 2
v 5 -3 1
v 5 -3 -0
v 5 -3 -1
v 5 -3 -2
v 5 -3 -3
v 5 -3 -4
v 5 -3 -5
v 5 -2 5
v 5 -2 4
v 5 -2 1
v 5 -2 -0
v 5 -2 -1
v 5 -2 -3
v 5 -2 -4
v 5 -2 -5
v 5 -1 5
v 5 -1 4
v 5 -1 3
v 5 -1 2
v 5 -1 1
v 5 -1 -0
v 5 -1 -1
v 5 -1 -2
v 5 -1 -3
v 5 -1 -4
v 5 0 4
v 5 0 3
v 5 0 2
v 5 0 1
v 5 0 -1
v 5 0 -2
v 5 0 -3
v 5 0 -4
v 5 1 2
v 5 1 1
v 5 1 -1
v 5 1 -2
v 5 1 -4
v 5 1 -5
v 5 2 5
v 5 2 4
v 5 2 -1
v 5 2 -3
v 5 2 -4
v 5 2 -5
v 5 3 5
v 5 3 4
v 5 3 3
v 5 3 2
v 5 3 1
v 5 3 -0
v 5 3 -1
v 5 3 -3
v 5 3 -4
v 5 3 -5
v 5 4 5
v 5 4 4
v 5 4 3
v 5 4 2
v 5 4 -0
v 5 5 5
v 5 5 3
v 5 5 2
v 5 5 -1
v 5 5 -3
v 5 5 -4
v 5 5 -5
v -5 -5 5
v -5 0 5
v -5 4 5
v -5 5 5
v -4 4 5
v -4 5 5
v -3 -5 5
v -3 -3 5
v -3 -2 5
v -3 0 5
v -2 -3 5
v -2 -2 5
v -2 -1 5
v -2 1 5
v -2 2 5
v -2 4 5
v -2 5 5
v -1 -5 5
v -1 -3 5
v -1 -2 5
v -1 -1 5
v -1 0 5
v -1 1 5
v -1 2 5
v -1 3 5
v -1 4 5
v 0 -5 5
v 0 -3 5
v 0 -2 5
v 0 -1 5
v 0 0 5
v 0 1 5
v 0 2 5
v 0 3 5
v 0 4 5
v 0 5 5
v 1 -5 5
v 1 -4 5
v 1 -2 5
v 1 -1 5
v 1 0 5
v 1 1 5
v 1 2 5
v 1 3 5
v 1 4 5
v 1 5 5
v 2 -5 5
v 2 -4 5
v 2 -2 5
v 2 -1 5
v 2 0 5
v 2 3 5
v 2 4 5
v 2 5 5
v 3 -5 5
v 3 -4 5
v 3 -3 5
v 3 -1 5
v 3 1 5
v 3 2 5
v 3 3 5
v 3 4 5
v 3 5 5
v 4 -5 5
v 4 -4 5
v 4 -3 5
v 4 -2 5
v 4 -1 5
v 4 0 5
v 4 1 5
v 4 4 5
v 4 5 5
v 5 -5 5
v 5 -4 5
v 5 -3 5
v 5 -2 5
v 5 -1 5
v 5 2 5
v 5 3 5
v 5 4 5
v 5 5 5
v -5 -5 -5
v -5 -1 -5
v -5 0 -5
v -5 1 -5
v -5 5 -5
v -4 -1 -5
v -4 0 -5
v -4 4 -5
v -4 5 -5
v -3 -5 -5
v -3 -4 -5
v -3 -3 -5
v -3 -2 -5
v -3 0 -5
v -3 1 -5
v -3 3 -5
v -2 -5 -5
v -2 -4 -5
v -2 -3 -5
v -2 -2 -5
v -2 0 -5
v -2 1 -5
v -2 2 -5
v -2 3 -5
v -2 4 -5
v -1 -3 -5
v -1 -2 -5
v -1 -1 -5
v -1 0 -5
v -1 1 -5
v -1 2 -5
v -1 3 -5
v -1 4 -5
v -1 5 -5
v 0 -5 -5
v 0 -4 -5
v 0 -2 -5
v 0 -1 -5
v 0 0 -5
v 0 1 -5
v 0 2 -5
v 0 3 -5
v 0 4 -5
v 0 5 -5
v 1 -5 -5
v 1 -4 -5
v 1 -3 -5
v 1 -2 -5
v 1 -1 -5
v 1 3 -5
v 1 5 -5
v 2 -5 -5
v 2 -4 -5
v 2 -3 -5
v 2 -2 -5
v 2 0 -5
v 2 1 -5
v 2 2 -5
v 2 3 -5
v 2 5 -5
v 3 -3 -5
v 3 -2 -5
v 3 -1 -5
v 3 0 -5
v 3 2 -5
v 3 4 -5
v 3 5 -5
v 4 -5 -5
v 4 -4 -5
v 4 -3 -5
v 4 -2 -5
v 4 -1 -5
v 4 1 -5
v 4 2 -5
v 4 3 -5
v 4 4 -5
v 4 5 -5
v 5 -5 -5
v 5 -4 -5
v 5 -3 -5
v 5 -2 -5
v 5 1 -5
v 5 2 -5
v 5 3 -5
v 5 5 -5
v -5 -5 5
v -3 -5 5
v -1 -5 5
v 0 -5 5
v 1 -5 5
v 2 -5 5
v 3 -5 5
v 4 -5 5
v 5 -5 5
v -3 -5 4
v -1 -5 4
v 0 -5 4
v 1 -5 4
v 2 -5 4
v 3 -5 4
v 4 -5 4
v 5 -5 4
v -2 -5 3
v -1 -5 3
v 1 -5 3
v 3 -5 3
v 4 -5 3
v -3 -5 2
v -2 -5 2
v -1 -5 2
v 0 -5 2
v 1 -5 2
v 2 -5 2
v 3 -5 2
v 5 -5 2
v 0 -5 1
v 1 -5 1
v 2 -5 1
v 3 -5 1
v 4 -5 1
v 5 -5 1
v 0 -5 -0
v 1 -5 -0
v 2 -5 -0
v 3 -5 -0
v 4 -5 -0
v -3 -5 -1
v -2 -5 -1
v -1 -5 -1
v 0 -5 -1
v 1 -5 -1
v 2 -5 -1
v 3 -5 -1
v 4 -5 -1
v 5 -5 -1
v -1 -5 -2
v 0 -5 -2
v 1 -5 -2
v 2 -5 -2
v 5 -5 -2
v -3 -5 -3
v -2 -5 -3
v -1 -5 -3
v 0 -5 -3
v 1 -5 -3
v 2 -5 -3
v 3 -5 -3
v 4 -5 -3
v 5 -5 -3
v -1 -5 -4
v 0 -5 -4
v 1 -5 -4
v 3 -5 -4
v 4 -5 -4
v 5 -5 -4
v -5 -5 -5
v -3 -5 -5
v -2 -5 -5
v 0 -5 -5
v 1 -5 -5
v 2 -5 -5
v 4 -5 -5
v 5 -5 -5
v -5 5 5
v -4 5 5
v -2 5 5
v 0 5 5
v 1 5 5
v 2 5 5
v 3 5 5
v 4 5 5
v 5 5 5
v -5 5 4
v -4 5 4
v -2 5 4
v -1 5 4
v 0 5 4
v 1 5 4
v 2 5 4
v 3 5 4
v -4 5 3
v -3 5 3
v -2 5 3
v -1 5 3
v 0 5 3
v 1 5 3
v 2 5 3
v 3 5 3
v 4 5 3
v 5 5 3
v -4 5 2
v -3 5 2
v -1 5 2
v 0 5 2
v 1 5 2
v 3 5 2
v 5 5 2
v -2 5 1
v -1 5 1
v 0 5 1
v 3 5 1
v 4 5 1
v -5 5 -0
v -3 5 -0
v -2 5 -0
v -1 5 -0
v 0 5 -0
v 1 5 -0
v 2 5 -0
v 3 5 -0
v -5 5 -1
v -4 5 -1
v -3 5 -1
v -2 5 -1
v -1 5 -1
v 1 5 -1
v 2 5 -1
v 3 5 -1
v 4 5 -1
v 5 5 -1
v -5 5 -2
v -4 5 -2
v -2 5 -2
v -1 5 -2
v 0 5 -2
v 1 5 -2
v 2 5 -2
v 3 5 -2
v 4 5 -2
v -5 5 -3
v -4 5 -3
v -2 5 -3
v -1 5 -3
v 0 5 -3
v 1 5 -3
v 2 5 -3
v 3 5 -3
v 4 5 -3
v 5 5 -3
v -5 5 -4
v -4 5 -4
v -3 5 -4
v -1 5 -4
v 0 5 -4
v 1 5 -4
v 2 5 -4
v 3 5 -4
v 4 5 -4
v 5 5 -4
v -5 5 -5
v -4 5 -5
v -1 5 -5
v 0 5 -5
v 1 5 -5
v 2 5 -5
v 3 5 -5
v 4 5 -5
v 5 5 -5

# faces
f 3/6/1 2/6/1 1/6/1
f 4/6/1 2/6/1 3/6/1
f 5/6/1 2/6/1 4/6/1
f 6/6/1 2/6/1 5/6/1
f 7/6/1 2/6/1 6/6/1
f 8/6/1 3/6/1 1/6/1
f 9/5/1 4/5/1 3/5/1
f 9/6/1 3/6/1 8/6/1
f 10/6/1 5/6/1 4/6/1
f 10/5/1 4/5/1 9/5/1
f 11/6/1 5/6/1 10/6/1
f 12/5/1 6/5/1 5/5/1
f 12/6/1 5/6/1 11/6/1
f 13/4/1 7/4/1 6/4/1
f 13/5/1 6/5/1 12/5/1
f 14/4/1 7/4/1 13/4/1
f 15/5/1 9/5/1 8/5/1
f 15/5/1 10/5/1 9/5/1
f 16/5/1 10/5/1 15/5/1
f 17/4/1 11/4/1 10/4/1
f 17/5/1 10/5/1 16/5/1
f 18/5/1 12/5/1 11/5/1
f 18/4/1 11/4/1 17/4/1
f 19/5/1 14/5/1 13/5/1
f 19/4/1 13/4/1 12/4/1
f 20/5/1 14/5/1 19/5/1
f 21/5/1 15/5/1 8/5/1
f 22/5/1 15/5/1 21/5/1
f 23/4/1 16/4/1 15/4/1
f 23/5/1 15/5/1 22/5/1
f 24/5/1 17/5/1 16/5/1
f 24/4/1 16/4/1 23/4/1
f 24/5/1 18/5/1 17/5/1
f 25/5/1 23/5/1 22/5/1
f 25/5/1 18/5/1 24/5/1
f 25/5/1 24/5/1 23/5/1
f 26/5/1 12/5/1 18/5/1
f 26/5/1 18/5/1 25/5/1
f 27/4/1 20/4/1 19/4/1
f 27/5/1 12/5/1 26/5/1
f 27/4/1 19/4/1 12/4/1
f 28/4/1 20/4/1 27/4/1
f 29/5/1 21/5/1 8/5/1
f 30/4/1 22/4/1 21/4/1
f 30/5/1 21/5/1 29/5/1
f 31/5/1 25/5/1 22/5/1
f 31/4/1 22/4/1 30/4/1
f 32/4/1 26/4/1 25/4/1
f 33/5/1 27/5/1 26/5/1
f 33/4/1 26/4/1 32/4/1
f 33/5/1 28/5/1 27/5/1
f 34/5/1 28/5/1 33/5/1
f 35/4/1 30/4/1 29/4/1
f 36/5/1 31/5/1 30/5/1
f 36/4/1 30/4/1 35/4/1
f 37/5/1 25/5/1 31/5/1
f 37/5/1 31/5/1 36/5/1
f 37/4/1 32/4/1 25/4/1
f 38/5/1 33/5/1 32/5/1
f 38/4/1 32/4/1 37/4/1
f 39/4/1 34/4/1 33/4/1
f 39/5/1 33/5/1 38/5/1
f 40/5/1 28/5/1 34/5/1
f 40/4/1 34/4/1 39/4/1
f 41/4/1 20/4/1 28/4/1
f 41/5/1 28/5/1 40/5/1
f 42/4/1 20/4/1 41/4/1
f 43/3/2 44/3/2 52/3/2
f 44/1/2 45/1/2 53/1/2
f 52/3/2 44/3/2 53/3/2
f 53/1/2 45/1/2 54/1/2
f 45/2/2 46/2/2 55/2/2
f 54/1/2 45/1/2 55/1/2
f 46/1/2 47/1/2 56/1/2
f 47/2/2 48/2/2 57/2/2
f 56/1/2 47/1/2 57/1/2
f 48/1/2 49/1/2 58/1/2
f 57/2/2 48/2/2 58/2/2
f 49/2/2 50/2/2 59/2/2
f 58/1/2 49/1/2 59/1/2
f 50/3/2 51/3/2 60/3/2
f 59/2/2 50/2/2 60/2/2
f 60/3/2 51/3/2 61/3/2
f 52/2/2 53/2/2 62/2/2
f 53/1/2 54/1/2 63/1/2
f 62/2/2 53/2/2 63/2/2
f 54/3/2 55/3/2 64/3/2
f 63/1/2 54/1/2 64/1/2
f 55/2/2 46/2/2 65/2/2
f 64/3/2 55/3/2 65/3/2
f 46/1/2 56/1/2 66/1/2
f 65/2/2 46/2/2 66/2/2
f 56/2/2 57/2/2 67/2/2
f 66/1/2 56/1/2 67/1/2
f 57/1/2 58/1/2 68/1/2
f 67/2/2 57/2/2 68/2/2
f 58/2/2 59/2/2 69/2/2
f 68/1/2 58/1/2 69/1/2
f 59/1/2 60/1/2 70/1/2
f 69/2/2 59/2/2 70/2/2
f 60/1/2 61/1/2 70/1/2
f 70/1/2 61/1/2 71/1/2
f 71/1/2 61/1/2 72/1/2
f 62/3/2 63/3/2 73/3/2
f 63/2/2 64/2/2 74/2/2
f 73/3/2 63/3/2 74/3/2
f 65/2/2 66/2/2 75/2/2
f 66/3/2 67/3/2 75/3/2
f 67/1/2 68/1/2 76/1/2
f 75/3/2 67/3/2 76/3/2
f 68/2/2 69/2/2 77/2/2
f 76/1/2 68/1/2 77/1/2
f 69/2/2 70/2/2 77/2/2
f 70/3/2 71/3/2 78/3/2
f 77/2/2 70/2/2 78/2/2
f 71/2/2 72/2/2 79/2/2
f 78/3/2 71/3/2 79/3/2
f 79/2/2 72/2/2 80/2/2
f 73/1/2 74/1/2 81/1/2
f 74/2/2 64/2/2 82/2/2
f 81/1/2 74/1/2 82/1/2
f 64/1/2 65/1/2 83/1/2
f 82/2/2 64/2/2 83/2/2
f 65/2/2 75/2/2 84/2/2
f 83/1/2 65/1/2 84/1/2
f 75/2/2 76/2/2 84/2/2
f 84/2/2 76/2/2 85/2/2
f 76/3/2 77/3/2 86/3/2
f 85/2/2 76/2/2 86/2/2
f 77/2/2 78/2/2 87/2/2
f 86/3/2 77/3/2 87/3/2
f 87/2/2 78/2/2 88/2/2
f 79/1/2 80/1/2 89/1/2
f 88/2/2 78/2/2 89/2/2
f 78/1/2 79/1/2 89/1/2
f 89/1/2 80/1/2 90/1/2
f 82/3/2 83/3/2 91/3/2
f 81/2/2 82/2/2 91/2/2
f 83/3/2 84/3/2 91/3/2
f 91/3/2 84/3/2 92/3/2
f 84/2/2 85/2/2 93/2/2
f 92/3/2 84/3/2 93/3/2
f 85/1/2 86/1/2 94/1/2
f 93/2/2 85/2/2 94/2/2
f 87/3/2 88/3/2 95/3/2
f 86/3/2 87/3/2 95/3/2
f 88/2/2 89/2/2 96/2/2
f 95/3/2 88/3/2 96/3/2
f 89/3/2 90/3/2 97/3/2
f 96/2/2 89/2/2 97/2/2
f 90/1/2 80/1/2 98/1/2
f 97/3/2 90/3/2 98/3/2
f 92/3/2 93/3/2 99/3/2
f 93/1/2 94/1/2 99/1/2
f 94/1/2 86/1/2 100/1/2
f 99/1/2 94/1/2 100/1/2
f 95/1/2 96/1/2 101/1/2
f 86/3/2 95/3/2 101/3/2
f 96/2/2 97/2/2 102/2/2
f 101/1/2 96/1/2 102/1/2
f 98/1/2 80/1/2 103/1/2
f 97/1/2 98/1/2 103/1/2
f 103/1/2 80/1/2 104/1/2
f 81/2/2 91/2/2 105/2/2
f 91/1/2 92/1/2 106/1/2
f 105/2/2 91/2/2 106/2/2
f 86/3/2 101/3/2 107/3/2
f 101/2/2 102/2/2 107/2/2
f 102/2/2 97/2/2 108/2/2
f 107/2/2 102/2/2 108/2/2
f 97/1/2 103/1/2 108/1/2
f 103/2/2 104/2/2 109/2/2
f 108/1/2 103/1/2 109/1/2
f 109/2/2 104/2/2 110/2/2
f 105/1/2 106/1/2 111/1/2
f 106/1/2 92/1/2 112/1/2
f 111/1/2 106/1/2 112/1/2
f 92/3/2 99/3/2 113/3/2
f 112/1/2 92/1/2 113/1/2
f 99/2/2 100/2/2 114/2/2
f 113/3/2 99/3/2 114/3/2
f 100/1/2 86/1/2 115/1/2
f 114/2/2 100/2/2 115/2/2
f 86/3/2 107/3/2 116/3/2
f 115/1/2 86/1/2 116/1/2
f 107/3/2 108/3/2 116/3/2
f 116/3/2 108/3/2 117/3/2
f 109/1/2 110/1/2 118/1/2
f 117/3/2 108/3/2 118/3/2
f 108/1/2 109/1/2 118/1/2
f 118/1/2 110/1/2 119/1/2
f 119/1/2 110/1/2 120/1/2
f 111/2/2 112/2/2 121/2/2
f 113/1/2 114/1/2 122/1/2
f 121/2/2 112/2/2 122/2/2
f 114/1/2 115/1/2 122/1/2
f 112/1/2 113/1/2 122/1/2
f 115/1/2 116/1/2 122/1/2
f 122/1/2 116/1/2 123/1/2
f 123/1/2 116/1/2 124/1/2
f 116/2/2 117/2/2 125/2/2
f 124/1/2 116/1/2 125/1/2
f 121/3/2 122/3/2 126/3/2
f 122/3/2 123/3/2 126/3/2
f 123/1/2 124/1/2 127/1/2
f 126/3/2 123/3/2 127/3/2
f 124/2/2 125/2/2 128/2/2
f 127/1/2 124/1/2 128/1/2
f 117/1/2 118/1/2 129/1/2
f 128/2/2 125/2/2 129/2/2
f 125/2/2 117/2/2 129/2/2
f 118/3/2 119/3/2 130/3/2
f 129/1/2 118/1/2 130/1/2
f 119/2/2 120/2/2 131/2/2
f 130/3/2 119/3/2 131/3/2
f 131/2/2 120/2/2 132/2/2
f 137/5/3 135/5/3 134/5/3
f 137/4/3 136/4/3 135/4/3
f 138/4/3 136/4/3 137/4/3
f 139/6/3 134/6/3 133/6/3
f 140/6/3 134/6/3 139/6/3
f 141/6/3 134/6/3 140/6/3
f 142/5/3 137/5/3 134/5/3
f 142/6/3 134/6/3 141/6/3
f 142/5/3 138/5/3 137/5/3
f 143/3/3 141/3/3 140/3/3
f 143/2/3 140/2/3 139/2/3
f 144/1/3 142/1/3 141/1/3
f 144/3/3 141/3/3 143/3/3
f 145/1/3 142/1/3 144/1/3
f 146/5/3 138/5/3 142/5/3
f 147/5/3 138/5/3 146/5/3
f 148/5/3 138/5/3 147/5/3
f 149/5/3 138/5/3 148/5/3
f 150/2/3 143/2/3 139/2/3
f 151/1/3 144/1/3 143/1/3
f 151/2/3 143/2/3 150/2/3
f 152/2/3 145/2/3 144/2/3
f 152/1/3 144/1/3 151/1/3
f 153/1/3 142/1/3 145/1/3
f 153/2/3 145/2/3 152/2/3
f 154/5/3 146/5/3 142/5/3
f 154/1/3 142/1/3 153/1/3
f 155/1/3 147/1/3 146/1/3
f 155/5/3 146/5/3 154/5/3
f 156/5/3 148/5/3 147/5/3
f 156/1/3 147/1/3 155/1/3
f 157/5/3 148/5/3 156/5/3
f 158/1/3 149/1/3 148/1/3
f 158/5/3 148/5/3 157/5/3
f 159/3/3 151/3/3 150/3/3
f 160/2/3 152/2/3 151/2/3
f 160/3/3 151/3/3 159/3/3
f 161/1/3 153/1/3 152/1/3
f 161/2/3 152/2/3 160/2/3
f 162/3/3 154/3/3 153/3/3
f 162/1/3 153/1/3 161/1/3
f 163/1/3 155/1/3 154/1/3
f 163/3/3 154/3/3 162/3/3
f 164/3/3 157/3/3 156/3/3
f 164/1/3 155/1/3 163/1/3
f 164/3/3 156/3/3 155/3/3
f 165/3/3 157/3/3 164/3/3
f 166/1/3 158/1/3 157/1/3
f 166/3/3 157/3/3 165/3/3
f 167/1/3 149/1/3 158/1/3
f 167/1/3 158/1/3 166/1/3
f 168/1/3 149/1/3 167/1/3
f 169/1/3 160/1/3 159/1/3
f 169/1/3 161/1/3 160/1/3
f 170/1/3 161/1/3 169/1/3
f 171/2/3 162/2/3 161/2/3
f 171/1/3 161/1/3 170/1/3
f 172/3/3 163/3/3 162/3/3
f 172/2/3 162/2/3 171/2/3
f 173/2/3 164/2/3 163/2/3
f 173/3/3 163/3/3 172/3/3
f 174/1/3 165/1/3 164/1/3
f 174/2/3 164/2/3 173/2/3
f 175/2/3 166/2/3 165/2/3
f 175/1/3 165/1/3 174/1/3
f 175/2/3 167/2/3 166/2/3
f 176/2/3 167/2/3 175/2/3
f 177/3/3 168/3/3 167/3/3
f 177/2/3 167/2/3 176/2/3
f 178/3/3 168/3/3 177/3/3
f 179/2/3 170/2/3 169/2/3
f 180/1/3 171/1/3 170/1/3
f 180/2/3 170/2/3 179/2/3
f 181/3/3 172/3/3 171/3/3
f 181/1/3 171/1/3 180/1/3
f 182/1/3 174/1/3 173/1/3
f 182/3/3 172/3/3 181/3/3
f 182/1/3 173/1/3 172/1/3
f 183/1/3 174/1/3 182/1/3
f 184/2/3 176/2/3 175/2/3
f 184/3/3 177/3/3 176/3/3
f 185/2/3 178/2/3 177/2/3
f 185/3/3 177/3/3 184/3/3
f 186/2/3 178/2/3 185/2/3
f 187/3/3 180/3/3 179/3/3
f 188/1/3 181/1/3 180/1/3
f 188/3/3 180/3/3 187/3/3
f 188/1/3 182/1/3 181/1/3
f 189/1/3 182/1/3 188/1/3
f 190/2/3 183/2/3 182/2/3
f 190/1/3 182/1/3 189/1/3
f 191/1/3 174/1/3 183/1/3
f 191/3/3 175/3/3 174/3/3
f 192/2/3 184/2/3 175/2/3
f 192/3/3 175/3/3 191/3/3
f 193/1/3 185/1/3 184/1/3
f 193/2/3 184/2/3 192/2/3
f 194/3/3 186/3/3 185/3/3
f 194/1/3 185/1/3 193/1/3
f 195/3/3 186/3/3 194/3/3
f 196/2/3 188/2/3 187/2/3
f 197/1/3 189/1/3 188/1/3
f 197/2/3 188/2/3 196/2/3
f 198/2/3 190/2/3 189/2/3
f 198/1/3 189/1/3 197/1/3
f 199/2/3 190/2/3 198/2/3
f 200/2/3 183/2/3 190/2/3
f 200/2/3 190/2/3 199/2/3
f 201/1/3 191/1/3 183/1/3
f 201/2/3 183/2/3 200/2/3
f 202/2/3 192/2/3 191/2/3
f 202/1/3 191/1/3 201/1/3
f 203/2/3 194/2/3 193/2/3
f 203/1/3 195/1/3 194/1/3
f 204/1/3 195/1/3 203/1/3
f 205/3/3 197/3/3 196/3/3
f 206/2/3 198/2/3 197/2/3
f 206/3/3 197/3/3 205/3/3
f 207/3/3 199/3/3 198/3/3
f 207/2/3 198/2/3 206/2/3
f 208/1/3 200/1/3 199/1/3
f 208/3/3 199/3/3 207/3/3
f 209/2/3 201/2/3 200/2/3
f 209/1/3 200/1/3 208/1/3
f 209/2/3 202/2/3 201/2/3
f 210/1/3 193/1/3 192/1/3
f 210/2/3 202/2/3 209/2/3
f 210/2/3 192/2/3 202/2/3
f 211/2/3 203/2/3 193/2/3
f 211/1/3 193/1/3 210/1/3
f 212/3/3 204/3/3 203/3/3
f 212/2/3 203/2/3 211/2/3
f 213/3/3 204/3/3 212/3/3
f 214/6/4 215/6/4 219/6/4
f 215/4/4 216/4/4 219/4/4
f 216/5/4 217/5/4 220/5/4
f 219/4/4 216/4/4 220/4/4
f 217/4/4 218/4/4 221/4/4
f 221/4/4 218/4/4 222/4/4
f 214/6/4 219/6/4 223/6/4
f 219/6/4 220/6/4 223/6/4
f 223/6/4 220/6/4 224/6/4
f 224/6/4 220/6/4 225/6/4
f 225/6/4 220/6/4 226/6/4
f 220/5/4 217/5/4 227/5/4
f 226/6/4 220/6/4 227/6/4
f 217/4/4 221/4/4 228/4/4
f 227/5/4 217/5/4 228/5/4
f 228/4/4 221/4/4 229/4/4
f 223/2/4 224/2/4 230/2/4
f 224/1/4 225/1/4 231/1/4
f 230/2/4 224/2/4 231/2/4
f 225/2/4 226/2/4 232/2/4
f 231/1/4 225/1/4 232/1/4
f 226/1/4 227/1/4 233/1/4
f 232/2/4 226/2/4 233/2/4
f 227/5/4 228/5/4 234/5/4
f 233/1/4 227/1/4 234/1/4
f 228/5/4 229/5/4 234/5/4
f 234/5/4 229/5/4 235/5/4
f 235/5/4 229/5/4 236/5/4
f 229/4/4 221/4/4 237/4/4
f 236/5/4 229/5/4 237/5/4
f 221/5/4 222/5/4 238/5/4
f 237/4/4 221/4/4 238/4/4
f 231/2/4 232/2/4 239/2/4
f 232/2/4 233/2/4 239/2/4
f 233/2/4 234/2/4 239/2/4
f 239/2/4 234/2/4 240/2/4
f 240/2/4 234/2/4 241/2/4
f 234/3/4 235/3/4 242/3/4
f 241/2/4 234/2/4 242/2/4
f 235/5/4 236/5/4 243/5/4
f 242/3/4 235/3/4 243/3/4
f 236/2/4 237/2/4 244/2/4
f 243/5/4 236/5/4 244/5/4
f 237/3/4 238/3/4 245/3/4
f 244/2/4 237/2/4 245/2/4
f 238/5/4 222/5/4 246/5/4
f 245/3/4 238/3/4 246/3/4
f 246/5/4 222/5/4 247/5/4
f 230/1/4 231/1/4 248/1/4
f 231/2/4 239/2/4 249/2/4
f 248/1/4 231/1/4 249/1/4
f 240/1/4 241/1/4 250/1/4
f 239/3/4 240/3/4 250/3/4
f 242/2/4 243/2/4 251/2/4
f 250/1/4 241/1/4 251/1/4
f 241/2/4 242/2/4 251/2/4
f 243/2/4 244/2/4 251/2/4
f 251/2/4 244/2/4 252/2/4
f 252/2/4 244/2/4 253/2/4
f 244/1/4 245/1/4 254/1/4
f 253/2/4 244/2/4 254/2/4
f 245/1/4 246/1/4 254/1/4
f 254/1/4 246/1/4 255/1/4
f 246/3/4 247/3/4 256/3/4
f 255/1/4 246/1/4 256/1/4
f 256/3/4 247/3/4 257/3/4
f 248/3/4 249/3/4 258/3/4
f 249/2/4 239/2/4 259/2/4
f 258/3/4 249/3/4 259/3/4
f 239/3/4 250/3/4 260/3/4
f 259/2/4 239/2/4 260/2/4
f 250/3/4 251/3/4 260/3/4
f 260/3/4 251/3/4 261/3/4
f 251/1/4 252/1/4 262/1/4
f 261/3/4 251/3/4 262/3/4
f 254/2/4 255/2/4 263/2/4
f 256/1/4 257/1/4 263/1/4
f 255/1/4 256/1/4 263/1/4
f 263/1/4 257/1/4 264/1/4
f 258/1/4 259/1/4 265/1/4
f 260/2/4 261/2/4 266/2/4
f 265/1/4 259/1/4 266/1/4
f 259/2/4 260/2/4 266/2/4
f 266/2/4 261/2/4 267/2/4
f 261/1/4 262/1/4 268/1/4
f 267/2/4 261/2/4 268/2/4
f 252/2/4 253/2/4 269/2/4
f 268/1/4 262/1/4 269/1/4
f 262/1/4 252/1/4 269/1/4
f 253/3/4 254/3/4 270/3/4
f 269/2/4 253/2/4 270/2/4
f 254/2/4 263/2/4 271/2/4
f 270/3/4 254/3/4 271/3/4
f 263/3/4 264/3/4 272/3/4
f 271/2/4 263/2/4 272/2/4
f 272/3/4 264/3/4 273/3/4
f 267/3/4 268/3/4 274/3/4
f 265/2/4 266/2/4 274/2/4
f 266/2/4 267/2/4 274/2/4
f 268/1/4 269/1/4 275/1/4
f 274/3/4 268/3/4 275/3/4
f 275/1/4 269/1/4 276/1/4
f 270/3/4 271/3/4 277/3/4
f 276/1/4 269/1/4 277/1/4
f 269/3/4 270/3/4 277/3/4
f 272/1/4 273/1/4 278/1/4
f 277/3/4 271/3/4 278/3/4
f 271/1/4 272/1/4 278/1/4
f 278/1/4 273/1/4 279/1/4
f 279/1/4 273/1/4 280/1/4
f 274/2/4 275/2/4 281/2/4
f 265/2/4 274/2/4 281/2/4
f 275/2/4 276/2/4 281/2/4
f 281/2/4 276/2/4 282/2/4
f 282/2/4 276/2/4 283/2/4
f 283/2/4 276/2/4 284/2/4
f 276/1/4 277/1/4 285/1/4
f 284/2/4 276/2/4 285/2/4
f 278/1/4 279/1/4 285/1/4
f 277/1/4 278/1/4 285/1/4
f 285/1/4 279/1/4 286/1/4
f 286/1/4 279/1/4 287/1/4
f 287/1/4 279/1/4 288/1/4
f 279/3/4 280/3/4 289/3/4
f 288/1/4 279/1/4 289/1/4
f 289/3/4 280/3/4 290/3/4
f 281/3/4 282/3/4 291/3/4
f 282/1/4 283/1/4 292/1/4
f 291/3/4 282/3/4 292/3/4
f 283/2/4 284/2/4 293/2/4
f 292/1/4 283/1/4 293/1/4
f 284/1/4 285/1/4 294/1/4
f 293/2/4 284/2/4 294/2/4
f 285/1/4 286/1/4 294/1/4
f 286/2/4 287/2/4 295/2/4
f 294/1/4 286/1/4 295/1/4
f 287/1/4 288/1/4 296/1/4
f 295/2/4 287/2/4 296/2/4
f 289/2/4 290/2/4 297/2/4
f 296/1/4 288/1/4 297/1/4
f 288/2/4 289/2/4 297/2/4
f 297/2/4 290/2/4 298/2/4
f 308/6/5 300/6/5 299/6/5
f 308/2/5 301/2/5 300/2/5
f 309/3/5 302/3/5 301/3/5
f 309/2/5 301/2/5 308/2/5
f 310/1/5 303/1/5 302/1/5
f 310/3/5 302/3/5 309/3/5
f 311/2/5 304/2/5 303/2/5
f 311/1/5 303/1/5 310/1/5
f 312/3/5 305/3/5 304/3/5
f 312/2/5 304/2/5 311/2/5
f 313/2/5 306/2/5 305/2/5
f 313/3/5 305/3/5 312/3/5
f 314/3/5 307/3/5 306/3/5
f 314/2/5 306/2/5 313/2/5
f 315/3/5 307/3/5 314/3/5
f 316/1/5 309/1/5 308/1/5
f 317/3/5 310/3/5 309/3/5
f 317/1/5 309/1/5 316/1/5
f 317/3/5 311/3/5 310/3/5
f 318/2/5 313/2/5 312/2/5
f 318/3/5 311/3/5 317/3/5
f 318/2/5 312/2/5 311/2/5
f 318/2/5 314/2/5 313/2/5
f 319/2/5 314/2/5 318/2/5
f 320/1/5 315/1/5 314/1/5
f 320/2/5 314/2/5 319/2/5
f 321/6/5 308/6/5 299/6/5
f 321/1/5 316/1/5 308/1/5
f 322/2/5 317/2/5 316/2/5
f 322/1/5 316/1/5 321/1/5
f 323/1/5 318/1/5 317/1/5
f 323/2/5 317/2/5 322/2/5
f 324/1/5 318/1/5 323/1/5
f 325/2/5 319/2/5 318/2/5
f 325/1/5 318/1/5 324/1/5
f 326/2/5 319/2/5 325/2/5
f 327/1/5 320/1/5 319/1/5
f 327/2/5 319/2/5 326/2/5
f 328/1/5 315/1/5 320/1/5
f 328/1/5 320/1/5 327/1/5
f 329/2/5 324/2/5 323/2/5
f 329/3/5 325/3/5 324/3/5
f 330/1/5 326/1/5 325/1/5
f 330/3/5 325/3/5 329/3/5
f 331/2/5 327/2/5 326/2/5
f 331/1/5 326/1/5 330/1/5
f 331/2/5 328/2/5 327/2/5
f 332/2/5 328/2/5 331/2/5
f 333/2/5 328/2/5 332/2/5
f 334/2/5 328/2/5 333/2/5
f 335/1/5 330/1/5 329/1/5
f 335/2/5 329/2/5 323/2/5
f 336/3/5 331/3/5 330/3/5
f 336/1/5 330/1/5 335/1/5
f 336/3/5 332/3/5 331/3/5
f 337/3/5 332/3/5 336/3/5
f 338/2/5 333/2/5 332/2/5
f 338/3/5 332/3/5 337/3/5
f 339/1/5 334/1/5 333/1/5
f 339/2/5 333/2/5 338/2/5
f 340/6/5 321/6/5 299/6/5
f 340/2/5 322/2/5 321/2/5
f 341/1/5 323/1/5 322/1/5
f 341/2/5 322/2/5 340/2/5
f 342/2/5 335/2/5 323/2/5
f 342/1/5 323/1/5 341/1/5
f 342/2/5 336/2/5 335/2/5
f 343/2/5 336/2/5 342/2/5
f 344/3/5 337/3/5 336/3/5
f 344/2/5 336/2/5 343/2/5
f 345/2/5 338/2/5 337/2/5
f 345/3/5 337/3/5 344/3/5
f 346/3/5 339/3/5 338/3/5
f 346/2/5 338/2/5 345/2/5
f 347/1/5 334/1/5 339/1/5
f 347/3/5 339/3/5 346/3/5
f 348/1/5 334/1/5 347/1/5
f 349/1/5 343/1/5 342/1/5
f 349/3/5 342/3/5 341/3/5
f 350/3/5 344/3/5 343/3/5
f 350/1/5 343/1/5 349/1/5
f 351/1/5 345/1/5 344/1/5
f 351/3/5 344/3/5 350/3/5
f 352/2/5 346/2/5 345/2/5
f 352/1/5 345/1/5 351/1/5
f 352/2/5 348/2/5 347/2/5
f 352/2/5 347/2/5 346/2/5
f 353/2/5 348/2/5 352/2/5
f 354/6/5 340/6/5 299/6/5
f 354/1/5 341/1/5 340/1/5
f 355/3/5 349/3/5 341/3/5
f 355/1/5 341/1/5 354/1/5
f 356/2/5 350/2/5 349/2/5
f 356/3/5 349/3/5 355/3/5
f 357/3/5 351/3/5 350/3/5
f 357/2/5 350/2/5 356/2/5
f 358/2/5 352/2/5 351/2/5
f 358/3/5 351/3/5 357/3/5
f 359/1/5 353/1/5 352/1/5
f 359/2/5 352/2/5 358/2/5
f 360/1/5 353/1/5 359/1/5
f 361/1/5 353/1/5 360/1/5
f 362/1/5 353/1/5 361/1/5
f 363/1/5 356/1/5 355/1/5
f 363/3/5 357/3/5 356/3/5
f 364/2/5 358/2/5 357/2/5
f 364/3/5 357/3/5 363/3/5
f 365/1/5 359/1/5 358/1/5
f 365/2/5 358/2/5 364/2/5
f 366/2/5 360/2/5 359/2/5
f 366/1/5 361/1/5 360/1/5
f 367/2/5 362/2/5 361/2/5
f 367/1/5 361/1/5 366/1/5
f 368/2/5 362/2/5 367/2/5
f 369/6/5 354/6/5 299/6/5
f 370/2/5 355/2/5 354/2/5
f 370/6/5 354/6/5 369/6/5
f 371/1/5 363/1/5 355/1/5
f 371/2/5 355/2/5 370/2/5
f 371/1/5 364/1/5 363/1/5
f 372/3/5 365/3/5 364/3/5
f 372/1/5 364/1/5 371/1/5
f 373/1/5 359/1/5 365/1/5
f 373/3/5 365/3/5 372/3/5
f 374/2/5 366/2/5 359/2/5
f 374/1/5 359/1/5 373/1/5
f 374/2/5 367/2/5 366/2/5
f 375/3/5 368/3/5 367/3/5
f 375/2/5 367/2/5 374/2/5
f 376/3/5 368/3/5 375/3/5
f 377/4/6 378/4/6 386/4/6
f 378/5/6 379/5/6 387/5/6
f 386/4/6 378/4/6 387/4/6
f 379/1/6 380/1/6 388/1/6
f 387/5/6 379/5/6 388/5/6
f 388/1/6 380/1/6 389/1/6
f 380/3/6 381/3/6 390/3/6
f 389/1/6 380/1/6 390/1/6
f 381/2/6 382/2/6 391/2/6
f 390/3/6 381/3/6 391/3/6
f 382/3/6 383/3/6 392/3/6
f 391/2/6 382/2/6 392/2/6
f 383/1/6 384/1/6 393/1/6
f 392/3/6 383/3/6 393/3/6
f 386/5/6 387/5/6 394/5/6
f 387/5/6 388/5/6 394/5/6
f 394/5/6 388/5/6 395/5/6
f 388/2/6 389/2/6 396/2/6
f 395/5/6 388/5/6 396/5/6
f 389/1/6 390/1/6 397/1/6
f 396/2/6 389/2/6 397/2/6
f 390/1/6 391/1/6 397/1/6
f 397/1/6 391/1/6 398/1/6
f 391/2/6 392/2/6 399/2/6
f 398/1/6 391/1/6 399/1/6
f 392/1/6 393/1/6 400/1/6
f 399/2/6 392/2/6 400/2/6
f 393/1/6 384/1/6 401/1/6
f 400/1/6 393/1/6 401/1/6
f 384/3/6 385/3/6 402/3/6
f 401/1/6 384/1/6 402/1/6
f 402/3/6 385/3/6 403/3/6
f 394/4/6 395/4/6 404/4/6
f 386/5/6 394/5/6 404/5/6
f 395/5/6 396/5/6 405/5/6
f 404/4/6 395/4/6 405/4/6
f 396/5/6 397/5/6 405/5/6
f 397/3/6 398/3/6 406/3/6
f 405/5/6 397/5/6 406/5/6
f 398/1/6 399/1/6 407/1/6
f 406/3/6 398/3/6 407/3/6
f 400/3/6 401/3/6 408/3/6
f 407/1/6 399/1/6 408/1/6
f 399/3/6 400/3/6 408/3/6
f 401/1/6 402/1/6 409/1/6
f 408/3/6 401/3/6 409/3/6
f 402/1/6 403/1/6 409/1/6
f 409/1/6 403/1/6 410/1/6
f 405/5/6 406/5/6 411/5/6
f 404/5/6 405/5/6 411/5/6
f 406/1/6 407/1/6 412/1/6
f 411/5/6 406/5/6 412/5/6
f 407/1/6 408/1/6 412/1/6
f 408/1/6 409/1/6 412/1/6
f 412/1/6 409/1/6 413/1/6
f 409/2/6 410/2/6 414/2/6
f 413/1/6 409/1/6 414/1/6
f 414/2/6 410/2/6 415/2/6
f 404/5/6 411/5/6 416/5/6
f 386/5/6 404/5/6 416/5/6
f 416/5/6 411/5/6 417/5/6
f 411/4/6 412/4/6 418/4/6
f 417/5/6 411/5/6 418/5/6
f 412/1/6 413/1/6 419/1/6
f 418/4/6 412/4/6 419/4/6
f 413/3/6 414/3/6 420/3/6
f 419/1/6 413/1/6 420/1/6
f 420/3/6 414/3/6 421/3/6
f 421/3/6 414/3/6 422/3/6
f 414/1/6 415/1/6 423/1/6
f 422/3/6 414/3/6 423/3/6
f 416/4/6 417/4/6 424/4/6
f 424/4/6 417/4/6 425/4/6
f 417/1/6 418/1/6 426/1/6
f 425/4/6 417/4/6 426/4/6
f 418/1/6 419/1/6 426/1/6
f 419/1/6 420/1/6 426/1/6
f 426/1/6 420/1/6 427/1/6
f 427/1/6 420/1/6 428/1/6
f 421/1/6 422/1/6 429/1/6
f 420/2/6 421/2/6 429/2/6
f 422/2/6 423/2/6 430/2/6
f 429/1/6 422/1/6 430/1/6
f 423/1/6 415/1/6 431/1/6
f 430/2/6 423/2/6 431/2/6
f 415/2/6 410/2/6 432/2/6
f 431/1/6 415/1/6 432/1/6
f 432/2/6 410/2/6 433/2/6
f 424/5/6 425/5/6 434/5/6
f 425/4/6 426/4/6 435/4/6
f 434/5/6 425/5/6 435/5/6
f 427/3/6 428/3/6 436/3/6
f 426/5/6 427/5/6 436/5/6
f 428/1/6 420/1/6 437/1/6
f 436/3/6 428/3/6 437/3/6
f 420/2/6 429/2/6 438/2/6
f 437/1/6 420/1/6 438/1/6
f 429/3/6 430/3/6 439/3/6
f 438/2/6 429/2/6 439/2/6
f 430/1/6 431/1/6 440/1/6
f 439/3/6 430/3/6 440/3/6
f 431/1/6 432/1/6 440/1/6
f 432/1/6 433/1/6 440/1/6
f 440/1/6 433/1/6 441/1/6
f 441/1/6 433/1/6 442/1/6
f 434/4/6 435/4/6 443/4/6
f 435/4/6 426/4/6 444/4/6
f 443/4/6 435/4/6 444/4/6
f 426/5/6 436/5/6 445/5/6
f 437/2/6 438/2/6 445/2/6
f 436/2/6 437/2/6 445/2/6
f 445/2/6 438/2/6 446/2/6
f 438/3/6 439/3/6 447/3/6
f 446/2/6 438/2/6 447/2/6
f 439/1/6 440/1/6 448/1/6
f 447/3/6 439/3/6 448/3/6
f 440/2/6 441/2/6 449/2/6
f 448/1/6 440/1/6 449/1/6
f 441/3/6 442/3/6 450/3/6
f 449/2/6 441/2/6 450/2/6
f 442/1/6 433/1/6 451/1/6
f 450/3/6 442/3/6 451/3/6
f 451/1/6 433/1/6 452/1/6
f 443/5/6 444/5/6 453/5/6
f 444/4/6 426/4/6 454/4/6
f 453/5/6 444/5/6 454/5/6
f 445/5/6 446/5/6 455/5/6
f 454/4/6 426/4/6 455/4/6
f 426/5/6 445/5/6 455/5/6
f 446/2/6 447/2/6 456/2/6
f 455/5/6 446/5/6 456/5/6
f 448/1/6 449/1/6 457/1/6
f 456/2/6 447/2/6 457/2/6
f 449/1/6 450/1/6 457/1/6
f 450/1/6 451/1/6 457/1/6
f 447/1/6 448/1/6 457/1/6
f 457/1/6 451/1/6 458/1/6
f 458/1/6 451/1/6 459/1/6
f 459/1/6 451/1/6 460/1/6
f 451/3/6 452/3/6 461/3/6
f 460/1/6 451/1/6 461/1/6
f 461/3/6 452/3/6 462/3/6
f 453/4/6 454/4/6 463/4/6
f 455/5/6 456/5/6 464/5/6
f 463/4/6 454/4/6 464/4/6
f 454/5/6 455/5/6 464/5/6
f 456/3/6 457/3/6 465/3/6
f 464/5/6 456/5/6 465/5/6
f 457/1/6 458/1/6 466/1/6
f 465/3/6 457/3/6 466/3/6
f 458/3/6 459/3/6 467/3/6
f 466/1/6 458/1/6 467/1/6
f 459/1/6 460/1/6 468/1/6
f 467/3/6 459/3/6 468/3/6
f 460/3/6 461/3/6 469/3/6
f 468/1/6 460/1/6 469/1/6
f 461/2/6 462/2/6 470/2/6
f 469/3/6 461/3/6 470/3/6
f 470/2/6 462/2/6 471/2/6
