# MagicaVoxel @ Ephtracy

# group
g Special_PowerLine_CrossLine

# material
mtllib Special_PowerLine_CrossLine.mtl
usemtl palette

# normals
vn -1 0 0
vn 1 0 0
vn 0 0 1
vn 0 0 -1
vn 0 -1 0
vn 0 1 0

# texcoords
vt 0.197266 0.5
vt 0.353516 0.5
vt 0.357422 0.5
vt 0.361328 0.5

# verts
v -5 -5 3
v -5 -5 -3
v -5 -4 4
v -5 -4 3
v -5 -4 -3
v -5 -4 -4
v -5 -3 5
v -5 -3 4
v -5 -3 -4
v -5 -3 -5
v -5 -2 5
v -5 -2 4
v -5 -1 5
v -5 -1 4
v -5 1 5
v -5 1 4
v -5 2 5
v -5 2 4
v -5 3 5
v -5 3 4
v -5 3 -4
v -5 3 -5
v -5 4 4
v -5 4 3
v -5 4 -3
v -5 4 -4
v -5 5 3
v -5 5 -3
v -4 -5 4
v -4 -5 3
v -4 -5 -3
v -4 -5 -4
v -4 -4 5
v -4 -4 4
v -4 -4 3
v -4 -4 -3
v -4 -4 -4
v -4 -4 -5
v -4 -3 5
v -4 -3 4
v -4 -3 -4
v -4 -3 -5
v -4 3 5
v -4 3 4
v -4 3 -4
v -4 3 -5
v -4 4 5
v -4 4 4
v -4 4 3
v -4 4 -3
v -4 4 -4
v -4 4 -5
v -4 5 4
v -4 5 3
v -4 5 -3
v -4 5 -4
v -3 -5 5
v -3 -5 4
v -3 -5 -4
v -3 -5 -5
v -3 -4 5
v -3 -4 4
v -3 -4 -4
v -3 -4 -5
v -3 4 5
v -3 4 4
v -3 4 -4
v -3 4 -5
v -3 5 5
v -3 5 4
v -3 5 -4
v -3 5 -5
v 3 -5 5
v 3 -5 4
v 3 -5 -4
v 3 -5 -5
v 3 -4 5
v 3 -4 4
v 3 -4 -4
v 3 -4 -5
v 3 4 5
v 3 4 4
v 3 4 -4
v 3 4 -5
v 3 5 5
v 3 5 4
v 3 5 -4
v 3 5 -5
v 4 -5 4
v 4 -5 3
v 4 -5 -3
v 4 -5 -4
v 4 -4 5
v 4 -4 4
v 4 -4 3
v 4 -4 -3
v 4 -4 -4
v 4 -4 -5
v 4 -3 5
v 4 -3 4
v 4 -3 -4
v 4 -3 -5
v 4 3 5
v 4 3 4
v 4 3 -4
v 4 3 -5
v 4 4 5
v 4 4 4
v 4 4 3
v 4 4 -3
v 4 4 -4
v 4 4 -5
v 4 5 4
v 4 5 3
v 4 5 -3
v 4 5 -4
v 5 -5 3
v 5 -5 -3
v 5 -4 4
v 5 -4 3
v 5 -4 -3
v 5 -4 -4
v 5 -3 5
v 5 -3 4
v 5 -3 -4
v 5 -3 -5
v 5 -2 5
v 5 -2 4
v 5 -1 5
v 5 -1 4
v 5 1 5
v 5 1 4
v 5 2 5
v 5 2 4
v 5 3 5
v 5 3 4
v 5 3 -4
v 5 3 -5
v 5 4 4
v 5 4 3
v 5 4 -3
v 5 4 -4
v 5 5 3
v 5 5 -3
v -5 -3 5
v -5 -2 5
v -5 -1 5
v -5 1 5
v -5 2 5
v -5 3 5
v -4 -4 5
v -4 -3 5
v -4 -2 5
v -4 -1 5
v -4 1 5
v -4 2 5
v -4 3 5
v -4 4 5
v -3 -5 5
v -3 -4 5
v -3 4 5
v -3 5 5
v -2 -5 5
v -2 -4 5
v -2 -2 5
v -2 2 5
v -2 4 5
v -2 5 5
v -1 -5 5
v -1 -4 5
v -1 -1 5
v -1 1 5
v -1 4 5
v -1 5 5
v 1 -5 5
v 1 -4 5
v 1 -1 5
v 1 1 5
v 1 4 5
v 1 5 5
v 2 -5 5
v 2 -4 5
v 2 -2 5
v 2 2 5
v 2 4 5
v 2 5 5
v 3 -5 5
v 3 -4 5
v 3 4 5
v 3 5 5
v 4 -4 5
v 4 -3 5
v 4 -2 5
v 4 -1 5
v 4 1 5
v 4 2 5
v 4 3 5
v 4 4 5
v 5 -3 5
v 5 -2 5
v 5 -1 5
v 5 1 5
v 5 2 5
v 5 3 5
v -5 -4 4
v -5 -3 4
v -5 3 4
v -5 4 4
v -4 -5 4
v -4 -4 4
v -4 -3 4
v -4 3 4
v -4 4 4
v -4 5 4
v -3 -5 4
v -3 -4 4
v -3 4 4
v -3 5 4
v 3 -5 4
v 3 -4 4
v 3 4 4
v 3 5 4
v 4 -5 4
v 4 -4 4
v 4 -3 4
v 4 3 4
v 4 4 4
v 4 5 4
v 5 -4 4
v 5 -3 4
v 5 3 4
v 5 4 4
v -5 -5 3
v -5 -4 3
v -5 4 3
v -5 5 3
v -4 -5 3
v -4 -4 3
v -4 4 3
v -4 5 3
v 4 -5 3
v 4 -4 3
v 4 4 3
v 4 5 3
v 5 -5 3
v 5 -4 3
v 5 4 3
v 5 5 3
v -5 -5 -3
v -5 -4 -3
v -5 4 -3
v -5 5 -3
v -4 -5 -3
v -4 -4 -3
v -4 4 -3
v -4 5 -3
v 4 -5 -3
v 4 -4 -3
v 4 4 -3
v 4 5 -3
v 5 -5 -3
v 5 -4 -3
v 5 4 -3
v 5 5 -3
v -5 -4 -4
v -5 -3 -4
v -5 3 -4
v -5 4 -4
v -4 -5 -4
v -4 -4 -4
v -4 -3 -4
v -4 3 -4
v -4 4 -4
v -4 5 -4
v -3 -5 -4
v -3 -4 -4
v -3 4 -4
v -3 5 -4
v 3 -5 -4
v 3 -4 -4
v 3 4 -4
v 3 5 -4
v 4 -5 -4
v 4 -4 -4
v 4 -3 -4
v 4 3 -4
v 4 4 -4
v 4 5 -4
v 5 -4 -4
v 5 -3 -4
v 5 3 -4
v 5 4 -4
v -5 -3 -5
v -5 3 -5
v -4 -4 -5
v -4 -3 -5
v -4 3 -5
v -4 4 -5
v -3 -5 -5
v -3 -4 -5
v -3 4 -5
v -3 5 -5
v 3 -5 -5
v 3 -4 -5
v 3 4 -5
v 3 5 -5
v 4 -4 -5
v 4 -3 -5
v 4 3 -5
v 4 4 -5
v 5 -3 -5
v 5 3 -5
v -3 -5 5
v -2 -5 5
v -1 -5 5
v 1 -5 5
v 2 -5 5
v 3 -5 5
v -4 -5 4
v -3 -5 4
v -2 -5 4
v -1 -5 4
v 1 -5 4
v 2 -5 4
v 3 -5 4
v 4 -5 4
v -5 -5 3
v -4 -5 3
v 4 -5 3
v 5 -5 3
v -5 -5 -3
v -4 -5 -3
v 4 -5 -3
v 5 -5 -3
v -4 -5 -4
v -3 -5 -4
v 3 -5 -4
v 4 -5 -4
v -3 -5 -5
v 3 -5 -5
v -4 -4 5
v -3 -4 5
v 3 -4 5
v 4 -4 5
v -5 -4 4
v -4 -4 4
v -3 -4 4
v 3 -4 4
v 4 -4 4
v 5 -4 4
v -5 -4 3
v -4 -4 3
v 4 -4 3
v 5 -4 3
v -5 -4 -3
v -4 -4 -3
v 4 -4 -3
v 5 -4 -3
v -5 -4 -4
v -4 -4 -4
v -3 -4 -4
v 3 -4 -4
v 4 -4 -4
v 5 -4 -4
v -4 -4 -5
v -3 -4 -5
v 3 -4 -5
v 4 -4 -5
v -5 -3 5
v -4 -3 5
v 4 -3 5
v 5 -3 5
v -5 -3 4
v -4 -3 4
v 4 -3 4
v 5 -3 4
v -5 -3 -4
v -4 -3 -4
v 4 -3 -4
v 5 -3 -4
v -5 -3 -5
v -4 -3 -5
v 4 -3 -5
v 5 -3 -5
v -5 3 5
v -4 3 5
v 4 3 5
v 5 3 5
v -5 3 4
v -4 3 4
v 4 3 4
v 5 3 4
v -5 3 -4
v -4 3 -4
v 4 3 -4
v 5 3 -4
v -5 3 -5
v -4 3 -5
v 4 3 -5
v 5 3 -5
v -4 4 5
v -3 4 5
v 3 4 5
v 4 4 5
v -5 4 4
v -4 4 4
v -3 4 4
v 3 4 4
v 4 4 4
v 5 4 4
v -5 4 3
v -4 4 3
v 4 4 3
v 5 4 3
v -5 4 -3
v -4 4 -3
v 4 4 -3
v 5 4 -3
v -5 4 -4
v -4 4 -4
v -3 4 -4
v 3 4 -4
v 4 4 -4
v 5 4 -4
v -4 4 -5
v -3 4 -5
v 3 4 -5
v 4 4 -5
v -3 5 5
v -2 5 5
v -1 5 5
v 1 5 5
v 2 5 5
v 3 5 5
v -4 5 4
v -3 5 4
v -2 5 4
v -1 5 4
v 1 5 4
v 2 5 4
v 3 5 4
v 4 5 4
v -5 5 3
v -4 5 3
v 4 5 3
v 5 5 3
v -5 5 -3
v -4 5 -3
v 4 5 -3
v 5 5 -3
v -4 5 -4
v -3 5 -4
v 3 5 -4
v 4 5 -4
v -3 5 -5
v 3 5 -5

# faces
f 4/1/1 2/1/1 1/1/1
f 5/1/1 2/1/1 4/1/1
f 8/1/1 4/1/1 3/1/1
f 8/1/1 6/1/1 5/1/1
f 8/1/1 5/1/1 4/1/1
f 9/1/1 6/1/1 8/1/1
f 11/1/1 8/1/1 7/1/1
f 11/1/1 10/1/1 9/1/1
f 11/1/1 9/1/1 8/1/1
f 12/1/1 10/1/1 11/1/1
f 13/3/1 12/3/1 11/3/1
f 14/1/1 10/1/1 12/1/1
f 14/3/1 12/3/1 13/3/1
f 15/4/1 14/4/1 13/4/1
f 16/1/1 10/1/1 14/1/1
f 16/4/1 14/4/1 15/4/1
f 17/3/1 16/3/1 15/3/1
f 18/1/1 10/1/1 16/1/1
f 18/3/1 16/3/1 17/3/1
f 19/1/1 18/1/1 17/1/1
f 20/1/1 10/1/1 18/1/1
f 20/1/1 18/1/1 19/1/1
f 21/1/1 10/1/1 20/1/1
f 22/1/1 10/1/1 21/1/1
f 23/1/1 21/1/1 20/1/1
f 24/1/1 21/1/1 23/1/1
f 25/1/1 21/1/1 24/1/1
f 26/1/1 21/1/1 25/1/1
f 27/1/1 25/1/1 24/1/1
f 28/1/1 25/1/1 27/1/1
f 34/1/1 30/1/1 29/1/1
f 35/1/1 30/1/1 34/1/1
f 36/1/1 32/1/1 31/1/1
f 37/1/1 32/1/1 36/1/1
f 39/1/1 34/1/1 33/1/1
f 40/1/1 34/1/1 39/1/1
f 41/1/1 38/1/1 37/1/1
f 42/1/1 38/1/1 41/1/1
f 47/1/1 44/1/1 43/1/1
f 48/1/1 44/1/1 47/1/1
f 51/1/1 46/1/1 45/1/1
f 52/1/1 46/1/1 51/1/1
f 53/1/1 49/1/1 48/1/1
f 54/1/1 49/1/1 53/1/1
f 55/1/1 51/1/1 50/1/1
f 56/1/1 51/1/1 55/1/1
f 61/1/1 58/1/1 57/1/1
f 62/1/1 58/1/1 61/1/1
f 63/1/1 60/1/1 59/1/1
f 64/1/1 60/1/1 63/1/1
f 69/1/1 66/1/1 65/1/1
f 70/1/1 66/1/1 69/1/1
f 71/1/1 68/1/1 67/1/1
f 72/1/1 68/1/1 71/1/1
f 73/1/2 74/1/2 77/1/2
f 77/1/2 74/1/2 78/1/2
f 75/1/2 76/1/2 79/1/2
f 79/1/2 76/1/2 80/1/2
f 81/1/2 82/1/2 85/1/2
f 85/1/2 82/1/2 86/1/2
f 83/1/2 84/1/2 87/1/2
f 87/1/2 84/1/2 88/1/2
f 89/1/2 90/1/2 94/1/2
f 94/1/2 90/1/2 95/1/2
f 91/1/2 92/1/2 96/1/2
f 96/1/2 92/1/2 97/1/2
f 93/1/2 94/1/2 99/1/2
f 99/1/2 94/1/2 100/1/2
f 97/1/2 98/1/2 101/1/2
f 101/1/2 98/1/2 102/1/2
f 103/1/2 104/1/2 107/1/2
f 107/1/2 104/1/2 108/1/2
f 105/1/2 106/1/2 111/1/2
f 111/1/2 106/1/2 112/1/2
f 108/1/2 109/1/2 113/1/2
f 113/1/2 109/1/2 114/1/2
f 110/1/2 111/1/2 115/1/2
f 115/1/2 111/1/2 116/1/2
f 117/1/2 118/1/2 120/1/2
f 120/1/2 118/1/2 121/1/2
f 119/1/2 120/1/2 124/1/2
f 121/1/2 122/1/2 124/1/2
f 120/1/2 121/1/2 124/1/2
f 124/1/2 122/1/2 125/1/2
f 123/1/2 124/1/2 127/1/2
f 125/1/2 126/1/2 127/1/2
f 124/1/2 125/1/2 127/1/2
f 127/1/2 126/1/2 128/1/2
f 127/3/2 128/3/2 129/3/2
f 128/1/2 126/1/2 130/1/2
f 129/3/2 128/3/2 130/3/2
f 129/4/2 130/4/2 131/4/2
f 130/1/2 126/1/2 132/1/2
f 131/4/2 130/4/2 132/4/2
f 131/3/2 132/3/2 133/3/2
f 132/1/2 126/1/2 134/1/2
f 133/3/2 132/3/2 134/3/2
f 133/1/2 134/1/2 135/1/2
f 134/1/2 126/1/2 136/1/2
f 135/1/2 134/1/2 136/1/2
f 136/1/2 126/1/2 137/1/2
f 137/1/2 126/1/2 138/1/2
f 136/1/2 137/1/2 139/1/2
f 139/1/2 137/1/2 140/1/2
f 140/1/2 137/1/2 141/1/2
f 141/1/2 137/1/2 142/1/2
f 140/1/2 141/1/2 143/1/2
f 143/1/2 141/1/2 144/1/2
f 152/1/3 146/1/3 145/1/3
f 153/3/3 147/3/3 146/3/3
f 153/1/3 146/1/3 152/1/3
f 154/4/3 148/4/3 147/4/3
f 154/3/3 147/3/3 153/3/3
f 155/3/3 149/3/3 148/3/3
f 155/4/3 148/4/3 154/4/3
f 156/1/3 150/1/3 149/1/3
f 156/3/3 149/3/3 155/3/3
f 157/1/3 150/1/3 156/1/3
f 160/1/3 152/1/3 151/1/3
f 160/1/3 153/1/3 152/1/3
f 161/1/3 158/1/3 157/1/3
f 161/1/3 157/1/3 156/1/3
f 163/1/3 160/1/3 159/1/3
f 164/1/3 153/1/3 160/1/3
f 164/1/3 160/1/3 163/1/3
f 165/2/3 154/2/3 153/2/3
f 165/1/3 153/1/3 164/1/3
f 166/1/3 162/1/3 161/1/3
f 166/2/3 156/2/3 155/2/3
f 166/1/3 161/1/3 156/1/3
f 167/1/3 162/1/3 166/1/3
f 168/1/3 162/1/3 167/1/3
f 169/3/3 164/3/3 163/3/3
f 170/2/3 165/2/3 164/2/3
f 170/3/3 164/3/3 169/3/3
f 171/4/3 155/4/3 154/4/3
f 171/2/3 165/2/3 170/2/3
f 171/2/3 154/2/3 165/2/3
f 172/2/3 166/2/3 155/2/3
f 172/4/3 155/4/3 171/4/3
f 172/2/3 167/2/3 166/2/3
f 173/3/3 168/3/3 167/3/3
f 173/2/3 167/2/3 172/2/3
f 174/3/3 168/3/3 173/3/3
f 175/4/3 170/4/3 169/4/3
f 175/4/3 172/4/3 171/4/3
f 175/4/3 174/4/3 173/4/3
f 175/4/3 173/4/3 172/4/3
f 175/4/3 171/4/3 170/4/3
f 176/4/3 174/4/3 175/4/3
f 177/4/3 174/4/3 176/4/3
f 178/4/3 174/4/3 177/4/3
f 179/4/3 174/4/3 178/4/3
f 180/4/3 174/4/3 179/4/3
f 181/3/3 176/3/3 175/3/3
f 182/2/3 177/2/3 176/2/3
f 182/3/3 176/3/3 181/3/3
f 183/2/3 177/2/3 182/2/3
f 184/2/3 179/2/3 178/2/3
f 185/3/3 180/3/3 179/3/3
f 185/2/3 179/2/3 184/2/3
f 186/3/3 180/3/3 185/3/3
f 187/1/3 182/1/3 181/1/3
f 187/1/3 183/1/3 182/1/3
f 188/1/3 183/1/3 187/1/3
f 189/1/3 186/1/3 185/1/3
f 189/1/3 185/1/3 184/1/3
f 190/1/3 186/1/3 189/1/3
f 191/1/3 183/1/3 188/1/3
f 192/1/3 183/1/3 191/1/3
f 193/2/3 177/2/3 183/2/3
f 193/1/3 183/1/3 192/1/3
f 194/4/3 178/4/3 177/4/3
f 194/2/3 177/2/3 193/2/3
f 195/2/3 184/2/3 178/2/3
f 195/4/3 178/4/3 194/4/3
f 196/1/3 189/1/3 184/1/3
f 196/2/3 184/2/3 195/2/3
f 197/1/3 189/1/3 196/1/3
f 198/1/3 189/1/3 197/1/3
f 199/1/3 193/1/3 192/1/3
f 200/3/3 194/3/3 193/3/3
f 200/1/3 193/1/3 199/1/3
f 201/4/3 195/4/3 194/4/3
f 201/3/3 194/3/3 200/3/3
f 202/3/3 196/3/3 195/3/3
f 202/4/3 195/4/3 201/4/3
f 203/1/3 197/1/3 196/1/3
f 203/3/3 196/3/3 202/3/3
f 204/1/3 197/1/3 203/1/3
f 210/1/3 206/1/3 205/1/3
f 211/1/3 206/1/3 210/1/3
f 212/1/3 208/1/3 207/1/3
f 213/1/3 208/1/3 212/1/3
f 215/1/3 210/1/3 209/1/3
f 216/1/3 210/1/3 215/1/3
f 217/1/3 214/1/3 213/1/3
f 218/1/3 214/1/3 217/1/3
f 223/1/3 220/1/3 219/1/3
f 224/1/3 220/1/3 223/1/3
f 227/1/3 222/1/3 221/1/3
f 228/1/3 222/1/3 227/1/3
f 229/1/3 225/1/3 224/1/3
f 230/1/3 225/1/3 229/1/3
f 231/1/3 227/1/3 226/1/3
f 232/1/3 227/1/3 231/1/3
f 237/1/3 234/1/3 233/1/3
f 238/1/3 234/1/3 237/1/3
f 239/1/3 236/1/3 235/1/3
f 240/1/3 236/1/3 239/1/3
f 245/1/3 242/1/3 241/1/3
f 246/1/3 242/1/3 245/1/3
f 247/1/3 244/1/3 243/1/3
f 248/1/3 244/1/3 247/1/3
f 249/1/4 250/1/4 253/1/4
f 253/1/4 250/1/4 254/1/4
f 251/1/4 252/1/4 255/1/4
f 255/1/4 252/1/4 256/1/4
f 257/1/4 258/1/4 261/1/4
f 261/1/4 258/1/4 262/1/4
f 259/1/4 260/1/4 263/1/4
f 263/1/4 260/1/4 264/1/4
f 265/1/4 266/1/4 270/1/4
f 270/1/4 266/1/4 271/1/4
f 267/1/4 268/1/4 272/1/4
f 272/1/4 268/1/4 273/1/4
f 269/1/4 270/1/4 275/1/4
f 275/1/4 270/1/4 276/1/4
f 273/1/4 274/1/4 277/1/4
f 277/1/4 274/1/4 278/1/4
f 279/1/4 280/1/4 283/1/4
f 283/1/4 280/1/4 284/1/4
f 281/1/4 282/1/4 287/1/4
f 287/1/4 282/1/4 288/1/4
f 284/1/4 285/1/4 289/1/4
f 289/1/4 285/1/4 290/1/4
f 286/1/4 287/1/4 291/1/4
f 291/1/4 287/1/4 292/1/4
f 293/1/4 294/1/4 296/1/4
f 296/1/4 294/1/4 297/1/4
f 295/1/4 296/1/4 300/1/4
f 297/1/4 298/1/4 300/1/4
f 296/1/4 297/1/4 300/1/4
f 300/1/4 298/1/4 301/1/4
f 299/1/4 300/1/4 303/1/4
f 301/1/4 302/1/4 303/1/4
f 300/1/4 301/1/4 303/1/4
f 303/1/4 302/1/4 304/1/4
f 304/1/4 302/1/4 305/1/4
f 305/1/4 302/1/4 306/1/4
f 304/1/4 305/1/4 307/1/4
f 307/1/4 305/1/4 308/1/4
f 308/1/4 305/1/4 309/1/4
f 309/1/4 305/1/4 310/1/4
f 308/1/4 309/1/4 311/1/4
f 311/1/4 309/1/4 312/1/4
f 320/1/5 314/1/5 313/1/5
f 321/3/5 315/3/5 314/3/5
f 321/1/5 314/1/5 320/1/5
f 322/4/5 316/4/5 315/4/5
f 322/3/5 315/3/5 321/3/5
f 323/3/5 317/3/5 316/3/5
f 323/4/5 316/4/5 322/4/5
f 324/1/5 318/1/5 317/1/5
f 324/3/5 317/3/5 323/3/5
f 325/1/5 318/1/5 324/1/5
f 328/1/5 323/1/5 322/1/5
f 328/1/5 326/1/5 325/1/5
f 328/1/5 325/1/5 324/1/5
f 328/1/5 324/1/5 323/1/5
f 328/1/5 320/1/5 319/1/5
f 328/1/5 322/1/5 321/1/5
f 328/1/5 321/1/5 320/1/5
f 329/1/5 326/1/5 328/1/5
f 331/1/5 328/1/5 327/1/5
f 331/1/5 330/1/5 329/1/5
f 331/1/5 329/1/5 328/1/5
f 332/1/5 330/1/5 331/1/5
f 333/1/5 330/1/5 332/1/5
f 334/1/5 330/1/5 333/1/5
f 335/1/5 333/1/5 332/1/5
f 336/1/5 333/1/5 335/1/5
f 337/1/5 333/1/5 336/1/5
f 338/1/5 333/1/5 337/1/5
f 339/1/5 337/1/5 336/1/5
f 340/1/5 337/1/5 339/1/5
f 346/1/5 342/1/5 341/1/5
f 347/1/5 342/1/5 346/1/5
f 348/1/5 344/1/5 343/1/5
f 349/1/5 344/1/5 348/1/5
f 351/1/5 346/1/5 345/1/5
f 352/1/5 346/1/5 351/1/5
f 353/1/5 350/1/5 349/1/5
f 354/1/5 350/1/5 353/1/5
f 359/1/5 356/1/5 355/1/5
f 360/1/5 356/1/5 359/1/5
f 363/1/5 358/1/5 357/1/5
f 364/1/5 358/1/5 363/1/5
f 365/1/5 361/1/5 360/1/5
f 366/1/5 361/1/5 365/1/5
f 367/1/5 363/1/5 362/1/5
f 368/1/5 363/1/5 367/1/5
f 373/1/5 370/1/5 369/1/5
f 374/1/5 370/1/5 373/1/5
f 375/1/5 372/1/5 371/1/5
f 376/1/5 372/1/5 375/1/5
f 381/1/5 378/1/5 377/1/5
f 382/1/5 378/1/5 381/1/5
f 383/1/5 380/1/5 379/1/5
f 384/1/5 380/1/5 383/1/5
f 385/1/6 386/1/6 389/1/6
f 389/1/6 386/1/6 390/1/6
f 387/1/6 388/1/6 391/1/6
f 391/1/6 388/1/6 392/1/6
f 393/1/6 394/1/6 397/1/6
f 397/1/6 394/1/6 398/1/6
f 395/1/6 396/1/6 399/1/6
f 399/1/6 396/1/6 400/1/6
f 401/1/6 402/1/6 406/1/6
f 406/1/6 402/1/6 407/1/6
f 403/1/6 404/1/6 408/1/6
f 408/1/6 404/1/6 409/1/6
f 405/1/6 406/1/6 411/1/6
f 411/1/6 406/1/6 412/1/6
f 409/1/6 410/1/6 413/1/6
f 413/1/6 410/1/6 414/1/6
f 415/1/6 416/1/6 419/1/6
f 419/1/6 416/1/6 420/1/6
f 417/1/6 418/1/6 423/1/6
f 423/1/6 418/1/6 424/1/6
f 420/1/6 421/1/6 425/1/6
f 425/1/6 421/1/6 426/1/6
f 422/1/6 423/1/6 427/1/6
f 427/1/6 423/1/6 428/1/6
f 429/1/6 430/1/6 436/1/6
f 430/3/6 431/3/6 437/3/6
f 436/1/6 430/1/6 437/1/6
f 431/4/6 432/4/6 438/4/6
f 437/3/6 431/3/6 438/3/6
f 432/3/6 433/3/6 439/3/6
f 438/4/6 432/4/6 439/4/6
f 433/1/6 434/1/6 440/1/6
f 439/3/6 433/3/6 440/3/6
f 440/1/6 434/1/6 441/1/6
f 438/1/6 439/1/6 444/1/6
f 441/1/6 442/1/6 444/1/6
f 440/1/6 441/1/6 444/1/6
f 439/1/6 440/1/6 444/1/6
f 435/1/6 436/1/6 444/1/6
f 437/1/6 438/1/6 444/1/6
f 436/1/6 437/1/6 444/1/6
f 444/1/6 442/1/6 445/1/6
f 443/1/6 444/1/6 447/1/6
f 445/1/6 446/1/6 447/1/6
f 444/1/6 445/1/6 447/1/6
f 447/1/6 446/1/6 448/1/6
f 448/1/6 446/1/6 449/1/6
f 449/1/6 446/1/6 450/1/6
f 448/1/6 449/1/6 451/1/6
f 451/1/6 449/1/6 452/1/6
f 452/1/6 449/1/6 453/1/6
f 453/1/6 449/1/6 454/1/6
f 452/1/6 453/1/6 455/1/6
f 455/1/6 453/1/6 456/1/6
