# MagicaVoxel @ Ephtracy

# group
g BackGround_Snow_InBossTemple_Terrain-4

# material
mtllib BackGround_Snow_InBossTemple_Terrain-4.mtl
usemtl palette

# normals
vn -1 0 0
vn 1 0 0
vn 0 0 1
vn 0 0 -1
vn 0 -1 0
vn 0 1 0

# texcoords
vt 0.876953 0.5
vt 0.880859 0.5
vt 0.900391 0.5
vt 0.904297 0.5

# verts
v -63 -19 55
v -63 -19 54
v -63 -19 -63
v -63 7 56
v -63 7 55
v -63 7 54
v -63 22 56
v -63 22 53
v -63 22 48
v -63 22 -63
v -63 29 54
v -63 29 53
v -63 29 48
v -63 29 47
v -63 32 54
v -63 32 47
v -46 7 56
v -46 7 55
v -46 12 56
v -46 12 55
v -46 22 53
v -46 22 48
v -46 29 53
v -46 29 48
v -38 29 47
v -38 29 -63
v -38 32 47
v -38 32 -63
v -37 22 46
v -37 22 39
v -37 22 27
v -37 22 20
v -37 22 8
v -37 22 1
v -37 22 -11
v -37 22 -18
v -37 22 -30
v -37 22 -37
v -37 29 46
v -37 29 39
v -37 29 27
v -37 29 20
v -37 29 8
v -37 29 1
v -37 29 -11
v -37 29 -18
v -37 29 -30
v -37 29 -37
v -58 22 53
v -58 22 48
v -58 29 53
v -58 29 48
v -56 7 56
v -56 7 55
v -56 12 56
v -56 12 55
v -39 22 53
v -39 22 48
v -39 29 53
v -39 29 48
v -32 22 46
v -32 22 39
v -32 22 27
v -32 22 20
v -32 22 8
v -32 22 1
v -32 22 -11
v -32 22 -18
v -32 22 -30
v -32 22 -37
v -32 29 46
v -32 29 39
v -32 29 27
v -32 29 20
v -32 29 8
v -32 29 1
v -32 29 -11
v -32 29 -18
v -32 29 -30
v -32 29 -37
v -31 7 56
v -31 7 55
v -31 12 56
v -31 12 55
v -31 29 54
v -31 29 -63
v -31 32 54
v -31 32 -63
v -30 -19 55
v -30 -19 -63
v -30 7 47
v -30 7 32
v -30 7 22
v -30 7 7
v -30 7 -3
v -30 7 -18
v -30 7 -28
v -30 7 -43
v -30 12 55
v -30 12 47
v -30 12 32
v -30 12 22
v -30 12 7
v -30 12 -3
v -30 12 -18
v -30 12 -28
v -30 12 -43
v -30 12 -63
v -29 7 47
v -29 7 32
v -29 7 22
v -29 7 7
v -29 7 -3
v -29 7 -18
v -29 7 -28
v -29 7 -43
v -29 12 56
v -29 12 47
v -29 12 32
v -29 12 22
v -29 12 7
v -29 12 -3
v -29 12 -18
v -29 12 -28
v -29 12 -43
v -29 12 -63
v -29 22 56
v -29 22 -63
v -63 7 56
v -63 22 56
v -56 7 56
v -56 12 56
v -46 7 56
v -46 12 56
v -31 7 56
v -31 12 56
v -29 12 56
v -29 22 56
v -63 -19 55
v -63 7 55
v -56 7 55
v -56 12 55
v -46 7 55
v -46 12 55
v -31 7 55
v -31 12 55
v -30 -19 55
v -30 12 55
v -63 29 54
v -63 32 54
v -31 29 54
v -31 32 54
v -63 22 53
v -63 29 53
v -58 22 53
v -58 29 53
v -46 22 53
v -46 29 53
v -39 22 53
v -39 29 53
v -30 7 47
v -30 12 47
v -29 7 47
v -29 12 47
v -37 22 46
v -37 29 46
v -32 22 46
v -32 29 46
v -37 22 27
v -37 29 27
v -32 22 27
v -32 29 27
v -30 7 22
v -30 12 22
v -29 7 22
v -29 12 22
v -37 22 8
v -37 29 8
v -32 22 8
v -32 29 8
v -30 7 -3
v -30 12 -3
v -29 7 -3
v -29 12 -3
v -37 22 -11
v -37 29 -11
v -32 22 -11
v -32 29 -11
v -30 7 -28
v -30 12 -28
v -29 7 -28
v -29 12 -28
v -37 22 -30
v -37 29 -30
v -32 22 -30
v -32 29 -30
v -63 22 48
v -63 29 48
v -58 22 48
v -58 29 48
v -46 22 48
v -46 29 48
v -39 22 48
v -39 29 48
v -63 29 47
v -63 32 47
v -38 29 47
v -38 32 47
v -37 22 39
v -37 29 39
v -32 22 39
v -32 29 39
v -30 7 32
v -30 12 32
v -29 7 32
v -29 12 32
v -37 22 20
v -37 29 20
v -32 22 20
v -32 29 20
v -30 7 7
v -30 12 7
v -29 7 7
v -29 12 7
v -37 22 1
v -37 29 1
v -32 22 1
v -32 29 1
v -37 22 -18
v -37 29 -18
v -32 22 -18
v -32 29 -18
v -30 7 -18
v -30 12 -18
v -29 7 -18
v -29 12 -18
v -37 22 -37
v -37 29 -37
v -32 22 -37
v -32 29 -37
v -30 7 -43
v -30 12 -43
v -29 7 -43
v -29 12 -43
v -63 -19 -63
v -63 22 -63
v -47 12 -63
v -47 21 -63
v -38 29 -63
v -38 32 -63
v -31 -19 -63
v -31 12 -63
v -31 29 -63
v -31 32 -63
v -30 -19 -63
v -30 12 -63
v -30 21 -63
v -29 12 -63
v -29 22 -63
v -63 -19 55
v -30 -19 55
v -63 -19 54
v -31 -19 54
v -63 -19 -63
v -31 -19 -63
v -30 -19 -63
v -63 7 56
v -56 7 56
v -46 7 56
v -31 7 56
v -63 7 55
v -56 7 55
v -46 7 55
v -31 7 55
v -30 7 47
v -29 7 47
v -30 7 32
v -29 7 32
v -30 7 22
v -29 7 22
v -30 7 7
v -29 7 7
v -30 7 -3
v -29 7 -3
v -30 7 -18
v -29 7 -18
v -30 7 -28
v -29 7 -28
v -30 7 -43
v -29 7 -43
v -56 12 56
v -46 12 56
v -31 12 56
v -29 12 56
v -56 12 55
v -46 12 55
v -31 12 55
v -30 12 55
v -30 12 47
v -29 12 47
v -30 12 32
v -29 12 32
v -30 12 22
v -29 12 22
v -30 12 7
v -29 12 7
v -30 12 -3
v -29 12 -3
v -30 12 -18
v -29 12 -18
v -30 12 -28
v -29 12 -28
v -30 12 -43
v -29 12 -43
v -30 12 -63
v -29 12 -63
v -63 29 54
v -31 29 54
v -63 29 53
v -58 29 53
v -46 29 53
v -39 29 53
v -63 29 48
v -58 29 48
v -46 29 48
v -39 29 48
v -63 29 47
v -38 29 47
v -37 29 46
v -32 29 46
v -37 29 39
v -32 29 39
v -37 29 27
v -32 29 27
v -37 29 20
v -32 29 20
v -37 29 8
v -32 29 8
v -37 29 1
v -32 29 1
v -37 29 -11
v -32 29 -11
v -37 29 -18
v -32 29 -18
v -37 29 -30
v -32 29 -30
v -37 29 -37
v -32 29 -37
v -38 29 -63
v -31 29 -63
v -63 22 56
v -29 22 56
v -63 22 53
v -58 22 53
v -46 22 53
v -39 22 53
v -63 22 48
v -58 22 48
v -46 22 48
v -39 22 48
v -37 22 46
v -32 22 46
v -37 22 39
v -32 22 39
v -37 22 27
v -32 22 27
v -37 22 20
v -32 22 20
v -37 22 8
v -32 22 8
v -37 22 1
v -32 22 1
v -37 22 -11
v -32 22 -11
v -37 22 -18
v -32 22 -18
v -37 22 -30
v -32 22 -30
v -37 22 -37
v -32 22 -37
v -63 22 -63
v -29 22 -63
v -63 32 54
v -31 32 54
v -63 32 47
v -38 32 47
v -38 32 -63
v -31 32 -63

# faces
f 5/2/1 2/2/1 1/2/1
f 6/1/1 3/1/1 2/1/1
f 6/2/1 2/2/1 5/2/1
f 7/1/1 5/1/1 4/1/1
f 7/1/1 6/1/1 5/1/1
f 8/1/1 3/1/1 6/1/1
f 8/1/1 6/1/1 7/1/1
f 9/1/1 3/1/1 8/1/1
f 10/1/1 3/1/1 9/1/1
f 12/3/1 9/3/1 8/3/1
f 13/3/1 9/3/1 12/3/1
f 15/2/1 12/2/1 11/2/1
f 15/2/1 14/2/1 13/2/1
f 15/2/1 13/2/1 12/2/1
f 16/2/1 14/2/1 15/2/1
f 19/1/1 18/1/1 17/1/1
f 20/1/1 18/1/1 19/1/1
f 23/3/1 22/3/1 21/3/1
f 24/3/1 22/3/1 23/3/1
f 27/2/1 26/2/1 25/2/1
f 28/2/1 26/2/1 27/2/1
f 39/3/1 30/3/1 29/3/1
f 40/3/1 30/3/1 39/3/1
f 41/3/1 32/3/1 31/3/1
f 42/3/1 32/3/1 41/3/1
f 43/3/1 34/3/1 33/3/1
f 44/3/1 34/3/1 43/3/1
f 45/3/1 36/3/1 35/3/1
f 46/3/1 36/3/1 45/3/1
f 47/3/1 38/3/1 37/3/1
f 48/3/1 38/3/1 47/3/1
f 49/3/2 50/3/2 51/3/2
f 51/3/2 50/3/2 52/3/2
f 53/1/2 54/1/2 55/1/2
f 55/1/2 54/1/2 56/1/2
f 57/3/2 58/3/2 59/3/2
f 59/3/2 58/3/2 60/3/2
f 61/3/2 62/3/2 71/3/2
f 71/3/2 62/3/2 72/3/2
f 63/3/2 64/3/2 73/3/2
f 73/3/2 64/3/2 74/3/2
f 65/3/2 66/3/2 75/3/2
f 75/3/2 66/3/2 76/3/2
f 67/3/2 68/3/2 77/3/2
f 77/3/2 68/3/2 78/3/2
f 69/3/2 70/3/2 79/3/2
f 79/3/2 70/3/2 80/3/2
f 81/1/2 82/1/2 83/1/2
f 83/1/2 82/1/2 84/1/2
f 85/2/2 86/2/2 87/2/2
f 87/2/2 86/2/2 88/2/2
f 89/2/2 90/2/2 91/2/2
f 91/2/2 90/2/2 92/2/2
f 92/2/2 90/2/2 93/2/2
f 93/2/2 90/2/2 94/2/2
f 94/2/2 90/2/2 95/2/2
f 95/2/2 90/2/2 96/2/2
f 96/2/2 90/2/2 97/2/2
f 97/2/2 90/2/2 98/2/2
f 89/2/2 91/2/2 99/2/2
f 99/2/2 91/2/2 100/2/2
f 92/2/2 93/2/2 101/2/2
f 101/2/2 93/2/2 102/2/2
f 94/2/2 95/2/2 103/2/2
f 103/2/2 95/2/2 104/2/2
f 96/2/2 97/2/2 105/2/2
f 105/2/2 97/2/2 106/2/2
f 98/2/2 90/2/2 107/2/2
f 107/2/2 90/2/2 108/2/2
f 109/1/2 110/1/2 118/1/2
f 118/1/2 110/1/2 119/1/2
f 111/1/2 112/1/2 120/1/2
f 120/1/2 112/1/2 121/1/2
f 113/1/2 114/1/2 122/1/2
f 122/1/2 114/1/2 123/1/2
f 115/1/2 116/1/2 124/1/2
f 124/1/2 116/1/2 125/1/2
f 122/1/2 123/1/2 127/1/2
f 125/1/2 126/1/2 127/1/2
f 124/1/2 125/1/2 127/1/2
f 123/1/2 124/1/2 127/1/2
f 118/1/2 119/1/2 127/1/2
f 121/1/2 122/1/2 127/1/2
f 120/1/2 121/1/2 127/1/2
f 119/1/2 120/1/2 127/1/2
f 117/1/2 118/1/2 127/1/2
f 127/1/2 126/1/2 128/1/2
f 131/1/3 130/1/3 129/1/3
f 132/1/3 130/1/3 131/1/3
f 134/1/3 130/1/3 132/1/3
f 135/1/3 134/1/3 133/1/3
f 136/1/3 130/1/3 134/1/3
f 136/1/3 134/1/3 135/1/3
f 137/1/3 130/1/3 136/1/3
f 138/1/3 130/1/3 137/1/3
f 141/2/3 140/2/3 139/2/3
f 143/2/3 141/2/3 139/2/3
f 143/2/3 142/2/3 141/2/3
f 144/2/3 142/2/3 143/2/3
f 145/2/3 143/2/3 139/2/3
f 147/2/3 145/2/3 139/2/3
f 147/2/3 146/2/3 145/2/3
f 148/2/3 146/2/3 147/2/3
f 151/2/3 150/2/3 149/2/3
f 152/2/3 150/2/3 151/2/3
f 155/3/3 154/3/3 153/3/3
f 156/3/3 154/3/3 155/3/3
f 159/3/3 158/3/3 157/3/3
f 160/3/3 158/3/3 159/3/3
f 163/1/3 162/1/3 161/1/3
f 164/1/3 162/1/3 163/1/3
f 167/3/3 166/3/3 165/3/3
f 168/3/3 166/3/3 167/3/3
f 171/3/3 170/3/3 169/3/3
f 172/3/3 170/3/3 171/3/3
f 175/1/3 174/1/3 173/1/3
f 176/1/3 174/1/3 175/1/3
f 179/3/3 178/3/3 177/3/3
f 180/3/3 178/3/3 179/3/3
f 183/1/3 182/1/3 181/1/3
f 184/1/3 182/1/3 183/1/3
f 187/3/3 186/3/3 185/3/3
f 188/3/3 186/3/3 187/3/3
f 191/1/3 190/1/3 189/1/3
f 192/1/3 190/1/3 191/1/3
f 195/3/3 194/3/3 193/3/3
f 196/3/3 194/3/3 195/3/3
f 197/3/4 198/3/4 199/3/4
f 199/3/4 198/3/4 200/3/4
f 201/3/4 202/3/4 203/3/4
f 203/3/4 202/3/4 204/3/4
f 205/2/4 206/2/4 207/2/4
f 207/2/4 206/2/4 208/2/4
f 209/3/4 210/3/4 211/3/4
f 211/3/4 210/3/4 212/3/4
f 213/1/4 214/1/4 215/1/4
f 215/1/4 214/1/4 216/1/4
f 217/3/4 218/3/4 219/3/4
f 219/3/4 218/3/4 220/3/4
f 221/1/4 222/1/4 223/1/4
f 223/1/4 222/1/4 224/1/4
f 225/3/4 226/3/4 227/3/4
f 227/3/4 226/3/4 228/3/4
f 229/3/4 230/3/4 231/3/4
f 231/3/4 230/3/4 232/3/4
f 233/1/4 234/1/4 235/1/4
f 235/1/4 234/1/4 236/1/4
f 237/3/4 238/3/4 239/3/4
f 239/3/4 238/3/4 240/3/4
f 241/1/4 242/1/4 243/1/4
f 243/1/4 242/1/4 244/1/4
f 245/1/4 246/1/4 247/1/4
f 247/1/4 246/1/4 248/1/4
f 245/1/4 247/1/4 251/1/4
f 247/4/4 248/4/4 252/4/4
f 251/1/4 247/1/4 252/1/4
f 249/2/4 250/2/4 253/2/4
f 253/2/4 250/2/4 254/2/4
f 251/2/4 252/2/4 255/2/4
f 252/4/4 248/4/4 256/4/4
f 255/2/4 252/2/4 256/2/4
f 248/1/4 246/1/4 257/1/4
f 256/4/4 248/4/4 257/4/4
f 256/1/4 257/1/4 258/1/4
f 257/1/4 246/1/4 259/1/4
f 258/1/4 257/1/4 259/1/4
f 262/2/5 261/2/5 260/2/5
f 263/2/5 261/2/5 262/2/5
f 264/1/5 263/1/5 262/1/5
f 265/2/5 261/2/5 263/2/5
f 265/1/5 263/1/5 264/1/5
f 266/2/5 261/2/5 265/2/5
f 271/1/5 268/1/5 267/1/5
f 272/1/5 268/1/5 271/1/5
f 273/1/5 270/1/5 269/1/5
f 274/1/5 270/1/5 273/1/5
f 277/1/5 276/1/5 275/1/5
f 278/1/5 276/1/5 277/1/5
f 281/1/5 280/1/5 279/1/5
f 282/1/5 280/1/5 281/1/5
f 285/1/5 284/1/5 283/1/5
f 286/1/5 284/1/5 285/1/5
f 289/1/5 288/1/5 287/1/5
f 290/1/5 288/1/5 289/1/5
f 295/1/5 292/1/5 291/1/5
f 296/1/5 292/1/5 295/1/5
f 297/1/5 294/1/5 293/1/5
f 298/1/5 294/1/5 297/1/5
f 299/1/5 294/1/5 298/1/5
f 300/1/5 294/1/5 299/1/5
f 303/1/5 302/1/5 301/1/5
f 304/1/5 302/1/5 303/1/5
f 307/1/5 306/1/5 305/1/5
f 308/1/5 306/1/5 307/1/5
f 311/1/5 310/1/5 309/1/5
f 312/1/5 310/1/5 311/1/5
f 315/1/5 314/1/5 313/1/5
f 316/1/5 314/1/5 315/1/5
f 319/2/5 318/2/5 317/2/5
f 320/2/5 318/2/5 319/2/5
f 321/2/5 318/2/5 320/2/5
f 322/2/5 318/2/5 321/2/5
f 324/2/5 321/2/5 320/2/5
f 325/2/5 321/2/5 324/2/5
f 326/2/5 318/2/5 322/2/5
f 327/2/5 325/2/5 324/2/5
f 327/2/5 326/2/5 325/2/5
f 327/2/5 324/2/5 323/2/5
f 328/2/5 318/2/5 326/2/5
f 328/2/5 326/2/5 327/2/5
f 329/2/5 318/2/5 328/2/5
f 330/2/5 318/2/5 329/2/5
f 331/2/5 329/2/5 328/2/5
f 332/2/5 318/2/5 330/2/5
f 333/2/5 331/2/5 328/2/5
f 333/2/5 332/2/5 331/2/5
f 334/2/5 318/2/5 332/2/5
f 334/2/5 332/2/5 333/2/5
f 335/2/5 333/2/5 328/2/5
f 336/2/5 318/2/5 334/2/5
f 337/2/5 335/2/5 328/2/5
f 337/2/5 336/2/5 335/2/5
f 338/2/5 318/2/5 336/2/5
f 338/2/5 336/2/5 337/2/5
f 339/2/5 337/2/5 328/2/5
f 340/2/5 318/2/5 338/2/5
f 341/2/5 339/2/5 328/2/5
f 341/2/5 340/2/5 339/2/5
f 342/2/5 318/2/5 340/2/5
f 342/2/5 340/2/5 341/2/5
f 343/2/5 341/2/5 328/2/5
f 344/2/5 318/2/5 342/2/5
f 345/2/5 343/2/5 328/2/5
f 345/2/5 344/2/5 343/2/5
f 346/2/5 318/2/5 344/2/5
f 346/2/5 344/2/5 345/2/5
f 347/2/5 345/2/5 328/2/5
f 348/2/5 318/2/5 346/2/5
f 349/2/5 347/2/5 328/2/5
f 349/2/5 348/2/5 347/2/5
f 350/2/5 318/2/5 348/2/5
f 350/2/5 348/2/5 349/2/5
f 351/1/6 352/1/6 353/1/6
f 353/1/6 352/1/6 354/1/6
f 354/1/6 352/1/6 355/1/6
f 355/1/6 352/1/6 356/1/6
f 354/1/6 355/1/6 358/1/6
f 358/1/6 355/1/6 359/1/6
f 356/1/6 352/1/6 360/1/6
f 358/1/6 359/1/6 361/1/6
f 359/1/6 360/1/6 361/1/6
f 360/1/6 352/1/6 361/1/6
f 357/1/6 358/1/6 361/1/6
f 361/1/6 352/1/6 362/1/6
f 357/1/6 361/1/6 363/1/6
f 362/1/6 352/1/6 364/1/6
f 357/1/6 363/1/6 365/1/6
f 363/1/6 364/1/6 365/1/6
f 364/1/6 352/1/6 366/1/6
f 365/1/6 364/1/6 366/1/6
f 357/1/6 365/1/6 367/1/6
f 366/1/6 352/1/6 368/1/6
f 357/1/6 367/1/6 369/1/6
f 367/1/6 368/1/6 369/1/6
f 368/1/6 352/1/6 370/1/6
f 369/1/6 368/1/6 370/1/6
f 357/1/6 369/1/6 371/1/6
f 370/1/6 352/1/6 372/1/6
f 357/1/6 371/1/6 373/1/6
f 371/1/6 372/1/6 373/1/6
f 372/1/6 352/1/6 374/1/6
f 373/1/6 372/1/6 374/1/6
f 357/1/6 373/1/6 375/1/6
f 374/1/6 352/1/6 376/1/6
f 357/1/6 375/1/6 377/1/6
f 375/1/6 376/1/6 377/1/6
f 376/1/6 352/1/6 378/1/6
f 377/1/6 376/1/6 378/1/6
f 357/1/6 377/1/6 379/1/6
f 378/1/6 352/1/6 380/1/6
f 357/1/6 379/1/6 381/1/6
f 379/1/6 380/1/6 381/1/6
f 380/1/6 352/1/6 382/1/6
f 381/1/6 380/1/6 382/1/6
f 383/2/6 384/2/6 385/2/6
f 385/2/6 384/2/6 386/2/6
f 386/2/6 384/2/6 387/2/6
f 387/2/6 384/2/6 388/2/6
