# MagicaVoxel @ Ephtracy

# group
g BackGround_Snow_InBossTemple_Terrain-6

# material
mtllib BackGround_Snow_InBossTemple_Terrain-6.mtl
usemtl palette

# normals
vn -1 0 0
vn 1 0 0
vn 0 0 1
vn 0 0 -1
vn 0 -1 0
vn 0 1 0

# texcoords
vt 0.876953 0.5
vt 0.880859 0.5
vt 0.900391 0.5

# verts
v 31 -39 -8
v 31 -39 -9
v 31 -13 -7
v 31 -13 -8
v 31 -13 -9
v 31 -13 -22
v 31 -13 -32
v 31 -13 -47
v 31 -13 -57
v 31 -13 -58
v 31 -8 -22
v 31 -8 -32
v 31 -8 -47
v 31 -8 -57
v 31 2 -7
v 31 2 -58
v 32 -39 -9
v 32 -39 -57
v 32 -13 -9
v 32 -13 -22
v 32 -13 -32
v 32 -13 -47
v 32 -13 -57
v 32 -8 -22
v 32 -8 -32
v 32 -8 -47
v 32 -8 -57
v 33 9 -9
v 33 9 -56
v 33 12 -9
v 33 12 -56
v 34 2 -10
v 34 2 -17
v 34 2 -29
v 34 2 -36
v 34 2 -48
v 34 2 -55
v 34 9 -10
v 34 9 -17
v 34 9 -29
v 34 9 -36
v 34 9 -48
v 34 9 -55
v 53 2 -10
v 53 2 -15
v 53 9 -10
v 53 9 -15
v 56 -13 -7
v 56 -13 -8
v 56 -13 -57
v 56 -13 -58
v 56 -8 -7
v 56 -8 -8
v 56 -8 -57
v 56 -8 -58
v 39 2 -15
v 39 2 -17
v 39 2 -29
v 39 2 -36
v 39 2 -48
v 39 2 -55
v 39 9 -15
v 39 9 -16
v 39 9 -17
v 39 9 -29
v 39 9 -36
v 39 9 -48
v 39 9 -55
v 40 9 -16
v 40 9 -56
v 40 12 -16
v 40 12 -56
v 41 2 -10
v 41 2 -15
v 41 9 -10
v 41 9 -15
v 46 -13 -7
v 46 -13 -8
v 46 -13 -57
v 46 -13 -58
v 46 -8 -7
v 46 -8 -8
v 46 -8 -57
v 46 -8 -58
v 60 2 -10
v 60 2 -15
v 60 9 -10
v 60 9 -15
v 63 -39 -8
v 63 -39 -57
v 63 -38 -9
v 63 -38 -56
v 63 -13 -7
v 63 -13 -8
v 63 -13 -9
v 63 -13 -56
v 63 -13 -57
v 63 -13 -58
v 63 2 -7
v 63 2 -58
v 63 9 -9
v 63 9 -16
v 63 12 -9
v 63 12 -16
v 31 -13 -7
v 31 2 -7
v 46 -13 -7
v 46 -8 -7
v 56 -13 -7
v 56 -8 -7
v 63 -13 -7
v 63 2 -7
v 31 -39 -8
v 31 -13 -8
v 46 -13 -8
v 46 -8 -8
v 56 -13 -8
v 56 -8 -8
v 63 -39 -8
v 63 -13 -8
v 33 9 -9
v 33 12 -9
v 63 9 -9
v 63 12 -9
v 34 2 -10
v 34 9 -10
v 41 2 -10
v 41 9 -10
v 53 2 -10
v 53 9 -10
v 60 2 -10
v 60 9 -10
v 34 2 -29
v 34 9 -29
v 39 2 -29
v 39 9 -29
v 31 -13 -32
v 31 -8 -32
v 32 -13 -32
v 32 -8 -32
v 34 2 -48
v 34 9 -48
v 39 2 -48
v 39 9 -48
v 31 -13 -57
v 31 -8 -57
v 32 -13 -57
v 32 -8 -57
v 31 -39 -9
v 31 -13 -9
v 32 -39 -9
v 32 -13 -9
v 39 2 -15
v 39 9 -15
v 40 9 -15
v 41 2 -15
v 41 9 -15
v 53 2 -15
v 53 9 -15
v 60 2 -15
v 60 9 -15
v 40 9 -16
v 40 12 -16
v 63 9 -16
v 63 12 -16
v 34 2 -17
v 34 9 -17
v 39 2 -17
v 39 9 -17
v 31 -13 -22
v 31 -8 -22
v 32 -13 -22
v 32 -8 -22
v 34 2 -36
v 34 9 -36
v 39 2 -36
v 39 9 -36
v 31 -13 -47
v 31 -8 -47
v 32 -13 -47
v 32 -8 -47
v 34 2 -55
v 34 9 -55
v 39 2 -55
v 39 9 -55
v 33 9 -56
v 33 12 -56
v 40 9 -56
v 40 12 -56
v 32 -39 -57
v 32 -13 -57
v 46 -13 -57
v 46 -8 -57
v 56 -13 -57
v 56 -8 -57
v 63 -39 -57
v 63 -13 -57
v 31 -13 -58
v 31 2 -58
v 46 -13 -58
v 46 -8 -58
v 56 -13 -58
v 56 -8 -58
v 63 -13 -58
v 63 2 -58
v 31 -39 -8
v 63 -39 -8
v 31 -39 -9
v 32 -39 -9
v 32 -39 -57
v 63 -39 -57
v 31 -13 -7
v 46 -13 -7
v 56 -13 -7
v 63 -13 -7
v 31 -13 -8
v 46 -13 -8
v 56 -13 -8
v 63 -13 -8
v 31 -13 -9
v 32 -13 -9
v 31 -13 -22
v 32 -13 -22
v 31 -13 -32
v 32 -13 -32
v 31 -13 -47
v 32 -13 -47
v 31 -13 -57
v 32 -13 -57
v 46 -13 -57
v 56 -13 -57
v 63 -13 -57
v 31 -13 -58
v 46 -13 -58
v 56 -13 -58
v 63 -13 -58
v 46 -8 -7
v 56 -8 -7
v 46 -8 -8
v 56 -8 -8
v 31 -8 -22
v 32 -8 -22
v 31 -8 -32
v 32 -8 -32
v 31 -8 -47
v 32 -8 -47
v 31 -8 -57
v 32 -8 -57
v 46 -8 -57
v 56 -8 -57
v 46 -8 -58
v 56 -8 -58
v 33 9 -9
v 63 9 -9
v 34 9 -10
v 41 9 -10
v 53 9 -10
v 60 9 -10
v 62 9 -10
v 39 9 -15
v 40 9 -15
v 41 9 -15
v 53 9 -15
v 60 9 -15
v 62 9 -15
v 39 9 -16
v 40 9 -16
v 63 9 -16
v 34 9 -17
v 39 9 -17
v 34 9 -29
v 39 9 -29
v 34 9 -36
v 39 9 -36
v 34 9 -48
v 39 9 -48
v 34 9 -55
v 39 9 -55
v 33 9 -56
v 40 9 -56
v 31 2 -7
v 63 2 -7
v 34 2 -10
v 41 2 -10
v 53 2 -10
v 60 2 -10
v 39 2 -15
v 41 2 -15
v 53 2 -15
v 60 2 -15
v 34 2 -17
v 39 2 -17
v 34 2 -29
v 39 2 -29
v 34 2 -36
v 39 2 -36
v 34 2 -48
v 39 2 -48
v 34 2 -55
v 39 2 -55
v 31 2 -58
v 63 2 -58
v 33 12 -9
v 63 12 -9
v 40 12 -16
v 63 12 -16
v 33 12 -56
v 40 12 -56

# faces
f 4/2/1 2/2/1 1/2/1
f 5/2/1 2/2/1 4/2/1
f 11/1/1 4/1/1 3/1/1
f 11/1/1 5/1/1 4/1/1
f 11/1/1 6/1/1 5/1/1
f 12/1/1 8/1/1 7/1/1
f 13/1/1 8/1/1 12/1/1
f 14/1/1 10/1/1 9/1/1
f 15/1/1 13/1/1 12/1/1
f 15/1/1 14/1/1 13/1/1
f 15/1/1 11/1/1 3/1/1
f 15/1/1 12/1/1 11/1/1
f 16/1/1 10/1/1 14/1/1
f 16/1/1 14/1/1 15/1/1
f 19/2/1 18/2/1 17/2/1
f 20/2/1 18/2/1 19/2/1
f 21/2/1 18/2/1 20/2/1
f 22/2/1 18/2/1 21/2/1
f 23/2/1 18/2/1 22/2/1
f 24/2/1 21/2/1 20/2/1
f 25/2/1 21/2/1 24/2/1
f 26/2/1 23/2/1 22/2/1
f 27/2/1 23/2/1 26/2/1
f 30/2/1 29/2/1 28/2/1
f 31/2/1 29/2/1 30/2/1
f 38/3/1 33/3/1 32/3/1
f 39/3/1 33/3/1 38/3/1
f 40/3/1 35/3/1 34/3/1
f 41/3/1 35/3/1 40/3/1
f 42/3/1 37/3/1 36/3/1
f 43/3/1 37/3/1 42/3/1
f 46/3/1 45/3/1 44/3/1
f 47/3/1 45/3/1 46/3/1
f 52/1/1 49/1/1 48/1/1
f 53/1/1 49/1/1 52/1/1
f 54/1/1 51/1/1 50/1/1
f 55/1/1 51/1/1 54/1/1
f 56/3/2 57/3/2 62/3/2
f 62/3/2 57/3/2 63/3/2
f 63/3/2 57/3/2 64/3/2
f 58/3/2 59/3/2 65/3/2
f 65/3/2 59/3/2 66/3/2
f 60/3/2 61/3/2 67/3/2
f 67/3/2 61/3/2 68/3/2
f 69/2/2 70/2/2 71/2/2
f 71/2/2 70/2/2 72/2/2
f 73/3/2 74/3/2 75/3/2
f 75/3/2 74/3/2 76/3/2
f 77/1/2 78/1/2 81/1/2
f 81/1/2 78/1/2 82/1/2
f 79/1/2 80/1/2 83/1/2
f 83/1/2 80/1/2 84/1/2
f 85/3/2 86/3/2 87/3/2
f 87/3/2 86/3/2 88/3/2
f 89/2/2 90/2/2 91/2/2
f 91/2/2 90/2/2 92/2/2
f 89/2/2 91/2/2 94/2/2
f 91/1/2 92/1/2 95/1/2
f 94/2/2 91/2/2 95/2/2
f 92/2/2 90/2/2 96/2/2
f 95/1/2 92/1/2 96/1/2
f 96/2/2 90/2/2 97/2/2
f 94/1/2 95/1/2 99/1/2
f 97/1/2 98/1/2 99/1/2
f 96/1/2 97/1/2 99/1/2
f 95/1/2 96/1/2 99/1/2
f 93/1/2 94/1/2 99/1/2
f 99/1/2 98/1/2 100/1/2
f 101/2/2 102/2/2 103/2/2
f 103/2/2 102/2/2 104/2/2
f 107/1/3 106/1/3 105/1/3
f 108/1/3 106/1/3 107/1/3
f 110/1/3 106/1/3 108/1/3
f 111/1/3 110/1/3 109/1/3
f 112/1/3 106/1/3 110/1/3
f 112/1/3 110/1/3 111/1/3
f 115/2/3 114/2/3 113/2/3
f 117/2/3 115/2/3 113/2/3
f 117/2/3 116/2/3 115/2/3
f 118/2/3 116/2/3 117/2/3
f 119/2/3 117/2/3 113/2/3
f 120/2/3 117/2/3 119/2/3
f 123/2/3 122/2/3 121/2/3
f 124/2/3 122/2/3 123/2/3
f 127/3/3 126/3/3 125/3/3
f 128/3/3 126/3/3 127/3/3
f 131/3/3 130/3/3 129/3/3
f 132/3/3 130/3/3 131/3/3
f 135/3/3 134/3/3 133/3/3
f 136/3/3 134/3/3 135/3/3
f 139/1/3 138/1/3 137/1/3
f 140/1/3 138/1/3 139/1/3
f 143/3/3 142/3/3 141/3/3
f 144/3/3 142/3/3 143/3/3
f 147/1/3 146/1/3 145/1/3
f 148/1/3 146/1/3 147/1/3
f 149/2/4 150/2/4 151/2/4
f 151/2/4 150/2/4 152/2/4
f 153/3/4 154/3/4 155/3/4
f 153/3/4 155/3/4 156/3/4
f 156/3/4 155/3/4 157/3/4
f 158/3/4 159/3/4 160/3/4
f 160/3/4 159/3/4 161/3/4
f 162/2/4 163/2/4 164/2/4
f 164/2/4 163/2/4 165/2/4
f 166/3/4 167/3/4 168/3/4
f 168/3/4 167/3/4 169/3/4
f 170/1/4 171/1/4 172/1/4
f 172/1/4 171/1/4 173/1/4
f 174/3/4 175/3/4 176/3/4
f 176/3/4 175/3/4 177/3/4
f 178/1/4 179/1/4 180/1/4
f 180/1/4 179/1/4 181/1/4
f 182/3/4 183/3/4 184/3/4
f 184/3/4 183/3/4 185/3/4
f 186/2/4 187/2/4 188/2/4
f 188/2/4 187/2/4 189/2/4
f 190/2/4 191/2/4 192/2/4
f 190/2/4 192/2/4 194/2/4
f 192/2/4 193/2/4 194/2/4
f 194/2/4 193/2/4 195/2/4
f 190/2/4 194/2/4 196/2/4
f 196/2/4 194/2/4 197/2/4
f 198/1/4 199/1/4 200/1/4
f 200/1/4 199/1/4 201/1/4
f 201/1/4 199/1/4 203/1/4
f 202/1/4 203/1/4 204/1/4
f 203/1/4 199/1/4 205/1/4
f 204/1/4 203/1/4 205/1/4
f 208/2/5 207/2/5 206/2/5
f 209/2/5 207/2/5 208/2/5
f 210/2/5 207/2/5 209/2/5
f 211/2/5 207/2/5 210/2/5
f 216/1/5 213/1/5 212/1/5
f 217/1/5 213/1/5 216/1/5
f 218/1/5 215/1/5 214/1/5
f 219/1/5 215/1/5 218/1/5
f 222/1/5 221/1/5 220/1/5
f 223/1/5 221/1/5 222/1/5
f 226/1/5 225/1/5 224/1/5
f 227/1/5 225/1/5 226/1/5
f 233/1/5 229/1/5 228/1/5
f 233/1/5 230/1/5 229/1/5
f 234/1/5 230/1/5 233/1/5
f 235/1/5 232/1/5 231/1/5
f 236/1/5 232/1/5 235/1/5
f 239/1/5 238/1/5 237/1/5
f 240/1/5 238/1/5 239/1/5
f 243/1/5 242/1/5 241/1/5
f 244/1/5 242/1/5 243/1/5
f 247/1/5 246/1/5 245/1/5
f 248/1/5 246/1/5 247/1/5
f 251/1/5 250/1/5 249/1/5
f 252/1/5 250/1/5 251/1/5
f 255/2/5 254/2/5 253/2/5
f 256/2/5 254/2/5 255/2/5
f 257/2/5 254/2/5 256/2/5
f 258/2/5 254/2/5 257/2/5
f 259/2/5 254/2/5 258/2/5
f 262/1/5 257/1/5 256/1/5
f 263/1/5 257/1/5 262/1/5
f 264/1/5 259/1/5 258/1/5
f 265/2/5 254/2/5 259/2/5
f 265/1/5 259/1/5 264/1/5
f 266/1/5 261/1/5 260/1/5
f 267/2/5 264/2/5 263/2/5
f 267/1/5 261/1/5 266/1/5
f 267/2/5 263/2/5 262/2/5
f 267/2/5 265/2/5 264/2/5
f 267/2/5 262/2/5 261/2/5
f 268/2/5 254/2/5 265/2/5
f 268/2/5 265/2/5 267/2/5
f 269/2/5 255/2/5 253/2/5
f 270/2/5 267/2/5 266/2/5
f 271/2/5 269/2/5 253/2/5
f 271/1/5 270/1/5 269/1/5
f 272/2/5 267/2/5 270/2/5
f 272/1/5 270/1/5 271/1/5
f 273/2/5 271/2/5 253/2/5
f 274/2/5 267/2/5 272/2/5
f 275/2/5 273/2/5 253/2/5
f 275/1/5 274/1/5 273/1/5
f 276/2/5 267/2/5 274/2/5
f 276/1/5 274/1/5 275/1/5
f 277/2/5 275/2/5 253/2/5
f 278/2/5 267/2/5 276/2/5
f 279/2/5 277/2/5 253/2/5
f 279/2/5 278/2/5 277/2/5
f 280/2/5 267/2/5 278/2/5
f 280/2/5 278/2/5 279/2/5
f 281/1/6 282/1/6 283/1/6
f 283/1/6 282/1/6 284/1/6
f 284/1/6 282/1/6 285/1/6
f 285/1/6 282/1/6 286/1/6
f 284/1/6 285/1/6 288/1/6
f 288/1/6 285/1/6 289/1/6
f 286/1/6 282/1/6 290/1/6
f 281/1/6 283/1/6 291/1/6
f 289/1/6 290/1/6 292/1/6
f 288/1/6 289/1/6 292/1/6
f 287/1/6 288/1/6 292/1/6
f 281/1/6 291/1/6 293/1/6
f 291/1/6 292/1/6 293/1/6
f 292/1/6 290/1/6 294/1/6
f 293/1/6 292/1/6 294/1/6
f 281/1/6 293/1/6 295/1/6
f 294/1/6 290/1/6 296/1/6
f 281/1/6 295/1/6 297/1/6
f 295/1/6 296/1/6 297/1/6
f 296/1/6 290/1/6 298/1/6
f 297/1/6 296/1/6 298/1/6
f 281/1/6 297/1/6 299/1/6
f 298/1/6 290/1/6 300/1/6
f 281/1/6 299/1/6 301/1/6
f 299/1/6 300/1/6 301/1/6
f 300/1/6 290/1/6 302/1/6
f 301/1/6 300/1/6 302/1/6
f 290/1/6 282/1/6 302/1/6
f 303/2/6 304/2/6 305/2/6
f 305/2/6 304/2/6 306/2/6
f 303/2/6 305/2/6 307/2/6
f 307/2/6 305/2/6 308/2/6
