# MagicaVoxel @ Ephtracy

# group
g BackGround_Snow_InBossTemple_Terrain-5

# material
mtllib BackGround_Snow_InBossTemple_Terrain-5.mtl
usemtl palette

# normals
vn -1 0 0
vn 1 0 0
vn 0 0 1
vn 0 0 -1
vn 0 -1 0
vn 0 1 0

# texcoords
vt 0.876953 0.5
vt 0.880859 0.5

# verts
v -60 -18 23
v -60 -18 22
v -60 -18 -24
v -60 33 25
v -60 33 23
v -60 33 22
v -60 33 -24
v -60 33 -25
v -60 39 19
v -60 39 -19
v -60 40 19
v -60 40 -19
v -60 43 25
v -60 43 19
v -60 43 -19
v -60 43 -25
v 42 43 25
v 42 43 19
v 42 43 -19
v 42 43 -25
v 42 48 25
v 42 48 19
v 42 48 -19
v 42 48 -25
v 45 40 19
v 45 40 -19
v 45 45 19
v 45 45 -19
v 47 48 25
v 47 48 19
v 47 48 -19
v 47 48 -25
v 47 53 25
v 47 53 19
v 47 53 -19
v 47 53 -25
v 50 45 19
v 50 45 -19
v 50 50 19
v 50 50 -19
v 52 53 25
v 52 53 19
v 52 53 -19
v 52 53 -25
v 52 58 25
v 52 58 19
v 52 58 -19
v 52 58 -25
v 55 50 19
v 55 50 -19
v 55 55 19
v 55 55 -19
v 57 58 25
v 57 58 19
v 57 58 -19
v 57 58 -25
v 57 63 25
v 57 63 19
v 57 63 -19
v 57 63 -25
v 38 33 -24
v 38 33 -25
v 38 34 -24
v 38 34 -25
v 46 33 25
v 46 33 23
v 46 38 25
v 46 38 23
v 51 34 -24
v 51 34 -25
v 51 38 25
v 51 38 23
v 51 43 25
v 51 43 23
v 51 44 -24
v 51 44 -25
v 56 43 25
v 56 43 23
v 56 44 -24
v 56 44 -25
v 56 48 25
v 56 48 23
v 56 49 -24
v 56 49 -25
v 60 -18 23
v 60 -18 22
v 60 -18 -24
v 60 48 25
v 60 48 23
v 60 48 22
v 60 49 -24
v 60 49 -25
v 60 54 19
v 60 54 -19
v 60 55 19
v 60 55 -19
v 60 63 25
v 60 63 19
v 60 63 -19
v 60 63 -25
v -60 33 25
v -60 43 25
v 42 43 25
v 42 48 25
v 46 33 25
v 46 38 25
v 47 48 25
v 47 53 25
v 51 38 25
v 51 43 25
v 52 53 25
v 52 58 25
v 56 43 25
v 56 48 25
v 57 58 25
v 57 63 25
v 60 48 25
v 60 63 25
v -60 -18 23
v -60 33 23
v 46 33 23
v 46 38 23
v 51 38 23
v 51 43 23
v 56 43 23
v 56 48 23
v 60 -18 23
v 60 48 23
v -60 40 -19
v -60 43 -19
v 42 43 -19
v 42 48 -19
v 45 40 -19
v 45 45 -19
v 47 48 -19
v 47 53 -19
v 50 45 -19
v 50 50 -19
v 52 53 -19
v 52 58 -19
v 55 50 -19
v 55 55 -19
v 57 58 -19
v 57 63 -19
v 60 55 -19
v 60 63 -19
v -60 40 19
v -60 43 19
v 42 43 19
v 42 48 19
v 45 40 19
v 45 45 19
v 47 48 19
v 47 53 19
v 50 45 19
v 50 50 19
v 52 53 19
v 52 58 19
v 55 50 19
v 55 55 19
v 57 58 19
v 57 63 19
v 60 55 19
v 60 63 19
v -60 -18 -24
v -60 33 -24
v 38 33 -24
v 38 34 -24
v 51 34 -24
v 51 44 -24
v 56 44 -24
v 56 49 -24
v 60 -18 -24
v 60 49 -24
v -60 33 -25
v -60 43 -25
v 38 33 -25
v 38 34 -25
v 42 43 -25
v 42 48 -25
v 47 48 -25
v 47 53 -25
v 51 34 -25
v 51 44 -25
v 52 53 -25
v 52 58 -25
v 56 44 -25
v 56 49 -25
v 57 58 -25
v 57 63 -25
v 60 49 -25
v 60 63 -25
v -60 -18 23
v 60 -18 23
v -60 -18 22
v 60 -18 22
v -60 -18 -24
v 60 -18 -24
v -60 33 25
v 46 33 25
v -60 33 23
v 46 33 23
v -60 33 -24
v 38 33 -24
v -60 33 -25
v 38 33 -25
v 38 34 -24
v 51 34 -24
v 38 34 -25
v 51 34 -25
v 46 38 25
v 51 38 25
v 46 38 23
v 51 38 23
v 51 43 25
v 56 43 25
v 51 43 23
v 56 43 23
v 51 44 -24
v 56 44 -24
v 51 44 -25
v 56 44 -25
v 56 48 25
v 60 48 25
v 56 48 23
v 60 48 23
v 56 49 -24
v 60 49 -24
v 56 49 -25
v 60 49 -25
v -60 40 19
v 45 40 19
v -56 40 13
v -46 40 13
v 29 40 13
v 39 40 13
v -56 40 10
v -49 40 10
v 32 40 10
v 39 40 10
v -46 40 7
v -38 40 7
v 21 40 7
v 29 40 7
v -59 40 4
v -53 40 4
v -49 40 4
v -38 40 4
v 21 40 4
v 32 40 4
v 36 40 4
v 42 40 4
v -59 40 -4
v -53 40 -4
v -49 40 -4
v -38 40 -4
v 21 40 -4
v 32 40 -4
v 36 40 -4
v 42 40 -4
v -46 40 -7
v -38 40 -7
v 21 40 -7
v 29 40 -7
v -56 40 -10
v -49 40 -10
v 32 40 -10
v 39 40 -10
v -56 40 -13
v -46 40 -13
v 29 40 -13
v 39 40 -13
v -60 40 -19
v 45 40 -19
v -60 43 25
v 42 43 25
v -60 43 19
v 42 43 19
v -60 43 -19
v 42 43 -19
v -60 43 -25
v 42 43 -25
v 45 45 19
v 50 45 19
v 45 45 -19
v 50 45 -19
v 42 48 25
v 47 48 25
v 42 48 19
v 47 48 19
v 42 48 -19
v 47 48 -19
v 42 48 -25
v 47 48 -25
v 50 50 19
v 55 50 19
v 50 50 -19
v 55 50 -19
v 47 53 25
v 52 53 25
v 47 53 19
v 52 53 19
v 47 53 -19
v 52 53 -19
v 47 53 -25
v 52 53 -25
v 55 55 19
v 60 55 19
v 55 55 -19
v 60 55 -19
v 52 58 25
v 57 58 25
v 52 58 19
v 57 58 19
v 52 58 -19
v 57 58 -19
v 52 58 -25
v 57 58 -25
v 57 63 25
v 60 63 25
v 57 63 19
v 60 63 19
v 57 63 -19
v 60 63 -19
v 57 63 -25
v 60 63 -25

# faces
f 5/2/1 2/2/1 1/2/1
f 6/1/1 3/1/1 2/1/1
f 6/2/1 2/2/1 5/2/1
f 7/1/1 3/1/1 6/1/1
f 9/1/1 5/1/1 4/1/1
f 9/1/1 8/1/1 7/1/1
f 9/1/1 7/1/1 6/1/1
f 9/1/1 6/1/1 5/1/1
f 10/1/1 8/1/1 9/1/1
f 11/1/1 9/1/1 4/1/1
f 11/2/1 10/2/1 9/2/1
f 12/1/1 8/1/1 10/1/1
f 12/2/1 10/2/1 11/2/1
f 13/1/1 11/1/1 4/1/1
f 14/1/1 11/1/1 13/1/1
f 15/1/1 8/1/1 12/1/1
f 16/1/1 8/1/1 15/1/1
f 21/1/1 18/1/1 17/1/1
f 22/1/1 18/1/1 21/1/1
f 23/1/1 20/1/1 19/1/1
f 24/1/1 20/1/1 23/1/1
f 27/2/1 26/2/1 25/2/1
f 28/2/1 26/2/1 27/2/1
f 33/1/1 30/1/1 29/1/1
f 34/1/1 30/1/1 33/1/1
f 35/1/1 32/1/1 31/1/1
f 36/1/1 32/1/1 35/1/1
f 39/2/1 38/2/1 37/2/1
f 40/2/1 38/2/1 39/2/1
f 45/1/1 42/1/1 41/1/1
f 46/1/1 42/1/1 45/1/1
f 47/1/1 44/1/1 43/1/1
f 48/1/1 44/1/1 47/1/1
f 51/2/1 50/2/1 49/2/1
f 52/2/1 50/2/1 51/2/1
f 57/1/1 54/1/1 53/1/1
f 58/1/1 54/1/1 57/1/1
f 59/1/1 56/1/1 55/1/1
f 60/1/1 56/1/1 59/1/1
f 61/1/2 62/1/2 63/1/2
f 63/1/2 62/1/2 64/1/2
f 65/1/2 66/1/2 67/1/2
f 67/1/2 66/1/2 68/1/2
f 71/1/2 72/1/2 73/1/2
f 73/1/2 72/1/2 74/1/2
f 69/1/2 70/1/2 75/1/2
f 75/1/2 70/1/2 76/1/2
f 77/1/2 78/1/2 81/1/2
f 81/1/2 78/1/2 82/1/2
f 79/1/2 80/1/2 83/1/2
f 83/1/2 80/1/2 84/1/2
f 85/2/2 86/2/2 89/2/2
f 86/1/2 87/1/2 90/1/2
f 89/2/2 86/2/2 90/2/2
f 88/1/2 89/1/2 91/1/2
f 90/1/2 87/1/2 91/1/2
f 89/1/2 90/1/2 91/1/2
f 88/1/2 91/1/2 93/1/2
f 91/1/2 92/1/2 93/1/2
f 93/1/2 92/1/2 94/1/2
f 88/1/2 93/1/2 95/1/2
f 93/2/2 94/2/2 95/2/2
f 94/1/2 92/1/2 96/1/2
f 95/2/2 94/2/2 96/2/2
f 88/1/2 95/1/2 97/1/2
f 97/1/2 95/1/2 98/1/2
f 96/1/2 92/1/2 99/1/2
f 99/1/2 92/1/2 100/1/2
f 103/1/3 102/1/3 101/1/3
f 105/1/3 103/1/3 101/1/3
f 105/1/3 104/1/3 103/1/3
f 106/1/3 104/1/3 105/1/3
f 107/1/3 104/1/3 106/1/3
f 109/1/3 107/1/3 106/1/3
f 109/1/3 108/1/3 107/1/3
f 110/1/3 108/1/3 109/1/3
f 111/1/3 108/1/3 110/1/3
f 113/1/3 111/1/3 110/1/3
f 113/1/3 112/1/3 111/1/3
f 114/1/3 112/1/3 113/1/3
f 115/1/3 112/1/3 114/1/3
f 117/1/3 115/1/3 114/1/3
f 117/1/3 116/1/3 115/1/3
f 118/1/3 116/1/3 117/1/3
f 121/2/3 120/2/3 119/2/3
f 123/2/3 122/2/3 121/2/3
f 125/2/3 124/2/3 123/2/3
f 127/2/3 121/2/3 119/2/3
f 127/2/3 126/2/3 125/2/3
f 127/2/3 125/2/3 123/2/3
f 127/2/3 123/2/3 121/2/3
f 128/2/3 126/2/3 127/2/3
f 131/1/3 130/1/3 129/1/3
f 133/1/3 131/1/3 129/1/3
f 133/1/3 132/1/3 131/1/3
f 134/1/3 132/1/3 133/1/3
f 135/1/3 132/1/3 134/1/3
f 137/1/3 135/1/3 134/1/3
f 137/1/3 136/1/3 135/1/3
f 138/1/3 136/1/3 137/1/3
f 139/1/3 136/1/3 138/1/3
f 141/1/3 139/1/3 138/1/3
f 141/1/3 140/1/3 139/1/3
f 142/1/3 140/1/3 141/1/3
f 143/1/3 140/1/3 142/1/3
f 145/1/3 143/1/3 142/1/3
f 145/1/3 144/1/3 143/1/3
f 146/1/3 144/1/3 145/1/3
f 147/1/4 148/1/4 149/1/4
f 147/1/4 149/1/4 151/1/4
f 149/1/4 150/1/4 151/1/4
f 151/1/4 150/1/4 152/1/4
f 152/1/4 150/1/4 153/1/4
f 152/1/4 153/1/4 155/1/4
f 153/1/4 154/1/4 155/1/4
f 155/1/4 154/1/4 156/1/4
f 156/1/4 154/1/4 157/1/4
f 156/1/4 157/1/4 159/1/4
f 157/1/4 158/1/4 159/1/4
f 159/1/4 158/1/4 160/1/4
f 160/1/4 158/1/4 161/1/4
f 160/1/4 161/1/4 163/1/4
f 161/1/4 162/1/4 163/1/4
f 163/1/4 162/1/4 164/1/4
f 165/1/4 166/1/4 167/1/4
f 167/1/4 168/1/4 169/1/4
f 169/1/4 170/1/4 171/1/4
f 165/1/4 167/1/4 173/1/4
f 171/1/4 172/1/4 173/1/4
f 169/1/4 171/1/4 173/1/4
f 167/1/4 169/1/4 173/1/4
f 173/1/4 172/1/4 174/1/4
f 175/1/4 176/1/4 177/1/4
f 177/1/4 176/1/4 178/1/4
f 178/1/4 176/1/4 179/1/4
f 179/1/4 180/1/4 181/1/4
f 178/1/4 179/1/4 183/1/4
f 181/1/4 182/1/4 183/1/4
f 179/1/4 181/1/4 183/1/4
f 183/1/4 182/1/4 184/1/4
f 184/1/4 182/1/4 185/1/4
f 184/1/4 185/1/4 187/1/4
f 185/1/4 186/1/4 187/1/4
f 187/1/4 186/1/4 188/1/4
f 188/1/4 186/1/4 189/1/4
f 188/1/4 189/1/4 191/1/4
f 189/1/4 190/1/4 191/1/4
f 191/1/4 190/1/4 192/1/4
f 195/2/5 194/2/5 193/2/5
f 196/2/5 194/2/5 195/2/5
f 197/1/5 196/1/5 195/1/5
f 198/1/5 196/1/5 197/1/5
f 201/1/5 200/1/5 199/1/5
f 202/1/5 200/1/5 201/1/5
f 205/1/5 204/1/5 203/1/5
f 206/1/5 204/1/5 205/1/5
f 209/1/5 208/1/5 207/1/5
f 210/1/5 208/1/5 209/1/5
f 213/1/5 212/1/5 211/1/5
f 214/1/5 212/1/5 213/1/5
f 217/1/5 216/1/5 215/1/5
f 218/1/5 216/1/5 217/1/5
f 221/1/5 220/1/5 219/1/5
f 222/1/5 220/1/5 221/1/5
f 225/1/5 224/1/5 223/1/5
f 226/1/5 224/1/5 225/1/5
f 229/1/5 228/1/5 227/1/5
f 230/1/5 228/1/5 229/1/5
f 231/2/6 232/2/6 233/2/6
f 233/2/6 232/2/6 234/2/6
f 234/2/6 232/2/6 235/2/6
f 235/2/6 232/2/6 236/2/6
f 231/2/6 233/2/6 237/2/6
f 233/1/6 234/1/6 237/1/6
f 237/1/6 234/1/6 238/1/6
f 235/1/6 236/1/6 239/1/6
f 236/2/6 232/2/6 240/2/6
f 239/1/6 236/1/6 240/1/6
f 238/1/6 234/1/6 241/1/6
f 234/2/6 235/2/6 241/2/6
f 241/2/6 235/2/6 242/2/6
f 242/2/6 235/2/6 243/2/6
f 235/1/6 239/1/6 244/1/6
f 243/2/6 235/2/6 244/2/6
f 231/2/6 237/2/6 245/2/6
f 237/2/6 238/2/6 245/2/6
f 245/2/6 238/2/6 246/2/6
f 238/1/6 241/1/6 247/1/6
f 246/2/6 238/2/6 247/2/6
f 241/1/6 242/1/6 247/1/6
f 242/2/6 243/2/6 248/2/6
f 247/1/6 242/1/6 248/1/6
f 243/1/6 244/1/6 249/1/6
f 248/2/6 243/2/6 249/2/6
f 239/2/6 240/2/6 250/2/6
f 249/1/6 244/1/6 250/1/6
f 244/1/6 239/1/6 250/1/6
f 250/2/6 240/2/6 251/2/6
f 240/2/6 232/2/6 252/2/6
f 251/2/6 240/2/6 252/2/6
f 231/2/6 245/2/6 253/2/6
f 245/1/6 246/1/6 253/1/6
f 246/2/6 247/2/6 254/2/6
f 253/1/6 246/1/6 254/1/6
f 250/2/6 251/2/6 254/2/6
f 249/2/6 250/2/6 254/2/6
f 248/2/6 249/2/6 254/2/6
f 247/2/6 248/2/6 254/2/6
f 254/2/6 251/2/6 255/2/6
f 255/2/6 251/2/6 256/2/6
f 256/2/6 251/2/6 257/2/6
f 257/2/6 251/2/6 258/2/6
f 251/1/6 252/1/6 259/1/6
f 258/2/6 251/2/6 259/2/6
f 252/2/6 232/2/6 260/2/6
f 259/1/6 252/1/6 260/1/6
f 255/1/6 256/1/6 261/1/6
f 256/2/6 257/2/6 262/2/6
f 261/1/6 256/1/6 262/1/6
f 257/1/6 258/1/6 263/1/6
f 262/2/6 257/2/6 263/2/6
f 263/1/6 258/1/6 264/1/6
f 253/2/6 254/2/6 265/2/6
f 254/2/6 255/2/6 265/2/6
f 255/1/6 261/1/6 266/1/6
f 265/2/6 255/2/6 266/2/6
f 258/2/6 259/2/6 267/2/6
f 264/1/6 258/1/6 267/1/6
f 259/2/6 260/2/6 267/2/6
f 267/2/6 260/2/6 268/2/6
f 265/1/6 266/1/6 269/1/6
f 253/2/6 265/2/6 269/2/6
f 261/2/6 262/2/6 270/2/6
f 269/1/6 266/1/6 270/1/6
f 266/1/6 261/1/6 270/1/6
f 263/2/6 264/2/6 270/2/6
f 262/2/6 263/2/6 270/2/6
f 264/1/6 267/1/6 271/1/6
f 270/2/6 264/2/6 271/2/6
f 267/1/6 268/1/6 271/1/6
f 268/2/6 260/2/6 272/2/6
f 271/1/6 268/1/6 272/1/6
f 231/2/6 253/2/6 273/2/6
f 253/2/6 269/2/6 273/2/6
f 271/2/6 272/2/6 273/2/6
f 269/2/6 270/2/6 273/2/6
f 270/2/6 271/2/6 273/2/6
f 272/2/6 260/2/6 274/2/6
f 273/2/6 272/2/6 274/2/6
f 260/2/6 232/2/6 274/2/6
f 275/1/6 276/1/6 277/1/6
f 277/1/6 276/1/6 278/1/6
f 279/1/6 280/1/6 281/1/6
f 281/1/6 280/1/6 282/1/6
f 283/2/6 284/2/6 285/2/6
f 285/2/6 284/2/6 286/2/6
f 287/1/6 288/1/6 289/1/6
f 289/1/6 288/1/6 290/1/6
f 291/1/6 292/1/6 293/1/6
f 293/1/6 292/1/6 294/1/6
f 295/2/6 296/2/6 297/2/6
f 297/2/6 296/2/6 298/2/6
f 299/1/6 300/1/6 301/1/6
f 301/1/6 300/1/6 302/1/6
f 303/1/6 304/1/6 305/1/6
f 305/1/6 304/1/6 306/1/6
f 307/2/6 308/2/6 309/2/6
f 309/2/6 308/2/6 310/2/6
f 311/1/6 312/1/6 313/1/6
f 313/1/6 312/1/6 314/1/6
f 315/1/6 316/1/6 317/1/6
f 317/1/6 316/1/6 318/1/6
f 319/1/6 320/1/6 321/1/6
f 321/1/6 320/1/6 322/1/6
f 323/1/6 324/1/6 325/1/6
f 325/1/6 324/1/6 326/1/6
