# MagicaVoxel @ Ephtracy

# group
g Background_Snow_SmallTree-0

# material
mtllib Background_Snow_SmallTree-0.mtl
usemtl palette

# normals
vn -1 0 0
vn 1 0 0
vn 0 0 1
vn 0 0 -1
vn 0 -1 0
vn 0 1 0

# texcoords
vt 0.0488281 0.5
vt 0.150391 0.5

# verts
v -2.5 0.5 -2
v -2.5 0.5 -3
v -2.5 1.5 -2
v -2.5 1.5 -3
v -2.5 2.5 -2
v -2.5 2.5 -3
v -1.5 -1.5 -1
v -1.5 -1.5 -2
v -1.5 0.5 -1
v -1.5 0.5 -2
v -1.5 1.5 -1
v -1.5 1.5 -2
v -0.5 -5.5 -0
v -0.5 -5.5 -2
v -0.5 -3.5 -1
v -0.5 -3.5 -2
v -0.5 -1.5 -1
v -0.5 0.5 -1
v -0.5 1.5 -1
v -0.5 4.5 -0
v -0.5 4.5 -1
v -0.5 5.5 -0
v -0.5 5.5 -1
v 0.5 0.5 2
v 0.5 0.5 -0
v 0.5 1.5 1
v 0.5 1.5 -0
v 0.5 2.5 2
v 0.5 2.5 1
v 0.5 3.5 2
v 0.5 3.5 1
v 1.5 2.5 3
v 1.5 2.5 2
v 1.5 3.5 2
v 1.5 4.5 3
v 1.5 4.5 2
v 1.5 5.5 3
v 1.5 5.5 2
v -1.5 0.5 -2
v -1.5 0.5 -3
v -1.5 1.5 -2
v -1.5 1.5 -3
v -1.5 2.5 -2
v -1.5 2.5 -3
v -0.5 -1.5 -1
v -0.5 -1.5 -2
v -0.5 0.5 -1
v -0.5 0.5 -2
v -0.5 1.5 -1
v -0.5 1.5 -2
v 0.5 -5.5 -1
v 0.5 -5.5 -2
v 0.5 -3.5 -1
v 0.5 -3.5 -2
v 0.5 -2.5 -0
v 0.5 -2.5 -1
v 0.5 0.5 -0
v 0.5 0.5 -1
v 0.5 1.5 -0
v 0.5 1.5 -1
v 0.5 4.5 -0
v 0.5 4.5 -1
v 0.5 5.5 -0
v 0.5 5.5 -1
v 1.5 -5.5 -0
v 1.5 -5.5 -1
v 1.5 -2.5 -0
v 1.5 -2.5 -1
v 1.5 0.5 2
v 1.5 0.5 -1
v 1.5 1.5 2
v 1.5 1.5 1
v 1.5 1.5 -1
v 2.5 1.5 2
v 2.5 1.5 1
v 2.5 2.5 3
v 2.5 2.5 2
v 2.5 2.5 1
v 2.5 3.5 2
v 2.5 3.5 1
v 2.5 4.5 3
v 2.5 4.5 2
v 2.5 5.5 3
v 2.5 5.5 2
v 1.5 2.5 3
v 1.5 4.5 3
v 1.5 5.5 3
v 2.5 2.5 3
v 2.5 4.5 3
v 2.5 5.5 3
v 0.5 0.5 2
v 0.5 2.5 2
v 0.5 3.5 2
v 1.5 0.5 2
v 1.5 1.5 2
v 1.5 2.5 2
v 1.5 3.5 2
v 2.5 1.5 2
v 2.5 2.5 2
v -0.5 -5.5 -0
v -0.5 4.5 -0
v -0.5 5.5 -0
v 0.5 -2.5 -0
v 0.5 0.5 -0
v 0.5 1.5 -0
v 0.5 4.5 -0
v 0.5 5.5 -0
v 1.5 -5.5 -0
v 1.5 -2.5 -0
v -1.5 -1.5 -1
v -1.5 0.5 -1
v -1.5 1.5 -1
v -0.5 -1.5 -1
v -0.5 0.5 -1
v -0.5 1.5 -1
v -2.5 0.5 -2
v -2.5 1.5 -2
v -2.5 2.5 -2
v -1.5 0.5 -2
v -1.5 1.5 -2
v -1.5 2.5 -2
v 1.5 3.5 2
v 1.5 4.5 2
v 1.5 5.5 2
v 2.5 3.5 2
v 2.5 4.5 2
v 2.5 5.5 2
v 0.5 1.5 1
v 0.5 2.5 1
v 0.5 3.5 1
v 1.5 1.5 1
v 2.5 1.5 1
v 2.5 2.5 1
v 2.5 3.5 1
v -0.5 -3.5 -1
v -0.5 -1.5 -1
v -0.5 0.5 -1
v -0.5 1.5 -1
v -0.5 4.5 -1
v -0.5 5.5 -1
v 0.5 -5.5 -1
v 0.5 -3.5 -1
v 0.5 -2.5 -1
v 0.5 0.5 -1
v 0.5 1.5 -1
v 0.5 4.5 -1
v 0.5 5.5 -1
v 1.5 -5.5 -1
v 1.5 -2.5 -1
v 1.5 0.5 -1
v 1.5 1.5 -1
v -1.5 -1.5 -2
v -1.5 0.5 -2
v -1.5 1.5 -2
v -0.5 -5.5 -2
v -0.5 -3.5 -2
v -0.5 -1.5 -2
v -0.5 0.5 -2
v -0.5 1.5 -2
v 0.5 -5.5 -2
v 0.5 -3.5 -2
v -2.5 0.5 -3
v -2.5 1.5 -3
v -2.5 2.5 -3
v -1.5 0.5 -3
v -1.5 1.5 -3
v -1.5 2.5 -3
v -0.5 -5.5 -0
v 1.5 -5.5 -0
v 0.5 -5.5 -1
v 1.5 -5.5 -1
v -0.5 -5.5 -2
v 0.5 -5.5 -2
v -1.5 -1.5 -1
v -0.5 -1.5 -1
v -1.5 -1.5 -2
v -0.5 -1.5 -2
v 0.5 0.5 2
v 1.5 0.5 2
v 0.5 0.5 -0
v 0.5 0.5 -1
v 1.5 0.5 -1
v -2.5 0.5 -2
v -1.5 0.5 -2
v -2.5 0.5 -3
v -1.5 0.5 -3
v 1.5 1.5 2
v 2.5 1.5 2
v 1.5 1.5 1
v 2.5 1.5 1
v 1.5 2.5 3
v 2.5 2.5 3
v 1.5 2.5 2
v 2.5 2.5 2
v -0.5 -3.5 -1
v 0.5 -3.5 -1
v -0.5 -3.5 -2
v 0.5 -3.5 -2
v 0.5 -2.5 -0
v 1.5 -2.5 -0
v 0.5 -2.5 -1
v 1.5 -2.5 -1
v 0.5 1.5 1
v 1.5 1.5 1
v 0.5 1.5 -0
v -1.5 1.5 -1
v -0.5 1.5 -1
v 0.5 1.5 -1
v 1.5 1.5 -1
v -1.5 1.5 -2
v -0.5 1.5 -2
v -2.5 2.5 -2
v -1.5 2.5 -2
v -2.5 2.5 -3
v -1.5 2.5 -3
v 0.5 3.5 2
v 1.5 3.5 2
v 2.5 3.5 2
v 0.5 3.5 1
v 2.5 3.5 1
v 1.5 5.5 3
v 2.5 5.5 3
v 1.5 5.5 2
v 2.5 5.5 2
v -0.5 5.5 -0
v 0.5 5.5 -0
v -0.5 5.5 -1
v 0.5 5.5 -1

# faces
f 3/2/1 2/2/1 1/2/1
f 4/2/1 2/2/1 3/2/1
f 5/1/1 4/1/1 3/1/1
f 6/1/1 4/1/1 5/1/1
f 9/2/1 8/2/1 7/2/1
f 10/2/1 8/2/1 9/2/1
f 11/1/1 10/1/1 9/1/1
f 12/1/1 10/1/1 11/1/1
f 15/2/1 14/2/1 13/2/1
f 16/2/1 14/2/1 15/2/1
f 17/2/1 15/2/1 13/2/1
f 18/2/1 17/2/1 13/2/1
f 19/2/1 18/2/1 13/2/1
f 20/2/1 19/2/1 13/2/1
f 21/2/1 19/2/1 20/2/1
f 22/1/1 21/1/1 20/1/1
f 23/1/1 21/1/1 22/1/1
f 26/2/1 25/2/1 24/2/1
f 27/2/1 25/2/1 26/2/1
f 28/2/1 26/2/1 24/2/1
f 29/2/1 26/2/1 28/2/1
f 30/1/1 29/1/1 28/1/1
f 31/1/1 29/1/1 30/1/1
f 34/2/1 33/2/1 32/2/1
f 35/2/1 34/2/1 32/2/1
f 36/2/1 34/2/1 35/2/1
f 37/1/1 36/1/1 35/1/1
f 38/1/1 36/1/1 37/1/1
f 39/2/2 40/2/2 41/2/2
f 41/2/2 40/2/2 42/2/2
f 41/1/2 42/1/2 43/1/2
f 43/1/2 42/1/2 44/1/2
f 45/2/2 46/2/2 47/2/2
f 47/2/2 46/2/2 48/2/2
f 47/1/2 48/1/2 49/1/2
f 49/1/2 48/1/2 50/1/2
f 51/2/2 52/2/2 53/2/2
f 53/2/2 52/2/2 54/2/2
f 55/2/2 56/2/2 57/2/2
f 57/2/2 56/2/2 58/2/2
f 59/2/2 60/2/2 61/2/2
f 61/2/2 60/2/2 62/2/2
f 61/1/2 62/1/2 63/1/2
f 63/1/2 62/1/2 64/1/2
f 65/2/2 66/2/2 67/2/2
f 67/2/2 66/2/2 68/2/2
f 69/2/2 70/2/2 71/2/2
f 71/2/2 70/2/2 72/2/2
f 72/2/2 70/2/2 73/2/2
f 74/2/2 75/2/2 77/2/2
f 77/2/2 75/2/2 78/2/2
f 76/2/2 77/2/2 79/2/2
f 77/1/2 78/1/2 79/1/2
f 79/1/2 78/1/2 80/1/2
f 76/2/2 79/2/2 81/2/2
f 81/2/2 79/2/2 82/2/2
f 81/1/2 82/1/2 83/1/2
f 83/1/2 82/1/2 84/1/2
f 88/2/3 86/2/3 85/2/3
f 89/1/3 87/1/3 86/1/3
f 89/2/3 86/2/3 88/2/3
f 90/1/3 87/1/3 89/1/3
f 94/2/3 92/2/3 91/2/3
f 95/2/3 92/2/3 94/2/3
f 96/1/3 93/1/3 92/1/3
f 96/2/3 92/2/3 95/2/3
f 97/1/3 93/1/3 96/1/3
f 98/2/3 96/2/3 95/2/3
f 99/2/3 96/2/3 98/2/3
f 103/2/3 101/2/3 100/2/3
f 104/2/3 101/2/3 103/2/3
f 105/2/3 101/2/3 104/2/3
f 106/1/3 102/1/3 101/1/3
f 106/2/3 101/2/3 105/2/3
f 107/1/3 102/1/3 106/1/3
f 108/2/3 103/2/3 100/2/3
f 109/2/3 103/2/3 108/2/3
f 113/2/3 111/2/3 110/2/3
f 114/1/3 112/1/3 111/1/3
f 114/2/3 111/2/3 113/2/3
f 115/1/3 112/1/3 114/1/3
f 119/2/3 117/2/3 116/2/3
f 120/1/3 118/1/3 117/1/3
f 120/2/3 117/2/3 119/2/3
f 121/1/3 118/1/3 120/1/3
f 122/2/4 123/2/4 125/2/4
f 123/1/4 124/1/4 126/1/4
f 125/2/4 123/2/4 126/2/4
f 126/1/4 124/1/4 127/1/4
f 128/2/4 129/2/4 131/2/4
f 131/2/4 129/2/4 132/2/4
f 129/1/4 130/1/4 133/1/4
f 132/2/4 129/2/4 133/2/4
f 133/1/4 130/1/4 134/1/4
f 135/2/4 136/2/4 142/2/4
f 136/2/4 137/2/4 142/2/4
f 138/2/4 139/2/4 142/2/4
f 137/2/4 138/2/4 142/2/4
f 142/2/4 139/2/4 143/2/4
f 143/2/4 139/2/4 144/2/4
f 144/2/4 139/2/4 145/2/4
f 139/1/4 140/1/4 146/1/4
f 145/2/4 139/2/4 146/2/4
f 146/1/4 140/1/4 147/1/4
f 141/2/4 142/2/4 148/2/4
f 142/2/4 143/2/4 148/2/4
f 148/2/4 143/2/4 149/2/4
f 144/2/4 145/2/4 150/2/4
f 150/2/4 145/2/4 151/2/4
f 152/2/4 153/2/4 157/2/4
f 153/1/4 154/1/4 158/1/4
f 157/2/4 153/2/4 158/2/4
f 158/1/4 154/1/4 159/1/4
f 155/2/4 156/2/4 160/2/4
f 160/2/4 156/2/4 161/2/4
f 162/2/4 163/2/4 165/2/4
f 163/1/4 164/1/4 166/1/4
f 165/2/4 163/2/4 166/2/4
f 166/1/4 164/1/4 167/1/4
f 170/2/5 169/2/5 168/2/5
f 171/2/5 169/2/5 170/2/5
f 172/2/5 170/2/5 168/2/5
f 173/2/5 170/2/5 172/2/5
f 176/2/5 175/2/5 174/2/5
f 177/2/5 175/2/5 176/2/5
f 180/2/5 179/2/5 178/2/5
f 181/2/5 179/2/5 180/2/5
f 182/2/5 179/2/5 181/2/5
f 185/2/5 184/2/5 183/2/5
f 186/2/5 184/2/5 185/2/5
f 189/2/5 188/2/5 187/2/5
f 190/2/5 188/2/5 189/2/5
f 193/2/5 192/2/5 191/2/5
f 194/2/5 192/2/5 193/2/5
f 195/2/6 196/2/6 197/2/6
f 197/2/6 196/2/6 198/2/6
f 199/2/6 200/2/6 201/2/6
f 201/2/6 200/2/6 202/2/6
f 203/2/6 204/2/6 205/2/6
f 205/2/6 204/2/6 208/2/6
f 208/2/6 204/2/6 209/2/6
f 206/1/6 207/1/6 210/1/6
f 210/1/6 207/1/6 211/1/6
f 212/1/6 213/1/6 214/1/6
f 214/1/6 213/1/6 215/1/6
f 216/1/6 217/1/6 219/1/6
f 217/1/6 218/1/6 219/1/6
f 219/1/6 218/1/6 220/1/6
f 221/1/6 222/1/6 223/1/6
f 223/1/6 222/1/6 224/1/6
f 225/1/6 226/1/6 227/1/6
f 227/1/6 226/1/6 228/1/6
