# MagicaVoxel @ Ephtracy

# group
g Background_Snow_Rock-3

# material
mtllib Background_Snow_Rock-3.mtl
usemtl palette

# normals
vn -1 0 0
vn 1 0 0
vn 0 0 1
vn 0 0 -1
vn 0 -1 0
vn 0 1 0

# texcoords
vt 0.0488281 0.5
vt 0.0957031 0.5

# verts
v -10.5 -7.5 1.5
v -10.5 -7.5 -3.5
v -10.5 3.5 1.5
v -10.5 3.5 -3.5
v -10.5 4.5 1.5
v -10.5 4.5 -3.5
v -9.5 -7.5 -3.5
v -9.5 -7.5 -5.5
v -9.5 0.5 -3.5
v -9.5 0.5 -5.5
v -9.5 1.5 -3.5
v -9.5 1.5 -5.5
v -7.5 -7.5 3.5
v -7.5 -7.5 1.5
v -7.5 -5.5 3.5
v -7.5 -5.5 1.5
v -7.5 -4.5 3.5
v -7.5 -4.5 1.5
v -7.5 4.5 0.5
v -7.5 4.5 -3.5
v -7.5 5.5 0.5
v -7.5 5.5 -3.5
v -2.5 -7.5 4.5
v -2.5 -7.5 1.5
v -2.5 3.5 4.5
v -2.5 3.5 1.5
v -2.5 4.5 4.5
v -2.5 4.5 1.5
v -0.5 -7.5 5.5
v -0.5 -7.5 4.5
v -0.5 3.5 5.5
v -0.5 3.5 4.5
v -0.5 4.5 5.5
v -0.5 4.5 4.5
v 0.5 4.5 3.5
v 0.5 4.5 0.5
v 0.5 5.5 0.5
v 0.5 5.5 -2.5
v 0.5 6.5 3.5
v 0.5 6.5 -2.5
v 0.5 7.5 3.5
v 0.5 7.5 -2.5
v 1.5 1.5 -3.5
v 1.5 1.5 -5.5
v 1.5 3.5 -3.5
v 1.5 3.5 -5.5
v 1.5 4.5 -3.5
v 1.5 4.5 -5.5
v -5.5 -7.5 3.5
v -5.5 -7.5 1.5
v -5.5 -5.5 3.5
v -5.5 -5.5 1.5
v -5.5 -4.5 3.5
v -5.5 -4.5 1.5
v 2.5 4.5 -2.5
v 2.5 4.5 -3.5
v 2.5 5.5 -2.5
v 2.5 5.5 -3.5
v 5.5 4.5 3.5
v 5.5 4.5 -2.5
v 5.5 6.5 3.5
v 5.5 6.5 -2.5
v 5.5 7.5 3.5
v 5.5 7.5 -2.5
v 7.5 -7.5 5.5
v 7.5 -7.5 3.5
v 7.5 -7.5 -4.5
v 7.5 -7.5 -5.5
v 7.5 -1.5 3.5
v 7.5 -1.5 -4.5
v 7.5 -0.5 3.5
v 7.5 -0.5 -4.5
v 7.5 3.5 5.5
v 7.5 3.5 -5.5
v 7.5 4.5 5.5
v 7.5 4.5 -5.5
v 8.5 -3.5 3.5
v 8.5 -3.5 2.5
v 8.5 -1.5 3.5
v 8.5 -1.5 2.5
v 8.5 -0.5 3.5
v 8.5 -0.5 2.5
v 9.5 -7.5 3.5
v 9.5 -7.5 2.5
v 9.5 -4.5 3.5
v 9.5 -4.5 2.5
v 9.5 -3.5 3.5
v 9.5 -3.5 2.5
v 10.5 -7.5 2.5
v 10.5 -7.5 -4.5
v 10.5 -1.5 2.5
v 10.5 -1.5 -4.5
v 10.5 -0.5 2.5
v 10.5 -0.5 -4.5
v -0.5 -7.5 5.5
v -0.5 3.5 5.5
v -0.5 4.5 5.5
v 7.5 -7.5 5.5
v 7.5 3.5 5.5
v 7.5 4.5 5.5
v -2.5 -7.5 4.5
v -2.5 3.5 4.5
v -2.5 4.5 4.5
v -0.5 -7.5 4.5
v -0.5 3.5 4.5
v -0.5 4.5 4.5
v -7.5 -7.5 3.5
v -7.5 -5.5 3.5
v -7.5 -4.5 3.5
v -5.5 -7.5 3.5
v -5.5 -5.5 3.5
v -5.5 -4.5 3.5
v 0.5 4.5 3.5
v 0.5 6.5 3.5
v 0.5 7.5 3.5
v 5.5 4.5 3.5
v 5.5 6.5 3.5
v 5.5 7.5 3.5
v 7.5 -7.5 3.5
v 7.5 -1.5 3.5
v 7.5 -0.5 3.5
v 8.5 -4.5 3.5
v 8.5 -3.5 3.5
v 8.5 -1.5 3.5
v 8.5 -0.5 3.5
v 9.5 -7.5 3.5
v 9.5 -4.5 3.5
v 9.5 -3.5 3.5
v 8.5 -3.5 2.5
v 8.5 -1.5 2.5
v 8.5 -0.5 2.5
v 9.5 -7.5 2.5
v 9.5 -4.5 2.5
v 9.5 -3.5 2.5
v 10.5 -7.5 2.5
v 10.5 -1.5 2.5
v 10.5 -0.5 2.5
v -10.5 -7.5 1.5
v -10.5 3.5 1.5
v -10.5 4.5 1.5
v -7.5 -7.5 1.5
v -7.5 -5.5 1.5
v -7.5 -4.5 1.5
v -5.5 -7.5 1.5
v -5.5 -5.5 1.5
v -5.5 -4.5 1.5
v -2.5 -7.5 1.5
v -2.5 3.5 1.5
v -2.5 4.5 1.5
v -7.5 4.5 0.5
v -7.5 5.5 0.5
v 0.5 4.5 0.5
v 0.5 5.5 0.5
v 0.5 5.5 -2.5
v 0.5 6.5 -2.5
v 0.5 7.5 -2.5
v 2.5 4.5 -2.5
v 2.5 5.5 -2.5
v 5.5 4.5 -2.5
v 5.5 6.5 -2.5
v 5.5 7.5 -2.5
v -10.5 -7.5 -3.5
v -10.5 3.5 -3.5
v -10.5 4.5 -3.5
v -9.5 -7.5 -3.5
v -9.5 0.5 -3.5
v -9.5 1.5 -3.5
v -7.5 3.5 -3.5
v -7.5 4.5 -3.5
v -7.5 5.5 -3.5
v 1.5 1.5 -3.5
v 1.5 3.5 -3.5
v 1.5 4.5 -3.5
v 2.5 4.5 -3.5
v 2.5 5.5 -3.5
v 7.5 -7.5 -4.5
v 7.5 -1.5 -4.5
v 7.5 -0.5 -4.5
v 10.5 -7.5 -4.5
v 10.5 -1.5 -4.5
v 10.5 -0.5 -4.5
v -9.5 -7.5 -5.5
v -9.5 0.5 -5.5
v -9.5 1.5 -5.5
v 1.5 0.5 -5.5
v 1.5 1.5 -5.5
v 1.5 3.5 -5.5
v 1.5 4.5 -5.5
v 7.5 -7.5 -5.5
v 7.5 3.5 -5.5
v 7.5 4.5 -5.5
v -0.5 -7.5 5.5
v 7.5 -7.5 5.5
v -2.5 -7.5 4.5
v -0.5 -7.5 4.5
v -7.5 -7.5 3.5
v -5.5 -7.5 3.5
v 7.5 -7.5 3.5
v 9.5 -7.5 3.5
v 9.5 -7.5 2.5
v 10.5 -7.5 2.5
v -10.5 -7.5 1.5
v -7.5 -7.5 1.5
v -5.5 -7.5 1.5
v -2.5 -7.5 1.5
v -10.5 -7.5 -3.5
v -9.5 -7.5 -3.5
v 7.5 -7.5 -4.5
v 10.5 -7.5 -4.5
v -9.5 -7.5 -5.5
v 7.5 -7.5 -5.5
v -7.5 -4.5 3.5
v -5.5 -4.5 3.5
v -7.5 -4.5 1.5
v -5.5 -4.5 1.5
v 8.5 -3.5 3.5
v 9.5 -3.5 3.5
v 8.5 -3.5 2.5
v 9.5 -3.5 2.5
v 7.5 -0.5 3.5
v 8.5 -0.5 3.5
v 8.5 -0.5 2.5
v 10.5 -0.5 2.5
v 7.5 -0.5 -4.5
v 10.5 -0.5 -4.5
v -9.5 1.5 -3.5
v 1.5 1.5 -3.5
v -9.5 1.5 -5.5
v 1.5 1.5 -5.5
v -0.5 4.5 5.5
v 7.5 4.5 5.5
v -2.5 4.5 4.5
v -0.5 4.5 4.5
v 0.5 4.5 3.5
v 5.5 4.5 3.5
v -10.5 4.5 1.5
v -2.5 4.5 1.5
v -7.5 4.5 0.5
v 0.5 4.5 0.5
v 2.5 4.5 -2.5
v 5.5 4.5 -2.5
v -10.5 4.5 -3.5
v -7.5 4.5 -3.5
v 1.5 4.5 -3.5
v 2.5 4.5 -3.5
v 1.5 4.5 -5.5
v 7.5 4.5 -5.5
v -7.5 5.5 0.5
v 0.5 5.5 0.5
v 0.5 5.5 -2.5
v 2.5 5.5 -2.5
v -7.5 5.5 -3.5
v 2.5 5.5 -3.5
v 0.5 7.5 3.5
v 5.5 7.5 3.5
v 0.5 7.5 -2.5
v 5.5 7.5 -2.5

# faces
f 3/2/1 2/2/1 1/2/1
f 4/2/1 2/2/1 3/2/1
f 5/1/1 4/1/1 3/1/1
f 6/1/1 4/1/1 5/1/1
f 9/2/1 8/2/1 7/2/1
f 10/2/1 8/2/1 9/2/1
f 11/1/1 10/1/1 9/1/1
f 12/1/1 10/1/1 11/1/1
f 15/2/1 14/2/1 13/2/1
f 16/2/1 14/2/1 15/2/1
f 17/1/1 16/1/1 15/1/1
f 18/1/1 16/1/1 17/1/1
f 21/1/1 20/1/1 19/1/1
f 22/1/1 20/1/1 21/1/1
f 25/2/1 24/2/1 23/2/1
f 26/2/1 24/2/1 25/2/1
f 27/1/1 26/1/1 25/1/1
f 28/1/1 26/1/1 27/1/1
f 31/2/1 30/2/1 29/2/1
f 32/2/1 30/2/1 31/2/1
f 33/1/1 32/1/1 31/1/1
f 34/1/1 32/1/1 33/1/1
f 37/2/1 36/2/1 35/2/1
f 39/2/1 37/2/1 35/2/1
f 39/2/1 38/2/1 37/2/1
f 40/2/1 38/2/1 39/2/1
f 41/1/1 40/1/1 39/1/1
f 42/1/1 40/1/1 41/1/1
f 45/2/1 44/2/1 43/2/1
f 46/2/1 44/2/1 45/2/1
f 47/1/1 46/1/1 45/1/1
f 48/1/1 46/1/1 47/1/1
f 49/2/2 50/2/2 51/2/2
f 51/2/2 50/2/2 52/2/2
f 51/1/2 52/1/2 53/1/2
f 53/1/2 52/1/2 54/1/2
f 55/1/2 56/1/2 57/1/2
f 57/1/2 56/1/2 58/1/2
f 59/2/2 60/2/2 61/2/2
f 61/2/2 60/2/2 62/2/2
f 61/1/2 62/1/2 63/1/2
f 63/1/2 62/1/2 64/1/2
f 65/2/2 66/2/2 69/2/2
f 67/2/2 68/2/2 70/2/2
f 65/2/2 69/2/2 71/2/2
f 70/2/2 68/2/2 72/2/2
f 65/2/2 71/2/2 73/2/2
f 71/2/2 72/2/2 73/2/2
f 72/2/2 68/2/2 74/2/2
f 73/2/2 72/2/2 74/2/2
f 73/1/2 74/1/2 75/1/2
f 75/1/2 74/1/2 76/1/2
f 77/2/2 78/2/2 79/2/2
f 79/2/2 78/2/2 80/2/2
f 79/1/2 80/1/2 81/1/2
f 81/1/2 80/1/2 82/1/2
f 83/2/2 84/2/2 85/2/2
f 85/2/2 84/2/2 86/2/2
f 85/1/2 86/1/2 87/1/2
f 87/1/2 86/1/2 88/1/2
f 89/2/2 90/2/2 91/2/2
f 91/2/2 90/2/2 92/2/2
f 91/1/2 92/1/2 93/1/2
f 93/1/2 92/1/2 94/1/2
f 98/2/3 96/2/3 95/2/3
f 99/1/3 97/1/3 96/1/3
f 99/2/3 96/2/3 98/2/3
f 100/1/3 97/1/3 99/1/3
f 104/2/3 102/2/3 101/2/3
f 105/1/3 103/1/3 102/1/3
f 105/2/3 102/2/3 104/2/3
f 106/1/3 103/1/3 105/1/3
f 110/2/3 108/2/3 107/2/3
f 111/1/3 109/1/3 108/1/3
f 111/2/3 108/2/3 110/2/3
f 112/1/3 109/1/3 111/1/3
f 116/2/3 114/2/3 113/2/3
f 117/1/3 115/1/3 114/1/3
f 117/2/3 114/2/3 116/2/3
f 118/1/3 115/1/3 117/1/3
f 122/2/3 120/2/3 119/2/3
f 123/2/3 120/2/3 122/2/3
f 124/1/3 121/1/3 120/1/3
f 124/2/3 120/2/3 123/2/3
f 125/1/3 121/1/3 124/1/3
f 126/2/3 122/2/3 119/2/3
f 127/1/3 123/1/3 122/1/3
f 127/2/3 122/2/3 126/2/3
f 128/1/3 123/1/3 127/1/3
f 134/2/3 130/2/3 129/2/3
f 135/2/3 133/2/3 132/2/3
f 135/2/3 134/2/3 133/2/3
f 136/2/3 130/2/3 134/2/3
f 136/2/3 134/2/3 135/2/3
f 136/1/3 131/1/3 130/1/3
f 137/1/3 131/1/3 136/1/3
f 141/2/3 139/2/3 138/2/3
f 142/2/3 139/2/3 141/2/3
f 143/2/3 139/2/3 142/2/3
f 146/2/3 139/2/3 143/2/3
f 147/2/3 145/2/3 144/2/3
f 147/2/3 146/2/3 145/2/3
f 148/1/3 140/1/3 139/1/3
f 148/2/3 146/2/3 147/2/3
f 148/2/3 139/2/3 146/2/3
f 149/1/3 140/1/3 148/1/3
f 152/1/3 151/1/3 150/1/3
f 153/1/3 151/1/3 152/1/3
f 154/2/4 155/2/4 158/2/4
f 157/2/4 158/2/4 159/2/4
f 155/1/4 156/1/4 160/1/4
f 159/2/4 158/2/4 160/2/4
f 158/2/4 155/2/4 160/2/4
f 160/1/4 156/1/4 161/1/4
f 162/2/4 163/2/4 165/2/4
f 165/2/4 163/2/4 166/2/4
f 166/2/4 163/2/4 167/2/4
f 163/1/4 164/1/4 168/1/4
f 167/2/4 163/2/4 168/2/4
f 168/1/4 164/1/4 169/1/4
f 167/2/4 168/2/4 171/2/4
f 168/2/4 169/2/4 171/2/4
f 171/2/4 169/2/4 172/2/4
f 169/1/4 170/1/4 173/1/4
f 172/2/4 169/2/4 173/2/4
f 173/1/4 170/1/4 174/1/4
f 174/1/4 170/1/4 175/1/4
f 176/2/4 177/2/4 179/2/4
f 177/1/4 178/1/4 180/1/4
f 179/2/4 177/2/4 180/2/4
f 180/1/4 178/1/4 181/1/4
f 182/2/4 183/2/4 185/2/4
f 183/1/4 184/1/4 185/1/4
f 185/1/4 184/1/4 186/1/4
f 182/2/4 185/2/4 189/2/4
f 185/2/4 186/2/4 189/2/4
f 186/2/4 187/2/4 189/2/4
f 187/1/4 188/1/4 190/1/4
f 189/2/4 187/2/4 190/2/4
f 190/1/4 188/1/4 191/1/4
f 195/2/5 193/2/5 192/2/5
f 198/2/5 193/2/5 195/2/5
f 198/2/5 195/2/5 194/2/5
f 200/2/5 199/2/5 198/2/5
f 203/2/5 197/2/5 196/2/5
f 204/2/5 197/2/5 203/2/5
f 205/2/5 201/2/5 200/2/5
f 205/2/5 198/2/5 194/2/5
f 205/2/5 200/2/5 198/2/5
f 206/2/5 204/2/5 203/2/5
f 206/2/5 205/2/5 204/2/5
f 206/2/5 203/2/5 202/2/5
f 207/2/5 205/2/5 206/2/5
f 208/2/5 201/2/5 205/2/5
f 208/2/5 205/2/5 207/2/5
f 209/2/5 201/2/5 208/2/5
f 210/2/5 208/2/5 207/2/5
f 211/2/5 208/2/5 210/2/5
f 212/1/6 213/1/6 214/1/6
f 214/1/6 213/1/6 215/1/6
f 216/1/6 217/1/6 218/1/6
f 218/1/6 217/1/6 219/1/6
f 220/1/6 221/1/6 222/1/6
f 220/1/6 222/1/6 224/1/6
f 222/1/6 223/1/6 224/1/6
f 224/1/6 223/1/6 225/1/6
f 226/1/6 227/1/6 228/1/6
f 228/1/6 227/1/6 229/1/6
f 230/1/6 231/1/6 233/1/6
f 233/1/6 231/1/6 234/1/6
f 232/1/6 233/1/6 234/1/6
f 234/1/6 231/1/6 235/1/6
f 232/1/6 234/1/6 237/1/6
f 236/1/6 237/1/6 238/1/6
f 237/1/6 234/1/6 239/1/6
f 238/1/6 237/1/6 239/1/6
f 235/1/6 231/1/6 241/1/6
f 236/1/6 238/1/6 242/1/6
f 242/1/6 238/1/6 243/1/6
f 240/1/6 241/1/6 245/1/6
f 244/1/6 245/1/6 246/1/6
f 245/1/6 241/1/6 247/1/6
f 246/1/6 245/1/6 247/1/6
f 241/1/6 231/1/6 247/1/6
f 248/1/6 249/1/6 250/1/6
f 248/1/6 250/1/6 252/1/6
f 250/1/6 251/1/6 252/1/6
f 252/1/6 251/1/6 253/1/6
f 254/1/6 255/1/6 256/1/6
f 256/1/6 255/1/6 257/1/6
