# MagicaVoxel @ Ephtracy

# group
g Background_Snow_Grass-1

# material
mtllib Background_Snow_Grass-1.mtl
usemtl palette

# normals
vn -1 0 0
vn 1 0 0
vn 0 0 1
vn 0 0 -1
vn 0 -1 0
vn 0 1 0

# texcoords
vt 0.189453 0.5
vt 0.193359 0.5
vt 0.197266 0.5

# verts
v -1.5 -4 1
v -1.5 -4 -0
v -1.5 1 1
v -1.5 1 -0
v -1.5 3 1
v -1.5 3 -0
v -1.5 4 1
v -1.5 4 -0
v 0.5 -4 2
v 0.5 -4 1
v 0.5 -4 -1
v 0.5 -4 -2
v 0.5 0 2
v 0.5 0 1
v 0.5 0 -1
v 0.5 0 -2
v 0.5 1 2
v 0.5 1 1
v 0.5 2 -1
v 0.5 2 -2
v -0.5 -4 1
v -0.5 -4 -0
v -0.5 1 1
v -0.5 1 -0
v -0.5 3 1
v -0.5 3 -0
v -0.5 4 1
v -0.5 4 -0
v 1.5 -4 2
v 1.5 -4 1
v 1.5 -4 -1
v 1.5 -4 -2
v 1.5 0 2
v 1.5 0 1
v 1.5 0 -1
v 1.5 0 -2
v 1.5 1 2
v 1.5 1 1
v 1.5 2 -1
v 1.5 2 -2
v 0.5 -4 2
v 0.5 0 2
v 0.5 1 2
v 1.5 -4 2
v 1.5 0 2
v 1.5 1 2
v -1.5 -4 1
v -1.5 1 1
v -1.5 3 1
v -1.5 4 1
v -0.5 -4 1
v -0.5 1 1
v -0.5 3 1
v -0.5 4 1
v 0.5 -4 -1
v 0.5 0 -1
v 0.5 2 -1
v 1.5 -4 -1
v 1.5 0 -1
v 1.5 2 -1
v 0.5 -4 1
v 0.5 0 1
v 0.5 1 1
v 1.5 -4 1
v 1.5 0 1
v 1.5 1 1
v -1.5 -4 -0
v -1.5 1 -0
v -1.5 3 -0
v -1.5 4 -0
v -0.5 -4 -0
v -0.5 1 -0
v -0.5 3 -0
v -0.5 4 -0
v 0.5 -4 -2
v 0.5 0 -2
v 0.5 2 -2
v 1.5 -4 -2
v 1.5 0 -2
v 1.5 2 -2
v 0.5 -4 2
v 1.5 -4 2
v -1.5 -4 1
v -0.5 -4 1
v 0.5 -4 1
v 1.5 -4 1
v -1.5 -4 -0
v -0.5 -4 -0
v 0.5 -4 -1
v 1.5 -4 -1
v 0.5 -4 -2
v 1.5 -4 -2
v 0.5 1 2
v 1.5 1 2
v 0.5 1 1
v 1.5 1 1
v 0.5 2 -1
v 1.5 2 -1
v 0.5 2 -2
v 1.5 2 -2
v -1.5 4 1
v -0.5 4 1
v -1.5 4 -0
v -0.5 4 -0

# faces
f 3/1/1 2/1/1 1/1/1
f 4/1/1 2/1/1 3/1/1
f 5/2/1 4/2/1 3/2/1
f 6/2/1 4/2/1 5/2/1
f 7/3/1 6/3/1 5/3/1
f 8/3/1 6/3/1 7/3/1
f 13/1/1 10/1/1 9/1/1
f 14/1/1 10/1/1 13/1/1
f 15/1/1 12/1/1 11/1/1
f 16/1/1 12/1/1 15/1/1
f 17/2/1 14/2/1 13/2/1
f 18/2/1 14/2/1 17/2/1
f 19/2/1 16/2/1 15/2/1
f 20/2/1 16/2/1 19/2/1
f 21/1/2 22/1/2 23/1/2
f 23/1/2 22/1/2 24/1/2
f 23/2/2 24/2/2 25/2/2
f 25/2/2 24/2/2 26/2/2
f 25/3/2 26/3/2 27/3/2
f 27/3/2 26/3/2 28/3/2
f 29/1/2 30/1/2 33/1/2
f 33/1/2 30/1/2 34/1/2
f 31/1/2 32/1/2 35/1/2
f 35/1/2 32/1/2 36/1/2
f 33/2/2 34/2/2 37/2/2
f 37/2/2 34/2/2 38/2/2
f 35/2/2 36/2/2 39/2/2
f 39/2/2 36/2/2 40/2/2
f 44/1/3 42/1/3 41/1/3
f 45/2/3 43/2/3 42/2/3
f 45/1/3 42/1/3 44/1/3
f 46/2/3 43/2/3 45/2/3
f 51/1/3 48/1/3 47/1/3
f 52/2/3 49/2/3 48/2/3
f 52/1/3 48/1/3 51/1/3
f 53/3/3 50/3/3 49/3/3
f 53/2/3 49/2/3 52/2/3
f 54/3/3 50/3/3 53/3/3
f 58/1/3 56/1/3 55/1/3
f 59/2/3 57/2/3 56/2/3
f 59/1/3 56/1/3 58/1/3
f 60/2/3 57/2/3 59/2/3
f 61/1/4 62/1/4 64/1/4
f 62/2/4 63/2/4 65/2/4
f 64/1/4 62/1/4 65/1/4
f 65/2/4 63/2/4 66/2/4
f 67/1/4 68/1/4 71/1/4
f 68/2/4 69/2/4 72/2/4
f 71/1/4 68/1/4 72/1/4
f 69/3/4 70/3/4 73/3/4
f 72/2/4 69/2/4 73/2/4
f 73/3/4 70/3/4 74/3/4
f 75/1/4 76/1/4 78/1/4
f 76/2/4 77/2/4 79/2/4
f 78/1/4 76/1/4 79/1/4
f 79/2/4 77/2/4 80/2/4
f 85/1/5 82/1/5 81/1/5
f 86/1/5 82/1/5 85/1/5
f 87/1/5 84/1/5 83/1/5
f 88/1/5 84/1/5 87/1/5
f 91/1/5 90/1/5 89/1/5
f 92/1/5 90/1/5 91/1/5
f 93/2/6 94/2/6 95/2/6
f 95/2/6 94/2/6 96/2/6
f 97/2/6 98/2/6 99/2/6
f 99/2/6 98/2/6 100/2/6
f 101/3/6 102/3/6 103/3/6
f 103/3/6 102/3/6 104/3/6
