# MagicaVoxel @ Ephtracy

# group
g Background_Snow_Fence-1

# material
mtllib Background_Snow_Fence-1.mtl
usemtl palette

# normals
vn -1 0 0
vn 1 0 0
vn 0 0 1
vn 0 0 -1
vn 0 -1 0
vn 0 1 0

# texcoords
vt 0.0488281 0.5
vt 0.205078 0.5

# verts
v -5 0 1
v -5 0 -0
v -5 1 1
v -5 1 -0
v -5 2 1
v -5 2 -0
v -3 -3 -0
v -3 -3 -1
v -3 0 -0
v -3 1 -0
v -3 2 -0
v -3 2 -1
v -3 3 -0
v -3 3 -1
v 2 -3 -0
v 2 -3 -1
v 2 0 -0
v 2 1 -0
v 2 2 -0
v 2 2 -1
v 2 3 -0
v 2 3 -1
v -2 -3 -0
v -2 -3 -1
v -2 0 -0
v -2 1 -0
v -2 2 -0
v -2 2 -1
v -2 3 -0
v -2 3 -1
v 3 -3 -0
v 3 -3 -1
v 3 0 -0
v 3 1 -0
v 3 2 -0
v 3 2 -1
v 3 3 -0
v 3 3 -1
v 5 0 1
v 5 0 -0
v 5 1 1
v 5 1 -0
v 5 2 1
v 5 2 -0
v -5 0 1
v -5 1 1
v -5 2 1
v 5 0 1
v 5 1 1
v 5 2 1
v -3 -3 -0
v -3 0 -0
v -3 2 -0
v -3 3 -0
v -2 -3 -0
v -2 0 -0
v -2 2 -0
v -2 3 -0
v 2 -3 -0
v 2 0 -0
v 2 2 -0
v 2 3 -0
v 3 -3 -0
v 3 0 -0
v 3 2 -0
v 3 3 -0
v -5 0 -0
v -5 1 -0
v -5 2 -0
v -3 0 -0
v -3 1 -0
v -3 2 -0
v -2 0 -0
v -2 1 -0
v -2 2 -0
v 2 0 -0
v 2 1 -0
v 2 2 -0
v 3 0 -0
v 3 1 -0
v 3 2 -0
v 5 0 -0
v 5 1 -0
v 5 2 -0
v -3 -3 -1
v -3 2 -1
v -3 3 -1
v -2 -3 -1
v -2 2 -1
v -2 3 -1
v 2 -3 -1
v 2 2 -1
v 2 3 -1
v 3 -3 -1
v 3 2 -1
v 3 3 -1
v -3 -3 -0
v -2 -3 -0
v 2 -3 -0
v 3 -3 -0
v -3 -3 -1
v -2 -3 -1
v 2 -3 -1
v 3 -3 -1
v -5 0 1
v 5 0 1
v -5 0 -0
v -3 0 -0
v -2 0 -0
v 2 0 -0
v 3 0 -0
v 5 0 -0
v -5 2 1
v 5 2 1
v -5 2 -0
v -3 2 -0
v -2 2 -0
v 2 2 -0
v 3 2 -0
v 5 2 -0
v -3 3 -0
v -2 3 -0
v 2 3 -0
v 3 3 -0
v -3 3 -1
v -2 3 -1
v 2 3 -1
v 3 3 -1

# faces
f 3/2/1 2/2/1 1/2/1
f 4/2/1 2/2/1 3/2/1
f 5/1/1 4/1/1 3/1/1
f 6/1/1 4/1/1 5/1/1
f 9/2/1 8/2/1 7/2/1
f 10/2/1 8/2/1 9/2/1
f 11/2/1 8/2/1 10/2/1
f 12/2/1 8/2/1 11/2/1
f 13/1/1 12/1/1 11/1/1
f 14/1/1 12/1/1 13/1/1
f 17/2/1 16/2/1 15/2/1
f 18/2/1 16/2/1 17/2/1
f 19/2/1 16/2/1 18/2/1
f 20/2/1 16/2/1 19/2/1
f 21/1/1 20/1/1 19/1/1
f 22/1/1 20/1/1 21/1/1
f 23/2/2 24/2/2 25/2/2
f 25/2/2 24/2/2 26/2/2
f 26/2/2 24/2/2 27/2/2
f 27/2/2 24/2/2 28/2/2
f 27/1/2 28/1/2 29/1/2
f 29/1/2 28/1/2 30/1/2
f 31/2/2 32/2/2 33/2/2
f 33/2/2 32/2/2 34/2/2
f 34/2/2 32/2/2 35/2/2
f 35/2/2 32/2/2 36/2/2
f 35/1/2 36/1/2 37/1/2
f 37/1/2 36/1/2 38/1/2
f 39/2/2 40/2/2 41/2/2
f 41/2/2 40/2/2 42/2/2
f 41/1/2 42/1/2 43/1/2
f 43/1/2 42/1/2 44/1/2
f 48/2/3 46/2/3 45/2/3
f 49/1/3 47/1/3 46/1/3
f 49/2/3 46/2/3 48/2/3
f 50/1/3 47/1/3 49/1/3
f 55/2/3 52/2/3 51/2/3
f 56/2/3 52/2/3 55/2/3
f 57/1/3 54/1/3 53/1/3
f 58/1/3 54/1/3 57/1/3
f 63/2/3 60/2/3 59/2/3
f 64/2/3 60/2/3 63/2/3
f 65/1/3 62/1/3 61/1/3
f 66/1/3 62/1/3 65/1/3
f 67/2/4 68/2/4 70/2/4
f 68/1/4 69/1/4 71/1/4
f 70/2/4 68/2/4 71/2/4
f 71/1/4 69/1/4 72/1/4
f 73/2/4 74/2/4 76/2/4
f 74/1/4 75/1/4 77/1/4
f 76/2/4 74/2/4 77/2/4
f 77/1/4 75/1/4 78/1/4
f 79/2/4 80/2/4 82/2/4
f 80/1/4 81/1/4 83/1/4
f 82/2/4 80/2/4 83/2/4
f 83/1/4 81/1/4 84/1/4
f 85/2/4 86/2/4 88/2/4
f 86/1/4 87/1/4 89/1/4
f 88/2/4 86/2/4 89/2/4
f 89/1/4 87/1/4 90/1/4
f 91/2/4 92/2/4 94/2/4
f 92/1/4 93/1/4 95/1/4
f 94/2/4 92/2/4 95/2/4
f 95/1/4 93/1/4 96/1/4
f 101/2/5 98/2/5 97/2/5
f 102/2/5 98/2/5 101/2/5
f 103/2/5 100/2/5 99/2/5
f 104/2/5 100/2/5 103/2/5
f 107/2/5 106/2/5 105/2/5
f 108/2/5 106/2/5 107/2/5
f 109/2/5 106/2/5 108/2/5
f 110/2/5 106/2/5 109/2/5
f 111/2/5 106/2/5 110/2/5
f 112/2/5 106/2/5 111/2/5
f 113/1/6 114/1/6 115/1/6
f 115/1/6 114/1/6 116/1/6
f 116/1/6 114/1/6 117/1/6
f 117/1/6 114/1/6 118/1/6
f 118/1/6 114/1/6 119/1/6
f 119/1/6 114/1/6 120/1/6
f 121/1/6 122/1/6 125/1/6
f 125/1/6 122/1/6 126/1/6
f 123/1/6 124/1/6 127/1/6
f 127/1/6 124/1/6 128/1/6
