# MagicaVoxel @ Ephtracy

# group
g BackGround_Snow_Rock-5

# material
mtllib BackGround_Snow_Rock-5.mtl
usemtl palette

# normals
vn -1 0 0
vn 1 0 0
vn 0 0 1
vn 0 0 -1
vn 0 -1 0
vn 0 1 0

# texcoords
vt 0.0175781 0.5
vt 0.0644531 0.5

# verts
v -9 -16.5 3
v -9 -16.5 -6
v -9 -4.5 3
v -9 -4.5 -6
v -9 -3.5 3
v -9 -3.5 -6
v -7 -16.5 9
v -7 -16.5 3
v -7 -4.5 3
v -7 -3.5 3
v -7 -3.5 -6
v -7 2.5 9
v -7 2.5 -6
v -7 3.5 9
v -7 3.5 -6
v -6 -16.5 -6
v -6 -16.5 -8
v -6 2.5 -6
v -6 2.5 -8
v -6 3.5 5
v -6 3.5 -4
v -6 3.5 -6
v -6 3.5 -8
v -6 7.5 5
v -6 7.5 -4
v -6 8.5 5
v -6 8.5 -4
v -3 8.5 1
v -3 8.5 -4
v -3 9.5 1
v -3 9.5 -1
v -3 10.5 1
v -3 10.5 -1
v -3 15.5 -1
v -3 15.5 -4
v -3 16.5 -1
v -3 16.5 -4
v -1 -16.5 -8
v -1 -16.5 -10
v -1 -1.5 -8
v -1 -1.5 -10
v -1 -0.5 -8
v -1 -0.5 -10
v -1 3.5 -4
v -1 3.5 -5
v -1 8.5 -4
v -1 8.5 -5
v 1 3.5 2
v 1 3.5 1
v 1 9.5 2
v 1 9.5 1
v 1 10.5 2
v 1 10.5 1
v 2 -4.5 6
v 2 -4.5 5
v 2 2.5 6
v 2 2.5 5
v 2 3.5 6
v 2 3.5 5
v -5 2.5 9
v -5 2.5 5
v -5 3.5 9
v -5 3.5 5
v -3 -4.5 9
v -3 -4.5 5
v -3 1.5 9
v -3 1.5 5
v -3 2.5 9
v -3 2.5 5
v -1 3.5 5
v -1 3.5 1
v -1 7.5 5
v -1 7.5 1
v -1 8.5 5
v -1 8.5 1
v 2 -16.5 9
v 2 -16.5 6
v 2 -5.5 9
v 2 -5.5 6
v 2 -4.5 9
v 2 -4.5 6
v 2 8.5 -2
v 2 8.5 -4
v 2 9.5 -2
v 2 10.5 -1
v 2 10.5 -2
v 2 15.5 -1
v 2 15.5 -4
v 2 16.5 -1
v 2 16.5 -4
v 3 3.5 -4
v 3 3.5 -5
v 3 5.5 -4
v 3 6.5 2
v 3 6.5 -4
v 3 8.5 -2
v 3 8.5 -5
v 3 9.5 2
v 3 9.5 -2
v 3 10.5 2
v 3 10.5 -2
v 4 -0.5 -6
v 4 -0.5 -8
v 4 2.5 -6
v 4 2.5 -8
v 4 3.5 -6
v 4 3.5 -8
v 6 -16.5 -8
v 6 -16.5 -10
v 6 -7.5 -8
v 6 -6.5 -6
v 6 -6.5 -8
v 6 -1.5 -6
v 6 -1.5 -10
v 6 -0.5 -6
v 6 -0.5 -10
v 6 3.5 -0
v 6 3.5 -4
v 6 5.5 -0
v 6 5.5 -4
v 6 6.5 -0
v 6 6.5 -4
v 7 3.5 2
v 7 3.5 -0
v 7 5.5 2
v 7 5.5 -0
v 7 6.5 2
v 7 6.5 -0
v 8 -16.5 -3
v 8 -16.5 -8
v 8 -7.5 -6
v 8 -7.5 -8
v 8 -6.5 -6
v 8 -6.5 -8
v 8 2.5 -3
v 8 2.5 -6
v 8 3.5 -3
v 8 3.5 -6
v 9 -16.5 6
v 9 -16.5 -3
v 9 2.5 6
v 9 2.5 -3
v 9 3.5 6
v 9 3.5 -3
v -7 -16.5 9
v -7 2.5 9
v -7 3.5 9
v -5 1.5 9
v -5 2.5 9
v -5 3.5 9
v -3 -5.5 9
v -3 -4.5 9
v -3 1.5 9
v -3 2.5 9
v 2 -16.5 9
v 2 -5.5 9
v 2 -4.5 9
v 2 -16.5 6
v 2 -5.5 6
v 2 -4.5 6
v 2 2.5 6
v 2 3.5 6
v 9 -16.5 6
v 9 2.5 6
v 9 3.5 6
v -6 3.5 5
v -6 7.5 5
v -6 8.5 5
v -5 2.5 5
v -5 3.5 5
v -3 -4.5 5
v -3 1.5 5
v -3 2.5 5
v -1 2.5 5
v -1 3.5 5
v -1 7.5 5
v -1 8.5 5
v 2 -4.5 5
v 2 2.5 5
v 2 3.5 5
v -9 -16.5 3
v -9 -4.5 3
v -9 -3.5 3
v -7 -16.5 3
v -7 -4.5 3
v -7 -3.5 3
v 1 3.5 2
v 1 9.5 2
v 1 10.5 2
v 3 5.5 2
v 3 6.5 2
v 3 9.5 2
v 3 10.5 2
v 7 3.5 2
v 7 5.5 2
v 7 6.5 2
v -3 8.5 1
v -3 9.5 1
v -3 10.5 1
v -1 3.5 1
v -1 7.5 1
v -1 8.5 1
v 1 3.5 1
v 1 9.5 1
v 1 10.5 1
v -3 10.5 -1
v -3 15.5 -1
v -3 16.5 -1
v 2 10.5 -1
v 2 15.5 -1
v 2 16.5 -1
v 6 3.5 -0
v 6 5.5 -0
v 6 6.5 -0
v 7 3.5 -0
v 7 5.5 -0
v 7 6.5 -0
v 2 8.5 -2
v 2 9.5 -2
v 2 10.5 -2
v 3 8.5 -2
v 3 9.5 -2
v 3 10.5 -2
v 8 -16.5 -3
v 8 2.5 -3
v 8 3.5 -3
v 9 -16.5 -3
v 9 2.5 -3
v 9 3.5 -3
v -6 3.5 -4
v -6 7.5 -4
v -6 8.5 -4
v -3 7.5 -4
v -3 8.5 -4
v -3 15.5 -4
v -3 16.5 -4
v -1 3.5 -4
v -1 8.5 -4
v 2 8.5 -4
v 2 15.5 -4
v 2 16.5 -4
v 3 3.5 -4
v 3 5.5 -4
v 3 6.5 -4
v 6 3.5 -4
v 6 5.5 -4
v 6 6.5 -4
v -1 3.5 -5
v -1 8.5 -5
v 3 3.5 -5
v 3 8.5 -5
v -9 -16.5 -6
v -9 -4.5 -6
v -9 -3.5 -6
v -7 -4.5 -6
v -7 -3.5 -6
v -7 2.5 -6
v -7 3.5 -6
v -6 -16.5 -6
v -6 2.5 -6
v -6 3.5 -6
v 4 -0.5 -6
v 4 2.5 -6
v 4 3.5 -6
v 6 -6.5 -6
v 6 -1.5 -6
v 6 -0.5 -6
v 8 -6.5 -6
v 8 2.5 -6
v 8 3.5 -6
v -6 -16.5 -8
v -6 2.5 -8
v -6 3.5 -8
v -1 -16.5 -8
v -1 -1.5 -8
v -1 -0.5 -8
v 4 -0.5 -8
v 4 2.5 -8
v 4 3.5 -8
v 6 -16.5 -8
v 6 -7.5 -8
v 6 -6.5 -8
v 8 -16.5 -8
v 8 -7.5 -8
v 8 -6.5 -8
v -1 -16.5 -10
v -1 -1.5 -10
v -1 -0.5 -10
v 6 -16.5 -10
v 6 -1.5 -10
v 6 -0.5 -10
v -7 -16.5 9
v 2 -16.5 9
v 2 -16.5 6
v 9 -16.5 6
v -9 -16.5 3
v -7 -16.5 3
v 8 -16.5 -3
v 9 -16.5 -3
v -9 -16.5 -6
v -6 -16.5 -6
v -6 -16.5 -8
v -1 -16.5 -8
v 6 -16.5 -8
v 8 -16.5 -8
v -1 -16.5 -10
v 6 -16.5 -10
v 6 -6.5 -6
v 8 -6.5 -6
v 6 -6.5 -8
v 8 -6.5 -8
v -3 -4.5 9
v 2 -4.5 9
v 2 -4.5 6
v -3 -4.5 5
v 2 -4.5 5
v -9 -3.5 3
v -7 -3.5 3
v -9 -3.5 -6
v -7 -3.5 -6
v 4 -0.5 -6
v 6 -0.5 -6
v -1 -0.5 -8
v 4 -0.5 -8
v -1 -0.5 -10
v 6 -0.5 -10
v -5 2.5 9
v -3 2.5 9
v -5 2.5 5
v -3 2.5 5
v -7 3.5 9
v -5 3.5 9
v 2 3.5 6
v 9 3.5 6
v -6 3.5 5
v -5 3.5 5
v -1 3.5 5
v 2 3.5 5
v 1 3.5 2
v 7 3.5 2
v -1 3.5 1
v 1 3.5 1
v 6 3.5 -0
v 7 3.5 -0
v 8 3.5 -3
v 9 3.5 -3
v -6 3.5 -4
v -1 3.5 -4
v 3 3.5 -4
v 6 3.5 -4
v -1 3.5 -5
v 3 3.5 -5
v -7 3.5 -6
v -6 3.5 -6
v 4 3.5 -6
v 8 3.5 -6
v -6 3.5 -8
v 4 3.5 -8
v 3 6.5 2
v 7 6.5 2
v 6 6.5 -0
v 7 6.5 -0
v 3 6.5 -4
v 6 6.5 -4
v -6 8.5 5
v -1 8.5 5
v -3 8.5 1
v -1 8.5 1
v 2 8.5 -2
v 3 8.5 -2
v -6 8.5 -4
v -3 8.5 -4
v -1 8.5 -4
v 2 8.5 -4
v -1 8.5 -5
v 3 8.5 -5
v 1 10.5 2
v 3 10.5 2
v -3 10.5 1
v 1 10.5 1
v -3 10.5 -1
v 2 10.5 -1
v 2 10.5 -2
v 3 10.5 -2
v -3 16.5 -1
v 2 16.5 -1
v -3 16.5 -4
v 2 16.5 -4

# faces
f 3/2/1 2/2/1 1/2/1
f 4/2/1 2/2/1 3/2/1
f 5/1/1 4/1/1 3/1/1
f 6/1/1 4/1/1 5/1/1
f 9/2/1 8/2/1 7/2/1
f 10/2/1 9/2/1 7/2/1
f 12/2/1 10/2/1 7/2/1
f 12/2/1 11/2/1 10/2/1
f 13/2/1 11/2/1 12/2/1
f 14/1/1 13/1/1 12/1/1
f 15/1/1 13/1/1 14/1/1
f 18/2/1 17/2/1 16/2/1
f 19/2/1 17/2/1 18/2/1
f 22/1/1 19/1/1 18/1/1
f 23/1/1 19/1/1 22/1/1
f 24/2/1 21/2/1 20/2/1
f 25/2/1 21/2/1 24/2/1
f 26/1/1 25/1/1 24/1/1
f 27/1/1 25/1/1 26/1/1
f 30/2/1 29/2/1 28/2/1
f 31/2/1 29/2/1 30/2/1
f 32/1/1 31/1/1 30/1/1
f 33/2/1 29/2/1 31/2/1
f 33/1/1 31/1/1 32/1/1
f 34/2/1 29/2/1 33/2/1
f 35/2/1 29/2/1 34/2/1
f 36/1/1 35/1/1 34/1/1
f 37/1/1 35/1/1 36/1/1
f 40/2/1 39/2/1 38/2/1
f 41/2/1 39/2/1 40/2/1
f 42/1/1 41/1/1 40/1/1
f 43/1/1 41/1/1 42/1/1
f 46/2/1 45/2/1 44/2/1
f 47/2/1 45/2/1 46/2/1
f 50/2/1 49/2/1 48/2/1
f 51/2/1 49/2/1 50/2/1
f 52/1/1 51/1/1 50/1/1
f 53/1/1 51/1/1 52/1/1
f 56/2/1 55/2/1 54/2/1
f 57/2/1 55/2/1 56/2/1
f 58/1/1 57/1/1 56/1/1
f 59/1/1 57/1/1 58/1/1
f 60/1/2 61/1/2 62/1/2
f 62/1/2 61/1/2 63/1/2
f 64/2/2 65/2/2 66/2/2
f 66/2/2 65/2/2 67/2/2
f 66/1/2 67/1/2 68/1/2
f 68/1/2 67/1/2 69/1/2
f 70/2/2 71/2/2 72/2/2
f 72/2/2 71/2/2 73/2/2
f 72/1/2 73/1/2 74/1/2
f 74/1/2 73/1/2 75/1/2
f 76/2/2 77/2/2 78/2/2
f 78/2/2 77/2/2 79/2/2
f 78/1/2 79/1/2 80/1/2
f 80/1/2 79/1/2 81/1/2
f 82/2/2 83/2/2 84/2/2
f 84/2/2 83/2/2 86/2/2
f 85/2/2 86/2/2 87/2/2
f 86/2/2 83/2/2 88/2/2
f 87/2/2 86/2/2 88/2/2
f 87/1/2 88/1/2 89/1/2
f 89/1/2 88/1/2 90/1/2
f 91/2/2 92/2/2 93/2/2
f 93/2/2 92/2/2 95/2/2
f 94/2/2 95/2/2 96/2/2
f 95/2/2 92/2/2 97/2/2
f 96/2/2 95/2/2 97/2/2
f 94/2/2 96/2/2 98/2/2
f 98/2/2 96/2/2 99/2/2
f 98/1/2 99/1/2 100/1/2
f 100/1/2 99/1/2 101/1/2
f 102/2/2 103/2/2 104/2/2
f 104/2/2 103/2/2 105/2/2
f 104/1/2 105/1/2 106/1/2
f 106/1/2 105/1/2 107/1/2
f 108/2/2 109/2/2 110/2/2
f 110/2/2 109/2/2 112/2/2
f 111/2/2 112/2/2 113/2/2
f 112/2/2 109/2/2 114/2/2
f 113/2/2 112/2/2 114/2/2
f 113/1/2 114/1/2 115/1/2
f 115/1/2 114/1/2 116/1/2
f 117/2/2 118/2/2 119/2/2
f 119/2/2 118/2/2 120/2/2
f 119/1/2 120/1/2 121/1/2
f 121/1/2 120/1/2 122/1/2
f 123/2/2 124/2/2 125/2/2
f 125/2/2 124/2/2 126/2/2
f 125/1/2 126/1/2 127/1/2
f 127/1/2 126/1/2 128/1/2
f 129/2/2 130/2/2 131/2/2
f 131/2/2 130/2/2 132/2/2
f 129/2/2 131/2/2 133/2/2
f 131/1/2 132/1/2 133/1/2
f 133/1/2 132/1/2 134/1/2
f 129/2/2 133/2/2 135/2/2
f 135/2/2 133/2/2 136/2/2
f 135/1/2 136/1/2 137/1/2
f 137/1/2 136/1/2 138/1/2
f 139/2/2 140/2/2 141/2/2
f 141/2/2 140/2/2 142/2/2
f 141/1/2 142/1/2 143/1/2
f 143/1/2 142/1/2 144/1/2
f 148/2/3 146/2/3 145/2/3
f 149/1/3 147/1/3 146/1/3
f 149/2/3 146/2/3 148/2/3
f 150/1/3 147/1/3 149/1/3
f 151/2/3 148/2/3 145/2/3
f 152/2/3 148/2/3 151/2/3
f 153/1/3 149/1/3 148/1/3
f 153/2/3 148/2/3 152/2/3
f 154/1/3 149/1/3 153/1/3
f 155/2/3 151/2/3 145/2/3
f 156/1/3 152/1/3 151/1/3
f 156/2/3 151/2/3 155/2/3
f 157/1/3 152/1/3 156/1/3
f 163/2/3 159/2/3 158/2/3
f 163/2/3 160/2/3 159/2/3
f 163/2/3 161/2/3 160/2/3
f 164/1/3 162/1/3 161/1/3
f 164/2/3 161/2/3 163/2/3
f 165/1/3 162/1/3 164/1/3
f 170/2/3 167/2/3 166/2/3
f 173/2/3 170/2/3 169/2/3
f 174/2/3 172/2/3 171/2/3
f 174/2/3 173/2/3 172/2/3
f 174/2/3 170/2/3 173/2/3
f 175/2/3 167/2/3 170/2/3
f 175/2/3 170/2/3 174/2/3
f 176/1/3 168/1/3 167/1/3
f 176/2/3 167/2/3 175/2/3
f 177/1/3 168/1/3 176/1/3
f 178/2/3 174/2/3 171/2/3
f 179/1/3 175/1/3 174/1/3
f 179/2/3 174/2/3 178/2/3
f 180/1/3 175/1/3 179/1/3
f 184/2/3 182/2/3 181/2/3
f 185/1/3 183/1/3 182/1/3
f 185/2/3 182/2/3 184/2/3
f 186/1/3 183/1/3 185/1/3
f 190/2/3 188/2/3 187/2/3
f 191/2/3 188/2/3 190/2/3
f 192/1/3 189/1/3 188/1/3
f 192/2/3 188/2/3 191/2/3
f 193/1/3 189/1/3 192/1/3
f 194/2/3 190/2/3 187/2/3
f 195/1/3 191/1/3 190/1/3
f 195/2/3 190/2/3 194/2/3
f 196/1/3 191/1/3 195/1/3
f 202/2/3 198/2/3 197/2/3
f 203/2/3 201/2/3 200/2/3
f 203/2/3 202/2/3 201/2/3
f 204/2/3 198/2/3 202/2/3
f 204/2/3 202/2/3 203/2/3
f 204/1/3 199/1/3 198/1/3
f 205/1/3 199/1/3 204/1/3
f 209/2/3 207/2/3 206/2/3
f 210/1/3 208/1/3 207/1/3
f 210/2/3 207/2/3 209/2/3
f 211/1/3 208/1/3 210/1/3
f 212/2/4 213/2/4 215/2/4
f 213/1/4 214/1/4 216/1/4
f 215/2/4 213/2/4 216/2/4
f 216/1/4 214/1/4 217/1/4
f 218/2/4 219/2/4 221/2/4
f 219/1/4 220/1/4 222/1/4
f 221/2/4 219/2/4 222/2/4
f 222/1/4 220/1/4 223/1/4
f 224/2/4 225/2/4 227/2/4
f 225/1/4 226/1/4 228/1/4
f 227/2/4 225/2/4 228/2/4
f 228/1/4 226/1/4 229/1/4
f 230/2/4 231/2/4 233/2/4
f 231/1/4 232/1/4 233/1/4
f 233/1/4 232/1/4 234/1/4
f 230/2/4 233/2/4 237/2/4
f 233/2/4 234/2/4 237/2/4
f 234/2/4 235/2/4 237/2/4
f 237/2/4 235/2/4 238/2/4
f 238/2/4 235/2/4 239/2/4
f 235/1/4 236/1/4 240/1/4
f 239/2/4 235/2/4 240/2/4
f 240/1/4 236/1/4 241/1/4
f 242/2/4 243/2/4 245/2/4
f 243/1/4 244/1/4 246/1/4
f 245/2/4 243/2/4 246/2/4
f 246/1/4 244/1/4 247/1/4
f 248/2/4 249/2/4 250/2/4
f 250/2/4 249/2/4 251/2/4
f 252/2/4 253/2/4 255/2/4
f 253/1/4 254/1/4 255/1/4
f 255/1/4 254/1/4 256/1/4
f 252/2/4 255/2/4 259/2/4
f 255/2/4 256/2/4 259/2/4
f 256/2/4 257/2/4 259/2/4
f 257/1/4 258/1/4 260/1/4
f 259/2/4 257/2/4 260/2/4
f 260/1/4 258/1/4 261/1/4
f 262/2/4 263/2/4 267/2/4
f 265/2/4 266/2/4 268/2/4
f 266/2/4 267/2/4 268/2/4
f 267/2/4 263/2/4 269/2/4
f 268/2/4 267/2/4 269/2/4
f 263/1/4 264/1/4 269/1/4
f 269/1/4 264/1/4 270/1/4
f 271/2/4 272/2/4 274/2/4
f 274/2/4 272/2/4 275/2/4
f 275/2/4 272/2/4 276/2/4
f 276/2/4 272/2/4 277/2/4
f 272/1/4 273/1/4 278/1/4
f 277/2/4 272/2/4 278/2/4
f 278/1/4 273/1/4 279/1/4
f 280/2/4 281/2/4 283/2/4
f 281/1/4 282/1/4 284/1/4
f 283/2/4 281/2/4 284/2/4
f 284/1/4 282/1/4 285/1/4
f 286/2/4 287/2/4 289/2/4
f 287/1/4 288/1/4 290/1/4
f 289/2/4 287/2/4 290/2/4
f 290/1/4 288/1/4 291/1/4
f 294/2/5 293/2/5 292/2/5
f 297/2/5 294/2/5 292/2/5
f 297/2/5 295/2/5 294/2/5
f 298/2/5 295/2/5 297/2/5
f 298/2/5 297/2/5 296/2/5
f 299/2/5 295/2/5 298/2/5
f 300/2/5 298/2/5 296/2/5
f 301/2/5 298/2/5 300/2/5
f 302/2/5 298/2/5 301/2/5
f 303/2/5 298/2/5 302/2/5
f 304/2/5 298/2/5 303/2/5
f 305/2/5 298/2/5 304/2/5
f 306/2/5 304/2/5 303/2/5
f 307/2/5 304/2/5 306/2/5
f 308/1/6 309/1/6 310/1/6
f 310/1/6 309/1/6 311/1/6
f 312/1/6 313/1/6 314/1/6
f 312/1/6 314/1/6 315/1/6
f 315/1/6 314/1/6 316/1/6
f 317/1/6 318/1/6 319/1/6
f 319/1/6 318/1/6 320/1/6
f 321/1/6 322/1/6 324/1/6
f 323/1/6 324/1/6 325/1/6
f 324/1/6 322/1/6 326/1/6
f 325/1/6 324/1/6 326/1/6
f 327/1/6 328/1/6 329/1/6
f 329/1/6 328/1/6 330/1/6
f 331/1/6 332/1/6 335/1/6
f 335/1/6 332/1/6 336/1/6
f 333/1/6 334/1/6 338/1/6
f 337/1/6 338/1/6 339/1/6
f 338/1/6 334/1/6 340/1/6
f 339/1/6 338/1/6 340/1/6
f 337/1/6 339/1/6 341/1/6
f 341/1/6 339/1/6 342/1/6
f 340/1/6 334/1/6 344/1/6
f 344/1/6 334/1/6 345/1/6
f 343/1/6 344/1/6 345/1/6
f 345/1/6 334/1/6 346/1/6
f 331/1/6 335/1/6 347/1/6
f 343/1/6 345/1/6 350/1/6
f 347/1/6 348/1/6 351/1/6
f 349/1/6 350/1/6 352/1/6
f 347/1/6 351/1/6 353/1/6
f 351/1/6 352/1/6 353/1/6
f 331/1/6 347/1/6 353/1/6
f 353/1/6 352/1/6 354/1/6
f 352/1/6 350/1/6 355/1/6
f 354/1/6 352/1/6 355/1/6
f 350/1/6 345/1/6 356/1/6
f 355/1/6 350/1/6 356/1/6
f 354/1/6 355/1/6 357/1/6
f 357/1/6 355/1/6 358/1/6
f 359/1/6 360/1/6 361/1/6
f 361/1/6 360/1/6 362/1/6
f 359/1/6 361/1/6 363/1/6
f 363/1/6 361/1/6 364/1/6
f 365/1/6 366/1/6 367/1/6
f 367/1/6 366/1/6 368/1/6
f 365/1/6 367/1/6 371/1/6
f 371/1/6 367/1/6 372/1/6
f 369/2/6 370/2/6 374/2/6
f 373/2/6 374/2/6 375/2/6
f 374/2/6 370/2/6 376/2/6
f 375/2/6 374/2/6 376/2/6
f 377/1/6 378/1/6 380/1/6
f 379/1/6 380/1/6 381/1/6
f 380/1/6 378/1/6 382/1/6
f 381/1/6 380/1/6 382/1/6
f 382/1/6 378/1/6 383/1/6
f 383/1/6 378/1/6 384/1/6
f 385/1/6 386/1/6 387/1/6
f 387/1/6 386/1/6 388/1/6
