# MagicaVoxel @ Ephtracy

# group
g BackGround_Snow_Rock-0

# material
mtllib BackGround_Snow_Rock-0.mtl
usemtl palette

# normals
vn -1 0 0
vn 1 0 0
vn 0 0 1
vn 0 0 -1
vn 0 -1 0
vn 0 1 0

# texcoords
vt 0.0175781 0.5
vt 0.0644531 0.5

# verts
v -5.5 -6.5 2.5
v -5.5 -6.5 -5.5
v -5.5 1.5 2.5
v -5.5 1.5 0.5
v -5.5 1.5 -2.5
v -5.5 1.5 -5.5
v -5.5 2.5 2.5
v -5.5 2.5 0.5
v -5.5 2.5 -2.5
v -5.5 2.5 -5.5
v -5.5 3.5 0.5
v -5.5 3.5 -2.5
v -5.5 4.5 0.5
v -5.5 4.5 -2.5
v -3.5 -6.5 4.5
v -3.5 -6.5 2.5
v -3.5 -3.5 4.5
v -3.5 -3.5 2.5
v -3.5 -2.5 4.5
v -3.5 -2.5 2.5
v -2.5 2.5 -2.5
v -2.5 2.5 -5.5
v -2.5 3.5 -2.5
v -2.5 3.5 -5.5
v -2.5 4.5 -2.5
v -2.5 4.5 -5.5
v -0.5 -6.5 5.5
v -0.5 -6.5 4.5
v -0.5 -3.5 4.5
v -0.5 -2.5 4.5
v -0.5 -2.5 2.5
v -0.5 0.5 5.5
v -0.5 0.5 2.5
v -0.5 1.5 5.5
v -0.5 1.5 2.5
v -0.5 4.5 0.5
v -0.5 4.5 -2.5
v -0.5 5.5 0.5
v -0.5 5.5 -2.5
v -0.5 6.5 0.5
v -0.5 6.5 -2.5
v 1.5 -0.5 5.5
v 1.5 -0.5 2.5
v 1.5 0.5 5.5
v 1.5 0.5 2.5
v 1.5 1.5 5.5
v 1.5 1.5 2.5
v 2.5 2.5 0.5
v 2.5 2.5 -2.5
v 2.5 3.5 -2.5
v 2.5 4.5 -2.5
v 2.5 5.5 0.5
v 2.5 5.5 -2.5
v 2.5 6.5 0.5
v 2.5 6.5 -2.5
v 3.5 2.5 -2.5
v 3.5 2.5 -5.5
v 3.5 3.5 -2.5
v 3.5 3.5 -5.5
v 3.5 4.5 -2.5
v 3.5 4.5 -5.5
v 4.5 -6.5 -4.5
v 4.5 -6.5 -5.5
v 4.5 -0.5 -4.5
v 4.5 0.5 2.5
v 4.5 0.5 -4.5
v 4.5 1.5 2.5
v 4.5 1.5 -5.5
v 4.5 2.5 2.5
v 4.5 2.5 -5.5
v 5.5 -6.5 5.5
v 5.5 -6.5 -4.5
v 5.5 -1.5 5.5
v 5.5 -1.5 2.5
v 5.5 -0.5 5.5
v 5.5 -0.5 2.5
v 5.5 -0.5 -4.5
v 5.5 0.5 2.5
v 5.5 0.5 -4.5
v -0.5 -6.5 5.5
v -0.5 0.5 5.5
v -0.5 1.5 5.5
v 1.5 -1.5 5.5
v 1.5 -0.5 5.5
v 1.5 0.5 5.5
v 1.5 1.5 5.5
v 5.5 -6.5 5.5
v 5.5 -1.5 5.5
v 5.5 -0.5 5.5
v -3.5 -6.5 4.5
v -3.5 -3.5 4.5
v -3.5 -2.5 4.5
v -0.5 -6.5 4.5
v -0.5 -3.5 4.5
v -0.5 -2.5 4.5
v -5.5 -6.5 2.5
v -5.5 1.5 2.5
v -5.5 2.5 2.5
v -3.5 -6.5 2.5
v -3.5 -3.5 2.5
v -3.5 -2.5 2.5
v -0.5 -2.5 2.5
v -0.5 0.5 2.5
v -0.5 1.5 2.5
v 1.5 -0.5 2.5
v 1.5 0.5 2.5
v 1.5 1.5 2.5
v 4.5 -0.5 2.5
v 4.5 0.5 2.5
v 4.5 1.5 2.5
v 4.5 2.5 2.5
v 5.5 -0.5 2.5
v 5.5 0.5 2.5
v -5.5 2.5 0.5
v -5.5 3.5 0.5
v -5.5 4.5 0.5
v -0.5 3.5 0.5
v -0.5 4.5 0.5
v -0.5 5.5 0.5
v -0.5 6.5 0.5
v 2.5 2.5 0.5
v 2.5 5.5 0.5
v 2.5 6.5 0.5
v 2.5 2.5 -2.5
v 2.5 3.5 -2.5
v 2.5 4.5 -2.5
v 3.5 2.5 -2.5
v 3.5 3.5 -2.5
v 3.5 4.5 -2.5
v -5.5 2.5 -2.5
v -5.5 3.5 -2.5
v -5.5 4.5 -2.5
v -2.5 2.5 -2.5
v -2.5 3.5 -2.5
v -2.5 4.5 -2.5
v -0.5 4.5 -2.5
v -0.5 5.5 -2.5
v -0.5 6.5 -2.5
v 2.5 4.5 -2.5
v 2.5 5.5 -2.5
v 2.5 6.5 -2.5
v 4.5 -6.5 -4.5
v 4.5 -0.5 -4.5
v 4.5 0.5 -4.5
v 5.5 -6.5 -4.5
v 5.5 -0.5 -4.5
v 5.5 0.5 -4.5
v -5.5 -6.5 -5.5
v -5.5 1.5 -5.5
v -5.5 2.5 -5.5
v -2.5 1.5 -5.5
v -2.5 2.5 -5.5
v -2.5 3.5 -5.5
v -2.5 4.5 -5.5
v 3.5 1.5 -5.5
v 3.5 2.5 -5.5
v 3.5 3.5 -5.5
v 3.5 4.5 -5.5
v 4.5 -6.5 -5.5
v 4.5 1.5 -5.5
v 4.5 2.5 -5.5
v -0.5 -6.5 5.5
v 5.5 -6.5 5.5
v -3.5 -6.5 4.5
v -0.5 -6.5 4.5
v -5.5 -6.5 2.5
v -3.5 -6.5 2.5
v 4.5 -6.5 -4.5
v 5.5 -6.5 -4.5
v -5.5 -6.5 -5.5
v 4.5 -6.5 -5.5
v -3.5 -2.5 4.5
v -0.5 -2.5 4.5
v -3.5 -2.5 2.5
v -0.5 -2.5 2.5
v 1.5 -0.5 5.5
v 5.5 -0.5 5.5
v 1.5 -0.5 2.5
v 4.5 -0.5 2.5
v 5.5 -0.5 2.5
v 4.5 0.5 2.5
v 5.5 0.5 2.5
v 4.5 0.5 -4.5
v 5.5 0.5 -4.5
v -0.5 1.5 5.5
v 1.5 1.5 5.5
v -0.5 1.5 2.5
v 1.5 1.5 2.5
v -5.5 2.5 2.5
v 4.5 2.5 2.5
v -5.5 2.5 0.5
v 2.5 2.5 0.5
v -5.5 2.5 -2.5
v -2.5 2.5 -2.5
v 2.5 2.5 -2.5
v 3.5 2.5 -2.5
v -5.5 2.5 -5.5
v -2.5 2.5 -5.5
v 3.5 2.5 -5.5
v 4.5 2.5 -5.5
v -5.5 4.5 0.5
v -0.5 4.5 0.5
v -5.5 4.5 -2.5
v -2.5 4.5 -2.5
v -0.5 4.5 -2.5
v 2.5 4.5 -2.5
v 3.5 4.5 -2.5
v -2.5 4.5 -5.5
v 3.5 4.5 -5.5
v -0.5 6.5 0.5
v 2.5 6.5 0.5
v -0.5 6.5 -2.5
v 2.5 6.5 -2.5

# faces
f 3/2/1 2/2/1 1/2/1
f 4/2/1 2/2/1 3/2/1
f 5/2/1 2/2/1 4/2/1
f 6/2/1 2/2/1 5/2/1
f 7/1/1 4/1/1 3/1/1
f 8/2/1 5/2/1 4/2/1
f 8/1/1 4/1/1 7/1/1
f 9/1/1 6/1/1 5/1/1
f 9/2/1 5/2/1 8/2/1
f 10/1/1 6/1/1 9/1/1
f 11/2/1 9/2/1 8/2/1
f 12/2/1 9/2/1 11/2/1
f 13/1/1 12/1/1 11/1/1
f 14/1/1 12/1/1 13/1/1
f 17/2/1 16/2/1 15/2/1
f 18/2/1 16/2/1 17/2/1
f 19/1/1 18/1/1 17/1/1
f 20/1/1 18/1/1 19/1/1
f 23/2/1 22/2/1 21/2/1
f 24/2/1 22/2/1 23/2/1
f 25/1/1 24/1/1 23/1/1
f 26/1/1 24/1/1 25/1/1
f 29/2/1 28/2/1 27/2/1
f 30/2/1 29/2/1 27/2/1
f 32/2/1 30/2/1 27/2/1
f 32/2/1 31/2/1 30/2/1
f 33/2/1 31/2/1 32/2/1
f 34/1/1 33/1/1 32/1/1
f 35/1/1 33/1/1 34/1/1
f 38/2/1 37/2/1 36/2/1
f 39/2/1 37/2/1 38/2/1
f 40/1/1 39/1/1 38/1/1
f 41/1/1 39/1/1 40/1/1
f 42/2/2 43/2/2 44/2/2
f 44/2/2 43/2/2 45/2/2
f 44/1/2 45/1/2 46/1/2
f 46/1/2 45/1/2 47/1/2
f 48/2/2 49/2/2 50/2/2
f 48/2/2 50/2/2 51/2/2
f 48/2/2 51/2/2 52/2/2
f 52/2/2 51/2/2 53/2/2
f 52/1/2 53/1/2 54/1/2
f 54/1/2 53/1/2 55/1/2
f 56/2/2 57/2/2 58/2/2
f 58/2/2 57/2/2 59/2/2
f 58/1/2 59/1/2 60/1/2
f 60/1/2 59/1/2 61/1/2
f 62/2/2 63/2/2 64/2/2
f 64/2/2 63/2/2 66/2/2
f 65/2/2 66/2/2 67/2/2
f 66/2/2 63/2/2 68/2/2
f 67/2/2 66/2/2 68/2/2
f 67/1/2 68/1/2 69/1/2
f 69/1/2 68/1/2 70/1/2
f 71/2/2 72/2/2 73/2/2
f 73/2/2 72/2/2 74/2/2
f 73/1/2 74/1/2 75/1/2
f 74/2/2 72/2/2 76/2/2
f 75/1/2 74/1/2 76/1/2
f 76/2/2 72/2/2 77/2/2
f 76/1/2 77/1/2 78/1/2
f 78/1/2 77/1/2 79/1/2
f 83/2/3 81/2/3 80/2/3
f 84/2/3 81/2/3 83/2/3
f 85/1/3 82/1/3 81/1/3
f 85/2/3 81/2/3 84/2/3
f 86/1/3 82/1/3 85/1/3
f 87/2/3 83/2/3 80/2/3
f 88/1/3 84/1/3 83/1/3
f 88/2/3 83/2/3 87/2/3
f 89/1/3 84/1/3 88/1/3
f 93/2/3 91/2/3 90/2/3
f 94/1/3 92/1/3 91/1/3
f 94/2/3 91/2/3 93/2/3
f 95/1/3 92/1/3 94/1/3
f 99/2/3 97/2/3 96/2/3
f 100/2/3 97/2/3 99/2/3
f 101/2/3 97/2/3 100/2/3
f 102/2/3 97/2/3 101/2/3
f 103/2/3 97/2/3 102/2/3
f 104/1/3 98/1/3 97/1/3
f 104/2/3 97/2/3 103/2/3
f 107/1/3 98/1/3 104/1/3
f 108/2/3 106/2/3 105/2/3
f 108/2/3 107/2/3 106/2/3
f 109/2/3 107/2/3 108/2/3
f 110/1/3 98/1/3 107/1/3
f 110/2/3 107/2/3 109/2/3
f 111/1/3 98/1/3 110/1/3
f 112/1/3 109/1/3 108/1/3
f 113/1/3 109/1/3 112/1/3
f 117/2/3 115/2/3 114/2/3
f 117/1/3 116/1/3 115/1/3
f 118/1/3 116/1/3 117/1/3
f 121/2/3 117/2/3 114/2/3
f 121/2/3 118/2/3 117/2/3
f 121/2/3 119/2/3 118/2/3
f 122/1/3 120/1/3 119/1/3
f 122/2/3 119/2/3 121/2/3
f 123/1/3 120/1/3 122/1/3
f 127/2/3 125/2/3 124/2/3
f 128/1/3 126/1/3 125/1/3
f 128/2/3 125/2/3 127/2/3
f 129/1/3 126/1/3 128/1/3
f 130/2/4 131/2/4 133/2/4
f 131/1/4 132/1/4 134/1/4
f 133/2/4 131/2/4 134/2/4
f 134/1/4 132/1/4 135/1/4
f 136/2/4 137/2/4 139/2/4
f 137/1/4 138/1/4 140/1/4
f 139/2/4 137/2/4 140/2/4
f 140/1/4 138/1/4 141/1/4
f 142/2/4 143/2/4 145/2/4
f 143/1/4 144/1/4 146/1/4
f 145/2/4 143/2/4 146/2/4
f 146/1/4 144/1/4 147/1/4
f 148/2/4 149/2/4 151/2/4
f 149/1/4 150/1/4 151/1/4
f 151/1/4 150/1/4 152/1/4
f 148/2/4 151/2/4 155/2/4
f 151/2/4 152/2/4 155/2/4
f 152/2/4 153/2/4 155/2/4
f 155/2/4 153/2/4 156/2/4
f 153/1/4 154/1/4 157/1/4
f 156/2/4 153/2/4 157/2/4
f 157/1/4 154/1/4 158/1/4
f 148/2/4 155/2/4 159/2/4
f 155/1/4 156/1/4 160/1/4
f 159/2/4 155/2/4 160/2/4
f 160/1/4 156/1/4 161/1/4
f 165/2/5 163/2/5 162/2/5
f 167/2/5 165/2/5 164/2/5
f 168/2/5 163/2/5 165/2/5
f 168/2/5 167/2/5 166/2/5
f 168/2/5 165/2/5 167/2/5
f 169/2/5 163/2/5 168/2/5
f 170/2/5 168/2/5 166/2/5
f 171/2/5 168/2/5 170/2/5
f 172/1/6 173/1/6 174/1/6
f 174/1/6 173/1/6 175/1/6
f 176/1/6 177/1/6 178/1/6
f 178/1/6 177/1/6 179/1/6
f 179/1/6 177/1/6 180/1/6
f 181/1/6 182/1/6 183/1/6
f 183/1/6 182/1/6 184/1/6
f 185/1/6 186/1/6 187/1/6
f 187/1/6 186/1/6 188/1/6
f 189/1/6 190/1/6 191/1/6
f 191/1/6 190/1/6 192/1/6
f 192/1/6 190/1/6 195/1/6
f 195/1/6 190/1/6 196/1/6
f 193/1/6 194/1/6 197/1/6
f 197/1/6 194/1/6 198/1/6
f 196/1/6 190/1/6 199/1/6
f 199/1/6 190/1/6 200/1/6
f 201/1/6 202/1/6 203/1/6
f 203/1/6 202/1/6 204/1/6
f 204/1/6 202/1/6 205/1/6
f 206/1/6 207/1/6 208/1/6
f 205/1/6 206/1/6 208/1/6
f 204/1/6 205/1/6 208/1/6
f 208/1/6 207/1/6 209/1/6
f 210/1/6 211/1/6 212/1/6
f 212/1/6 211/1/6 213/1/6
