# MagicaVoxel @ Ephtracy

# group
g Background_Snow_Grass-0

# material
mtllib Background_Snow_Grass-0.mtl
usemtl palette

# normals
vn -1 0 0
vn 1 0 0
vn 0 0 1
vn 0 0 -1
vn 0 -1 0
vn 0 1 0

# texcoords
vt 0.189453 0.5
vt 0.193359 0.5
vt 0.197266 0.5

# verts
v -4 -4 2.5
v -4 -4 1.5
v -4 2 2.5
v -4 2 1.5
v -4 3 2.5
v -4 3 1.5
v -4 4 2.5
v -4 4 1.5
v -2 -4 -2.5
v -2 -4 -3.5
v -2 1 -2.5
v -2 1 -3.5
v -2 2 -2.5
v -2 2 -3.5
v 1 -4 0.5
v 1 -4 -0.5
v 1 1 0.5
v 1 1 -0.5
v 1 3 0.5
v 1 3 -0.5
v 1 4 0.5
v 1 4 -0.5
v 3 -4 3.5
v 3 -4 2.5
v 3 -4 -2.5
v 3 -4 -3.5
v 3 1 3.5
v 3 1 2.5
v 3 1 -2.5
v 3 1 -3.5
v 3 2 3.5
v 3 2 2.5
v 3 3 -2.5
v 3 3 -3.5
v -3 -4 2.5
v -3 -4 1.5
v -3 2 2.5
v -3 2 1.5
v -3 3 2.5
v -3 3 1.5
v -3 4 2.5
v -3 4 1.5
v -1 -4 -2.5
v -1 -4 -3.5
v -1 1 -2.5
v -1 1 -3.5
v -1 2 -2.5
v -1 2 -3.5
v 2 -4 0.5
v 2 -4 -0.5
v 2 1 0.5
v 2 1 -0.5
v 2 3 0.5
v 2 3 -0.5
v 2 4 0.5
v 2 4 -0.5
v 4 -4 3.5
v 4 -4 2.5
v 4 -4 -2.5
v 4 -4 -3.5
v 4 1 3.5
v 4 1 2.5
v 4 1 -2.5
v 4 1 -3.5
v 4 2 3.5
v 4 2 2.5
v 4 3 -2.5
v 4 3 -3.5
v 3 -4 3.5
v 3 1 3.5
v 3 2 3.5
v 4 -4 3.5
v 4 1 3.5
v 4 2 3.5
v -4 -4 2.5
v -4 2 2.5
v -4 3 2.5
v -4 4 2.5
v -3 -4 2.5
v -3 2 2.5
v -3 3 2.5
v -3 4 2.5
v 1 -4 0.5
v 1 1 0.5
v 1 3 0.5
v 1 4 0.5
v 2 -4 0.5
v 2 1 0.5
v 2 3 0.5
v 2 4 0.5
v -2 -4 -2.5
v -2 1 -2.5
v -2 2 -2.5
v -1 -4 -2.5
v -1 1 -2.5
v -1 2 -2.5
v 3 -4 -2.5
v 3 1 -2.5
v 3 3 -2.5
v 4 -4 -2.5
v 4 1 -2.5
v 4 3 -2.5
v 3 -4 2.5
v 3 1 2.5
v 3 2 2.5
v 4 -4 2.5
v 4 1 2.5
v 4 2 2.5
v -4 -4 1.5
v -4 2 1.5
v -4 3 1.5
v -4 4 1.5
v -3 -4 1.5
v -3 2 1.5
v -3 3 1.5
v -3 4 1.5
v 1 -4 -0.5
v 1 1 -0.5
v 1 3 -0.5
v 1 4 -0.5
v 2 -4 -0.5
v 2 1 -0.5
v 2 3 -0.5
v 2 4 -0.5
v -2 -4 -3.5
v -2 1 -3.5
v -2 2 -3.5
v -1 -4 -3.5
v -1 1 -3.5
v -1 2 -3.5
v 3 -4 -3.5
v 3 1 -3.5
v 3 3 -3.5
v 4 -4 -3.5
v 4 1 -3.5
v 4 3 -3.5
v 3 -4 3.5
v 4 -4 3.5
v -4 -4 2.5
v -3 -4 2.5
v 3 -4 2.5
v 4 -4 2.5
v -4 -4 1.5
v -3 -4 1.5
v 1 -4 0.5
v 2 -4 0.5
v 1 -4 -0.5
v 2 -4 -0.5
v -2 -4 -2.5
v -1 -4 -2.5
v 3 -4 -2.5
v 4 -4 -2.5
v -2 -4 -3.5
v -1 -4 -3.5
v 3 -4 -3.5
v 4 -4 -3.5
v 3 2 3.5
v 4 2 3.5
v 3 2 2.5
v 4 2 2.5
v -2 2 -2.5
v -1 2 -2.5
v -2 2 -3.5
v -1 2 -3.5
v 3 3 -2.5
v 4 3 -2.5
v 3 3 -3.5
v 4 3 -3.5
v -4 4 2.5
v -3 4 2.5
v -4 4 1.5
v -3 4 1.5
v 1 4 0.5
v 2 4 0.5
v 1 4 -0.5
v 2 4 -0.5

# faces
f 3/1/1 2/1/1 1/1/1
f 4/1/1 2/1/1 3/1/1
f 5/2/1 4/2/1 3/2/1
f 6/2/1 4/2/1 5/2/1
f 7/3/1 6/3/1 5/3/1
f 8/3/1 6/3/1 7/3/1
f 11/1/1 10/1/1 9/1/1
f 12/1/1 10/1/1 11/1/1
f 13/2/1 12/2/1 11/2/1
f 14/2/1 12/2/1 13/2/1
f 17/1/1 16/1/1 15/1/1
f 18/1/1 16/1/1 17/1/1
f 19/2/1 18/2/1 17/2/1
f 20/2/1 18/2/1 19/2/1
f 21/3/1 20/3/1 19/3/1
f 22/3/1 20/3/1 21/3/1
f 27/1/1 24/1/1 23/1/1
f 28/1/1 24/1/1 27/1/1
f 29/1/1 26/1/1 25/1/1
f 30/1/1 26/1/1 29/1/1
f 31/2/1 28/2/1 27/2/1
f 32/2/1 28/2/1 31/2/1
f 33/2/1 30/2/1 29/2/1
f 34/2/1 30/2/1 33/2/1
f 35/1/2 36/1/2 37/1/2
f 37/1/2 36/1/2 38/1/2
f 37/2/2 38/2/2 39/2/2
f 39/2/2 38/2/2 40/2/2
f 39/3/2 40/3/2 41/3/2
f 41/3/2 40/3/2 42/3/2
f 43/1/2 44/1/2 45/1/2
f 45/1/2 44/1/2 46/1/2
f 45/2/2 46/2/2 47/2/2
f 47/2/2 46/2/2 48/2/2
f 49/1/2 50/1/2 51/1/2
f 51/1/2 50/1/2 52/1/2
f 51/2/2 52/2/2 53/2/2
f 53/2/2 52/2/2 54/2/2
f 53/3/2 54/3/2 55/3/2
f 55/3/2 54/3/2 56/3/2
f 57/1/2 58/1/2 61/1/2
f 61/1/2 58/1/2 62/1/2
f 59/1/2 60/1/2 63/1/2
f 63/1/2 60/1/2 64/1/2
f 61/2/2 62/2/2 65/2/2
f 65/2/2 62/2/2 66/2/2
f 63/2/2 64/2/2 67/2/2
f 67/2/2 64/2/2 68/2/2
f 72/1/3 70/1/3 69/1/3
f 73/2/3 71/2/3 70/2/3
f 73/1/3 70/1/3 72/1/3
f 74/2/3 71/2/3 73/2/3
f 79/1/3 76/1/3 75/1/3
f 80/2/3 77/2/3 76/2/3
f 80/1/3 76/1/3 79/1/3
f 81/3/3 78/3/3 77/3/3
f 81/2/3 77/2/3 80/2/3
f 82/3/3 78/3/3 81/3/3
f 87/1/3 84/1/3 83/1/3
f 88/2/3 85/2/3 84/2/3
f 88/1/3 84/1/3 87/1/3
f 89/3/3 86/3/3 85/3/3
f 89/2/3 85/2/3 88/2/3
f 90/3/3 86/3/3 89/3/3
f 94/1/3 92/1/3 91/1/3
f 95/2/3 93/2/3 92/2/3
f 95/1/3 92/1/3 94/1/3
f 96/2/3 93/2/3 95/2/3
f 100/1/3 98/1/3 97/1/3
f 101/2/3 99/2/3 98/2/3
f 101/1/3 98/1/3 100/1/3
f 102/2/3 99/2/3 101/2/3
f 103/1/4 104/1/4 106/1/4
f 104/2/4 105/2/4 107/2/4
f 106/1/4 104/1/4 107/1/4
f 107/2/4 105/2/4 108/2/4
f 109/1/4 110/1/4 113/1/4
f 110/2/4 111/2/4 114/2/4
f 113/1/4 110/1/4 114/1/4
f 111/3/4 112/3/4 115/3/4
f 114/2/4 111/2/4 115/2/4
f 115/3/4 112/3/4 116/3/4
f 117/1/4 118/1/4 121/1/4
f 118/2/4 119/2/4 122/2/4
f 121/1/4 118/1/4 122/1/4
f 119/3/4 120/3/4 123/3/4
f 122/2/4 119/2/4 123/2/4
f 123/3/4 120/3/4 124/3/4
f 125/1/4 126/1/4 128/1/4
f 126/2/4 127/2/4 129/2/4
f 128/1/4 126/1/4 129/1/4
f 129/2/4 127/2/4 130/2/4
f 131/1/4 132/1/4 134/1/4
f 132/2/4 133/2/4 135/2/4
f 134/1/4 132/1/4 135/1/4
f 135/2/4 133/2/4 136/2/4
f 141/1/5 138/1/5 137/1/5
f 142/1/5 138/1/5 141/1/5
f 143/1/5 140/1/5 139/1/5
f 144/1/5 140/1/5 143/1/5
f 147/1/5 146/1/5 145/1/5
f 148/1/5 146/1/5 147/1/5
f 153/1/5 150/1/5 149/1/5
f 154/1/5 150/1/5 153/1/5
f 155/1/5 152/1/5 151/1/5
f 156/1/5 152/1/5 155/1/5
f 157/2/6 158/2/6 159/2/6
f 159/2/6 158/2/6 160/2/6
f 161/2/6 162/2/6 163/2/6
f 163/2/6 162/2/6 164/2/6
f 165/2/6 166/2/6 167/2/6
f 167/2/6 166/2/6 168/2/6
f 169/3/6 170/3/6 171/3/6
f 171/3/6 170/3/6 172/3/6
f 173/3/6 174/3/6 175/3/6
f 175/3/6 174/3/6 176/3/6
